<?xml version="1.0" encoding="utf-8"?>
<!-- Generator: Adobe Illustrator 23.0.3, SVG Export Plug-In . SVG Version: 6.00 Build 0)  -->
<svg version="1.1" id="Layer_1" xmlns="http://www.w3.org/2000/svg" xmlns:xlink="http://www.w3.org/1999/xlink" x="0px" y="0px"
	 viewBox="0 0 512 512" style="enable-background:new 0 0 512 512;" xml:space="preserve">
<style type="text/css">
	.st0{fill-rule:evenodd;clip-rule:evenodd;fill:#FFFFFF;}
	.st1{fill-rule:evenodd;clip-rule:evenodd;fill:#FFA502;}
	.st2{fill-rule:evenodd;clip-rule:evenodd;fill:#FFA902;}
	.st3{fill-rule:evenodd;clip-rule:evenodd;fill:#FFAC02;}
	.st4{fill-rule:evenodd;clip-rule:evenodd;fill:#FFB001;}
	.st5{fill-rule:evenodd;clip-rule:evenodd;fill:#FFB301;}
	.st6{fill-rule:evenodd;clip-rule:evenodd;fill:#FFB701;}
	.st7{fill-rule:evenodd;clip-rule:evenodd;fill:#FFBA01;}
	.st8{fill-rule:evenodd;clip-rule:evenodd;fill:#FFBE01;}
	.st9{fill-rule:evenodd;clip-rule:evenodd;fill:#FFC101;}
	.st10{fill-rule:evenodd;clip-rule:evenodd;fill:#FFC500;}
	.st11{fill-rule:evenodd;clip-rule:evenodd;fill:#FFC800;}
	.st12{fill-rule:evenodd;clip-rule:evenodd;fill:#FFCC00;}
	.st13{fill:none;stroke:#FFA502;stroke-width:1.0303;stroke-miterlimit:22.9256;}
	.st14{fill-rule:evenodd;clip-rule:evenodd;fill:#E6E6E6;}
	.st15{opacity:0.5;fill-rule:evenodd;clip-rule:evenodd;fill:#FFFFFF;}
</style>
<g>
	<path class="st0" d="M82.96,429.32c-47.58-46.23-71.64-106.55-67.4-173.08c5.39-84.59,50.29-157.81,121.47-202.93
		c17.47-11.05,36.37-20.39,56.49-28.11c34.5-13.23,62.12-14.15,97.89-9.17c74.27,12.28,120.11,49.69,162.47,109.09
		c80.08,112.39,44.16,265.89-71.98,337.85c-38.52,23.84-82.54,36.28-127.82,36.28C190.69,498.43,128.46,473.55,82.96,429.32
		 M76.01,436.28C26.53,388.19,1.5,325.44,5.9,256.24C11.51,168.27,58.2,92.1,132.25,45.16c18.17-11.51,37.82-21.21,58.75-29.24
		C226.9,2.17,255.63,1.2,292.83,6.39c77.25,12.77,124.93,51.69,168.99,113.47c83.3,116.9,45.95,276.57-74.88,351.4
		C346.89,496.06,301.09,509,253.99,509C188.07,508.16,123.34,482.27,76.01,436.28z"/>
	<path class="st1" d="M116.09,396.1c-22.02-21.41-38.44-47.63-47.6-77.01c-15.21-48.68-5.52-109.45,19.98-152.94
		c26.85-46.35,67.39-77.6,116.98-96.63c27.84-10.68,50.23-11.45,79.11-7.41c60.04,9.94,97.04,40.16,131.29,88.16
		c22.8,32.01,33.95,66.41,34.95,105.92c0,108.6-88.07,196.41-196.41,196.41C203.16,451.96,152.86,431.84,116.09,396.1"/>
	<path class="st2" d="M123.32,396.73c-20.88-20.14-36.46-44.82-45.15-72.45c-14.42-45.79-4.72-104.78,18.95-143.87
		c24.65-41.9,64.45-70.16,112.53-87.48c28.32-9.75,51.76-10.68,78.59-7.59c55.74,7.85,89.56,38.6,120.74,83.49
		c20.72,30.82,29.99,63.64,29.5,100.69c-1.4,99.85-83.39,180.37-184.02,180.37C205.89,449.26,158.19,430.34,123.32,396.73"/>
	<path class="st3" d="M130.53,397.34c-19.75-18.86-34.47-41.99-42.69-67.88c-13.63-42.9-3.92-100.1,17.92-134.8
		c22.46-37.48,61.49-62.72,108.08-78.35c28.81-8.81,53.31-9.9,78.09-7.78c51.44,5.77,82.08,37.06,110.17,78.83
		c18.65,29.62,26.05,60.87,24.07,95.45c-2.8,91.1-78.71,164.34-171.62,164.34C208.61,446.57,163.51,428.84,130.53,397.34"/>
	<path class="st4" d="M137.76,397.96c-18.61-17.6-32.49-39.16-40.24-63.32c-12.85-40.01-3.14-95.42,16.89-125.73
		c20.26-33.05,58.54-55.28,103.63-69.21c29.29-7.87,54.84-9.13,77.58-7.97c47.13,3.68,74.58,35.5,99.6,74.17
		c16.58,28.43,22.1,58.11,18.63,90.22c-4.19,82.35-74.03,148.3-159.21,148.3C211.35,443.88,168.83,427.34,137.76,397.96"/>
	<path class="st5" d="M144.98,398.59c-17.48-16.33-30.51-36.34-37.78-58.76c-12.07-37.13-2.34-90.74,15.86-116.67
		c18.07-28.62,55.59-47.83,99.19-60.07c29.76-6.93,56.37-8.35,77.06-8.14c42.83,1.59,67.09,33.95,89.04,69.5
		c14.5,27.24,18.15,55.35,13.19,84.99c-5.59,73.6-69.35,132.26-146.81,132.26C214.07,441.2,174.16,425.84,144.98,398.59"/>
	<path class="st6" d="M152.2,399.2c-16.34-15.06-28.52-33.52-35.32-54.19c-11.28-34.25-1.55-86.07,14.83-107.6
		c15.88-24.19,52.63-40.39,94.73-50.93c30.24-5.99,57.92-7.58,76.56-8.34c38.54-0.49,59.61,32.41,78.49,64.84
		c12.43,26.05,14.19,52.58,7.74,79.76c-6.99,64.85-64.68,116.22-134.42,116.22C216.8,438.5,179.48,424.35,152.2,399.2"/>
	<path class="st7" d="M159.42,399.83c-15.2-13.79-26.53-30.7-32.86-49.62c-10.5-31.36-0.76-81.4,13.79-98.54
		c13.69-19.76,49.69-32.95,90.29-41.79c30.73-5.05,59.45-6.8,76.05-8.51c34.23-2.58,52.11,30.86,67.92,60.18
		c10.36,24.85,10.24,49.81,2.31,74.52c-8.39,56.1-60,100.19-122.03,100.19C219.53,435.82,184.8,422.85,159.42,399.83"/>
	<path class="st8" d="M166.63,400.45c-14.06-12.53-24.55-27.87-30.4-45.06c-9.72-28.47,0.02-76.72,12.76-89.47
		c11.5-15.33,46.74-25.5,85.84-32.65c31.21-4.12,60.99-6.03,75.54-8.71c29.93-4.66,44.63,29.31,57.36,55.52
		c8.29,23.66,6.29,47.04-3.13,69.28c-9.79,47.35-55.33,84.15-109.63,84.15C222.25,433.13,190.13,421.36,166.63,400.45"/>
	<path class="st9" d="M173.85,401.07c-12.93-11.25-22.57-25.05-27.95-40.49c-8.93-25.59,0.82-72.04,11.73-80.41
		c9.31-10.9,43.79-18.07,81.39-23.51c31.68-3.17,62.53-5.26,75.03-8.89c25.63-6.74,37.14,27.76,46.8,50.85
		c6.22,22.48,2.34,44.28-8.57,64.06c-11.19,38.6-50.65,68.11-97.23,68.11C224.97,430.44,195.45,419.86,173.85,401.07"/>
	<path class="st10" d="M181.08,401.69c-11.79-9.99-20.59-22.22-25.5-35.93c-8.14-22.7,1.61-67.37,10.71-71.34
		c7.11-6.46,40.83-10.62,76.94-14.37c32.16-2.23,64.06-4.49,74.52-9.07c21.32-8.82,29.65,26.21,36.23,46.18
		c4.15,21.28-1.61,41.51-14.01,58.82c-12.58,29.86-45.96,52.07-84.82,52.07C227.71,427.75,200.77,418.37,181.08,401.69"/>
	<path class="st11" d="M188.3,402.31c-10.65-8.71-18.6-19.4-23.04-31.36c-7.36-19.82,2.41-62.69,9.67-62.28
		c4.92-2.03,37.88-3.17,72.5-5.23c32.63-1.29,65.6-3.71,74.01-9.25c17.03-10.92,22.17,24.65,25.67,41.51
		c2.07,20.09-5.56,38.76-19.45,53.59c-13.98,21.12-41.28,36.04-72.43,36.04C230.43,425.07,206.1,416.87,188.3,402.31"/>
	<path class="st12" d="M195.52,402.94c-9.52-7.45-16.62-16.58-20.58-26.8c-6.58-16.93,3.19-58.01,8.63-53.21
		c5.45,4.79,128.82,7.47,141.55-5.53c12.73-12.99,14.68,23.11,15.11,36.86c0,37.79-38.08,68.35-84.92,68.35
		C233.15,422.38,211.41,415.37,195.52,402.94"/>
	<path class="st12" d="M131.45,263.33C48.7,308.24,75.61,72.71,254.43,73.29c194.25,0.64,203.79,222.95,131.34,190.04
		C331.56,238.71,188.81,232.2,131.45,263.33"/>
	<path class="st12" d="M254.48,397.02c-76.73-0.99-147.25-44.47-177.97-115.47c-7.17-16.55-9.77-32.87-10.46-50.77
		c-10.98,69.01,8.69,128.51,62.55,174.15c36.08,30.55,78.78,45.51,125.88,46.11c107.6,0,194.83-87.23,194.83-194.83
		c-0.07-9.41-0.61-17.65-1.88-26.99C433.02,326.77,352.94,395.74,254.48,397.02"/>
	<path class="st13" d="M196.87,199.72H162.1c-5.62,0-10.22,4.59-10.22,10.21v105.52c0,5.62,4.6,10.21,10.22,10.21h34.78
		c5.61,0,10.21-4.59,10.21-10.21V209.92C207.08,204.31,202.48,199.72,196.87,199.72z M334.69,225.15
		c14.9,5.95,25.45,20.51,25.45,37.53c0,17.02-10.54,31.58-25.45,37.53V225.15z M304.01,366.36c12.85,5.72,23.89,7.42,24.09-15.59
		V170.34c0.04-14.47-6.61-17.86-18.37-12.72l-90.49,56.59c-3.95,2.47-5.98,5.66-5.98,11.23v77.52c0,4.2,1.87,7.82,6.09,10.45
		L304.01,366.36z"/>
	<path class="st1" d="M196.89,199.69h-34.78c-5.63,0-10.22,4.6-10.22,10.22v105.51c0,5.62,4.6,10.22,10.22,10.22h34.78
		c5.61,0,10.21-4.6,10.21-10.22V209.91C207.09,204.29,202.5,199.69,196.89,199.69 M334.7,225.14c14.9,5.94,25.44,20.51,25.44,37.52
		c0,17.02-10.53,31.58-25.44,37.54V225.14z M304.03,366.34c12.84,5.72,23.88,7.42,24.08-15.59V170.32
		c0.04-14.47-6.61-17.86-18.37-12.71l-90.49,56.59c-3.97,2.47-5.99,5.65-5.99,11.22v77.52c0,4.21,1.87,7.82,6.09,10.46
		L304.03,366.34z"/>
	<path class="st13" d="M196.87,186.86H162.1c-5.62,0-10.22,4.6-10.22,10.22v105.51c0,5.62,4.6,10.22,10.22,10.22h34.78
		c5.61,0,10.21-4.6,10.21-10.22V197.07C207.08,191.45,202.48,186.86,196.87,186.86z M334.69,212.3
		c14.9,5.95,25.45,20.51,25.45,37.52c0,17.02-10.54,31.58-25.45,37.53V212.3z M304.01,353.5c12.85,5.71,23.89,7.43,24.09-15.59
		V157.48c0.04-14.47-6.61-17.87-18.37-12.71l-90.49,56.59c-3.95,2.47-5.98,5.65-5.98,11.23v77.52c0,4.21,1.87,7.82,6.09,10.46
		L304.01,353.5z"/>
	<path class="st14" d="M196.89,186.84h-34.78c-5.63,0-10.22,4.59-10.22,10.21v105.51c0,5.63,4.6,10.22,10.22,10.22h34.78
		c5.61,0,10.21-4.59,10.21-10.22V197.05C207.09,191.43,202.5,186.84,196.89,186.84 M334.7,212.28c14.9,5.95,25.44,20.51,25.44,37.53
		c0,17.01-10.53,31.58-25.44,37.52V212.28z M304.03,353.48c12.84,5.72,23.88,7.43,24.08-15.59V157.46
		c0.04-14.47-6.61-17.86-18.37-12.71l-90.49,56.59c-3.97,2.47-5.99,5.65-5.99,11.23v77.52c0,4.2,1.87,7.82,6.09,10.46L304.03,353.48
		z"/>
	<path class="st0" d="M207.09,247.73h-55.2v-50.68c0-5.62,4.6-10.21,10.21-10.21h34.79c5.61,0,10.2,4.59,10.2,10.21V247.73z
		 M360.09,247.73h-25.38v-35.46C349,217.98,359.27,231.61,360.09,247.73z M328.11,247.73v-90.27c0.04-14.46-6.62-17.86-18.37-12.71
		l-90.49,56.59c-3.95,2.47-5.98,5.65-5.98,11.23v35.17H328.11z"/>
	<path class="st15" d="M241.85,81.47c32.13,35.03,20.37,98.11-26.28,140.9c-46.64,42.78-110.5,49.08-142.63,14.05
		c-22.48-24.5-28.52-113.68-37.03,19.83c-3.88,60.9,18.14,116.12,61.7,158.44c41.65,40.48,98.6,63.25,156.62,64
		c37.4,0,73.88-9.28,106.54-27.13c-9.09-0.4-17.3-3.72-23.16-10.11c-14.4-15.7-9.13-43.96,11.77-63.14
		c20.9-19.17,49.52-21.99,63.91-6.3c7.68,8.37,9.76,20.32,6.86,32.56c65.63-73.06,77.41-183.51,16.96-268.35
		c-38.77-54.36-80.74-88.61-148.72-99.85c-32.75-4.56-58.02-3.72-89.61,8.39c-12.7,4.89-24.88,10.46-36.46,16.78
		C193.18,54.59,222.98,60.9,241.85,81.47 M76.34,435.95c-49.4-48-74.38-110.62-69.98-179.71c5.61-87.82,52.2-163.85,126.12-210.68
		c18.14-11.48,37.76-21.18,58.64-29.2c35.83-13.73,64.5-14.69,101.64-9.51c77.11,12.75,124.71,51.6,168.68,113.26
		c83.13,116.68,45.85,276.06-74.75,350.76c-39.99,24.75-85.69,37.68-132.7,37.68C188.19,507.68,123.58,481.86,76.34,435.95z"/>
	<path class="st15" d="M136.82,375.45c-32.76-31.84-49.34-73.38-46.42-119.21c3.72-58.26,34.63-108.69,83.66-139.76
		c12.04-7.62,25.05-14.05,38.91-19.37c23.77-9.11,42.79-9.74,67.42-6.32c51.15,8.46,82.73,34.23,111.9,75.14
		c55.16,77.4,30.42,183.14-49.58,232.69c-26.52,16.42-56.84,24.99-88.04,24.99C211.02,423.04,168.16,405.91,136.82,375.45
		 M76.01,436.28C26.53,388.19,1.5,325.44,5.9,256.24C11.51,168.27,58.2,92.1,132.25,45.16c18.17-11.51,37.82-21.21,58.75-29.24
		C226.9,2.17,255.63,1.2,292.83,6.39c77.25,12.77,124.93,51.69,168.99,113.47c83.3,116.9,45.95,276.57-74.88,351.4
		C346.89,496.06,301.09,509,253.99,509C188.07,508.16,123.34,482.27,76.01,436.28z"/>
	<path class="st0" d="M243.76,48.55c12.23,21.05-3.23,52.86-34.52,71.04c-31.29,18.18-66.58,15.84-78.81-5.22
		c-12.23-21.06,3.23-52.87,34.51-71.05C196.24,25.15,231.53,27.49,243.76,48.55"/>
	<path class="st0" d="M119.06,119.9c9.8,10.77,4.76,31.3-11.24,45.84c-16,14.55-36.9,17.63-46.69,6.86s-4.77-31.3,11.23-45.85
		C88.35,112.21,109.26,109.13,119.06,119.9"/>
	<path class="st0" d="M360.74,434.6c6.62,9.67,0.33,25.48-14.04,35.3c-14.37,9.83-31.38,9.96-37.99,0.29
		c-6.62-9.66-0.33-25.47,14.04-35.3C337.12,425.06,354.13,424.93,360.74,434.6"/>
</g>
</svg>
