<?xml version="1.0" encoding="utf-8"?>
<!-- Generator: Adobe Illustrator 23.0.3, SVG Export Plug-In . SVG Version: 6.00 Build 0)  -->
<svg version="1.1" id="Layer_1" xmlns="http://www.w3.org/2000/svg" xmlns:xlink="http://www.w3.org/1999/xlink" x="0px" y="0px"
	 viewBox="0 0 512 512" style="enable-background:new 0 0 512 512;" xml:space="preserve">
<style type="text/css">
	.st0{fill-rule:evenodd;clip-rule:evenodd;fill:#FFFFFF;}
	.st1{fill-rule:evenodd;clip-rule:evenodd;fill:#C60A09;}
	.st2{fill-rule:evenodd;clip-rule:evenodd;fill:#C80F0F;}
	.st3{fill-rule:evenodd;clip-rule:evenodd;fill:#CA1416;}
	.st4{fill-rule:evenodd;clip-rule:evenodd;fill:#CC191C;}
	.st5{fill-rule:evenodd;clip-rule:evenodd;fill:#CE1E23;}
	.st6{fill-rule:evenodd;clip-rule:evenodd;fill:#D02329;}
	.st7{fill-rule:evenodd;clip-rule:evenodd;fill:#D12730;}
	.st8{fill-rule:evenodd;clip-rule:evenodd;fill:#D32C36;}
	.st9{fill-rule:evenodd;clip-rule:evenodd;fill:#D5313D;}
	.st10{fill-rule:evenodd;clip-rule:evenodd;fill:#D73643;}
	.st11{fill-rule:evenodd;clip-rule:evenodd;fill:#D93B4A;}
	.st12{fill-rule:evenodd;clip-rule:evenodd;fill:#DB4050;}
	.st13{fill:none;stroke:#C80D00;stroke-width:1.0303;stroke-miterlimit:22.9256;}
	.st14{fill-rule:evenodd;clip-rule:evenodd;fill:#E6E6E6;}
	.st15{opacity:0.5;fill-rule:evenodd;clip-rule:evenodd;fill:#FFFFFF;}
</style>
<g>
	<path class="st0" d="M81.08,431.47C33,384.74,8.68,323.77,12.96,256.52c5.45-85.5,50.82-159.51,122.79-205.12
		c17.65-11.17,36.75-20.61,57.09-28.41c34.87-13.37,62.79-14.3,98.94-9.27C366.84,26.13,413.19,63.94,456,123.98
		c80.94,113.6,44.64,268.76-72.77,341.49c-38.92,24.1-83.42,36.67-129.19,36.67C189.98,501.31,127.08,476.16,81.08,431.47
		 M74.06,438.49C24.05,389.89-1.25,326.47,3.2,256.52C8.87,167.6,56.06,90.61,130.91,43.17c18.37-11.63,38.23-21.44,59.39-29.56
		c36.28-13.9,65.31-14.88,102.92-9.64C371.3,16.88,419.5,56.22,464.02,118.66c84.2,118.15,46.43,279.55-75.69,355.19
		C347.85,498.92,301.57,512,253.96,512C187.33,511.15,121.9,484.99,74.06,438.49z"/>
	<path class="st1" d="M114.57,397.89c-22.25-21.64-38.84-48.15-48.12-77.84c-15.36-49.2-5.57-110.63,20.2-154.58
		c27.13-46.85,68.13-78.44,118.24-97.67c28.14-10.8,50.77-11.57,79.95-7.49c60.7,10.04,98.09,40.59,132.71,89.11
		c23.05,32.36,34.32,67.12,35.32,107.06c0,109.77-89.01,198.52-198.52,198.52C202.58,454.34,151.74,434.01,114.57,397.89"/>
	<path class="st2" d="M121.88,398.52c-21.1-20.36-36.85-45.3-45.63-73.23C61.67,279,71.47,219.37,95.39,179.86
		c24.92-42.36,65.15-70.91,113.75-88.42c28.62-9.85,52.31-10.79,79.44-7.68c56.34,7.93,90.53,39.02,122.03,84.39
		c20.95,31.15,30.32,64.33,29.83,101.77c-1.41,100.93-84.29,182.32-186,182.32C205.34,451.62,157.12,432.49,121.88,398.52"/>
	<path class="st3" d="M129.17,399.14c-19.96-19.07-34.84-42.44-43.15-68.62c-13.79-43.36-3.97-101.17,18.1-136.26
		c22.71-37.88,62.16-63.39,109.25-79.19c29.11-8.9,53.88-10,78.93-7.87c51.99,5.83,82.95,37.45,111.35,79.68
		c18.86,29.94,26.33,61.53,24.33,96.48c-2.83,92.08-79.56,166.11-173.46,166.11C208.09,448.9,162.5,430.98,129.17,399.14"/>
	<path class="st4" d="M136.48,399.77c-18.81-17.79-32.84-39.59-40.67-64.01c-12.99-40.44-3.17-96.44,17.07-127.08
		c20.49-33.4,59.17-55.87,104.75-69.95c29.59-7.96,55.43-9.23,78.41-8.05c47.64,3.72,75.38,35.88,100.67,74.97
		c16.77,28.74,22.34,58.74,18.83,91.19c-4.23,83.24-74.83,149.9-160.93,149.9C210.85,446.18,167.89,429.46,136.48,399.77"/>
	<path class="st5" d="M143.77,400.4c-17.66-16.51-30.83-36.74-38.19-59.4c-12.2-37.53-2.37-91.72,16.03-117.92
		c18.27-28.93,56.19-48.35,100.25-60.72c30.08-7.01,56.98-8.44,77.89-8.23c43.3,1.61,67.81,34.32,90,70.25
		c14.67,27.54,18.34,55.94,13.33,85.91c-5.65,74.39-70.1,133.68-148.4,133.68C213.61,443.47,173.27,427.95,143.77,400.4"/>
	<path class="st6" d="M151.07,401.02c-16.52-15.22-28.83-33.88-35.7-54.77c-11.4-34.62-1.57-86.99,14.98-108.76
		c16.06-24.45,53.21-40.83,95.76-51.48c30.57-6.05,58.54-7.66,77.38-8.43c38.95-0.49,60.25,32.75,79.33,65.54
		c12.57,26.33,14.34,53.15,7.83,80.62c-7.06,65.55-65.37,117.47-135.87,117.47C216.36,440.74,178.65,426.44,151.07,401.02"/>
	<path class="st7" d="M158.37,401.65c-15.36-13.94-26.82-31.03-33.22-50.15c-10.61-31.7-0.77-82.28,13.94-99.6
		c13.84-19.97,50.23-33.3,91.27-42.24c31.05-5.1,60.09-6.88,76.86-8.61c34.6-2.6,52.68,31.19,68.65,60.82
		c10.48,25.12,10.36,50.35,2.33,75.32c-8.48,56.71-60.64,101.26-123.34,101.26C219.12,438.03,184.03,424.92,158.37,401.65"/>
	<path class="st8" d="M165.67,402.28c-14.22-12.66-24.82-28.17-30.74-45.54c-9.82-28.78,0.03-77.54,12.9-90.44
		c11.62-15.5,47.24-25.78,86.76-33c31.53-4.16,61.65-6.1,76.35-8.8c30.26-4.71,45.11,29.63,57.98,56.12
		c8.38,23.92,6.35,47.55-3.16,70.03c-9.89,47.86-55.92,85.06-110.81,85.06C221.88,435.31,189.41,423.41,165.67,402.28"/>
	<path class="st9" d="M172.97,402.91c-13.07-11.37-22.82-25.32-28.26-40.93c-9.03-25.87,0.83-72.82,11.86-81.28
		c9.41-11.02,44.26-18.26,82.27-23.77c32.01-3.2,63.19-5.31,75.83-8.98c25.91-6.82,37.54,28.06,47.31,51.4
		c6.28,22.72,2.36,44.76-8.67,64.75c-11.31,39.02-51.19,68.85-98.28,68.85C224.63,432.6,194.79,421.9,172.97,402.91"/>
	<path class="st10" d="M180.27,403.54c-11.92-10.1-20.82-22.46-25.78-36.32c-8.23-22.94,1.63-68.09,10.82-72.11
		c7.19-6.53,41.28-10.73,77.77-14.53c32.5-2.26,64.75-4.53,75.33-9.17c21.55-8.92,29.97,26.49,36.62,46.68
		c4.2,21.51-1.63,41.96-14.16,59.46c-12.72,30.18-46.46,52.63-85.75,52.63C227.39,429.88,200.17,420.39,180.27,403.54"/>
	<path class="st11" d="M187.56,404.17c-10.77-8.81-18.81-19.61-23.29-31.7c-7.44-20.03,2.43-63.36,9.77-62.95
		c4.98-2.06,38.29-3.21,73.28-5.29c32.99-1.3,66.31-3.75,74.81-9.35c17.21-11.04,22.4,24.92,25.95,41.96
		c2.09,20.31-5.63,39.18-19.67,54.16c-14.13,21.34-41.73,36.43-73.22,36.43C230.15,427.16,205.55,418.88,187.56,404.17"/>
	<path class="st12" d="M194.85,404.8c-9.62-7.53-16.8-16.75-20.81-27.09c-6.65-17.11,3.23-58.63,8.74-53.78
		c5.5,4.84,130.2,7.55,143.07-5.59c12.86-13.13,14.83,23.36,15.27,37.25c0,38.2-38.5,69.09-85.85,69.09
		C232.9,424.45,210.92,417.37,194.85,404.8"/>
	<path class="st12" d="M130.1,263.69C46.46,309.08,73.65,71.01,254.41,71.6c196.34,0.64,205.99,225.35,132.75,192.09
		C332.36,238.8,188.07,232.22,130.1,263.69"/>
	<path class="st12" d="M254.44,398.82c-77.55-1-148.83-44.94-179.88-116.72c-7.24-16.73-9.88-33.23-10.57-51.32
		c-11.1,69.75,8.78,129.9,63.23,176.02c36.47,30.88,79.62,46,127.22,46.61c108.76,0,196.93-88.17,196.93-196.93
		c-0.08-9.51-0.61-17.84-1.9-27.28C434.91,327.81,353.97,397.52,254.44,398.82"/>
	<path class="st13" d="M196.23,199.39h-35.16c-5.67,0-10.33,4.64-10.33,10.32v106.65c0,5.68,4.65,10.32,10.33,10.32h35.16
		c5.67,0,10.32-4.64,10.32-10.32V209.7C206.55,204.02,201.9,199.39,196.23,199.39z M335.53,225.1
		c15.06,6.01,25.71,20.73,25.71,37.93c0,17.2-10.65,31.92-25.71,37.93V225.1z M304.52,367.83c12.98,5.78,24.15,7.5,24.35-15.76
		V169.69c0.04-14.62-6.68-18.06-18.57-12.86l-91.46,57.2c-4,2.5-6.05,5.72-6.05,11.35v78.36c0,4.25,1.89,7.9,6.16,10.57
		L304.52,367.83z"/>
	<path class="st1" d="M196.24,199.36h-35.15c-5.68,0-10.33,4.65-10.33,10.33v106.64c0,5.68,4.65,10.33,10.33,10.33h35.15
		c5.67,0,10.32-4.65,10.32-10.33V209.69C206.56,204.01,201.91,199.36,196.24,199.36 M335.54,225.08
		c15.06,6.01,25.71,20.73,25.71,37.93c0,17.2-10.65,31.92-25.71,37.94V225.08z M304.53,367.81c12.98,5.78,24.16,7.5,24.35-15.76
		V169.67c0.04-14.62-6.68-18.06-18.57-12.85l-91.45,57.19c-4,2.49-6.05,5.71-6.05,11.34v78.36c0,4.25,1.89,7.9,6.16,10.57
		L304.53,367.81z"/>
	<path class="st13" d="M196.23,186.39h-35.16c-5.67,0-10.33,4.65-10.33,10.33v106.64c0,5.68,4.65,10.33,10.33,10.33h35.16
		c5.67,0,10.32-4.65,10.32-10.33V196.71C206.55,191.03,201.9,186.39,196.23,186.39z M335.53,212.11
		c15.06,6.01,25.71,20.73,25.71,37.93c0,17.2-10.65,31.92-25.71,37.93V212.11z M304.52,354.83c12.98,5.78,24.15,7.51,24.35-15.76
		V156.69c0.04-14.62-6.68-18.06-18.57-12.85l-91.46,57.19c-4,2.49-6.05,5.71-6.05,11.35v78.35c0,4.25,1.89,7.9,6.16,10.57
		L304.52,354.83z"/>
	<path class="st14" d="M196.24,186.37h-35.15c-5.68,0-10.33,4.64-10.33,10.32v106.64c0,5.69,4.65,10.33,10.33,10.33h35.15
		c5.67,0,10.32-4.64,10.32-10.33V196.69C206.56,191.01,201.91,186.37,196.24,186.37 M335.54,212.08
		c15.06,6.01,25.71,20.73,25.71,37.93c0,17.2-10.65,31.92-25.71,37.93V212.08z M304.53,354.81c12.98,5.79,24.16,7.51,24.35-15.76
		V156.67c0.04-14.62-6.68-18.05-18.57-12.85l-91.45,57.19c-4,2.49-6.05,5.71-6.05,11.35v78.35c0,4.25,1.89,7.9,6.16,10.57
		L304.53,354.81z"/>
	<path class="st0" d="M206.56,247.91h-55.8v-51.22c0-5.68,4.65-10.32,10.32-10.32h35.16c5.66,0,10.32,4.64,10.32,10.32V247.91z
		 M361.19,247.91h-25.64v-35.84C349.99,217.85,360.37,231.62,361.19,247.91z M328.88,247.91v-91.24
		c0.04-14.61-6.68-18.06-18.57-12.85l-91.45,57.19c-4,2.49-6.05,5.71-6.05,11.35v35.55H328.88z"/>
	<path class="st15" d="M241.69,79.86c32.48,35.4,20.59,99.17-26.56,142.42c-47.14,43.24-111.69,49.61-144.17,14.2
		c-22.71-24.76-28.83-114.9-37.42,20.04c-3.93,61.56,18.33,117.37,62.36,160.14c42.09,40.91,99.66,63.93,158.31,64.69
		c37.81,0,74.68-9.38,107.69-27.42c-9.18-0.4-17.49-3.76-23.41-10.21c-14.55-15.87-9.23-44.44,11.91-63.82
		c21.11-19.38,50.04-22.23,64.6-6.37c7.77,8.46,9.86,20.54,6.94,32.91c66.33-73.85,78.25-185.48,17.14-271.24
		c-39.2-54.95-81.61-89.56-150.32-100.93c-33.09-4.61-58.64-3.76-90.56,8.48c-12.85,4.94-25.15,10.57-36.86,16.96
		C192.49,52.7,222.62,59.07,241.69,79.86 M74.4,438.16C24.47,389.64-0.78,326.35,3.66,256.52C9.33,167.75,56.43,90.91,131.13,43.57
		c18.34-11.61,38.16-21.41,59.28-29.51C226.63,0.18,255.6-0.79,293.15,4.44c77.94,12.89,126.04,52.16,170.49,114.48
		c84.04,117.94,46.35,279.04-75.54,354.54c-40.41,25.02-86.61,38.08-134.13,38.08C187.45,510.67,122.15,484.57,74.4,438.16z"/>
	<path class="st15" d="M135.53,377.02c-33.11-32.19-49.87-74.17-46.92-120.5c3.76-58.89,35-109.86,84.56-141.27
		c12.17-7.7,25.32-14.2,39.32-19.58c24.02-9.2,43.25-9.85,68.16-6.38c51.69,8.55,83.61,34.6,113.1,75.95
		c55.75,78.24,30.75,185.11-50.12,235.19c-26.8,16.6-57.46,25.26-88.98,25.26C210.53,425.12,167.2,407.8,135.53,377.02
		 M74.06,438.49C24.05,389.89-1.25,326.47,3.2,256.52C8.87,167.6,56.06,90.61,130.91,43.17c18.37-11.63,38.23-21.44,59.39-29.56
		c36.28-13.9,65.31-14.88,102.92-9.64C371.3,16.88,419.5,56.22,464.02,118.66c84.2,118.15,46.43,279.55-75.69,355.19
		C347.85,498.92,301.57,512,253.96,512C187.33,511.15,121.9,484.99,74.06,438.49z"/>
	<path class="st0" d="M243.62,46.59c12.36,21.28-3.26,53.43-34.9,71.8c-31.63,18.38-67.3,16.02-79.66-5.28
		c-12.36-21.29,3.26-53.44,34.89-71.81C195.59,22.94,231.25,25.3,243.62,46.59"/>
	<path class="st0" d="M117.57,118.71c9.91,10.88,4.82,31.63-11.35,46.34c-16.17,14.71-37.31,17.82-47.21,6.94
		s-4.81-31.63,11.36-46.34C86.54,110.94,107.67,107.83,117.57,118.71"/>
	<path class="st0" d="M361.86,436.8c6.69,9.77,0.33,25.75-14.2,35.68c-14.52,9.94-31.71,10.07-38.4,0.29
		c-6.68-9.77-0.33-25.74,14.19-35.68C337.98,427.15,355.18,427.03,361.86,436.8"/>
</g>
</svg>
