<?xml version="1.0" encoding="utf-8"?>
<!-- Generator: Adobe Illustrator 23.0.3, SVG Export Plug-In . SVG Version: 6.00 Build 0)  -->
<svg version="1.1" id="Layer_1" xmlns="http://www.w3.org/2000/svg" xmlns:xlink="http://www.w3.org/1999/xlink" x="0px" y="0px"
	 viewBox="0 0 512 512" style="enable-background:new 0 0 512 512;" xml:space="preserve">
<style type="text/css">
	.st0{fill-rule:evenodd;clip-rule:evenodd;fill:#FFFFFF;}
	.st1{fill-rule:evenodd;clip-rule:evenodd;fill:#C60A09;}
	.st2{fill-rule:evenodd;clip-rule:evenodd;fill:#C80F0F;}
	.st3{fill-rule:evenodd;clip-rule:evenodd;fill:#CA1416;}
	.st4{fill-rule:evenodd;clip-rule:evenodd;fill:#CC191C;}
	.st5{fill-rule:evenodd;clip-rule:evenodd;fill:#CE1E23;}
	.st6{fill-rule:evenodd;clip-rule:evenodd;fill:#D02329;}
	.st7{fill-rule:evenodd;clip-rule:evenodd;fill:#D12730;}
	.st8{fill-rule:evenodd;clip-rule:evenodd;fill:#D32C36;}
	.st9{fill-rule:evenodd;clip-rule:evenodd;fill:#D5313D;}
	.st10{fill-rule:evenodd;clip-rule:evenodd;fill:#D73643;}
	.st11{fill-rule:evenodd;clip-rule:evenodd;fill:#D93B4A;}
	.st12{fill-rule:evenodd;clip-rule:evenodd;fill:#DB4050;}
	.st13{fill:none;stroke:#C80D00;stroke-width:1.13;stroke-miterlimit:22.9256;}
	.st14{fill-rule:evenodd;clip-rule:evenodd;fill:#E6E6E6;}
	.st15{opacity:0.5;fill-rule:evenodd;clip-rule:evenodd;fill:#FFFFFF;}
</style>
<g>
	<path class="st0" d="M87.64,422.53c-45.65-44.36-68.75-102.25-64.68-166.12c5.18-81.18,48.25-151.46,116.59-194.77
		c16.76-10.6,34.9-19.57,54.21-26.99c33.11-12.68,59.62-13.57,93.95-8.79c71.28,11.78,115.28,47.69,155.93,104.69
		c76.85,107.86,42.39,255.2-69.1,324.25c-36.96,22.88-79.21,34.82-122.67,34.82C191.04,488.85,131.32,464.98,87.64,422.53
		 M80.98,429.2C33.49,383.06,9.46,322.84,13.69,256.41c5.39-84.44,50.19-157.54,121.26-202.58c17.44-11.03,36.3-20.36,56.39-28.07
		c34.45-13.2,62.01-14.13,97.72-9.15c74.14,12.26,119.91,49.61,162.19,108.9c79.95,112.2,44.09,265.44-71.87,337.27
		C340.95,486.58,297,499,251.8,499C188.53,498.19,126.4,473.35,80.98,429.2z"/>
	<path class="st1" d="M119.45,390.65c-21.13-20.55-36.88-45.72-45.69-73.92c-14.59-46.71-5.29-105.05,19.18-146.78
		c25.76-44.47,64.69-74.47,112.27-92.74c26.72-10.25,48.2-10.99,75.92-7.11c57.63,9.54,93.14,38.53,126.01,84.61
		c21.89,30.72,32.59,63.74,33.54,101.67c0,104.22-84.52,188.51-188.51,188.51C203.01,444.25,154.74,424.94,119.45,390.65"/>
	<path class="st2" d="M126.38,391.24c-20.04-19.33-34.99-43.01-43.33-69.54c-13.83-43.94-4.53-100.56,18.18-138.08
		c23.66-40.22,61.86-67.33,108.01-83.97c27.18-9.36,49.67-10.25,75.43-7.29c53.5,7.53,85.96,37.05,115.87,80.14
		c19.9,29.57,28.79,61.08,28.32,96.64c-1.34,95.83-80.04,173.11-176.61,173.11C205.63,441.67,159.85,423.51,126.38,391.24"/>
	<path class="st3" d="M133.31,391.84c-18.95-18.11-33.08-40.3-40.97-65.15c-13.09-41.18-3.77-96.08,17.19-129.38
		c21.57-35.97,59.03-60.19,103.73-75.2c27.64-8.45,51.16-9.5,74.94-7.47c49.37,5.54,78.77,35.56,105.73,75.66
		c17.91,28.44,25,58.43,23.1,91.61c-2.69,87.43-75.54,157.73-164.71,157.73C208.24,439.09,164.96,422.07,133.31,391.84"/>
	<path class="st4" d="M140.24,392.44c-17.86-16.89-31.18-37.59-38.62-60.77c-12.33-38.41-3.01-91.59,16.21-120.68
		c19.46-31.72,56.18-53.05,99.47-66.42c28.09-7.55,52.63-8.76,74.45-7.64c45.23,3.53,71.57,34.07,95.59,71.18
		c15.92,27.29,21.21,55.77,17.88,86.59c-4.02,79.04-71.06,142.33-152.81,142.33C210.87,436.51,170.07,420.63,140.24,392.44"/>
	<path class="st5" d="M147.17,393.03c-16.77-15.68-29.27-34.88-36.26-56.4c-11.58-35.64-2.25-87.09,15.22-111.97
		c17.34-27.46,53.36-45.9,95.19-57.65c28.56-6.64,54.1-8.02,73.96-7.82c41.11,1.54,64.39,32.59,85.46,66.71
		c13.93,26.14,17.42,53.11,12.65,81.57c-5.36,70.64-66.57,126.93-140.91,126.93C213.48,433.93,175.17,419.2,147.17,393.03"/>
	<path class="st6" d="M154.1,393.63c-15.68-14.45-27.37-32.17-33.9-52.01c-10.83-32.86-1.49-82.6,14.22-103.27
		c15.25-23.21,50.53-38.76,90.92-48.88c29.03-5.75,55.59-7.28,73.48-7.99c36.98-0.48,57.21,31.09,75.33,62.23
		c11.94,25,13.62,50.46,7.43,76.54c-6.71,62.24-62.07,111.54-129.02,111.54C216.1,431.34,180.28,417.76,154.1,393.63"/>
	<path class="st7" d="M161.03,394.23c-14.59-13.25-25.47-29.46-31.54-47.63c-10.08-30.1-0.73-78.12,13.24-94.58
		c13.14-18.96,47.69-31.62,86.66-40.1c29.48-4.85,57.06-6.53,72.98-8.17c32.86-2.47,50.02,29.61,65.19,57.75
		c9.95,23.86,9.83,47.81,2.22,71.52c-8.05,53.85-57.58,96.15-117.11,96.15C218.71,428.77,185.39,416.33,161.03,394.23"/>
	<path class="st8" d="M167.96,394.82c-13.5-12.02-23.57-26.75-29.19-43.24c-9.32-27.33,0.03-73.63,12.25-85.88
		c11.04-14.71,44.86-24.48,82.38-31.34c29.94-3.94,58.54-5.79,72.5-8.35c28.74-4.48,42.83,28.12,55.05,53.28
		c7.96,22.71,6.03,45.15-3,66.5c-9.39,45.45-53.1,80.76-105.22,80.76C221.33,426.18,190.5,414.89,167.96,394.82"/>
	<path class="st9" d="M174.89,395.42c-12.41-10.81-21.67-24.04-26.83-38.87c-8.57-24.56,0.79-69.14,11.26-77.17
		c8.93-10.45,42.02-17.33,78.12-22.56c30.4-3.05,60-5.05,72-8.53c24.61-6.47,35.65,26.64,44.92,48.79
		c5.96,21.57,2.24,42.51-8.23,61.48c-10.74,37.05-48.61,65.37-93.32,65.37C223.95,423.6,195.61,413.46,174.89,395.42"/>
	<path class="st10" d="M181.83,396.02c-11.32-9.59-19.77-21.33-24.48-34.48c-7.82-21.79,1.55-64.65,10.28-68.48
		c6.83-6.2,39.2-10.19,73.85-13.79c30.86-2.14,61.49-4.31,71.52-8.7c20.46-8.48,28.46,25.15,34.77,44.32
		c3.99,20.43-1.55,39.85-13.44,56.45c-12.08,28.65-44.12,49.97-81.42,49.97C226.57,421.02,200.72,412.01,181.83,396.02"/>
	<path class="st11" d="M188.75,396.61c-10.23-8.36-17.86-18.62-22.11-30.1c-7.06-19.01,2.31-60.16,9.28-59.77
		c4.73-1.95,36.36-3.05,69.58-5.02c31.32-1.24,62.96-3.56,71.03-8.88c16.34-10.47,21.27,23.66,24.64,39.85
		c1.98,19.28-5.34,37.19-18.67,51.43c-13.42,20.26-39.62,34.58-69.52,34.58C229.19,418.44,205.83,410.58,188.75,396.61"/>
	<path class="st12" d="M195.67,397.21c-9.14-7.15-15.95-15.9-19.76-25.72c-6.31-16.26,3.07-55.68,8.3-51.08
		c5.22,4.6,123.63,7.17,135.85-5.31c12.21-12.47,14.08,22.18,14.5,35.37c0,36.27-36.55,65.6-81.52,65.6
		C231.8,415.86,210.93,409.15,195.67,397.21"/>
	<path class="st12" d="M134.19,263.23c-79.42,43.1-53.6-182.96,118.03-182.4c186.43,0.61,195.59,213.99,126.05,182.4
		C326.24,239.59,189.24,233.34,134.19,263.23"/>
	<path class="st12" d="M252.26,391.53c-73.63-0.95-141.32-42.67-170.8-110.82c-6.88-15.89-9.38-31.56-10.04-48.73
		c-10.54,66.23,8.34,123.34,60.03,167.13c34.63,29.33,75.61,43.68,120.8,44.26c103.27,0,186.99-83.72,186.99-186.99
		c-0.07-9.04-0.57-16.95-1.8-25.9C423.62,324.1,346.76,390.31,252.26,391.53"/>
	<path class="st13" d="M217.97,290.77h7.82c1.1-0.2,2.23-0.29,3.37-0.29c1.15,0,2.29,0.09,3.38,0.29h7.82
		c4.95,0,8.99,4.04,8.99,8.99v10.91v6.99h41.33V206.4h-41.33v7.13v11.21c0,4.94-4.04,8.99-8.99,8.99h-11.21h-11.2
		c-4.95,0-8.99-4.05-8.99-8.99v-11.21V195.7v-11.92v-2.3c0-11.07,9.04-20.15,20.12-20.19c0.82-0.1,1.66-0.15,2.52-0.15h81.7
		c12.45,0,22.63,10.19,22.63,22.64v156.51c0,12.45-10.18,22.63-22.63,22.63h-81.7l-1.24-0.03l-1.2,0.03
		c-11.11,0-20.19-9.09-20.19-20.19v-2.44V328.8v-18.13v-10.91C208.98,294.81,213.02,290.77,217.97,290.77z M185.5,315.4
		c5.15,2.77,9.59,3.6,9.67-7.55v-26.89h18.8h6.86c4.95,0,8.99-4.04,8.99-8.99v-6.84v-0.02v-6.86c0-4.94-4.04-8.99-8.99-8.99h-6.86
		h-18.8v-28.93c0.01-7.03-2.65-8.68-7.38-6.18l-61.71,46.64c-3.05,3.43-2.61,6.7,0.23,9.88L185.5,315.4z"/>
	<path class="st1" d="M217.97,290.76h7.82c1.1-0.2,2.22-0.29,3.37-0.29c1.15,0,2.29,0.09,3.39,0.29h7.82c4.95,0,8.99,4.04,8.99,8.99
		v10.91v6.99h41.33V206.4h-41.33v7.13v11.21c0,4.95-4.04,9-8.99,9h-11.21h-11.2c-4.95,0-8.99-4.05-8.99-9v-11.21V195.7v-11.92v-2.3
		c0-11.08,9.04-20.15,20.12-20.19c0.83-0.09,1.66-0.14,2.52-0.14h81.71c12.44,0,22.63,10.18,22.63,22.64v156.5
		c0,12.46-10.19,22.64-22.63,22.64h-81.71l-1.24-0.03l-1.2,0.03c-11.11,0-20.19-9.09-20.19-20.19v-2.44v-11.49v-18.13v-10.91
		C208.98,294.81,213.02,290.76,217.97,290.76 M185.5,315.4c5.16,2.77,9.59,3.6,9.67-7.56v-26.88h18.8h6.86
		c4.95,0,8.99-4.04,8.99-8.99v-6.85v-0.01v-6.86c0-4.95-4.04-8.99-8.99-8.99h-6.86h-18.8v-28.93c0.02-7.03-2.66-8.68-7.38-6.17
		l-61.72,46.63c-3.05,3.44-2.61,6.71,0.23,9.88L185.5,315.4z"/>
	<path class="st13" d="M217.97,279.53h7.82c1.1-0.19,2.23-0.29,3.37-0.29c1.15,0,2.29,0.1,3.38,0.29h7.82
		c4.95,0,8.99,4.05,8.99,8.99v10.92v6.99h41.33V195.16h-41.33v7.14v11.2c0,4.95-4.04,8.99-8.99,8.99h-11.21h-11.2
		c-4.95,0-8.99-4.04-8.99-8.99v-11.2v-17.84v-11.91v-2.31c0-11.08,9.04-20.15,20.12-20.19c0.82-0.09,1.66-0.14,2.52-0.14h81.7
		c12.45,0,22.63,10.18,22.63,22.65v156.49c0,12.46-10.18,22.64-22.63,22.64h-81.7l-1.24-0.04l-1.2,0.04
		c-11.11,0-20.19-9.1-20.19-20.19v-2.45v-11.49v-18.12v-10.92C208.98,283.58,213.02,279.53,217.97,279.53z M185.5,304.16
		c5.15,2.77,9.59,3.6,9.67-7.55v-26.88h18.8h6.86c4.95,0,8.99-4.05,8.99-8.99v-6.86v-0.01v-6.85c0-4.95-4.04-9-8.99-9h-6.86h-18.8
		v-28.93c0.01-7.03-2.65-8.68-7.38-6.17l-61.71,46.64c-3.05,3.43-2.61,6.7,0.23,9.88L185.5,304.16z"/>
	<path class="st14" d="M217.97,279.52h7.82c1.1-0.18,2.22-0.29,3.37-0.29c1.15,0,2.29,0.1,3.39,0.29h7.82
		c4.95,0,8.99,4.05,8.99,8.99v10.91v6.99h41.33V195.16h-41.33v7.13v11.21c0,4.94-4.04,8.99-8.99,8.99h-11.21h-11.2
		c-4.95,0-8.99-4.05-8.99-8.99V202.3v-17.84v-11.92v-2.3c0-11.08,9.04-20.16,20.12-20.19c0.83-0.1,1.66-0.15,2.52-0.15h81.71
		c12.44,0,22.63,10.19,22.63,22.65v156.5c0,12.45-10.19,22.64-22.63,22.64h-81.71l-1.24-0.04l-1.2,0.04
		c-11.11,0-20.19-9.09-20.19-20.19v-2.44v-11.49v-18.13v-10.91C208.98,283.57,213.02,279.52,217.97,279.52 M185.5,304.16
		c5.16,2.78,9.59,3.6,9.67-7.55v-26.88h18.8h6.86c4.95,0,8.99-4.04,8.99-8.99v-6.85v-0.01v-6.86c0-4.95-4.04-8.99-8.99-8.99h-6.86
		h-18.8v-28.94c0.02-7.03-2.66-8.67-7.38-6.17l-61.72,46.63c-3.05,3.44-2.61,6.71,0.23,9.88L185.5,304.16z"/>
	<path class="st0" d="M290.69,254.4h45.26v-81.85c0-12.46-10.19-22.65-22.63-22.65h-81.71c-0.85,0-1.69,0.05-2.52,0.15
		c-11.08,0.03-20.12,9.12-20.12,20.2v2.3v11.92v17.84v11.21c0,4.95,4.04,8.99,8.99,8.99h11.2h11.21c4.95,0,8.99-4.04,8.99-8.99
		V202.3v-7.13h41.33V254.4z M229.82,254.4v-0.51v-0.01v-6.86c0-4.95-4.04-8.99-8.99-8.99h-6.86h-18.8v-28.93
		c0.01-7.03-2.66-8.67-7.38-6.17l-61.72,46.63c-1.47,1.66-2.12,3.27-2.1,4.85H229.82z"/>
	<path class="st15" d="M240.14,88.67c30.84,33.62,19.55,94.16-25.22,135.23c-44.76,41.06-106.05,47.1-136.9,13.49
		c-21.57-23.52-27.37-109.1-35.53,19.02c-3.73,58.45,17.41,111.44,59.21,152.06c39.96,38.85,94.63,60.7,150.32,61.42
		c35.9,0,70.91-8.9,102.26-26.04c-8.72-0.38-16.61-3.57-22.23-9.69c-13.82-15.06-8.76-42.2,11.31-60.6
		c20.04-18.4,47.51-21.11,61.34-6.05c7.38,8.04,9.37,19.5,6.59,31.24c62.99-70.11,74.3-176.12,16.28-257.54
		c-37.22-52.18-77.49-85.05-142.74-95.84c-31.42-4.38-55.68-3.56-85.99,8.06c-12.2,4.68-23.88,10.04-35,16.1
		C193.43,62.88,222.04,68.94,240.14,88.67 M81.3,428.89C33.89,382.82,9.91,322.72,14.13,256.41c5.38-84.28,50.1-157.26,121.04-202.2
		c17.42-11.02,36.24-20.32,56.29-28.02c34.38-13.18,61.9-14.11,97.55-9.14c74.01,12.24,119.68,49.53,161.89,108.7
		c79.8,111.98,44.01,264.95-71.73,336.64c-38.37,23.75-82.24,36.16-127.36,36.16C188.65,497.74,126.64,472.95,81.3,428.89z"/>
	<path class="st15" d="M139.34,370.83c-31.44-30.55-47.35-70.43-44.55-114.41c3.57-55.91,33.23-104.32,80.29-134.14
		c11.55-7.3,24.04-13.48,37.34-18.59c22.81-8.74,41.06-9.35,64.72-6.06c49.09,8.12,79.39,32.85,107.39,72.11
		c52.94,74.3,29.2,175.76-47.59,223.32c-25.45,15.76-54.56,23.99-84.49,23.99C210.56,416.5,169.41,400.06,139.34,370.83
		 M80.98,429.2C33.49,383.06,9.46,322.84,13.69,256.41c5.39-84.44,50.19-157.54,121.26-202.58c17.44-11.03,36.3-20.36,56.39-28.07
		c34.45-13.2,62.01-14.13,97.72-9.15c74.14,12.26,119.91,49.61,162.19,108.9c79.95,112.2,44.09,265.44-71.87,337.27
		C340.95,486.58,297,499,251.8,499C188.53,498.19,126.4,473.35,80.98,429.2z"/>
	<path class="st0" d="M241.98,57.08c11.74,20.22-3.1,50.74-33.13,68.19c-30.04,17.44-63.9,15.2-75.64-5.02
		c-11.74-20.21,3.1-50.74,33.13-68.19C196.37,34.63,230.24,36.86,241.98,57.08"/>
	<path class="st0" d="M122.29,125.56c9.41,10.33,4.58,30.03-10.77,44c-15.35,13.97-35.43,16.91-44.83,6.58
		c-9.4-10.33-4.57-30.03,10.79-44C92.83,118.18,112.89,115.23,122.29,125.56"/>
	<path class="st0" d="M354.25,427.6c6.35,9.29,0.31,24.45-13.48,33.89c-13.78,9.44-30.11,9.56-36.46,0.28
		c-6.35-9.28-0.31-24.45,13.47-33.89C331.58,418.44,347.91,418.32,354.25,427.6"/>
</g>
</svg>
