<?xml version="1.0" encoding="utf-8"?>
<!-- Generator: Adobe Illustrator 23.0.3, SVG Export Plug-In . SVG Version: 6.00 Build 0)  -->
<svg version="1.1" id="Layer_1" xmlns="http://www.w3.org/2000/svg" xmlns:xlink="http://www.w3.org/1999/xlink" x="0px" y="0px"
	 viewBox="0 0 247.95 244.58" style="enable-background:new 0 0 247.95 244.58;" xml:space="preserve">
<style type="text/css">
	.st0{fill:#E16027;}
	.st1{fill:url(#SVGID_1_);}
	.st2{fill:url(#SVGID_2_);}
	.st3{opacity:0.3;}
	.st4{fill:none;}
	.st5{fill:#3B3938;}
	.st6{opacity:0.8;fill:#E16027;}
</style>
<g>
	<g>
		<g>
			<path class="st0" d="M2.39,98.52c-5.02,24.95-1.94,49.7,7.49,71.54c1.25,1.2,2.42,2.73,1.99,4.37
				c13.44,28.08,37.56,50.85,68.39,62.27c2.69,0.08,5.77,0.16,7.35,2.44c0.01,0,0.01,0.02,0.01,0.03c0.01,0,0.01,0,0.02,0.01
				c3.31,1,6.68,1.88,10.12,2.61c26.22,5.6,52.29,2.56,75.17-7.16c1.63-1.42,3.4-2.72,5.26-3.79c1.47-0.83,4-2.37,5.77-1.54
				c27.01-14.75,48.34-39.34,58.18-70.05c-0.12-1.05,0.26-2.36,0.59-3.32c0.18-0.53,0.48-1.13,0.89-1.64
				c0.54-2.02,1.05-4.06,1.5-6.12c4.67-21.27,3.41-42.42-2.67-61.83c-0.03,0-0.06-0.01-0.08-0.03c-1.67-1.32-1.74-3.17-1.63-5.06
				c-6.55-18.08-17.33-34.43-31.44-47.65c-3.03-1.09-5.2-3.74-7.17-6.22C187.5,15.63,169.91,7,150.21,2.79
				c-17.73-3.79-35.4-3.63-52.06-0.11c-2.83,1.84-6.04,2.4-9.33,2.35c-41.2,12.05-74.78,44.92-85.4,88.86
				c0.17,0.49,0.26,0.99,0.23,1.5C3.57,96.56,3.05,97.56,2.39,98.52z"/>
			<g>
				
					<radialGradient id="SVGID_1_" cx="581.6082" cy="102.551" r="120.4161" gradientTransform="matrix(-0.9235 -0.1972 0.2014 -0.9174 672.2911 412.1594)" gradientUnits="userSpaceOnUse">
					<stop  offset="0.1572" style="stop-color:#6C503A"/>
					<stop  offset="0.3177" style="stop-color:#56402D"/>
					<stop  offset="0.6013" style="stop-color:#362919"/>
					<stop  offset="0.8389" style="stop-color:#221A0D"/>
					<stop  offset="1" style="stop-color:#1B1509"/>
				</radialGradient>
				<path class="st1" d="M191.7,148.7C191.64,148.81,191.71,148.69,191.7,148.7L191.7,148.7z"/>
				
					<radialGradient id="SVGID_2_" cx="580.9323" cy="103.7171" r="117.9724" gradientTransform="matrix(-0.9235 -0.1972 0.2014 -0.9174 672.2911 412.1594)" gradientUnits="userSpaceOnUse">
					<stop  offset="0.1572" style="stop-color:#6C503A"/>
					<stop  offset="0.3177" style="stop-color:#56402D"/>
					<stop  offset="0.6013" style="stop-color:#362919"/>
					<stop  offset="0.8389" style="stop-color:#221A0D"/>
					<stop  offset="1" style="stop-color:#1B1509"/>
				</radialGradient>
				<path class="st2" d="M183.93,167.37c0.06,0.07,0.12,0.14,0.19,0.21c0.07,0.05,0.13,0.1,0.19,0.14L183.93,167.37z"/>
				<g class="st3">
					<path class="st4" d="M191.7,148.7C191.64,148.81,191.71,148.69,191.7,148.7L191.7,148.7z"/>
					<path class="st4" d="M184.31,167.73l-0.25-0.23c0,0-0.01,0.01-0.01,0.01c0.03,0.03,0.05,0.06,0.07,0.08
						C184.19,167.63,184.25,167.68,184.31,167.73z"/>
					<path class="st4" d="M183.93,167.37c0.04,0.04,0.07,0.09,0.11,0.13c0,0,0.01-0.01,0.01-0.01L183.93,167.37z"/>
				</g>
				<path class="st5" d="M3.64,95.39c-0.07,0.99-0.45,1.86-0.96,2.68c0.51-0.09,1.01-0.18,1.53-0.27c0.95-0.17,1.92-0.35,2.89-0.53
					c0.98-0.17,1.97-0.32,2.98-0.48c2.01-0.3,4.06-0.67,6.17-0.92c2.11-0.27,4.25-0.59,6.45-0.82c2.2-0.22,4.43-0.49,6.71-0.69
					c2.28-0.19,4.59-0.42,6.95-0.59c2.36-0.15,4.75-0.33,7.17-0.44c2.43-0.08,4.89-0.21,7.38-0.27c2.49-0.02,5.01-0.1,7.56-0.08
					c5.09,0,10.3,0.08,15.58,0.34c10.57,0.48,21.46,1.5,32.44,3.09c1.37,0.18,2.74,0.4,4.12,0.63c1.38,0.22,2.75,0.45,4.13,0.68
					c2.75,0.47,5.5,1.01,8.26,1.52c2.74,0.6,5.5,1.14,8.24,1.78c2.72,0.68,5.49,1.24,8.2,1.99c10.9,2.8,21.64,6.18,31.98,10.13
					c2.59,0.98,5.1,2.01,7.64,3.02c1.28,0.55,2.55,1.1,3.81,1.65l1.91,0.82l0.94,0.41l0.88,0.4c4.89,2.24,9.64,4.63,14.17,7.25
					c0.21,0.12,0.4,0.24,0.6,0.36c-0.07,0.22-0.14,0.44-0.23,0.65c-0.97,2.64-2.01,5.26-3.13,7.86c-1.11,2.6-2.29,5.2-3.52,7.72
					c-0.58,1.26-1.28,2.56-1.95,3.86l-0.5,0.97l-0.25,0.49l-0.06,0.12c0,0,0,0,0,0s0,0,0,0l-0.14,0.24l-1.07,1.87
					c-1.42,2.51-2.94,4.95-4.41,7.41c-0.38,0.6-0.76,1.18-1.14,1.77c-2.63-1.97-5.4-3.8-8.33-5.4c-4.23-2.32-8.77-4.22-13.54-5.42
					c-4.76-1.21-9.71-1.73-14.59-1.65c-4.88,0.09-9.69,0.77-14.35,1.75c-4.66,0.99-9.19,2.3-13.62,3.71
					c-4.44,1.42-8.81,2.91-13.13,4.45c-4.34,1.53-8.62,3.03-12.96,4.45c-4.32,1.44-8.65,2.83-13,4.11
					c-4.35,1.27-8.71,2.46-13.11,3.49c-4.4,1.02-8.81,1.94-13.26,2.64c-4.44,0.71-8.91,1.2-13.39,1.43
					c-4.48,0.22-8.96,0.25-13.43-0.07c-4.47-0.32-8.91-0.96-13.26-1.99c-1.69-0.38-3.37-0.83-5.03-1.33
					c1.21,1.18,2.31,2.66,1.92,4.25c0.7,0.24,1.41,0.47,2.12,0.69c4.49,1.36,9.11,2.32,13.77,2.93c4.66,0.61,9.36,0.91,14.06,0.84
					c4.7-0.04,9.38-0.35,14.03-0.88c4.65-0.53,9.28-1.25,13.85-2.2c4.57-0.93,9.1-1.99,13.59-3.2c4.49-1.21,8.93-2.52,13.35-3.9
					c4.41-1.38,8.8-2.85,13.14-4.31c4.36-1.45,8.67-2.95,12.99-4.29c4.31-1.35,8.62-2.57,12.93-3.51c4.32-0.94,8.64-1.54,12.94-1.67
					c4.29-0.12,8.55,0.26,12.69,1.25c4.13,0.97,8.16,2.51,11.99,4.5c2.75,1.43,5.41,3.07,7.98,4.88c-1.6,2.34-3.25,4.64-4.94,6.91
					c-3.41,4.6-7.01,9.02-10.8,13.21c-3.79,4.19-7.72,8.21-11.79,11.96c-4.08,3.75-8.29,7.27-12.58,10.53
					c-8.61,6.48-17.55,11.97-26.46,16.32c-8.93,4.34-17.74,7.71-26.09,10.18c-2.65,0.77-5.24,1.47-7.78,2.1
					c2.54,0.09,5.29,0.31,6.75,2.42c0,0.01,0.01,0.02,0.01,0.03c0.01,0.01,0.01,0.01,0.02,0.01c0.02,0,0.03,0.01,0.03,0.01
					c0.69-0.16,1.38-0.31,2.07-0.48c8.68-2.11,17.96-5.07,27.34-9.28c9.38-4.19,18.93-9.47,28.04-16.04
					c9.14-6.53,17.87-14.27,25.84-22.93c5.72-6.16,10.98-12.82,15.84-19.78c0.82,1.02,1.6,2.07,2.33,3.14
					c1.56,2.25,2.89,4.63,3.96,7.11c1.05,2.48,1.84,5.06,2.27,7.7c0.44,2.64,0.54,5.34,0.3,8.02c-0.23,2.69-0.79,5.36-1.63,7.98
					c-0.85,2.61-1.92,5.18-3.21,7.67c-2.58,4.97-5.93,9.62-9.67,13.97c-1.87,2.17-3.85,4.27-5.9,6.3c-0.31,0.31-0.62,0.6-0.93,0.91
					c1.24-0.98,2.54-1.88,3.89-2.65c1.47-0.84,3.99-2.37,5.76-1.55c0.05-0.03,0.11-0.05,0.16-0.09c0.05-0.05,0.1-0.1,0.14-0.15
					c4.09-4.36,7.84-9.12,10.89-14.41c3.03-5.28,5.27-11.18,6-17.43c0.36-3.11,0.35-6.3-0.07-9.42c-0.41-3.13-1.25-6.19-2.38-9.12
					c-1.15-2.91-2.61-5.7-4.29-8.3c-1.17-1.84-2.48-3.58-3.84-5.25c0.65-0.99,1.29-1.98,1.93-2.97
					c6.19-9.75,11.43-20.44,15.28-31.24c6.39,4.06,12.34,8.42,17.79,12.96c6.09,5.07,11.63,10.25,16.58,15.39c0-0.01,0-0.01,0-0.02
					c-0.12-1.06,0.26-2.37,0.59-3.32c0.18-0.51,0.47-1.1,0.86-1.6c-1.34-1.5-2.7-3-4.14-4.5c-1.59-1.69-3.26-3.37-4.97-5.06
					c-1.74-1.66-3.52-3.34-5.38-4.98c-5.84-5.2-12.28-10.29-19.29-14.99c2.94-9.4,4.91-18.93,5.92-28.3
					c0.21-1.96,0.36-3.91,0.49-5.85c5,0.16,9.88-0.37,14.56-1.27c4.01-0.78,7.88-1.84,11.61-3.08c-0.01,0-0.01,0-0.02,0
					c-1.66-1.31-1.73-3.16-1.63-5.05c-0.01-0.03-0.02-0.05-0.03-0.07c-3.56,1.06-7.22,1.94-10.95,2.55
					c-4.36,0.71-8.83,1.05-13.24,0.77c0.04-1.48,0.06-2.97,0.04-4.44c-0.04-5.37-0.37-10.62-0.95-15.69
					c-0.58-5.07-1.38-9.97-2.37-14.66c-1.01-4.68-2.2-9.15-3.49-13.39c-0.3-0.99-0.62-1.96-0.93-2.92
					c-2.37-1.01-4.21-2.97-5.85-4.98c0.89,2.9,1.76,5.92,2.54,9.07c1.04,4.19,1.96,8.59,2.7,13.18c0.76,4.57,1.37,9.34,1.73,14.24
					c0.37,4.91,0.49,9.96,0.33,15.11c-0.03,1.2-0.08,2.4-0.15,3.61c-0.97-0.2-1.94-0.44-2.89-0.71c-1.2-0.35-2.38-0.76-3.54-1.24
					l-1.81-0.8c-0.33-0.14-0.61-0.28-0.88-0.43l-0.85-0.42c-2.27-1.15-4.54-2.51-6.73-3.96c-2.19-1.47-4.3-3.08-6.36-4.78
					c-4.12-3.41-8.03-7.2-11.84-11.14c-7.63-7.9-14.95-16.37-22.89-24.17c-3.96-3.91-8.04-7.69-12.31-11.16
					c-2.12-1.76-4.31-3.42-6.5-5.05c-2.21-1.59-4.45-3.13-6.73-4.56c-8.94-5.68-18.39-9.91-27.68-12.74
					c-0.34,0.07-0.68,0.15-1.02,0.22c-2.82,1.82-6.01,2.38-9.28,2.34c-0.37,0.11-0.74,0.21-1.11,0.32c2.98,0.79,5.99,1.7,9.01,2.76
					c4.41,1.56,8.86,3.37,13.24,5.53c4.39,2.16,8.72,4.66,12.95,7.46c4.23,2.8,8.36,5.93,12.36,9.31c2.01,1.68,3.99,3.44,5.94,5.26
					c1.96,1.8,3.88,3.67,5.8,5.57c3.82,3.82,7.56,7.81,11.34,11.85c3.78,4.05,7.57,8.16,11.55,12.17c4,4,8.12,7.96,12.65,11.51
					c2.26,1.78,4.6,3.48,7.04,5.04c2.45,1.56,4.97,2.96,7.64,4.21l1.02,0.46c0.34,0.16,0.68,0.31,0.99,0.43l1.97,0.8
					c1.38,0.54,2.8,1,4.22,1.38c1.39,0.38,2.8,0.68,4.2,0.92c-0.18,1.89-0.38,3.79-0.64,5.71c-1.09,8.3-2.96,16.71-5.57,25.03
					c-4.45-2.69-9.1-5.22-13.93-7.54l-0.99-0.48l-0.94-0.43l-1.89-0.86c-1.25-0.57-2.51-1.15-3.78-1.72
					c-2.61-1.1-5.23-2.24-7.87-3.3c-5.29-2.06-10.66-4.06-16.13-5.83c-1.37-0.44-2.74-0.88-4.11-1.32l-4.14-1.22
					c-1.38-0.39-2.76-0.83-4.16-1.2l-4.18-1.11c-11.18-2.91-22.53-5.12-33.8-6.62c-11.26-1.52-22.43-2.34-33.24-2.58
					c-5.41-0.11-10.73-0.06-15.93,0.1c-2.6,0.08-5.17,0.27-7.71,0.39c-2.54,0.15-5.04,0.38-7.51,0.56c-2.46,0.22-4.89,0.5-7.29,0.74
					c-2.39,0.27-4.73,0.6-7.05,0.88c-2.31,0.33-4.56,0.72-6.78,1.07c-2.21,0.35-4.38,0.81-6.5,1.19c-2.12,0.38-4.18,0.87-6.2,1.28
					c-1.01,0.22-2.01,0.42-2.99,0.65c-0.96,0.24-1.91,0.47-2.85,0.7C3.6,94.55,3.67,94.97,3.64,95.39z M183.93,167.37l0.38,0.35
					c-0.06-0.05-0.13-0.09-0.19-0.14C184.06,167.52,184,167.44,183.93,167.37z"/>
			</g>
		</g>
	</g>
	<path class="st6" d="M242.45,86.33c-0.03,0-0.06-0.01-0.08-0.03c-1.67-1.32-1.74-3.17-1.63-5.06
		c-6.55-18.08-17.33-34.43-31.44-47.65c-0.24-0.09-0.47-0.2-0.7-0.31c-0.49-0.22-0.97-0.48-1.42-0.77
		c-0.08-0.06-0.15-0.12-0.23-0.17c-0.38-0.27-0.74-0.55-1.09-0.86c-0.14-0.12-0.28-0.24-0.42-0.37c-0.35-0.33-0.69-0.67-1.02-1.03
		c-0.2-0.21-0.39-0.43-0.58-0.65c-0.13-0.16-0.27-0.32-0.41-0.48c-0.44-0.52-0.87-1.05-1.28-1.57C187.5,15.63,169.91,7,150.21,2.79
		c-17.37-3.71-34.67-3.61-51.04-0.3c-0.01,0-0.03-0.01-0.04-0.01c-0.22,0.05-0.43,0.09-0.65,0.14c-0.11,0.02-0.22,0.04-0.34,0.06
		c-0.01,0-0.02,0.01-0.03,0.02c0,0,0,0,0,0c-0.71,0.45-1.43,0.83-2.18,1.14c-0.09,0.04-0.19,0.07-0.28,0.11
		c-0.28,0.11-0.56,0.22-0.84,0.31c-1.92,0.6-3.94,0.81-5.99,0.78c-0.14,0.04-0.27,0.09-0.41,0.12c-0.23,0.06-0.46,0.13-0.68,0.2
		c0.01,0,0.02,0,0.03,0C47.04,17.67,13.94,50.33,3.42,93.89c0.03,0.09,0.05,0.19,0.07,0.28c0.11,0.39,0.18,0.8,0.15,1.21
		c-0.01,0.16-0.04,0.31-0.07,0.46c-0.01,0.09-0.02,0.19-0.05,0.29c-0.03,0.14-0.08,0.28-0.13,0.41c-0.04,0.11-0.07,0.22-0.12,0.33
		c-0.05,0.13-0.11,0.26-0.17,0.39c-0.05,0.11-0.1,0.21-0.16,0.32c-0.07,0.13-0.14,0.26-0.22,0.39c-0.11,0.18-0.22,0.36-0.34,0.54
		c-5.02,24.95-1.94,49.7,7.49,71.54c0.03,0.02,0.05,0.05,0.07,0.08c0,0-0.01,0-0.01,0c1.21,1.18,2.31,2.66,1.92,4.25
		c0,0,0.01,0,0.01,0c0,0.01,0,0.03-0.01,0.05c13.44,28.08,37.56,50.85,68.39,62.27c0.2,0,0.4,0.01,0.6,0.02c-0.01,0-0.01,0-0.02,0
		c0.6,0.02,1.21,0.05,1.82,0.11c0.07,0.01,0.15,0.02,0.22,0.02c0.24,0.03,0.48,0.06,0.71,0.1c0.1,0.01,0.21,0.04,0.31,0.05
		c0.21,0.04,0.42,0.09,0.63,0.14c0.11,0.03,0.22,0.06,0.32,0.1c0.2,0.06,0.39,0.12,0.57,0.2c0.1,0.04,0.19,0.09,0.29,0.14
		c0.18,0.09,0.37,0.17,0.54,0.28c0.08,0.05,0.14,0.11,0.22,0.16c0.43,0.3,0.81,0.66,1.13,1.11c0,0.01,0.01,0.02,0.01,0.03
		c0.01,0.01,0.01,0.01,0.02,0.01c0.02,0,0.03,0.01,0.03,0.01c0,0,0.01,0,0.01,0c3.3,0.99,6.66,1.87,10.09,2.6
		c26.22,5.6,52.29,2.56,75.17-7.16c0.68-0.59,1.39-1.15,2.12-1.69c0.24-0.18,0.47-0.36,0.71-0.53c0.79-0.56,1.59-1.1,2.43-1.57h0
		c0.05-0.03,0.1-0.06,0.15-0.09c0.91-0.52,2.16-1.25,3.4-1.55c0.78-0.19,1.54-0.22,2.21,0.09c0,0,0,0,0,0s0,0,0.01,0
		c27.01-14.75,48.34-39.34,58.18-70.05c-0.12-1.05,0.26-2.36,0.59-3.32c0.18-0.53,0.48-1.13,0.89-1.64c0.54-2.02,1.05-4.06,1.5-6.12
		C249.79,126.9,248.53,105.74,242.45,86.33z M123.19,220.9c-62.47,0-113.11-47.48-113.11-106.06c0-58.58,50.64-106.06,113.11-106.06
		c62.46,0,113.1,47.48,113.1,106.06C236.29,173.42,185.66,220.9,123.19,220.9z"/>
	<g>
		<path class="st0" d="M101.82,34.45c4.33,9.38-1.89,21.37-13.9,26.76c-12.01,5.4-25.26,2.18-29.6-7.2
			c-4.33-9.38,1.89-21.37,13.9-26.76C84.23,21.84,97.48,25.07,101.82,34.45z"/>
		<path class="st0" d="M47.87,63.97c1.92,4.16-0.83,9.47-6.16,11.86c-5.32,2.39-11.19,0.96-13.11-3.19
			c-1.92-4.16,0.83-9.46,6.16-11.86C40.08,58.38,45.95,59.81,47.87,63.97z"/>
	</g>
</g>
</svg>
