<?xml version="1.0" encoding="utf-8"?>
<!-- Generator: Adobe Illustrator 23.0.3, SVG Export Plug-In . SVG Version: 6.00 Build 0)  -->
<svg version="1.1" id="Layer_1" xmlns="http://www.w3.org/2000/svg" xmlns:xlink="http://www.w3.org/1999/xlink" x="0px" y="0px"
	 viewBox="0 0 2000 2000" style="enable-background:new 0 0 2000 2000;" xml:space="preserve">
<style type="text/css">
	.st0{fill:url(#SVGID_1_);}
	.st1{fill-rule:evenodd;clip-rule:evenodd;fill:url(#SVGID_2_);}
	.st2{fill-rule:evenodd;clip-rule:evenodd;fill:url(#SVGID_3_);}
	.st3{fill-rule:evenodd;clip-rule:evenodd;fill:url(#SVGID_4_);}
	.st4{fill-rule:evenodd;clip-rule:evenodd;fill:url(#SVGID_5_);}
	.st5{fill:url(#SVGID_6_);}
	.st6{fill:url(#SVGID_7_);}
	.st7{fill-rule:evenodd;clip-rule:evenodd;fill:url(#SVGID_8_);}
	.st8{fill-rule:evenodd;clip-rule:evenodd;fill:url(#SVGID_9_);}
	.st9{fill-rule:evenodd;clip-rule:evenodd;fill:url(#SVGID_10_);}
	.st10{fill-rule:evenodd;clip-rule:evenodd;fill:url(#SVGID_11_);}
	.st11{fill-rule:evenodd;clip-rule:evenodd;fill:url(#SVGID_12_);}
	.st12{fill-rule:evenodd;clip-rule:evenodd;fill:url(#SVGID_13_);}
	.st13{fill-rule:evenodd;clip-rule:evenodd;fill:url(#SVGID_14_);}
	.st14{fill-rule:evenodd;clip-rule:evenodd;fill:url(#SVGID_15_);}
	.st15{fill-rule:evenodd;clip-rule:evenodd;fill:url(#SVGID_16_);}
	.st16{fill-rule:evenodd;clip-rule:evenodd;fill:url(#SVGID_17_);}
	.st17{fill-rule:evenodd;clip-rule:evenodd;fill:url(#SVGID_18_);}
	.st18{fill-rule:evenodd;clip-rule:evenodd;fill:url(#SVGID_19_);}
	.st19{fill-rule:evenodd;clip-rule:evenodd;fill:url(#SVGID_20_);}
	.st20{opacity:0.5;fill:url(#SVGID_21_);}
	.st21{fill:url(#SVGID_22_);}
	.st22{fill:url(#SVGID_23_);}
	.st23{fill:#FFFFFF;}
	.st24{fill:url(#SVGID_24_);}
	.st25{fill:url(#SVGID_25_);}
	.st26{fill:url(#SVGID_26_);}
	.st27{fill:url(#SVGID_27_);}
	.st28{fill:url(#SVGID_28_);}
	.st29{fill:url(#SVGID_29_);}
	.st30{fill-rule:evenodd;clip-rule:evenodd;fill:url(#SVGID_30_);}
	.st31{fill-rule:evenodd;clip-rule:evenodd;fill:url(#SVGID_31_);}
	.st32{fill-rule:evenodd;clip-rule:evenodd;fill:url(#SVGID_32_);}
	.st33{fill-rule:evenodd;clip-rule:evenodd;fill:url(#SVGID_33_);}
	.st34{fill-rule:evenodd;clip-rule:evenodd;fill:url(#SVGID_34_);}
	.st35{fill-rule:evenodd;clip-rule:evenodd;fill:url(#SVGID_35_);}
	.st36{opacity:0.5;fill:url(#SVGID_36_);}
	.st37{fill:url(#SVGID_37_);}
	.st38{fill:#79023E;}
	.st39{fill-rule:evenodd;clip-rule:evenodd;fill:url(#SVGID_38_);}
	.st40{fill-rule:evenodd;clip-rule:evenodd;fill:#FF5431;}
	.st41{opacity:0.5;fill:#B32972;}
	.st42{fill-rule:evenodd;clip-rule:evenodd;fill:url(#SVGID_39_);}
	.st43{fill:url(#SVGID_40_);}
	.st44{fill-rule:evenodd;clip-rule:evenodd;fill:#FFFFFF;}
	.st45{fill:url(#SVGID_41_);}
	.st46{fill:url(#SVGID_42_);}
	.st47{fill:#FFFF60;}
	.st48{fill-rule:evenodd;clip-rule:evenodd;fill:url(#SVGID_43_);}
	.st49{fill-rule:evenodd;clip-rule:evenodd;fill:url(#SVGID_44_);}
	.st50{fill-rule:evenodd;clip-rule:evenodd;fill:url(#SVGID_45_);}
	.st51{fill-rule:evenodd;clip-rule:evenodd;fill:url(#SVGID_46_);}
	.st52{fill-rule:evenodd;clip-rule:evenodd;fill:url(#SVGID_47_);}
	.st53{fill-rule:evenodd;clip-rule:evenodd;fill:url(#SVGID_48_);}
	.st54{fill-rule:evenodd;clip-rule:evenodd;fill:url(#SVGID_49_);}
	.st55{opacity:0.5;fill-rule:evenodd;clip-rule:evenodd;fill:#9D0056;}
	.st56{opacity:0.5;fill:url(#SVGID_50_);}
	.st57{fill:url(#SVGID_51_);}
	.st58{fill:url(#SVGID_52_);}
	.st59{fill:url(#SVGID_53_);}
	.st60{fill:url(#SVGID_54_);}
	.st61{fill:url(#SVGID_55_);}
	.st62{fill:url(#SVGID_56_);}
	.st63{fill:url(#SVGID_57_);}
	.st64{fill:url(#SVGID_58_);}
	.st65{fill:url(#SVGID_59_);}
	.st66{fill:url(#SVGID_60_);}
	.st67{fill:url(#SVGID_61_);}
	.st68{opacity:0.2;fill:url(#SVGID_62_);}
	.st69{opacity:0.2;fill:url(#SVGID_63_);}
	.st70{opacity:0.2;fill:url(#SVGID_64_);}
	.st71{opacity:0.2;fill:url(#SVGID_65_);}
	.st72{opacity:0.2;fill:url(#SVGID_66_);}
	.st73{opacity:0.2;fill:url(#SVGID_67_);}
	.st74{opacity:0.2;fill:url(#SVGID_68_);}
	.st75{opacity:0.2;fill:url(#SVGID_69_);}
	.st76{opacity:0.2;fill:url(#SVGID_70_);}
	.st77{opacity:0.2;fill:url(#SVGID_71_);}
	.st78{opacity:0.2;fill:url(#SVGID_72_);}
	.st79{opacity:0.2;fill:url(#SVGID_73_);}
	.st80{opacity:0.2;fill:url(#SVGID_74_);}
	.st81{opacity:0.2;fill:url(#SVGID_75_);}
	.st82{opacity:0.2;fill:url(#SVGID_76_);}
	.st83{fill:#D03A4F;}
	.st84{fill:url(#SVGID_77_);}
	.st85{fill:url(#SVGID_78_);}
	.st86{fill:url(#SVGID_79_);}
	.st87{fill:url(#SVGID_80_);}
	.st88{fill:url(#SVGID_81_);}
	.st89{fill:url(#SVGID_82_);}
	.st90{fill:url(#SVGID_83_);}
	.st91{fill:url(#SVGID_84_);}
	.st92{fill:url(#SVGID_85_);}
	.st93{fill:url(#SVGID_86_);}
	.st94{fill:url(#SVGID_87_);}
	.st95{fill:url(#SVGID_88_);}
	.st96{fill:url(#SVGID_89_);}
	.st97{fill:url(#SVGID_90_);}
	.st98{fill:url(#SVGID_91_);}
	.st99{fill:url(#SVGID_92_);}
	.st100{fill:url(#SVGID_93_);}
	.st101{fill:url(#SVGID_94_);}
	.st102{fill:url(#SVGID_95_);}
	.st103{fill:url(#SVGID_96_);}
	.st104{fill:url(#SVGID_97_);}
	.st105{fill:url(#SVGID_98_);}
	.st106{fill:url(#SVGID_99_);}
	.st107{fill:url(#SVGID_100_);}
	.st108{fill:url(#SVGID_101_);}
	.st109{fill:url(#SVGID_102_);}
	.st110{fill:url(#SVGID_103_);}
	.st111{fill:url(#SVGID_104_);}
	.st112{fill:url(#SVGID_105_);}
	.st113{fill:url(#SVGID_106_);}
	.st114{fill:url(#SVGID_107_);}
	.st115{fill:url(#SVGID_108_);}
	.st116{fill:url(#SVGID_109_);}
	.st117{fill:url(#SVGID_110_);}
	.st118{fill:url(#SVGID_111_);}
	.st119{fill:url(#SVGID_112_);}
	.st120{fill:url(#SVGID_113_);}
	.st121{fill:url(#SVGID_114_);}
	.st122{fill:url(#SVGID_115_);}
	.st123{fill:url(#SVGID_116_);}
	.st124{fill:url(#SVGID_117_);}
	.st125{fill:url(#SVGID_118_);}
	.st126{fill:url(#SVGID_119_);}
	.st127{fill:url(#SVGID_120_);}
	.st128{fill:url(#SVGID_121_);}
	.st129{fill:url(#SVGID_122_);}
	.st130{fill:url(#SVGID_123_);}
	.st131{fill:url(#SVGID_124_);}
	.st132{fill:url(#SVGID_125_);}
	.st133{fill:url(#SVGID_126_);}
	.st134{fill:url(#SVGID_127_);}
	.st135{fill:url(#SVGID_128_);}
	.st136{fill:url(#SVGID_129_);}
	.st137{fill:url(#SVGID_130_);}
	.st138{fill:url(#SVGID_131_);}
	.st139{fill:url(#SVGID_132_);}
	.st140{fill:url(#SVGID_133_);}
	.st141{fill:url(#SVGID_134_);}
	.st142{fill:url(#SVGID_135_);}
</style>
<g>
	<g>
		
			<radialGradient id="SVGID_1_" cx="1068.9329" cy="210.0469" r="47.4224" gradientTransform="matrix(1.0464 0 0 1.0775 -82.0004 -154.9793)" gradientUnits="userSpaceOnUse">
			<stop  offset="0" style="stop-color:#A4023E"/>
			<stop  offset="0.9944" style="stop-color:#860244"/>
		</radialGradient>
		<polygon class="st0" points="1025.4,142.7 1032.1,0 1040.7,0 1047.7,142.7 		"/>
		
			<radialGradient id="SVGID_2_" cx="629.9468" cy="1075.7439" r="829.9954" gradientTransform="matrix(1.0464 0 0 1.0775 -82.0004 -154.9793)" gradientUnits="userSpaceOnUse">
			<stop  offset="0" style="stop-color:#FF502F"/>
			<stop  offset="0.9944" style="stop-color:#EF183B"/>
		</radialGradient>
		<path class="st1" d="M55.1,1283.1c0,0,455-178.1,636.3-346.5c0,0,256.3-94,627.5,0c0,0,260.9,217.6,610.8,346.5H55.1z"/>
		
			<radialGradient id="SVGID_3_" cx="629.9468" cy="1436.0265" r="887.9405" gradientTransform="matrix(1.0464 0 0 1.0775 -82.0004 -154.9793)" gradientUnits="userSpaceOnUse">
			<stop  offset="0" style="stop-color:#FF2A22"/>
			<stop  offset="0.9944" style="stop-color:#BF003B"/>
		</radialGradient>
		<path class="st2" d="M129.3,2000l-74.1-716.9c484.8-164.4,1341.3-179.1,1874.5,0l-66.5,716.9H129.3z"/>
		
			<radialGradient id="SVGID_4_" cx="877.2386" cy="776.2895" r="383.4621" gradientTransform="matrix(1.0464 0 0 1.0775 -82.0004 -154.9793)" gradientUnits="userSpaceOnUse">
			<stop  offset="0" style="stop-color:#FF2A22"/>
			<stop  offset="0.9944" style="stop-color:#BF003B"/>
		</radialGradient>
		<path class="st3" d="M664.1,959.6l-51-295.1c0,0,141.1-92.1,382.1-92c290.1,0.1,417.8,96.9,417.8,96.9l-68.5,290.2
			C1344.6,959.6,1065.7,872,664.1,959.6z"/>
		
			<radialGradient id="SVGID_5_" cx="878.0858" cy="508.5826" r="383.0245" gradientTransform="matrix(1.0464 0 0 1.0775 -82.0004 -154.9793)" gradientUnits="userSpaceOnUse">
			<stop  offset="0" style="stop-color:#FF5F2F"/>
			<stop  offset="0.9944" style="stop-color:#EF183B"/>
		</radialGradient>
		<path class="st4" d="M614.1,664.5c0,0,308-152.7,383.5-379.8h63.3c0,0,60.8,232.9,353.2,384.7C1414,669.4,1014.1,501,614.1,664.5z
			"/>
		<linearGradient id="SVGID_6_" gradientUnits="userSpaceOnUse" x1="1027.6854" y1="432.4988" x2="1027.6854" y2="199.7962">
			<stop  offset="0" style="stop-color:#FF9D31"/>
			<stop  offset="1" style="stop-color:#FFCC1B"/>
		</linearGradient>
		<path class="st5" d="M851.7,423.9c0,0,116-67,141.6-224.1h77c0,0,31.1,151.5,133.3,232.7C1203.7,432.5,985.3,395.6,851.7,423.9z"
			/>
		
			<radialGradient id="SVGID_7_" cx="1060.4332" cy="538.5665" r="120.2505" gradientTransform="matrix(1.0464 0 0 1.0775 -82.0004 -154.9793)" gradientUnits="userSpaceOnUse">
			<stop  offset="0" style="stop-color:#FF8013"/>
			<stop  offset="0.9944" style="stop-color:#FF4844"/>
		</radialGradient>
		<path class="st6" d="M894.6,452.6l-42.8-28.7c0,0,176-63.6,351.9,8.6l-52.6,20.1C1151,452.6,1018.2,408.8,894.6,452.6z"/>
		<linearGradient id="SVGID_8_" gradientUnits="userSpaceOnUse" x1="82.2805" y1="1911.9479" x2="424.5444" y2="1319.1295">
			<stop  offset="0" style="stop-color:#FF9398"/>
			<stop  offset="1" style="stop-color:#FFB27E"/>
		</linearGradient>
		<polygon class="st7" points="234.8,2000 160.7,1251.1 264.7,1226.9 334.6,2000 		"/>
		<linearGradient id="SVGID_9_" gradientUnits="userSpaceOnUse" x1="1588.5505" y1="1944.3871" x2="1949.376" y2="1319.4189">
			<stop  offset="0" style="stop-color:#FF9398"/>
			<stop  offset="1" style="stop-color:#FFB27E"/>
		</linearGradient>
		<polygon class="st8" points="1684.9,2000 1765.7,1242.3 1863.1,1269.6 1784.7,2000 		"/>
		<linearGradient id="SVGID_10_" gradientUnits="userSpaceOnUse" x1="329.7971" y1="1911.6117" x2="703.8245" y2="1263.7773">
			<stop  offset="0" style="stop-color:#FF9398"/>
			<stop  offset="1" style="stop-color:#FFB27E"/>
		</linearGradient>
		<polygon class="st9" points="482.9,2000 424.9,1195.8 555.4,1178.1 597,2000 		"/>
		<linearGradient id="SVGID_11_" gradientUnits="userSpaceOnUse" x1="1329.7308" y1="1935.4464" x2="1715.8157" y2="1266.7279">
			<stop  offset="0" style="stop-color:#FF9398"/>
			<stop  offset="1" style="stop-color:#FFB27E"/>
		</linearGradient>
		<polygon class="st10" points="1441.5,2000 1497.2,1189.6 1616.7,1209.5 1555.6,2000 		"/>
		<linearGradient id="SVGID_12_" gradientUnits="userSpaceOnUse" x1="626.3204" y1="1919.619" x2="1032.4662" y2="1216.1539">
			<stop  offset="0" style="stop-color:#FF9398"/>
			<stop  offset="1" style="stop-color:#FFB27E"/>
		</linearGradient>
		<polygon class="st11" points="765.5,2000 734.6,1162.1 925.8,1154.6 909,2000 		"/>
		<linearGradient id="SVGID_13_" gradientUnits="userSpaceOnUse" x1="983.4969" y1="1927.1995" x2="1390.3457" y2="1222.5168">
			<stop  offset="0" style="stop-color:#FF9398"/>
			<stop  offset="1" style="stop-color:#FFB27E"/>
		</linearGradient>
		<polygon class="st12" points="1109.6,2000 1121.6,1154.6 1293.7,1166.7 1249.4,2000 		"/>
		<linearGradient id="SVGID_14_" gradientUnits="userSpaceOnUse" x1="1191.9016" y1="1166.7048" x2="1191.9016" y2="922.251">
			<stop  offset="0" style="stop-color:#FFB8BD"/>
			<stop  offset="1" style="stop-color:#FFEAB8"/>
		</linearGradient>
		<path class="st13" d="M1293.7,1166.7c0,0-84.7-100.2-132.1-239.4c0,0-26.9-3.6-71.4-5c0,0-0.9,127.1,31.5,232.3L1293.7,1166.7z"/>
		<linearGradient id="SVGID_15_" gradientUnits="userSpaceOnUse" x1="1417.9485" y1="1209.4866" x2="1417.9485" y2="934.0187">
			<stop  offset="0" style="stop-color:#FFB8BD"/>
			<stop  offset="1" style="stop-color:#FFEAB8"/>
		</linearGradient>
		<path class="st14" d="M1497.2,1189.6c0,0-203.5-100.7-277.9-255.6l46.6,7.4c0,0,89.2,161,350.9,268L1497.2,1189.6z"/>
		<linearGradient id="SVGID_16_" gradientUnits="userSpaceOnUse" x1="1578.394" y1="1269.6141" x2="1578.394" y2="946.8547">
			<stop  offset="0" style="stop-color:#FFB8BD"/>
			<stop  offset="1" style="stop-color:#FFEAB8"/>
		</linearGradient>
		<path class="st15" d="M1765.7,1242.3c0,0-266.7-72-472-295.4l38.9,9.1c0,0,131.3,179.6,530.5,313.7L1765.7,1242.3z"/>
		<linearGradient id="SVGID_17_" gradientUnits="userSpaceOnUse" x1="861.5702" y1="1162.1085" x2="861.5702" y2="922.251">
			<stop  offset="0" style="stop-color:#FFB8BD"/>
			<stop  offset="1" style="stop-color:#FFEAB8"/>
		</linearGradient>
		<path class="st16" d="M925.8,1154.6c0,0,59-64.8,62.8-232.3l-62.8,1.2c0,0-49.9,149.8-191.3,238.7L925.8,1154.6z"/>
		<linearGradient id="SVGID_18_" gradientUnits="userSpaceOnUse" x1="639.2729" y1="1195.7581" x2="639.2729" y2="929.2949">
			<stop  offset="0" style="stop-color:#FFB8BD"/>
			<stop  offset="1" style="stop-color:#FFEAB8"/>
		</linearGradient>
		<path class="st17" d="M555.4,1178.1c0,0,255.5-139.8,298.2-248.8l-48.6,5.6c0,0-105.4,161.6-380.1,260.8L555.4,1178.1z"/>
		<linearGradient id="SVGID_19_" gradientUnits="userSpaceOnUse" x1="453.1793" y1="1251.0891" x2="453.1793" y2="943.9888">
			<stop  offset="0" style="stop-color:#FFB8BD"/>
			<stop  offset="1" style="stop-color:#FFEAB8"/>
		</linearGradient>
		<path class="st18" d="M264.7,1226.9c0,0,349.3-137.9,480.9-282.9l-54.1,10c0,0-222.9,191.5-530.9,297.1L264.7,1226.9z"/>
		
			<radialGradient id="SVGID_20_" cx="662.7225" cy="1971.9346" r="755.7063" gradientTransform="matrix(1.0464 0 0 1.0775 -82.0004 -154.9793)" gradientUnits="userSpaceOnUse">
			<stop  offset="0" style="stop-color:#FF2A22"/>
			<stop  offset="0.9944" style="stop-color:#BF003B"/>
		</radialGradient>
		<polygon class="st19" points="1863.1,2000 1867,1957.9 126.9,1976.5 129.3,2000 		"/>
		
			<radialGradient id="SVGID_21_" cx="1028.8175" cy="1344.347" r="637.2822" gradientTransform="matrix(1.0464 0 0 1.0775 -82.0004 -154.9793)" gradientUnits="userSpaceOnUse">
			<stop  offset="0" style="stop-color:#FF6D77"/>
			<stop  offset="1" style="stop-color:#890050"/>
		</radialGradient>
		<path class="st20" d="M59.5,1325.7l8.3,80.6c0,0,343.7-210.5,961.1-210.5s887.9,224.4,887.9,224.4l12.7-137.1
			C1929.7,1283.1,959.4,995.2,59.5,1325.7z"/>
		
			<radialGradient id="SVGID_22_" cx="1033.9766" cy="1314.4298" r="679.3708" gradientTransform="matrix(1.0464 0 0 1.0775 -82.0004 -154.9793)" gradientUnits="userSpaceOnUse">
			<stop  offset="0" style="stop-color:#FF2A22"/>
			<stop  offset="0.9944" style="stop-color:#BF003B"/>
		</radialGradient>
		<path class="st21" d="M55.1,1283.1L0,1347.6c0,0,405.8-169.5,1029-169.5s971,190.4,971,190.4l-70.3-85.4
			c0,0-280.5-128.9-900.7-128.9S55.1,1283.1,55.1,1283.1z"/>
		<g>
			
				<radialGradient id="SVGID_23_" cx="1059.4392" cy="1225.1591" r="28.3837" gradientTransform="matrix(1.0464 0 0 1.0775 -82.0004 -154.9793)" gradientUnits="userSpaceOnUse">
				<stop  offset="0" style="stop-color:#FFCC1B"/>
				<stop  offset="1" style="stop-color:#FF7E31"/>
			</radialGradient>
			<path class="st22" d="M1046.5,1154.2c0,10.7-8.4,19.3-18.8,19.3c-10.4,0-18.8-8.7-18.8-19.3c0-10.7,8.4-19.3,18.8-19.3
				C1038,1134.8,1046.5,1143.5,1046.5,1154.2z"/>
			<path class="st23" d="M1041,1154.2c0,7.5-5.9,13.7-13.3,13.7c-7.3,0-13.3-6.1-13.3-13.7s5.9-13.7,13.3-13.7
				C1035,1140.5,1041,1146.6,1041,1154.2z"/>
		</g>
		<g>
			
				<radialGradient id="SVGID_24_" cx="1397.1896" cy="1243.0914" r="28.3827" gradientTransform="matrix(1.0464 0 0 1.0775 -82.0004 -154.9793)" gradientUnits="userSpaceOnUse">
				<stop  offset="0" style="stop-color:#FFCC1B"/>
				<stop  offset="1" style="stop-color:#FF7E31"/>
			</radialGradient>
			<ellipse class="st24" cx="1381.1" cy="1173.5" rx="18.8" ry="19.3"/>
			<ellipse class="st23" cx="1381.1" cy="1173.5" rx="13.3" ry="13.7"/>
		</g>
		<g>
			
				<radialGradient id="SVGID_25_" cx="688.266" cy="1243.0914" r="28.3836" gradientTransform="matrix(1.0464 0 0 1.0775 -82.0004 -154.9793)" gradientUnits="userSpaceOnUse">
				<stop  offset="0" style="stop-color:#FFCC1B"/>
				<stop  offset="1" style="stop-color:#FF7E31"/>
			</radialGradient>
			<path class="st25" d="M658,1173.5c0,10.7-8.4,19.3-18.8,19.3c-10.4,0-18.8-8.7-18.8-19.3c0-10.7,8.4-19.3,18.8-19.3
				C649.6,1154.2,658,1162.8,658,1173.5z"/>
			<path class="st23" d="M652.5,1173.5c0,7.5-5.9,13.7-13.3,13.7s-13.3-6.1-13.3-13.7s5.9-13.7,13.3-13.7S652.5,1165.9,652.5,1173.5
				z"/>
		</g>
		<g>
			
				<radialGradient id="SVGID_26_" cx="1656.1318" cy="1281.7578" r="28.3838" gradientTransform="matrix(1.0464 0 0 1.0775 -82.0004 -154.9793)" gradientUnits="userSpaceOnUse">
				<stop  offset="0" style="stop-color:#FFCC1B"/>
				<stop  offset="1" style="stop-color:#FF7E31"/>
			</radialGradient>
			<path class="st26" d="M1670.9,1215.1c0,10.7-8.4,19.3-18.8,19.3c-10.4,0-18.8-8.7-18.8-19.3c0-10.7,8.4-19.3,18.8-19.3
				C1662.5,1195.8,1670.9,1204.5,1670.9,1215.1z"/>
			<ellipse class="st23" cx="1652.1" cy="1215.1" rx="13.3" ry="13.7"/>
		</g>
		<g>
			
				<radialGradient id="SVGID_27_" cx="415.049" cy="1281.7578" r="28.3828" gradientTransform="matrix(1.0464 0 0 1.0775 -82.0004 -154.9793)" gradientUnits="userSpaceOnUse">
				<stop  offset="0" style="stop-color:#FFCC1B"/>
				<stop  offset="1" style="stop-color:#FF7E31"/>
			</radialGradient>
			<path class="st27" d="M372.1,1215.1c0,10.7-8.4,19.3-18.8,19.3c-10.4,0-18.8-8.7-18.8-19.3c0-10.7,8.4-19.3,18.8-19.3
				C363.7,1195.8,372.1,1204.5,372.1,1215.1z"/>
			<ellipse class="st23" cx="353.4" cy="1215.1" rx="13.3" ry="13.7"/>
		</g>
		<g>
			
				<radialGradient id="SVGID_28_" cx="1871.4177" cy="1324.5972" r="28.383" gradientTransform="matrix(1.0464 0 0 1.0775 -82.0004 -154.9793)" gradientUnits="userSpaceOnUse">
				<stop  offset="0" style="stop-color:#FFCC1B"/>
				<stop  offset="1" style="stop-color:#FF7E31"/>
			</radialGradient>
			<path class="st28" d="M1896.1,1261.3c0,10.7-8.4,19.3-18.8,19.3c-10.4,0-18.8-8.7-18.8-19.3c0-10.7,8.4-19.3,18.8-19.3
				C1887.7,1242,1896.1,1250.6,1896.1,1261.3z"/>
			<ellipse class="st23" cx="1877.4" cy="1261.3" rx="13.3" ry="13.7"/>
		</g>
		<g>
			
				<radialGradient id="SVGID_29_" cx="180.6545" cy="1324.5972" r="28.3828" gradientTransform="matrix(1.0464 0 0 1.0775 -82.0004 -154.9793)" gradientUnits="userSpaceOnUse">
				<stop  offset="0" style="stop-color:#FFCC1B"/>
				<stop  offset="1" style="stop-color:#FF7E31"/>
			</radialGradient>
			<path class="st29" d="M126.9,1261.3c0,10.7-8.4,19.3-18.8,19.3c-10.4,0-18.8-8.7-18.8-19.3c0-10.7,8.4-19.3,18.8-19.3
				C118.4,1242,126.9,1250.6,126.9,1261.3z"/>
			<ellipse class="st23" cx="108.1" cy="1261.3" rx="13.3" ry="13.7"/>
		</g>
		<linearGradient id="SVGID_30_" gradientUnits="userSpaceOnUse" x1="629.1765" y1="918.0077" x2="779.4691" y2="657.6933">
			<stop  offset="0" style="stop-color:#FF9398"/>
			<stop  offset="1" style="stop-color:#FFB27E"/>
		</linearGradient>
		<polygon class="st30" points="691.5,954 652.5,649.8 726.1,626.9 745.7,944 		"/>
		<linearGradient id="SVGID_31_" gradientUnits="userSpaceOnUse" x1="874.0728" y1="893.5455" x2="1037.839" y2="609.8942">
			<stop  offset="0" style="stop-color:#FF9398"/>
			<stop  offset="1" style="stop-color:#FFB27E"/>
		</linearGradient>
		<polygon class="st31" points="925.8,923.4 914.9,595.8 1008.9,593.2 988.6,922.3 		"/>
		<linearGradient id="SVGID_32_" gradientUnits="userSpaceOnUse" x1="743.1967" y1="899.2337" x2="899.2861" y2="628.8788">
			<stop  offset="0" style="stop-color:#FF9398"/>
			<stop  offset="1" style="stop-color:#FFB27E"/>
		</linearGradient>
		<polygon class="st32" points="853.6,929.3 851.7,601.4 780.1,614 805,934.9 		"/>
		<linearGradient id="SVGID_33_" gradientUnits="userSpaceOnUse" x1="1047.6122" y1="897.7035" x2="1206.1144" y2="623.1696">
			<stop  offset="0" style="stop-color:#FF9398"/>
			<stop  offset="1" style="stop-color:#FFB27E"/>
		</linearGradient>
		<polygon class="st33" points="1090.1,922.3 1090.1,597.2 1179.8,608 1161.5,927.3 		"/>
		<linearGradient id="SVGID_34_" gradientUnits="userSpaceOnUse" x1="1186.8844" y1="915.3461" x2="1339.7343" y2="650.6024">
			<stop  offset="0" style="stop-color:#FF9398"/>
			<stop  offset="1" style="stop-color:#FFB27E"/>
		</linearGradient>
		<polygon class="st34" points="1219.2,934 1261.4,623.6 1316.9,637.4 1265.8,941.4 		"/>
		<linearGradient id="SVGID_35_" gradientUnits="userSpaceOnUse" x1="1271.9142" y1="934.2902" x2="1421.101" y2="675.8913">
			<stop  offset="0" style="stop-color:#FF9398"/>
			<stop  offset="1" style="stop-color:#FFB27E"/>
		</linearGradient>
		<polygon class="st35" points="1293.7,946.9 1362.4,650.9 1400.2,663.8 1332.6,955.9 		"/>
		
			<radialGradient id="SVGID_36_" cx="1041.7198" cy="1845.6982" r="226.2223" gradientTransform="matrix(1.0464 0 0 1.0775 -82.0004 -154.9793)" gradientUnits="userSpaceOnUse">
			<stop  offset="0" style="stop-color:#FF6D77"/>
			<stop  offset="1" style="stop-color:#890050"/>
		</radialGradient>
		<polygon class="st36" points="1301.4,2000 1300.2,1667.6 726.1,1667.5 714.8,2000 		"/>
		<g>
			
				<radialGradient id="SVGID_37_" cx="1058.5645" cy="1624.1296" r="321.7325" gradientTransform="matrix(1.0464 0 0 1.0775 -82.0004 -154.9793)" gradientUnits="userSpaceOnUse">
				<stop  offset="0" style="stop-color:#FFCC1B"/>
				<stop  offset="1" style="stop-color:#FF7E31"/>
			</radialGradient>
			<path class="st37" d="M1250.1,1695.8l-34.3,304.1H812.3l-35.8-304.1c34.8-7.9,82.5-33.2,111.5-108.5c39-15.1,81-22.7,125.3-22.7
				c44.3,0,86.3,7.6,125.3,22.7C1167.5,1662.7,1215.2,1687.9,1250.1,1695.8z"/>
			<path class="st38" d="M1250.1,1695.8l-34.3,304.1H812.3l-35.8-304.1c34.8-7.9,82.5-33.2,111.5-108.5c39-15.1,81-22.7,125.3-22.7
				c44.3,0,86.3,7.6,125.3,22.7C1167.5,1662.7,1215.2,1687.9,1250.1,1695.8z"/>
			<g>
				<linearGradient id="SVGID_38_" gradientUnits="userSpaceOnUse" x1="894.8381" y1="2000" x2="894.8381" y2="1563.3044">
					<stop  offset="0" style="stop-color:#FF313E"/>
					<stop  offset="0.9944" style="stop-color:#A40244"/>
				</linearGradient>
				<path class="st39" d="M1013.2,1564.6c0,0-18.9,259-190,321.6l28.5,113.8h-39.4l-35.8-304.1l111.5-108.5
					C887.9,1587.3,937.7,1556.7,1013.2,1564.6z"/>
				<polygon class="st40" points="797.5,1875 825.7,1896.3 848.5,1875 797.5,1860.3 				"/>
				<path class="st41" d="M988.6,1565.4c0,0-34.6,221-165.6,302.3c0,0,120.9-108.7,136.1-271.1l-47.5,17.6c0,0-35,163-106.4,248.4
					l-7.7-2.2l-38-165.9l146.4-129H988.6z"/>
			</g>
			<g>
				
					<linearGradient id="SVGID_39_" gradientUnits="userSpaceOnUse" x1="662.5948" y1="2000" x2="662.5948" y2="1563.3044" gradientTransform="matrix(-1 0 0 1 1809.9878 0)">
					<stop  offset="0" style="stop-color:#FF313E"/>
					<stop  offset="0.9944" style="stop-color:#A40244"/>
				</linearGradient>
				<path class="st42" d="M1029,1564.6c0,0,18.9,259,190,321.6l-28.5,113.8h39.4l35.8-304.1l-111.5-108.5
					C1154.3,1587.3,1104.5,1556.7,1029,1564.6z"/>
				<polygon class="st40" points="1244.7,1875 1216.5,1896.3 1193.8,1875 1244.7,1860.3 				"/>
				<path class="st41" d="M1053.6,1565.4c0,0,34.6,221,165.6,302.3c0,0-120.9-108.7-136.1-271.1l47.5,17.6c0,0,35,163,106.4,248.4
					l7.7-2.2l38-165.9l-146.4-129H1053.6z"/>
			</g>
			
				<radialGradient id="SVGID_40_" cx="1022.9434" cy="1559.953" r="305.3483" gradientTransform="matrix(1.0464 0 0 1.0775 -82.0004 -154.9793)" gradientUnits="userSpaceOnUse">
				<stop  offset="0" style="stop-color:#FFCC1B"/>
				<stop  offset="1" style="stop-color:#FF7E31"/>
			</radialGradient>
			<path class="st43" d="M1300.2,1667.6L1270,2000h-54.2l34.3-304.1c-34.9-7.9-82.5-33.2-111.5-108.5c-39-15.1-81-22.7-125.3-22.7
				c-44.3,0-86.3,7.6-125.3,22.7c-29,75.3-76.7,100.6-111.5,108.5l35.8,304.1h-58.5l-27.7-332.5c-0.7-8.8,6.3-16,14.8-15.4
				c26.9,1.8,80.4-6.7,108.8-94c1.3-3.9,4-7.2,7.8-8.8c41.8-18.3,93.7-31.7,155.8-31.7c62.1,0,114,13.4,155.8,31.7
				c3.7,1.6,6.4,4.9,7.7,8.8c28.4,87.1,81.8,95.7,108.7,94C1294,1651.5,1301,1658.8,1300.2,1667.6z"/>
			<path class="st44" d="M894.8,1542.7l15.5,29.1c0,0,131.5-33.5,230.4,10l20.8-35.7C1161.5,1546.1,1010.7,1494.7,894.8,1542.7z"/>
			<path class="st44" d="M1147.4,1588.3c0,0,8.5,26.1,24.2,45.5l18.9-27.9c0,0-15-33.8-18.9-49.9L1147.4,1588.3z"/>
		</g>
		
			<radialGradient id="SVGID_41_" cx="1065.2825" cy="313.36" r="54.9346" gradientTransform="matrix(1.0464 0 0 1.0775 -82.0004 -154.9793)" gradientUnits="userSpaceOnUse">
			<stop  offset="0" style="stop-color:#FF8013"/>
			<stop  offset="0.9944" style="stop-color:#FF4844"/>
		</radialGradient>
		<path class="st45" d="M988.6,223.7l-26.7-23.9v-42.1c0,0,64.7-36.2,141.7,0v42.1l-28.8,18l-1.6-7.3c0,0-28.9-17.3-80.9-0.7
			L988.6,223.7z"/>
		<linearGradient id="SVGID_42_" gradientUnits="userSpaceOnUse" x1="961.908" y1="169.6177" x2="1103.6118" y2="169.6177">
			<stop  offset="0" style="stop-color:#FF9D31"/>
			<stop  offset="1" style="stop-color:#FFCC1B"/>
		</linearGradient>
		<path class="st46" d="M961.9,199.8c0,0,65.8-37.2,141.7,0v-42.1c0,0-70.9-41.1-141.7,0V199.8z"/>
		<path class="st47" d="M1055.6,223.7c0,0,12.9,64,26.9,105.9l21,1c0,0-23.8-68-33.4-104.4L1055.6,223.7z"/>
		<polygon class="st47" points="1083.5,337.6 1100.3,373 1132.2,378 1103.7,337.2 		"/>
		<path class="st47" d="M1040.6,139.4v37.4c0,0,35.4,3.9,49.2,10.8v-35.6C1089.8,151.9,1062.5,139,1040.6,139.4z"/>
		
			<radialGradient id="SVGID_43_" cx="1108.7213" cy="175.9834" r="86.049" gradientTransform="matrix(1.0464 0 0 1.0775 -82.0004 -154.9793)" gradientUnits="userSpaceOnUse">
			<stop  offset="0" style="stop-color:#FF5F2F"/>
			<stop  offset="0.9944" style="stop-color:#EF183B"/>
		</radialGradient>
		<path class="st48" d="M1031.6,11.2h9.7c0,0,17.9-3,44.1,17.4c26.2,20.5,70,24.4,123.3,13.6c0,0-51.7,40-99,48.7
			c-47.3,8.8-69,0.5-81.8,0L1031.6,11.2z"/>
		<linearGradient id="SVGID_44_" gradientUnits="userSpaceOnUse" x1="870.9973" y1="613.9784" x2="870.9973" y2="436.6522">
			<stop  offset="0" style="stop-color:#FFB8BD"/>
			<stop  offset="1" style="stop-color:#FFEAB8"/>
		</linearGradient>
		<path class="st49" d="M780.1,614c0,0,99.1-78.5,146.2-170.7l35.6-6.6c0,0-55.8,110.5-110.2,164.8L780.1,614z"/>
		<linearGradient id="SVGID_45_" gradientUnits="userSpaceOnUse" x1="780.3102" y1="649.7505" x2="780.3102" y2="448.1841">
			<stop  offset="0" style="stop-color:#FFB8BD"/>
			<stop  offset="1" style="stop-color:#FFEAB8"/>
		</linearGradient>
		<path class="st50" d="M726.1,626.9c0,0,125.2-98.4,182-178.7l-13.5,4.4c0,0-93,117.8-242,197.1L726.1,626.9z"/>
		<linearGradient id="SVGID_46_" gradientUnits="userSpaceOnUse" x1="964.7209" y1="595.7824" x2="964.7209" y2="432.4988">
			<stop  offset="0" style="stop-color:#FFB8BD"/>
			<stop  offset="1" style="stop-color:#FFEAB8"/>
		</linearGradient>
		<path class="st51" d="M914.9,595.8c0,0,44.3-73.3,61.4-160.8l37.8-2.5c0,0,2.8,134.2-5.1,160.7L914.9,595.8z"/>
		<linearGradient id="SVGID_47_" gradientUnits="userSpaceOnUse" x1="1117.7479" y1="608.0054" x2="1117.7479" y2="434.8847">
			<stop  offset="0" style="stop-color:#FFB8BD"/>
			<stop  offset="1" style="stop-color:#FFEAB8"/>
		</linearGradient>
		<path class="st52" d="M1090.1,597.2c0,0-33-112.2-34.5-162.3l27.9,3.1c0,0,43.3,109.4,96.3,170L1090.1,597.2z"/>
		<linearGradient id="SVGID_48_" gradientUnits="userSpaceOnUse" x1="1212.4087" y1="637.4398" x2="1212.4087" y2="442.0739">
			<stop  offset="0" style="stop-color:#FFB8BD"/>
			<stop  offset="1" style="stop-color:#FFEAB8"/>
		</linearGradient>
		<path class="st53" d="M1261.4,623.6c0,0-108.3-96.8-153.5-181.5l24.4,5.3c0,0,111.9,139.3,184.7,190L1261.4,623.6z"/>
		<linearGradient id="SVGID_49_" gradientUnits="userSpaceOnUse" x1="1271.288" y1="663.8054" x2="1271.288" y2="450.0585">
			<stop  offset="0" style="stop-color:#FFB8BD"/>
			<stop  offset="1" style="stop-color:#FFEAB8"/>
		</linearGradient>
		<path class="st54" d="M1362.4,650.9c0,0-135.2-78.5-219.9-200.9l8.6,2.5c0,0,82.6,124.5,249.1,211.2L1362.4,650.9z"/>
		<path class="st55" d="M876.9,471.6c0,0,167.3-46.2,302.9,16.5l-28.8-35.4c0,0-107.9-47.4-256.5,0L876.9,471.6z"/>
		
			<radialGradient id="SVGID_50_" cx="1045.2996" cy="772.1904" r="269.0348" gradientTransform="matrix(1.0464 0 0 1.0775 -82.0004 -154.9793)" gradientUnits="userSpaceOnUse">
			<stop  offset="0" style="stop-color:#FF6D77"/>
			<stop  offset="1" style="stop-color:#890050"/>
		</radialGradient>
		<path class="st56" d="M621.6,713.3l6,34.6c0,0,131.3-133.9,405.2-133.9c257.5,0,359.4,144.3,359.4,144.3l9.9-42.1
			c0,0-185.8-120.4-376.7-120.4C834.6,595.8,621.6,713.3,621.6,713.3z"/>
		
			<radialGradient id="SVGID_51_" cx="1041.0994" cy="754.0266" r="281.1158" gradientTransform="matrix(1.0464 0 0 1.0775 -82.0004 -154.9793)" gradientUnits="userSpaceOnUse">
			<stop  offset="0" style="stop-color:#FF2A22"/>
			<stop  offset="0.9944" style="stop-color:#BF003B"/>
		</radialGradient>
		<path class="st57" d="M614.1,664.5L597,727.1c0,0,193.9-119.5,428.5-119.5c234.6,0,392.5,119.5,392.5,119.5l-3.9-57.7
			c0,0-137.1-81.5-388.6-81.5C773.9,587.9,614.1,664.5,614.1,664.5z"/>
		<g>
			
				<radialGradient id="SVGID_52_" cx="1059.4392" cy="711.8523" r="28.3836" gradientTransform="matrix(1.0464 0 0 1.0775 -82.0004 -154.9793)" gradientUnits="userSpaceOnUse">
				<stop  offset="0" style="stop-color:#FFCC1B"/>
				<stop  offset="1" style="stop-color:#FF7E31"/>
			</radialGradient>
			<path class="st58" d="M1046.5,601.1c0,10.7-8.4,19.3-18.8,19.3c-10.4,0-18.8-8.6-18.8-19.3c0-10.7,8.4-19.3,18.8-19.3
				C1038,581.8,1046.5,590.4,1046.5,601.1z"/>
			<path class="st23" d="M1041,601.1c0,7.5-5.9,13.7-13.3,13.7c-7.3,0-13.3-6.1-13.3-13.7s5.9-13.7,13.3-13.7
				C1035,587.4,1041,593.5,1041,601.1z"/>
		</g>
		<g>
			
				<radialGradient id="SVGID_53_" cx="1235.9636" cy="728.7763" r="28.3837" gradientTransform="matrix(1.0464 0 0 1.0775 -82.0004 -154.9793)" gradientUnits="userSpaceOnUse">
				<stop  offset="0" style="stop-color:#FFCC1B"/>
				<stop  offset="1" style="stop-color:#FF7E31"/>
			</radialGradient>
			<path class="st59" d="M1231.2,619.3c0,10.7-8.4,19.3-18.8,19.3c-10.4,0-18.8-8.7-18.8-19.3c0-10.7,8.4-19.3,18.8-19.3
				C1222.8,600,1231.2,608.6,1231.2,619.3z"/>
			<ellipse class="st23" cx="1212.4" cy="619.3" rx="13.3" ry="13.7"/>
		</g>
		<g>
			
				<radialGradient id="SVGID_54_" cx="1353.7844" cy="765.4958" r="28.3837" gradientTransform="matrix(1.0464 0 0 1.0775 -82.0004 -154.9793)" gradientUnits="userSpaceOnUse">
				<stop  offset="0" style="stop-color:#FFCC1B"/>
				<stop  offset="1" style="stop-color:#FF7E31"/>
			</radialGradient>
			<path class="st60" d="M1354.5,658.9c0,10.7-8.4,19.3-18.8,19.3c-10.4,0-18.8-8.7-18.8-19.3c0-10.7,8.4-19.3,18.8-19.3
				C1346.1,639.6,1354.5,648.2,1354.5,658.9z"/>
			<ellipse class="st23" cx="1335.7" cy="658.9" rx="13.3" ry="13.7"/>
		</g>
		<g>
			
				<radialGradient id="SVGID_55_" cx="1432.3812" cy="797.8149" r="28.3836" gradientTransform="matrix(1.0464 0 0 1.0775 -82.0004 -154.9793)" gradientUnits="userSpaceOnUse">
				<stop  offset="0" style="stop-color:#FFCC1B"/>
				<stop  offset="1" style="stop-color:#FF7E31"/>
			</radialGradient>
			<path class="st61" d="M1436.7,693.7c0,10.7-8.4,19.3-18.8,19.3c-10.4,0-18.8-8.7-18.8-19.3c0-10.7,8.4-19.3,18.8-19.3
				C1428.3,674.4,1436.7,683,1436.7,693.7z"/>
			<ellipse class="st23" cx="1417.9" cy="693.7" rx="13.3" ry="13.7"/>
		</g>
		<g>
			
				<radialGradient id="SVGID_56_" cx="915.3761" cy="718.2802" r="28.3836" gradientTransform="matrix(1.0464 0 0 1.0775 -82.0004 -154.9793)" gradientUnits="userSpaceOnUse">
				<stop  offset="0" style="stop-color:#FFCC1B"/>
				<stop  offset="1" style="stop-color:#FF7E31"/>
			</radialGradient>
			<path class="st62" d="M895.7,608c0,10.7-8.4,19.3-18.8,19.3c-10.4,0-18.8-8.6-18.8-19.3c0-10.7,8.4-19.3,18.8-19.3
				C887.3,588.7,895.7,597.3,895.7,608z"/>
			<path class="st23" d="M890.2,608c0,7.5-5.9,13.7-13.3,13.7c-7.3,0-13.3-6.1-13.3-13.7c0-7.5,5.9-13.7,13.3-13.7
				C884.3,594.3,890.2,600.5,890.2,608z"/>
		</g>
		<g>
			
				<radialGradient id="SVGID_57_" cx="789.9579" cy="745.5975" r="28.3837" gradientTransform="matrix(1.0464 0 0 1.0775 -82.0004 -154.9793)" gradientUnits="userSpaceOnUse">
				<stop  offset="0" style="stop-color:#FFCC1B"/>
				<stop  offset="1" style="stop-color:#FF7E31"/>
			</radialGradient>
			<path class="st63" d="M764.5,637.4c0,10.7-8.4,19.3-18.8,19.3c-10.4,0-18.8-8.7-18.8-19.3c0-10.7,8.4-19.3,18.8-19.3
				C756.1,618.1,764.5,626.8,764.5,637.4z"/>
			<ellipse class="st23" cx="745.7" cy="637.4" rx="13.3" ry="13.7"/>
		</g>
		<g>
			
				<radialGradient id="SVGID_58_" cx="671.3838" cy="787.9994" r="28.3837" gradientTransform="matrix(1.0464 0 0 1.0775 -82.0004 -154.9793)" gradientUnits="userSpaceOnUse">
				<stop  offset="0" style="stop-color:#FFCC1B"/>
				<stop  offset="1" style="stop-color:#FF7E31"/>
			</radialGradient>
			<path class="st64" d="M640.4,683.1c0,10.7-8.4,19.3-18.8,19.3c-10.4,0-18.8-8.7-18.8-19.3c0-10.7,8.4-19.3,18.8-19.3
				C632,663.8,640.4,672.5,640.4,683.1z"/>
			<ellipse class="st23" cx="621.6" cy="683.1" rx="13.3" ry="13.7"/>
		</g>
	</g>
	<g>
		
			<radialGradient id="SVGID_59_" cx="1056.2646" cy="1028.0153" r="615.2814" gradientTransform="matrix(1.0464 0 0 1.0775 -82.0004 -154.9793)" gradientUnits="userSpaceOnUse">
			<stop  offset="0" style="stop-color:#FFCC1B"/>
			<stop  offset="1" style="stop-color:#FF9D31"/>
		</radialGradient>
		<path class="st65" d="M1453.8,1192.8c0.1-0.6,0.1-1,0.1-1h-0.2c-1.5-13.8-14.1-100.1-90.7-165.8c0,0-118.8-6.1-113.7-122
			c0,0-82.4-47.9-229.5-47.9c-147.1,0-232.5,49-232.5,49s8.6,113.6-122,119.6c0,0-77.5,76.5-79.4,167.1h-0.1c0,0.3,0,0.6,0,1
			c0,0.3,0,0.6,0,1h0.1c1.9,90.6,79.4,167.1,79.4,167.1c130.6,6,122,119.6,122,119.6s85.4,49,232.5,49
			c147.1,0,229.5-47.9,229.5-47.9c-5.1-116,113.7-122,113.7-122c76.6-65.7,89.1-152,90.7-165.8h0.2
			C1453.9,1193.7,1453.9,1193.4,1453.8,1192.8z"/>
		
			<radialGradient id="SVGID_60_" cx="1059.7991" cy="1500.99" r="331.586" gradientTransform="matrix(1.0464 0 0 1.0775 -82.0004 -154.9793)" gradientUnits="userSpaceOnUse">
			<stop  offset="0" style="stop-color:#FFFF13"/>
			<stop  offset="0.9944" style="stop-color:#FF4844"/>
		</radialGradient>
		<path class="st66" d="M1019.9,1490.8c-97.1,0-165.6-22.9-196.3-35.7c-2.9-21.9-11.3-52.8-34.7-79.9
			c-25.2-29.4-60.9-46.7-106.3-51.7c-18-20.9-58-73.7-59.2-130.5v-0.2c1.2-56.8,41.2-109.6,59.2-130.5c45.3-5,81-22.3,106.3-51.7
			c23.3-27.2,31.8-58,34.7-79.9c30.6-12.8,99.1-35.7,196.3-35.7c95.9,0,162.4,21.8,192.7,34.4c4.9,49.8,30.6,89.5,74,113.5
			c23.2,12.8,46.3,18.2,60.6,20.5c53.8,50.9,66.3,113.1,68.8,129.7c-2.5,16.6-15,78.8-68.8,129.7c-14.3,2.3-37.4,7.7-60.6,20.5
			c-43.4,23.9-69.1,63.6-74,113.5C1182.4,1468.9,1115.9,1490.8,1019.9,1490.8z"/>
		
			<radialGradient id="SVGID_61_" cx="1052.7672" cy="1250.8147" r="322.6956" gradientTransform="matrix(1.0464 0 0 1.0775 -82.0004 -154.9793)" gradientUnits="userSpaceOnUse">
			<stop  offset="0" style="stop-color:#597CF4"/>
			<stop  offset="1" style="stop-color:#6436DB"/>
		</radialGradient>
		<path class="st67" d="M1406.5,1192.8c-2.9,18.3-15.5,73.9-63.6,120.7c-7.5,1.3-16.6,3.3-26.6,6.5c-10.7,3.4-22.4,8.1-34.1,14.5
			c-12.3,6.7-23.3,14.8-32.9,24l0,0c-9,8.6-16.8,18.2-23.3,28.7c-3.2,5.1-6.1,10.5-8.7,16.1l0,0.1c-6.6,14.2-11.1,29.7-13.3,46.2
			c-7.2,2.9-16,6-26.3,9.2h0c-9.6,3-20.5,6-32.7,8.8c-32.1,7.4-72.9,13.3-121.7,13.6c-1.1,0-2.2,0-3.3,0c-1.3,0-2.5,0-3.8,0
			c-48.3-0.3-89.1-6.2-121.5-13.7c-12.2-2.8-23.2-5.8-33-8.9c-11.6-3.6-21.5-7.2-29.5-10.4c-2.7-16.5-8.5-37.4-20.7-58
			c-4.3-7.2-9.3-14.4-15.3-21.4c-19.2-22.3-44-38.1-74-47.2c-10.8-3.3-22.4-5.7-34.6-7.2c-17.8-21.2-53.4-70-54.5-121.6
			c1.1-51.3,36.8-100.2,54.5-121.4c11.1-1.4,21.7-3.5,31.7-6.4c31.4-8.9,57.1-25,76.9-48.1c5.2-6.1,9.8-12.4,13.7-18.8
			c13.3-21.5,19.5-43.4,22.4-60.6c9-3.6,20.4-7.7,33.9-11.7c7.8-2.3,16.4-4.7,25.6-6.8c33.7-8,76.7-14.5,128.1-14.5h0.2
			c51.8,0,94.8,6.4,128,14.3c9.2,2.2,17.6,4.4,25.2,6.7c12.2,3.7,22.5,7.3,30.8,10.6c3.2,24.1,11.2,46,23.6,64.9
			c13.3,20.5,31.8,37.6,54.6,50.2c12.8,7,25.5,12,37,15.4c8.8,2.6,16.9,4.4,23.7,5.6C1391,1118.9,1403.6,1174.4,1406.5,1192.8z"/>
		<g>
			
				<linearGradient id="SVGID_62_" gradientUnits="userSpaceOnUse" x1="853.9553" y1="759.3444" x2="990.9677" y2="759.3444" gradientTransform="matrix(0.7071 -0.7071 0.7071 0.7071 -307.9662 1308.1089)">
				<stop  offset="5.586590e-03" style="stop-color:#A8437E"/>
				<stop  offset="1" style="stop-color:#FF8B70"/>
			</linearGradient>
			<polygon class="st68" points="950.5,1192.8 881.2,1289.7 812,1192.8 881.2,1095.9 			"/>
			
				<linearGradient id="SVGID_63_" gradientUnits="userSpaceOnUse" x1="756.0748" y1="661.4639" x2="893.0872" y2="661.4639" gradientTransform="matrix(0.7071 -0.7071 0.7071 0.7071 -307.9662 1308.1089)">
				<stop  offset="5.586590e-03" style="stop-color:#A8437E"/>
				<stop  offset="1" style="stop-color:#FF8B70"/>
			</linearGradient>
			<polygon class="st69" points="812,1192.8 742.8,1289.7 673.6,1192.8 742.8,1095.9 			"/>
			
				<linearGradient id="SVGID_64_" gradientUnits="userSpaceOnUse" x1="951.8358" y1="857.2249" x2="1088.8481" y2="857.2249" gradientTransform="matrix(0.7071 -0.7071 0.7071 0.7071 -307.9662 1308.1089)">
				<stop  offset="5.586590e-03" style="stop-color:#A8437E"/>
				<stop  offset="1" style="stop-color:#FF8B70"/>
			</linearGradient>
			<polygon class="st70" points="1088.9,1192.8 1019.7,1289.7 950.5,1192.8 1019.7,1095.9 			"/>
			
				<linearGradient id="SVGID_65_" gradientUnits="userSpaceOnUse" x1="1049.7162" y1="955.1053" x2="1186.7286" y2="955.1053" gradientTransform="matrix(0.7071 -0.7071 0.7071 0.7071 -307.9662 1308.1089)">
				<stop  offset="5.586590e-03" style="stop-color:#A8437E"/>
				<stop  offset="1" style="stop-color:#FF8B70"/>
			</linearGradient>
			<polygon class="st71" points="1227.3,1192.8 1158.1,1289.7 1088.9,1192.8 1158.1,1095.9 			"/>
			
				<linearGradient id="SVGID_66_" gradientUnits="userSpaceOnUse" x1="1147.5967" y1="1052.9858" x2="1284.6091" y2="1052.9858" gradientTransform="matrix(0.7071 -0.7071 0.7071 0.7071 -307.9662 1308.1089)">
				<stop  offset="5.586590e-03" style="stop-color:#A8437E"/>
				<stop  offset="1" style="stop-color:#FF8B70"/>
			</linearGradient>
			<polygon class="st72" points="1365.7,1192.8 1296.5,1289.7 1227.3,1192.8 1296.5,1095.9 			"/>
			<linearGradient id="SVGID_67_" gradientUnits="userSpaceOnUse" x1="812.0341" y1="1008.5399" x2="950.4526" y2="1008.5399">
				<stop  offset="5.586590e-03" style="stop-color:#A8437E"/>
				<stop  offset="1" style="stop-color:#FF8B70"/>
			</linearGradient>
			<path class="st73" d="M950.5,1001.3L882,1097l-0.8,1.2l-0.8-1.2l-68.4-95.7l54-75.6c7.8-2.3,16.4-4.7,25.6-6.8L950.5,1001.3z"/>
			<linearGradient id="SVGID_68_" gradientUnits="userSpaceOnUse" x1="719.0466" y1="1048.0992" x2="812.0341" y2="1048.0992">
				<stop  offset="5.586590e-03" style="stop-color:#A8437E"/>
				<stop  offset="1" style="stop-color:#FF8B70"/>
			</linearGradient>
			<path class="st74" d="M812,1001.3l-68.4,95.7l-0.8,1.2l-0.8-1.2l-22.9-32.1c31.4-8.9,57.1-25,76.9-48.1
				c5.2-6.1,9.8-12.4,13.7-18.8L812,1001.3z"/>
			
				<linearGradient id="SVGID_69_" gradientUnits="userSpaceOnUse" x1="1087.2386" y1="721.822" x2="1224.251" y2="721.822" gradientTransform="matrix(0.7071 -0.7071 0.7071 0.7071 -307.9662 1308.1089)">
				<stop  offset="5.586590e-03" style="stop-color:#A8437E"/>
				<stop  offset="1" style="stop-color:#FF8B70"/>
			</linearGradient>
			<polygon class="st75" points="1088.9,1001.3 1019.7,1098.2 950.5,1001.3 1019.7,904.4 			"/>
			<linearGradient id="SVGID_70_" gradientUnits="userSpaceOnUse" x1="1088.8726" y1="1008.4343" x2="1227.2911" y2="1008.4343">
				<stop  offset="5.586590e-03" style="stop-color:#A8437E"/>
				<stop  offset="1" style="stop-color:#FF8B70"/>
			</linearGradient>
			<path class="st76" d="M1227.3,1001.3l-68.4,95.7l-0.8,1.2l-0.8-1.2l-68.4-95.7l59-82.6c9.2,2.2,17.6,4.4,25.2,6.7L1227.3,1001.3z
				"/>
			<linearGradient id="SVGID_71_" gradientUnits="userSpaceOnUse" x1="1227.2911" y1="1049.5645" x2="1319.1481" y2="1049.5645">
				<stop  offset="5.586590e-03" style="stop-color:#A8437E"/>
				<stop  offset="1" style="stop-color:#FF8B70"/>
			</linearGradient>
			<path class="st77" d="M1319.1,1066.5l-21.8,30.5l-0.8,1.2l-0.8-1.2l-68.4-95.7l0.2-0.3c13.3,20.5,31.8,37.6,54.6,50.2
				C1294.9,1058.1,1307.7,1063.1,1319.1,1066.5z"/>
			<linearGradient id="SVGID_72_" gradientUnits="userSpaceOnUse" x1="812.0341" y1="1379.8231" x2="950.4526" y2="1379.8231">
				<stop  offset="5.586590e-03" style="stop-color:#A8437E"/>
				<stop  offset="1" style="stop-color:#FF8B70"/>
			</linearGradient>
			<path class="st78" d="M950.5,1389.2l-55.9,78.2c-12.2-2.8-23.2-5.8-33-8.9l-49.5-69.3l69.2-96.9L950.5,1389.2z"/>
			<linearGradient id="SVGID_73_" gradientUnits="userSpaceOnUse" x1="721.9603" y1="1341.2167" x2="812.0341" y2="1341.2167">
				<stop  offset="5.586590e-03" style="stop-color:#A8437E"/>
				<stop  offset="1" style="stop-color:#FF8B70"/>
			</linearGradient>
			<path class="st79" d="M812,1389.2l-0.7,1c-4.3-7.2-9.3-14.4-15.3-21.4c-19.2-22.3-44-38.1-74-47.2l20.8-29.2L812,1389.2z"/>
			<linearGradient id="SVGID_74_" gradientUnits="userSpaceOnUse" x1="950.4526" y1="1386.7073" x2="1088.8726" y2="1386.7073">
				<stop  offset="5.586590e-03" style="stop-color:#A8437E"/>
				<stop  offset="1" style="stop-color:#FF8B70"/>
			</linearGradient>
			<path class="st80" d="M1088.9,1389.2l-65.7,91.9c-1.1,0-2.2,0-3.3,0c-1.3,0-2.5,0-3.8,0l-65.7-91.9l69.2-96.9L1088.9,1389.2z"/>
			<linearGradient id="SVGID_75_" gradientUnits="userSpaceOnUse" x1="1088.8726" y1="1379.9108" x2="1227.2911" y2="1379.9108">
				<stop  offset="5.586590e-03" style="stop-color:#A8437E"/>
				<stop  offset="1" style="stop-color:#FF8B70"/>
			</linearGradient>
			<path class="st81" d="M1227.3,1389.2l-10.1,14.1l0,0.1l-39.6,55.4h0c-9.6,3-20.5,6-32.7,8.8l-56-78.4l69.2-96.9l67.8,94.9
				L1227.3,1389.2z"/>
			<linearGradient id="SVGID_76_" gradientUnits="userSpaceOnUse" x1="1249.235" y1="1325.3655" x2="1316.2676" y2="1325.3655">
				<stop  offset="5.586590e-03" style="stop-color:#A8437E"/>
				<stop  offset="1" style="stop-color:#FF8B70"/>
			</linearGradient>
			<path class="st82" d="M1316.3,1319.9c-10.7,3.4-22.4,8.1-34.1,14.5c-12.3,6.7-23.3,14.8-32.9,24l47.3-66.2L1316.3,1319.9z"/>
		</g>
		<g>
			<g>
				<path class="st83" d="M685.2,1259.9c1.9-1.1-1.2-6,0.2-9.2c1.4-3.2,7.4-4.1,8.4-8.2c1-4.1,1.8-8.3,2.3-12.7
					c0.5-4.4,0.7-8.4,0.7-12.1c0-5.7-0.6-11.2-1.8-16.4c-1.2-5.2-2.8-9.2-4.9-11.8v-9.7c1.3-3.4,7.2-5.4,8-9.2
					c0.7-3.9,1.2-7.8,1.5-11.9c0.2-4.1,0.4-7.9,0.4-11.4c0-2.9-0.1-5.5-0.2-7.6c-0.1-2.2-0.3-3.8-0.4-5c-2.8-1-5.8-3.1-8.8-6.3
					c-3-3.2-5.3-6.6-6.8-10.3v-9.7c6.7,0.7,16.4,11.3,22.5,11.5c7.1,0.3,13.8,0.5,20.1,0.5c13.5,0,24.3-0.4,32.6-1.3
					c8.3-0.9,14.8-1.3,19.6-1.3c1,0,3.9-9.4,4.6-9.3c0,0-0.6,9.6,0,9.7c-0.7,1.5-1.5,4.4-2.3,8.6c-0.8,4.2-1.6,8.8-2.3,13.7
					c-0.7,5-1.4,9.8-1.9,14.5c-0.6,4.7-1,8.3-1.2,10.7l-1.3,0.6c-4.3-3.3-7.4-7-9.4-11c-1.9-4-3.4-8.9-4.3-14.8
					c-1.7-1.4-3.9-2.3-6.5-2.7c-2.6-0.4-5.9-0.6-9.8-0.6c-3.2,0-6.3,0.1-9.3,0.2c-3,0.1-5.3,0.2-7,0.2c-0.6,3.7-1.1,7.9-1.6,12.8
					c-0.4,4.8-0.8,10-1.1,15.4c-0.3,5.5-0.6,11.2-0.7,17.1c-0.2,5.9-0.3,11.8-0.3,17.6c0,8,0.1,15.6,0.3,22.8
					c0.2,7.2,0.5,13.4,1,18.8l31.3,3.2c1.7-7.9,4.8-14.9,9.2-21c4.4-6.1,9.1-12,14.2-17.7l1.1,0.4c-0.4,2.9-0.6,5.8-0.7,8.7
					c-0.1,2.9-0.2,5.6-0.2,8.3c0,6.6,2.2,13.6,2.8,19c0,0-0.5,8.3,0.4,11c-2.1,0.3-4.2,0.6-6.2,1c-2,0.4-4.2,1.2-6.6,2.2
					c-2.3,1-4.8,2.4-7.5,4.2c-2.7,1.8-5.6,4.1-8.8,6.9c-10.4-3.2-20.6-5.6-30.7-7.2c-10.1-1.6-19.3-2.4-27.4-2.4
					c-4,0-7.6,0.6-10.9,1.9L685.2,1259.9z"/>
				<path class="st83" d="M855.8,1119c-2.6,1.8-4.8,4.2-6.6,7.1c-1.8,3-3.2,6.2-4.3,9.7c-1.1,3.5-1.8,7.1-2.3,10.9
					c-0.5,3.8-0.7,7.3-0.7,10.8c0,2.4,0.1,5,0.3,7.7c0.2,2.7,0.5,5.5,0.9,8.4c0.4,2.9,3.5,3.5,4.2,6.2c0.7,2.7-1,7.4,0,9.7
					c-2,3.4-3.3,7.6-4,12.4c-0.7,4.8-1,9.7-1,14.5c0,8.1,1,15.9,3,23.2c1.4,5,9,6.8,12.4,11.7v9.7c-6.7-0.9-12.5-1.5-17.5-1.8
					c-5-0.3-9.5-0.5-13.6-0.5c-5.6,0-10.4,0.2-14.4,0.6c-4.1,0.4-8.1,0.9-12.2,1.5v-9.7c2.2-2.7,11.4-2.6,13-5.9
					c1.6-3.3,2.9-6.8,3.8-10.5c0.9-3.7,1.4-7.3,1.4-10.9c0-6.5-0.7-12.8-2.2-19c-1.5-6.2-3.8-11.3-7-15.3c0.6-1.1-0.5-8.6,0-9.7
					c0,0,5.9-3.8,6.9-8.4c1.1-5.5,1.7-11.1,1.7-17c0-3.6-0.2-7.4-0.6-11.4c-4.8-2-8.1-5.2-9.8-9.6c-1.7-4.4-2.8-9.2-3.3-14.6v-9.7
					c3.5,0.5,18.3,13,21.5,13c5.7,0,10.9-0.3,15.7-1.1c3.3-0.5,11.6-11.3,15-11.7C855.8,1109.3,854.1,1119.2,855.8,1119z"/>
				<path class="st83" d="M986.5,1252.5c-5.2,3.8-9.2,8.4-12.1,13.8c-2.9,5.4-5.2,10.8-6.9,16.1c-0.6-2.5-1.5-5.3-2.7-8.2
					c-1.2-2.9-2.6-5.8-4.3-8.5c-1.7-2.7-3.7-5.3-6-7.6c-2.3-2.4-4.8-4.2-7.5-5.6c0,0-0.6-7.9,0-9.7c0.6-1.8,3.5,0.8,3.8-2.6
					c0.3-3.4,0.5-7.7,0.6-12.9c0.1-5.2,0.3-11.8,0.6-19.6c-0.5-0.3-2.1-1.5-4.9-3.6c-2.8-2.2-5.8-4.6-9-7.2
					c-4.3,2.7-8.5,5.3-12.7,7.8c-4.1,2.5-7.9,4.9-11.4,7.1c0.5,9.5,1.2,18.5,2.1,27c0.6,5.9,2.8,8.3,3.8,13.4v9.7
					c-3.2-1.7-6.1-2.8-8.6-3.4c-2.5-0.6-5-1-7.3-1c-2.1,0-4.2,0.2-6.2,0.6c-2,0.4-4.1,0.8-6.3,1.2c-2.2,0.4-4.4,0.9-6.8,1.2
					c-2.3,0.4-4.9,0.6-7.8,0.6c-0.6,0-1.3,0-2,0c-0.7,0-1.4-0.1-2-0.2v-9.7c2.2-2.7,11.4-2.6,13-5.9c1.6-3.3,2.9-6.8,3.8-10.5
					c0.9-3.7,1.4-7.3,1.4-10.9c0-6.5-0.7-12.8-2.2-19c-1.5-6.2-3.8-11.3-7-15.3c0.7-1.3-0.6-8.4,0-9.7c2.4-5.2,6-4.3,7-9.1
					c1.2-5.9,1.9-11.8,1.9-17.6c0-3.4-0.2-7.2-0.6-11.2c-5.2-0.8-9.2-2.8-11.9-6c-2.8-3.2-4.2-8.3-4.2-15.2c0,0-0.2-9.8,0-9.7
					c4.9,1.1,9.6,11.7,12.8,12.1c3.3,0.4,6.7,0.7,10.2,0.7c2,0,4.1-0.1,6.5-0.3c2.3-0.2,4.8-0.7,7.5-1.4c2.7-0.8,5.5-1.9,8.6-3.5
					c3.1-1.6,6.4-3.8,9.8-6.6c1.4,1.1,4.1,2.6,8.1,4.4c4.1,1.8,8.8,3.5,14.3,5.1c5.4,1.7,11.2,3.1,17.3,4.2
					c6.1,1.1,21.9-8.8,27.3-8.8c0,0-1.6,9.9,0,9.7c0,0-1.7,0.3,0,0c-1.4,2.9-4,5.9-8,9.1c-4,3.1-8.3,5.6-13.1,7.5
					c-0.4,1.8-0.6,3.7-0.6,5.7c0,2,0.1,4.2,0.3,6.5c0.2,2.3,0.4,4.6,0.7,6.9c0.3,2.3,0.7,4.4,1.2,6.5c0.5,2,1,3.8,1.7,5.1
					c-1.2,0.4-3.4,1.4-6.4,3c-3,1.6-6.6,3.7-10.8,6.2c2.8,2.7,16.1,3.4,19.4,6.3v9.7c-0.6,1.4-1.1,3.8-1.4,7.2
					c-0.3,3.4-0.5,7.4-0.5,11.8c0,3.3,0.1,6.6,0.4,10c0.2,3.4,0.7,6.6,1.3,9.7c0.6,3.1,5.9,4.9,5.9,4.9V1252.5z M948.7,1141.9
					c-6.7-1-12.8-1.9-18.5-2.7c-5.7-0.8-11.3-1.8-16.9-3.2c-0.3,3.2-0.4,6.6-0.4,10.3c0,3.7,0,7.4,0,11.2v14.9v15.1
					c3.9-2.4,8-4.9,12.2-7.3c4.2-2.5,8.1-4.8,11.7-6.9c3.6-2.1,6.5-3.9,8.9-5.3c2.3-1.5,3.6-2.3,3.9-2.6L948.7,1141.9z"/>
				<path class="st83" d="M1004.5,1259.9c1.9-1.1,0.2-9.2,0.2-9.2c1.4-3.2,7.4-4.1,8.4-8.2c1-4.1,1.8-8.3,2.3-12.7
					c0.5-4.4,0.7-8.4,0.7-12.1c0-5.7-0.6-11.2-1.8-16.4c-1.2-5.2-2.8-9.2-4.9-11.8c-0.1,0.7,0-9.7,0-9.7c2.8-1,7.2-5.4,8-9.2
					c0.7-3.9,1.2-7.8,1.5-11.9c0.2-4.1,0.4-7.9,0.4-11.4c0-2.9-0.1-5.5-0.2-7.6c-0.1-2.2-0.3-3.8-0.4-5c-2.8-1-5.8-3.1-8.8-6.3
					c-3-3.2-5.3-6.6-6.8-10.3v-9.7c6.4,0.6,16.7,11.3,22.5,11.5c7.1,0.3,13.8,0.5,20.1,0.5c13.5,0,24.3-0.4,32.6-1.3
					c8.3-0.9,14.8-1.3,19.6-1.3c1,0,3.9-9.4,4.6-9.3c0.7,0.1,0,9.7,0,9.7c-0.7,1.5-1.5,4.4-2.3,8.6c-0.8,4.2-1.6,8.8-2.3,13.7
					c-0.7,5-1.4,9.8-1.9,14.5c-0.6,4.7-1,8.3-1.2,10.7l-1.3,0.6c-4.3-3.3-7.4-7-9.4-11c-1.9-4-3.4-8.9-4.3-14.8
					c-1.7-1.4-3.9-2.3-6.5-2.7c-2.6-0.4-5.9-0.6-9.8-0.6c-3.2,0-6.3,0.1-9.3,0.2c-3,0.1-5.3,0.2-7,0.2c-0.6,3.7-1.1,7.9-1.6,12.8
					c-0.4,4.8-0.8,10-1.1,15.4c-0.3,5.5-0.6,11.2-0.7,17.1c-0.2,5.9-0.3,11.8-0.3,17.6c0,8,0.1,15.6,0.3,22.8
					c0.2,7.2,0.5,13.4,1,18.8l31.3,3.2c1.7-7.9,4.8-14.9,9.2-21c4.4-6.1,9.1-12,14.2-17.7l1.1,0.4c-0.4,2.9-0.6,5.8-0.7,8.7
					c-0.1,2.9-0.2,5.6-0.2,8.3c0,6.6,0.6,16.5,3.1,20.2c0.6,5.3,0,9.7,0,9.7c-2.1,0.3-4.2,0.6-6.2,1c-2,0.4-4.2,1.2-6.6,2.2
					c-2.3,1-4.8,2.4-7.5,4.2c-2.7,1.8-5.6,4.1-8.8,6.9c-10.4-3.2-20.6-5.6-30.7-7.2c-10.1-1.6-19.3-2.4-27.4-2.4
					c-4,0-7.6,0.6-10.9,1.9L1004.5,1259.9z"/>
				<path class="st83" d="M1219.3,1157.9c0,4.2,0.3,8.4,0.9,12.5c0.6,4.1,1.4,7.9,2.3,11.2c0.9,3.4,1.9,6.2,3.1,8.5
					c1.1,2.3,2.2,3.8,3.1,4.4c-2.2,2.3-4,4.9-5.5,7.9c-1.4,3-2.5,6.1-3.3,9.4c-0.8,3.3-1.3,6.7-1.6,10.2c-0.3,3.5-0.4,6.9-0.4,10.2
					c0,1.9,0,3.6,0.1,5.1c0.1,1.5,0.2,2.7,0.3,3.7c2.1,0.5,4.1,1.3,6.1,2.3c2,1,3.8,2.5,5.5,4.4c1.7,1.9,5.4,5.3,6.6,8.2
					c1.2,2.9-0.4,5.5,0,9.7c-7.4-2.3-13.9-3.9-19.4-4.8c-5.6-0.9-10.7-1.3-15.4-1.3c-12.7,0-23.2,1.1-31.5,3.3
					c-8.3,2.2-14,4.3-17,6.2c-1.7-3.8-5-8-9.8-12.5c-4.8-4.5-10.2-9.3-16.1-14.4c0.2-1.8,0.4-3.9,0.6-6.4c0.1-2.5,0.2-4.6,0.2-6.4
					c0-4.3-0.1-8.5-0.4-12.5c-0.2-4-0.6-7.6-1.2-10.9c-0.6-3.2-1.2-6-1.9-8.2c-0.7-2.2-1.6-3.7-2.6-4.5c3.3-4.4,5.7-9.8,7.2-16.1
					c1.5-6.3,2.2-13.1,2.2-20.3c0-6.6-0.8-12.9-2.3-18.9c-1.5-6-4.2-11.7-7.9-17.2v-9.7c3.9,0.7,21.5,13.5,24.3,15.4
					c2.7,1.9,5,4.7,6.8,8.5c1.8,3.8,3.3,8.9,4.5,15.3c0,13.9-0.5,27.2-1.5,40c-1,12.8-1.7,26-2.2,39.5l14.1,17.7
					c3-1.9,6.6-3.6,10.8-5c4.3-1.4,9-2.2,14.4-2.5c1.1-3.2,1.9-7.8,2.3-13.9c0.4-6.1,0.7-13.1,0.7-21c0.1-7.9,0.1-16.4,0.1-25.5
					c0-9.2,0.1-18.5,0.2-28c-0.4-9.3,1.2-18.5,0.4-28.9c7.2,2.4,12.2,3,19.4,3c3.2,0,18.8-12.8,22.4-13.3v9.7
					c-0.4,3.9-1.1,7.4-2.3,10.3c-1.2,2.9-2.6,5.4-4.3,7.3c-1.7,2-3.5,3.5-5.6,4.7c-2,1.1-4,1.9-6,2.3c-0.1,1-0.2,2.4-0.3,4
					C1219.3,1152.5,1219.3,1154.9,1219.3,1157.9z"/>
				<path class="st83" d="M1289.8,1133.9c-2,3.8-3.4,7.8-4.3,12.1c-0.9,4.3-1.3,8.6-1.3,13.1c0,3.7,0.2,7.4,0.7,11.1s1.2,7.4,2,11.1
					c3-0.9,6.1-1.6,9.3-2.3c3.3-0.6,6.9-1.1,10.9-1.5c4-0.4,8.5-0.7,13.6-1c5.1-0.3,10.9-0.5,17.4-0.8c-0.4,5.1-0.7,10.9-1.1,17.5
					c-0.4,6.6-0.6,13.6-0.6,21c0,7,0.3,24.9,4.1,31.7v9.7c-6.4,0-12.6,1-18.5,3.1c-5.9,2-10.7,4.9-14.4,8.6
					c-2.6-1.7-5.5-3.3-8.8-5.1c-3.3-1.7-7.2-3.3-11.8-4.7c-4.6-1.4-9.9-2.6-16-3.7c-6.1-1.1-13.3-1.8-21.6-2.2c0,0-1.7-6,0-9.7
					c1.7-3.7,9.3-8.8,9.3-13c0-1.4-0.1-2.7-0.2-4c-0.1-1.3,2.1-2.4,1.7-3.8c1.7,0,1.7,0.6,4.7,2c3.1,1.5,6.7,3.3,10.9,5.6
					c4.2,2.3,8.9,4.9,14.2,7.9c5.2,3,11,6,17.1,9.1c1.1-3.2,2-7.5,2.7-12.9c0.7-5.4,1-11,1-16.7c0-5-0.3-9.5-0.9-13.7
					c-0.6-4.2-1.6-7.2-3-9c-3.3,0.3-7,0.6-11.1,1.1c-4.1,0.5-8.3,1.1-12.6,1.9c-4.3,0.8-8.6,1.6-13,2.5c-4.3,0.9-8.5,1.8-12.4,2.9
					v-9.7c0.6-6.1,3-19.8,3-26.3c0-7.2-0.7-14.2-2-21c-1.4-6.7-4-12.8-8-18.1v-9.7c2.2,0.4,10.1,11.1,13.3,11.1c7,0,13-1.3,18-3.8
					c4.9-2.5,9.1-6.9,12.6-13c1.9,1.3,4.1,2.6,6.8,4c2.7,1.4,5.6,2.7,8.7,3.8c3.1,1.1,6.5,2.1,10.1,2.8c3.6,0.7,7.3,1,11.1,1
					c2.5,0,11.7-11.6,14.1-12c2.3-0.4,0,9.7,0,9.7c-2.5,6.7-5.8,12.4-10,17c-4.2,4.6-8.8,6.9-13.9,6.9c-1.7,0-4-0.3-6.8-0.9
					c-2.8-0.6-5.7-1.3-8.7-2.3c-3-1-6-2.1-9-3.3C1294.4,1136.6,1291.9,1135.3,1289.8,1133.9z"/>
			</g>
			<g>
				
					<radialGradient id="SVGID_77_" cx="1071.1426" cy="1232.9012" r="501.2091" gradientTransform="matrix(1.0464 0 0 1.0775 -82.0004 -154.9793)" gradientUnits="userSpaceOnUse">
					<stop  offset="0" style="stop-color:#FFCC1B"/>
					<stop  offset="1" style="stop-color:#FF9D31"/>
				</radialGradient>
				<path class="st84" d="M685.2,1250.2c1.9-1.1,3.5-3.3,4.9-6.5c1.4-3.2,2.7-6.8,3.7-10.9c1-4.1,1.8-8.3,2.3-12.7
					c0.5-4.4,0.7-8.4,0.7-12.1c0-5.7-0.6-11.2-1.8-16.4c-1.2-5.2-2.8-9.2-4.9-11.8c2-2,3.6-4.7,4.9-8.1c1.3-3.4,2.3-7,3.1-10.9
					c0.7-3.9,1.2-7.8,1.5-11.9c0.2-4.1,0.4-7.9,0.4-11.4c0-2.9-0.1-5.5-0.2-7.6c-0.1-2.2-0.3-3.8-0.4-5c-2.8-1-5.8-3.1-8.8-6.3
					c-3-3.2-5.3-6.6-6.8-10.3c7.9,0.9,15.4,1.5,22.5,1.8c7.1,0.3,13.8,0.5,20.1,0.5c13.5,0,24.3-0.4,32.6-1.3
					c8.3-0.9,14.8-1.3,19.6-1.3c1,0,1.8,0,2.6,0.1c0.7,0.1,1.4,0.2,2,0.3c-0.7,1.5-1.5,4.4-2.3,8.6c-0.8,4.2-1.6,8.8-2.3,13.7
					c-0.7,5-1.4,9.8-1.9,14.5c-0.6,4.7-1,8.3-1.2,10.7l-1.3,0.6c-4.3-3.3-7.4-7-9.4-11c-1.9-4-3.4-8.9-4.3-14.8
					c-1.7-1.4-3.9-2.3-6.5-2.7c-2.6-0.4-5.9-0.6-9.8-0.6c-3.2,0-6.3,0.1-9.3,0.2c-3,0.1-5.3,0.2-7,0.2c-0.6,3.7-1.1,7.9-1.6,12.8
					c-0.4,4.8-0.8,10-1.1,15.4c-0.3,5.5-0.6,11.2-0.7,17.1c-0.2,5.9-0.3,11.8-0.3,17.6c0,8,0.1,15.6,0.3,22.8
					c0.2,7.2,0.5,13.4,1,18.8l31.3,3.2c1.7-7.9,4.8-14.9,9.2-21c4.4-6.1,9.1-12,14.2-17.7l1.1,0.4c-0.4,2.9-0.6,5.8-0.7,8.7
					c-0.1,2.9-0.2,5.6-0.2,8.3c0,6.6,0.3,12.6,0.9,17.9c0.6,5.3,1.4,9.3,2.2,12c-2.1,0.3-4.2,0.6-6.2,1c-2,0.4-4.2,1.2-6.6,2.2
					c-2.3,1-4.8,2.4-7.5,4.2c-2.7,1.8-5.6,4.1-8.8,6.9c-10.4-3.2-20.6-5.6-30.7-7.2c-10.1-1.6-19.3-2.4-27.4-2.4
					c-4,0-7.6,0.6-10.9,1.9L685.2,1250.2z"/>
				
					<radialGradient id="SVGID_78_" cx="1071.1466" cy="1232.9011" r="501.2161" gradientTransform="matrix(1.0464 0 0 1.0775 -82.0004 -154.9793)" gradientUnits="userSpaceOnUse">
					<stop  offset="0" style="stop-color:#FFCC1B"/>
					<stop  offset="1" style="stop-color:#FF9D31"/>
				</radialGradient>
				<path class="st85" d="M855.8,1109.3c-2.6,1.8-4.8,4.2-6.6,7.1c-1.8,3-3.2,6.2-4.3,9.7c-1.1,3.5-1.8,7.1-2.3,10.9
					c-0.5,3.8-0.7,7.3-0.7,10.8c0,2.4,0.1,5,0.3,7.7c0.2,2.7,0.5,5.5,0.9,8.4c0.4,2.9,1,5.7,1.7,8.4c0.7,2.7,1.5,5.2,2.5,7.5
					c-2,3.4-3.3,7.6-4,12.4c-0.7,4.8-1,9.7-1,14.5c0,8.1,1,15.9,3,23.2c2,7.3,6.1,14.5,12.4,21.4c-6.7-0.9-12.5-1.5-17.5-1.8
					c-5-0.3-9.5-0.5-13.6-0.5c-5.6,0-10.4,0.2-14.4,0.6c-4.1,0.4-8.1,0.9-12.2,1.5c2.6-1.6,5-3.8,7.2-6.6c2.2-2.7,4.1-5.7,5.7-9.1
					c1.6-3.3,2.9-6.8,3.8-10.5c0.9-3.7,1.4-7.3,1.4-10.9c0-6.5-0.7-12.8-2.2-19c-1.5-6.2-3.8-11.3-7-15.3c3.5-6.6,5.7-12.6,6.9-18.1
					c1.1-5.5,1.7-11.1,1.7-17c0-3.6-0.2-7.4-0.6-11.4c-4.8-2-8.1-5.2-9.8-9.6c-1.7-4.4-2.8-9.2-3.3-14.6c4.1,1.1,7.9,2,11.4,2.5
					c3.5,0.5,6.9,0.8,10.1,0.8c5.7,0,10.9-0.3,15.7-1.1C845.6,1110.6,850.6,1110,855.8,1109.3z"/>
				
					<radialGradient id="SVGID_79_" cx="1071.1443" cy="1232.9014" r="501.2095" gradientTransform="matrix(1.0464 0 0 1.0775 -82.0004 -154.9793)" gradientUnits="userSpaceOnUse">
					<stop  offset="0" style="stop-color:#FFCC1B"/>
					<stop  offset="1" style="stop-color:#FF9D31"/>
				</radialGradient>
				<path class="st86" d="M986.5,1242.8c-5.2,3.8-9.2,8.4-12.1,13.8c-2.9,5.4-5.2,10.8-6.9,16.1c-0.6-2.5-1.5-5.3-2.7-8.2
					c-1.2-2.9-2.6-5.8-4.3-8.5c-1.7-2.7-3.7-5.3-6-7.6c-2.3-2.3-4.8-4.2-7.5-5.6c1.1-1.1,1.9-2.6,2.5-4.5c0.6-1.8,1-4.4,1.3-7.8
					c0.3-3.4,0.5-7.7,0.6-12.9c0.1-5.2,0.3-11.8,0.6-19.6c-0.5-0.3-2.1-1.5-4.9-3.6c-2.8-2.2-5.8-4.6-9-7.2
					c-4.3,2.7-8.5,5.3-12.7,7.8c-4.1,2.5-7.9,4.9-11.4,7.1c0.5,9.5,1.2,18.5,2.1,27c0.9,8.5,2.2,16.2,3.8,23.2
					c-3.2-1.7-6.1-2.8-8.6-3.4c-2.5-0.6-5-1-7.3-1c-2.1,0-4.2,0.2-6.2,0.6c-2,0.4-4.1,0.8-6.3,1.2c-2.2,0.4-4.4,0.9-6.8,1.2
					c-2.3,0.4-4.9,0.6-7.8,0.6c-0.6,0-1.3,0-2,0c-0.7,0-1.4-0.1-2-0.2c2.6-1.6,5-3.8,7.2-6.6c2.2-2.7,4.1-5.7,5.7-9.1
					c1.6-3.3,2.9-6.8,3.8-10.5c0.9-3.7,1.4-7.3,1.4-10.9c0-6.5-0.7-12.8-2.2-19c-1.5-6.2-3.8-11.3-7-15.3c3.5-6.6,5.8-12.9,7-18.8
					c1.2-5.9,1.9-11.8,1.9-17.6c0-3.4-0.2-7.2-0.6-11.2c-5.2-0.8-9.2-2.8-11.9-6c-2.8-3.2-4.2-8.3-4.2-15.2
					c5.2,1.1,9.4,1.9,12.8,2.4c3.3,0.4,6.7,0.7,10.2,0.7c2,0,4.1-0.1,6.5-0.3c2.3-0.2,4.8-0.7,7.5-1.4c2.7-0.8,5.5-1.9,8.6-3.5
					c3.1-1.6,6.4-3.8,9.8-6.6c1.4,1.1,4.1,2.6,8.1,4.4c4.1,1.8,8.8,3.5,14.3,5.1c5.4,1.7,11.2,3,17.3,4.2c6.1,1.1,11.9,1.7,17.3,1.7
					c1.7,0,3.4-0.1,5-0.2c1.6-0.1,3.3-0.3,5-0.6c-1.4,2.9-4,5.9-8,9.1c-4,3.1-8.3,5.6-13.1,7.5c-0.4,1.8-0.6,3.7-0.6,5.7
					c0,2,0.1,4.2,0.3,6.5c0.2,2.3,0.4,4.6,0.7,6.9c0.3,2.3,0.7,4.4,1.2,6.5c0.5,2,1,3.7,1.7,5.1c-1.2,0.4-3.4,1.4-6.4,3
					c-3,1.6-6.6,3.7-10.8,6.2c2.8,2.7,5.9,5.5,9.3,8.4c3.3,2.9,6.7,5.5,10.2,7.6c-0.6,1.4-1.1,3.8-1.4,7.2
					c-0.3,3.4-0.5,7.4-0.5,11.8c0,3.3,0.1,6.6,0.4,10c0.2,3.4,0.7,6.6,1.3,9.7c0.6,3.1,1.4,5.9,2.3,8.5
					C983.8,1239.2,985,1241.3,986.5,1242.8z M948.7,1132.2c-6.7-1-12.8-1.9-18.5-2.7c-5.7-0.8-11.3-1.8-16.9-3.2
					c-0.3,3.2-0.4,6.6-0.4,10.3c0,3.7,0,7.4,0,11.2v14.9v15.1c3.9-2.4,8-4.9,12.2-7.3c4.2-2.5,8.1-4.8,11.7-6.9
					c3.6-2.1,6.5-3.9,8.9-5.3c2.3-1.5,3.6-2.3,3.9-2.6L948.7,1132.2z"/>
				
					<radialGradient id="SVGID_80_" cx="1071.1443" cy="1232.9012" r="501.2102" gradientTransform="matrix(1.0464 0 0 1.0775 -82.0004 -154.9793)" gradientUnits="userSpaceOnUse">
					<stop  offset="0" style="stop-color:#FFCC1B"/>
					<stop  offset="1" style="stop-color:#FF9D31"/>
				</radialGradient>
				<path class="st87" d="M1004.5,1250.2c1.9-1.1,3.5-3.3,4.9-6.5c1.4-3.2,2.7-6.8,3.7-10.9c1-4.1,1.8-8.3,2.3-12.7
					c0.5-4.4,0.7-8.4,0.7-12.1c0-5.7-0.6-11.2-1.8-16.4c-1.2-5.2-2.8-9.2-4.9-11.8c2-2,3.6-4.7,4.9-8.1c1.3-3.4,2.3-7,3.1-10.9
					c0.7-3.9,1.2-7.8,1.5-11.9c0.2-4.1,0.4-7.9,0.4-11.4c0-2.9-0.1-5.5-0.2-7.6c-0.1-2.2-0.3-3.8-0.4-5c-2.8-1-5.8-3.1-8.8-6.3
					c-3-3.2-5.3-6.6-6.8-10.3c7.9,0.9,15.4,1.5,22.5,1.8c7.1,0.3,13.8,0.5,20.1,0.5c13.5,0,24.3-0.4,32.6-1.3
					c8.3-0.9,14.8-1.3,19.6-1.3c1,0,1.9,0,2.6,0.1c0.7,0.1,1.4,0.2,2,0.3c-0.7,1.5-1.5,4.4-2.3,8.6c-0.8,4.2-1.6,8.8-2.3,13.7
					c-0.7,5-1.4,9.8-1.9,14.5c-0.6,4.7-1,8.3-1.2,10.7l-1.3,0.6c-4.3-3.3-7.4-7-9.4-11c-1.9-4-3.4-8.9-4.3-14.8
					c-1.7-1.4-3.9-2.3-6.5-2.7c-2.6-0.4-5.9-0.6-9.8-0.6c-3.2,0-6.3,0.1-9.3,0.2c-3,0.1-5.3,0.2-7,0.2c-0.6,3.7-1.1,7.9-1.6,12.8
					c-0.4,4.8-0.8,10-1.1,15.4c-0.3,5.5-0.6,11.2-0.7,17.1c-0.2,5.9-0.3,11.8-0.3,17.6c0,8,0.1,15.6,0.3,22.8
					c0.2,7.2,0.5,13.4,1,18.8l31.3,3.2c1.7-7.9,4.8-14.9,9.2-21c4.4-6.1,9.1-12,14.2-17.7l1.1,0.4c-0.4,2.9-0.6,5.8-0.7,8.7
					c-0.1,2.9-0.2,5.6-0.2,8.3c0,6.6,0.3,12.6,0.9,17.9c0.6,5.3,1.4,9.3,2.2,12c-2.1,0.3-4.2,0.6-6.2,1c-2,0.4-4.2,1.2-6.6,2.2
					c-2.3,1-4.8,2.4-7.5,4.2c-2.7,1.8-5.6,4.1-8.8,6.9c-10.4-3.2-20.6-5.6-30.7-7.2c-10.1-1.6-19.3-2.4-27.4-2.4
					c-4,0-7.6,0.6-10.9,1.9L1004.5,1250.2z"/>
				
					<radialGradient id="SVGID_81_" cx="1071.1455" cy="1232.9012" r="501.2092" gradientTransform="matrix(1.0464 0 0 1.0775 -82.0004 -154.9793)" gradientUnits="userSpaceOnUse">
					<stop  offset="0" style="stop-color:#FFCC1B"/>
					<stop  offset="1" style="stop-color:#FF9D31"/>
				</radialGradient>
				<path class="st88" d="M1219.3,1148.2c0,4.2,0.3,8.4,0.9,12.5c0.6,4.1,1.4,7.9,2.3,11.2c0.9,3.4,1.9,6.2,3.1,8.5
					c1.1,2.3,2.2,3.8,3.1,4.4c-2.2,2.3-4,4.9-5.5,7.9c-1.4,3-2.5,6.1-3.3,9.4c-0.8,3.3-1.3,6.7-1.6,10.2c-0.3,3.5-0.4,6.9-0.4,10.2
					c0,1.9,0,3.6,0.1,5.1c0.1,1.5,0.2,2.7,0.3,3.7c2.1,0.5,4.1,1.3,6.1,2.3c2,1,3.8,2.5,5.5,4.4c1.7,1.9,3.1,4.3,4.3,7.2
					c1.2,2.9,1.9,6.5,2.3,10.7c-7.4-2.3-13.9-3.9-19.4-4.8c-5.6-0.9-10.7-1.3-15.4-1.3c-12.7,0-23.2,1.1-31.5,3.3
					c-8.3,2.2-14,4.3-17,6.2c-1.7-3.8-5-8-9.8-12.5c-4.8-4.5-10.2-9.3-16.1-14.4c0.2-1.8,0.4-3.9,0.6-6.4c0.1-2.5,0.2-4.6,0.2-6.4
					c0-4.3-0.1-8.5-0.4-12.5c-0.2-4-0.6-7.6-1.2-10.9c-0.6-3.2-1.2-6-1.9-8.2c-0.7-2.2-1.6-3.7-2.6-4.5c3.3-4.4,5.7-9.8,7.2-16.1
					c1.5-6.3,2.2-13.1,2.2-20.3c0-6.6-0.8-12.9-2.3-18.9c-1.5-6-4.2-11.7-7.9-17.2c5.6,0.5,10.3,1.1,14.3,1.8c3.9,0.7,7.3,2,10,3.9
					c2.7,1.9,5,4.7,6.8,8.5c1.8,3.8,3.3,8.9,4.5,15.3c0,13.9-0.5,27.2-1.5,40s-1.7,26-2.2,39.5l14.1,17.7c3-1.9,6.6-3.6,10.8-5
					c4.3-1.4,9-2.2,14.4-2.5c1.1-3.2,1.9-7.8,2.3-13.9c0.4-6.1,0.7-13.1,0.7-21c0.1-7.9,0.1-16.4,0.1-25.5s0.1-18.5,0.2-28
					c-0.4-9.3-0.9-19.1-1.7-29.6c7.2,2.4,14.3,3.6,21.5,3.6c3.2,0,6.6-0.3,10.2-0.9c3.6-0.6,7.7-1.5,12.2-2.8
					c-0.4,3.9-1.1,7.4-2.3,10.3c-1.2,2.9-2.6,5.4-4.3,7.3c-1.7,2-3.5,3.5-5.6,4.7c-2,1.1-4,1.9-6,2.3c-0.1,1-0.2,2.4-0.3,4
					C1219.3,1142.8,1219.3,1145.2,1219.3,1148.2z"/>
				
					<radialGradient id="SVGID_82_" cx="1071.1449" cy="1232.9016" r="501.21" gradientTransform="matrix(1.0464 0 0 1.0775 -82.0004 -154.9793)" gradientUnits="userSpaceOnUse">
					<stop  offset="0" style="stop-color:#FFCC1B"/>
					<stop  offset="1" style="stop-color:#FF9D31"/>
				</radialGradient>
				<path class="st89" d="M1289.8,1124.2c-2,3.8-3.4,7.8-4.3,12.1c-0.9,4.3-1.3,8.6-1.3,13.1c0,3.7,0.2,7.4,0.7,11.1
					c0.5,3.7,1.2,7.4,2,11.1c3-0.9,6.1-1.6,9.3-2.3c3.3-0.6,6.9-1.1,10.9-1.5c4-0.4,8.5-0.7,13.6-1c5.1-0.3,10.9-0.5,17.4-0.8
					c-0.4,5.1-0.7,10.9-1.1,17.5c-0.4,6.6-0.6,13.6-0.6,21c0,7,0.3,14,0.8,21.1c0.6,7.1,1.6,13.8,3.2,20.3c-6.4,0-12.6,1-18.5,3.1
					c-5.9,2-10.7,4.9-14.4,8.6c-2.6-1.7-5.5-3.3-8.8-5.1c-3.3-1.7-7.2-3.3-11.8-4.7c-4.6-1.4-9.9-2.6-16-3.7
					c-6.1-1.1-13.3-1.8-21.6-2.2c2.8-3.4,5.1-7,6.8-10.8c1.7-3.7,2.5-7.7,2.5-11.9c0-1.4-0.1-2.7-0.2-4c-0.1-1.3-0.4-2.6-0.7-4
					c1.7,0,4.1,0.7,7.2,2.2c3.1,1.5,6.7,3.3,10.9,5.6c4.2,2.3,8.9,4.9,14.2,7.9c5.2,3,11,6,17.1,9.1c1.1-3.2,2-7.5,2.7-12.9
					c0.7-5.4,1-11,1-16.7c0-5-0.3-9.5-0.9-13.7c-0.6-4.2-1.6-7.2-3-9c-3.3,0.3-7,0.6-11.1,1.1c-4.1,0.5-8.3,1.1-12.6,1.9
					c-4.3,0.8-8.6,1.6-13,2.5c-4.3,0.9-8.5,1.8-12.4,2.9c0.7-5.3,1.4-11.1,2-17.2c0.6-6.1,0.9-12.4,0.9-18.9c0-7.2-0.7-14.2-2-21
					c-1.4-6.7-4-12.8-8-18.1c1.2,0.1,3,0.4,5.2,0.8c2.2,0.4,4.9,0.6,8.1,0.6c7,0,13-1.3,18-3.8c4.9-2.5,9.1-6.9,12.6-13
					c1.9,1.3,4.1,2.6,6.8,4c2.7,1.4,5.6,2.7,8.7,3.8c3.1,1.1,6.5,2.1,10.1,2.8c3.6,0.7,7.3,1,11.1,1c2.5,0,4.9-0.2,7.2-0.7
					c2.3-0.4,4.6-1,6.9-1.6c-2.5,6.7-5.8,12.4-10,17c-4.2,4.6-8.8,6.9-13.9,6.9c-1.7,0-4-0.3-6.8-0.9c-2.8-0.6-5.7-1.3-8.7-2.3
					c-3-1-6-2.1-9-3.3C1294.4,1126.9,1291.9,1125.6,1289.8,1124.2z"/>
			</g>
			<g>
				
					<radialGradient id="SVGID_83_" cx="760.1843" cy="1193.5817" r="12.5377" gradientTransform="matrix(1.0464 0 0 1.0775 -82.0004 -154.9793)" gradientUnits="userSpaceOnUse">
					<stop  offset="0" style="stop-color:#FFCC1B"/>
					<stop  offset="1" style="stop-color:#FF7E31"/>
				</radialGradient>
				<path class="st90" d="M722.2,1126.3c0,4.7-3.7,8.5-8.3,8.5c-4.6,0-8.3-3.8-8.3-8.5c0-4.7,3.7-8.5,8.3-8.5
					C718.5,1117.7,722.2,1121.5,722.2,1126.3z"/>
				<path class="st23" d="M719.8,1126.3c0,3.3-2.6,6-5.9,6c-3.2,0-5.9-2.7-5.9-6c0-3.3,2.6-6,5.9-6
					C717.2,1120.2,719.8,1122.9,719.8,1126.3z"/>
			</g>
			<g>
				
					<radialGradient id="SVGID_84_" cx="757.8644" cy="1241.3871" r="12.5375" gradientTransform="matrix(1.0464 0 0 1.0775 -82.0004 -154.9793)" gradientUnits="userSpaceOnUse">
					<stop  offset="0" style="stop-color:#FFCC1B"/>
					<stop  offset="1" style="stop-color:#FF7E31"/>
				</radialGradient>
				<path class="st91" d="M719.8,1177.8c0,4.7-3.7,8.5-8.3,8.5c-4.6,0-8.3-3.8-8.3-8.5c0-4.7,3.7-8.5,8.3-8.5
					C716.1,1169.2,719.8,1173,719.8,1177.8z"/>
				<path class="st23" d="M717.4,1177.8c0,3.3-2.6,6-5.9,6c-3.2,0-5.9-2.7-5.9-6c0-3.3,2.6-6,5.9-6
					C714.8,1171.7,717.4,1174.4,717.4,1177.8z"/>
			</g>
			<g>
				
					<radialGradient id="SVGID_85_" cx="757.8644" cy="1291.582" r="12.5375" gradientTransform="matrix(1.0464 0 0 1.0775 -82.0004 -154.9793)" gradientUnits="userSpaceOnUse">
					<stop  offset="0" style="stop-color:#FFCC1B"/>
					<stop  offset="1" style="stop-color:#FF7E31"/>
				</radialGradient>
				<path class="st92" d="M719.8,1231.8c0,4.7-3.7,8.5-8.3,8.5c-4.6,0-8.3-3.8-8.3-8.5c0-4.7,3.7-8.5,8.3-8.5
					C716.1,1223.3,719.8,1227.1,719.8,1231.8z"/>
				<path class="st23" d="M717.4,1231.8c0,3.3-2.6,6-5.9,6c-3.2,0-5.9-2.7-5.9-6s2.6-6,5.9-6
					C714.8,1225.8,717.4,1228.5,717.4,1231.8z"/>
			</g>
			<g>
				
					<radialGradient id="SVGID_86_" cx="814.2258" cy="1291.582" r="12.5367" gradientTransform="matrix(1.0464 0 0 1.0775 -82.0004 -154.9793)" gradientUnits="userSpaceOnUse">
					<stop  offset="0" style="stop-color:#FFCC1B"/>
					<stop  offset="1" style="stop-color:#FF7E31"/>
				</radialGradient>
				<ellipse class="st93" cx="770.5" cy="1231.8" rx="8.3" ry="8.5"/>
				<ellipse class="st23" cx="770.5" cy="1231.8" rx="5.9" ry="6"/>
			</g>
			<g>
				
					<radialGradient id="SVGID_87_" cx="814.2258" cy="1193.5817" r="12.5368" gradientTransform="matrix(1.0464 0 0 1.0775 -82.0004 -154.9793)" gradientUnits="userSpaceOnUse">
					<stop  offset="0" style="stop-color:#FFCC1B"/>
					<stop  offset="1" style="stop-color:#FF7E31"/>
				</radialGradient>
				<path class="st94" d="M778.8,1126.3c0,4.7-3.7,8.5-8.3,8.5c-4.6,0-8.3-3.8-8.3-8.5c0-4.7,3.7-8.5,8.3-8.5
					C775.1,1117.7,778.8,1121.5,778.8,1126.3z"/>
				<path class="st23" d="M776.4,1126.3c0,3.3-2.6,6-5.9,6c-3.2,0-5.9-2.7-5.9-6c0-3.3,2.6-6,5.9-6
					C773.7,1120.2,776.4,1122.9,776.4,1126.3z"/>
			</g>
			<g>
				
					<radialGradient id="SVGID_88_" cx="869.8822" cy="1191.2617" r="12.5377" gradientTransform="matrix(1.0464 0 0 1.0775 -82.0004 -154.9793)" gradientUnits="userSpaceOnUse">
					<stop  offset="0" style="stop-color:#FFCC1B"/>
					<stop  offset="1" style="stop-color:#FF7E31"/>
				</radialGradient>
				<path class="st95" d="M837,1123.8c0,4.7-3.7,8.5-8.3,8.5c-4.6,0-8.3-3.8-8.3-8.5c0-4.7,3.7-8.5,8.3-8.5
					C833.3,1115.2,837,1119,837,1123.8z"/>
				<path class="st23" d="M834.6,1123.8c0,3.3-2.6,6-5.9,6c-3.2,0-5.9-2.7-5.9-6c0-3.3,2.6-6,5.9-6
					C832,1117.7,834.6,1120.4,834.6,1123.8z"/>
			</g>
			<g>
				
					<radialGradient id="SVGID_89_" cx="993.3483" cy="1191.2617" r="12.5377" gradientTransform="matrix(1.0464 0 0 1.0775 -82.0004 -154.9793)" gradientUnits="userSpaceOnUse">
					<stop  offset="0" style="stop-color:#FFCC1B"/>
					<stop  offset="1" style="stop-color:#FF7E31"/>
				</radialGradient>
				<path class="st96" d="M966.2,1123.8c0,4.7-3.7,8.5-8.3,8.5c-4.6,0-8.3-3.8-8.3-8.5c0-4.7,3.7-8.5,8.3-8.5
					C962.5,1115.2,966.2,1119,966.2,1123.8z"/>
				<path class="st23" d="M963.8,1123.8c0,3.3-2.6,6-5.9,6c-3.2,0-5.9-2.7-5.9-6c0-3.3,2.6-6,5.9-6
					C961.2,1117.7,963.8,1120.4,963.8,1123.8z"/>
			</g>
			<g>
				
					<radialGradient id="SVGID_90_" cx="1065.5988" cy="1188.8721" r="12.5374" gradientTransform="matrix(1.0464 0 0 1.0775 -82.0004 -154.9793)" gradientUnits="userSpaceOnUse">
					<stop  offset="0" style="stop-color:#FFCC1B"/>
					<stop  offset="1" style="stop-color:#FF7E31"/>
				</radialGradient>
				<path class="st97" d="M1041.8,1121.2c0,4.7-3.7,8.5-8.3,8.5c-4.6,0-8.3-3.8-8.3-8.5c0-4.7,3.7-8.5,8.3-8.5
					C1038.1,1112.6,1041.8,1116.5,1041.8,1121.2z"/>
				<path class="st23" d="M1039.4,1121.2c0,3.3-2.6,6-5.9,6c-3.2,0-5.9-2.7-5.9-6c0-3.3,2.6-6,5.9-6
					C1036.8,1115.1,1039.4,1117.8,1039.4,1121.2z"/>
			</g>
			<g>
				
					<radialGradient id="SVGID_91_" cx="1166.0345" cy="1194.4728" r="12.5375" gradientTransform="matrix(1.0464 0 0 1.0775 -82.0004 -154.9793)" gradientUnits="userSpaceOnUse">
					<stop  offset="0" style="stop-color:#FFCC1B"/>
					<stop  offset="1" style="stop-color:#FF7E31"/>
				</radialGradient>
				<path class="st98" d="M1146.9,1127.2c0,4.7-3.7,8.5-8.3,8.5c-4.6,0-8.3-3.8-8.3-8.5c0-4.7,3.7-8.5,8.3-8.5
					C1143.2,1118.7,1146.9,1122.5,1146.9,1127.2z"/>
				<ellipse class="st23" cx="1138.7" cy="1127.2" rx="5.9" ry="6"/>
			</g>
			<g>
				
					<radialGradient id="SVGID_92_" cx="1117.5187" cy="1188.6558" r="12.5367" gradientTransform="matrix(1.0464 0 0 1.0775 -82.0004 -154.9793)" gradientUnits="userSpaceOnUse">
					<stop  offset="0" style="stop-color:#FFCC1B"/>
					<stop  offset="1" style="stop-color:#FF7E31"/>
				</radialGradient>
				<ellipse class="st99" cx="1087.9" cy="1120.9" rx="8.3" ry="8.5"/>
				<ellipse class="st23" cx="1087.9" cy="1120.9" rx="5.9" ry="6"/>
			</g>
			<g>
				
					<radialGradient id="SVGID_93_" cx="936.5975" cy="1191.2617" r="12.5369" gradientTransform="matrix(1.0464 0 0 1.0775 -82.0004 -154.9793)" gradientUnits="userSpaceOnUse">
					<stop  offset="0" style="stop-color:#FFCC1B"/>
					<stop  offset="1" style="stop-color:#FF7E31"/>
				</radialGradient>
				<path class="st100" d="M906.8,1123.8c0,4.7-3.7,8.5-8.3,8.5c-4.6,0-8.3-3.8-8.3-8.5c0-4.7,3.7-8.5,8.3-8.5
					C903.1,1115.2,906.8,1119,906.8,1123.8z"/>
				<path class="st23" d="M904.4,1123.8c0,3.3-2.6,6-5.9,6c-3.2,0-5.9-2.7-5.9-6c0-3.3,2.6-6,5.9-6
					C901.8,1117.7,904.4,1120.4,904.4,1123.8z"/>
			</g>
			<g>
				
					<radialGradient id="SVGID_94_" cx="936.5975" cy="1243.6866" r="12.5368" gradientTransform="matrix(1.0464 0 0 1.0775 -82.0004 -154.9793)" gradientUnits="userSpaceOnUse">
					<stop  offset="0" style="stop-color:#FFCC1B"/>
					<stop  offset="1" style="stop-color:#FF7E31"/>
				</radialGradient>
				<path class="st101" d="M906.8,1180.2c0,4.7-3.7,8.5-8.3,8.5c-4.6,0-8.3-3.8-8.3-8.5c0-4.7,3.7-8.5,8.3-8.5
					C903.1,1171.7,906.8,1175.5,906.8,1180.2z"/>
				<ellipse class="st23" cx="898.6" cy="1180.2" rx="5.9" ry="6"/>
			</g>
			<g>
				
					<radialGradient id="SVGID_95_" cx="1059.9973" cy="1293.902" r="12.5367" gradientTransform="matrix(1.0464 0 0 1.0775 -82.0004 -154.9793)" gradientUnits="userSpaceOnUse">
					<stop  offset="0" style="stop-color:#FFCC1B"/>
					<stop  offset="1" style="stop-color:#FF7E31"/>
				</radialGradient>
				<ellipse class="st102" cx="1027.7" cy="1234.3" rx="8.3" ry="8.5"/>
				<ellipse class="st23" cx="1027.7" cy="1234.3" rx="5.9" ry="6"/>
			</g>
			<g>
				
					<radialGradient id="SVGID_96_" cx="936.5975" cy="1296.1125" r="12.5368" gradientTransform="matrix(1.0464 0 0 1.0775 -82.0004 -154.9793)" gradientUnits="userSpaceOnUse">
					<stop  offset="0" style="stop-color:#FFCC1B"/>
					<stop  offset="1" style="stop-color:#FF7E31"/>
				</radialGradient>
				<path class="st103" d="M906.8,1236.7c0,4.7-3.7,8.5-8.3,8.5c-4.6,0-8.3-3.8-8.3-8.5c0-4.7,3.7-8.5,8.3-8.5
					C903.1,1228.2,906.8,1232,906.8,1236.7z"/>
				<ellipse class="st23" cx="898.6" cy="1236.7" rx="5.9" ry="6"/>
			</g>
			<g>
				
					<radialGradient id="SVGID_97_" cx="998.9496" cy="1296.1125" r="12.5367" gradientTransform="matrix(1.0464 0 0 1.0775 -82.0004 -154.9793)" gradientUnits="userSpaceOnUse">
					<stop  offset="0" style="stop-color:#FFCC1B"/>
					<stop  offset="1" style="stop-color:#FF7E31"/>
				</radialGradient>
				<ellipse class="st104" cx="963.8" cy="1236.7" rx="8.3" ry="8.5"/>
				<ellipse class="st23" cx="963.8" cy="1236.7" rx="5.9" ry="6"/>
			</g>
			<g>
				
					<radialGradient id="SVGID_98_" cx="1117.5187" cy="1293.902" r="12.5367" gradientTransform="matrix(1.0464 0 0 1.0775 -82.0004 -154.9793)" gradientUnits="userSpaceOnUse">
					<stop  offset="0" style="stop-color:#FFCC1B"/>
					<stop  offset="1" style="stop-color:#FF7E31"/>
				</radialGradient>
				<ellipse class="st105" cx="1087.9" cy="1234.3" rx="8.3" ry="8.5"/>
				<ellipse class="st23" cx="1087.9" cy="1234.3" rx="5.9" ry="6"/>
			</g>
			<g>
				
					<radialGradient id="SVGID_99_" cx="985.4276" cy="1241.3871" r="12.5375" gradientTransform="matrix(1.0464 0 0 1.0775 -82.0004 -154.9793)" gradientUnits="userSpaceOnUse">
					<stop  offset="0" style="stop-color:#FFCC1B"/>
					<stop  offset="1" style="stop-color:#FF7E31"/>
				</radialGradient>
				<path class="st106" d="M957.9,1177.8c0,4.7-3.7,8.5-8.3,8.5c-4.6,0-8.3-3.8-8.3-8.5c0-4.7,3.7-8.5,8.3-8.5
					C954.2,1169.2,957.9,1173,957.9,1177.8z"/>
				<path class="st23" d="M955.5,1177.8c0,3.3-2.6,6-5.9,6c-3.2,0-5.9-2.7-5.9-6c0-3.3,2.6-6,5.9-6
					C952.9,1171.7,955.5,1174.4,955.5,1177.8z"/>
			</g>
			<g>
				
					<radialGradient id="SVGID_100_" cx="1059.9973" cy="1241.3871" r="12.5367" gradientTransform="matrix(1.0464 0 0 1.0775 -82.0004 -154.9793)" gradientUnits="userSpaceOnUse">
					<stop  offset="0" style="stop-color:#FFCC1B"/>
					<stop  offset="1" style="stop-color:#FF7E31"/>
				</radialGradient>
				<ellipse class="st107" cx="1027.7" cy="1177.8" rx="8.3" ry="8.5"/>
				<ellipse class="st23" cx="1027.7" cy="1177.8" rx="5.9" ry="6"/>
			</g>
			<g>
				
					<radialGradient id="SVGID_101_" cx="1166.0345" cy="1243.6866" r="12.5375" gradientTransform="matrix(1.0464 0 0 1.0775 -82.0004 -154.9793)" gradientUnits="userSpaceOnUse">
					<stop  offset="0" style="stop-color:#FFCC1B"/>
					<stop  offset="1" style="stop-color:#FF7E31"/>
				</radialGradient>
				<path class="st108" d="M1146.9,1180.2c0,4.7-3.7,8.5-8.3,8.5c-4.6,0-8.3-3.8-8.3-8.5c0-4.7,3.7-8.5,8.3-8.5
					C1143.2,1171.7,1146.9,1175.5,1146.9,1180.2z"/>
				<ellipse class="st23" cx="1138.7" cy="1180.2" rx="5.9" ry="6"/>
			</g>
			<g>
				
					<radialGradient id="SVGID_102_" cx="1173.9552" cy="1292.9015" r="12.5377" gradientTransform="matrix(1.0464 0 0 1.0775 -82.0004 -154.9793)" gradientUnits="userSpaceOnUse">
					<stop  offset="0" style="stop-color:#FFCC1B"/>
					<stop  offset="1" style="stop-color:#FF7E31"/>
				</radialGradient>
				<path class="st109" d="M1155.2,1233.3c0,4.7-3.7,8.5-8.3,8.5c-4.6,0-8.3-3.8-8.3-8.5c0-4.7,3.7-8.5,8.3-8.5
					C1151.5,1224.7,1155.2,1228.6,1155.2,1233.3z"/>
				<path class="st23" d="M1152.8,1233.3c0,3.3-2.6,6-5.9,6c-3.2,0-5.9-2.7-5.9-6c0-3.3,2.6-6,5.9-6
					C1150.2,1227.2,1152.8,1229.9,1152.8,1233.3z"/>
			</g>
			<g>
				
					<radialGradient id="SVGID_103_" cx="1229.303" cy="1296.1125" r="12.5375" gradientTransform="matrix(1.0464 0 0 1.0775 -82.0004 -154.9793)" gradientUnits="userSpaceOnUse">
					<stop  offset="0" style="stop-color:#FFCC1B"/>
					<stop  offset="1" style="stop-color:#FF7E31"/>
				</radialGradient>
				<path class="st110" d="M1213.1,1236.7c0,4.7-3.7,8.5-8.3,8.5c-4.6,0-8.3-3.8-8.3-8.5c0-4.7,3.7-8.5,8.3-8.5
					C1209.4,1228.2,1213.1,1232,1213.1,1236.7z"/>
				<path class="st23" d="M1210.7,1236.7c0,3.3-2.6,6-5.9,6c-3.2,0-5.9-2.7-5.9-6c0-3.3,2.6-6,5.9-6
					C1208.1,1230.7,1210.7,1233.4,1210.7,1236.7z"/>
			</g>
			<g>
				
					<radialGradient id="SVGID_104_" cx="1234.9044" cy="1246.9877" r="12.5365" gradientTransform="matrix(1.0464 0 0 1.0775 -82.0004 -154.9793)" gradientUnits="userSpaceOnUse">
					<stop  offset="0" style="stop-color:#FFCC1B"/>
					<stop  offset="1" style="stop-color:#FF7E31"/>
				</radialGradient>
				<path class="st111" d="M1219,1183.8c0,4.7-3.7,8.5-8.3,8.5c-4.6,0-8.3-3.8-8.3-8.5c0-4.7,3.7-8.5,8.3-8.5
					C1215.3,1175.3,1219,1179.1,1219,1183.8z"/>
				<ellipse class="st23" cx="1210.7" cy="1183.8" rx="5.9" ry="6"/>
			</g>
			<g>
				
					<radialGradient id="SVGID_105_" cx="1231.6229" cy="1199.1824" r="12.5378" gradientTransform="matrix(1.0464 0 0 1.0775 -82.0004 -154.9793)" gradientUnits="userSpaceOnUse">
					<stop  offset="0" style="stop-color:#FFCC1B"/>
					<stop  offset="1" style="stop-color:#FF7E31"/>
				</radialGradient>
				<path class="st112" d="M1215.6,1132.3c0,4.7-3.7,8.5-8.3,8.5c-4.6,0-8.3-3.8-8.3-8.5c0-4.7,3.7-8.5,8.3-8.5
					C1211.9,1123.8,1215.6,1127.6,1215.6,1132.3z"/>
				<path class="st23" d="M1213.1,1132.3c0,3.3-2.6,6-5.9,6c-3.2,0-5.9-2.7-5.9-6c0-3.3,2.6-6,5.9-6
					C1210.5,1126.3,1213.1,1129,1213.1,1132.3z"/>
			</g>
			<g>
				
					<radialGradient id="SVGID_106_" cx="1294.1704" cy="1194.4728" r="12.5367" gradientTransform="matrix(1.0464 0 0 1.0775 -82.0004 -154.9793)" gradientUnits="userSpaceOnUse">
					<stop  offset="0" style="stop-color:#FFCC1B"/>
					<stop  offset="1" style="stop-color:#FF7E31"/>
				</radialGradient>
				<ellipse class="st113" cx="1272.7" cy="1127.2" rx="8.3" ry="8.5"/>
				<ellipse class="st23" cx="1272.7" cy="1127.2" rx="5.9" ry="6"/>
			</g>
			<g>
				
					<radialGradient id="SVGID_107_" cx="1296.4904" cy="1238.0859" r="12.5367" gradientTransform="matrix(1.0464 0 0 1.0775 -82.0004 -154.9793)" gradientUnits="userSpaceOnUse">
					<stop  offset="0" style="stop-color:#FFCC1B"/>
					<stop  offset="1" style="stop-color:#FF7E31"/>
				</radialGradient>
				<ellipse class="st114" cx="1275.2" cy="1174.2" rx="8.3" ry="8.5"/>
				<ellipse class="st23" cx="1275.2" cy="1174.2" rx="5.9" ry="6"/>
			</g>
			<g>
				
					<radialGradient id="SVGID_108_" cx="1341.9889" cy="1241.3871" r="12.5375" gradientTransform="matrix(1.0464 0 0 1.0775 -82.0004 -154.9793)" gradientUnits="userSpaceOnUse">
					<stop  offset="0" style="stop-color:#FFCC1B"/>
					<stop  offset="1" style="stop-color:#FF7E31"/>
				</radialGradient>
				<path class="st115" d="M1331.1,1177.8c0,4.7-3.7,8.5-8.3,8.5c-4.6,0-8.3-3.8-8.3-8.5c0-4.7,3.7-8.5,8.3-8.5
					C1327.4,1169.2,1331.1,1173,1331.1,1177.8z"/>
				<path class="st23" d="M1328.6,1177.8c0,3.3-2.6,6-5.9,6c-3.2,0-5.9-2.7-5.9-6c0-3.3,2.6-6,5.9-6
					C1326,1171.7,1328.6,1174.4,1328.6,1177.8z"/>
			</g>
			<g>
				
					<radialGradient id="SVGID_109_" cx="1341.9889" cy="1291.5131" r="12.5377" gradientTransform="matrix(1.0464 0 0 1.0775 -82.0004 -154.9793)" gradientUnits="userSpaceOnUse">
					<stop  offset="0" style="stop-color:#FFCC1B"/>
					<stop  offset="1" style="stop-color:#FF7E31"/>
				</radialGradient>
				<path class="st116" d="M1331.1,1231.8c0,4.7-3.7,8.5-8.3,8.5c-4.6,0-8.3-3.8-8.3-8.5c0-4.7,3.7-8.5,8.3-8.5
					C1327.4,1223.2,1331.1,1227.1,1331.1,1231.8z"/>
				<path class="st23" d="M1328.6,1231.8c0,3.3-2.6,6-5.9,6c-3.2,0-5.9-2.7-5.9-6c0-3.3,2.6-6,5.9-6
					C1326,1225.7,1328.6,1228.4,1328.6,1231.8z"/>
			</g>
			<g>
				
					<radialGradient id="SVGID_110_" cx="1294.1704" cy="1288.3013" r="12.5367" gradientTransform="matrix(1.0464 0 0 1.0775 -82.0004 -154.9793)" gradientUnits="userSpaceOnUse">
					<stop  offset="0" style="stop-color:#FFCC1B"/>
					<stop  offset="1" style="stop-color:#FF7E31"/>
				</radialGradient>
				<ellipse class="st117" cx="1272.7" cy="1228.3" rx="8.3" ry="8.5"/>
				<ellipse class="st23" cx="1272.7" cy="1228.3" rx="5.9" ry="6"/>
			</g>
			<g>
				
					<radialGradient id="SVGID_111_" cx="1339.6689" cy="1191.2617" r="12.5377" gradientTransform="matrix(1.0464 0 0 1.0775 -82.0004 -154.9793)" gradientUnits="userSpaceOnUse">
					<stop  offset="0" style="stop-color:#FFCC1B"/>
					<stop  offset="1" style="stop-color:#FF7E31"/>
				</radialGradient>
				<path class="st118" d="M1328.6,1123.8c0,4.7-3.7,8.5-8.3,8.5c-4.6,0-8.3-3.8-8.3-8.5c0-4.7,3.7-8.5,8.3-8.5
					C1324.9,1115.2,1328.6,1119,1328.6,1123.8z"/>
				<path class="st23" d="M1326.2,1123.8c0,3.3-2.6,6-5.9,6c-3.2,0-5.9-2.7-5.9-6c0-3.3,2.6-6,5.9-6
					C1323.6,1117.7,1326.2,1120.4,1326.2,1123.8z"/>
			</g>
			<g>
				
					<radialGradient id="SVGID_112_" cx="869.8822" cy="1241.3871" r="12.5375" gradientTransform="matrix(1.0464 0 0 1.0775 -82.0004 -154.9793)" gradientUnits="userSpaceOnUse">
					<stop  offset="0" style="stop-color:#FFCC1B"/>
					<stop  offset="1" style="stop-color:#FF7E31"/>
				</radialGradient>
				<path class="st119" d="M837,1177.8c0,4.7-3.7,8.5-8.3,8.5c-4.6,0-8.3-3.8-8.3-8.5c0-4.7,3.7-8.5,8.3-8.5
					C833.3,1169.2,837,1173,837,1177.8z"/>
				<path class="st23" d="M834.6,1177.8c0,3.3-2.6,6-5.9,6c-3.2,0-5.9-2.7-5.9-6c0-3.3,2.6-6,5.9-6
					C832,1171.7,834.6,1174.4,834.6,1177.8z"/>
			</g>
			<g>
				
					<radialGradient id="SVGID_113_" cx="872.2022" cy="1293.902" r="12.5374" gradientTransform="matrix(1.0464 0 0 1.0775 -82.0004 -154.9793)" gradientUnits="userSpaceOnUse">
					<stop  offset="0" style="stop-color:#FFCC1B"/>
					<stop  offset="1" style="stop-color:#FF7E31"/>
				</radialGradient>
				<path class="st120" d="M839.5,1234.3c0,4.7-3.7,8.5-8.3,8.5c-4.6,0-8.3-3.8-8.3-8.5s3.7-8.5,8.3-8.5
					C835.7,1225.8,839.5,1229.6,839.5,1234.3z"/>
				<path class="st23" d="M837,1234.3c0,3.3-2.6,6-5.9,6c-3.2,0-5.9-2.7-5.9-6c0-3.3,2.6-6,5.9-6C834.4,1228.3,837,1231,837,1234.3z
					"/>
			</g>
		</g>
		<g>
			
				<radialGradient id="SVGID_114_" cx="852.5093" cy="999.8249" r="16.4088" gradientTransform="matrix(1.0464 0 0 1.0775 -82.0004 -154.9793)" gradientUnits="userSpaceOnUse">
				<stop  offset="0" style="stop-color:#FFCC1B"/>
				<stop  offset="1" style="stop-color:#FF7E31"/>
			</radialGradient>
			<path class="st121" d="M821.6,916c0,6.2-4.9,11.2-10.8,11.2s-10.8-5-10.8-11.2s4.9-11.2,10.8-11.2S821.6,909.8,821.6,916z"/>
			<path class="st23" d="M818.4,916c0,4.4-3.4,7.9-7.7,7.9c-4.2,0-7.7-3.5-7.7-7.9c0-4.4,3.4-7.9,7.7-7.9
				C814.9,908.1,818.4,911.6,818.4,916z"/>
		</g>
		<g>
			
				<radialGradient id="SVGID_115_" cx="852.5093" cy="1512.0858" r="16.4088" gradientTransform="matrix(1.0464 0 0 1.0775 -82.0004 -154.9793)" gradientUnits="userSpaceOnUse">
				<stop  offset="0" style="stop-color:#FFCC1B"/>
				<stop  offset="1" style="stop-color:#FF7E31"/>
			</radialGradient>
			<path class="st122" d="M821.6,1467.9c0,6.2-4.9,11.2-10.8,11.2s-10.8-5-10.8-11.2s4.9-11.2,10.8-11.2S821.6,1461.8,821.6,1467.9z
				"/>
			<path class="st23" d="M818.4,1467.9c0,4.4-3.4,7.9-7.7,7.9c-4.2,0-7.7-3.5-7.7-7.9c0-4.4,3.4-7.9,7.7-7.9
				C814.9,1460,818.4,1463.6,818.4,1467.9z"/>
		</g>
		<g>
			
				<radialGradient id="SVGID_116_" cx="1250.6088" cy="999.8249" r="16.408" gradientTransform="matrix(1.0464 0 0 1.0775 -82.0004 -154.9793)" gradientUnits="userSpaceOnUse">
				<stop  offset="0" style="stop-color:#FFCC1B"/>
				<stop  offset="1" style="stop-color:#FF7E31"/>
			</radialGradient>
			<ellipse class="st123" cx="1227.3" cy="916" rx="10.8" ry="11.2"/>
			<ellipse class="st23" cx="1227.3" cy="916" rx="7.7" ry="7.9"/>
		</g>
		<g>
			
				<radialGradient id="SVGID_117_" cx="1052.4132" cy="963.4156" r="16.4082" gradientTransform="matrix(1.0464 0 0 1.0775 -82.0004 -154.9793)" gradientUnits="userSpaceOnUse">
				<stop  offset="0" style="stop-color:#FFCC1B"/>
				<stop  offset="1" style="stop-color:#FF7E31"/>
			</radialGradient>
			<path class="st124" d="M1030.7,876.8c0,6.2-4.9,11.2-10.8,11.2c-6,0-10.8-5-10.8-11.2s4.9-11.2,10.8-11.2
				C1025.9,865.6,1030.7,870.6,1030.7,876.8z"/>
			<path class="st23" d="M1027.6,876.8c0,4.4-3.4,7.9-7.7,7.9c-4.2,0-7.7-3.5-7.7-7.9c0-4.4,3.4-7.9,7.7-7.9
				C1024.1,868.9,1027.6,872.4,1027.6,876.8z"/>
		</g>
		<g>
			
				<radialGradient id="SVGID_118_" cx="1052.4132" cy="1549.9847" r="16.4082" gradientTransform="matrix(1.0464 0 0 1.0775 -82.0004 -154.9793)" gradientUnits="userSpaceOnUse">
				<stop  offset="0" style="stop-color:#FFCC1B"/>
				<stop  offset="1" style="stop-color:#FF7E31"/>
			</radialGradient>
			<path class="st125" d="M1030.7,1508.8c0,6.2-4.9,11.2-10.8,11.2c-6,0-10.8-5-10.8-11.2s4.9-11.2,10.8-11.2
				C1025.9,1497.6,1030.7,1502.6,1030.7,1508.8z"/>
			<path class="st23" d="M1027.6,1508.8c0,4.4-3.4,7.9-7.7,7.9c-4.2,0-7.7-3.5-7.7-7.9c0-4.4,3.4-7.9,7.7-7.9
				C1024.1,1500.9,1027.6,1504.4,1027.6,1508.8z"/>
		</g>
		<g>
			
				<radialGradient id="SVGID_119_" cx="950.2549" cy="970.7458" r="16.409" gradientTransform="matrix(1.0464 0 0 1.0775 -82.0004 -154.9793)" gradientUnits="userSpaceOnUse">
				<stop  offset="0" style="stop-color:#FFCC1B"/>
				<stop  offset="1" style="stop-color:#FF7E31"/>
			</radialGradient>
			<path class="st126" d="M923.8,884.7c0,6.2-4.9,11.2-10.8,11.2s-10.8-5-10.8-11.2s4.9-11.2,10.8-11.2S923.8,878.5,923.8,884.7z"/>
			<path class="st23" d="M920.7,884.7c0,4.4-3.4,7.9-7.7,7.9c-4.2,0-7.7-3.5-7.7-7.9c0-4.4,3.4-7.9,7.7-7.9
				C917.2,876.8,920.7,880.3,920.7,884.7z"/>
		</g>
		<g>
			
				<radialGradient id="SVGID_120_" cx="950.2549" cy="1539.7899" r="16.409" gradientTransform="matrix(1.0464 0 0 1.0775 -82.0004 -154.9793)" gradientUnits="userSpaceOnUse">
				<stop  offset="0" style="stop-color:#FFCC1B"/>
				<stop  offset="1" style="stop-color:#FF7E31"/>
			</radialGradient>
			<path class="st127" d="M923.8,1497.8c0,6.2-4.9,11.2-10.8,11.2s-10.8-5-10.8-11.2s4.9-11.2,10.8-11.2S923.8,1491.6,923.8,1497.8z
				"/>
			<path class="st23" d="M920.7,1497.8c0,4.4-3.4,7.9-7.7,7.9c-4.2,0-7.7-3.5-7.7-7.9c0-4.4,3.4-7.9,7.7-7.9
				C917.2,1489.9,920.7,1493.4,920.7,1497.8z"/>
		</g>
		<g>
			
				<radialGradient id="SVGID_121_" cx="814.0903" cy="1078.6763" r="16.408" gradientTransform="matrix(1.0464 0 0 1.0775 -82.0004 -154.9793)" gradientUnits="userSpaceOnUse">
				<stop  offset="0" style="stop-color:#FFCC1B"/>
				<stop  offset="1" style="stop-color:#FF7E31"/>
			</radialGradient>
			<ellipse class="st128" cx="770.5" cy="1001" rx="10.8" ry="11.2"/>
			<ellipse class="st23" cx="770.5" cy="1001" rx="7.7" ry="7.9"/>
		</g>
		<g>
			
				<radialGradient id="SVGID_122_" cx="814.0903" cy="1430.3021" r="16.4082" gradientTransform="matrix(1.0464 0 0 1.0775 -82.0004 -154.9793)" gradientUnits="userSpaceOnUse">
				<stop  offset="0" style="stop-color:#FFCC1B"/>
				<stop  offset="1" style="stop-color:#FF7E31"/>
			</radialGradient>
			<path class="st129" d="M781.4,1379.8c0,6.2-4.9,11.2-10.8,11.2s-10.8-5-10.8-11.2s4.9-11.2,10.8-11.2S781.4,1373.7,781.4,1379.8z
				"/>
			<path class="st23" d="M778.2,1379.8c0,4.4-3.4,7.9-7.7,7.9c-4.2,0-7.7-3.5-7.7-7.9c0-4.4,3.4-7.9,7.7-7.9
				C774.7,1371.9,778.2,1375.5,778.2,1379.8z"/>
		</g>
		<g>
			
				<radialGradient id="SVGID_123_" cx="670.5426" cy="1192.6484" r="16.4082" gradientTransform="matrix(1.0464 0 0 1.0775 -82.0004 -154.9793)" gradientUnits="userSpaceOnUse">
				<stop  offset="0" style="stop-color:#FFCC1B"/>
				<stop  offset="1" style="stop-color:#FF7E31"/>
			</radialGradient>
			<path class="st130" d="M631.1,1123.8c0,6.2-4.9,11.2-10.8,11.2s-10.8-5-10.8-11.2s4.9-11.2,10.8-11.2S631.1,1117.6,631.1,1123.8z
				"/>
			<path class="st23" d="M628,1123.8c0,4.4-3.4,7.9-7.7,7.9s-7.7-3.5-7.7-7.9c0-4.4,3.4-7.9,7.7-7.9S628,1119.4,628,1123.8z"/>
		</g>
		<g>
			
				<radialGradient id="SVGID_124_" cx="667.5062" cy="1311.0753" r="16.408" gradientTransform="matrix(1.0464 0 0 1.0775 -82.0004 -154.9793)" gradientUnits="userSpaceOnUse">
				<stop  offset="0" style="stop-color:#FFCC1B"/>
				<stop  offset="1" style="stop-color:#FF7E31"/>
			</radialGradient>
			<ellipse class="st131" cx="617.1" cy="1251.4" rx="10.8" ry="11.2"/>
			<ellipse class="st23" cx="617.1" cy="1251.4" rx="7.7" ry="7.9"/>
		</g>
		<g>
			
				<radialGradient id="SVGID_125_" cx="725.6652" cy="1118.7375" r="16.408" gradientTransform="matrix(1.0464 0 0 1.0775 -82.0004 -154.9793)" gradientUnits="userSpaceOnUse">
				<stop  offset="0" style="stop-color:#FFCC1B"/>
				<stop  offset="1" style="stop-color:#FF7E31"/>
			</radialGradient>
			<ellipse class="st132" cx="678" cy="1044.1" rx="10.8" ry="11.2"/>
			<ellipse class="st23" cx="678" cy="1044.1" rx="7.7" ry="7.9"/>
		</g>
		<g>
			
				<radialGradient id="SVGID_126_" cx="725.6652" cy="1393.1741" r="16.4082" gradientTransform="matrix(1.0464 0 0 1.0775 -82.0004 -154.9793)" gradientUnits="userSpaceOnUse">
				<stop  offset="0" style="stop-color:#FFCC1B"/>
				<stop  offset="1" style="stop-color:#FF7E31"/>
			</radialGradient>
			<path class="st133" d="M688.8,1339.8c0,6.2-4.9,11.2-10.8,11.2s-10.8-5-10.8-11.2s4.9-11.2,10.8-11.2S688.8,1333.6,688.8,1339.8z
				"/>
			<path class="st23" d="M685.6,1339.8c0,4.4-3.4,7.9-7.7,7.9s-7.7-3.5-7.7-7.9c0-4.4,3.4-7.9,7.7-7.9S685.6,1335.5,685.6,1339.8z"
				/>
		</g>
		<g>
			
				<radialGradient id="SVGID_127_" cx="1408.2819" cy="1512.0858" r="16.4079" gradientTransform="matrix(-1.0464 0 0 1.0775 2695.7607 -154.9793)" gradientUnits="userSpaceOnUse">
				<stop  offset="0" style="stop-color:#FFCC1B"/>
				<stop  offset="1" style="stop-color:#FF7E31"/>
			</radialGradient>
			<path class="st134" d="M1210.6,1467.9c0,6.2,4.9,11.2,10.8,11.2s10.8-5,10.8-11.2s-4.9-11.2-10.8-11.2
				S1210.6,1461.8,1210.6,1467.9z"/>
			<ellipse class="st23" cx="1221.5" cy="1467.9" rx="7.7" ry="7.9"/>
		</g>
		<g>
			
				<radialGradient id="SVGID_128_" cx="1369.8622" cy="1078.6763" r="16.4079" gradientTransform="matrix(-1.0464 0 0 1.0775 2695.7607 -154.9793)" gradientUnits="userSpaceOnUse">
				<stop  offset="0" style="stop-color:#FFCC1B"/>
				<stop  offset="1" style="stop-color:#FF7E31"/>
			</radialGradient>
			<path class="st135" d="M1250.8,1001c0,6.2,4.9,11.2,10.8,11.2s10.8-5,10.8-11.2s-4.9-11.2-10.8-11.2S1250.8,994.8,1250.8,1001z"
				/>
			<path class="st23" d="M1254,1001c0,4.4,3.4,7.9,7.7,7.9c4.2,0,7.7-3.5,7.7-7.9s-3.4-7.9-7.7-7.9
				C1257.4,993.1,1254,996.6,1254,1001z"/>
		</g>
		<g>
			
				<radialGradient id="SVGID_129_" cx="1367.2095" cy="1430.3838" r="16.4089" gradientTransform="matrix(-1.0464 0 0 1.0775 2695.7607 -154.9793)" gradientUnits="userSpaceOnUse">
				<stop  offset="0" style="stop-color:#FFCC1B"/>
				<stop  offset="1" style="stop-color:#FF7E31"/>
			</radialGradient>
			<path class="st136" d="M1253.6,1379.9c0,6.2,4.9,11.2,10.8,11.2c6,0,10.8-5,10.8-11.2s-4.9-11.2-10.8-11.2
				C1258.5,1368.7,1253.6,1373.7,1253.6,1379.9z"/>
			<path class="st23" d="M1256.8,1379.9c0,4.4,3.4,7.9,7.7,7.9c4.2,0,7.7-3.5,7.7-7.9c0-4.4-3.4-7.9-7.7-7.9
				C1260.2,1372,1256.8,1375.5,1256.8,1379.9z"/>
		</g>
		<g>
			
				<radialGradient id="SVGID_130_" cx="1229.3517" cy="1194.9979" r="16.4089" gradientTransform="matrix(-1.0464 0 0 1.0775 2695.7607 -154.9793)" gradientUnits="userSpaceOnUse">
				<stop  offset="0" style="stop-color:#FFCC1B"/>
				<stop  offset="1" style="stop-color:#FF7E31"/>
			</radialGradient>
			<path class="st137" d="M1397.9,1126.3c0,6.2,4.9,11.2,10.8,11.2c6,0,10.8-5,10.8-11.2s-4.9-11.2-10.8-11.2
				C1402.7,1115.1,1397.9,1120.1,1397.9,1126.3z"/>
			<path class="st23" d="M1401,1126.3c0,4.4,3.4,7.9,7.7,7.9c4.2,0,7.7-3.5,7.7-7.9s-3.4-7.9-7.7-7.9
				C1404.5,1118.4,1401,1121.9,1401,1126.3z"/>
		</g>
		<g>
			
				<radialGradient id="SVGID_131_" cx="1218.9851" cy="1308.8674" r="16.4089" gradientTransform="matrix(-1.0464 0 0 1.0775 2695.7607 -154.9793)" gradientUnits="userSpaceOnUse">
				<stop  offset="0" style="stop-color:#FFCC1B"/>
				<stop  offset="1" style="stop-color:#FF7E31"/>
			</radialGradient>
			<path class="st138" d="M1408.7,1249c0,6.2,4.9,11.2,10.8,11.2s10.8-5,10.8-11.2s-4.9-11.2-10.8-11.2S1408.7,1242.8,1408.7,1249z"
				/>
			<path class="st23" d="M1411.9,1249c0,4.4,3.4,7.9,7.7,7.9c4.2,0,7.7-3.5,7.7-7.9c0-4.4-3.4-7.9-7.7-7.9
				C1415.3,1241.1,1411.9,1244.6,1411.9,1249z"/>
		</g>
		<g>
			
				<radialGradient id="SVGID_132_" cx="1281.4377" cy="1118.7375" r="16.4089" gradientTransform="matrix(-1.0464 0 0 1.0775 2695.7607 -154.9793)" gradientUnits="userSpaceOnUse">
				<stop  offset="0" style="stop-color:#FFCC1B"/>
				<stop  offset="1" style="stop-color:#FF7E31"/>
			</radialGradient>
			<path class="st139" d="M1343.4,1044.1c0,6.2,4.9,11.2,10.8,11.2c6,0,10.8-5,10.8-11.2s-4.9-11.2-10.8-11.2
				C1348.2,1032.9,1343.4,1037.9,1343.4,1044.1z"/>
			<path class="st23" d="M1346.5,1044.1c0,4.4,3.4,7.9,7.7,7.9c4.2,0,7.7-3.5,7.7-7.9s-3.4-7.9-7.7-7.9
				C1350,1036.2,1346.5,1039.8,1346.5,1044.1z"/>
		</g>
		<g>
			
				<radialGradient id="SVGID_133_" cx="1281.4377" cy="1393.1741" r="16.409" gradientTransform="matrix(-1.0464 0 0 1.0775 2695.7607 -154.9793)" gradientUnits="userSpaceOnUse">
				<stop  offset="0" style="stop-color:#FFCC1B"/>
				<stop  offset="1" style="stop-color:#FF7E31"/>
			</radialGradient>
			<path class="st140" d="M1343.4,1339.8c0,6.2,4.9,11.2,10.8,11.2c6,0,10.8-5,10.8-11.2s-4.9-11.2-10.8-11.2
				C1348.2,1328.6,1343.4,1333.6,1343.4,1339.8z"/>
			<path class="st23" d="M1346.5,1339.8c0,4.4,3.4,7.9,7.7,7.9c4.2,0,7.7-3.5,7.7-7.9c0-4.4-3.4-7.9-7.7-7.9
				C1350,1331.9,1346.5,1335.5,1346.5,1339.8z"/>
		</g>
		<g>
			
				<radialGradient id="SVGID_134_" cx="1155.5317" cy="970.7458" r="16.4082" gradientTransform="matrix(1.0464 0 0 1.0775 -82.0004 -154.9793)" gradientUnits="userSpaceOnUse">
				<stop  offset="0" style="stop-color:#FFCC1B"/>
				<stop  offset="1" style="stop-color:#FF7E31"/>
			</radialGradient>
			<path class="st141" d="M1138.7,884.7c0,6.2-4.9,11.2-10.8,11.2c-6,0-10.8-5-10.8-11.2s4.9-11.2,10.8-11.2
				C1133.8,873.5,1138.7,878.5,1138.7,884.7z"/>
			<path class="st23" d="M1135.5,884.7c0,4.4-3.4,7.9-7.7,7.9c-4.2,0-7.7-3.5-7.7-7.9c0-4.4,3.4-7.9,7.7-7.9
				C1132,876.8,1135.5,880.3,1135.5,884.7z"/>
		</g>
		<g>
			
				<radialGradient id="SVGID_135_" cx="1155.5317" cy="1539.7899" r="16.4082" gradientTransform="matrix(1.0464 0 0 1.0775 -82.0004 -154.9793)" gradientUnits="userSpaceOnUse">
				<stop  offset="0" style="stop-color:#FFCC1B"/>
				<stop  offset="1" style="stop-color:#FF7E31"/>
			</radialGradient>
			<path class="st142" d="M1138.7,1497.8c0,6.2-4.9,11.2-10.8,11.2c-6,0-10.8-5-10.8-11.2s4.9-11.2,10.8-11.2
				C1133.8,1486.6,1138.7,1491.6,1138.7,1497.8z"/>
			<path class="st23" d="M1135.5,1497.8c0,4.4-3.4,7.9-7.7,7.9c-4.2,0-7.7-3.5-7.7-7.9c0-4.4,3.4-7.9,7.7-7.9
				C1132,1489.9,1135.5,1493.4,1135.5,1497.8z"/>
		</g>
	</g>
</g>
</svg>
