<?xml version="1.0" encoding="utf-8"?>
<!-- Generator: Adobe Illustrator 23.0.3, SVG Export Plug-In . SVG Version: 6.00 Build 0)  -->
<svg version="1.1" xmlns="http://www.w3.org/2000/svg" xmlns:xlink="http://www.w3.org/1999/xlink" x="0px" y="0px"
	 viewBox="0 0 512 512" style="enable-background:new 0 0 512 512;" xml:space="preserve">
<style type="text/css">
	.st0{fill-rule:evenodd;clip-rule:evenodd;fill:#FFFFFF;}
	.st1{fill-rule:evenodd;clip-rule:evenodd;fill:#C60A09;}
	.st2{fill-rule:evenodd;clip-rule:evenodd;fill:#C80F0F;}
	.st3{fill-rule:evenodd;clip-rule:evenodd;fill:#CA1416;}
	.st4{fill-rule:evenodd;clip-rule:evenodd;fill:#CC191C;}
	.st5{fill-rule:evenodd;clip-rule:evenodd;fill:#CE1E23;}
	.st6{fill-rule:evenodd;clip-rule:evenodd;fill:#D02329;}
	.st7{fill-rule:evenodd;clip-rule:evenodd;fill:#D12730;}
	.st8{fill-rule:evenodd;clip-rule:evenodd;fill:#D32C36;}
	.st9{fill-rule:evenodd;clip-rule:evenodd;fill:#D5313D;}
	.st10{fill-rule:evenodd;clip-rule:evenodd;fill:#D73643;}
	.st11{fill-rule:evenodd;clip-rule:evenodd;fill:#D93B4A;}
	.st12{fill-rule:evenodd;clip-rule:evenodd;fill:#DB4050;}
	.st13{opacity:0.5;fill-rule:evenodd;clip-rule:evenodd;fill:#FFFFFF;}
	.st14{opacity:0.65;stroke:#FFA502;stroke-width:1.0565;stroke-miterlimit:22.9256;}
</style>
<g id="Layer_1">
	<g>
		<path class="st0" d="M79.22,431.3C30.62,384.48,6.04,323.39,10.37,256c5.51-85.67,51.37-159.84,124.09-205.53
			c17.84-11.2,37.14-20.65,57.7-28.48c35.25-13.39,63.46-14.33,100-9.28c75.87,12.44,122.7,50.34,165.97,110.49
			c81.8,113.82,45.11,269.3-73.54,342.18c-39.34,24.14-84.32,36.74-130.57,36.74C189.27,501.28,125.7,476.09,79.22,431.3
			 M72.12,438.33C21.58,389.64-3.99,326.1,0.51,256c5.74-89.1,53.42-166.25,129.07-213.78c18.57-11.65,38.64-21.48,60.02-29.62
			c36.67-13.93,66.01-14.91,104.02-9.67c78.9,12.94,127.62,52.36,172.62,114.93c85.08,118.39,46.93,280.12-76.49,355.91
			C348.83,498.89,302.05,512,253.93,512C186.59,511.14,120.47,484.92,72.12,438.33z"/>
		<path class="st1" d="M113.07,397.65c-22.5-21.69-39.27-48.25-48.63-78c-15.53-49.3-5.63-110.87,20.41-154.9
			c27.43-46.93,68.85-78.6,119.49-97.87c28.45-10.82,51.31-11.59,80.81-7.5c61.34,10.06,99.14,40.66,134.12,89.29
			c23.29,32.42,34.68,67.25,35.7,107.28c0,109.99-89.96,198.93-200.64,198.93C202.01,454.22,150.63,433.85,113.07,397.65"/>
		<path class="st2" d="M120.45,398.28c-21.33-20.4-37.24-45.39-46.12-73.37c-14.73-46.38-4.82-106.13,19.36-145.72
			c25.18-42.44,65.83-71.06,114.95-88.61c28.93-9.87,52.87-10.81,80.29-7.69c56.93,7.95,91.48,39.09,123.33,84.57
			c21.17,31.2,30.64,64.45,30.14,101.97c-1.43,101.13-85.18,182.69-187.97,182.69C204.81,451.49,156.07,432.33,120.45,398.28"/>
		<path class="st3" d="M127.82,398.91c-20.17-19.11-35.21-42.53-43.61-68.75c-13.92-43.45-4.02-101.39,18.3-136.53
			c22.95-37.96,62.82-63.52,110.4-79.35c29.43-8.92,54.45-10.03,79.77-7.88c52.55,5.84,83.84,37.53,112.54,79.84
			c19.06,30,26.61,61.65,24.59,96.67c-2.86,92.28-80.41,166.45-175.32,166.45C207.58,448.77,161.51,430.81,127.82,398.91"/>
		<path class="st4" d="M135.2,399.54c-19.01-17.82-33.19-39.67-41.1-64.13c-13.13-40.53-3.21-96.65,17.24-127.35
			c20.71-33.47,59.8-55.98,105.87-70.1c29.91-7.96,56.02-9.24,79.24-8.06c48.15,3.73,76.19,35.96,101.75,75.12
			c16.93,28.79,22.57,58.85,19.03,91.37c-4.29,83.41-75.63,150.2-162.64,150.2C210.37,446.04,166.95,429.3,135.2,399.54"/>
		<path class="st5" d="M142.58,400.17c-17.85-16.54-31.16-36.81-38.59-59.51c-12.32-37.6-2.39-91.91,16.2-118.17
			c18.46-28.98,56.79-48.44,101.32-60.84c30.4-7.02,57.58-8.46,78.72-8.25c43.76,1.61,68.54,34.39,90.96,70.39
			c14.82,27.59,18.54,56.05,13.48,86.08c-5.72,74.55-70.85,133.96-149.98,133.96C213.16,443.32,172.39,427.78,142.58,400.17"/>
		<path class="st6" d="M149.95,400.8c-16.69-15.26-29.13-33.95-36.08-54.89c-11.53-34.69-1.6-87.18,15.14-108.99
			c16.22-24.49,53.77-40.9,96.77-51.58c30.89-6.08,59.16-7.68,78.21-8.44c39.37-0.5,60.89,32.82,80.18,65.67
			c12.71,26.38,14.5,53.26,7.91,80.77c-7.14,65.69-66.07,117.71-137.31,117.71C215.95,440.6,177.82,426.27,149.95,400.8"/>
		<path class="st7" d="M157.33,401.43c-15.52-13.97-27.11-31.09-33.57-50.26c-10.72-31.76-0.77-82.44,14.09-99.81
			c13.98-20.01,50.76-33.36,92.24-42.32c31.38-5.11,60.73-6.89,77.69-8.62c34.96-2.61,53.24,31.25,69.38,60.95
			c10.59,25.17,10.47,50.45,2.37,75.47c-8.58,56.82-61.29,101.47-124.65,101.47C218.73,437.88,183.26,424.75,157.33,401.43"/>
		<path class="st8" d="M164.71,402.06c-14.37-12.69-25.08-28.22-31.06-45.64c-9.92-28.84,0.02-77.71,13.03-90.63
			c11.75-15.51,47.74-25.82,87.68-33.06c31.88-4.16,62.31-6.11,77.17-8.81c30.58-4.72,45.58,29.68,58.59,56.22
			c8.47,23.97,6.43,47.65-3.2,70.17c-9.99,47.96-56.51,85.23-111.99,85.23C221.52,435.16,188.7,423.23,164.71,402.06"/>
		<path class="st9" d="M172.08,402.69c-13.2-11.41-23.05-25.37-28.55-41.01c-9.12-25.91,0.83-72.97,11.98-81.44
			c9.51-11.04,44.73-18.3,83.15-23.82c32.36-3.21,63.87-5.32,76.64-9c26.18-6.83,37.94,28.11,47.81,51.5
			c6.35,22.76,2.39,44.86-8.76,64.88c-11.42,39.1-51.73,68.98-99.32,68.98C224.3,432.43,194.14,421.72,172.08,402.69"/>
		<path class="st10" d="M179.46,403.32c-12.05-10.12-21.03-22.51-26.05-36.39c-8.32-23,1.65-68.24,10.93-72.27
			c7.27-6.55,41.72-10.75,78.6-14.55c32.85-2.27,65.44-4.54,76.12-9.19c21.79-8.95,30.3,26.54,37.02,46.78
			c4.23,21.56-1.65,42.05-14.32,59.57c-12.85,30.24-46.95,52.74-86.65,52.74C227.09,429.7,199.58,420.2,179.46,403.32"/>
		<path class="st11" d="M186.84,403.94c-10.89-8.83-19.01-19.65-23.54-31.76c-7.52-20.07,2.45-63.5,9.87-63.08
			c5.03-2.06,38.7-3.22,74.06-5.29c33.34-1.31,67.02-3.76,75.61-9.38c17.4-11.05,22.64,24.98,26.23,42.06
			c2.11,20.34-5.69,39.25-19.87,54.27c-14.29,21.38-42.18,36.5-74,36.5C229.87,426.98,205.02,418.69,186.84,403.94"/>
		<path class="st12" d="M194.2,404.58c-9.73-7.55-16.98-16.79-21.02-27.14c-6.72-17.15,3.26-58.76,8.83-53.9
			c5.56,4.86,131.6,7.57,144.6-5.59c13-13.17,14.99,23.4,15.44,37.33c0,38.27-38.9,69.22-86.76,69.22
			C232.66,424.27,210.45,417.17,194.2,404.58"/>
		<path class="st12" d="M128.76,263.18C44.23,308.67,71.72,70.11,254.4,70.7c198.42,0.64,208.17,225.81,134.16,192.48
			C333.17,238.24,187.35,231.65,128.76,263.18"/>
		<path class="st12" d="M254.43,398.58c-78.37-1-150.4-45.03-181.79-116.95c-7.31-16.77-9.97-33.3-10.69-51.42
			c-11.21,69.9,8.89,130.17,63.9,176.38c36.85,30.95,80.48,46.09,128.58,46.69c109.93,0,199.03-88.34,199.03-197.32
			c-0.07-9.53-0.61-17.88-1.92-27.32C436.81,327.43,355.02,397.29,254.43,398.58"/>
		<path class="st13" d="M241.53,78.98c32.82,35.47,20.81,99.37-26.83,142.71c-47.65,43.34-112.89,49.71-145.71,14.23
			C46.03,211.11,39.86,120.79,31.16,256C27.2,317.68,49.7,373.6,94.19,416.47c42.54,40.99,100.73,64.05,159.99,64.82
			c38.21,0,75.47-9.4,108.84-27.48c-9.28-0.41-17.67-3.76-23.66-10.24c-14.71-15.9-9.32-44.53,12.03-63.95
			c21.35-19.42,50.59-22.27,65.29-6.38c7.85,8.47,9.98,20.58,7.02,32.98c67.04-74,79.07-185.87,17.32-271.79
			C401.41,79.37,358.55,44.68,289.1,33.29c-33.45-4.61-59.27-3.76-91.54,8.5c-12.98,4.94-25.41,10.59-37.25,16.99
			C191.82,51.76,222.26,58.15,241.53,78.98 M72.47,438C22.01,389.39-3.52,325.97,0.98,256C6.7,167.05,54.31,90.05,129.81,42.61
			c18.53-11.62,38.57-21.45,59.91-29.57C226.31-0.87,255.61-1.84,293.54,3.4c78.77,12.91,127.39,52.26,172.31,114.71
			c84.93,118.18,46.84,279.61-76.34,355.26c-40.85,25.07-87.54,38.15-135.57,38.15C186.73,510.67,120.72,484.51,72.47,438z"/>
		<path class="st13" d="M134.24,376.73c-33.47-32.25-50.4-74.32-47.41-120.74c3.79-59,35.37-110.09,85.46-141.56
			c12.29-7.71,25.58-14.22,39.74-19.61c24.27-9.22,43.71-9.87,68.88-6.4c52.25,8.57,84.5,34.67,114.3,76.1
			c56.34,78.4,31.08,185.48-50.65,235.66c-27.09,16.64-58.06,25.31-89.92,25.31C210.05,424.94,166.26,407.59,134.24,376.73
			 M72.12,438.33C21.58,389.64-3.99,326.1,0.51,256c5.74-89.1,53.42-166.25,129.07-213.78c18.57-11.65,38.64-21.48,60.02-29.62
			c36.67-13.93,66.01-14.91,104.02-9.67c78.9,12.94,127.62,52.36,172.62,114.93c85.08,118.39,46.93,280.12-76.49,355.91
			C348.83,498.89,302.05,512,253.93,512C186.59,511.14,120.47,484.92,72.12,438.33z"/>
		<path class="st0" d="M243.48,45.64c12.49,21.33-3.29,53.55-35.26,71.96c-31.98,18.41-68.01,16.04-80.51-5.29
			c-12.49-21.33,3.3-53.55,35.27-71.96C194.94,21.94,230.99,24.31,243.48,45.64"/>
		<path class="st0" d="M116.1,117.91c10.01,10.9,4.86,31.69-11.47,46.43c-16.34,14.74-37.7,17.85-47.71,6.95
			c-10.01-10.91-4.87-31.7,11.47-46.44S106.09,107.01,116.1,117.91"/>
		<path class="st0" d="M362.99,436.65c6.75,9.79,0.33,25.8-14.35,35.75c-14.68,9.96-32.05,10.09-38.81,0.3
			c-6.75-9.8-0.33-25.81,14.35-35.76C338.85,426.98,356.23,426.85,362.99,436.65"/>
	</g>
</g>
<g id="Layer_2">
	<rect x="120" y="230.18" class="st14" width="17.82" height="36.82"/>
	<rect x="171.07" y="190.99" class="st14" width="17.82" height="115.21"/>
	<rect x="273.22" y="144.66" class="st14" width="17.82" height="207.86"/>
	<rect x="222.15" y="144.66" class="st14" width="17.82" height="207.86"/>
	<rect x="323.11" y="190.99" class="st14" width="17.82" height="115.21"/>
	<rect x="374.18" y="230.18" class="st14" width="17.82" height="36.82"/>
	<rect x="144.94" y="211.94" class="st14" width="17.82" height="74.07"/>
	<rect x="349.24" y="211.18" class="st14" width="17.82" height="74.07"/>
	<rect x="196.02" y="169.01" class="st14" width="17.82" height="160.35"/>
	<rect x="247.09" y="126.25" class="st14" width="17.82" height="243.49"/>
	<rect x="298.17" y="167.83" class="st14" width="17.82" height="160.35"/>
</g>
<g id="Layer_3">
</g>
</svg>
