<?xml version="1.0" encoding="utf-8"?>
<!-- Generator: Adobe Illustrator 23.0.3, SVG Export Plug-In . SVG Version: 6.00 Build 0)  -->
<svg version="1.1" id="Layer_1" xmlns="http://www.w3.org/2000/svg" xmlns:xlink="http://www.w3.org/1999/xlink" x="0px" y="0px"
	 viewBox="0 0 512 512" style="enable-background:new 0 0 512 512;" xml:space="preserve">
<style type="text/css">
	.st0{fill-rule:evenodd;clip-rule:evenodd;fill:#FFFFFF;}
	.st1{fill-rule:evenodd;clip-rule:evenodd;fill:#C60A09;}
	.st2{fill-rule:evenodd;clip-rule:evenodd;fill:#C80F0F;}
	.st3{fill-rule:evenodd;clip-rule:evenodd;fill:#CA1416;}
	.st4{fill-rule:evenodd;clip-rule:evenodd;fill:#CC191C;}
	.st5{fill-rule:evenodd;clip-rule:evenodd;fill:#CE1E23;}
	.st6{fill-rule:evenodd;clip-rule:evenodd;fill:#D02329;}
	.st7{fill-rule:evenodd;clip-rule:evenodd;fill:#D12730;}
	.st8{fill-rule:evenodd;clip-rule:evenodd;fill:#D32C36;}
	.st9{fill-rule:evenodd;clip-rule:evenodd;fill:#D5313D;}
	.st10{fill-rule:evenodd;clip-rule:evenodd;fill:#D73643;}
	.st11{fill-rule:evenodd;clip-rule:evenodd;fill:#D93B4A;}
	.st12{fill-rule:evenodd;clip-rule:evenodd;fill:#DB4050;}
	.st13{fill:none;stroke:#C60A09;stroke-width:1.0027;stroke-miterlimit:22.9256;}
	.st14{fill:none;stroke:#C80D00;stroke-width:1.0027;stroke-miterlimit:22.9256;}
	.st15{fill-rule:evenodd;clip-rule:evenodd;fill:#E6E6E6;}
	.st16{opacity:0.5;fill-rule:evenodd;clip-rule:evenodd;fill:#FFFFFF;}
</style>
<g>
	<path class="st0" d="M91.71,411.93c-45.18-43.89-68.03-101.17-64-164.35c5.12-80.32,47.75-149.86,115.35-192.7
		c16.58-10.5,34.53-19.36,53.63-26.7c32.77-12.56,59-13.43,92.95-8.7c70.53,11.66,114.06,47.19,154.29,103.59
		c76.04,106.72,41.93,252.49-68.36,320.82c-36.57,22.63-78.37,34.45-121.37,34.45C194,477.55,134.92,453.93,91.71,411.93
		 M85.11,418.53c-46.99-45.65-70.77-105.24-66.58-170.95C23.87,164.03,68.2,91.71,138.52,47.14c17.25-10.93,35.92-20.14,55.79-27.76
		C228.39,6.32,255.67,5.4,291,10.32c73.34,12.13,118.63,49.09,160.46,107.75c79.09,111,43.63,262.62-71.1,333.69
		c-38.03,23.54-81.52,35.84-126.25,35.84C191.51,486.78,130.05,462.21,85.11,418.53z"/>
	<path class="st1" d="M123.16,380.39c-20.91-20.33-36.49-45.24-45.19-73.14c-14.44-46.22-5.23-103.94,18.97-145.22
		c25.49-44,64-73.69,111.08-91.76c26.43-10.14,47.69-10.86,75.11-7.03c57.02,9.44,92.15,38.13,124.67,83.72
		c21.65,30.39,32.24,63.05,33.18,100.58c0,103.12-83.62,186.51-186.51,186.51C205.84,433.42,158.09,414.32,123.16,380.39"/>
	<path class="st2" d="M130.02,380.98c-19.83-19.12-34.62-42.55-42.87-68.8c-13.68-43.47-4.49-99.49,18-136.61
		c23.41-39.8,61.19-66.62,106.85-83.08c26.9-9.26,49.16-10.14,74.63-7.21c52.92,7.45,85.05,36.65,114.65,79.28
		c19.67,29.26,28.49,60.43,28.02,95.61c-1.34,94.81-79.19,171.28-174.75,171.28C208.44,430.86,163.14,412.9,130.02,380.98"/>
	<path class="st3" d="M136.88,381.57c-18.76-17.92-32.73-39.88-40.54-64.46c-12.95-40.74-3.74-95.06,17.01-128.01
		c21.32-35.58,58.38-59.55,102.63-74.39c27.35-8.36,50.62-9.4,74.14-7.38c48.85,5.47,77.94,35.18,104.61,74.85
		c17.72,28.13,24.75,57.81,22.86,90.64c-2.66,86.51-74.75,156.06-162.96,156.06C211.03,428.31,168.2,411.48,136.88,381.57"/>
	<path class="st4" d="M143.73,382.16c-17.67-16.71-30.85-37.19-38.2-60.13c-12.21-38-2.98-90.61,16.04-119.4
		c19.23-31.38,55.58-52.49,98.4-65.72c27.81-7.47,52.08-8.67,73.66-7.56c44.77,3.49,70.82,33.71,94.59,70.42
		c15.75,27,20.98,55.18,17.69,85.67c-3.98,78.2-70.3,140.82-151.18,140.82C213.61,425.76,173.25,410.05,143.73,382.16"/>
	<path class="st5" d="M150.59,382.75c-16.59-15.51-28.96-34.51-35.87-55.79c-11.46-35.26-2.24-86.17,15.04-110.79
		c17.17-27.17,52.8-45.42,94.19-57.04c28.26-6.58,53.53-7.94,73.17-7.73c40.68,1.51,63.72,32.23,84.56,65.99
		c13.78,25.86,17.22,52.55,12.53,80.7c-5.32,69.89-65.86,125.59-139.43,125.59C216.2,423.21,178.31,408.63,150.59,382.75"/>
	<path class="st6" d="M157.46,383.34c-15.52-14.3-27.09-31.83-33.55-51.46c-10.72-32.52-1.48-81.73,14.07-102.18
		c15.09-22.96,49.99-38.35,89.96-48.36c28.71-5.69,54.99-7.2,72.69-7.91c36.6-0.46,56.61,30.77,74.53,61.57
		c11.81,24.73,13.47,49.93,7.35,75.73c-6.64,61.58-61.42,110.36-127.64,110.36C218.79,420.65,183.36,407.21,157.46,383.34"/>
	<path class="st7" d="M164.3,383.93c-14.43-13.1-25.2-29.15-31.2-47.12c-9.97-29.77-0.73-77.29,13.09-93.57
		c13.01-18.76,47.19-31.28,85.73-39.68c29.18-4.79,56.47-6.47,72.23-8.08c32.49-2.45,49.48,29.29,64.5,57.13
		c9.83,23.61,9.72,47.31,2.18,70.77c-7.96,53.28-56.96,95.13-115.86,95.13C221.38,418.1,188.42,405.79,164.3,383.93"/>
	<path class="st8" d="M171.17,384.52c-13.36-11.89-23.31-26.47-28.88-42.79c-9.22-27.04,0.03-72.85,12.12-84.97
		c10.91-14.55,44.38-24.21,81.51-31c29.63-3.9,57.91-5.72,71.74-8.26c28.42-4.42,42.38,27.83,54.46,52.71
		c7.87,22.47,5.98,44.68-2.97,65.79c-9.29,44.97-52.53,79.91-104.11,79.91C223.98,415.55,193.46,404.37,171.17,384.52"/>
	<path class="st9" d="M178.01,385.11c-12.28-10.69-21.43-23.78-26.53-38.45c-8.48-24.3,0.77-68.41,11.14-76.36
		c8.83-10.34,41.58-17.15,77.28-22.32c30.09-3.01,59.38-5,71.26-8.44c24.34-6.4,35.26,26.36,44.43,48.28
		c5.9,21.34,2.22,42.05-8.14,60.82c-10.62,36.66-48.09,64.68-92.32,64.68C226.56,412.99,198.53,402.95,178.01,385.11"/>
	<path class="st10" d="M184.87,385.7c-11.19-9.48-19.54-21.1-24.21-34.12c-7.73-21.56,1.53-63.97,10.17-67.75
		c6.75-6.13,38.76-10.08,73.06-13.64c30.53-2.12,60.83-4.26,70.77-8.61c20.25-8.39,28.15,24.88,34.41,43.86
		c3.94,20.2-1.53,39.42-13.32,55.85c-11.94,28.35-43.64,49.44-80.54,49.44C229.15,410.44,203.58,401.53,184.87,385.7"/>
	<path class="st11" d="M191.74,386.29c-10.12-8.28-17.67-18.43-21.88-29.78c-6.99-18.82,2.28-59.53,9.18-59.14
		c4.67-1.93,35.97-3.02,68.83-4.97c30.99-1.23,62.3-3.52,70.29-8.79c16.17-10.36,21.05,23.42,24.38,39.43
		c1.97,19.08-5.29,36.8-18.48,50.89c-13.27,20.04-39.2,34.22-68.78,34.22C231.74,407.89,208.64,400.11,191.74,386.29"/>
	<path class="st12" d="M198.58,386.88c-9.04-7.07-15.78-15.74-19.54-25.44c-6.24-16.09,3.04-55.09,8.21-50.53
		c5.16,4.55,122.33,7.09,134.4-5.25c12.09-12.34,13.93,21.94,14.36,35c0,35.88-36.16,64.9-80.65,64.9
		C234.33,405.33,213.68,398.69,198.58,386.88"/>
	<path class="st12" d="M137.76,254.32C59.17,296.96,84.73,73.3,254.53,73.85c184.46,0.6,193.52,211.72,124.72,180.47
		C327.77,230.93,192.21,224.76,137.76,254.32"/>
	<path class="st12" d="M254.57,381.26c-72.85-0.94-139.82-42.22-168.99-109.64c-6.81-15.72-9.28-31.22-9.93-48.21
		c-10.43,65.53,8.25,122.03,59.39,165.36c34.27,29.02,74.82,43.21,119.53,43.79c102.18,0,185.01-82.83,185.01-185.01
		c-0.07-8.94-0.58-16.76-1.79-25.63C424.12,314.55,348.08,380.05,254.57,381.26"/>
	<path class="st13" d="M207.1,165.54l48.93,50.29l48.93-50.29c3.49-3.58,9.25-3.66,12.82-0.18l28.23,27.47
		c3.59,3.48,3.66,9.24,0.17,12.82l-50.03,51.42l50.03,51.41c3.49,3.58,3.4,9.34-0.17,12.82l-28.23,27.47
		c-3.59,3.48-9.34,3.4-12.82-0.18l-48.93-50.29l-48.93,50.29c-3.49,3.58-9.25,3.66-12.84,0.18l-28.22-27.47
		c-3.59-3.48-3.66-9.24-0.18-12.82l50.03-51.41l-50.03-51.42c-3.47-3.58-3.4-9.34,0.18-12.82l28.22-27.47
		C197.85,161.88,203.62,161.96,207.1,165.54z"/>
	<path class="st1" d="M207.1,165.53l48.93,50.29l48.93-50.29c3.49-3.58,9.25-3.66,12.82-0.18l28.25,27.47
		c3.57,3.49,3.64,9.25,0.17,12.83l-50.03,51.41l50.03,51.41c3.47,3.58,3.4,9.35-0.17,12.83l-28.25,27.47
		c-3.57,3.48-9.34,3.4-12.82-0.18l-48.93-50.3l-48.93,50.3c-3.49,3.57-9.25,3.66-12.82,0.18l-28.23-27.47
		c-3.59-3.48-3.66-9.25-0.18-12.83l50.04-51.41l-50.04-51.41c-3.47-3.58-3.4-9.34,0.18-12.83l28.23-27.47
		C197.85,161.87,203.62,161.95,207.1,165.53"/>
	<path class="st14" d="M207.1,146.55l48.93,50.28l48.93-50.28c3.49-3.59,9.25-3.66,12.82-0.18l28.23,27.47
		c3.59,3.49,3.66,9.24,0.17,12.83l-50.03,51.41l50.03,51.41c3.49,3.59,3.4,9.34-0.17,12.83l-28.23,27.47
		c-3.59,3.48-9.34,3.4-12.82-0.18l-48.93-50.3l-48.93,50.3c-3.49,3.58-9.25,3.66-12.84,0.18l-28.22-27.47
		c-3.59-3.49-3.66-9.25-0.18-12.83l50.03-51.41l-50.03-51.41c-3.47-3.59-3.4-9.34,0.18-12.83l28.22-27.47
		C197.85,142.89,203.62,142.96,207.1,146.55z"/>
	<path class="st15" d="M207.1,146.53l48.93,50.29l48.93-50.29c3.49-3.58,9.25-3.66,12.82-0.18l28.25,27.47
		c3.57,3.48,3.64,9.25,0.17,12.82l-50.03,51.42l50.03,51.41c3.47,3.58,3.4,9.34-0.17,12.82l-28.25,27.47
		c-3.57,3.48-9.34,3.4-12.82-0.18l-48.93-50.3l-48.93,50.3c-3.49,3.58-9.25,3.66-12.82,0.18l-28.23-27.47
		c-3.59-3.48-3.66-9.24-0.18-12.82l50.04-51.41l-50.04-51.42c-3.47-3.58-3.4-9.34,0.18-12.82l28.23-27.47
		C197.85,142.88,203.62,142.96,207.1,146.53"/>
	<path class="st0" d="M207.1,146.54l48.93,50.29l48.93-50.29c3.49-3.59,9.25-3.66,12.82-0.18l28.23,27.47
		c3.59,3.49,3.66,9.25,0.18,12.83L296.25,238h-80.43l-49.96-51.34c-3.47-3.58-3.4-9.34,0.18-12.83l28.23-27.47
		C197.85,142.88,203.62,142.96,207.1,146.54"/>
	<path class="st16" d="M242.58,81.62c30.51,33.25,19.35,93.16-24.94,133.79c-44.29,40.64-104.93,46.61-135.45,13.35
		c-21.34-23.27-27.08-107.94-35.15,18.83c-3.68,57.83,17.22,110.26,58.58,150.44c39.55,38.44,93.64,60.06,148.73,60.77
		c35.52,0,70.15-8.81,101.17-25.75c-8.63-0.38-16.42-3.54-21.99-9.6c-13.67-14.9-8.66-41.75,11.18-59.96
		c19.85-18.21,47.03-20.89,60.7-5.98c7.28,7.95,9.27,19.29,6.52,30.91c62.32-69.37,73.49-174.25,16.1-254.81
		C391.2,81.98,351.35,49.46,286.8,38.78c-31.09-4.32-55.09-3.52-85.08,7.97c-12.06,4.63-23.62,9.93-34.63,15.93
		C196.38,56.09,224.67,62.09,242.58,81.62 M85.42,418.22C38.52,372.64,14.8,313.18,18.97,247.58
		c5.31-83.39,49.56-155.59,119.75-200.07c17.22-10.9,35.85-20.11,55.69-27.72c34.01-13.03,61.25-13.95,96.51-9.03
		c73.21,12.11,118.42,48.99,160.18,107.55c78.94,110.8,43.53,262.14-70.98,333.07c-37.96,23.49-81.37,35.77-126.01,35.77
		C191.64,486.35,130.28,461.82,85.42,418.22z"/>
	<path class="st16" d="M142.85,360.78c-31.1-30.23-46.85-69.68-44.08-113.19c3.53-55.32,32.89-103.22,79.46-132.73
		c11.42-7.23,23.78-13.34,36.94-18.39c22.57-8.64,40.63-9.25,64.03-5.99c48.57,8.04,78.54,32.5,106.24,71.34
		c52.38,73.51,28.9,173.91-47.07,220.96c-25.18,15.6-53.98,23.73-83.6,23.73C213.32,405.98,172.61,389.7,142.85,360.78
		 M85.11,418.53c-46.99-45.65-70.77-105.24-66.58-170.95C23.87,164.03,68.2,91.71,138.52,47.14c17.25-10.93,35.92-20.14,55.79-27.76
		C228.39,6.32,255.67,5.4,291,10.32c73.34,12.13,118.63,49.09,160.46,107.75c79.09,111,43.63,262.62-71.1,333.69
		c-38.03,23.54-81.52,35.84-126.25,35.84C191.51,486.78,130.05,462.21,85.11,418.53z"/>
	<path class="st0" d="M244.39,50.35c11.61,20-3.05,50.2-32.77,67.46c-29.71,17.26-63.22,15.04-74.85-4.96
		c-11.61-20,3.07-50.2,32.79-67.46C199.27,28.14,232.78,30.35,244.39,50.35"/>
	<path class="st0" d="M125.99,118.11c9.29,10.23,4.51,29.72-10.67,43.54c-15.2,13.82-35.04,16.73-44.35,6.51
		c-9.29-10.22-4.51-29.71,10.67-43.53C96.83,110.81,116.68,107.89,125.99,118.11"/>
	<path class="st0" d="M355.49,416.95c6.28,9.18,0.31,24.19-13.33,33.52c-13.65,9.34-29.81,9.46-36.08,0.27
		c-6.28-9.18-0.31-24.19,13.33-33.52C333.05,407.89,349.2,407.76,355.49,416.95"/>
</g>
</svg>
