<?xml version="1.0" encoding="utf-8"?>
<!-- Generator: Adobe Illustrator 23.0.3, SVG Export Plug-In . SVG Version: 6.00 Build 0)  -->
<svg version="1.1" id="Layer_1" xmlns="http://www.w3.org/2000/svg" xmlns:xlink="http://www.w3.org/1999/xlink" x="0px" y="0px"
	 viewBox="0 0 2000 2000" style="enable-background:new 0 0 2000 2000;" xml:space="preserve">
<style type="text/css">
	.st0{fill-rule:evenodd;clip-rule:evenodd;fill:url(#SVGID_1_);}
	.st1{fill-rule:evenodd;clip-rule:evenodd;fill:url(#SVGID_2_);}
	.st2{fill-rule:evenodd;clip-rule:evenodd;fill:url(#SVGID_3_);}
	.st3{fill-rule:evenodd;clip-rule:evenodd;fill:url(#SVGID_4_);}
	.st4{fill-rule:evenodd;clip-rule:evenodd;fill:url(#SVGID_5_);}
	.st5{fill-rule:evenodd;clip-rule:evenodd;fill:url(#SVGID_6_);}
	.st6{fill-rule:evenodd;clip-rule:evenodd;fill:#D17065;}
	.st7{fill-rule:evenodd;clip-rule:evenodd;fill:#F0AC9A;}
	.st8{fill-rule:evenodd;clip-rule:evenodd;fill:#ED9D87;}
	.st9{fill-rule:evenodd;clip-rule:evenodd;fill:url(#SVGID_7_);}
	.st10{fill-rule:evenodd;clip-rule:evenodd;fill:url(#SVGID_8_);}
	.st11{fill-rule:evenodd;clip-rule:evenodd;fill:#FFEAB8;}
	.st12{fill-rule:evenodd;clip-rule:evenodd;fill:url(#SVGID_9_);}
	.st13{fill-rule:evenodd;clip-rule:evenodd;fill:url(#SVGID_10_);}
	.st14{fill-rule:evenodd;clip-rule:evenodd;fill:url(#SVGID_11_);}
	.st15{fill-rule:evenodd;clip-rule:evenodd;fill:#953766;}
	.st16{fill-rule:evenodd;clip-rule:evenodd;fill:#FFF7E4;}
	.st17{fill-rule:evenodd;clip-rule:evenodd;fill:#79023E;}
	.st18{fill-rule:evenodd;clip-rule:evenodd;fill:#576307;}
	.st19{fill-rule:evenodd;clip-rule:evenodd;fill:url(#SVGID_12_);}
	.st20{opacity:0.5;fill-rule:evenodd;clip-rule:evenodd;fill:url(#SVGID_13_);}
	.st21{opacity:0.5;fill-rule:evenodd;clip-rule:evenodd;fill:url(#SVGID_14_);}
	.st22{fill-rule:evenodd;clip-rule:evenodd;fill:url(#SVGID_15_);}
	.st23{fill-rule:evenodd;clip-rule:evenodd;fill:url(#SVGID_16_);}
	.st24{opacity:0.5;fill-rule:evenodd;clip-rule:evenodd;fill:url(#SVGID_17_);}
	.st25{fill-rule:evenodd;clip-rule:evenodd;fill:url(#SVGID_18_);}
	.st26{fill-rule:evenodd;clip-rule:evenodd;fill:url(#SVGID_19_);}
	.st27{fill-rule:evenodd;clip-rule:evenodd;fill:url(#SVGID_20_);}
	.st28{fill-rule:evenodd;clip-rule:evenodd;fill:url(#SVGID_21_);}
	.st29{opacity:0.5;fill-rule:evenodd;clip-rule:evenodd;fill:url(#SVGID_22_);}
	.st30{opacity:0.5;fill-rule:evenodd;clip-rule:evenodd;fill:url(#SVGID_23_);}
	.st31{fill-rule:evenodd;clip-rule:evenodd;fill:url(#SVGID_24_);}
	.st32{opacity:0.3;fill-rule:evenodd;clip-rule:evenodd;fill:url(#SVGID_25_);}
	.st33{fill-rule:evenodd;clip-rule:evenodd;fill:url(#SVGID_26_);}
	.st34{opacity:0.3;fill-rule:evenodd;clip-rule:evenodd;fill:url(#SVGID_27_);}
	.st35{opacity:0.5;fill-rule:evenodd;clip-rule:evenodd;fill:url(#SVGID_28_);}
	.st36{fill-rule:evenodd;clip-rule:evenodd;fill:url(#SVGID_29_);}
	.st37{fill-rule:evenodd;clip-rule:evenodd;fill:url(#SVGID_30_);}
	.st38{fill-rule:evenodd;clip-rule:evenodd;fill:url(#SVGID_31_);}
	.st39{fill-rule:evenodd;clip-rule:evenodd;fill:url(#SVGID_32_);}
	.st40{opacity:0.5;fill-rule:evenodd;clip-rule:evenodd;fill:url(#SVGID_33_);}
	.st41{opacity:0.5;fill-rule:evenodd;clip-rule:evenodd;fill:url(#SVGID_34_);}
	.st42{fill-rule:evenodd;clip-rule:evenodd;fill:url(#SVGID_35_);}
	.st43{fill-rule:evenodd;clip-rule:evenodd;fill:url(#SVGID_36_);}
	.st44{fill-rule:evenodd;clip-rule:evenodd;fill:#FFCC1A;}
	.st45{fill-rule:evenodd;clip-rule:evenodd;fill:url(#SVGID_37_);}
	.st46{fill-rule:evenodd;clip-rule:evenodd;fill:url(#SVGID_38_);}
	.st47{fill-rule:evenodd;clip-rule:evenodd;fill:url(#SVGID_39_);}
	.st48{opacity:0.3;fill-rule:evenodd;clip-rule:evenodd;fill:url(#SVGID_40_);}
	.st49{opacity:0.3;fill-rule:evenodd;clip-rule:evenodd;fill:url(#SVGID_41_);}
	.st50{fill-rule:evenodd;clip-rule:evenodd;fill:url(#SVGID_42_);}
	.st51{fill-rule:evenodd;clip-rule:evenodd;fill:url(#SVGID_43_);}
	.st52{fill-rule:evenodd;clip-rule:evenodd;fill:url(#SVGID_44_);}
	.st53{fill-rule:evenodd;clip-rule:evenodd;fill:url(#SVGID_45_);}
	.st54{fill-rule:evenodd;clip-rule:evenodd;fill:url(#SVGID_46_);}
	.st55{fill-rule:evenodd;clip-rule:evenodd;fill:url(#SVGID_47_);}
	.st56{fill-rule:evenodd;clip-rule:evenodd;fill:url(#SVGID_48_);}
	.st57{fill-rule:evenodd;clip-rule:evenodd;fill:url(#SVGID_49_);}
	.st58{fill-rule:evenodd;clip-rule:evenodd;fill:url(#SVGID_50_);}
	.st59{fill-rule:evenodd;clip-rule:evenodd;fill:url(#SVGID_51_);}
	.st60{fill-rule:evenodd;clip-rule:evenodd;fill:url(#SVGID_52_);}
	.st61{opacity:0.5;fill-rule:evenodd;clip-rule:evenodd;fill:url(#SVGID_53_);}
	.st62{opacity:0.5;fill-rule:evenodd;clip-rule:evenodd;fill:url(#SVGID_54_);}
</style>
<g>
	<linearGradient id="SVGID_1_" gradientUnits="userSpaceOnUse" x1="143.8956" y1="460.4146" x2="1777.7942" y2="460.4146">
		<stop  offset="0" style="stop-color:#D2023E"/>
		<stop  offset="0.9944" style="stop-color:#9C0244"/>
	</linearGradient>
	<path class="st0" d="M143.9,739.8c0,0,685.5-252.6,825.1-578h101.6c0,0,197.1,373.6,707.3,597.2L143.9,739.8z"/>
	<linearGradient id="SVGID_2_" gradientUnits="userSpaceOnUse" x1="973.0281" y1="1107.1313" x2="973.0281" y2="803.9">
		<stop  offset="0" style="stop-color:#D2023E"/>
		<stop  offset="0.9944" style="stop-color:#9C0244"/>
	</linearGradient>
	<polygon class="st1" points="148.4,1023.8 429.5,1059.5 1009.6,1107.1 1453.9,1070.3 1797.6,1020.4 1643.4,933.9 991.4,803.9 
		372.9,931.8 	"/>
	<linearGradient id="SVGID_3_" gradientUnits="userSpaceOnUse" x1="1019.8736" y1="1023.7762" x2="1019.8736" y2="354.8919">
		<stop  offset="0" style="stop-color:#FF98A0"/>
		<stop  offset="1" style="stop-color:#FFD790"/>
	</linearGradient>
	<polygon class="st2" points="39.7,802.8 148.4,1023.8 372.9,931.8 991.4,803.9 1643.4,933.9 1797.6,1020.4 2000,834 1797.6,666.4 
		1003,354.9 289,625.8 	"/>
	<linearGradient id="SVGID_4_" gradientUnits="userSpaceOnUse" x1="534.9839" y1="1048.7091" x2="534.9839" y2="931.8362">
		<stop  offset="0" style="stop-color:#FF5254"/>
		<stop  offset="1" style="stop-color:#CF431B"/>
	</linearGradient>
	<polygon class="st3" points="235.4,988.1 796.6,1048.7 834.5,1032.2 372.9,931.8 	"/>
	<linearGradient id="SVGID_5_" gradientUnits="userSpaceOnUse" x1="922.9775" y1="1007.4694" x2="922.9775" y2="803.9">
		<stop  offset="0" style="stop-color:#FF5254"/>
		<stop  offset="1" style="stop-color:#CF431B"/>
	</linearGradient>
	<polygon class="st4" points="991.4,803.9 991.4,1005 954.8,1007.5 854.6,832.2 	"/>
	<linearGradient id="SVGID_6_" gradientUnits="userSpaceOnUse" x1="1383.6178" y1="1038.1248" x2="1383.6178" y2="897.3508">
		<stop  offset="0" style="stop-color:#FF5254"/>
		<stop  offset="1" style="stop-color:#CF431B"/>
	</linearGradient>
	<polygon class="st5" points="1156,1038.1 1643.4,933.9 1460.1,897.4 1123.9,1023.8 	"/>
	<g>
		<path class="st6" d="M777.5,1476.3c-6.1-2.4-11.8-2.7-17-1.9c-19.2-3-33.9,12.6-40.7,21.7c-10.2-6-22.6-8.3-36.4-9v-9.5
			c0,0-21.3,2.6-62,2.6c-17.4,0-31.2-2.3-41.3-4.9c8.9-56.9-3.8-189.6-78.4-189.6c-1.3,0-2.6,0.1-3.9,0.2c-1.1-0.1-2.1-0.2-3.2-0.2
			c-20,0-35.2,9.4-46.7,22.3c-12.2-21-30.1-51.1-33.4-51.1c-4,0,9.7,56.8,15.3,79.2c-11.1,23.5-14.8,46.4-14.8,46.4
			c0-0.7,0.3-1.7,0.6-2.8c-0.8,4.3-1.3,9-1.2,13.9c0,0,0.9,24.1-17,34.7c0,0-0.8,15.3,5.7,35.3l4.4-1.7c0.2,0.6,0.3,1.1,0.5,1.7
			l3.4-1.3l-2.4,7.5c0,0,3.7,7.9,9.8,10.6c0,0,1.3-0.2,3.8-0.6c0.4,0.2,0.7,0.5,1.1,0.6c0,0,4.8-0.7,14.4-2.9h0.1
			c0.1-0.1,0.3-0.1,0.5-0.1c3.3-0.8,7.2-1.9,11.6-3.1c3.3-0.9,6.4-2,9.2-2.5c3.7,0.9,6.6,4.6,8.1,14.4c1.9,11.6,1.9,31.9-0.6,66.3
			c-3.5,49.5,21.5,66.1,23.9,74.4c2.5,8.2-30.7,37.6-47.8,50.5c-17.1,13-22,104.8-17.9,113c0,0,10.7,9.7,26.9,8.8
			c8,0.6,17.8-1.3,28.5-8.8c0,0-6.5-68.3-5.7-77.7c0.8-9.4,44.7-33.7,52.1-38.3c6.4-4.1,12.3-27.3,13.7-33.2
			c8.5,2.4,27.9,6.9,50.1,6.6c23.1,0.4,49.9-4.2,70.9-22.2c0,0-0.1,0.1-0.1,0.1c0.7-0.6,1.9-1.6,1.9-1.6l1.2-0.8
			c0.4,3,1,7.2,1.8,12.3l1.5,13h1.1c4.1,18.2,11.1,39.7,22.8,50c13.7,12.1,31,14.4,43.9,14c7.4,0.2,13.9-0.6,18.1-1.4
			c-3.5,9.3-27.6,76.8-10.6,114.6c0,0,11.9,7.2,26.9,6.4c9.2,0.5,20.2-1.6,30.5-10.5c0,0-14.1-36.6-15.9-76.3
			c-0.7-15.5-0.8-29.3-0.9-40.6c2.2-0.5,4.4-1,6.4-1.5c0,1.5,0.1,2.3,0.1,2.3c52.1-10.4,64.3-36.4,64.3-36.4
			C856.9,1607.5,814.8,1490.9,777.5,1476.3z M746.9,1662.3c-11-14.2,14.4-95.2-7.8-144.2c0,0,0-0.1-0.1-0.1l0.1,0.1
			c0,0,2.8-8.8,8.9-12.2c1,0.4,2,1,3,1.7c18.8,13,25.7,115.2,28.1,167.5C772.1,1674.7,755.9,1673.8,746.9,1662.3z"/>
		<path class="st6" d="M661.3,1530.3L661.3,1530.3C660.7,1530.7,660.5,1531,661.3,1530.3z"/>
	</g>
	<g>
		<path class="st7" d="M1575.1,1417.8c-5.6-2.4-10.8-2.7-15.7-1.9c-17.7-3-31.2,12.6-37.4,21.7c-9.3-6-20.8-8.3-33.5-9v-9.5
			c0,0-19.6,2.6-57,2.6c-16,0-28.7-2.3-38-4.9c8.2-56.9-3.5-189.6-72.1-189.6c-1.2,0-2.4,0.1-3.6,0.2c-1-0.1-27.6,0-28.6,0
			c-18.4,0-6.7,9.2-17.3,22.1c-11.2-21-27.7-51.1-30.7-51.1c-1.4,0-28.6,0-28.6,0c3.3,18.6,39.5,65.4,42.7,79.2
			c-10.2,23.5-13.6,46.4-13.6,46.4c0-0.7,0.2-1.7,0.5-2.8c-0.8,4.3-1.2,9-1.1,13.9c0,0,0.8,24.1-15.7,34.7c0,0-0.7,15.3,5.3,35.3
			l4-1.7c0.2,0.6,0.3,1.1,0.5,1.7l3.1-1.3l-2.2,7.5c0,0-20.7,7.9-15.1,10.6c0,0,33.1-0.7,41.9-2.9h0.1c0.1-0.1,0.2-0.1,0.4-0.1
			c3-0.8,6.6-1.9,10.7-3.1c3.1-0.9,5.9-2,8.5-2.5c3.4,0.9,6,4.6,7.4,14.4c1.7,11.6,1.7,31.9-0.6,66.3c-3.3,49.5,19.7,66.1,22,74.4
			c2.3,8.2-28.2,37.6-43.9,50.5c-15.7,13-48.8,104.8-45.1,113c0,0,17.4,12.3,32.2,11.4c17.1,0.7,37.5-3.9,47.3-11.4
			c0,0-6-68.3-5.2-77.7c0.8-9.4,41.2-33.7,47.9-38.3c5.9-4.1,11.3-27.3,12.6-33.2c7.8,2.4,25.6,6.9,46.1,6.6
			c21.2,0.4,45.9-4.2,65.2-22.2c0,0-0.1,0.1-0.1,0.1c0.7-0.6,1.7-1.6,1.7-1.6l1.1-0.8c0.3,3,0.9,7.2,1.7,12.3l1.4,13h1
			c3.7,18.2,10.2,39.7,21,50c12.6,12.1,28.5,14.4,40.4,14c6.8,0.2,12.7-0.6,16.6-1.4c-3.2,9.3-54,76.8-38.3,114.6
			c0,0,10.9,7.2,24.8,6.4c8.5,0.5,47.2-1.6,56.7-10.5c0,0-12.9-36.6-14.6-76.3c-0.7-15.5-0.8-29.3-0.8-40.6c2-0.5,4-1,5.9-1.5
			c0,1.5,0,2.3,0,2.3c47.9-10.4,59.2-36.4,59.2-36.4C1648.1,1549,1609.4,1432.3,1575.1,1417.8z M1547,1603.8
			c-10.1-14.2,13.3-95.2-7.2-144.2c0,0,0-0.1-0.1-0.1l0.1,0.1c0,0,2.6-8.8,8.2-12.2c0.9,0.4,1.8,1,2.8,1.7
			c17.3,13,23.7,115.2,25.8,167.5C1570.1,1616.2,1555.2,1615.2,1547,1603.8z"/>
		<path class="st7" d="M1468.2,1567.3L1468.2,1567.3C1467.7,1567.8,1467.4,1568,1468.2,1567.3z"/>
	</g>
	<g>
		<path class="st6" d="M1546.5,1417.8c-5.6-2.4-10.8-2.7-15.7-1.9c-17.7-3-31.2,12.6-37.4,21.7c-9.3-6-20.8-8.3-33.5-9v-9.5
			c0,0-19.6,2.6-57,2.6c-16,0-28.7-2.3-38-4.9c8.2-56.9-3.5-189.6-72.1-189.6c-1.2,0-2.4,0.1-3.6,0.2c-1-0.1-1.9-0.2-2.9-0.2
			c-18.3,0-32.4,9.4-43,22.3c-11.2-21-27.7-51.1-30.7-51.1c-3.7,0,8.9,56.8,14.1,79.2c-10.2,23.5-13.6,46.4-13.6,46.4
			c0-0.7,0.2-1.7,0.5-2.8c-0.8,4.3-1.2,9-1.1,13.9c0,0,0.8,24.1-15.7,34.7c0,0-0.7,15.3,5.3,35.3l4-1.7c0.2,0.6,0.3,1.1,0.5,1.7
			l3.1-1.3l-2.2,7.5c0,0,3.4,7.9,9,10.6c0,0,1.2-0.2,3.5-0.6c0.3,0.2,0.7,0.5,1,0.6c0,0,4.4-0.7,13.3-2.9h0.1
			c0.1-0.1,0.2-0.1,0.4-0.1c3-0.8,6.6-1.9,10.7-3.1c3.1-0.9,5.9-2,8.5-2.5c3.4,0.9,6,4.6,7.4,14.4c1.7,11.6,1.7,31.9-0.6,66.3
			c-3.3,49.5,19.7,66.1,22,74.4c2.3,8.2-28.2,37.6-43.9,50.5c-15.7,13-20.2,104.8-16.5,113c0,0,9.9,9.7,24.7,8.8
			c7.4,0.6,16.4-1.3,26.2-8.8c0,0-6-68.3-5.2-77.7c0.8-9.4,41.2-33.7,47.9-38.3c5.9-4.1,11.3-27.3,12.6-33.2
			c7.8,2.4,25.6,6.9,46.1,6.6c21.2,0.4,45.9-4.2,65.2-22.2c0,0-0.1,0.1-0.1,0.1c0.7-0.6,1.7-1.6,1.7-1.6l1.1-0.8
			c0.3,3,0.9,7.2,1.7,12.3l1.4,13h1c3.7,18.2,10.2,39.7,21,50c12.6,12.1,28.5,14.4,40.4,14c6.8,0.2,12.7-0.6,16.6-1.4
			c-3.2,9.3-25.4,76.8-9.7,114.6c0,0,10.9,7.2,24.8,6.4c8.5,0.5,18.6-1.6,28.1-10.5c0,0-12.9-36.6-14.6-76.3
			c-0.7-15.5-0.8-29.3-0.8-40.6c2-0.5,4-1,5.9-1.5c0,1.5,0,2.3,0,2.3c47.9-10.4,59.2-36.4,59.2-36.4
			C1619.5,1549,1580.8,1432.3,1546.5,1417.8z M1518.4,1603.8c-10.1-14.2,13.3-95.2-7.2-144.2c0,0,0-0.1-0.1-0.1l0.1,0.1
			c0,0,2.6-8.8,8.2-12.2c0.9,0.4,1.8,1,2.8,1.7c17.3,13,23.7,115.2,25.8,167.5C1541.5,1616.2,1526.6,1615.2,1518.4,1603.8z"/>
		<path class="st8" d="M1439.6,1567.3L1439.6,1567.3C1439.1,1567.8,1438.8,1568,1439.6,1567.3z"/>
	</g>
	<linearGradient id="SVGID_7_" gradientUnits="userSpaceOnUse" x1="788.6383" y1="1449.132" x2="1173.8596" y2="1449.132">
		<stop  offset="0" style="stop-color:#FFCC1B"/>
		<stop  offset="1" style="stop-color:#FF9D31"/>
	</linearGradient>
	<path class="st9" d="M796.6,1048.7c0,0,179.9-91,359.4-10.6l17.9,848.2l-385.2,7L796.6,1048.7z"/>
	<linearGradient id="SVGID_8_" gradientUnits="userSpaceOnUse" x1="981.249" y1="1813.0607" x2="981.249" y2="1327.8313">
		<stop  offset="0" style="stop-color:#FF7731"/>
		<stop  offset="1" style="stop-color:#FFA41B"/>
	</linearGradient>
	<path class="st10" d="M788.6,1813.1c0,0,6.3-381.5,17-391c10.7-9.4,55.8,347.6,55.8,347.6s85.9-446.5,132-441.8
		c46.1,4.7,116.8,441.8,116.8,441.8s11.4-376.9,31.1-378.8c19.7-1.9,32.5,414.3,32.5,414.3L788.6,1813.1z"/>
	<polygon class="st11" points="277,1019.4 277,1401.2 297.5,1401.2 292,1016 	"/>
	<polygon class="st11" points="1531.5,973.8 1531.5,1355.6 1552,1355.6 1546.5,970.4 	"/>
	<polygon class="st6" points="1409.2,1047.5 1409.2,1355.6 1429.7,1355.6 1424.4,1053.4 	"/>
	<polygon class="st6" points="641.9,1051.6 641.9,1486.2 662.4,1486.2 657.1,1053.4 	"/>
	<linearGradient id="SVGID_9_" gradientUnits="userSpaceOnUse" x1="0" y1="1909.8126" x2="1930.0546" y2="1909.8126">
		<stop  offset="0" style="stop-color:#9D9A00"/>
		<stop  offset="1" style="stop-color:#777000"/>
	</linearGradient>
	<polygon class="st12" points="29.3,1854.4 0,2000 1930.1,2000 1879.1,1819.6 	"/>
	<linearGradient id="SVGID_10_" gradientUnits="userSpaceOnUse" x1="160.7071" y1="1824.2257" x2="1792.4613" y2="1824.2257">
		<stop  offset="0" style="stop-color:#887E00"/>
		<stop  offset="1" style="stop-color:#665C00"/>
	</linearGradient>
	<polygon class="st13" points="160.7,1851.9 177.3,1819.6 1770.1,1796.5 1792.5,1821.3 	"/>
	<g>
		<path class="st8" d="M1737.1,1314.7l-48.1-3.5l33.6,20.3c0,0-34.2-2.7-39.8,0c0,0-4.5-0.7-13.3-2.9h-0.1c-0.1-0.1-0.2-0.1-0.4-0.1
			c-3-0.8-6.6-1.9-10.7-3.1c-9.8-2.9-17.6-7.9-20.4,11.8c-1.7,11.6-1.7,31.9,0.6,66.3c3.3,49.5-19.8,66.1-22,74.4
			c-2.3,8.2,28.3,37.6,44,50.5c15.7,13,60.1,104.8,56.3,113c0,0-60.1,20-86.3,0c0,0,6-68.3,5.2-77.7c-0.8-9.4-41.2-33.7-48-38.3
			c-6.8-4.8-12.9-34.6-12.9-34.6s-76.4,28.2-117.9-21.4c0,0-5,60.5-25.5,80.1c-23.2,22.2-31.5,7-31.5,7s40.8,79.5,24,120.2
			c0,0-65.7,17.1-88.2-4.1c0,0,12.9-36.6,14.6-76.3c1.7-39.8-0.2-69.2,2-70c2.3-0.9,22.5,0.8,32.6-13.2
			c10.2-14.2-13.3-95.2,7.2-144.2c22.6-54.3,95.6-18,150.4-32.5c63-16.8,40.5-72.7,60.3-136.3c0,0-6.7-8.8-4.5-45.9
			c0,0,26.4-2.1,39.8,0c0,0,2,20,11.9,24.7c0,0,36.7-71.1,41.3-71.1c1.4,0,40.1-9.4,37.5,2.1c-5.9,26-36.4,85.9-36.4,85.9
			c1.8,2.6-5,21.6-5.5,48.8c0,0-0.8,24.1,15.7,34.7C1702.6,1279.4,1743.1,1294.7,1737.1,1314.7z"/>
		<linearGradient id="SVGID_11_" gradientUnits="userSpaceOnUse" x1="1558.9178" y1="1683.4393" x2="1558.9178" y2="1107.9996">
			<stop  offset="0" style="stop-color:#FFB8BD"/>
			<stop  offset="1" style="stop-color:#FFEAB8"/>
		</linearGradient>
		<path class="st14" d="M1737.1,1314.7l-8.3-3.5l2.9,9.7c0,0-3.4,7.9-9,10.6c0,0-4.5-0.7-13.3-2.9h-0.1c-0.1-0.1-0.2-0.1-0.4-0.1
			c-3-0.8-6.6-1.9-10.7-3.1c-9.8-2.9-17.6-7.9-20.4,11.8c-1.7,11.6-1.7,31.9,0.6,66.3c3.3,49.5-19.8,66.1-22,74.4
			c-2.3,8.2,28.3,37.6,44,50.5c15.7,13,20.3,104.8,16.5,113c0,0-20.3,20-46.5,0c0,0,6-68.3,5.2-77.7c-0.8-9.4-41.2-33.7-48-38.3
			c-6.8-4.8-12.9-34.6-12.9-34.6s-76.5,28.2-117.9-21.4c0,0-5,60.5-25.5,80.1c-23.2,22.2-57.5,11.5-57.5,11.5s27,75.1,10.2,115.7
			c0,0-25.9,17.1-48.4-4.1c0,0,13-36.6,14.6-76.3c1.7-39.8-0.2-69.2,2-70c2.3-0.9,22.5,0.8,32.6-13.2c10.2-14.2-13.3-95.2,7.2-144.2
			c22.6-54.3,95.6-18,150.4-32.5c63-16.8,40.5-72.7,60.3-136.3c0,0-6.7-8.8-4.5-45.9c0,0,15.1-6.2,33.4,19c0,0,8.4,0.9,18.3,5.7
			c0,0,36.6-71.1,41.3-71.1c4.6,0-20.7,88.2-20.7,88.2c1.8,2.6,16.8,21.4,16.3,48.5c0,0-0.8,24.1,15.7,34.7
			C1742.4,1279.4,1743.1,1294.7,1737.1,1314.7z"/>
		<path class="st15" d="M1679,1242.6c0,0-4.2-23.6,7.6-28.4c11.8-4.9,24.2,12.6,20.5,39.9L1679,1242.6z"/>
		<path class="st16" d="M1709.2,1261.5c0,0,2.3-31.1-10.6-39.2c-13.5-8.5-19.1,8.3-19.5,18.3c-0.4,10,3.9,22.5,14.2,25.3
			C1703.7,1268.7,1709.2,1261.5,1709.2,1261.5z"/>
		<ellipse class="st17" cx="1692.3" cy="1240.6" rx="10.7" ry="19.2"/>
		<path class="st18" d="M1407,1396.2c0,0-3-37.4-25.3-43.5c-4.8-1.3-25.2-0.4-30.1,1.7c-34.4,14.5-73.1,131.2-70.9,193
			c0,0,11.3,26,59.3,36.4c0,0,20,1,20.1-1.5c0.7-26.3-14.6-180.6,6.7-196.6c14.1-10.5,20.1,10.4,20.1,10.4H1407z"/>
		<linearGradient id="SVGID_12_" gradientUnits="userSpaceOnUse" x1="1360.0696" y1="1583.8292" x2="1360.0696" y2="1352.0385">
			<stop  offset="0" style="stop-color:#777000"/>
			<stop  offset="1" style="stop-color:#9D9A00"/>
		</linearGradient>
		<path class="st19" d="M1419.4,1380.2c0,0-19.6-37.8-47.8-25.8c-34.4,14.5-73.1,131.2-70.9,193c0,0,11.3,26,59.3,36.4
			c0,0,3.4-180.6,26.8-198.1c14.1-10.5,20.1,10.4,20.1,10.4L1419.4,1380.2z"/>
		<linearGradient id="SVGID_13_" gradientUnits="userSpaceOnUse" x1="1656.6512" y1="1310.3596" x2="1708.865" y2="1310.3596">
			<stop  offset="0" style="stop-color:#890050"/>
			<stop  offset="1" style="stop-color:#DB6D57"/>
		</linearGradient>
		<path class="st20" d="M1708.9,1328.5c-3-0.8-6.6-1.9-10.7-3.1c-9.8-2.9-17.6-7.9-20.4,11.8c-4.2-4.8-17-21.9-21.1-53.9
			c0.8,3.5,4.3,17.8,15.4,26.7C1683.7,1319.4,1705.4,1327.2,1708.9,1328.5z"/>
		<linearGradient id="SVGID_14_" gradientUnits="userSpaceOnUse" x1="1470.464" y1="1460.533" x2="1504.3734" y2="1460.533">
			<stop  offset="0" style="stop-color:#DB6D57"/>
			<stop  offset="1" style="stop-color:#890050"/>
		</linearGradient>
		<path class="st21" d="M1492.2,1499.7L1492.2,1499.7c0,0-5-43-21.8-78.3c0,0,31.4,53.9,33.1,55.5c1.8,1.6,0,0,0,0l-10.4,18.3
			L1492.2,1499.7z"/>
		<linearGradient id="SVGID_15_" gradientUnits="userSpaceOnUse" x1="1596.8602" y1="1325.9551" x2="1596.8602" y2="1167.6698">
			<stop  offset="0" style="stop-color:#777000"/>
			<stop  offset="1" style="stop-color:#9D9A00"/>
		</linearGradient>
		<path class="st22" d="M1558.9,1321.4c0,0,21.7-107.8,38.9-153.7h32.2c0,0,0.1,19.9,4.8,31.8c0,0-19.3,87.5-22.5,126.5
			L1558.9,1321.4z"/>
		<path class="st18" d="M1597.8,1167.7h32.2c0,0-41.8,58.9-38.2,156.5l-32.9-2.8C1558.9,1321.4,1563.5,1206.5,1597.8,1167.7z"/>
		<path class="st17" d="M1468.1,1338l39.5,2c0,0,6.3,41.9,18,55.8c11.7,13.9,47.1,6,47.1,6l-35.7-73.9l-62.3-1.8L1468.1,1338z"/>
		<linearGradient id="SVGID_16_" gradientUnits="userSpaceOnUse" x1="1468.1467" y1="1360.6226" x2="1615.434" y2="1360.6226">
			<stop  offset="0" style="stop-color:#D2023E"/>
			<stop  offset="0.9944" style="stop-color:#9C0244"/>
		</linearGradient>
		<path class="st23" d="M1468.1,1338l8.4-10.1l45.5,0.9c0,0,1.6,57.6,20.9,70c19.3,12.4,61.7,3.7,68.2-16.9
			c8-25.3,2.1-65.2,2.1-65.2h-56.5c0,0-10.4,7-24.3,8.2c-15,1.3-60.3-1.2-60.3-1.2L1468.1,1338z"/>
		<linearGradient id="SVGID_17_" gradientUnits="userSpaceOnUse" x1="1631.6364" y1="1563.916" x2="1631.6364" y2="1525.5892">
			<stop  offset="0" style="stop-color:#890050"/>
			<stop  offset="1" style="stop-color:#DB6D57"/>
		</linearGradient>
		<path class="st24" d="M1587.7,1525.6h39.8c0,0,43.1,26.4,48,38.3h-39.8C1635.7,1563.9,1620,1544.9,1587.7,1525.6z"/>
	</g>
	<g>
		<path class="st18" d="M450.9,1284.9c0,0-10.8-89.6-69.3-89.7c-2.9,0-30.2-0.5-32.9,0c-66.2,11-68.3,152.7-57.5,199.7
			c0,0,39.1-9.4,46.4-37.7c7.2-28.3,9-108.5,38.5-119.1C405.6,1227.6,450.2,1273.7,450.9,1284.9z"/>
		<linearGradient id="SVGID_18_" gradientUnits="userSpaceOnUse" x1="353.7038" y1="1394.9636" x2="353.7038" y2="1195.2205">
			<stop  offset="0" style="stop-color:#777000"/>
			<stop  offset="1" style="stop-color:#9D9A00"/>
		</linearGradient>
		<path class="st25" d="M426.8,1292c0,0-14.1-96.7-72.6-96.8c-72.4-0.1-80.8,150.7-69.6,199.7c0,0,39.1-9.4,46.4-37.7
			c7.2-28.3,9-108.5,38.5-119.1C399.1,1227.6,426.1,1280.8,426.8,1292z"/>
		<path class="st18" d="M181.3,1411.5c0,0-14.8-31.6-47.2-29.5c-1,0.1-24.2,1.2-25.1,1.8c-33.2,19.5-47.2,134.8-45,194.9
			c0,0,0.8,24.1,25.4,35.9c7.4,3.6,22.2-1.9,33.2,0.5c0,0,3.4-180.6,26.5-198.1c13.9-10.5,19.9,10.4,19.9,10.4L181.3,1411.5z"/>
		<path class="st8" d="M470.8,1373.2l-8.2-3.5l2.8,9.7c0,0-3.3,7.9-8.9,10.6c0,0-27.1,1.2-31.1,0c-9.7-2.9-10.5-14-13.3,5.8
			c-1.7,11.6-1.7,31.9,0.6,66.3c3.2,49.5-19.6,66.1-21.8,74.4c-2.2,8.2,28,37.6,43.5,50.5c15.6,13,20,104.8,16.3,113
			c0,0-51.1,20.1-77.1,0c0,0,37-68.3,36.3-77.7c-0.8-9.4-40.8-33.7-47.5-38.3c-6.7-4.8-12.7-34.6-12.7-34.6s-75.6,28.2-116.6-21.4
			c0,0-4.9,60.5-25.3,80.1c-23,22.2-56.9,11.5-56.9,11.5s26.7,75.1,10,115.7c0,0-25.6,17.1-47.9-4.1c0,0-1.6-61.5,0-101.2
			c1.7-39.8,14.2-44.2,16.4-45.1c2.2-0.9,22.3,0.8,32.3-13.2c10-14.2-13.2-95.2,7.1-144.2c22.4-54.3,94.6-18,148.7-32.5
			c62.3-16.8,40.1-72.7,59.6-136.3c0,0-34-20.4-34-46.3c0-4,29.5,0.4,29.5,0.4s14.9-6.2,33,19c0,0-1.4-3.8,8.3,0.9
			c0,0,5-44.6,20-63.6c5.4-6.9,27.5,0.9,28.7,0.9c4.5,0-18.5,84.6-18.5,84.6c1.8,2.6,16.6,21.4,16.2,48.5c0,0-0.8,24.1,15.5,34.7
			C476.1,1337.8,476.8,1353.1,470.8,1373.2z"/>
		<linearGradient id="SVGID_19_" gradientUnits="userSpaceOnUse" x1="263.5456" y1="1741.8485" x2="263.5456" y2="1166.4087">
			<stop  offset="0" style="stop-color:#FFB8BD"/>
			<stop  offset="1" style="stop-color:#FFEAB8"/>
		</linearGradient>
		<path class="st26" d="M439.7,1373.2l-8.2-3.5l2.8,9.7c0,0-3.3,7.9-8.9,10.6c0,0-4.4-0.7-13.2-2.9h-0.1c-0.1-0.1-0.2-0.1-0.4-0.1
			c-3-0.8-6.5-1.9-10.6-3.1c-9.7-2.9-17.4-7.9-20.2,11.8c-1.7,11.6-1.7,31.9,0.6,66.3c3.2,49.5-19.6,66.1-21.8,74.4
			c-2.2,8.2,28,37.6,43.5,50.5c15.6,13,20,104.8,16.3,113c0,0-20,20.1-46,0c0,0,5.9-68.3,5.2-77.7c-0.8-9.4-40.8-33.7-47.5-38.3
			c-6.7-4.8-12.7-34.6-12.7-34.6s-75.6,28.2-116.6-21.4c0,0-4.9,60.5-25.3,80.1c-23,22.2-56.9,11.5-56.9,11.5s26.7,75.1,10,115.7
			c0,0-25.6,17.1-47.9-4.1c0,0,12.8-36.6,14.5-76.3c1.7-39.8-0.2-69.2,2-70c2.2-0.9,22.3,0.8,32.3-13.2c10-14.2-13.2-95.2,7.1-144.2
			c22.4-54.3,94.6-18,148.7-32.5c62.3-16.8,40.1-72.7,59.6-136.3c0,0-6.6-8.8-4.5-45.9c0,0,14.9-6.2,33,19c0,0,8.3,0.9,18.1,5.7
			c0,0,36.2-71.1,40.8-71.1c4.5,0-20.4,88.2-20.4,88.2c1.8,2.6,16.6,21.4,16.2,48.5c0,0-0.8,24.1,15.5,34.7
			C445,1337.8,445.7,1353.1,439.7,1373.2z"/>
		<path class="st15" d="M382.3,1301c0,0-4.2-23.6,7.5-28.4c11.7-4.9,23.9,12.6,20.3,39.9L382.3,1301z"/>
		<path class="st16" d="M412.1,1319.9c0,0,2.2-31.1-10.5-39.2c-13.3-8.5-18.9,8.3-19.3,18.3c-0.4,10,3.8,22.5,14.1,25.3
			C406.7,1327.2,412.1,1319.9,412.1,1319.9z"/>
		<ellipse class="st17" cx="395.5" cy="1299" rx="10.6" ry="19.2"/>
		<linearGradient id="SVGID_20_" gradientUnits="userSpaceOnUse" x1="91.4645" y1="1615.1499" x2="91.4645" y2="1383.3579">
			<stop  offset="0" style="stop-color:#777000"/>
			<stop  offset="1" style="stop-color:#9D9A00"/>
		</linearGradient>
		<path class="st27" d="M150.2,1411.5c0,0-19.4-37.8-47.2-25.8c-34,14.5-72.3,131.2-70.1,193c0,0,11.2,26,58.6,36.4
			c0,0,3.4-180.6,26.5-198.1c13.9-10.5,19.9,10.4,19.9,10.4L150.2,1411.5z"/>
		<linearGradient id="SVGID_21_" gradientUnits="userSpaceOnUse" x1="188.6773" y1="1425.7004" x2="301.382" y2="1425.7004">
			<stop  offset="0" style="stop-color:#D2023E"/>
			<stop  offset="0.9944" style="stop-color:#9C0244"/>
		</linearGradient>
		<path class="st28" d="M188.7,1396.5c0,0,1.5,40.2,12.2,62c10.8,21.8,69,18.8,81.6,2.4s18.8-83.6,18.8-83.6s-19.1,12.4-56.2,12.4
			c-37.1,0-56.5-2.6-56.5-2.6V1396.5z"/>
		<linearGradient id="SVGID_22_" gradientUnits="userSpaceOnUse" x1="360.1994" y1="1368.7688" x2="411.8381" y2="1368.7688">
			<stop  offset="0" style="stop-color:#890050"/>
			<stop  offset="1" style="stop-color:#DB6D57"/>
		</linearGradient>
		<path class="st29" d="M411.8,1387c-3-0.8-6.5-1.9-10.6-3.1c-9.7-2.9-17.4-7.9-20.2,11.8c-4.1-4.8-16.8-21.9-20.9-53.9
			c0.8,3.5,4.3,17.8,15.2,26.7C386.9,1377.8,408.4,1385.6,411.8,1387z"/>
		<linearGradient id="SVGID_23_" gradientUnits="userSpaceOnUse" x1="176.0671" y1="1522.8135" x2="230.3208" y2="1522.8135">
			<stop  offset="0" style="stop-color:#DB6D57"/>
			<stop  offset="1" style="stop-color:#890050"/>
		</linearGradient>
		<path class="st30" d="M227,1565.9l-29.4-7.7c0,0-4.9-43-21.5-78.3c0,0,31,53.9,32.8,55.5c1.7,1.6-1.7-1.6-1.7-1.6s7.4,7,10.1,8.9
			c3.1,2.1,13.1,6.9,13.1,6.9L227,1565.9z"/>
		<path class="st17" d="M318,1377.3h-16.6c0,0-8.5,71-18.8,83.6c-10.4,12.7-39.3,13.1-39.3,13.1s28.9,3.5,44.8-15.1
			C303.9,1440.5,318,1377.3,318,1377.3z"/>
		<linearGradient id="SVGID_24_" gradientUnits="userSpaceOnUse" x1="403.3777" y1="1598.9248" x2="444.9953" y2="1598.9248">
			<stop  offset="0" style="stop-color:#FFB8BD"/>
			<stop  offset="1" style="stop-color:#FFEAB8"/>
		</linearGradient>
		<path class="st31" d="M403.4,1587h31.1c0,0,8,8,10.5,23.9h-31.5C413.5,1610.9,409.8,1595.8,403.4,1587z"/>
		<linearGradient id="SVGID_25_" gradientUnits="userSpaceOnUse" x1="359.8469" y1="1511.0753" x2="411.8381" y2="1511.0753">
			<stop  offset="0" style="stop-color:#890050"/>
			<stop  offset="1" style="stop-color:#DB6D57"/>
		</linearGradient>
		<path class="st32" d="M359.8,1536.4H391c0,0,19.7-27.3,20.9-47.8l-29.5-2.9C382.3,1485.7,376.3,1520,359.8,1536.4z"/>
		<linearGradient id="SVGID_26_" gradientUnits="userSpaceOnUse" x1="430.2614" y1="1325.1593" x2="476.075" y2="1325.1593">
			<stop  offset="0" style="stop-color:#FFB8BD"/>
			<stop  offset="1" style="stop-color:#FFEAB8"/>
		</linearGradient>
		<path class="st33" d="M445,1337.8h31.1c0,0-10.9-4.4-14.7-25.3h-31.1C430.3,1312.5,434.2,1332.4,445,1337.8z"/>
		<linearGradient id="SVGID_27_" gradientUnits="userSpaceOnUse" x1="431.5757" y1="1374.4584" x2="465.5012" y2="1374.4584">
			<stop  offset="0" style="stop-color:#890050"/>
			<stop  offset="1" style="stop-color:#DB6D57"/>
		</linearGradient>
		<polygon class="st34" points="434.4,1379.3 465.5,1379.3 462.7,1369.6 439.7,1373.2 431.6,1369.6 		"/>
	</g>
	<linearGradient id="SVGID_28_" gradientUnits="userSpaceOnUse" x1="796.327" y1="1164.5625" x2="1162.0981" y2="1164.5625">
		<stop  offset="0" style="stop-color:#890050"/>
		<stop  offset="1" style="stop-color:#DB6D57"/>
	</linearGradient>
	<path class="st35" d="M796.3,1081.7c0,0,126.1,1.8,231.5,68.9c105.5,67.1,134.2,177.2,134.2,177.2l-6.1-289.7
		c0,0-152.3-89.5-359.4,10.6L796.3,1081.7z"/>
	<polygon class="st11" points="824.3,898 824.3,1451.8 844.8,1451.8 839.3,894.7 	"/>
	<g>
		<path class="st18" d="M1079.9,1348.9c0,0-20.4-96.7-104.9-96.8c-104.6-0.1-116.8,150.7-100.6,199.7c0,0,56.6-9.4,67-37.7
			c10.5-28.3,12.9-108.5,55.6-119.1C1039.8,1284.5,1078.9,1337.8,1079.9,1348.9z"/>
		<linearGradient id="SVGID_29_" gradientUnits="userSpaceOnUse" x1="964.8423" y1="1451.9106" x2="964.8423" y2="1252.1656">
			<stop  offset="0" style="stop-color:#777000"/>
			<stop  offset="1" style="stop-color:#9D9A00"/>
		</linearGradient>
		<path class="st36" d="M1070.5,1348.9c0,0-20.4-96.7-104.9-96.8c-104.6-0.1-116.8,150.7-100.6,199.7c0,0,56.6-9.4,67-37.7
			s12.9-108.5,55.6-119.1C1030.5,1284.5,1069.5,1337.8,1070.5,1348.9z"/>
		<path class="st18" d="M683.7,1468.5c0,0-28-37.8-68.3-25.8c-49.1,14.5-104.5,131.2-101.3,193c0,0,16.1,26,84.7,36.4
			c0,0,4.9-180.6,38.4-198.1c20.1-10.5,28.7,10.4,28.7,10.4L683.7,1468.5z"/>
		<path class="st8" d="M1095.6,1430.1l-11.8-3.5l4.1,9.7c0,0-4.8,7.9-12.9,10.6c0,0-6.4-0.7-19-2.9h-0.1c-0.1-0.1-0.3-0.1-0.6-0.1
			c-4.3-0.8-9.4-1.9-15.3-3.1c-14-2.9-25.1-7.9-29.2,11.8c-2.5,11.6-2.5,31.9,0.8,66.3c4.7,49.5-28.3,66.1-31.5,74.4
			c-3.2,8.2,40.4,37.6,62.9,50.5c22.5,13,29,104.8,23.6,113c0,0-29,20-66.5,0c0,0,8.6-68.3,7.5-77.7c-1.1-9.4-58.9-33.7-68.6-38.3
			c-9.7-4.8-18.4-34.6-18.4-34.6s-109.3,28.2-168.6-21.4c0,0-7.1,60.5-36.5,80.1c-33.2,22.2-82.2,11.5-82.2,11.5
			s38.6,75.1,14.5,115.7c0,0-37,17.1-69.2-4.1c0,0,18.5-36.6,20.9-76.3c2.5-39.8-0.3-69.2,2.9-70c3.2-0.9,32.2,0.8,46.6-13.2
			c14.5-14.2-19-95.2,10.3-144.2c32.4-54.3,136.7-18,215-32.5c90.1-16.8,57.9-72.7,86.2-136.3c0,0-9.6-8.8-6.5-45.9
			c0,0,21.6-6.2,47.7,19c0,0,12.1,0.9,26.2,5.7c0,0,46-71.1,52.6-71.1c6.5,0-23.1,88.2-23.1,88.2c2.5,2.6,24,21.4,23.4,48.5
			c0,0-1.2,24.1,22.4,34.7C1103.2,1394.8,1104.2,1410,1095.6,1430.1z"/>
		<linearGradient id="SVGID_30_" gradientUnits="userSpaceOnUse" x1="834.5255" y1="1798.7955" x2="834.5255" y2="1223.3557">
			<stop  offset="0" style="stop-color:#FFB8BD"/>
			<stop  offset="1" style="stop-color:#FFEAB8"/>
		</linearGradient>
		<path class="st37" d="M1089.2,1430.1l-11.8-3.5l4.1,9.7c0,0-4.8,7.9-12.9,10.6c0,0-6.4-0.7-19-2.9h-0.1c-0.1-0.1-0.3-0.1-0.6-0.1
			c-4.3-0.8-9.4-1.9-15.3-3.1c-14-2.9-25.1-7.9-29.2,11.8c-2.5,11.6-2.5,31.9,0.8,66.3c4.7,49.5-28.3,66.1-31.5,74.4
			c-3.2,8.2,40.4,37.6,62.9,50.5c22.5,13,29,104.8,23.6,113c0,0-29,20-66.5,0c0,0,8.6-68.3,7.5-77.7c-1.1-9.4-58.9-33.7-68.6-38.3
			c-9.7-4.8-18.4-34.6-18.4-34.6s-109.3,28.2-168.6-21.4c0,0-7.1,60.5-36.5,80.1c-33.2,22.2-82.2,11.5-82.2,11.5
			s38.6,75.1,14.5,115.7c0,0-37,17.1-69.2-4.1c0,0,18.5-36.6,20.9-76.3c2.5-39.8-0.3-69.2,2.9-70c3.2-0.9,32.2,0.8,46.6-13.2
			c14.5-14.2-19-95.2,10.3-144.2c32.4-54.3,136.7-18,215-32.5c90.1-16.8,57.9-72.7,86.2-136.3c0,0-9.6-8.8-6.5-45.9
			c0,0,21.6-6.2,47.7,19c0,0,12.1,0.9,26.2,5.7c0,0,52.4-71.1,59-71.1c6.5,0-29.5,88.2-29.5,88.2c2.5,2.6,24,21.4,23.4,48.5
			c0,0-1.2,24.1,22.4,34.7C1096.8,1394.8,1097.8,1410,1089.2,1430.1z"/>
		<path class="st15" d="M1006.2,1358c0,0-6-23.6,10.9-28.4c16.9-4.9,34.6,12.6,29.4,39.9L1006.2,1358z"/>
		<path class="st16" d="M1049.3,1376.8c0,0,3.2-31.1-15.1-39.2c-19.3-8.5-27.4,8.3-27.9,18.3c-0.5,10,5.5,22.5,20.4,25.3
			C1041.5,1384.1,1049.3,1376.8,1049.3,1376.8z"/>
		<path class="st17" d="M1040.6,1356c0,10.6-6.9,19.2-15.4,19.2c-8.5,0-15.4-8.6-15.4-19.2s6.9-19.2,15.4-19.2
			C1033.7,1336.8,1040.6,1345.4,1040.6,1356z"/>
		<linearGradient id="SVGID_31_" gradientUnits="userSpaceOnUse" x1="585.7917" y1="1672.0951" x2="585.7917" y2="1440.3043">
			<stop  offset="0" style="stop-color:#777000"/>
			<stop  offset="1" style="stop-color:#9D9A00"/>
		</linearGradient>
		<path class="st38" d="M670.6,1468.5c0,0-28-37.8-68.3-25.8c-49.1,14.5-104.5,131.2-101.3,193c0,0,16.1,26,84.7,36.4
			c0,0,4.9-180.6,38.4-198.1c20.1-10.5,28.7,10.4,28.7,10.4L670.6,1468.5z"/>
		<linearGradient id="SVGID_32_" gradientUnits="userSpaceOnUse" x1="726.3077" y1="1482.6475" x2="889.2153" y2="1482.6475">
			<stop  offset="0" style="stop-color:#D2023E"/>
			<stop  offset="0.9944" style="stop-color:#9C0244"/>
		</linearGradient>
		<path class="st39" d="M726.3,1453.5c0,0,2.2,40.3,17.7,62c15.6,21.8,99.7,18.8,118,2.4c18.2-16.5,27.2-83.6,27.2-83.6
			s-27.6,12.4-81.2,12.4c-53.6,0-81.7-2.6-81.7-2.6V1453.5z"/>
		<linearGradient id="SVGID_33_" gradientUnits="userSpaceOnUse" x1="974.232" y1="1425.7158" x2="1048.8716" y2="1425.7158">
			<stop  offset="0" style="stop-color:#890050"/>
			<stop  offset="1" style="stop-color:#DB6D57"/>
		</linearGradient>
		<path class="st40" d="M1048.9,1443.9c-4.3-0.8-9.4-1.9-15.3-3.1c-14-2.9-25.1-7.9-29.2,11.8c-5.9-4.8-24.3-21.9-30.1-53.9
			c1.1,3.5,6.2,17.8,22,26.7C1012.9,1434.8,1043.9,1442.6,1048.9,1443.9z"/>
		<linearGradient id="SVGID_34_" gradientUnits="userSpaceOnUse" x1="708.0812" y1="1575.8872" x2="756.1411" y2="1575.8872">
			<stop  offset="0" style="stop-color:#DB6D57"/>
			<stop  offset="1" style="stop-color:#890050"/>
		</linearGradient>
		<path class="st41" d="M747,1615.1h-7.8c0,0-7.1-43-31.1-78.3c0,0,44.9,53.9,47.4,55.5c2.5,1.6-2.5-1.6-2.5-1.6l-2.1-1.1
			L747,1615.1z"/>
		<path class="st17" d="M913.2,1434.2h-24c0,0-12.2,71-27.2,83.6c-15,12.7-56.8,13.1-56.8,13.1s41.8,3.5,64.8-15.1
			C892.8,1497.4,913.2,1434.2,913.2,1434.2z"/>
	</g>
	<linearGradient id="SVGID_35_" gradientUnits="userSpaceOnUse" x1="39.7472" y1="630.2888" x2="2000" y2="630.2888">
		<stop  offset="5.586590e-03" style="stop-color:#FF1144"/>
		<stop  offset="1" style="stop-color:#FF7566"/>
	</linearGradient>
	<path class="st42" d="M82.1,888.9c0,0-22.9-101.1,61.8-149.1c84.7-48,183.8,27.3,183.8,27.3s35.6-130.9,235.6-226
		s435.9-35.3,435.9-35.3s260-37.7,505.2,63.6c245.2,101.3,233.3,201.1,233.3,201.1s125.6-29.1,177.1,13.3c51.5,42.4,7.4,122,7.4,122
		L2000,834l-202.4-167.6L1003,354.9L289,625.8l-249.2,177L82.1,888.9z"/>
	<linearGradient id="SVGID_36_" gradientUnits="userSpaceOnUse" x1="1023.6395" y1="161.8147" x2="1023.6395" y2="0">
		<stop  offset="0" style="stop-color:#FF8631"/>
		<stop  offset="1" style="stop-color:#FFCC1B"/>
	</linearGradient>
	<path class="st43" d="M969,161.8l-22.1-57c0,0-2.7-39.5,73-104.9c0,0,52.7,34.7,80.6,108.3l-29.9,53.5H969z"/>
	<path class="st44" d="M946.8,104.9l76.8-4L1019.9,0C1019.9,0,963.8,44.9,946.8,104.9z"/>
	<linearGradient id="SVGID_37_" gradientUnits="userSpaceOnUse" x1="372.8635" y1="945.7545" x2="372.8635" y2="917.9199">
		<stop  offset="0" style="stop-color:#FFF431"/>
		<stop  offset="1" style="stop-color:#FFFF1B"/>
	</linearGradient>
	<path class="st45" d="M385.5,931.8c0,7.7-5.7,13.9-12.7,13.9c-7,0-12.7-6.2-12.7-13.9c0-7.7,5.7-13.9,12.7-13.9
		C379.9,917.9,385.5,924.1,385.5,931.8z"/>
	<linearGradient id="SVGID_38_" gradientUnits="userSpaceOnUse" x1="578.6859" y1="902.7952" x2="578.6859" y2="874.9606">
		<stop  offset="0" style="stop-color:#FFF431"/>
		<stop  offset="1" style="stop-color:#FFFF1B"/>
	</linearGradient>
	<path class="st46" d="M591.4,888.9c0,7.7-5.7,13.9-12.7,13.9s-12.7-6.2-12.7-13.9s5.7-13.9,12.7-13.9S591.4,881.2,591.4,888.9z"/>
	<linearGradient id="SVGID_39_" gradientUnits="userSpaceOnUse" x1="783.6543" y1="857.3402" x2="783.6543" y2="829.5056">
		<stop  offset="0" style="stop-color:#FFF431"/>
		<stop  offset="1" style="stop-color:#FFFF1B"/>
	</linearGradient>
	<path class="st47" d="M796.3,843.4c0,7.7-5.7,13.9-12.7,13.9s-12.7-6.2-12.7-13.9s5.7-13.9,12.7-13.9S796.3,835.7,796.3,843.4z"/>
	<linearGradient id="SVGID_40_" gradientUnits="userSpaceOnUse" x1="991.4026" y1="687.6595" x2="2000" y2="687.6595">
		<stop  offset="0" style="stop-color:#DB6D57"/>
		<stop  offset="1" style="stop-color:#890050"/>
	</linearGradient>
	<polygon class="st48" points="991.4,803.9 1003,354.9 1797.6,666.4 2000,834 1797.6,1020.4 1643.4,933.9 	"/>
	<linearGradient id="SVGID_41_" gradientUnits="userSpaceOnUse" x1="1643.3839" y1="843.4229" x2="2000" y2="843.4229">
		<stop  offset="0" style="stop-color:#DB6D57"/>
		<stop  offset="1" style="stop-color:#890050"/>
	</linearGradient>
	<polygon class="st49" points="1643.4,933.9 1797.6,666.4 2000,834 1797.6,1020.4 	"/>
	<linearGradient id="SVGID_42_" gradientUnits="userSpaceOnUse" x1="991.4026" y1="817.8182" x2="991.4026" y2="789.9836">
		<stop  offset="0" style="stop-color:#FFF431"/>
		<stop  offset="1" style="stop-color:#FFFF1B"/>
	</linearGradient>
	<path class="st50" d="M1004.1,803.9c0,7.7-5.7,13.9-12.7,13.9c-7,0-12.7-6.2-12.7-13.9s5.7-13.9,12.7-13.9
		C998.4,790,1004.1,796.2,1004.1,803.9z"/>
	<linearGradient id="SVGID_43_" gradientUnits="userSpaceOnUse" x1="1212.527" y1="866.0132" x2="1212.527" y2="838.1786">
		<stop  offset="0" style="stop-color:#FFF431"/>
		<stop  offset="1" style="stop-color:#FFFF1B"/>
	</linearGradient>
	<path class="st51" d="M1225.2,852.1c0,7.7-5.7,13.9-12.7,13.9s-12.7-6.2-12.7-13.9c0-7.7,5.7-13.9,12.7-13.9
		S1225.2,844.4,1225.2,852.1z"/>
	<linearGradient id="SVGID_44_" gradientUnits="userSpaceOnUse" x1="1419.4309" y1="902.7952" x2="1419.4309" y2="874.9606">
		<stop  offset="0" style="stop-color:#FFF431"/>
		<stop  offset="1" style="stop-color:#FFFF1B"/>
	</linearGradient>
	<path class="st52" d="M1432.1,888.9c0,7.7-5.7,13.9-12.7,13.9s-12.7-6.2-12.7-13.9s5.7-13.9,12.7-13.9S1432.1,881.2,1432.1,888.9z"
		/>
	<linearGradient id="SVGID_45_" gradientUnits="userSpaceOnUse" x1="1643.3831" y1="947.8236" x2="1643.3831" y2="919.9872">
		<stop  offset="0" style="stop-color:#FFF431"/>
		<stop  offset="1" style="stop-color:#FFFF1B"/>
	</linearGradient>
	<path class="st53" d="M1656.1,933.9c0,7.7-5.7,13.9-12.7,13.9c-7,0-12.7-6.2-12.7-13.9s5.7-13.9,12.7-13.9
		C1650.4,920,1656.1,926.2,1656.1,933.9z"/>
	<linearGradient id="SVGID_46_" gradientUnits="userSpaceOnUse" x1="1790.4668" y1="1034.3455" x2="1790.4668" y2="1006.509">
		<stop  offset="0" style="stop-color:#FFF431"/>
		<stop  offset="1" style="stop-color:#FFFF1B"/>
	</linearGradient>
	<path class="st54" d="M1803.1,1020.4c0,7.7-5.7,13.9-12.7,13.9s-12.7-6.2-12.7-13.9s5.7-13.9,12.7-13.9
		S1803.1,1012.7,1803.1,1020.4z"/>
	<linearGradient id="SVGID_47_" gradientUnits="userSpaceOnUse" x1="161.086" y1="1034.3455" x2="161.086" y2="1006.509">
		<stop  offset="0" style="stop-color:#FFF431"/>
		<stop  offset="1" style="stop-color:#FFFF1B"/>
	</linearGradient>
	<path class="st55" d="M173.8,1020.4c0,7.7-5.7,13.9-12.7,13.9c-7,0-12.7-6.2-12.7-13.9s5.7-13.9,12.7-13.9
		C168.1,1006.5,173.8,1012.7,173.8,1020.4z"/>
	<polygon class="st11" points="148.4,1023.8 39.7,802.8 289,625.8 372.9,931.8 	"/>
	<linearGradient id="SVGID_48_" gradientUnits="userSpaceOnUse" x1="1736.2136" y1="1932.7" x2="307.7184" y2="1925.26">
		<stop  offset="0" style="stop-color:#FF9D31"/>
		<stop  offset="1" style="stop-color:#FFCC1B"/>
	</linearGradient>
	<polygon class="st56" points="112.5,1851.9 91.5,2000 277,2000 297.5,1849.3 	"/>
	<linearGradient id="SVGID_49_" gradientUnits="userSpaceOnUse" x1="1736.2917" y1="1927.7296" x2="307.8716" y2="1920.29">
		<stop  offset="0" style="stop-color:#FF9D31"/>
		<stop  offset="1" style="stop-color:#FFCC1B"/>
	</linearGradient>
	<polygon class="st57" points="453.1,1846.4 448.5,2000 617.5,2000 634.4,1843 	"/>
	<linearGradient id="SVGID_50_" gradientUnits="userSpaceOnUse" x1="1736.4338" y1="1922.7228" x2="308.0493" y2="1915.2834">
		<stop  offset="0" style="stop-color:#FF9D31"/>
		<stop  offset="1" style="stop-color:#FFCC1B"/>
	</linearGradient>
	<polygon class="st58" points="799.2,1839.9 794.5,2000 963.4,2000 976.6,1836.6 	"/>
	<linearGradient id="SVGID_51_" gradientUnits="userSpaceOnUse" x1="1761.7335" y1="1917.234" x2="268.1844" y2="1909.4553">
		<stop  offset="0" style="stop-color:#FF9D31"/>
		<stop  offset="1" style="stop-color:#FFCC1B"/>
	</linearGradient>
	<polygon class="st59" points="1190.8,1832.6 1185.9,2000 1367.1,2000 1360.1,1829.4 	"/>
	<linearGradient id="SVGID_52_" gradientUnits="userSpaceOnUse" x1="1736.8884" y1="1911.1365" x2="307.9031" y2="1903.6941">
		<stop  offset="0" style="stop-color:#FF9D31"/>
		<stop  offset="1" style="stop-color:#FFCC1B"/>
	</linearGradient>
	<polygon class="st60" points="1612.3,1824.6 1607.1,2000 1776,2000 1766.1,1821.7 	"/>
	<linearGradient id="SVGID_53_" gradientUnits="userSpaceOnUse" x1="0" y1="1987.1643" x2="1930.0546" y2="1987.1643">
		<stop  offset="0" style="stop-color:#896050"/>
		<stop  offset="1" style="stop-color:#FFBD57"/>
	</linearGradient>
	<path class="st61" d="M1930.1,2000c0,0-1313.1-57.8-1930.1,0H1930.1z"/>
	<linearGradient id="SVGID_54_" gradientUnits="userSpaceOnUse" x1="29.2555" y1="1838.4861" x2="1879.0847" y2="1838.4861">
		<stop  offset="0" style="stop-color:#D99022"/>
		<stop  offset="1" style="stop-color:#000000"/>
	</linearGradient>
	<path class="st62" d="M29.3,1854.4c0,0,1200.7,18,1849.8-34.8L29.3,1854.4z"/>
</g>
</svg>
