<?xml version="1.0" encoding="utf-8"?>
<!-- Generator: Adobe Illustrator 23.0.3, SVG Export Plug-In . SVG Version: 6.00 Build 0)  -->
<svg version="1.1" id="Layer_1" xmlns="http://www.w3.org/2000/svg" xmlns:xlink="http://www.w3.org/1999/xlink" x="0px" y="0px"
	 viewBox="0 0 2000 2000" style="enable-background:new 0 0 2000 2000;" xml:space="preserve">
<style type="text/css">
	.st0{opacity:0.5;fill-rule:evenodd;clip-rule:evenodd;fill:url(#SVGID_1_);}
	.st1{fill-rule:evenodd;clip-rule:evenodd;fill:url(#SVGID_2_);}
	.st2{fill-rule:evenodd;clip-rule:evenodd;fill:url(#SVGID_3_);}
	.st3{fill-rule:evenodd;clip-rule:evenodd;fill:#FF6313;}
	.st4{fill-rule:evenodd;clip-rule:evenodd;fill:#AC2C13;}
	.st5{opacity:0.5;fill-rule:evenodd;clip-rule:evenodd;fill:url(#SVGID_4_);}
	.st6{fill-rule:evenodd;clip-rule:evenodd;fill:url(#SVGID_5_);}
	.st7{fill-rule:evenodd;clip-rule:evenodd;fill:url(#SVGID_6_);}
	.st8{opacity:0.5;fill-rule:evenodd;clip-rule:evenodd;fill:url(#SVGID_7_);}
	.st9{fill-rule:evenodd;clip-rule:evenodd;fill:url(#SVGID_8_);}
	.st10{fill-rule:evenodd;clip-rule:evenodd;fill:url(#SVGID_9_);}
	.st11{fill:#FFFFE4;}
	.st12{fill-rule:evenodd;clip-rule:evenodd;fill:url(#SVGID_10_);}
	.st13{fill-rule:evenodd;clip-rule:evenodd;fill:url(#SVGID_11_);}
	.st14{fill:#FFE8AA;}
	.st15{fill:#C91C00;}
	.st16{fill:#FFFFFF;}
	.st17{fill:#F42900;}
	.st18{font-family:'FunkyStoneage';}
	.st19{font-size:146.3396px;}
</style>
<radialGradient id="SVGID_1_" cx="566.0841" cy="1438.1575" r="63.7851" gradientTransform="matrix(-1.9501 0 0 1.5696 2766.4705 -1210.2491)" gradientUnits="userSpaceOnUse">
	<stop  offset="0" style="stop-color:#FF5B00"/>
	<stop  offset="8.662742e-02" style="stop-color:#D84D00"/>
	<stop  offset="0.225" style="stop-color:#9F3900"/>
	<stop  offset="0.3639" style="stop-color:#6F2700"/>
	<stop  offset="0.5003" style="stop-color:#471900"/>
	<stop  offset="0.6338" style="stop-color:#280E00"/>
	<stop  offset="0.7635" style="stop-color:#120600"/>
	<stop  offset="0.8875" style="stop-color:#050200"/>
	<stop  offset="1" style="stop-color:#000000"/>
</radialGradient>
<ellipse class="st0" cx="1662.6" cy="1047.1" rx="124.4" ry="100.1"/>
<g>
	<linearGradient id="SVGID_2_" gradientUnits="userSpaceOnUse" x1="1730.0345" y1="1128.8113" x2="1730.0345" y2="965.3416">
		<stop  offset="0" style="stop-color:#FF5713"/>
		<stop  offset="0.9944" style="stop-color:#E50244"/>
	</linearGradient>
	<path class="st1" d="M1609,1108.2l243,20.6l-4-163.5l-227.4,18.2C1620.7,983.6,1604.1,1041.6,1609,1108.2z"/>
	
		<linearGradient id="SVGID_3_" gradientUnits="userSpaceOnUse" x1="1744.007" y1="907.1989" x2="1934.2688" y2="907.1989" gradientTransform="matrix(0.9572 0.2893 -0.2893 0.9572 324.0513 -359.2093)">
		<stop  offset="0" style="stop-color:#FF9D31"/>
		<stop  offset="1" style="stop-color:#FFCC1B"/>
	</linearGradient>
	<polygon class="st2" points="1848,965.3 1870,1014.6 1920,1045.9 1871.5,1078.8 1852,1128.8 1800.1,1099.9 1738,1099.6 
		1754.4,1048.7 1735.5,998.5 1797.6,996 	"/>
	<polygon class="st3" points="1735.5,998.5 1621.2,1000.3 1622.2,997.2 1797.6,996 	"/>
	<polygon class="st4" points="1738,1099.6 1608.9,1096.9 1608.9,1101.3 1800.1,1099.9 	"/>
	<linearGradient id="SVGID_4_" gradientUnits="userSpaceOnUse" x1="1612.0842" y1="1023.6455" x2="1754.371" y2="1023.6455">
		<stop  offset="0" style="stop-color:#890050"/>
		<stop  offset="1" style="stop-color:#DB6D57"/>
	</linearGradient>
	<polygon class="st5" points="1754.4,1048.7 1612.1,1048.7 1621.2,1000.3 1735.5,998.5 	"/>
</g>
<g>
	
		<linearGradient id="SVGID_5_" gradientUnits="userSpaceOnUse" x1="1876.0564" y1="1128.8113" x2="1876.0564" y2="965.3416" gradientTransform="matrix(-1 0 0 1 2109.7075 0)">
		<stop  offset="0" style="stop-color:#FF5713"/>
		<stop  offset="0.9944" style="stop-color:#E50244"/>
	</linearGradient>
	<path class="st6" d="M354.7,1108.2l-243,20.6l4-163.5L343,983.6C343,983.6,359.6,1041.6,354.7,1108.2z"/>
	
		<linearGradient id="SVGID_6_" gradientUnits="userSpaceOnUse" x1="1883.7896" y1="864.9516" x2="2074.0513" y2="864.9516" gradientTransform="matrix(-0.9572 0.2893 0.2893 0.9572 1785.6563 -359.2093)">
		<stop  offset="0" style="stop-color:#FF9D31"/>
		<stop  offset="1" style="stop-color:#FFCC1B"/>
	</linearGradient>
	<polygon class="st7" points="115.7,965.3 93.7,1014.6 43.7,1045.9 92.1,1078.8 111.7,1128.8 163.6,1099.9 225.7,1099.6 
		209.3,1048.7 228.1,998.5 166.1,996 	"/>
	<polygon class="st3" points="228.1,998.5 342.4,1000.3 341.5,997.2 166.1,996 	"/>
	<polygon class="st4" points="225.7,1099.6 354.8,1096.9 354.8,1101.3 163.6,1099.9 	"/>
	
		<linearGradient id="SVGID_7_" gradientUnits="userSpaceOnUse" x1="1758.1061" y1="1023.6455" x2="1900.3928" y2="1023.6455" gradientTransform="matrix(-1 0 0 1 2109.7075 0)">
		<stop  offset="0" style="stop-color:#890050"/>
		<stop  offset="1" style="stop-color:#DB6D57"/>
	</linearGradient>
	<polygon class="st8" points="209.3,1048.7 351.6,1048.7 342.4,1000.3 228.1,998.5 	"/>
</g>
<g>
	<linearGradient id="SVGID_8_" gradientUnits="userSpaceOnUse" x1="209.4861" y1="1047.0778" x2="1764.0349" y2="1047.0778">
		<stop  offset="0" style="stop-color:#FFCC1B"/>
		<stop  offset="0.8069" style="stop-color:#D34C31"/>
		<stop  offset="0.9728" style="stop-color:#FFA431"/>
	</linearGradient>
	<path class="st9" d="M227.8,1297.6l-5.7-155.5l11.9-3.6c24.1-7.3,44.5-21.9,57.4-41c10.2-15.1,15.3-32.5,14.8-50.4
		c-0.7-21.2-9.1-41.3-24.5-58.1c-14-15.5-32.8-27-54.3-33.3l-12.4-3.6l-5.7-155.5H1764l-5.7,155.7l-12.2,3.7
		c-21.6,6.6-40.4,18.4-54.3,34.1c-14.7,16.6-22.8,36.3-23.5,57c-0.6,17.9,4.6,35.3,14.9,50.4c12.7,18.8,32.7,33.3,56.3,40.7
		l11.8,3.7l-5.7,155.7H227.8z"/>
	
		<radialGradient id="SVGID_9_" cx="1003.1429" cy="1414.6829" r="274.3993" gradientTransform="matrix(1.9501 0 0 1.6546 -969.4606 -1293.7222)" gradientUnits="userSpaceOnUse">
		<stop  offset="0" style="stop-color:#FF2A22"/>
		<stop  offset="0.9944" style="stop-color:#BF003B"/>
	</radialGradient>
	<path class="st10" d="M283.2,1249.1l-2.8-75.7c25-12.3,46-30.2,60.6-51.8c15.4-22.9,23.1-49.1,22.3-75.8
		c-1-31.5-13.6-61.5-36.4-86.5c-15.2-16.7-34.2-30.4-55.9-40.2l-2.7-74h1436.6l-2.7,74.6c-21.9,10.1-41.1,24.2-56.2,41.4
		c-21.8,24.6-33.9,54-34.9,84.8c-0.9,26.8,6.9,53.1,22.5,76c14.3,21.2,34.8,38.8,59.4,51.1l-2.8,76.2H283.2z"/>
	<g>
		<g>
			<path class="st11" d="M229.7,1310.1h-1.8c-8,0-14.5-5.4-14.8-12.2l-0.1-1.6c-0.2-6.9,6.2-12.7,14.3-12.9c4.7,0,8.8,1.6,11.6,4.3
				c3.4,2.3,5.5,5.8,5.5,9.8C244.5,1304.5,237.9,1310.1,229.7,1310.1z"/>
		</g>
		<g>
			<path class="st11" d="M225,1234.1c-7.9,0-14.5-5.4-14.8-12.2l-0.1-3.4c-0.3-6.9,6.1-12.7,14.3-12.9c7.9,0,15,5.2,15.3,12.1
				l0.1,3.4c0.3,6.9-6.1,12.7-14.3,12.9C225.4,1234.1,225.2,1234.1,225,1234.1z"/>
		</g>
		<g>
			<path class="st11" d="M222.2,1156.2c-8,0-14.5-5.4-14.8-12.2l-0.1-1.6c-0.2-5.4,3.8-10.4,9.8-12.2l1.7-0.5
				c7.7-2.3,16.2,1.1,18.9,7.6c1.8,4.4,0.7,9-2.6,12.3c-2.4,3.8-7.1,6.4-12.6,6.6C222.5,1156.2,222.3,1156.2,222.2,1156.2z"/>
		</g>
		<g>
			<path class="st11" d="M283.6,1120.2c-3.1,0-6.3-0.8-9-2.6c-6.5-4.2-7.7-12.1-2.8-17.6c0.6-0.6,1.1-1.3,1.7-1.9
				c4.7-5.7,14-7,20.6-3c6.7,4,8.3,11.8,3.5,17.5c-0.7,0.9-1.5,1.8-2.3,2.6C292.4,1118.5,288,1120.2,283.6,1120.2z M306.3,1059.6
				c-8,0-14.6-5.4-14.8-12.2l-0.1-2.5c-0.4-6.9,5.9-12.8,14-13.2c7.8-0.3,15.1,5,15.5,11.9l0.2,3.1c0.2,6.9-6.2,12.7-14.4,12.9
				C306.6,1059.6,306.4,1059.6,306.3,1059.6z M280.3,999.8c-4.3,0-8.6-1.6-11.5-4.7l-1.9-1.9c-5.3-5.3-4.5-13.2,1.7-17.7
				c6.2-4.5,15.6-3.8,20.8,1.4c0.8,0.8,1.6,1.6,2.4,2.4c5.1,5.4,4.1,13.3-2.2,17.6C286.8,998.9,283.5,999.8,280.3,999.8z"/>
		</g>
		<g>
			<path class="st11" d="M216.9,965.1c-1.6,0-3.2-0.2-4.8-0.7l-1.7-0.5c-5.8-1.7-9.8-6.3-9.9-11.5l-0.1-1.6
				c-0.2-6.9,6.2-12.7,14.3-12.9c5.5-0.1,10.6,2.4,13.2,6.2c3.5,3.3,4.8,8.1,3,12.5C228.8,961.9,223,965.1,216.9,965.1z"/>
		</g>
		<g>
			<path class="st11" d="M212.4,888.6c-7.9,0-14.5-5.4-14.8-12.2l-0.1-3.4c-0.3-6.9,6.1-12.7,14.3-12.9c8,0,15,5.2,15.3,12.1
				l0.1,3.4c0.3,6.9-6.1,12.7-14.3,12.9C212.7,888.6,212.5,888.6,212.4,888.6z"/>
		</g>
		<g>
			<path class="st11" d="M209.5,810.7c-8,0-14.5-5.4-14.8-12.2l-0.1-1.6c-0.1-3.4,1.4-6.7,4.2-9.1c2.8-2.4,6.6-3.8,10.6-3.8h1.9
				c8.2,0,14.8,5.6,14.8,12.5c0,3.8-2,7.2-5.1,9.5c-2.6,2.7-6.6,4.5-11,4.6C209.8,810.7,209.7,810.7,209.5,810.7z"/>
		</g>
		<g>
			<path class="st11" d="M1679.6,809.1h-3.8c-8.2,0-14.8-5.6-14.8-12.5c0-6.9,6.6-12.5,14.8-12.5h3.8c8.2,0,14.8,5.6,14.8,12.5
				C1694.4,803.5,1687.7,809.1,1679.6,809.1z M1593.2,809.1h-3.8c-8.2,0-14.8-5.6-14.8-12.5c0-6.9,6.6-12.5,14.8-12.5h3.8
				c8.2,0,14.8,5.6,14.8,12.5C1608,803.5,1601.4,809.1,1593.2,809.1z M1506.8,809.1h-3.8c-8.2,0-14.8-5.6-14.8-12.5
				c0-6.9,6.6-12.5,14.8-12.5h3.8c8.2,0,14.8,5.6,14.8,12.5C1521.6,803.5,1515,809.1,1506.8,809.1z M1420.5,809.1h-3.8
				c-8.2,0-14.8-5.6-14.8-12.5c0-6.9,6.6-12.5,14.8-12.5h3.8c8.2,0,14.8,5.6,14.8,12.5C1435.3,803.5,1428.6,809.1,1420.5,809.1z
				 M1334.1,809.1h-3.8c-8.2,0-14.8-5.6-14.8-12.5c0-6.9,6.6-12.5,14.8-12.5h3.8c8.2,0,14.8,5.6,14.8,12.5
				C1348.9,803.5,1342.3,809.1,1334.1,809.1z M1247.7,809.1h-3.8c-8.2,0-14.8-5.6-14.8-12.5c0-6.9,6.6-12.5,14.8-12.5h3.8
				c8.2,0,14.8,5.6,14.8,12.5C1262.5,803.5,1255.9,809.1,1247.7,809.1z M1161.4,809.1h-3.8c-8.2,0-14.8-5.6-14.8-12.5
				c0-6.9,6.6-12.5,14.8-12.5h3.8c8.2,0,14.8,5.6,14.8,12.5C1176.2,803.5,1169.5,809.1,1161.4,809.1z M1075,809.1h-3.8
				c-8.2,0-14.8-5.6-14.8-12.5c0-6.9,6.6-12.5,14.8-12.5h3.8c8.2,0,14.8,5.6,14.8,12.5C1089.8,803.5,1083.2,809.1,1075,809.1z
				 M988.6,809.1h-3.8c-8.2,0-14.8-5.6-14.8-12.5c0-6.9,6.6-12.5,14.8-12.5h3.8c8.2,0,14.8,5.6,14.8,12.5
				C1003.4,803.5,996.8,809.1,988.6,809.1z M902.3,809.1h-3.8c-8.2,0-14.8-5.6-14.8-12.5c0-6.9,6.6-12.5,14.8-12.5h3.8
				c8.2,0,14.8,5.6,14.8,12.5C917.1,803.5,910.4,809.1,902.3,809.1z M815.9,809.1h-3.8c-8.2,0-14.8-5.6-14.8-12.5
				c0-6.9,6.6-12.5,14.8-12.5h3.8c8.2,0,14.8,5.6,14.8,12.5C830.7,803.5,824.1,809.1,815.9,809.1z M729.5,809.1h-3.8
				c-8.2,0-14.8-5.6-14.8-12.5c0-6.9,6.6-12.5,14.8-12.5h3.8c8.2,0,14.8,5.6,14.8,12.5C744.3,803.5,737.7,809.1,729.5,809.1z
				 M643.2,809.1h-3.8c-8.2,0-14.8-5.6-14.8-12.5c0-6.9,6.6-12.5,14.8-12.5h3.8c8.2,0,14.8,5.6,14.8,12.5
				C658,803.5,651.3,809.1,643.2,809.1z M556.8,809.1H553c-8.2,0-14.8-5.6-14.8-12.5c0-6.9,6.6-12.5,14.8-12.5h3.8
				c8.2,0,14.8,5.6,14.8,12.5C571.6,803.5,565,809.1,556.8,809.1z M470.4,809.1h-3.8c-8.2,0-14.8-5.6-14.8-12.5
				c0-6.9,6.6-12.5,14.8-12.5h3.8c8.2,0,14.8,5.6,14.8,12.5C485.2,803.5,478.6,809.1,470.4,809.1z M384.1,809.1h-3.8
				c-8.2,0-14.8-5.6-14.8-12.5c0-6.9,6.6-12.5,14.8-12.5h3.8c8.2,0,14.8,5.6,14.8,12.5C398.9,803.5,392.2,809.1,384.1,809.1z
				 M297.7,809.1h-3.8c-8.2,0-14.8-5.6-14.8-12.5c0-6.9,6.6-12.5,14.8-12.5h3.8c8.2,0,14.8,5.6,14.8,12.5
				C312.5,803.5,305.9,809.1,297.7,809.1z"/>
		</g>
		<g>
			<path class="st11" d="M1764,810.7c-0.2,0-0.3,0-0.5,0c-4.5-0.1-8.4-1.9-11-4.6c-3.1-2.3-5.1-5.7-5.1-9.5
				c0-6.9,6.6-12.5,14.8-12.5h1.9c4,0,7.8,1.4,10.6,3.8c2.8,2.4,4.3,5.7,4.2,9.1l-0.1,1.6C1778.5,805.3,1772,810.7,1764,810.7z"/>
		</g>
		<g>
			<path class="st11" d="M1761.1,888.7c-0.2,0-0.3,0-0.5,0c-8.2-0.2-14.6-6-14.3-12.9l0.1-3.4c0.3-6.9,6.9-12.2,15.3-12.1
				c8.2,0.2,14.6,6,14.3,12.9l-0.1,3.4C1775.6,883.3,1769.1,888.7,1761.1,888.7z"/>
		</g>
		<g>
			<path class="st11" d="M1756.6,965.3c-6.1,0-11.8-3.2-13.9-8.3c-1.9-4.5-0.6-9.3,2.9-12.6c2.6-3.8,7.7-6.2,13.2-6.2
				c8.2,0.2,14.6,6,14.3,12.9l-0.1,1.6c-0.2,5.2-4.1,9.7-9.8,11.4l-1.7,0.5C1759.9,965.1,1758.2,965.3,1756.6,965.3z"/>
		</g>
		<g>
			<path class="st11" d="M1690.7,1119.7c-4.5,0-8.9-1.7-11.8-5c-0.8-0.9-1.5-1.7-2.3-2.6c-4.7-5.7-3-13.5,3.7-17.5
				c6.7-4,15.9-2.6,20.6,3.1c0.5,0.6,1.1,1.3,1.6,1.9c4.9,5.5,3.6,13.4-2.9,17.6C1696.9,1118.9,1693.8,1119.7,1690.7,1119.7z
				 M1668.4,1059.4c-0.1,0-0.2,0-0.3,0c-8.2-0.1-14.6-5.9-14.5-12.8c0-1.1,0.1-2.2,0.2-3.3c0.5-6.9,7.5-12.2,15.6-11.8
				c8.2,0.4,14.4,6.3,13.9,13.3c0,0.8-0.1,1.6-0.1,2.3C1683,1054,1676.4,1059.4,1668.4,1059.4z M1694.1,1000.1
				c-3.2,0-6.4-0.9-9.2-2.7c-6.4-4.3-7.5-12.2-2.5-17.6c0.8-0.9,1.6-1.7,2.4-2.5c5.3-5.3,14.6-5.9,20.8-1.5c6.2,4.5,7,12.4,1.7,17.7
				c-0.6,0.6-1.2,1.2-1.8,1.8C1702.8,998.5,1698.5,1000.1,1694.1,1000.1z"/>
		</g>
		<g>
			<path class="st11" d="M1751.3,1156c-0.2,0-0.3,0-0.5,0c-5.5-0.1-10.2-2.8-12.6-6.6c-3.3-3.3-4.4-8-2.5-12.4
				c2.8-6.5,11.3-9.8,19-7.5l1.7,0.5c6,1.9,9.9,6.8,9.7,12.2l-0.1,1.6C1765.9,1150.6,1759.3,1156,1751.3,1156z"/>
		</g>
		<g>
			<path class="st11" d="M1748.5,1234c-0.2,0-0.3,0-0.5,0c-8.2-0.2-14.6-6-14.3-12.9l0.1-3.4c0.3-6.9,7-12.2,15.3-12.1
				c8.2,0.2,14.6,6,14.3,12.9l-0.1,3.4C1763,1228.6,1756.4,1234,1748.5,1234z"/>
		</g>
		<g>
			<path class="st11" d="M1745.7,1310.1h-1.9c-8.2,0-14.8-5.6-14.8-12.5c0-4,2.1-7.5,5.5-9.8c2.8-2.8,7.1-4.4,11.6-4.3
				c8.2,0.2,14.6,6,14.3,12.9l-0.1,1.6C1760.2,1304.7,1753.7,1310.1,1745.7,1310.1z"/>
		</g>
		<g>
			<path class="st11" d="M1663.2,1310.1h-3.7c-8.2,0-14.8-5.6-14.8-12.5c0-6.9,6.6-12.5,14.8-12.5h3.7c8.2,0,14.8,5.6,14.8,12.5
				C1678,1304.5,1671.4,1310.1,1663.2,1310.1z M1578.9,1310.1h-3.7c-8.2,0-14.8-5.6-14.8-12.5c0-6.9,6.6-12.5,14.8-12.5h3.7
				c8.2,0,14.8,5.6,14.8,12.5C1593.6,1304.5,1587,1310.1,1578.9,1310.1z M1494.5,1310.1h-3.7c-8.2,0-14.8-5.6-14.8-12.5
				c0-6.9,6.6-12.5,14.8-12.5h3.7c8.2,0,14.8,5.6,14.8,12.5C1509.3,1304.5,1502.7,1310.1,1494.5,1310.1z M1410.2,1310.1h-3.7
				c-8.2,0-14.8-5.6-14.8-12.5c0-6.9,6.6-12.5,14.8-12.5h3.7c8.2,0,14.8,5.6,14.8,12.5C1425,1304.5,1418.4,1310.1,1410.2,1310.1z
				 M1325.9,1310.1h-3.7c-8.2,0-14.8-5.6-14.8-12.5c0-6.9,6.6-12.5,14.8-12.5h3.7c8.2,0,14.8,5.6,14.8,12.5
				C1340.7,1304.5,1334.1,1310.1,1325.9,1310.1z M1241.6,1310.1h-3.7c-8.2,0-14.8-5.6-14.8-12.5c0-6.9,6.6-12.5,14.8-12.5h3.7
				c8.2,0,14.8,5.6,14.8,12.5C1256.3,1304.5,1249.7,1310.1,1241.6,1310.1z M1157.2,1310.1h-3.7c-8.2,0-14.8-5.6-14.8-12.5
				c0-6.9,6.6-12.5,14.8-12.5h3.7c8.2,0,14.8,5.6,14.8,12.5C1172,1304.5,1165.4,1310.1,1157.2,1310.1z M1072.9,1310.1h-3.7
				c-8.2,0-14.8-5.6-14.8-12.5c0-6.9,6.6-12.5,14.8-12.5h3.7c8.2,0,14.8,5.6,14.8,12.5C1087.7,1304.5,1081.1,1310.1,1072.9,1310.1z
				 M988.6,1310.1h-3.7c-8.2,0-14.8-5.6-14.8-12.5c0-6.9,6.6-12.5,14.8-12.5h3.7c8.2,0,14.8,5.6,14.8,12.5
				C1003.4,1304.5,996.8,1310.1,988.6,1310.1z M904.3,1310.1h-3.7c-8.2,0-14.8-5.6-14.8-12.5c0-6.9,6.6-12.5,14.8-12.5h3.7
				c8.2,0,14.8,5.6,14.8,12.5C919.1,1304.5,912.4,1310.1,904.3,1310.1z M819.9,1310.1h-3.7c-8.2,0-14.8-5.6-14.8-12.5
				c0-6.9,6.6-12.5,14.8-12.5h3.7c8.2,0,14.8,5.6,14.8,12.5C834.7,1304.5,828.1,1310.1,819.9,1310.1z M735.6,1310.1H732
				c-8.2,0-14.8-5.6-14.8-12.5c0-6.9,6.6-12.5,14.8-12.5h3.7c8.2,0,14.8,5.6,14.8,12.5C750.4,1304.5,743.8,1310.1,735.6,1310.1z
				 M651.3,1310.1h-3.7c-8.2,0-14.8-5.6-14.8-12.5c0-6.9,6.6-12.5,14.8-12.5h3.7c8.2,0,14.8,5.6,14.8,12.5
				C666.1,1304.5,659.5,1310.1,651.3,1310.1z M567,1310.1h-3.7c-8.2,0-14.8-5.6-14.8-12.5c0-6.9,6.6-12.5,14.8-12.5h3.7
				c8.2,0,14.8,5.6,14.8,12.5C581.8,1304.5,575.1,1310.1,567,1310.1z M482.7,1310.1H479c-8.2,0-14.8-5.6-14.8-12.5
				c0-6.9,6.6-12.5,14.8-12.5h3.7c8.2,0,14.8,5.6,14.8,12.5C497.4,1304.5,490.8,1310.1,482.7,1310.1z M398.3,1310.1h-3.7
				c-8.2,0-14.8-5.6-14.8-12.5c0-6.9,6.6-12.5,14.8-12.5h3.7c8.2,0,14.8,5.6,14.8,12.5C413.1,1304.5,406.5,1310.1,398.3,1310.1z
				 M314,1310.1h-3.7c-8.2,0-14.8-5.6-14.8-12.5c0-6.9,6.6-12.5,14.8-12.5h3.7c8.2,0,14.8,5.6,14.8,12.5
				C328.8,1304.5,322.2,1310.1,314,1310.1z"/>
		</g>
	</g>
</g>
<radialGradient id="SVGID_10_" cx="1300.2441" cy="1596.1542" r="30.4258" gradientTransform="matrix(-1.9501 0 0 1.5696 2766.4705 -1210.2491)" gradientUnits="userSpaceOnUse">
	<stop  offset="0" style="stop-color:#FF5B00"/>
	<stop  offset="8.662742e-02" style="stop-color:#D84D00"/>
	<stop  offset="0.225" style="stop-color:#9F3900"/>
	<stop  offset="0.3639" style="stop-color:#6F2700"/>
	<stop  offset="0.5003" style="stop-color:#471900"/>
	<stop  offset="0.6338" style="stop-color:#280E00"/>
	<stop  offset="0.7635" style="stop-color:#120600"/>
	<stop  offset="0.8875" style="stop-color:#050200"/>
	<stop  offset="1" style="stop-color:#000000"/>
</radialGradient>
<path class="st12" d="M171.5,1295.1c0,26.4,26.6,47.8,59.3,47.8s59.3-21.4,59.3-47.8c0-26.4-26.6-47.8-59.3-47.8
	S171.5,1268.7,171.5,1295.1z"/>
<radialGradient id="SVGID_11_" cx="523.2485" cy="1597.7574" r="30.4257" gradientTransform="matrix(-1.9501 0 0 1.5696 2766.4705 -1210.2491)" gradientUnits="userSpaceOnUse">
	<stop  offset="0" style="stop-color:#FF5B00"/>
	<stop  offset="8.662742e-02" style="stop-color:#D84D00"/>
	<stop  offset="0.225" style="stop-color:#9F3900"/>
	<stop  offset="0.3639" style="stop-color:#6F2700"/>
	<stop  offset="0.5003" style="stop-color:#471900"/>
	<stop  offset="0.6338" style="stop-color:#280E00"/>
	<stop  offset="0.7635" style="stop-color:#120600"/>
	<stop  offset="0.8875" style="stop-color:#050200"/>
	<stop  offset="1" style="stop-color:#000000"/>
</radialGradient>
<ellipse class="st13" cx="1746.1" cy="1297.6" rx="59.3" ry="47.8"/>
<polygon class="st14" points="610,1031.7 579.4,888.6 650.3,874 633,937.4 669.4,937.4 680.9,869.1 749.3,874.4 723.1,1023.6 
	692.4,1023.6 675.2,965 640.7,973.1 654.1,1031.7 "/>
<polygon class="st14" points="759.5,937.4 807.4,937.4 820.8,986.2 876.4,937.4 859.1,906.5 903.2,874 941.5,937.4 840,1023.6 
	838.1,1078.8 780.6,1078.8 788.2,1031.7 "/>
<polygon class="st14" points="990.2,896.7 910.9,1059.3 956.9,1059.3 985.6,978 1020.1,999.2 1102.5,965 1131.2,874.4 1010.5,861 
	"/>
<polygon class="st15" points="1034.4,896.7 1081.4,896.7 1058.4,960.1 1010.5,937.4 "/>
<polygon class="st16" points="1207.9,952 1273.1,896.7 1211.7,896.7 1192.6,952 "/>
<polygon class="st14" points="1229,973.1 1321,896.7 1232.8,869.1 1158.1,911.4 1146.6,976.4 1175.3,1031.7 1363.1,1012.2 
	1336.3,950.4 "/>
<polygon class="st17" points="1203.4,928.4 1211.7,896.7 1273.1,896.7 1200.2,965 "/>
<polygon class="st14" points="1367,896.7 1403.4,927.6 1411,1031.7 1455.1,1031.7 1445.5,924.4 1487.7,924.4 1491.5,973.1 
	1573.9,952 1535.6,861 1434,896.7 1403.4,874 "/>
<text transform="matrix(1.1786 0 0 1 992.5205 1183.0918)" class="st18 st19">SHOT</text>
</svg>
