<?xml version="1.0" encoding="utf-8"?>
<!-- Generator: Adobe Illustrator 23.0.3, SVG Export Plug-In . SVG Version: 6.00 Build 0)  -->
<svg version="1.1" id="Layer_1" xmlns="http://www.w3.org/2000/svg" xmlns:xlink="http://www.w3.org/1999/xlink" x="0px" y="0px"
	 viewBox="0 0 2000 2000" style="enable-background:new 0 0 2000 2000;" xml:space="preserve">
<style type="text/css">
	.st0{fill-rule:evenodd;clip-rule:evenodd;fill:url(#SVGID_1_);}
	.st1{fill-rule:evenodd;clip-rule:evenodd;fill:url(#SVGID_2_);}
	.st2{fill-rule:evenodd;clip-rule:evenodd;fill:url(#SVGID_3_);}
	.st3{fill-rule:evenodd;clip-rule:evenodd;fill:url(#SVGID_4_);}
	.st4{fill-rule:evenodd;clip-rule:evenodd;fill:url(#SVGID_5_);}
	.st5{fill-rule:evenodd;clip-rule:evenodd;fill:url(#SVGID_6_);}
	.st6{fill:url(#SVGID_7_);}
	.st7{fill:url(#SVGID_8_);}
	.st8{fill-rule:evenodd;clip-rule:evenodd;fill:url(#SVGID_9_);}
	.st9{fill-rule:evenodd;clip-rule:evenodd;fill:url(#SVGID_10_);}
	.st10{fill-rule:evenodd;clip-rule:evenodd;fill:url(#SVGID_11_);}
	.st11{opacity:0.5;fill:#FFFFFF;}
	.st12{opacity:0.6;fill:url(#SVGID_12_);}
	.st13{fill:#79023E;}
	.st14{fill-rule:evenodd;clip-rule:evenodd;fill:url(#SVGID_13_);}
	.st15{fill-rule:evenodd;clip-rule:evenodd;fill:url(#SVGID_14_);}
	.st16{fill:url(#SVGID_15_);}
	.st17{fill:url(#SVGID_16_);}
	.st18{fill:#FFFFFF;}
	.st19{fill:url(#SVGID_17_);}
	.st20{fill:url(#SVGID_18_);}
	.st21{fill:url(#SVGID_19_);}
	.st22{fill:url(#SVGID_20_);}
	.st23{fill:url(#SVGID_21_);}
	.st24{fill:url(#SVGID_22_);}
	.st25{opacity:0.3;fill-rule:evenodd;clip-rule:evenodd;fill:url(#SVGID_23_);}
	.st26{opacity:0.6;fill-rule:evenodd;clip-rule:evenodd;fill:url(#SVGID_24_);}
</style>
<g>
	<radialGradient id="SVGID_1_" cx="704.3148" cy="867.2092" r="503.3012" gradientUnits="userSpaceOnUse">
		<stop  offset="0" style="stop-color:#FFEAB8"/>
		<stop  offset="1" style="stop-color:#FFD1CC"/>
	</radialGradient>
	<path class="st0" d="M1011.9,225.3v1283.7H907.7c0,0-301.4-140.6-442.3-456.1c-21.4-47.7-39-99.4-51.4-155.2
		c-4.6-20.7-8.3-41.1-11-60.9c-3.6-25.6-5.6-50.4-6.2-74.3v-0.1c-3-119.5,29.3-219.8,86.1-300.1
		C593.5,306.1,796.6,225.3,1011.9,225.3z"/>
	<radialGradient id="SVGID_2_" cx="1319.5623" cy="867.2092" r="503.2964" gradientUnits="userSpaceOnUse">
		<stop  offset="0" style="stop-color:#FFEAB8"/>
		<stop  offset="1" style="stop-color:#FFD1CC"/>
	</radialGradient>
	<path class="st1" d="M1620.5,839.8c-2.7,18.9-6.2,38.3-10.6,58c-16.4,73.9-42,140.5-73.2,200.2v0.1c-148,283.9-420.6,411-420.6,411
		h-104.1V225.3c223.2,0,433.1,86.7,540.5,254.4c0.1,0.1,0.1,0.2,0.2,0.3c0.8,1.1,1.4,2.2,2.1,3.4c0.2,0.2,0.3,0.4,0.4,0.6
		c0.2,0.3,0.3,0.5,0.3,0.5l0.1,0.3c29.8,47.9,51.3,102.2,62.6,162.9c0,0,0,0,0.1,0.1v0.7c1.8,9.6,3.4,19.3,4.5,29.2
		C1629.1,727.7,1628.7,781.8,1620.5,839.8z"/>
	<radialGradient id="SVGID_3_" cx="986.5083" cy="457.534" r="487.6951" gradientUnits="userSpaceOnUse">
		<stop  offset="0" style="stop-color:#FF45A9"/>
		<stop  offset="1" style="stop-color:#CD0056"/>
	</radialGradient>
	<path class="st2" d="M934.4,1500.6l-28.1,6.5c-23.4-31.7-326.2-451-280.9-828c39.7-330.9,280.1-444.2,289.4-448.5
		c0.2,0,0.3-0.1,0.3-0.1l1,63.1L933.8,1465L934.4,1500.6z"/>
	<radialGradient id="SVGID_4_" cx="1299.1731" cy="453.1164" r="486.7318" gradientUnits="userSpaceOnUse">
		<stop  offset="0" style="stop-color:#FF45A9"/>
		<stop  offset="1" style="stop-color:#CD0056"/>
	</radialGradient>
	<path class="st3" d="M1106.5,1508l-31.2-7.2l-0.8-0.2l18.7-1226.8l0.7-43.3c0,0,3,0.5,8.3,1.8c31.3,15.5,248.3,133.8,285.9,446.8
		C1433.8,1060.1,1123.9,1484.5,1106.5,1508z"/>
	<radialGradient id="SVGID_5_" cx="788.8763" cy="868.1364" r="468.5397" gradientUnits="userSpaceOnUse">
		<stop  offset="0" style="stop-color:#FFEAB8"/>
		<stop  offset="1" style="stop-color:#FFD1CC"/>
	</radialGradient>
	<path class="st4" d="M957,227.2l-8.5,1281.9h-40.8c0,0-0.5-0.6-1.4-1.9c-23.4-31.7-326.2-451-280.9-828
		c39.7-330.9,280.1-444.2,289.4-448.5c0.2,0,0.3-0.1,0.3-0.1l33.5-2.6L957,227.2z"/>
	<radialGradient id="SVGID_6_" cx="1224.6068" cy="868.1364" r="468.5331" gradientUnits="userSpaceOnUse">
		<stop  offset="0" style="stop-color:#FFEAB8"/>
		<stop  offset="1" style="stop-color:#FFD1CC"/>
	</radialGradient>
	<path class="st5" d="M1106.5,1508c-0.5,0.7-0.8,1-0.8,1h-40.8l-8.4-1281.9l16.8,1.3l25.1,2c0,0,1.3,0.6,3.8,1.8
		c31.3,15.5,248.3,133.8,285.9,446.8C1433.8,1060.1,1123.9,1484.5,1106.5,1508z"/>
	<radialGradient id="SVGID_7_" cx="782.9318" cy="485.5913" r="513.1572" gradientUnits="userSpaceOnUse">
		<stop  offset="0" style="stop-color:#FFCC1B"/>
		<stop  offset="1" style="stop-color:#FF9D31"/>
	</radialGradient>
	<path class="st6" d="M1620.5,839.8l-0.1,0.1c-32.9-39.3-91.8-22.3-91.8-22.3c-44.6-59.4-136-33.5-136-33.5
		c-82-67.6-210.8-48.8-210.8-48.8c-63.1-17.2-120.4-24.2-169.9-25.4c-115.3-2.8-187.3,25.4-187.3,25.4
		c-117.3-38.1-203.8,16.6-203.8,16.6c-98.7-12.3-140.4,32.2-140.4,32.2c-60.1,9.7-77.3,52.8-77.3,52.8c-3.6-25.6-5.6-50.4-6.2-74.3
		v-0.1c-3-119.5,29.3-219.8,86.1-300.1c74.1-73.8,137.8-62.8,137.8-62.8c71.8-45,118.2-16.4,118.2-16.4
		c114.3-37.4,146.1-9.9,146.1-9.9c46.2-23.5,89.9-31.3,126.9-31.5c67.1-0.3,112.4,24,112.4,24c115.1-13.5,158.4,28.6,158.4,28.6
		c81-14.1,138.8,45.6,138.8,45.6c81.7-18.5,120.4,24.7,130.9,39.6c0.1,0.1,0.1,0.2,0.2,0.3c1,1.4,1.7,2.5,2.1,3.4
		c0.2,0.2,0.3,0.4,0.4,0.6c0.2,0.3,0.3,0.5,0.3,0.5l0.1,0.3c29.8,47.9,51.3,102.2,62.6,162.9c0,0,0,0,0.1,0.1v0.7
		c1.8,9.6,3.4,19.3,4.5,29.2C1629.1,727.7,1628.7,781.8,1620.5,839.8z"/>
	<radialGradient id="SVGID_8_" cx="825.4656" cy="1168.7859" r="393.1509" gradientUnits="userSpaceOnUse">
		<stop  offset="0" style="stop-color:#FFCC1B"/>
		<stop  offset="1" style="stop-color:#FF9D31"/>
	</radialGradient>
	<path class="st7" d="M523.8,1161.5c0,0,16.9-18.7,51.6-17.5c0,0,48.5-27.9,122.1-20.8c0,0,70.1-49.8,152.2-19
		c0,0,145-69.9,314.2-4.8c0,0,98.6-26.3,145.9,39c0,0,66.8-17.5,110.2,29.4c0,0,45.4-7.6,64.7,16.9c0,0-72.2,122.6-203.7,223.7
		l-536.9-10.3C744.2,1398.1,624.2,1327.9,523.8,1161.5z"/>
	<radialGradient id="SVGID_9_" cx="659.7475" cy="464.4901" r="477.3996" gradientUnits="userSpaceOnUse">
		<stop  offset="0" style="stop-color:#FF45A9"/>
		<stop  offset="1" style="stop-color:#CD0056"/>
	</radialGradient>
	<path class="st8" d="M906.3,1507.1l-8.4,1.9c0,0-441.1-305.6-416.6-755.3c24-442.7,421-520.9,433.4-523.2
		c-9.3,4.3-249.7,117.6-289.4,448.5C580.1,1056.1,882.9,1475.5,906.3,1507.1z"/>
	<radialGradient id="SVGID_10_" cx="1380.6674" cy="461.9138" r="475.9169" gradientUnits="userSpaceOnUse">
		<stop  offset="0" style="stop-color:#FF45A9"/>
		<stop  offset="1" style="stop-color:#CD0056"/>
	</radialGradient>
	<path class="st9" d="M1111,1509.1l-4.5-1c17.4-23.6,327.4-447.9,281.6-828.9c-37.5-313-254.6-431.3-285.9-446.8
		c58.2,13.4,403.1,109.9,425.4,521.5C1552.1,1203.5,1111,1509.1,1111,1509.1z"/>
	<radialGradient id="SVGID_11_" cx="1009.8394" cy="457.8728" r="489.0776" gradientUnits="userSpaceOnUse">
		<stop  offset="0" style="stop-color:#FF45A9"/>
		<stop  offset="1" style="stop-color:#CD0056"/>
	</radialGradient>
	<path class="st10" d="M948.5,1509.1c0,0-280.7-770.5,0-1281.4c0,0,57.9-7.6,124.3-0.1c0,0,249.2,469.1,0,1281.4H948.5z"/>
	<path class="st11" d="M842.2,718.9c0,0,227.1-28.8,314.1-127.9c0,0-22.8-228.4-91.5-356.5l-116.3-6.7
		C948.5,227.7,839.2,415,842.2,718.9z"/>
	<path class="st11" d="M638.9,659.4c0,0,100.8,47.5,175.2,44.4c0,0,16-362.7,134.5-476.1l-33.8,2.9
		C914.7,230.6,678.9,373.1,638.9,659.4z"/>
	<path class="st11" d="M534.7,590.9l72.1,37.5c0,0,57.8-206.1,209.5-344.6l-11.1-10.2C805.2,273.6,588.1,359,534.7,590.9z"/>
	<linearGradient id="SVGID_12_" gradientUnits="userSpaceOnUse" x1="1001.0569" y1="1509.0714" x2="1001.0569" y2="1052.9733">
		<stop  offset="5.586590e-03" style="stop-color:#9F60AC"/>
		<stop  offset="1" style="stop-color:#FFC5D2"/>
	</linearGradient>
	<path class="st12" d="M1536.7,1098L1536.7,1098c-148,284-420.6,411.1-420.6,411.1H907.7c0,0-301.4-140.6-442.3-456.1l155.3,155.1
		l122.8,21.8l133.7,21l134.7-1.8l127.2-1.6l141.9-27.3l116.9-16.2L1536.7,1098z"/>
	<path class="st13" d="M810,1500.1c0,0,227.8,39.3,401.9-4.1c0,0-62.4-51.7-199.3-51.7C875.7,1444.3,810,1500.1,810,1500.1z"/>
	<radialGradient id="SVGID_13_" cx="1012.6372" cy="1424.678" r="197.1782" gradientUnits="userSpaceOnUse">
		<stop  offset="0" style="stop-color:#F26122"/>
		<stop  offset="1" style="stop-color:#BF4A22"/>
	</radialGradient>
	<path class="st14" d="M810,1500.1l-65.9-102c0,0,90.1-48.8,260.6-48.8c170.5,0,276.3,59.1,276.3,59.1L1212,1496
		c0,0-58.1-28.8-199.3-28.8C871.4,1467.2,810,1500.1,810,1500.1z"/>
	<polygon class="st13" points="867.3,1483.5 874.9,1676.7 880.5,1676.7 873.9,1481.6 	"/>
	<polygon class="st13" points="1152.3,1478.3 1146.5,1680 1150.8,1680 1158.5,1480.4 	"/>
	<polygon class="st13" points="1071.4,1475.1 1072,1676.7 1076.3,1676.7 1077.7,1477.1 	"/>
	<polygon class="st13" points="948.8,1475.1 949.4,1676.7 953.7,1676.7 955,1477.1 	"/>
	<radialGradient id="SVGID_14_" cx="1022.4951" cy="1640.1243" r="155.5739" gradientUnits="userSpaceOnUse">
		<stop  offset="0" style="stop-color:#F26122"/>
		<stop  offset="1" style="stop-color:#BF4A22"/>
	</radialGradient>
	<path class="st15" d="M856.5,1661.3c0,0,159.9-46.9,311.3,0l-15.3,159.3H873.6L856.5,1661.3z"/>
	<linearGradient id="SVGID_15_" gradientUnits="userSpaceOnUse" x1="856.5435" y1="1661.009" x2="1167.8483" y2="1661.009">
		<stop  offset="0" style="stop-color:#E86D22"/>
		<stop  offset="1" style="stop-color:#FF6122"/>
	</linearGradient>
	<path class="st16" d="M856.5,1661.3l2.8,18.7c45.1-14.3,205.5-42.9,306.2,4.9l2.3-23.6C1167.8,1661.3,1044.2,1606.9,856.5,1661.3z"
		/>
	<g>
		<radialGradient id="SVGID_16_" cx="1009.5134" cy="1415.5283" r="20.272" gradientUnits="userSpaceOnUse">
			<stop  offset="0" style="stop-color:#FFCC1B"/>
			<stop  offset="1" style="stop-color:#FF7E31"/>
		</radialGradient>
		<path class="st17" d="M1023,1408.3c0,7.1-5.7,12.8-12.8,12.8c-7.1,0-12.8-5.7-12.8-12.8c0-7.1,5.7-12.8,12.8-12.8
			C1017.3,1395.5,1023,1401.2,1023,1408.3z"/>
		<path class="st18" d="M1019.3,1408.3c0,5-4.1,9.1-9.1,9.1c-5,0-9.1-4.1-9.1-9.1s4.1-9.1,9.1-9.1
			C1015.2,1399.2,1019.3,1403.3,1019.3,1408.3z"/>
	</g>
	<g>
		
			<radialGradient id="SVGID_17_" cx="847.2473" cy="1394.5808" r="20.2715" gradientTransform="matrix(0.8478 -9.930000e-02 0.1163 0.9932 46.1538 120.4657)" gradientUnits="userSpaceOnUse">
			<stop  offset="0" style="stop-color:#FFCC1B"/>
			<stop  offset="1" style="stop-color:#FF7E31"/>
		</radialGradient>
		<path class="st19" d="M937.3,1412.9c0.8,7-3.4,13.3-9.4,14c-6,0.7-11.5-4.4-12.3-11.4c-0.8-7,3.4-13.3,9.4-14
			C930.9,1400.7,936.4,1405.8,937.3,1412.9z"/>
		<path class="st18" d="M935.4,1413.2c0.6,5-2.4,9.4-6.6,9.9c-4.2,0.5-8.1-3.1-8.7-8.1c-0.6-5,2.4-9.4,6.6-9.9
			C930.9,1404.7,934.8,1408.3,935.4,1413.2z"/>
	</g>
	<g>
		
			<radialGradient id="SVGID_18_" cx="764.2232" cy="1398.5673" r="20.2715" gradientTransform="matrix(0.8478 -9.930000e-02 0.1163 0.9932 46.1538 120.4657)" gradientUnits="userSpaceOnUse">
			<stop  offset="0" style="stop-color:#FFCC1B"/>
			<stop  offset="1" style="stop-color:#FF7E31"/>
		</radialGradient>
		<path class="st20" d="M867.3,1425.1c0.8,7-3.4,13.3-9.4,14c-6,0.7-11.5-4.4-12.3-11.4c-0.8-7,3.4-13.3,9.4-14
			C861,1412.9,866.5,1418.1,867.3,1425.1z"/>
		<path class="st18" d="M865.5,1425.5c0.6,5-2.4,9.4-6.6,9.9s-8.2-3.1-8.7-8.1c-0.6-5,2.4-9.4,6.6-9.9
			C861,1416.9,864.9,1420.5,865.5,1425.5z"/>
	</g>
	<g>
		
			<radialGradient id="SVGID_19_" cx="1166.0056" cy="1434.5643" r="20.2728" gradientTransform="matrix(-0.8263 -0.2139 -0.2506 0.9681 2418.0325 282.7537)" gradientUnits="userSpaceOnUse">
			<stop  offset="0" style="stop-color:#FFCC1B"/>
			<stop  offset="1" style="stop-color:#FF7E31"/>
		</radialGradient>
		<path class="st21" d="M1085.7,1412.2c-1.8,6.8,1.5,13.6,7.4,15.1c5.8,1.5,12-2.8,13.8-9.7c1.8-6.8-1.5-13.6-7.4-15.1
			C1093.7,1401.1,1087.5,1405.4,1085.7,1412.2z"/>
		<path class="st18" d="M1087.5,1412.8c-1.3,4.8,1.1,9.6,5.2,10.7c4.1,1.1,8.5-2,9.8-6.8c1.3-4.8-1.1-9.6-5.2-10.7
			C1093.1,1404.9,1088.7,1408,1087.5,1412.8z"/>
	</g>
	<g>
		
			<radialGradient id="SVGID_20_" cx="1077.3569" cy="1431.3853" r="20.2728" gradientTransform="matrix(-0.8263 -0.2139 -0.2506 0.9681 2418.0325 282.7537)" gradientUnits="userSpaceOnUse">
			<stop  offset="0" style="stop-color:#FFCC1B"/>
			<stop  offset="1" style="stop-color:#FF7E31"/>
		</radialGradient>
		<path class="st22" d="M1159.8,1428.1c-1.8,6.8,1.5,13.6,7.4,15.1c5.8,1.5,12-2.8,13.8-9.7c1.8-6.8-1.5-13.6-7.4-15.1
			C1167.7,1416.9,1161.5,1421.3,1159.8,1428.1z"/>
		<path class="st18" d="M1161.5,1428.7c-1.3,4.8,1.1,9.6,5.2,10.7c4.1,1.1,8.5-2,9.8-6.8c1.3-4.8-1.1-9.6-5.2-10.7
			C1167.2,1420.8,1162.8,1423.9,1161.5,1428.7z"/>
	</g>
	<g>
		
			<radialGradient id="SVGID_21_" cx="417.9118" cy="1339.922" r="20.274" gradientTransform="matrix(0.5645 -0.17 0.2884 0.9575 176.3458 239.4701)" gradientUnits="userSpaceOnUse">
			<stop  offset="0" style="stop-color:#FFCC1B"/>
			<stop  offset="1" style="stop-color:#FF7E31"/>
		</radialGradient>
		<path class="st23" d="M804.2,1442.1c2,6.8,0.5,13.2-3.5,14.4c-4,1.2-8.9-3.3-10.9-10.1c-2-6.8-0.5-13.2,3.5-14.4
			C797.3,1430.9,802.2,1435.4,804.2,1442.1z"/>
		<path class="st18" d="M803.8,1442.3c1.4,4.8,0.3,9.4-2.5,10.2c-2.8,0.9-6.3-2.3-7.7-7.1c-1.4-4.8-0.3-9.4,2.5-10.2
			C798.9,1434.3,802.4,1437.5,803.8,1442.3z"/>
	</g>
	<g>
		
			<radialGradient id="SVGID_22_" cx="908.8033" cy="1424.7206" r="20.2707" gradientTransform="matrix(-0.5364 -0.2448 -0.4151 0.9098 2296.988 382.7415)" gradientUnits="userSpaceOnUse">
			<stop  offset="0" style="stop-color:#FFCC1B"/>
			<stop  offset="1" style="stop-color:#FF7E31"/>
		</radialGradient>
		<path class="st24" d="M1213.9,1446.6c-2.9,6.4-2.2,13.1,1.6,14.8c3.8,1.7,9.2-2.1,12.2-8.5c2.9-6.4,2.2-13.1-1.6-14.8
			C1222.3,1436.3,1216.8,1440.1,1213.9,1446.6z"/>
		<path class="st18" d="M1214.2,1446.7c-2.1,4.6-1.6,9.2,1.1,10.5c2.7,1.2,6.5-1.5,8.6-6c2.1-4.6,1.6-9.2-1.1-10.5
			C1220.2,1439.5,1216.3,1442.2,1214.2,1446.7z"/>
	</g>
	<path class="st18" d="M1497.3,424.8c0,0,90.4,91.2,108.8,301c21,238.6-167.5,506.4-167.5,506.4s160.3-291,154.5-498.6
		C1587.8,543.2,1497.3,424.8,1497.3,424.8z"/>
	<path class="st18" d="M1404.7,452c0,0,130.6,143.7,92.1,349.2C1496.8,801.2,1484.8,562.9,1404.7,452z"/>
	<path class="st18" d="M1346.8,378.1c0,0,10.3,35.2,50.6,62.2C1397.5,440.3,1386.8,398.7,1346.8,378.1z"/>
	<path class="st18" d="M499.2,830.8c0,0-18.7,37.3,8.7,79.7C508,910.6,521.6,869.8,499.2,830.8z"/>
	<path class="st18" d="M852,551.9c0,0,23.8-199.2,96.5-324.2c0,0-75.4,231-97.9,335.2L852,551.9z"/>
	<path class="st18" d="M847.6,590.9c0,0-9.4,81.6-5.4,127.9C842.2,718.9,870.8,668.4,847.6,590.9z"/>
	<path class="st18" d="M1113.4,1339.4c0,0,35.4-143.2,45.1-286.4C1158.5,1053,1113.4,1178.9,1113.4,1339.4z"/>
	<g>
		<path class="st18" d="M859.2,1672.3c-0.9-2.6,0.5-5.6,3.2-6.5l0,0l0,0l0,0c2.7-0.9,5.6,0.5,6.5,3.2l0,0c0.9,2.6-0.5,5.6-3.2,6.5
			l0,0c-0.5,0.2-1.1,0.3-1.7,0.3l0,0C861.9,1675.8,860,1674.5,859.2,1672.3z M1151.9,1673.3c-2.7-0.9-4.1-3.9-3.2-6.6l0,0
			c1-2.6,3.9-4.1,6.6-3.1l0,0c2.6,0.9,4.1,3.8,3.2,6.5l0,0c-0.8,2.1-2.8,3.4-4.9,3.4l0,0C1153,1673.6,1152.5,1673.5,1151.9,1673.3z
			 M882.7,1665.2c-0.7-2.8,0.9-5.6,3.7-6.3l0,0l0,0l0,0c2.8-0.7,5.5,0.9,6.3,3.7l0,0c0.7,2.8-1,5.5-3.7,6.3l0,0
			c-0.5,0.1-0.9,0.1-1.3,0.1l0,0C885.4,1669,883.3,1667.5,882.7,1665.2z M1128.8,1666.1c-2.8-0.8-4.3-3.6-3.6-6.3l0,0
			c0.8-2.8,3.6-4.4,6.3-3.6l0,0l0,0l0,0c2.8,0.8,4.4,3.6,3.6,6.3l0,0c-0.7,2.3-2.7,3.8-4.9,3.8l0,0
			C1129.8,1666.3,1129.3,1666.2,1128.8,1666.1z M906.5,1659.4c-0.6-2.8,1.2-5.5,4-6.1l0,0l0,0l0,0c2.8-0.6,5.5,1.2,6.1,4l0,0
			c0.6,2.8-1.2,5.5-4,6.1l0,0c-0.3,0.1-0.7,0.1-1,0.1l0,0C909.2,1663.5,907.1,1661.9,906.5,1659.4z M1105.4,1660.5
			c-2.8-0.6-4.6-3.3-4-6.1l0,0c0.5-2.8,3.3-4.6,6.1-4l0,0c2.8,0.6,4.6,3.3,4,6.1l0,0c-0.5,2.4-2.6,4.1-5.1,4.1l0,0
			C1106,1660.6,1105.7,1660.6,1105.4,1660.5z M930.6,1654.8c-0.5-2.8,1.5-5.5,4.3-5.9l0,0c2.8-0.4,5.5,1.5,5.9,4.3l0,0
			c0.5,2.8-1.4,5.5-4.2,5.9l0,0c-0.3,0-0.6,0.1-0.9,0.1l0,0C933.2,1659.2,931,1657.3,930.6,1654.8z M1081.5,1656.4
			c-2.8-0.4-4.7-3-4.4-5.8l0,0c0.4-2.8,3-4.8,5.8-4.4l0,0c2.8,0.4,4.8,3,4.4,5.8l0,0c-0.4,2.6-2.6,4.5-5.1,4.5l0,0
			C1082,1656.5,1081.7,1656.5,1081.5,1656.4z M954.9,1651.3c-0.3-2.8,1.7-5.4,4.5-5.7l0,0c2.8-0.3,5.3,1.7,5.7,4.6l0,0
			c0.3,2.8-1.7,5.3-4.6,5.7l0,0c-0.2,0.1-0.4,0.1-0.6,0.1l0,0C957.4,1655.8,955.2,1653.8,954.9,1651.3z M1057.5,1653.8
			L1057.5,1653.8c-2.8-0.3-4.9-2.7-4.7-5.5l0,0c0.3-2.8,2.7-4.9,5.5-4.7l0,0c2.8,0.3,4.9,2.7,4.7,5.5l0,0c-0.2,2.7-2.5,4.7-5.1,4.7
			l0,0C1057.7,1653.8,1057.6,1653.8,1057.5,1653.8z M979.3,1648.8c-0.2-2.8,1.9-5.3,4.8-5.5l0,0c2.8-0.3,5.3,1.9,5.5,4.8l0,0
			c0.2,2.8-1.9,5.3-4.8,5.5l0,0c-0.1,0-0.3,0-0.4,0l0,0C981.7,1653.5,979.4,1651.5,979.3,1648.8z M1033.3,1652.5
			c-2.8-0.1-5.1-2.4-5-5.3l0,0c0.1-2.8,2.4-5.1,5.3-5l0,0c2.8,0.1,5.1,2.4,5,5.3l0,0c-0.1,2.8-2.4,5-5.1,5l0,0
			C1033.4,1652.5,1033.3,1652.5,1033.3,1652.5z M1003.8,1647.4c-0.1-2.8,2.2-5.2,5-5.3l0,0c2.8-0.1,5.2,2.2,5.3,5l0,0
			c0.1,2.8-2.2,5.2-5,5.3h-0.1h-0.1l0,0C1006.1,1652.4,1003.8,1650.1,1003.8,1647.4z"/>
	</g>
	<linearGradient id="SVGID_23_" gradientUnits="userSpaceOnUse" x1="1012.4604" y1="1820.8339" x2="1012.4604" y2="1679.9813">
		<stop  offset="5.586590e-03" style="stop-color:#9F60AC"/>
		<stop  offset="1" style="stop-color:#FFC5D2"/>
	</linearGradient>
	<path class="st25" d="M859.3,1680c0,0,26.6,62.5,55.4,91.7c38.8,39.3,171.2,22.9,194.1,6.8c31.9-22.4,56.7-93.6,56.7-93.6
		l-13.1,135.9l-278.9-0.2L859.3,1680z"/>
	<path class="st13" d="M873.6,1820.8c0,0,127.5-35.2,278.9,0C1152.5,1820.8,1035,1855,873.6,1820.8z"/>
	<linearGradient id="SVGID_24_" gradientUnits="userSpaceOnUse" x1="1012.6372" y1="1500.1056" x2="1012.6372" y2="1349.2505">
		<stop  offset="5.586590e-03" style="stop-color:#9F60AC"/>
		<stop  offset="1" style="stop-color:#FFC5D2"/>
	</linearGradient>
	<path class="st26" d="M823.8,1494.2c0,0,21.9-138.3,188.9-132.3C1169,1367.5,1212,1496,1212,1496l69.1-87.6
		c0,0-97.1-59.1-276.3-59.1s-260.6,48.8-260.6,48.8l65.9,102L823.8,1494.2z"/>
</g>
</svg>
