<?xml version="1.0" encoding="utf-8"?>
<!-- Generator: Adobe Illustrator 23.0.3, SVG Export Plug-In . SVG Version: 6.00 Build 0)  -->
<svg version="1.1" id="Layer_1" xmlns="http://www.w3.org/2000/svg" xmlns:xlink="http://www.w3.org/1999/xlink" x="0px" y="0px"
	 viewBox="0 0 2000 2000" style="enable-background:new 0 0 2000 2000;" xml:space="preserve">
<style type="text/css">
	.st0{fill-rule:evenodd;clip-rule:evenodd;fill:url(#SVGID_1_);}
	.st1{fill-rule:evenodd;clip-rule:evenodd;fill:url(#SVGID_2_);}
	.st2{opacity:0.2;fill-rule:evenodd;clip-rule:evenodd;fill:url(#SVGID_3_);}
	.st3{fill-rule:evenodd;clip-rule:evenodd;fill:url(#SVGID_4_);}
	.st4{fill-rule:evenodd;clip-rule:evenodd;fill:#FFFFFF;}
	.st5{fill-rule:evenodd;clip-rule:evenodd;fill:url(#SVGID_5_);}
	.st6{fill:url(#SVGID_6_);}
	.st7{fill-rule:evenodd;clip-rule:evenodd;fill:url(#SVGID_7_);}
	.st8{fill-rule:evenodd;clip-rule:evenodd;fill:url(#SVGID_8_);}
	.st9{opacity:0.2;fill-rule:evenodd;clip-rule:evenodd;fill:url(#SVGID_9_);}
	.st10{fill-rule:evenodd;clip-rule:evenodd;fill:url(#SVGID_10_);}
	.st11{fill-rule:evenodd;clip-rule:evenodd;fill:url(#SVGID_11_);}
	.st12{fill:url(#SVGID_12_);}
</style>
<g>
	
		<radialGradient id="SVGID_1_" cx="1023.4457" cy="1109.0417" r="77.6065" gradientTransform="matrix(3.3478 0 0 2.2268 -2418.9026 -1371.8601)" gradientUnits="userSpaceOnUse">
		<stop  offset="0" style="stop-color:#FFFF00"/>
		<stop  offset="1" style="stop-color:#FF8900"/>
	</radialGradient>
	<path class="st0" d="M1095.5,1095.4c-50.2,25.5-43.6,79.7-87.5,79.7c-44,0-38-53-86.8-79.7c-37.8-20.6-65.6-53.2-79.5-88.6
		c0,0-0.1-0.1-0.1-0.1c-0.3-0.6-0.5-1.1-0.7-1.7c-0.2-0.4-0.3-0.8-0.5-1.2c-29.5-79.8,11.5-172,167.5-172
		c92.4,0,141.9,34.5,160.9,79.1c0,0.1,0,0.2,0.1,0.3C1196.6,976.3,1159.2,1063,1095.5,1095.4z"/>
	
		<radialGradient id="SVGID_2_" cx="1024.7329" cy="1151.0096" r="8.3096" gradientTransform="matrix(3.3478 0 0 2.2268 -2418.9026 -1371.8601)" gradientUnits="userSpaceOnUse">
		<stop  offset="0" style="stop-color:#FFFF00"/>
		<stop  offset="1" style="stop-color:#FFB100"/>
	</radialGradient>
	<polygon class="st1" points="1008,1175 990.2,1196.1 1032.6,1193.1 1014.7,1174.6 	"/>
	<linearGradient id="SVGID_3_" gradientUnits="userSpaceOnUse" x1="841.6849" y1="1043.0923" x2="1178.2003" y2="1043.0923">
		<stop  offset="0" style="stop-color:#B00050"/>
		<stop  offset="1" style="stop-color:#FFA7AD"/>
	</linearGradient>
	<path class="st2" d="M1095.5,1095.4c-50.2,25.5-43.6,79.7-87.5,79.7c-44,0-38-53-86.8-79.7c-37.8-20.6-65.6-53.2-79.5-88.6
		c5.9,13.4,36.4,66.2,148.5,69.6c128.5,3.9,197.5-112.7,178.8-165.3C1196.6,976.3,1159.2,1063,1095.5,1095.4z"/>
	<linearGradient id="SVGID_4_" gradientUnits="userSpaceOnUse" x1="1103.7616" y1="988.3823" x2="1103.7616" y2="842.3163">
		<stop  offset="5.347590e-03" style="stop-color:#4C546D"/>
		<stop  offset="1" style="stop-color:#000000"/>
	</linearGradient>
	<path class="st3" d="M1042.7,842.3c0,0,79.5,30,84.1,146.1l38-4.8C1164.7,983.6,1174.1,851.3,1042.7,842.3z"/>
	<path class="st4" d="M870.8,909.6c0,0,4.7-17.3,23.4-30.1l24,5.1c0,0-19.3,17.1-23.7,29.1L870.8,909.6z"/>
	<linearGradient id="SVGID_5_" gradientUnits="userSpaceOnUse" x1="941.3885" y1="1149.6179" x2="941.3885" y2="1029.6301">
		<stop  offset="5.347590e-03" style="stop-color:#4C546D"/>
		<stop  offset="1" style="stop-color:#000000"/>
	</linearGradient>
	<path class="st5" d="M887.1,1029.6c0,0,6.5,35.6,39.3,56s50.5,64,50.5,64l18.5-2.7c0,0,5.6-19.1-32-49.3
		C925.8,1067.5,904.1,1064.1,887.1,1029.6z"/>
	<g>
		
			<radialGradient id="SVGID_6_" cx="1021.9968" cy="1293.5605" r="107.4586" gradientTransform="matrix(3.3478 0 0 2.2268 -2418.9026 -1371.8601)" gradientUnits="userSpaceOnUse">
			<stop  offset="0" style="stop-color:#A4023E"/>
			<stop  offset="0.9944" style="stop-color:#860244"/>
		</radialGradient>
		<path class="st6" d="M1010.6,1843c-0.3-0.1-28.6-9.5-30.2-32.2c-0.6-7.9,12.9-15,30-24c35.2-18.6,83.4-44.1,62.5-97.8
			c-4.2-10.7-20.4-23.4-40.9-39.5c-54.9-43.1-137.9-108.1-97.8-219.6c54.3-151,78.6-254.5,78.8-255.5l3.5,0.4
			c-0.2,1-24.6,104.6-78.9,255.7c-39.7,110.4,42.6,174.9,97.1,217.6c20.8,16.3,37.3,29.2,41.6,40.5c21.5,55.2-29.8,82.3-63.7,100.2
			c-16.3,8.6-29.1,15.4-28.6,22c1.5,21.2,27.9,30.1,28.2,30.2L1010.6,1843z"/>
	</g>
</g>
<g>
	
		<radialGradient id="SVGID_7_" cx="1038.6431" cy="912.1706" r="77.5711" gradientTransform="matrix(3.3478 0 0 2.2268 -2418.9026 -1371.8601)" gradientUnits="userSpaceOnUse">
		<stop  offset="0" style="stop-color:#B03BB9"/>
		<stop  offset="1" style="stop-color:#6D0C97"/>
	</radialGradient>
	<path class="st7" d="M1146.4,657c-50.2,25.5-43.6,79.6-87.5,79.6c-44,0-38-53-86.8-79.6c-37.8-20.6-65.5-53.2-79.5-88.6
		c0,0-0.1-0.1-0.1-0.1c-0.3-0.6-0.5-1.1-0.7-1.7c-0.2-0.4-0.3-0.8-0.5-1.2c-29.5-79.7,11.5-171.9,167.5-171.9
		c92.3,0,141.8,34.5,160.8,79.1c0,0.1,0.1,0.2,0.1,0.3C1247.4,538,1210,624.6,1146.4,657z"/>
	
		<radialGradient id="SVGID_8_" cx="1039.9299" cy="954.119" r="8.3057" gradientTransform="matrix(3.3478 0 0 2.2268 -2418.9026 -1371.8601)" gradientUnits="userSpaceOnUse">
		<stop  offset="0" style="stop-color:#884AB9"/>
		<stop  offset="1" style="stop-color:#5720B0"/>
	</radialGradient>
	<polygon class="st8" points="1058.9,736.6 1041.1,757.6 1083.4,754.6 1065.6,736.1 	"/>
	<linearGradient id="SVGID_9_" gradientUnits="userSpaceOnUse" x1="892.6387" y1="604.7172" x2="1229" y2="604.7172">
		<stop  offset="0" style="stop-color:#890050"/>
		<stop  offset="1" style="stop-color:#FFA7AD"/>
	</linearGradient>
	<path class="st9" d="M1146.4,657c-50.2,25.5-43.6,79.6-87.5,79.6c-44,0-38-53-86.8-79.6c-37.8-20.6-65.5-53.2-79.5-88.6
		c5.9,13.4,36.3,66.2,148.5,69.6c128.4,3.9,197.4-112.6,178.7-165.2C1247.4,538,1210,624.6,1146.4,657z"/>
	<linearGradient id="SVGID_10_" gradientUnits="userSpaceOnUse" x1="1154.5962" y1="550.0318" x2="1154.5962" y2="404.0323">
		<stop  offset="5.347590e-03" style="stop-color:#4C546D"/>
		<stop  offset="1" style="stop-color:#000000"/>
	</linearGradient>
	<path class="st10" d="M1093.5,404c0,0,79.5,30,84,146l37.9-4.8C1215.5,545.2,1224.9,413,1093.5,404z"/>
	<path class="st4" d="M921.7,471.3c0,0,4.7-17.3,23.4-30.1l23.9,5c0,0-19.3,17.1-23.7,29.1L921.7,471.3z"/>
	<linearGradient id="SVGID_11_" gradientUnits="userSpaceOnUse" x1="992.2959" y1="711.1945" x2="992.2959" y2="591.2617">
		<stop  offset="5.347590e-03" style="stop-color:#4C546D"/>
		<stop  offset="1" style="stop-color:#000000"/>
	</linearGradient>
	<path class="st11" d="M938,591.3c0,0,6.5,35.6,39.3,56c32.8,20.4,50.5,63.9,50.5,63.9l18.5-2.7c0,0,5.6-19.1-32-49.3
		C976.8,629.1,955,625.7,938,591.3z"/>
	<g>
		
			<radialGradient id="SVGID_12_" cx="1034.1814" cy="1062.6804" r="82.7623" gradientTransform="matrix(3.3478 0 0 2.2268 -2418.9026 -1371.8601)" gradientUnits="userSpaceOnUse">
			<stop  offset="0" style="stop-color:#A4023E"/>
			<stop  offset="0.9944" style="stop-color:#860244"/>
		</radialGradient>
		<path class="st12" d="M1019.8,1253.5c-43.2-31.4-15.6-139.6,39.3-292.3c54.1-150.6,5.4-223.9,4.9-224.6l3.2-1
			c0.5,0.7,49.7,74.7-4.7,226.1c-47.3,131.5-84.8,257.7-40.2,290.1L1019.8,1253.5z"/>
	</g>
</g>
</svg>
