<?xml version="1.0" encoding="utf-8"?>
<!-- Generator: Adobe Illustrator 23.0.3, SVG Export Plug-In . SVG Version: 6.00 Build 0)  -->
<svg version="1.1" id="Layer_1" xmlns="http://www.w3.org/2000/svg" xmlns:xlink="http://www.w3.org/1999/xlink" x="0px" y="0px"
	 viewBox="0 0 2000 2000" style="enable-background:new 0 0 2000 2000;" xml:space="preserve">
<style type="text/css">
	.st0{fill-rule:evenodd;clip-rule:evenodd;fill:url(#SVGID_1_);}
	.st1{fill-rule:evenodd;clip-rule:evenodd;fill:url(#SVGID_2_);}
	.st2{opacity:0.2;fill-rule:evenodd;clip-rule:evenodd;fill:url(#SVGID_3_);}
	.st3{fill-rule:evenodd;clip-rule:evenodd;fill:url(#SVGID_4_);}
	.st4{fill-rule:evenodd;clip-rule:evenodd;fill:#FFFFFF;}
	.st5{fill-rule:evenodd;clip-rule:evenodd;fill:url(#SVGID_5_);}
	.st6{fill:url(#SVGID_6_);}
</style>
<g>
	
		<radialGradient id="SVGID_1_" cx="946.2177" cy="1083.3646" r="77.5711" gradientTransform="matrix(5.3157 0 0 4.0167 -3952.8567 -3642.1187)" gradientUnits="userSpaceOnUse">
		<stop  offset="0" style="stop-color:#FF00A2"/>
		<stop  offset="1" style="stop-color:#810072"/>
	</radialGradient>
	<path class="st0" d="M1216.8,705.1c-79.7,46-69.2,143.6-138.9,143.6c-69.8,0-60.3-95.5-137.8-143.6c-60-37.2-104-96-126.2-159.8
		c0-0.1-0.1-0.1-0.1-0.2c-0.4-1-0.7-2.1-1.1-3.1c-0.2-0.7-0.5-1.5-0.7-2.2c-46.9-143.8,18.3-310.1,265.9-310.1
		c146.6,0,225.2,62.2,255.4,142.6c0,0.2,0.1,0.4,0.2,0.6C1377.2,490.4,1317.9,646.7,1216.8,705.1z"/>
	
		<radialGradient id="SVGID_2_" cx="947.5043" cy="1125.313" r="8.3057" gradientTransform="matrix(5.3157 0 0 4.0167 -3952.8567 -3642.1187)" gradientUnits="userSpaceOnUse">
		<stop  offset="0" style="stop-color:#884AB9"/>
		<stop  offset="1" style="stop-color:#5720B0"/>
	</radialGradient>
	<polygon class="st1" points="1077.8,848.7 1049.6,886.6 1116.9,881.2 1088.6,847.8 	"/>
	<linearGradient id="SVGID_3_" gradientUnits="userSpaceOnUse" x1="813.9225" y1="610.784" x2="1348" y2="610.784">
		<stop  offset="0" style="stop-color:#890050"/>
		<stop  offset="1" style="stop-color:#FFA7AD"/>
	</linearGradient>
	<path class="st2" d="M1216.8,705.1c-79.7,46-69.2,143.6-138.9,143.6c-69.8,0-60.3-95.5-137.8-143.6c-60-37.2-104-96-126.2-159.8
		c9.4,24.1,57.7,119.4,235.7,125.6c203.9,7.1,313.5-203.1,283.8-297.9C1377.2,490.4,1317.9,646.7,1216.8,705.1z"/>
	<linearGradient id="SVGID_4_" gradientUnits="userSpaceOnUse" x1="1229.86" y1="512.1438" x2="1229.86" y2="248.7975">
		<stop  offset="5.347590e-03" style="stop-color:#4C546D"/>
		<stop  offset="1" style="stop-color:#000000"/>
	</linearGradient>
	<path class="st3" d="M1132.9,248.8c0,0,126.2,54.1,133.4,263.3l60.2-8.7C1326.6,503.5,1341.5,264.9,1132.9,248.8z"/>
	<path class="st4" d="M860.1,370.1c0,0,7.4-31.1,37.1-54.3l38,9.1c0,0-30.6,30.8-37.6,52.5L860.1,370.1z"/>
	<linearGradient id="SVGID_5_" gradientUnits="userSpaceOnUse" x1="972.1588" y1="802.8426" x2="972.1588" y2="586.5126">
		<stop  offset="5.347590e-03" style="stop-color:#4C546D"/>
		<stop  offset="1" style="stop-color:#000000"/>
	</linearGradient>
	<path class="st5" d="M885.9,586.5c0,0,10.3,64.3,62.4,101c52.1,36.7,80.2,115.3,80.2,115.3l29.4-4.8c0,0,8.9-34.4-50.8-88.8
		C947.5,654.8,913,648.6,885.9,586.5z"/>
	<g>
		
			<radialGradient id="SVGID_6_" cx="941.7557" cy="1233.8746" r="82.7624" gradientTransform="matrix(5.3157 0 0 4.0167 -3952.8567 -3642.1187)" gradientUnits="userSpaceOnUse">
			<stop  offset="0" style="stop-color:#A4023E"/>
			<stop  offset="0.9944" style="stop-color:#860244"/>
		</radialGradient>
		<path class="st6" d="M1015.8,1781c-68.7-56.6-24.7-251.7,62.5-527.2c86-271.7,8.6-403.8,7.8-405.1l5.1-1.8
			c0.8,1.3,78.9,134.8-7.4,407.9c-75,237.2-134.7,464.8-63.8,523.3L1015.8,1781z"/>
	</g>
</g>
</svg>
