<?xml version="1.0" encoding="utf-8"?>
<!-- Generator: Adobe Illustrator 23.0.3, SVG Export Plug-In . SVG Version: 6.00 Build 0)  -->
<svg version="1.1" id="Layer_1" xmlns="http://www.w3.org/2000/svg" xmlns:xlink="http://www.w3.org/1999/xlink" x="0px" y="0px"
	 viewBox="0 0 512 512" style="enable-background:new 0 0 512 512;" xml:space="preserve">
<style type="text/css">
	.st0{fill-rule:evenodd;clip-rule:evenodd;fill:#FFFFFF;}
	.st1{fill-rule:evenodd;clip-rule:evenodd;fill:#717171;}
	.st2{fill-rule:evenodd;clip-rule:evenodd;fill:#727272;}
	.st3{fill-rule:evenodd;clip-rule:evenodd;fill:#747474;}
	.st4{fill-rule:evenodd;clip-rule:evenodd;fill:#757575;}
	.st5{fill-rule:evenodd;clip-rule:evenodd;fill:#767676;}
	.st6{fill-rule:evenodd;clip-rule:evenodd;fill:#787878;}
	.st7{fill-rule:evenodd;clip-rule:evenodd;fill:#797979;}
	.st8{fill-rule:evenodd;clip-rule:evenodd;fill:#7B7B7B;}
	.st9{fill-rule:evenodd;clip-rule:evenodd;fill:#7C7C7C;}
	.st10{fill-rule:evenodd;clip-rule:evenodd;fill:#7D7D7D;}
	.st11{fill-rule:evenodd;clip-rule:evenodd;fill:#7F7F7F;}
	.st12{fill-rule:evenodd;clip-rule:evenodd;fill:#808080;}
	.st13{opacity:0.5;fill-rule:evenodd;clip-rule:evenodd;fill:#FFFFFF;}
</style>
<g>
	<path class="st0" d="M112.52,116.57h288.97c57.28,0,104.13,49.43,104.13,109.85v0c0,60.41-46.85,109.84-104.13,109.84H112.52
		c-57.28,0-104.14-49.43-104.14-109.84v0C8.38,166,55.24,116.57,112.52,116.57 M108.81,109H405.2c58.74,0,106.8,52.84,106.8,117.42
		v0c0,64.58-48.06,117.42-106.8,117.42H108.81C50.06,343.84,2,291,2,226.42v0C2,161.84,50.06,109,108.81,109z"/>
	<path class="st1" d="M112.97,133.54h288.06c48.87,0,88.84,41.79,88.84,92.88v0c0,51.08-39.98,92.87-88.84,92.87H112.97
		c-48.87,0-88.85-41.79-88.85-92.87v0C24.12,175.34,64.11,133.54,112.97,133.54"/>
	<path class="st2" d="M116.89,144.76c93.41,0,186.81,0,280.22,0c45.71,0,83.11,39.09,83.11,86.87c0,0,0,0,0,0
		c0,47.78-37.4,86.87-83.11,86.87c-93.41,0-186.81,0-280.22,0c-45.71,0-83.11-39.09-83.11-86.87c0,0,0,0,0,0
		C33.79,183.85,71.18,144.76,116.89,144.76"/>
	<path class="st3" d="M120.81,155.98c90.79,0,181.58,0,272.38,0c42.55,0,77.36,36.39,77.36,80.87c0,0,0,0,0,0
		c0,44.48-34.81,80.87-77.36,80.87c-90.8,0-181.59,0-272.38,0c-42.56,0-77.37-36.39-77.37-80.87c0,0,0,0,0,0
		C43.44,192.37,78.25,155.98,120.81,155.98"/>
	<path class="st4" d="M124.72,167.19c88.18,0,176.37,0,264.55,0c39.4,0,71.63,33.69,71.63,74.87c0,0,0,0,0,0
		c0,41.18-32.23,74.87-71.63,74.87c-88.18,0-176.37,0-264.55,0c-39.39,0-71.62-33.69-71.62-74.87c0,0,0,0,0,0
		C53.11,200.88,85.33,167.19,124.72,167.19"/>
	<path class="st5" d="M128.64,178.41c85.58,0,171.14,0,256.71,0c36.24,0,65.88,30.99,65.88,68.87l0,0
		c0,37.88-29.64,68.87-65.88,68.87c-85.57,0-171.14,0-256.71,0c-36.24,0-65.88-30.99-65.88-68.87l0,0
		C62.76,209.41,92.41,178.41,128.64,178.41"/>
	<path class="st6" d="M132.56,189.63c82.96,0,165.92,0,248.87,0c33.08,0,60.15,28.29,60.15,62.87l0,0
		c0,34.58-27.06,62.87-60.15,62.87c-82.95,0-165.91,0-248.87,0c-33.08,0-60.14-28.29-60.14-62.87l0,0
		C72.43,217.92,99.49,189.63,132.56,189.63"/>
	<path class="st7" d="M136.48,200.84c80.34,0,160.69,0,241.03,0c29.92,0,54.4,25.59,54.4,56.87l0,0c0,31.28-24.48,56.87-54.4,56.87
		c-80.34,0-160.69,0-241.03,0c-29.92,0-54.4-25.59-54.4-56.87l0,0C82.08,226.44,106.56,200.84,136.48,200.84"/>
	<path class="st8" d="M140.4,212.06c77.74,0,155.47,0,233.19,0c26.77,0,48.66,22.89,48.66,50.86c0,0,0,0,0,0
		c0,27.97-21.89,50.87-48.66,50.87c-77.73,0-155.46,0-233.19,0c-26.76,0-48.65-22.89-48.65-50.87c0,0,0,0,0,0
		C91.75,234.95,113.64,212.06,140.4,212.06"/>
	<path class="st9" d="M144.32,223.28c75.12,0,150.24,0,225.36,0c23.61,0,42.93,20.19,42.93,44.86l0,0
		c0,24.68-19.32,44.87-42.93,44.87c-75.11,0-150.23,0-225.36,0c-23.61,0-42.92-20.19-42.92-44.87l0,0
		C101.4,243.47,120.72,223.28,144.32,223.28"/>
	<path class="st10" d="M148.24,234.5c72.51,0,145.02,0,217.52,0c20.44,0,37.17,17.48,37.17,38.86v0c0,21.38-16.73,38.86-37.17,38.86
		c-72.51,0-145.02,0-217.52,0c-20.44,0-37.18-17.49-37.18-38.86v0C111.06,251.98,127.8,234.5,148.24,234.5"/>
	<path class="st11" d="M152.16,245.71c69.9,0,139.79,0,209.69,0c17.29,0,31.44,14.79,31.44,32.86c0,0,0,0,0,0
		c0,18.07-14.15,32.86-31.44,32.86c-69.9,0-139.79,0-209.69,0c-17.29,0-31.44-14.79-31.44-32.86c0,0,0,0,0,0
		C120.72,260.5,134.87,245.71,152.16,245.71"/>
	<path class="st12" d="M156.08,256.93h201.85c14.13,0,25.69,12.09,25.69,26.86v0c0,14.77-11.56,26.86-25.69,26.86H156.08
		c-14.14,0-25.7-12.09-25.7-26.86v0C130.38,269.02,141.94,256.93,156.08,256.93"/>
	<path class="st12" d="M401.03,294.44H112.97c-44.84,0-82.19-35.18-88.04-80.45c-0.53,4.07-0.81,8.22-0.81,12.44
		c0,51.08,39.98,92.87,88.85,92.87h288.06c48.87,0,88.84-41.79,88.84-92.88c0-4.21-0.27-8.36-0.8-12.43
		C483.23,259.25,445.87,294.44,401.03,294.44"/>
	<path class="st12" d="M110.29,146.62h293.44c19.09,0,34.71,16.33,34.71,36.29c0,19.96-15.62,36.29-34.71,36.29H110.29
		c-19.1,0-34.72-16.33-34.72-36.29C75.56,162.95,91.19,146.62,110.29,146.62"/>
	<path class="st13" d="M119.11,125.9H394.9c54.66,0,99.38,45.23,99.38,100.52v0c0,55.29-44.72,100.52-99.38,100.52H119.11
		c-54.66,0-99.38-45.23-99.38-100.52v0C19.73,171.13,64.45,125.9,119.11,125.9 M108.81,109H405.2c58.74,0,106.8,52.84,106.8,117.42
		v0c0,64.58-48.06,117.42-106.8,117.42H108.81C50.06,343.84,2,291,2,226.42v0C2,161.84,50.06,109,108.81,109z"/>
	<path class="st13" d="M402.48,306.18c-2.4-12.41,8.05-27.32,24.95-34.65c11.04-4.79,22.33-5.24,30.7-2.05
		c8.55-12.53,13.49-27.29,13.49-43.05v0c0-45.09-40.46-81.98-89.89-81.98H137.89c9.64,21.24-5.29,51.82-34.5,69.55
		c-21.48,13.04-44.89,15.63-60.9,8.43c-0.07,1.32-0.11,2.66-0.11,4v0c0,45.09,40.45,81.98,89.89,81.98h249.45
		C388.87,308.41,395.81,307.63,402.48,306.18 M108.81,109H405.2c58.74,0,106.8,52.84,106.8,117.42v0
		c0,64.58-48.06,117.42-106.8,117.42H108.81c-58.75,0-106.8-52.84-106.8-117.42v0C2.01,161.84,50.06,109,108.81,109z"/>
	<path class="st0" d="M118.87,136.59c5.13,12.94-5.62,29.9-24.02,37.87c-18.4,7.97-37.48,3.94-42.61-9
		c-5.13-12.94,5.62-29.9,24.02-37.87C94.67,119.62,113.74,123.64,118.87,136.59"/>
	<path class="st0" d="M46.19,167.99c3.81,3.64,2.71,11.4-2.46,17.33c-5.17,5.93-12.47,7.78-16.28,4.14
		c-3.81-3.64-2.71-11.4,2.46-17.33C35.08,166.21,42.38,164.36,46.19,167.99"/>
	<path class="st0" d="M446.48,294.84c4.12,10.41-4.52,24.03-19.31,30.44c-14.79,6.41-30.12,3.17-34.26-7.24
		c-4.12-10.4,4.52-24.04,19.31-30.44C427.01,281.19,442.35,284.43,446.48,294.84"/>
</g>
</svg>
