<?xml version="1.0" encoding="utf-8"?>
<!-- Generator: Adobe Illustrator 23.0.3, SVG Export Plug-In . SVG Version: 6.00 Build 0)  -->
<svg version="1.1" id="Layer_1" xmlns="http://www.w3.org/2000/svg" xmlns:xlink="http://www.w3.org/1999/xlink" x="0px" y="0px"
	 viewBox="0 0 1000 1000" style="enable-background:new 0 0 1000 1000;" xml:space="preserve">
<style type="text/css">
	.st0{fill:#B9592F;}
	.st1{fill:url(#SVGID_1_);}
	.st2{fill:url(#SVGID_2_);}
	.st3{fill:#A13129;}
</style>
<g>
	<g>
		<path class="st0" d="M709.8,463.96c-0.77-5.76-4-10.89-8.86-14.08l-3.01-1.97c3.66-5.23,6.49-10.7,8.43-16.31
			c2.56-7.4,3.58-14.85,3.04-22.16c-0.62-8.28-3.27-15.75-7.89-22.23c-4.78-6.68-11.48-11.72-19.93-14.97
			c-5.63-2.16-12.03-3.26-19.02-3.26c-2.56,0-5.25,0.15-8.01,0.44c-10.82,1.05-22.1,2.23-33.65,3.53c-3.11-1.9-6.7-2.94-10.39-2.94
			c-0.49,0-0.99,0.02-1.48,0.06l-62.52,4.64c-2.12-1.12-4.36-2.12-6.74-2.95c-5.21-1.82-11.02-2.75-17.29-2.75
			c-2.43,0-4.98,0.14-7.59,0.41c-13.42,1.3-27.55,2.8-42,4.48c-1.97,0.23-3.83,0.74-5.57,1.48l-5.56-3.81
			c-3.46-2.37-7.39-3.51-11.29-3.51c-6.35,0-12.59,3.02-16.47,8.64l-4.75,6.88l-3.99-6.26c-3.03-4.76-7.92-8.01-13.48-8.97
			c-1.13-0.19-2.26-0.29-3.39-0.29c-3.61,0-7.16,1-10.27,2.86c-2.53-1.12-5.27-1.72-8.08-1.72c-0.33,0-0.65,0.01-0.98,0.02
			l-32.49,1.6c-1.77,0.09-3.48,0.4-5.1,0.92c-2.55-1.14-5.33-1.74-8.16-1.74c-0.63,0-1.27,0.03-1.91,0.09l-33.29,3.19
			c-10.63,1.02-18.58,10.2-18.07,20.86l4.33,90.63c0.51,10.68,9.32,19.04,19.97,19.04c0.14,0,0.27,0,0.41,0l28.39-0.57
			c3.64-0.07,7.04-1.12,9.96-2.89c0.42,0.03,0.84,0.04,1.27,0.04c0.8,0,1.6-0.05,2.4-0.14l26.45-3.19
			c4.78-0.58,9.02-2.83,12.14-6.14c3.02,5.18,8.31,8.91,14.62,9.75l30.67,4.1c0.89,0.12,1.77,0.18,2.65,0.18
			c4.78,0,9.43-1.71,13.09-4.88c1.83-1.59,3.34-3.48,4.47-5.56c3.24,4.47,8.28,7.56,14.13,8.17l27.59,2.85
			c0.69,0.07,1.37,0.11,2.06,0.11c4.85,0,9.56-1.76,13.23-5c4.19-3.69,6.64-8.97,6.76-14.55l0.14-6.1c1.22-0.52,2.42-1.07,3.6-1.65
			l0.05,5.31c0.05,5.46,2.33,10.66,6.31,14.4c3.72,3.49,8.62,5.42,13.69,5.42c0.36,0,0.72-0.01,1.08-0.03l57.61-3.12
			c2.28,1.25,4.82,2.08,7.54,2.36l25.91,2.68l-55.14,4.7c-1.46,0.12-2.87,0.42-4.23,0.84c-1.25-0.69-2.54-1.34-3.87-1.95
			c-5.58-2.56-11.77-4.22-18.42-4.95c-1.96-0.21-3.98-0.32-5.99-0.32c-5.02,0-10.25,0.67-15.56,2c-0.08,0.02-0.17,0.04-0.25,0.07
			c-7.11,1.88-13.91,4.64-20.2,8.21c-0.48,0.27-0.96,0.56-1.44,0.85c-0.61-0.9-1.29-1.75-2.04-2.55c-3.79-4-9.05-6.26-14.53-6.26
			c-0.33,0-0.65,0.01-0.98,0.02l-32.49,1.6c-1.77,0.09-3.48,0.4-5.1,0.92c-2.55-1.14-5.33-1.74-8.16-1.74
			c-0.63,0-1.27,0.03-1.91,0.09l-30.59,2.93c-4.44-1.53-9.11-2.68-13.95-3.42c-4.56-0.7-9.22-1.05-13.84-1.05
			c-1.45,0-2.93,0.04-4.32,0.1c-7.04,0.31-13.83,1.57-20.18,3.73c-6.94,2.37-13.17,5.89-18.51,10.46
			c-5.54,4.75-9.97,10.53-13.14,17.18c-3.35,7.02-4.92,14.88-4.68,23.29c0.14,6.02,1.47,11.62,3.93,16.61
			c0.89,1.81,1.88,3.54,2.98,5.18c-0.28,0.59-0.53,1.2-0.75,1.82l-8.66,24.4c-3.45,9.71,1.04,20.45,10.38,24.81
			c2.78,1.3,5.76,2.54,8.85,3.67c3.23,1.19,6.6,2.23,10.04,3.09c3.52,0.88,7.13,1.55,10.76,1.99c3.08,0.38,6.17,0.57,9.17,0.57
			c0.68,0,1.35-0.01,2.02-0.03c0.07,0,0.15,0,0.22-0.01c7.49-0.29,14.66-1.49,21.33-3.56c2.94-0.91,5.74-2.01,8.41-3.26
			c3.57,3.26,8.3,5.24,13.47,5.24c0.14,0,0.27,0,0.41,0l28.39-0.57c3.64-0.07,7.04-1.12,9.96-2.89c0.42,0.03,0.84,0.04,1.27,0.04
			c0.8,0,1.6-0.05,2.4-0.14l26.45-3.19c2.77-0.33,5.35-1.24,7.64-2.57c4.87,3.8,10.2,6.76,15.91,8.79
			c6.41,2.28,13.16,3.5,20.08,3.61c0.42,0.01,0.83,0.01,1.24,0.01c5.96,0,11.86-0.68,17.55-2.03c6.08-1.45,11.89-3.6,17.26-6.42
			c3.41-1.79,6.56-3.81,9.43-6.03c1.12,2.72,2.83,5.2,5.06,7.22c3.7,3.36,8.5,5.19,13.44,5.19c0.81,0,1.63-0.05,2.45-0.15
			l32.38-3.99c10.02-1.24,17.55-9.75,17.55-19.85v-46.8c7.3-2.43,12.7-8.92,13.56-16.8l2.96-27.13c0.65-5.94-1.39-11.87-5.57-16.14
			c-3.48-3.56-8.13-5.65-13.03-5.96c2.78-0.82,5.38-2.24,7.59-4.2c0.02-0.02,0.04-0.04,0.06-0.06l2.85,2.1
			c3.56,2.62,7.72,3.9,11.85,3.9c5.55,0,11.05-2.3,14.98-6.74l17.67-19.95C708.8,475.52,710.57,469.71,709.8,463.96z"/>
		<path class="st0" d="M709.8,463.96c-0.77-5.76-4-10.89-8.86-14.08l-3.01-1.97c3.66-5.23,6.49-10.7,8.43-16.31
			c2.56-7.4,3.58-14.85,3.04-22.16c-0.62-8.28-3.27-15.75-7.89-22.23c-4.78-6.68-11.48-11.72-19.93-14.97
			c-5.63-2.16-12.03-3.26-19.02-3.26c-2.56,0-5.25,0.15-8.01,0.44c-10.82,1.05-22.1,2.23-33.65,3.53c-3.11-1.9-6.7-2.94-10.39-2.94
			c-0.49,0-0.99,0.02-1.48,0.06l-62.52,4.64c-2.12-1.12-4.36-2.12-6.74-2.95c-5.21-1.82-11.02-2.75-17.29-2.75
			c-2.43,0-4.98,0.14-7.59,0.41c-13.42,1.3-27.55,2.8-42,4.48c-1.97,0.23-3.83,0.74-5.57,1.48l-5.56-3.81
			c-3.46-2.37-7.39-3.51-11.29-3.51c-6.35,0-12.59,3.02-16.47,8.64l-4.75,6.88l-3.99-6.26c-3.03-4.76-7.92-8.01-13.48-8.97
			c-1.13-0.19-2.26-0.29-3.39-0.29c-3.61,0-7.16,1-10.27,2.86c-2.53-1.12-5.27-1.72-8.08-1.72c-0.33,0-0.65,0.01-0.98,0.02
			l-32.49,1.6c-1.77,0.09-3.48,0.4-5.1,0.92c-2.55-1.14-5.33-1.74-8.16-1.74c-0.63,0-1.27,0.03-1.91,0.09l-33.29,3.19
			c-10.63,1.02-18.58,10.2-18.07,20.86l4.33,90.63c0.51,10.68,9.32,19.04,19.97,19.04c0.14,0,0.27,0,0.41,0l28.39-0.57
			c3.64-0.07,7.04-1.12,9.96-2.89c0.42,0.03,0.84,0.04,1.27,0.04c0.8,0,1.6-0.05,2.4-0.14l26.45-3.19
			c4.78-0.58,9.02-2.83,12.14-6.14c3.02,5.18,8.31,8.91,14.62,9.75l30.67,4.1c0.89,0.12,1.77,0.18,2.65,0.18
			c4.78,0,9.43-1.71,13.09-4.88c1.83-1.59,3.34-3.48,4.47-5.56c3.24,4.47,8.28,7.56,14.13,8.17l27.59,2.85
			c0.69,0.07,1.37,0.11,2.06,0.11c4.85,0,9.56-1.76,13.23-5c4.19-3.69,6.64-8.97,6.76-14.55l0.14-6.1c1.22-0.52,2.42-1.07,3.6-1.65
			l0.05,5.31c0.05,5.46,2.33,10.66,6.31,14.4c3.72,3.49,8.62,5.42,13.69,5.42c0.36,0,0.72-0.01,1.08-0.03l57.61-3.12
			c2.28,1.25,4.82,2.08,7.54,2.36l25.91,2.68l-55.14,4.7c-1.46,0.12-2.87,0.42-4.23,0.84c-1.25-0.69-2.54-1.34-3.87-1.95
			c-5.58-2.56-11.77-4.22-18.42-4.95c-1.96-0.21-3.98-0.32-5.99-0.32c-5.02,0-10.25,0.67-15.56,2c-0.08,0.02-0.17,0.04-0.25,0.07
			c-7.11,1.88-13.91,4.64-20.2,8.21c-0.48,0.27-0.96,0.56-1.44,0.85c-0.61-0.9-1.29-1.75-2.04-2.55c-3.79-4-9.05-6.26-14.53-6.26
			c-0.33,0-0.65,0.01-0.98,0.02l-32.49,1.6c-1.77,0.09-3.48,0.4-5.1,0.92c-2.55-1.14-5.33-1.74-8.16-1.74
			c-0.63,0-1.27,0.03-1.91,0.09l-30.59,2.93c-4.44-1.53-9.11-2.68-13.95-3.42c-4.56-0.7-9.22-1.05-13.84-1.05
			c-1.45,0-2.93,0.04-4.32,0.1c-7.04,0.31-13.83,1.57-20.18,3.73c-6.94,2.37-13.17,5.89-18.51,10.46
			c-5.54,4.75-9.97,10.53-13.14,17.18c-3.35,7.02-4.92,14.88-4.68,23.29c0.14,6.02,1.47,11.62,3.93,16.61
			c0.89,1.81,1.88,3.54,2.98,5.18c-0.28,0.59-0.53,1.2-0.75,1.82l-8.66,24.4c-3.45,9.71,1.04,20.45,10.38,24.81
			c2.78,1.3,5.76,2.54,8.85,3.67c3.23,1.19,6.6,2.23,10.04,3.09c3.52,0.88,7.13,1.55,10.76,1.99c3.08,0.38,6.17,0.57,9.17,0.57
			c0.68,0,1.35-0.01,2.02-0.03c0.07,0,0.15,0,0.22-0.01c7.49-0.29,14.66-1.49,21.33-3.56c2.94-0.91,5.74-2.01,8.41-3.26
			c3.57,3.26,8.3,5.24,13.47,5.24c0.14,0,0.27,0,0.41,0l28.39-0.57c3.64-0.07,7.04-1.12,9.96-2.89c0.42,0.03,0.84,0.04,1.27,0.04
			c0.8,0,1.6-0.05,2.4-0.14l26.45-3.19c2.77-0.33,5.35-1.24,7.64-2.57c4.87,3.8,10.2,6.76,15.91,8.79
			c6.41,2.28,13.16,3.5,20.08,3.61c0.42,0.01,0.83,0.01,1.24,0.01c5.96,0,11.86-0.68,17.55-2.03c6.08-1.45,11.89-3.6,17.26-6.42
			c3.41-1.79,6.56-3.81,9.43-6.03c1.12,2.72,2.83,5.2,5.06,7.22c3.7,3.36,8.5,5.19,13.44,5.19c0.81,0,1.63-0.05,2.45-0.15
			l32.38-3.99c10.02-1.24,17.55-9.75,17.55-19.85v-46.8c7.3-2.43,12.7-8.92,13.56-16.8l2.96-27.13c0.65-5.94-1.39-11.87-5.57-16.14
			c-3.48-3.56-8.13-5.65-13.03-5.96c2.78-0.82,5.38-2.24,7.59-4.2c0.02-0.02,0.04-0.04,0.06-0.06l2.85,2.1
			c3.56,2.62,7.72,3.9,11.85,3.9c5.55,0,11.05-2.3,14.98-6.74l17.67-19.95C708.8,475.52,710.57,469.71,709.8,463.96z"/>
		<g>
			<path class="st0" d="M310.02,393.19l33.29-3.19l-3.99,41.84l16.87-1.25l1.37-39.79l32.49-1.6l-9.23,88.01l-26.45,3.19l1.48-25.08
				l-11.97,1.71l-1.14,26.22l-28.39,0.57L310.02,393.19z"/>
			<path class="st0" d="M408.4,388.06l20.18,31.69l21.89-31.69l27.93,19.15l-34.77,44.92l-0.34,32.83l-30.67-4.1v-33.52
				l-28.73-40.13L408.4,388.06z"/>
			<path class="st0" d="M533.17,390.62c4.45,1.56,7.98,3.86,10.6,6.9c2.62,3.04,4.39,6.67,5.3,10.89c0.91,4.22,0.99,8.63,0.23,13.22
				c-0.76,4.6-2.28,9.23-4.56,13.91c-2.28,4.67-5.3,9.01-9.06,13c-3.76,3.99-8.21,7.45-13.34,10.37c-5.13,2.93-10.89,5-17.27,6.21
				l-0.46,20.52l-27.59-2.85l-1.82-89.03c14.44-1.67,28.35-3.15,41.73-4.45C523.31,388.63,528.73,389.07,533.17,390.62z
				 M518.75,424.77c0-0.07,0.04-0.49,0.11-1.25c0.08-0.76-0.04-1.67-0.34-2.74c-0.3-1.06-0.95-1.96-1.94-2.68
				c-0.99-0.72-2.57-1.06-4.73-1.03c-2.17,0.04-5.07,0.78-8.72,2.22l-1.14,18.24c2.74-0.61,5.11-1.48,7.13-2.62
				c2.01-1.14,3.71-2.35,5.07-3.65c1.37-1.29,2.43-2.53,3.19-3.71C518.14,426.38,518.6,425.45,518.75,424.77z"/>
			<path class="st0" d="M547.59,394.67l62.93-4.67l-3.53,28.84l-28.61,1.25l-0.11,5.47l20.75-1.48l-2.39,19.95l-19.04,1.48
				l-0.23,6.27l32.6-3.08l-0.57,31.46l-60.99,3.31L547.59,394.67z"/>
			<path class="st0" d="M689.98,466.6l-17.67,19.95l-27.7-20.41l-0.34,19.49l-27.59-2.85l-1.82-89.03
				c14.44-1.67,28.35-3.15,41.72-4.45c7.14-0.76,13.09-0.23,17.84,1.6c4.75,1.82,8.36,4.47,10.83,7.92
				c2.47,3.46,3.88,7.49,4.22,12.08c0.34,4.6-0.32,9.31-2,14.14c-1.67,4.83-4.31,9.52-7.92,14.08c-3.61,4.56-8.08,8.51-13.4,11.86
				L689.98,466.6z M642.9,419.29l-1.14,18.24c2.74-0.61,5.11-1.48,7.13-2.62c2.01-1.14,3.71-2.35,5.07-3.65
				c1.37-1.29,2.41-2.53,3.13-3.71c0.72-1.18,1.16-2.11,1.31-2.79c0-0.07,0.04-0.49,0.11-1.25c0.08-0.76-0.02-1.67-0.29-2.74
				c-0.27-1.06-0.91-1.96-1.94-2.68c-1.03-0.72-2.6-1.06-4.73-1.03C649.43,417.11,646.55,417.85,642.9,419.29z"/>
			<path class="st0" d="M398.09,562.48c2.35,1.07,4.77,2.28,7.24,3.65c2.47,1.37,4.71,3.04,6.73,5.02c2.01,1.98,3.69,4.35,5.02,7.13
				c1.33,2.78,2.07,6.06,2.22,9.86c0.23,5.4-0.65,10.17-2.62,14.31c-1.98,4.14-4.77,7.64-8.38,10.49
				c-3.61,2.85-7.92,5.06-12.94,6.61s-10.41,2.45-16.19,2.68c-2.66,0.08-5.4-0.06-8.21-0.4c-2.81-0.34-5.59-0.86-8.32-1.54
				c-2.74-0.68-5.4-1.5-7.98-2.45c-2.58-0.95-5.02-1.96-7.3-3.02l8.66-24.4c1.14,0.46,2.51,1.05,4.1,1.77c1.6,0.72,3.31,1.39,5.13,2
				c1.82,0.61,3.72,1.14,5.7,1.6c1.98,0.46,3.91,0.65,5.81,0.57c2.81-0.15,5.19-0.64,7.13-1.48c1.94-0.84,2.87-2.24,2.79-4.22
				c-0.08-1.29-0.74-2.28-2-2.96c-1.25-0.68-2.76-1.37-4.5-2.05c-1.14-0.3-2.64-0.72-4.5-1.25c-1.86-0.53-3.86-1.25-5.98-2.17
				c-2.13-0.91-4.28-2.01-6.44-3.31c-2.17-1.29-4.14-2.85-5.93-4.67c-1.79-1.82-3.27-3.93-4.45-6.33c-1.18-2.39-1.81-5.15-1.88-8.26
				c-0.15-5.32,0.76-10.05,2.74-14.19c1.98-4.14,4.67-7.67,8.09-10.6c3.42-2.92,7.41-5.17,11.97-6.73
				c4.56-1.56,9.42-2.45,14.59-2.68c4.79-0.23,9.54,0.02,14.25,0.74c4.71,0.72,9.12,1.92,13.22,3.59l-6.73,26.33
				c-3.04-1.29-5.81-2.37-8.32-3.25c-2.51-0.87-5.44-1.54-8.78-2c-0.99-0.15-2.32-0.23-3.99-0.23c-1.6,0-3.17,0.17-4.73,0.51
				c-1.56,0.34-2.91,0.89-4.05,1.65c-1.14,0.76-1.75,1.82-1.82,3.19c0,0.61,0.28,1.08,0.85,1.43c0.57,0.34,1.25,0.61,2.05,0.8
				c0.8,0.19,1.61,0.34,2.45,0.46c0.84,0.11,1.52,0.21,2.05,0.28c2.2,0.46,4.56,0.99,7.07,1.6
				C394.06,561,396.11,561.64,398.09,562.48z"/>
			<path class="st0" d="M418.83,529.99l33.29-3.19l-3.99,41.84l16.87-1.25l1.37-39.79l32.49-1.6l-9.23,88.01l-26.45,3.19l1.48-25.08
				l-11.97,1.71l-1.14,26.22l-28.39,0.57L418.83,529.99z"/>
			<path class="st0" d="M572.39,610.36c-2.74,2.74-6.06,5.13-9.97,7.18c-3.92,2.05-8.11,3.61-12.6,4.67
				c-4.49,1.06-9.1,1.56-13.85,1.48c-4.75-0.08-9.31-0.89-13.68-2.45c-4.37-1.56-8.38-3.93-12.03-7.13
				c-3.65-3.19-6.61-7.33-8.89-12.43c-2.58-5.7-4.12-11.36-4.62-16.99c-0.49-5.62-0.13-11.04,1.08-16.25
				c1.22-5.21,3.19-10.13,5.93-14.76c2.74-4.63,6.04-8.83,9.92-12.6c3.88-3.76,8.23-7.01,13.05-9.75c4.83-2.74,9.97-4.83,15.45-6.27
				c5.17-1.29,10.01-1.69,14.54-1.2c4.52,0.5,8.61,1.58,12.25,3.25c3.65,1.67,6.74,3.71,9.29,6.1c2.55,2.39,4.46,4.81,5.76,7.24
				c2.36,4.56,4.12,9.71,5.3,15.45c1.18,5.74,1.44,11.69,0.8,17.84c-0.65,6.16-2.38,12.37-5.19,18.64
				C582.12,598.67,577.94,604.66,572.39,610.36z M557.23,561.79c-1.14-2.43-2.75-4.18-4.84-5.24c-2.09-1.06-4.35-1.52-6.78-1.37
				c-2.43,0.15-4.9,0.86-7.41,2.11c-2.51,1.25-4.79,3-6.84,5.24c-2.05,2.24-3.74,4.96-5.07,8.15c-1.33,3.19-2,6.73-2,10.6
				c-0.08,3.65,0.44,6.61,1.54,8.89c1.1,2.28,2.51,3.97,4.22,5.07c1.71,1.1,3.67,1.71,5.87,1.82c2.2,0.11,4.39-0.21,6.55-0.97
				c2.17-0.76,4.2-1.88,6.1-3.36c1.9-1.48,3.5-3.21,4.79-5.19c1.9-2.96,3.29-5.72,4.16-8.26c0.87-2.54,1.41-4.88,1.6-7.01
				c0.19-2.13,0.09-4.07-0.29-5.81C558.44,564.72,557.91,563.16,557.23,561.79z"/>
			<path class="st0" d="M645.69,551.88l-13.68,1.6v64.18l-32.38,3.99l1.71-65.09l-15.05,1.48l0.8-28.04l61.56-5.24L645.69,551.88z"
				/>
		</g>
	</g>
	<g>
		<linearGradient id="SVGID_1_" gradientUnits="userSpaceOnUse" x1="500" y1="356.2965" x2="500" y2="631.9435">
			<stop  offset="0" style="stop-color:#FFF33B"/>
			<stop  offset="0.12" style="stop-color:#FFE029"/>
			<stop  offset="0.2628" style="stop-color:#FFD218"/>
			<stop  offset="0.4099" style="stop-color:#FEC90F"/>
			<stop  offset="0.5666" style="stop-color:#FDC70C"/>
			<stop  offset="0.9148" style="stop-color:#F3903F"/>
		</linearGradient>
		<path class="st1" d="M709.8,452.2c-0.77-5.76-4-10.89-8.86-14.08l-3.01-1.97c3.66-5.23,6.49-10.7,8.43-16.31
			c2.56-7.4,3.58-14.85,3.04-22.16c-0.62-8.28-3.27-15.75-7.89-22.23c-4.78-6.68-11.48-11.72-19.93-14.97
			c-5.63-2.16-12.03-3.26-19.02-3.26c-2.56,0-5.25,0.15-8.01,0.44c-10.82,1.05-22.1,2.23-33.65,3.53c-3.11-1.9-6.7-2.94-10.39-2.94
			c-0.49,0-0.99,0.02-1.48,0.06l-62.52,4.64c-2.12-1.12-4.36-2.12-6.74-2.95c-5.21-1.82-11.02-2.75-17.29-2.75
			c-2.43,0-4.98,0.14-7.59,0.41c-13.42,1.3-27.55,2.8-42,4.48c-1.97,0.23-3.83,0.74-5.57,1.48l-5.56-3.81
			c-3.46-2.37-7.39-3.51-11.29-3.51c-6.35,0-12.59,3.02-16.47,8.64l-4.75,6.88l-3.99-6.26c-3.03-4.76-7.92-8.01-13.48-8.97
			c-1.13-0.19-2.26-0.29-3.39-0.29c-3.61,0-7.16,1-10.27,2.86c-2.53-1.12-5.27-1.72-8.08-1.72c-0.33,0-0.65,0.01-0.98,0.02
			l-32.49,1.6c-1.77,0.09-3.48,0.4-5.1,0.92c-2.55-1.14-5.33-1.74-8.16-1.74c-0.63,0-1.27,0.03-1.91,0.09l-33.29,3.19
			c-10.63,1.02-18.58,10.2-18.07,20.86l4.33,90.63c0.51,10.68,9.32,19.04,19.97,19.04c0.14,0,0.27,0,0.41,0l28.39-0.57
			c3.64-0.07,7.04-1.12,9.96-2.89c0.42,0.03,0.84,0.04,1.27,0.04c0.8,0,1.6-0.05,2.4-0.14l26.45-3.19
			c4.78-0.58,9.02-2.83,12.14-6.14c3.02,5.18,8.31,8.91,14.62,9.75l30.67,4.1c0.89,0.12,1.77,0.18,2.65,0.18
			c4.78,0,9.43-1.71,13.09-4.88c1.83-1.59,3.34-3.48,4.47-5.56c3.24,4.47,8.28,7.56,14.13,8.17l27.59,2.85
			c0.69,0.07,1.37,0.11,2.06,0.11c4.85,0,9.56-1.76,13.23-5c4.19-3.69,6.64-8.97,6.76-14.55l0.14-6.1c1.22-0.52,2.42-1.07,3.6-1.65
			l0.05,5.31c0.05,5.46,2.33,10.66,6.31,14.4c3.72,3.49,8.62,5.42,13.69,5.42c0.36,0,0.72-0.01,1.08-0.03l57.61-3.12
			c2.28,1.25,4.82,2.08,7.54,2.36l25.91,2.68l-55.14,4.7c-1.46,0.12-2.87,0.42-4.23,0.84c-1.25-0.69-2.54-1.34-3.87-1.95
			c-5.58-2.56-11.77-4.22-18.42-4.95c-1.96-0.21-3.98-0.32-5.99-0.32c-5.02,0-10.25,0.67-15.56,2c-0.08,0.02-0.17,0.04-0.25,0.07
			c-7.11,1.88-13.91,4.64-20.2,8.21c-0.48,0.27-0.96,0.56-1.44,0.85c-0.61-0.9-1.29-1.75-2.04-2.55c-3.79-4-9.05-6.26-14.53-6.26
			c-0.33,0-0.65,0.01-0.98,0.02l-32.49,1.6c-1.77,0.09-3.48,0.4-5.1,0.92c-2.55-1.14-5.33-1.74-8.16-1.74
			c-0.63,0-1.27,0.03-1.91,0.09l-30.59,2.93c-4.44-1.53-9.11-2.68-13.95-3.42c-4.56-0.7-9.22-1.05-13.84-1.05
			c-1.45,0-2.93,0.04-4.32,0.1c-7.04,0.31-13.83,1.57-20.18,3.73c-6.94,2.37-13.17,5.89-18.51,10.46
			c-5.54,4.75-9.97,10.53-13.14,17.18c-3.35,7.02-4.92,14.88-4.68,23.29c0.14,6.02,1.47,11.62,3.93,16.61
			c0.89,1.81,1.88,3.54,2.98,5.18c-0.28,0.59-0.53,1.2-0.75,1.82l-8.66,24.4c-3.45,9.71,1.04,20.45,10.38,24.81
			c2.78,1.3,5.76,2.54,8.85,3.67c3.23,1.19,6.6,2.23,10.04,3.09c3.52,0.88,7.13,1.55,10.76,1.99c3.08,0.38,6.17,0.57,9.17,0.57
			c0.68,0,1.35-0.01,2.02-0.03c0.07,0,0.15,0,0.22-0.01c7.49-0.29,14.66-1.49,21.33-3.56c2.94-0.91,5.74-2.01,8.41-3.26
			c3.57,3.26,8.3,5.24,13.47,5.24c0.14,0,0.27,0,0.41,0l28.39-0.57c3.64-0.07,7.04-1.12,9.96-2.89c0.42,0.03,0.84,0.04,1.27,0.04
			c0.8,0,1.6-0.05,2.4-0.14l26.45-3.19c2.77-0.33,5.35-1.24,7.64-2.57c4.87,3.8,10.2,6.76,15.91,8.79
			c6.41,2.28,13.16,3.5,20.08,3.61c0.42,0.01,0.83,0.01,1.24,0.01c5.96,0,11.86-0.68,17.55-2.03c6.08-1.45,11.89-3.6,17.26-6.42
			c3.41-1.79,6.56-3.81,9.43-6.03c1.12,2.72,2.83,5.2,5.06,7.22c3.7,3.36,8.5,5.19,13.44,5.19c0.81,0,1.63-0.05,2.45-0.15
			l32.38-3.99c10.02-1.24,17.55-9.75,17.55-19.85v-46.8c7.3-2.43,12.7-8.92,13.56-16.8l2.96-27.13c0.65-5.94-1.39-11.87-5.57-16.14
			c-3.48-3.56-8.13-5.65-13.03-5.96c2.78-0.82,5.38-2.24,7.59-4.2c0.02-0.02,0.04-0.04,0.06-0.06l2.85,2.1
			c3.56,2.62,7.72,3.9,11.85,3.9c5.55,0,11.05-2.3,14.98-6.74l17.67-19.95C708.8,463.76,710.57,457.95,709.8,452.2z"/>
		<linearGradient id="SVGID_2_" gradientUnits="userSpaceOnUse" x1="500" y1="356.2965" x2="500" y2="631.9435">
			<stop  offset="0" style="stop-color:#FFF33B"/>
			<stop  offset="0.12" style="stop-color:#FFE029"/>
			<stop  offset="0.2628" style="stop-color:#FFD218"/>
			<stop  offset="0.4099" style="stop-color:#FEC90F"/>
			<stop  offset="0.5666" style="stop-color:#FDC70C"/>
			<stop  offset="0.9148" style="stop-color:#F3903F"/>
		</linearGradient>
		<path class="st2" d="M709.8,452.2c-0.77-5.76-4-10.89-8.86-14.08l-3.01-1.97c3.66-5.23,6.49-10.7,8.43-16.31
			c2.56-7.4,3.58-14.85,3.04-22.16c-0.62-8.28-3.27-15.75-7.89-22.23c-4.78-6.68-11.48-11.72-19.93-14.97
			c-5.63-2.16-12.03-3.26-19.02-3.26c-2.56,0-5.25,0.15-8.01,0.44c-10.82,1.05-22.1,2.23-33.65,3.53c-3.11-1.9-6.7-2.94-10.39-2.94
			c-0.49,0-0.99,0.02-1.48,0.06l-62.52,4.64c-2.12-1.12-4.36-2.12-6.74-2.95c-5.21-1.82-11.02-2.75-17.29-2.75
			c-2.43,0-4.98,0.14-7.59,0.41c-13.42,1.3-27.55,2.8-42,4.48c-1.97,0.23-3.83,0.74-5.57,1.48l-5.56-3.81
			c-3.46-2.37-7.39-3.51-11.29-3.51c-6.35,0-12.59,3.02-16.47,8.64l-4.75,6.88l-3.99-6.26c-3.03-4.76-7.92-8.01-13.48-8.97
			c-1.13-0.19-2.26-0.29-3.39-0.29c-3.61,0-7.16,1-10.27,2.86c-2.53-1.12-5.27-1.72-8.08-1.72c-0.33,0-0.65,0.01-0.98,0.02
			l-32.49,1.6c-1.77,0.09-3.48,0.4-5.1,0.92c-2.55-1.14-5.33-1.74-8.16-1.74c-0.63,0-1.27,0.03-1.91,0.09l-33.29,3.19
			c-10.63,1.02-18.58,10.2-18.07,20.86l4.33,90.63c0.51,10.68,9.32,19.04,19.97,19.04c0.14,0,0.27,0,0.41,0l28.39-0.57
			c3.64-0.07,7.04-1.12,9.96-2.89c0.42,0.03,0.84,0.04,1.27,0.04c0.8,0,1.6-0.05,2.4-0.14l26.45-3.19
			c4.78-0.58,9.02-2.83,12.14-6.14c3.02,5.18,8.31,8.91,14.62,9.75l30.67,4.1c0.89,0.12,1.77,0.18,2.65,0.18
			c4.78,0,9.43-1.71,13.09-4.88c1.83-1.59,3.34-3.48,4.47-5.56c3.24,4.47,8.28,7.56,14.13,8.17l27.59,2.85
			c0.69,0.07,1.37,0.11,2.06,0.11c4.85,0,9.56-1.76,13.23-5c4.19-3.69,6.64-8.97,6.76-14.55l0.14-6.1c1.22-0.52,2.42-1.07,3.6-1.65
			l0.05,5.31c0.05,5.46,2.33,10.66,6.31,14.4c3.72,3.49,8.62,5.42,13.69,5.42c0.36,0,0.72-0.01,1.08-0.03l57.61-3.12
			c2.28,1.25,4.82,2.08,7.54,2.36l25.91,2.68l-55.14,4.7c-1.46,0.12-2.87,0.42-4.23,0.84c-1.25-0.69-2.54-1.34-3.87-1.95
			c-5.58-2.56-11.77-4.22-18.42-4.95c-1.96-0.21-3.98-0.32-5.99-0.32c-5.02,0-10.25,0.67-15.56,2c-0.08,0.02-0.17,0.04-0.25,0.07
			c-7.11,1.88-13.91,4.64-20.2,8.21c-0.48,0.27-0.96,0.56-1.44,0.85c-0.61-0.9-1.29-1.75-2.04-2.55c-3.79-4-9.05-6.26-14.53-6.26
			c-0.33,0-0.65,0.01-0.98,0.02l-32.49,1.6c-1.77,0.09-3.48,0.4-5.1,0.92c-2.55-1.14-5.33-1.74-8.16-1.74
			c-0.63,0-1.27,0.03-1.91,0.09l-30.59,2.93c-4.44-1.53-9.11-2.68-13.95-3.42c-4.56-0.7-9.22-1.05-13.84-1.05
			c-1.45,0-2.93,0.04-4.32,0.1c-7.04,0.31-13.83,1.57-20.18,3.73c-6.94,2.37-13.17,5.89-18.51,10.46
			c-5.54,4.75-9.97,10.53-13.14,17.18c-3.35,7.02-4.92,14.88-4.68,23.29c0.14,6.02,1.47,11.62,3.93,16.61
			c0.89,1.81,1.88,3.54,2.98,5.18c-0.28,0.59-0.53,1.2-0.75,1.82l-8.66,24.4c-3.45,9.71,1.04,20.45,10.38,24.81
			c2.78,1.3,5.76,2.54,8.85,3.67c3.23,1.19,6.6,2.23,10.04,3.09c3.52,0.88,7.13,1.55,10.76,1.99c3.08,0.38,6.17,0.57,9.17,0.57
			c0.68,0,1.35-0.01,2.02-0.03c0.07,0,0.15,0,0.22-0.01c7.49-0.29,14.66-1.49,21.33-3.56c2.94-0.91,5.74-2.01,8.41-3.26
			c3.57,3.26,8.3,5.24,13.47,5.24c0.14,0,0.27,0,0.41,0l28.39-0.57c3.64-0.07,7.04-1.12,9.96-2.89c0.42,0.03,0.84,0.04,1.27,0.04
			c0.8,0,1.6-0.05,2.4-0.14l26.45-3.19c2.77-0.33,5.35-1.24,7.64-2.57c4.87,3.8,10.2,6.76,15.91,8.79
			c6.41,2.28,13.16,3.5,20.08,3.61c0.42,0.01,0.83,0.01,1.24,0.01c5.96,0,11.86-0.68,17.55-2.03c6.08-1.45,11.89-3.6,17.26-6.42
			c3.41-1.79,6.56-3.81,9.43-6.03c1.12,2.72,2.83,5.2,5.06,7.22c3.7,3.36,8.5,5.19,13.44,5.19c0.81,0,1.63-0.05,2.45-0.15
			l32.38-3.99c10.02-1.24,17.55-9.75,17.55-19.85v-46.8c7.3-2.43,12.7-8.92,13.56-16.8l2.96-27.13c0.65-5.94-1.39-11.87-5.57-16.14
			c-3.48-3.56-8.13-5.65-13.03-5.96c2.78-0.82,5.38-2.24,7.59-4.2c0.02-0.02,0.04-0.04,0.06-0.06l2.85,2.1
			c3.56,2.62,7.72,3.9,11.85,3.9c5.55,0,11.05-2.3,14.98-6.74l17.67-19.95C708.8,463.76,710.57,457.95,709.8,452.2z"/>
		<g>
			<path class="st3" d="M310.02,381.43l33.29-3.19l-3.99,41.84l16.87-1.25l1.37-39.79l32.49-1.6l-9.23,88.01l-26.45,3.19l1.48-25.08
				l-11.97,1.71l-1.14,26.22l-28.39,0.57L310.02,381.43z"/>
			<path class="st3" d="M408.4,376.3l20.18,31.69l21.89-31.69l27.93,19.15l-34.77,44.92l-0.34,32.83l-30.67-4.1v-33.52l-28.73-40.13
				L408.4,376.3z"/>
			<path class="st3" d="M533.17,378.86c4.45,1.56,7.98,3.86,10.6,6.9c2.62,3.04,4.39,6.67,5.3,10.89c0.91,4.22,0.99,8.63,0.23,13.22
				c-0.76,4.6-2.28,9.23-4.56,13.91c-2.28,4.67-5.3,9.01-9.06,13c-3.76,3.99-8.21,7.45-13.34,10.37c-5.13,2.93-10.89,5-17.27,6.21
				l-0.46,20.52l-27.59-2.85L475.2,382c14.44-1.67,28.35-3.15,41.73-4.45C523.31,376.87,528.73,377.31,533.17,378.86z
				 M518.75,413.01c0-0.07,0.04-0.49,0.11-1.25c0.08-0.76-0.04-1.67-0.34-2.74c-0.3-1.06-0.95-1.96-1.94-2.68
				c-0.99-0.72-2.57-1.06-4.73-1.03c-2.17,0.04-5.07,0.78-8.72,2.22l-1.14,18.24c2.74-0.61,5.11-1.48,7.13-2.62
				c2.01-1.14,3.71-2.35,5.07-3.65c1.37-1.29,2.43-2.53,3.19-3.71C518.14,414.62,518.6,413.69,518.75,413.01z"/>
			<path class="st3" d="M547.59,382.91l62.93-4.67l-3.53,28.84l-28.61,1.25l-0.11,5.47l20.75-1.48l-2.39,19.95l-19.04,1.48
				l-0.23,6.27l32.6-3.08l-0.57,31.46l-60.99,3.31L547.59,382.91z"/>
			<path class="st3" d="M689.98,454.84l-17.67,19.95l-27.7-20.41l-0.34,19.49l-27.59-2.85L614.85,382
				c14.44-1.67,28.35-3.15,41.72-4.45c7.14-0.76,13.09-0.23,17.84,1.6c4.75,1.82,8.36,4.47,10.83,7.92
				c2.47,3.46,3.88,7.49,4.22,12.08c0.34,4.6-0.32,9.31-2,14.14c-1.67,4.83-4.31,9.52-7.92,14.08c-3.61,4.56-8.08,8.51-13.4,11.86
				L689.98,454.84z M642.9,407.53l-1.14,18.24c2.74-0.61,5.11-1.48,7.13-2.62c2.01-1.14,3.71-2.35,5.07-3.65
				c1.37-1.29,2.41-2.53,3.13-3.71c0.72-1.18,1.16-2.11,1.31-2.79c0-0.07,0.04-0.49,0.11-1.25c0.08-0.76-0.02-1.67-0.29-2.74
				c-0.27-1.06-0.91-1.96-1.94-2.68c-1.03-0.72-2.6-1.06-4.73-1.03C649.43,405.35,646.55,406.09,642.9,407.53z"/>
			<path class="st3" d="M398.09,550.72c2.35,1.07,4.77,2.28,7.24,3.65c2.47,1.37,4.71,3.04,6.73,5.02c2.01,1.98,3.69,4.35,5.02,7.13
				c1.33,2.78,2.07,6.06,2.22,9.86c0.23,5.4-0.65,10.17-2.62,14.31c-1.98,4.14-4.77,7.64-8.38,10.49
				c-3.61,2.85-7.92,5.06-12.94,6.61s-10.41,2.45-16.19,2.68c-2.66,0.08-5.4-0.06-8.21-0.4c-2.81-0.34-5.59-0.86-8.32-1.54
				c-2.74-0.68-5.4-1.5-7.98-2.45c-2.58-0.95-5.02-1.96-7.3-3.02l8.66-24.4c1.14,0.46,2.51,1.05,4.1,1.77c1.6,0.72,3.31,1.39,5.13,2
				c1.82,0.61,3.72,1.14,5.7,1.6c1.98,0.46,3.91,0.65,5.81,0.57c2.81-0.15,5.19-0.64,7.13-1.48c1.94-0.84,2.87-2.24,2.79-4.22
				c-0.08-1.29-0.74-2.28-2-2.96c-1.25-0.68-2.76-1.37-4.5-2.05c-1.14-0.3-2.64-0.72-4.5-1.25c-1.86-0.53-3.86-1.25-5.98-2.17
				c-2.13-0.91-4.28-2.01-6.44-3.31c-2.17-1.29-4.14-2.85-5.93-4.67c-1.79-1.82-3.27-3.93-4.45-6.33c-1.18-2.39-1.81-5.15-1.88-8.26
				c-0.15-5.32,0.76-10.05,2.74-14.19c1.98-4.14,4.67-7.67,8.09-10.6c3.42-2.92,7.41-5.17,11.97-6.73
				c4.56-1.56,9.42-2.45,14.59-2.68c4.79-0.23,9.54,0.02,14.25,0.74c4.71,0.72,9.12,1.92,13.22,3.59l-6.73,26.33
				c-3.04-1.29-5.81-2.37-8.32-3.25c-2.51-0.87-5.44-1.54-8.78-2c-0.99-0.15-2.32-0.23-3.99-0.23c-1.6,0-3.17,0.17-4.73,0.51
				c-1.56,0.34-2.91,0.89-4.05,1.65c-1.14,0.76-1.75,1.82-1.82,3.19c0,0.61,0.28,1.08,0.85,1.43c0.57,0.34,1.25,0.61,2.05,0.8
				c0.8,0.19,1.61,0.34,2.45,0.46c0.84,0.11,1.52,0.21,2.05,0.28c2.2,0.46,4.56,0.99,7.07,1.6
				C394.06,549.24,396.11,549.88,398.09,550.72z"/>
			<path class="st3" d="M418.83,518.23l33.29-3.19l-3.99,41.84l16.87-1.25l1.37-39.79l32.49-1.6l-9.23,88.01l-26.45,3.19l1.48-25.08
				l-11.97,1.71l-1.14,26.22l-28.39,0.57L418.83,518.23z"/>
			<path class="st3" d="M572.39,598.6c-2.74,2.74-6.06,5.13-9.97,7.18c-3.92,2.05-8.11,3.61-12.6,4.67
				c-4.49,1.06-9.1,1.56-13.85,1.48c-4.75-0.08-9.31-0.89-13.68-2.45c-4.37-1.56-8.38-3.93-12.03-7.13
				c-3.65-3.19-6.61-7.33-8.89-12.43c-2.58-5.7-4.12-11.36-4.62-16.99c-0.49-5.62-0.13-11.04,1.08-16.25
				c1.22-5.21,3.19-10.13,5.93-14.76c2.74-4.63,6.04-8.83,9.92-12.6c3.88-3.76,8.23-7.01,13.05-9.75c4.83-2.74,9.97-4.83,15.45-6.27
				c5.17-1.29,10.01-1.69,14.54-1.2c4.52,0.5,8.61,1.58,12.25,3.25c3.65,1.67,6.74,3.71,9.29,6.1c2.55,2.39,4.46,4.81,5.76,7.24
				c2.36,4.56,4.12,9.71,5.3,15.45c1.18,5.74,1.44,11.69,0.8,17.84c-0.65,6.16-2.38,12.37-5.19,18.64
				C582.12,586.91,577.94,592.9,572.39,598.6z M557.23,550.03c-1.14-2.43-2.75-4.18-4.84-5.24c-2.09-1.06-4.35-1.52-6.78-1.37
				c-2.43,0.15-4.9,0.86-7.41,2.11c-2.51,1.25-4.79,3-6.84,5.24c-2.05,2.24-3.74,4.96-5.07,8.15c-1.33,3.19-2,6.73-2,10.6
				c-0.08,3.65,0.44,6.61,1.54,8.89c1.1,2.28,2.51,3.97,4.22,5.07c1.71,1.1,3.67,1.71,5.87,1.82c2.2,0.11,4.39-0.21,6.55-0.97
				c2.17-0.76,4.2-1.88,6.1-3.36c1.9-1.48,3.5-3.21,4.79-5.19c1.9-2.96,3.29-5.72,4.16-8.26c0.87-2.54,1.41-4.88,1.6-7.01
				c0.19-2.13,0.09-4.07-0.29-5.81C558.44,552.96,557.91,551.4,557.23,550.03z"/>
			<path class="st3" d="M645.69,540.12l-13.68,1.6v64.18l-32.38,3.99l1.71-65.09l-15.05,1.48l0.8-28.04l61.56-5.24L645.69,540.12z"
				/>
		</g>
	</g>
</g>
</svg>
