<?xml version="1.0" encoding="utf-8"?>
<!-- Generator: Adobe Illustrator 23.0.3, SVG Export Plug-In . SVG Version: 6.00 Build 0)  -->
<svg version="1.1" id="Layer_1" xmlns="http://www.w3.org/2000/svg" xmlns:xlink="http://www.w3.org/1999/xlink" x="0px" y="0px"
	 viewBox="0 0 512 512" style="enable-background:new 0 0 512 512;" xml:space="preserve">
<style type="text/css">
	.st0{fill-rule:evenodd;clip-rule:evenodd;fill:#FF962A;}
	.st1{fill-rule:evenodd;clip-rule:evenodd;fill:#FFFFFF;}
	.st2{fill-rule:evenodd;clip-rule:evenodd;fill:#FFA502;}
	.st3{fill-rule:evenodd;clip-rule:evenodd;fill:#FFA902;}
	.st4{fill-rule:evenodd;clip-rule:evenodd;fill:#FFAC02;}
	.st5{fill-rule:evenodd;clip-rule:evenodd;fill:#FFB001;}
	.st6{fill-rule:evenodd;clip-rule:evenodd;fill:#FFB301;}
	.st7{fill-rule:evenodd;clip-rule:evenodd;fill:#FFB701;}
	.st8{fill-rule:evenodd;clip-rule:evenodd;fill:#FFBA01;}
	.st9{fill-rule:evenodd;clip-rule:evenodd;fill:#FFBE01;}
	.st10{fill-rule:evenodd;clip-rule:evenodd;fill:#FFC101;}
	.st11{fill-rule:evenodd;clip-rule:evenodd;fill:#FFC500;}
	.st12{fill-rule:evenodd;clip-rule:evenodd;fill:#FFC800;}
	.st13{fill-rule:evenodd;clip-rule:evenodd;fill:#FFCC00;}
	.st14{opacity:0.5;fill-rule:evenodd;clip-rule:evenodd;fill:#FFFFFF;}
	.st15{stroke:#50B0E1;stroke-miterlimit:10;}
	.st16{font-family:'FunkyStoneage';}
	.st17{font-size:155.9524px;}
	.st18{fill-rule:evenodd;clip-rule:evenodd;fill:#FFB501;}
	.st19{fill-rule:evenodd;clip-rule:evenodd;fill:#FFB801;}
	.st20{fill-rule:evenodd;clip-rule:evenodd;fill:#FFBD01;}
	.st21{fill-rule:evenodd;clip-rule:evenodd;fill:#FFBF00;}
	.st22{fill-rule:evenodd;clip-rule:evenodd;fill:#FFC200;}
	.st23{fill-rule:evenodd;clip-rule:evenodd;fill:#FFC400;}
	.st24{fill-rule:evenodd;clip-rule:evenodd;fill:#FFC700;}
	.st25{fill-rule:evenodd;clip-rule:evenodd;fill:#FFC900;}
	.st26{stroke:#FF931E;stroke-miterlimit:10;}
	.st27{font-size:148.4401px;}
</style>
<path class="st0" d="M386.05,356.21c-21.39-7.54-48.96-19.9-76.82-40.97c-84.33-63.75-110.64-161.34-112.67-160.47
	c-3.06,1.31,86.24,208.64,76.82,213.39c-9.96,5.03-138.55-212.54-139.99-211.69c-1.09,0.65,93.62,115.1,59.75,182.67
	c-18.71,37.33-71.81,50.61-124.81,54.63c30.12-3.08,52.1-23.08,54.82-46.09c1.5-12.71-2.25-31.58-11.95-34.14
	c-21.71-5.74-56.6,74.66-72.91,68.18c-4.98-1.98-9.69-12.64-11.41-20.03c-0.68-2.92-1.04-5.96-1.04-9.08
	c4.93-11.6,10.62-27.03,15.23-45.69c8.36-33.87,0.25-48.64,8.67-65.08c13.05-25.47,49.87-31.44,69.67-34.06
	c130.61-17.31,369.25-1.4,370.78-8.62c1.37-6.5-104.14-30.73-104.14-30.73C154.4,115.22,38.32,89.2,25.84,117.4
	c-8.58,19.38,31.02,57.94,34.14,56.15c2.64-1.52-16.75-34.23-10.24-39.26c8.1-6.27,46.41,38.17,54.63,32.44
	c4.89-3.41-0.77-24.65-36.04-90.48c80.35,3.54,137.96,22.63,176.03,39.69c37.66,16.88,58.65,32.86,92.19,32.01
	c50.39-1.29,90.4-39.62,116.28-71.7c-18.65,58.31-21.33,74.19-18.97,75.11c5.15,2.01,34.64-67.27,49.01-63.06
	c5.19,1.52,9.78,13.02,11.41,20.03c0.68,2.92,1.04,5.96,1.04,9.08c9.47,51.87,9.23,99.5-17.07,119.31
	c-58.72,44.24-214.79-74.78-220.22-66.58c-3.38,5.11,55.98,52.92,237.29,182.48C365,321.16,324.93,301.12,326.3,287.92
	c2.4-23.18,132.89-28.79,134.86-18.78c1.69,8.57-91.92,23.82-93.89,58.04C366.64,338.17,375.62,348.18,386.05,356.21z"/>
<g>
	<path class="st1" d="M274.7,318.4c-4.56-5.6-6.5-12.54-5.39-19.92c1.4-9.38,6.86-17.12,14.8-21.49c1.95-1.07,4.03-1.93,6.23-2.61
		c3.77-1.15,6.69-1,10.4-0.11c7.7,2.06,12.17,6.66,16.04,13.68c7.33,13.27,2.03,30.05-10.92,36.99c-4.29,2.3-9.05,3.27-13.83,2.85
		C285.37,327.1,279.05,323.75,274.7,318.4 M273.9,319.1c-4.74-5.82-6.76-13.05-5.61-20.72c1.46-9.75,7.13-17.81,15.4-22.35
		c2.03-1.11,4.19-2.01,6.48-2.71c3.92-1.2,6.95-1.04,10.82-0.11c8.01,2.15,12.65,6.93,16.68,14.23
		c7.62,13.81,2.11,31.26-11.36,38.47c-4.47,2.39-9.42,3.41-14.38,2.97C284.99,328.16,278.43,324.67,273.9,319.1z"/>
	<path class="st2" d="M278.52,315c-2.11-2.59-3.58-5.67-4.26-9.03c-1.12-5.57,0.5-12.25,3.62-16.86c3.29-4.91,7.87-8.02,13.28-9.68
		c3.04-0.93,5.41-0.81,8.41-0.09c6.23,1.67,9.83,5.38,12.96,11.05c2.09,3.78,2.92,7.72,2.64,12.13
		c-1.07,12.1-11.22,21.07-22.64,20.06C287.14,322.04,282.04,319.33,278.52,315"/>
	<path class="st3" d="M279.27,315.14c-2-2.44-3.4-5.34-4.04-8.5c-1.07-5.24,0.54-11.72,3.42-15.86c3.01-4.44,7.48-7.22,12.72-8.7
		c3.08-0.82,5.56-0.71,8.36-0.11c5.79,1.4,9.05,5.14,11.9,10.43c1.88,3.63,2.53,7.37,2.11,11.5c-1.13,11.12-10.57,19.33-21.17,18.39
		C287.45,321.76,282.61,319.21,279.27,315.14"/>
	<path class="st4" d="M280.03,315.27c-1.89-2.29-3.22-5-3.83-7.97c-1.01-4.91,0.58-11.19,3.22-14.86c2.74-3.97,7.1-6.42,12.16-7.72
		c3.12-0.71,5.71-0.61,8.3-0.14c5.36,1.12,8.28,4.9,10.83,9.82c1.67,3.48,2.14,7.03,1.59,10.86c-1.19,10.13-9.92,17.58-19.7,16.72
		C287.77,321.49,283.19,319.09,280.03,315.27"/>
	<path class="st5" d="M280.78,315.41c-1.79-2.14-3.04-4.67-3.61-7.43c-0.96-4.58,0.61-10.67,3.02-13.86
		c2.46-3.49,6.71-5.61,11.6-6.75c3.16-0.6,5.87-0.5,8.25-0.16c4.93,0.85,7.51,4.65,9.76,9.2c1.47,3.32,1.75,6.68,1.07,10.23
		c-1.26,9.14-9.26,15.84-18.24,15.04C288.08,321.22,283.76,318.98,280.78,315.41"/>
	<path class="st6" d="M281.54,315.55c-1.68-1.98-2.85-4.34-3.4-6.9c-0.9-4.25,0.65-10.14,2.82-12.86c2.19-3.02,6.33-4.81,11.04-5.77
		c3.2-0.49,6.02-0.4,8.2-0.19c4.5,0.58,6.73,4.41,8.7,8.58c1.26,3.17,1.36,6.34,0.55,9.6c-1.32,8.15-8.61,14.1-16.78,13.37
		C288.39,320.94,284.34,318.86,281.54,315.55"/>
	<path class="st7" d="M282.29,315.69c-1.57-1.83-2.67-4-3.19-6.37c-0.85-3.92,0.69-9.61,2.63-11.86c1.91-2.55,5.95-4.01,10.48-4.79
		c3.25-0.39,6.18-0.3,8.15-0.21c4.07,0.31,5.96,4.17,7.63,7.96c1.05,3.02,0.98,5.99,0.03,8.96c-1.38,7.16-7.96,12.35-15.31,11.7
		C288.71,320.67,284.92,318.74,282.29,315.69"/>
	<path class="st8" d="M283.04,315.82c-1.46-1.68-2.49-3.67-2.97-5.84c-0.8-3.59,0.72-9.08,2.43-10.86c1.64-2.07,5.56-3.21,9.93-3.81
		c3.29-0.28,6.33-0.2,8.1-0.24c3.63,0.03,5.19,3.93,6.56,7.34c0.85,2.87,0.59,5.65-0.49,8.33c-1.44,6.18-7.31,10.61-13.85,10.03
		C289.02,320.39,285.49,318.62,283.04,315.82"/>
	<path class="st9" d="M283.8,315.96c-1.36-1.53-2.31-3.34-2.76-5.31c-0.74-3.26,0.76-8.55,2.23-9.85c1.36-1.6,5.18-2.41,9.37-2.84
		c3.33-0.17,6.49-0.1,8.05-0.26c3.2-0.24,4.41,3.68,5.49,6.72c0.64,2.71,0.2,5.3-1.01,7.69c-1.5,5.19-6.66,8.86-12.38,8.36
		C289.34,320.12,286.07,318.51,283.8,315.96"/>
	<path class="st10" d="M284.55,316.09c-1.25-1.38-2.13-3-2.55-4.77c-0.69-2.94,0.8-8.02,2.03-8.85c1.09-1.13,4.79-1.6,8.81-1.86
		c3.37-0.06,6.64,0,7.99-0.29c2.77-0.51,3.64,3.44,4.43,6.1c0.43,2.56-0.19,4.96-1.54,7.06c-1.56,4.2-6.01,7.12-10.92,6.68
		C289.65,319.85,286.64,318.39,284.55,316.09"/>
	<path class="st11" d="M285.31,316.23c-1.14-1.22-1.95-2.67-2.33-4.24c-0.63-2.61,0.84-7.49,1.83-7.85c0.81-0.65,4.41-0.8,8.25-0.88
		c3.41,0.05,6.79,0.1,7.94-0.32c2.33-0.79,2.87,3.2,3.36,5.49c0.23,2.41-0.58,4.61-2.06,6.42c-1.62,3.21-5.36,5.37-9.45,5.01
		C289.96,319.57,287.22,318.27,285.31,316.23"/>
	<path class="st12" d="M286.06,316.37c-1.04-1.07-1.77-2.34-2.12-3.71c-0.58-2.28,0.87-6.97,1.63-6.85c0.54-0.18,4.02,0,7.69,0.09
		c3.45,0.16,6.95,0.2,7.89-0.34c1.9-1.06,2.09,2.96,2.3,4.87c0.02,2.26-0.97,4.27-2.58,5.79c-1.68,2.22-4.71,3.63-7.99,3.34
		C290.28,319.3,287.79,318.16,286.06,316.37"/>
	<path class="st13" d="M286.82,316.51c-0.93-0.92-1.59-2-1.9-3.18c-0.52-1.95,0.91-6.44,1.44-5.85c0.53,0.59,13.5,2.04,14.97,0.71
		c1.47-1.33,1.32,2.71,1.23,4.25c-0.37,4.21-4.69,7.26-9.62,6.82C290.59,319.02,288.37,318.04,286.82,316.51"/>
	<path class="st13" d="M281.45,300.35c-9.16,4.23-4-21.77,14.84-20.03c20.46,1.88,19.27,26.75,11.96,22.41
		C302.77,299.47,287.8,297.41,281.45,300.35"/>
	<path class="st13" d="M293.09,316.4c-8.07-0.83-15.08-6.33-17.61-14.53c-0.59-1.91-0.7-3.76-0.6-5.76
		c-1.84,7.59-0.35,14.41,4.87,20c3.5,3.74,7.85,5.81,12.81,6.31c11.34,1,21.39-7.9,22.45-19.9c0.09-1.05,0.11-1.97,0.07-3.02
		C312.59,310.23,303.47,317.17,293.09,316.4"/>
	<path class="st14" d="M294.87,281.1c3.04,4.2,1.18,11.13-4.16,15.46c-5.34,4.33-12.13,4.44-15.17,0.23
		c-2.13-2.94-1.88-12.94-4.1,1.86c-1.01,6.75,0.76,13.11,4.94,18.24c3.99,4.9,9.77,7.97,15.87,8.6c3.94,0.35,7.88-0.34,11.49-2.03
		c-0.95-0.13-1.79-0.58-2.34-1.34c-1.36-1.88-0.53-4.99,1.86-6.93c2.39-1.94,5.43-1.99,6.8-0.11c0.73,1,0.83,2.36,0.4,3.69
		c7.64-7.53,9.97-19.73,4.44-29.75c-3.55-6.42-7.63-10.63-14.68-12.52c-3.4-0.81-6.08-0.96-9.52,0.1c-1.39,0.43-2.72,0.93-4.01,1.53
		C290.01,277.65,293.09,278.64,294.87,281.1 M273.93,319.07c-4.73-5.81-6.74-13.02-5.6-20.68c1.46-9.74,7.12-17.78,15.37-22.31
		c2.02-1.11,4.19-2.01,6.47-2.71c3.91-1.2,6.94-1.03,10.8-0.11c8,2.14,12.63,6.92,16.65,14.2c7.61,13.78,2.11,31.2-11.34,38.4
		c-4.46,2.39-9.4,3.4-14.35,2.96C285.01,328.11,278.46,324.63,273.93,319.07z"/>
	<path class="st14" d="M280.9,312.89c-3.14-3.85-4.47-8.64-3.71-13.72c0.97-6.46,4.72-11.79,10.2-14.8
		c1.34-0.74,2.78-1.33,4.29-1.79c2.59-0.79,4.6-0.69,7.17-0.07c5.31,1.42,8.38,4.59,11.05,9.42c5.05,9.14,1.4,20.7-7.52,25.47
		c-2.96,1.58-6.24,2.26-9.52,1.96C288.25,318.89,283.9,316.58,280.9,312.89 M273.9,319.1c-4.74-5.82-6.76-13.05-5.61-20.72
		c1.46-9.75,7.13-17.81,15.4-22.35c2.03-1.11,4.19-2.01,6.48-2.71c3.92-1.2,6.95-1.04,10.82-0.11c8.01,2.15,12.65,6.93,16.68,14.23
		c7.62,13.81,2.11,31.26-11.36,38.47c-4.47,2.39-9.42,3.41-14.38,2.97C284.99,328.16,278.43,324.67,273.9,319.1z"/>
	<path class="st1" d="M295.4,277.45c1.08,2.46-0.86,5.86-4.34,7.6c-3.48,1.73-7.17,1.14-8.25-1.32c-1.08-2.46,0.86-5.86,4.34-7.6
		C290.62,274.4,294.32,274.99,295.4,277.45"/>
	<path class="st1" d="M281.56,284.24c0.93,1.29,0.19,3.53-1.64,5.01c-1.83,1.47-4.06,1.62-4.99,0.33c-0.92-1.29-0.19-3.53,1.64-5.01
		S280.63,282.95,281.56,284.24"/>
	<path class="st1" d="M303.91,321.58c0.6,1.14-0.22,2.84-1.83,3.8c-1.61,0.96-3.4,0.82-4.01-0.32c-0.6-1.14,0.22-2.84,1.83-3.8
		C301.52,320.29,303.31,320.44,303.91,321.58"/>
</g>
<text transform="matrix(1 0 0 1 36.9248 226.8608)" class="st15 st16 st17">HYPER</text>
<g>
	<path class="st1" d="M395.46,293.59v41.59c0,8.24-5.39,14.99-11.98,14.99h0c-6.59,0-11.98-6.74-11.98-14.99v-41.59
		c0-8.24,5.39-14.99,11.98-14.99h0C390.07,278.6,395.46,285.34,395.46,293.59 M396.29,293.05v42.66c0,8.46-5.76,15.37-12.8,15.37h0
		c-7.04,0-12.8-6.92-12.8-15.37v-42.66c0-8.46,5.76-15.37,12.8-15.37h0C390.53,277.68,396.29,284.6,396.29,293.05z"/>
	<path class="st5" d="M393.61,293.65v41.46c0,7.03-4.56,12.79-10.13,12.79h0c-5.57,0-10.13-5.75-10.13-12.79v-41.46
		c0-7.03,4.56-12.79,10.13-12.79h0C389.06,280.86,393.61,286.62,393.61,293.65"/>
	<path class="st6" d="M392.39,294.22c0,13.44,0,26.89,0,40.33c0,6.58-4.26,11.96-9.47,11.96c0,0,0,0,0,0
		c-5.21,0-9.47-5.38-9.47-11.96c0-13.44,0-26.89,0-40.33c0-6.58,4.26-11.96,9.47-11.96c0,0,0,0,0,0
		C388.13,282.25,392.39,287.64,392.39,294.22"/>
	<path class="st18" d="M391.17,294.78c0,13.07,0,26.14,0,39.21c0,6.12-3.97,11.14-8.82,11.14c0,0,0,0,0,0
		c-4.85,0-8.82-5.01-8.82-11.14c0-13.07,0-26.14,0-39.21c0-6.13,3.97-11.14,8.82-11.14c0,0,0,0,0,0
		C387.2,283.64,391.17,288.65,391.17,294.78"/>
	<path class="st19" d="M389.94,295.34c0,12.69,0,25.39,0,38.08c0,5.67-3.67,10.31-8.16,10.31c0,0,0,0,0,0
		c-4.49,0-8.16-4.64-8.16-10.31c0-12.69,0-25.39,0-38.08c0-5.67,3.67-10.31,8.16-10.31c0,0,0,0,0,0
		C386.27,285.04,389.94,289.67,389.94,295.34"/>
	<path class="st8" d="M388.72,295.91c0,12.32,0,24.63,0,36.95c0,5.22-3.38,9.48-7.51,9.48l0,0c-4.13,0-7.51-4.27-7.51-9.48
		c0-12.32,0-24.63,0-36.95c0-5.22,3.38-9.48,7.51-9.48l0,0C385.34,286.43,388.72,290.69,388.72,295.91"/>
	<path class="st20" d="M387.5,296.47c0,11.94,0,23.88,0,35.82c0,4.76-3.08,8.66-6.86,8.66l0,0c-3.77,0-6.86-3.9-6.86-8.66
		c0-11.94,0-23.88,0-35.82c0-4.76,3.08-8.66,6.86-8.66l0,0C384.41,287.82,387.5,291.71,387.5,296.47"/>
	<path class="st21" d="M386.28,297.04c0,11.56,0,23.13,0,34.69c0,4.31-2.79,7.83-6.2,7.83l0,0c-3.41,0-6.2-3.52-6.2-7.83
		c0-11.56,0-23.13,0-34.69c0-4.31,2.79-7.83,6.2-7.83l0,0C383.48,289.21,386.28,292.73,386.28,297.04"/>
	<path class="st22" d="M385.05,297.6c0,11.19,0,22.38,0,33.57c0,3.85-2.5,7-5.55,7c0,0,0,0,0,0c-3.05,0-5.55-3.15-5.55-7
		c0-11.19,0-22.38,0-33.57c0-3.85,2.5-7,5.55-7c0,0,0,0,0,0C382.56,290.6,385.05,293.75,385.05,297.6"/>
	<path class="st23" d="M383.83,298.16c0,10.81,0,21.63,0,32.44c0,3.4-2.2,6.18-4.89,6.18l0,0c-2.69,0-4.89-2.78-4.89-6.18
		c0-10.81,0-21.62,0-32.44c0-3.4,2.2-6.18,4.89-6.18l0,0C381.63,291.99,383.83,294.77,383.83,298.16"/>
	<path class="st24" d="M382.61,298.73c0,10.44,0,20.87,0,31.31c0,2.94-1.91,5.35-4.24,5.35h0c-2.33,0-4.24-2.41-4.24-5.35
		c0-10.44,0-20.87,0-31.31c0-2.94,1.91-5.35,4.24-5.35h0C380.7,293.38,382.61,295.78,382.61,298.73"/>
	<path class="st25" d="M381.38,299.29c0,10.06,0,20.12,0,30.18c0,2.49-1.61,4.52-3.58,4.52c0,0,0,0,0,0c-1.97,0-3.58-2.04-3.58-4.52
		c0-10.06,0-20.12,0-30.18c0-2.49,1.61-4.52,3.58-4.52c0,0,0,0,0,0C379.77,294.77,381.38,296.8,381.38,299.29"/>
	<path class="st13" d="M380.16,299.86v29.05c0,2.03-1.32,3.7-2.93,3.7h0c-1.61,0-2.93-1.66-2.93-3.7v-29.05
		c0-2.03,1.32-3.7,2.93-3.7h0C378.84,296.16,380.16,297.82,380.16,299.86"/>
	<path class="st13" d="M376.07,335.11v-41.46c0-6.45,3.84-11.83,8.77-12.67c-0.44-0.08-0.9-0.12-1.36-0.12
		c-5.57,0-10.13,5.75-10.13,12.79v41.46c0,7.03,4.56,12.79,10.13,12.79c0.46,0,0.91-0.04,1.36-0.11
		C379.91,346.94,376.07,341.57,376.07,335.11"/>
	<path class="st13" d="M392.19,293.26v42.24c0,2.75-1.78,5-3.96,5c-2.18,0-3.96-2.25-3.96-5v-42.24c0-2.75,1.78-5,3.96-5
		C390.41,288.27,392.19,290.52,392.19,293.26"/>
	<path class="st14" d="M394.45,294.54v39.7c0,7.87-4.93,14.3-10.96,14.3h0c-6.03,0-10.96-6.44-10.96-14.3v-39.7
		c0-7.87,4.93-14.3,10.96-14.3h0C389.52,280.23,394.45,286.67,394.45,294.54 M396.29,293.05v42.66c0,8.46-5.76,15.37-12.8,15.37h0
		c-7.04,0-12.8-6.92-12.8-15.37v-42.66c0-8.46,5.76-15.37,12.8-15.37h0C390.53,277.68,396.29,284.6,396.29,293.05z"/>
	<path class="st14" d="M374.79,335.32c1.35-0.35,2.98,1.16,3.78,3.59c0.52,1.59,0.57,3.21,0.22,4.42c1.37,1.23,2.98,1.94,4.69,1.94
		h0c4.92,0,8.94-5.82,8.94-12.94v-35.1c-2.32,1.39-5.65-0.76-7.58-4.97c-1.42-3.09-1.7-6.46-0.92-8.77
		c-0.14-0.01-0.29-0.02-0.44-0.02h0c-4.92,0-8.94,5.82-8.94,12.94v35.91C374.55,333.36,374.63,334.36,374.79,335.32 M396.29,293.05
		v42.66c0,8.46-5.76,15.37-12.8,15.37h0c-7.04,0-12.8-6.92-12.8-15.37v-42.66c0-8.46,5.76-15.37,12.8-15.37h0
		C390.53,277.68,396.29,284.6,396.29,293.05z"/>
	<path class="st1" d="M393.28,294.5c-1.41,0.74-3.26-0.81-4.13-3.46c-0.87-2.65-0.43-5.39,0.98-6.13c1.41-0.74,3.26,0.81,4.13,3.46
		C395.13,291.02,394.69,293.76,393.28,294.5"/>
	<path class="st1" d="M389.86,284.04c-0.4,0.55-1.24,0.39-1.89-0.35c-0.65-0.75-0.85-1.79-0.45-2.34c0.4-0.55,1.24-0.39,1.89,0.35
		C390.05,282.44,390.25,283.49,389.86,284.04"/>
	<path class="st1" d="M376.03,341.66c-1.13,0.59-2.62-0.65-3.32-2.78c-0.7-2.13-0.35-4.34,0.79-4.93c1.13-0.59,2.62,0.65,3.32,2.78
		C377.51,338.85,377.16,341.06,376.03,341.66"/>
</g>
<g>
	<path class="st1" d="M362.69,259.73h41.59c8.24,0,14.99,5.39,14.99,11.98v0c0,6.59-6.74,11.98-14.99,11.98h-41.59
		c-8.24,0-14.99-5.39-14.99-11.98v0C347.7,265.12,354.45,259.73,362.69,259.73 M362.16,258.9h42.66c8.46,0,15.37,5.76,15.37,12.8v0
		c0,7.04-6.92,12.8-15.37,12.8h-42.66c-8.46,0-15.37-5.76-15.37-12.8v0C346.78,264.66,353.7,258.9,362.16,258.9z"/>
	<path class="st5" d="M362.76,261.58h41.46c7.03,0,12.79,4.56,12.79,10.13v0c0,5.57-5.75,10.13-12.79,10.13h-41.46
		c-7.03,0-12.79-4.56-12.79-10.13v0C349.97,266.13,355.72,261.58,362.76,261.58"/>
	<path class="st6" d="M363.32,262.8c13.44,0,26.89,0,40.33,0c6.58,0,11.96,4.26,11.96,9.47c0,0,0,0,0,0c0,5.21-5.38,9.47-11.96,9.47
		c-13.44,0-26.89,0-40.33,0c-6.58,0-11.96-4.26-11.96-9.47c0,0,0,0,0,0C351.36,267.06,356.74,262.8,363.32,262.8"/>
	<path class="st18" d="M363.88,264.02c13.07,0,26.14,0,39.21,0c6.12,0,11.14,3.97,11.14,8.82c0,0,0,0,0,0
		c0,4.85-5.01,8.82-11.14,8.82c-13.07,0-26.14,0-39.21,0c-6.13,0-11.14-3.97-11.14-8.82c0,0,0,0,0,0
		C352.75,267.99,357.76,264.02,363.88,264.02"/>
	<path class="st19" d="M364.45,265.25c12.69,0,25.39,0,38.08,0c5.67,0,10.31,3.67,10.31,8.16c0,0,0,0,0,0
		c0,4.49-4.64,8.16-10.31,8.16c-12.69,0-25.39,0-38.08,0c-5.67,0-10.31-3.67-10.31-8.16c0,0,0,0,0,0
		C354.14,268.92,358.78,265.25,364.45,265.25"/>
	<path class="st8" d="M365.01,266.47c12.32,0,24.63,0,36.95,0c5.22,0,9.48,3.38,9.48,7.51l0,0c0,4.13-4.27,7.51-9.48,7.51
		c-12.32,0-24.63,0-36.95,0c-5.22,0-9.48-3.38-9.48-7.51l0,0C355.53,269.85,359.8,266.47,365.01,266.47"/>
	<path class="st20" d="M365.58,267.69c11.94,0,23.88,0,35.82,0c4.76,0,8.66,3.08,8.66,6.86l0,0c0,3.77-3.9,6.86-8.66,6.86
		c-11.94,0-23.88,0-35.82,0c-4.76,0-8.66-3.08-8.66-6.86l0,0C356.92,270.78,360.82,267.69,365.58,267.69"/>
	<path class="st21" d="M366.14,268.91c11.56,0,23.13,0,34.69,0c4.31,0,7.83,2.79,7.83,6.2l0,0c0,3.41-3.52,6.2-7.83,6.2
		c-11.56,0-23.13,0-34.69,0c-4.31,0-7.83-2.79-7.83-6.2l0,0C358.31,271.71,361.83,268.91,366.14,268.91"/>
	<path class="st22" d="M366.7,270.14c11.19,0,22.38,0,33.57,0c3.85,0,7,2.5,7,5.55c0,0,0,0,0,0c0,3.05-3.15,5.55-7,5.55
		c-11.19,0-22.38,0-33.57,0c-3.85,0-7-2.5-7-5.55c0,0,0,0,0,0C359.7,272.63,362.85,270.14,366.7,270.14"/>
	<path class="st23" d="M367.27,271.36c10.81,0,21.63,0,32.44,0c3.4,0,6.18,2.2,6.18,4.89l0,0c0,2.69-2.78,4.89-6.18,4.89
		c-10.81,0-21.62,0-32.44,0c-3.4,0-6.18-2.2-6.18-4.89l0,0C361.09,273.56,363.87,271.36,367.27,271.36"/>
	<path class="st24" d="M367.83,272.58c10.44,0,20.87,0,31.31,0c2.94,0,5.35,1.91,5.35,4.24v0c0,2.33-2.41,4.24-5.35,4.24
		c-10.44,0-20.87,0-31.31,0c-2.94,0-5.35-1.91-5.35-4.24v0C362.48,274.49,364.89,272.58,367.83,272.58"/>
	<path class="st25" d="M368.4,273.81c10.06,0,20.12,0,30.18,0c2.49,0,4.52,1.61,4.52,3.58c0,0,0,0,0,0c0,1.97-2.04,3.58-4.52,3.58
		c-10.06,0-20.12,0-30.18,0c-2.49,0-4.52-1.61-4.52-3.58c0,0,0,0,0,0C363.87,275.42,365.91,273.81,368.4,273.81"/>
	<path class="st13" d="M368.96,275.03h29.05c2.03,0,3.7,1.32,3.7,2.93v0c0,1.61-1.66,2.93-3.7,2.93h-29.05
		c-2.03,0-3.7-1.32-3.7-2.93v0C365.26,276.35,366.93,275.03,368.96,275.03"/>
	<path class="st13" d="M404.22,279.12h-41.46c-6.45,0-11.83-3.84-12.67-8.77c-0.08,0.44-0.12,0.9-0.12,1.36
		c0,5.57,5.75,10.13,12.79,10.13h41.46c7.03,0,12.79-4.56,12.79-10.13c0-0.46-0.04-0.91-0.11-1.36
		C416.05,275.28,410.67,279.12,404.22,279.12"/>
	<path class="st13" d="M362.37,263h42.24c2.75,0,5,1.78,5,3.96c0,2.18-2.25,3.96-5,3.96h-42.24c-2.75,0-5-1.78-5-3.96
		C357.37,264.78,359.62,263,362.37,263"/>
	<path class="st14" d="M363.64,260.74h39.7c7.87,0,14.3,4.93,14.3,10.96v0c0,6.03-6.44,10.96-14.3,10.96h-39.7
		c-7.87,0-14.3-4.93-14.3-10.96v0C349.33,265.68,355.77,260.74,363.64,260.74 M362.16,258.9h42.66c8.46,0,15.37,5.76,15.37,12.8v0
		c0,7.04-6.92,12.8-15.37,12.8h-42.66c-8.46,0-15.37-5.76-15.37-12.8v0C346.78,264.66,353.7,258.9,362.16,258.9z"/>
	<path class="st14" d="M404.43,280.4c-0.35-1.35,1.16-2.98,3.59-3.78c1.59-0.52,3.21-0.57,4.42-0.22c1.23-1.37,1.94-2.98,1.94-4.69
		v0c0-4.92-5.82-8.94-12.94-8.94h-35.1c1.39,2.32-0.76,5.65-4.97,7.58c-3.09,1.42-6.46,1.7-8.77,0.92
		c-0.01,0.14-0.02,0.29-0.02,0.44v0c0,4.92,5.82,8.94,12.94,8.94h35.91C402.47,280.64,403.47,280.56,404.43,280.4 M362.16,258.9
		h42.66c8.46,0,15.37,5.76,15.37,12.8v0c0,7.04-6.92,12.8-15.37,12.8h-42.66c-8.46,0-15.37-5.76-15.37-12.8v0
		C346.78,264.66,353.7,258.9,362.16,258.9z"/>
	<path class="st1" d="M363.61,261.91c0.74,1.41-0.81,3.26-3.46,4.13c-2.65,0.87-5.39,0.43-6.13-0.98c-0.74-1.41,0.81-3.26,3.46-4.13
		C360.12,260.06,362.87,260.5,363.61,261.91"/>
	<path class="st1" d="M353.14,265.33c0.55,0.4,0.39,1.24-0.35,1.89c-0.75,0.65-1.79,0.85-2.34,0.45c-0.55-0.4-0.39-1.24,0.35-1.89
		C351.54,265.14,352.59,264.94,353.14,265.33"/>
	<path class="st1" d="M410.76,279.16c0.59,1.13-0.65,2.62-2.78,3.32c-2.13,0.7-4.34,0.35-4.93-0.79c-0.59-1.13,0.65-2.62,2.78-3.32
		C407.96,277.68,410.16,278.03,410.76,279.16"/>
</g>
<text transform="matrix(1 0 0 1 70.8643 350.3359)" class="st26 st16 st27">Shot</text>
</svg>
