<?xml version="1.0" encoding="utf-8"?>
<!-- Generator: Adobe Illustrator 23.0.3, SVG Export Plug-In . SVG Version: 6.00 Build 0)  -->
<svg version="1.1" id="Layer_1" xmlns="http://www.w3.org/2000/svg" xmlns:xlink="http://www.w3.org/1999/xlink" x="0px" y="0px"
	 viewBox="0 0 512 512" style="enable-background:new 0 0 512 512;" xml:space="preserve">
<style type="text/css">
	.st0{fill-rule:evenodd;clip-rule:evenodd;fill:#FFFFFF;}
	.st1{fill-rule:evenodd;clip-rule:evenodd;fill:#FFA502;}
	.st2{fill-rule:evenodd;clip-rule:evenodd;fill:#FFA902;}
	.st3{fill-rule:evenodd;clip-rule:evenodd;fill:#FFAC02;}
	.st4{fill-rule:evenodd;clip-rule:evenodd;fill:#FFB001;}
	.st5{fill-rule:evenodd;clip-rule:evenodd;fill:#FFB301;}
	.st6{fill-rule:evenodd;clip-rule:evenodd;fill:#FFB701;}
	.st7{fill-rule:evenodd;clip-rule:evenodd;fill:#FFBA01;}
	.st8{fill-rule:evenodd;clip-rule:evenodd;fill:#FFBE01;}
	.st9{fill-rule:evenodd;clip-rule:evenodd;fill:#FFC101;}
	.st10{fill-rule:evenodd;clip-rule:evenodd;fill:#FFC500;}
	.st11{fill-rule:evenodd;clip-rule:evenodd;fill:#FFC800;}
	.st12{fill-rule:evenodd;clip-rule:evenodd;fill:#FFCC00;}
	.st13{fill:none;stroke:#FFA502;stroke-width:1.0302;stroke-miterlimit:22.9256;}
	.st14{fill-rule:evenodd;clip-rule:evenodd;fill:#E6E6E6;}
	.st15{opacity:0.5;fill-rule:evenodd;clip-rule:evenodd;fill:#FFFFFF;}
</style>
<g>
	<path class="st0" d="M85.6,421.66c-45.63-44.34-68.71-102.2-64.65-166.03c5.18-81.14,48.24-151.39,116.53-194.66
		c16.75-10.6,34.88-19.56,54.18-26.97c33.1-12.68,59.59-13.57,93.9-8.79c71.25,11.78,115.22,47.67,155.85,104.65
		c76.81,107.8,42.36,255.06-69.06,324.08c-36.94,22.86-79.17,34.8-122.61,34.8C188.95,487.95,129.25,464.08,85.6,421.66
		 M78.94,428.33C31.47,382.2,7.46,322.02,11.69,255.63c5.38-84.39,50.17-157.46,121.2-202.48c17.44-11.03,36.28-20.35,56.36-28.05
		c34.43-13.19,61.99-14.11,97.68-9.15c74.09,12.26,119.84,49.59,162.1,108.85c79.9,112.13,44.06,265.3-71.84,337.09
		c-38.42,23.79-82.35,36.21-127.53,36.21C186.43,497.28,124.34,472.45,78.94,428.33z"/>
	<path class="st1" d="M117.39,389.8c-21.12-20.54-36.87-45.7-45.66-73.88c-14.58-46.69-5.28-105,19.17-146.7
		c25.75-44.46,64.66-74.44,112.21-92.69c26.71-10.25,48.18-10.98,75.88-7.1c57.6,9.52,93.09,38.51,125.95,84.56
		c21.87,30.7,32.56,63.7,33.51,101.61c0,104.17-84.48,188.41-188.41,188.41C200.91,443.37,152.66,424.07,117.39,389.8"/>
	<path class="st2" d="M124.32,390.39c-20.03-19.32-34.97-42.99-43.31-69.5c-13.83-43.92-4.52-100.51,18.18-138.01
		c23.64-40.2,61.82-67.3,107.94-83.92c27.17-9.35,49.65-10.23,75.39-7.28c53.46,7.53,85.91,37.02,115.81,80.09
		c19.88,29.56,28.78,61.05,28.3,96.59c-1.34,95.78-79.99,173.02-176.52,173.02C203.53,440.78,157.77,422.64,124.32,390.39"/>
	<path class="st3" d="M131.24,390.98c-18.94-18.1-33.07-40.28-40.95-65.12c-13.08-41.16-3.76-96.03,17.19-129.31
		c21.55-35.95,58.99-60.16,103.67-75.16c27.63-8.44,51.13-9.49,74.9-7.46c49.34,5.52,78.73,35.54,105.68,75.61
		c17.9,28.42,24.99,58.4,23.09,91.57c-2.68,87.38-75.5,157.64-164.62,157.64C206.14,438.2,162.88,421.2,131.24,390.98"/>
	<path class="st4" d="M138.17,391.58c-17.85-16.88-31.16-37.57-38.6-60.74c-12.32-38.39-3-91.53,16.2-120.61
		c19.44-31.7,56.15-53.02,99.41-66.39c28.09-7.55,52.6-8.75,74.41-7.63c45.22,3.52,71.54,34.05,95.55,71.14
		c15.91,27.28,21.19,55.74,17.86,86.54c-4.02,79-71.01,142.26-152.73,142.26C208.76,435.62,167.98,419.76,138.17,391.58"/>
	<path class="st5" d="M145.1,392.18c-16.76-15.67-29.26-34.86-36.24-56.36c-11.57-35.62-2.24-87.05,15.21-111.92
		c17.34-27.45,53.33-45.88,95.14-57.62c28.55-6.65,54.07-8.01,73.92-7.82c41.09,1.53,64.36,32.57,85.42,66.67
		c13.92,26.13,17.41,53.09,12.65,81.52c-5.36,70.61-66.53,126.87-140.84,126.87C211.37,433.05,173.09,418.33,145.1,392.18"/>
	<path class="st6" d="M152.03,392.77c-15.68-14.45-27.36-32.15-33.89-51.99c-10.82-32.85-1.49-82.56,14.22-103.22
		c15.23-23.2,50.5-38.74,90.88-48.85c29-5.75,55.55-7.27,73.43-8c36.97-0.47,57.18,31.09,75.29,62.2
		c11.93,24.99,13.61,50.43,7.43,76.5c-6.7,62.21-62.03,111.49-128.94,111.49C213.99,430.47,178.19,416.89,152.03,392.77"/>
	<path class="st7" d="M158.95,393.37c-14.58-13.24-25.45-29.44-31.53-47.61c-10.07-30.08-0.72-78.08,13.23-94.53
		c13.14-18.95,47.67-31.6,86.62-40.08c29.47-4.84,57.03-6.53,72.95-8.17c32.83-2.47,49.99,29.59,65.15,57.73
		c9.94,23.84,9.83,47.78,2.22,71.47c-8.05,53.83-57.55,96.11-117.05,96.11C216.61,427.89,183.3,415.46,158.95,393.37"/>
	<path class="st8" d="M165.88,393.97c-13.49-12.02-23.56-26.74-29.17-43.22c-9.32-27.31,0.03-73.6,12.25-85.83
		c11.02-14.7,44.83-24.47,82.33-31.31c29.93-3.94,58.5-5.79,72.47-8.35c28.71-4.47,42.81,28.12,55.02,53.25
		c7.95,22.71,6.03,45.13-3,66.46c-9.39,45.43-53.07,80.73-105.16,80.73C219.23,425.31,188.41,414.02,165.88,393.97"/>
	<path class="st9" d="M172.8,394.56c-12.4-10.8-21.65-24.03-26.82-38.84c-8.56-24.55,0.8-69.11,11.26-77.14
		c8.93-10.45,42-17.32,78.08-22.54c30.38-3.05,59.98-5.05,71.97-8.53c24.59-6.47,35.62,26.63,44.89,48.78
		c5.96,21.55,2.24,42.48-8.22,61.44c-10.73,37.04-48.59,65.34-93.27,65.34C221.84,422.74,193.51,412.59,172.8,394.56"/>
	<path class="st10" d="M179.74,395.16c-11.31-9.58-19.75-21.31-24.47-34.47c-7.8-21.78,1.56-64.62,10.28-68.44
		c6.82-6.2,39.17-10.18,73.8-13.78c30.84-2.14,61.45-4.3,71.49-8.7c20.45-8.47,28.44,25.13,34.76,44.3
		c3.98,20.41-1.56,39.82-13.44,56.42c-12.07,28.64-44.09,49.96-81.37,49.96C224.46,420.15,198.62,411.14,179.74,395.16"/>
	<path class="st11" d="M186.65,395.75c-10.22-8.37-17.84-18.61-22.1-30.09c-7.06-19.01,2.31-60.13,9.28-59.74
		c4.72-1.95,36.34-3.05,69.54-5.01c31.3-1.24,62.93-3.56,71-8.88c16.33-10.47,21.26,23.66,24.63,39.84
		c1.98,19.27-5.34,37.16-18.66,51.4c-13.41,20.25-39.61,34.57-69.48,34.57C227.07,417.57,203.73,409.71,186.65,395.75"/>
	<path class="st12" d="M193.58,396.35c-9.13-7.14-15.94-15.89-19.75-25.7c-6.3-16.25,3.07-55.65,8.29-51.05
		c5.22,4.6,123.57,7.17,135.78-5.3c12.21-12.47,14.07,22.17,14.49,35.35c0,36.25-36.53,65.56-81.47,65.56
		C229.69,414.99,208.83,408.28,193.58,396.35"/>
	<path class="st12" d="M132.12,262.44C52.75,305.51,78.56,79.58,250.1,80.13c186.33,0.61,195.48,213.88,125.98,182.31
		C324.07,238.82,187.14,232.57,132.12,262.44"/>
	<path class="st12" d="M250.13,390.67c-73.6-0.95-141.24-42.65-170.71-110.76c-6.87-15.88-9.38-31.54-10.04-48.7
		c-10.52,66.2,8.34,123.27,60,167.04c34.61,29.32,75.57,43.66,120.74,44.23c103.22,0,186.89-83.67,186.89-186.89
		c-0.07-9.03-0.57-16.93-1.8-25.89C421.41,323.29,344.58,389.45,250.13,390.67"/>
	<path class="st13" d="M225.37,168.11h-19.02c-9.91,0-18.01,8.1-18.01,18v152.53c0,9.9,8.1,18,18.01,18h19.02c9.9,0,18-8.1,18-18
		V186.11C243.37,176.21,235.26,168.11,225.37,168.11z M296.88,168.11h-19.02c-9.91,0-18.01,8.1-18.01,18v152.53
		c0,9.9,8.1,18,18.01,18h19.02c9.9,0,18-8.1,18-18V186.11C314.88,176.21,306.78,168.11,296.88,168.11z"/>
	<path class="st1" d="M225.37,168.1h-19.02c-9.91,0-18.01,8.1-18.01,18v152.53c0,9.9,8.1,18,18.01,18h19.02c9.91,0,18-8.1,18-18
		V186.1C243.37,176.19,235.27,168.1,225.37,168.1 M296.88,168.1h-19.02c-9.91,0-18,8.1-18,18v152.53c0,9.9,8.1,18,18,18h19.02
		c9.9,0,18-8.1,18-18V186.1C314.88,176.19,306.78,168.1,296.88,168.1z"/>
	<path class="st13" d="M225.37,154.62h-19.02c-9.91,0-18.01,8.09-18.01,18v152.52c0,9.91,8.1,18,18.01,18h19.02c9.9,0,18-8.1,18-18
		V172.63C243.37,162.71,235.26,154.62,225.37,154.62z M296.88,154.62h-19.02c-9.91,0-18.01,8.09-18.01,18v152.52
		c0,9.91,8.1,18,18.01,18h19.02c9.9,0,18-8.1,18-18V172.63C314.88,162.71,306.78,154.62,296.88,154.62z"/>
	<path class="st14" d="M225.37,154.61h-19.02c-9.91,0-18.01,8.1-18.01,18v152.53c0,9.9,8.1,18,18.01,18h19.02c9.91,0,18-8.1,18-18
		V172.61C243.37,162.7,235.27,154.61,225.37,154.61 M296.88,154.61h-19.02c-9.91,0-18,8.1-18,18v152.53c0,9.9,8.1,18,18,18h19.02
		c9.9,0,18-8.1,18-18V172.61C314.88,162.7,306.78,154.61,296.88,154.61z"/>
	<path class="st0" d="M243.37,253.15h-55.03v-80.54c0-9.91,8.09-18,18-18h19.02c9.91,0,18,8.1,18,18V253.15z M296.88,154.61h-19.02
		c-9.91,0-18,8.1-18,18v80.54h55.03v-80.54C314.88,162.7,306.78,154.61,296.88,154.61z"/>
	<path class="st15" d="M238.02,87.98c30.82,33.59,19.54,94.11-25.2,135.16c-44.74,41.04-106,47.08-136.83,13.48
		c-21.56-23.51-27.36-109.04-35.52,19.02c-3.73,58.42,17.4,111.38,59.18,151.98c39.95,38.83,94.59,60.67,150.25,61.39
		c35.87,0,70.86-8.9,102.2-26.01c-8.72-0.38-16.59-3.57-22.21-9.69c-13.81-15.06-8.76-42.17,11.3-60.57
		c20.04-18.39,47.49-21.1,61.3-6.04c7.36,8.03,9.36,19.49,6.58,31.23c62.96-70.08,74.26-176.03,16.27-257.41
		c-37.19-52.16-77.45-85-142.66-95.78c-31.41-4.38-55.65-3.56-85.95,8.05c-12.19,4.68-23.86,10.03-34.98,16.09
		C191.33,62.2,219.92,68.25,238.02,87.98 M79.26,428.01C31.88,381.97,7.91,321.89,12.13,255.63C17.5,171.39,62.2,98.46,133.11,53.53
		c17.4-11.01,36.21-20.31,56.26-28c34.36-13.17,61.87-14.09,97.49-9.13c73.97,12.24,119.62,49.5,161.8,108.65
		c79.75,111.92,43.99,264.82-71.69,336.47c-38.35,23.74-82.2,36.14-127.3,36.14C186.55,496.84,124.57,472.06,79.26,428.01z"/>
	<path class="st15" d="M137.27,369.98c-31.43-30.54-47.33-70.4-44.52-114.35c3.56-55.88,33.21-104.26,80.25-134.08
		c11.54-7.3,24.02-13.47,37.32-18.57c22.79-8.74,41.04-9.35,64.68-6.06c49.06,8.11,79.35,32.83,107.33,72.07
		c52.91,74.26,29.18,175.67-47.56,223.21c-25.44,15.76-54.53,23.98-84.45,23.98C208.46,415.64,167.33,399.2,137.27,369.98
		 M78.94,428.33C31.47,382.2,7.46,322.02,11.69,255.63c5.38-84.39,50.17-157.46,121.2-202.48c17.44-11.03,36.28-20.35,56.36-28.05
		c34.43-13.19,61.99-14.11,97.68-9.15c74.09,12.26,119.84,49.59,162.1,108.85c79.9,112.13,44.06,265.3-71.84,337.09
		c-38.42,23.79-82.35,36.21-127.53,36.21C186.43,497.28,124.34,472.45,78.94,428.33z"/>
	<path class="st0" d="M239.85,56.4c11.73,20.21-3.1,50.71-33.12,68.15c-30.02,17.44-63.87,15.19-75.6-5.01
		c-11.73-20.21,3.1-50.72,33.12-68.15C194.27,33.95,228.12,36.2,239.85,56.4"/>
	<path class="st0" d="M120.23,124.84c9.4,10.33,4.57,30.02-10.77,43.98c-15.34,13.96-35.4,16.91-44.8,6.58
		c-9.39-10.33-4.57-30.01,10.78-43.97C90.78,117.46,110.84,114.52,120.23,124.84"/>
	<path class="st0" d="M352.07,426.73c6.35,9.28,0.32,24.43-13.47,33.86c-13.79,9.43-30.1,9.55-36.45,0.28
		c-6.34-9.27-0.31-24.44,13.47-33.87C329.41,417.57,345.73,417.44,352.07,426.73"/>
</g>
</svg>
