<?xml version="1.0" encoding="utf-8"?>
<!-- Generator: Adobe Illustrator 23.0.3, SVG Export Plug-In . SVG Version: 6.00 Build 0)  -->
<svg version="1.1" id="Layer_1" xmlns="http://www.w3.org/2000/svg" xmlns:xlink="http://www.w3.org/1999/xlink" x="0px" y="0px"
	 viewBox="0 0 512 512" style="enable-background:new 0 0 512 512;" xml:space="preserve">
<style type="text/css">
	.st0{fill-rule:evenodd;clip-rule:evenodd;fill:#FFFFFF;}
	.st1{fill-rule:evenodd;clip-rule:evenodd;fill:#FFA502;}
	.st2{fill-rule:evenodd;clip-rule:evenodd;fill:#FFA902;}
	.st3{fill-rule:evenodd;clip-rule:evenodd;fill:#FFAC02;}
	.st4{fill-rule:evenodd;clip-rule:evenodd;fill:#FFB001;}
	.st5{fill-rule:evenodd;clip-rule:evenodd;fill:#FFB301;}
	.st6{fill-rule:evenodd;clip-rule:evenodd;fill:#FFB701;}
	.st7{fill-rule:evenodd;clip-rule:evenodd;fill:#FFBA01;}
	.st8{fill-rule:evenodd;clip-rule:evenodd;fill:#FFBE01;}
	.st9{fill-rule:evenodd;clip-rule:evenodd;fill:#FFC101;}
	.st10{fill-rule:evenodd;clip-rule:evenodd;fill:#FFC500;}
	.st11{fill-rule:evenodd;clip-rule:evenodd;fill:#FFC800;}
	.st12{fill-rule:evenodd;clip-rule:evenodd;fill:#FFCC00;}
	.st13{fill:none;stroke:#FFA502;stroke-width:0.9601;stroke-miterlimit:22.9256;}
	.st14{fill:none;stroke:#FFA502;stroke-width:0.9884;stroke-miterlimit:22.9256;}
	.st15{fill-rule:evenodd;clip-rule:evenodd;fill:#E6E6E6;}
	.st16{opacity:0.5;fill-rule:evenodd;clip-rule:evenodd;fill:#FFFFFF;}
</style>
<g>
	<path class="st0" d="M82.31,428.9C34.4,382.35,10.17,321.6,14.44,254.59C19.87,169.4,65.08,95.65,136.78,50.2
		c17.59-11.12,36.62-20.53,56.89-28.31c34.75-13.32,62.57-14.25,98.59-9.23c74.8,12.36,120.97,50.06,163.63,109.87
		c80.65,113.18,44.48,267.79-72.51,340.25c-38.78,24.01-83.12,36.54-128.73,36.54C190.82,498.5,128.15,473.45,82.31,428.9
		 M75.32,435.9C25.49,387.48,0.28,324.29,4.71,254.59C10.37,165.98,57.39,89.28,131.96,42c18.31-11.58,38.1-21.35,59.17-29.45
		c36.15-13.85,65.08-14.82,102.56-9.6c77.79,12.87,125.82,52.06,170.19,114.29c83.89,117.73,46.26,278.54-75.42,353.91
		c-40.34,24.97-86.46,38.01-133.89,38.01C188.18,508.3,122.99,482.23,75.32,435.9z"/>
	<path class="st1" d="M115.69,395.45c-22.17-21.56-38.71-47.98-47.94-77.56c-15.31-49.01-5.54-110.24,20.13-154.03
		c27.04-46.66,67.88-78.16,117.81-97.32c28.04-10.75,50.58-11.52,79.67-7.46c60.47,10.01,97.73,40.44,132.23,88.79
		c22.96,32.24,34.19,66.88,35.19,106.67c0,109.38-88.69,197.82-197.81,197.82C203.37,451.7,152.72,431.44,115.69,395.45"/>
	<path class="st2" d="M122.96,396.07c-21.03-20.28-36.72-45.13-45.47-72.96c-14.52-46.12-4.75-105.53,19.09-144.9
		c24.82-42.21,64.91-70.66,113.33-88.11c28.53-9.82,52.13-10.75,79.16-7.64c56.13,7.9,90.19,38.87,121.59,84.09
		c20.87,31.03,30.21,64.1,29.71,101.41c-1.41,100.56-83.98,181.66-185.33,181.66C206.13,448.98,158.08,429.93,122.96,396.07"/>
	<path class="st3" d="M130.23,396.7c-19.89-19.01-34.72-42.29-43-68.37c-13.73-43.21-3.95-100.82,18.05-135.77
		c22.62-37.74,61.93-63.17,108.85-78.91c29.01-8.86,53.69-9.97,78.64-7.83c51.81,5.81,82.65,37.31,110.95,79.39
		c18.79,29.84,26.24,61.31,24.24,96.14c-2.81,91.75-79.27,165.51-172.84,165.51C208.87,446.28,163.45,428.42,130.23,396.7"/>
	<path class="st4" d="M137.51,397.32c-18.74-17.72-32.72-39.45-40.53-63.78c-12.94-40.29-3.15-96.11,17.01-126.63
		c20.42-33.28,58.96-55.67,104.38-69.7c29.49-7.93,55.23-9.19,78.13-8.02c47.47,3.71,75.11,35.75,100.32,74.7
		c16.7,28.63,22.25,58.52,18.75,90.86c-4.22,82.95-74.56,149.36-160.35,149.36C211.62,443.57,168.81,426.91,137.51,397.32"/>
	<path class="st5" d="M144.78,397.95c-17.6-16.45-30.72-36.6-38.05-59.17c-12.15-37.39-2.36-91.39,15.97-117.51
		c18.2-28.82,55.99-48.17,99.89-60.49c29.98-6.99,56.77-8.42,77.61-8.21c43.14,1.61,67.57,34.19,89.68,70
		c14.61,27.43,18.28,55.74,13.28,85.59c-5.63,74.13-69.85,133.2-147.87,133.2C214.36,440.86,174.17,425.41,144.78,397.95"/>
	<path class="st6" d="M152.06,398.58c-16.47-15.17-28.73-33.75-35.58-54.57c-11.36-34.49-1.56-86.69,14.93-108.38
		c15.99-24.36,53.02-40.67,95.41-51.29c30.45-6.03,58.32-7.63,77.1-8.39c38.81-0.49,60.03,32.64,79.05,65.3
		c12.53,26.23,14.29,52.95,7.8,80.32c-7.04,65.32-65.13,117.05-135.38,117.05C217.12,438.15,179.53,423.9,152.06,398.58"/>
	<path class="st7" d="M159.32,399.2c-15.31-13.9-26.72-30.91-33.1-49.98c-10.57-31.58-0.76-81.98,13.89-99.25
		c13.8-19.89,50.05-33.18,90.94-42.08c30.94-5.09,59.88-6.86,76.59-8.57c34.47-2.59,52.49,31.07,68.4,60.6
		c10.44,25.04,10.32,50.17,2.33,75.05c-8.45,56.51-60.43,100.9-122.9,100.9C219.86,435.45,184.89,422.39,159.32,399.2"/>
	<path class="st8" d="M166.6,399.83c-14.17-12.62-24.73-28.07-30.63-45.38c-9.78-28.68,0.03-77.27,12.86-90.12
		c11.57-15.43,47.07-25.69,86.44-32.88c31.42-4.14,61.43-6.07,76.09-8.76c30.15-4.69,44.95,29.51,57.76,55.91
		c8.35,23.83,6.33,47.39-3.15,69.78c-9.86,47.69-55.72,84.75-110.41,84.75C222.61,432.73,190.25,420.89,166.6,399.83"/>
	<path class="st9" d="M173.87,400.46c-13.02-11.34-22.74-25.23-28.16-40.79c-8.99-25.77,0.84-72.56,11.82-80.98
		c9.37-10.97,44.1-18.19,81.98-23.67c31.9-3.19,62.97-5.3,75.56-8.95c25.81-6.79,37.4,27.95,47.13,51.21
		c6.26,22.63,2.35,44.6-8.63,64.51c-11.27,38.88-51.01,68.6-97.93,68.6C225.36,430.03,195.61,419.38,173.87,400.46"/>
	<path class="st10" d="M181.15,401.08c-11.88-10.06-20.74-22.38-25.69-36.19c-8.19-22.86,1.63-67.85,10.79-71.86
		c7.16-6.51,41.12-10.69,77.49-14.47c32.38-2.25,64.52-4.52,75.06-9.13c21.48-8.9,29.86,26.4,36.49,46.51
		c4.18,21.43-1.63,41.81-14.11,59.23c-12.67,30.07-46.29,52.44-85.43,52.44C228.11,427.32,200.97,417.87,181.15,401.08"/>
	<path class="st11" d="M188.41,401.71c-10.73-8.78-18.73-19.54-23.2-31.59c-7.41-19.95,2.42-63.13,9.74-62.72
		c4.96-2.04,38.15-3.2,73.01-5.26c32.87-1.3,66.07-3.73,74.54-9.32c17.15-10.99,22.32,24.84,25.86,41.81
		c2.08,20.24-5.61,39.03-19.6,53.96c-14.08,21.27-41.59,36.3-72.95,36.3C230.84,424.61,206.34,416.36,188.41,401.71"/>
	<path class="st12" d="M195.68,402.34c-9.59-7.51-16.74-16.7-20.74-27c-6.61-17.05,3.22-58.42,8.71-53.59
		c5.48,4.83,129.73,7.52,142.56-5.57c12.82-13.09,14.78,23.28,15.22,37.13c0,38.06-38.36,68.83-85.53,68.83
		C233.6,421.91,211.69,414.86,195.68,402.34"/>
	<path class="st12" d="M131.16,261.74c-83.34,45.22-56.24-192,123.87-191.4c195.63,0.63,205.24,224.54,132.27,191.4
		C332.69,236.94,188.92,230.37,131.16,261.74"/>
	<path class="st12" d="M255.06,396.37c-77.27-1-148.29-44.78-179.23-116.3c-7.21-16.67-9.84-33.11-10.54-51.13
		c-11.05,69.5,8.75,129.43,63,175.38c36.34,30.78,79.34,45.84,126.77,46.44c108.37,0,196.22-87.84,196.22-196.22
		c-0.07-9.48-0.6-17.78-1.89-27.18C434.88,325.62,354.23,395.09,255.06,396.37"/>
	<path class="st1" d="M211.95,360.48c-13.03,5.35-24.23,6.96-24.43-14.59V176.98c-0.04-13.54,6.7-16.72,18.63-11.9l155.92,90.01
		c7.7,6.62,6.58,12.93-0.57,19.04L211.95,360.48z"/>
	<path class="st13" d="M211.95,360.48c-13.03,5.35-24.23,6.96-24.43-14.59V176.98c-0.04-13.54,6.7-16.72,18.63-11.9l155.92,90.01
		c7.7,6.62,6.58,12.93-0.57,19.04L211.95,360.48z"/>
	<path class="st14" d="M211.95,346.55c-13.03,5.35-24.23,6.95-24.43-14.6V163.04c-0.04-13.53,6.7-16.72,18.63-11.89l155.92,90.01
		c7.7,6.62,6.59,12.94-0.56,19.05L211.95,346.55z"/>
	<path class="st15" d="M211.95,346.53c-13.03,5.35-24.23,6.95-24.43-14.59V163.03c-0.04-13.54,6.7-16.72,18.63-11.9l155.92,90.01
		c7.7,6.62,6.58,12.94-0.57,19.05L211.95,346.53z"/>
	<path class="st0" d="M187.52,251.42v-88.39c-0.04-13.54,6.7-16.72,18.63-11.91l155.91,90.02c4.09,3.51,5.7,6.93,5.23,10.28H187.52z
		"/>
	<path class="st16" d="M242.34,78.56c32.36,35.28,20.52,98.81-26.46,141.9c-46.98,43.1-111.3,49.44-143.66,14.16
		c-22.64-24.67-28.72-114.49-37.29,19.97c-3.91,61.34,18.27,116.94,62.14,159.57c41.94,40.77,99.31,63.69,157.75,64.45
		c37.66,0,74.4-9.34,107.3-27.32c-9.16-0.4-17.42-3.74-23.32-10.17c-14.5-15.82-9.19-44.28,11.86-63.6
		c21.04-19.3,49.86-22.15,64.37-6.34c7.73,8.43,9.83,20.46,6.91,32.79c66.1-73.59,77.97-184.82,17.08-270.27
		c-39.05-54.75-81.31-89.25-149.79-100.57c-32.97-4.59-58.43-3.74-90.24,8.46c-12.8,4.91-25.05,10.53-36.72,16.9
		C193.32,51.49,223.34,57.85,242.34,78.56 M75.65,435.58C25.91,387.24,0.75,324.16,5.17,254.59C10.82,166.14,57.75,89.57,132.2,42.4
		c18.27-11.56,38.02-21.33,59.07-29.41C227.34-0.83,256.22-1.8,293.62,3.41c77.66,12.85,125.59,51.97,169.88,114.07
		c83.74,117.52,46.19,278.04-75.27,353.26c-40.26,24.93-86.3,37.95-133.65,37.95C188.31,507.83,123.23,481.81,75.65,435.58z"/>
	<path class="st16" d="M136.56,374.65c-32.99-32.07-49.69-73.91-46.74-120.06c3.74-58.68,34.87-109.47,84.26-140.77
		c12.12-7.67,25.22-14.15,39.18-19.51c23.93-9.17,43.09-9.81,67.91-6.35c51.51,8.52,83.31,34.46,112.69,75.67
		c55.55,77.96,30.64,184.44-49.94,234.35c-26.71,16.54-57.25,25.17-88.66,25.17C211.3,422.58,168.12,405.32,136.56,374.65
		 M75.32,435.9C25.49,387.48,0.28,324.29,4.71,254.59C10.37,165.98,57.39,89.28,131.96,42c18.31-11.58,38.1-21.35,59.17-29.45
		c36.15-13.85,65.08-14.82,102.56-9.6c77.79,12.87,125.82,52.06,170.19,114.29c83.89,117.73,46.26,278.54-75.42,353.91
		c-40.34,24.97-86.46,38.01-133.89,38.01C188.18,508.3,122.99,482.23,75.32,435.9z"/>
	<path class="st0" d="M244.27,45.41c12.32,21.21-3.25,53.25-34.77,71.55c-31.52,18.31-67.06,15.95-79.37-5.26
		c-12.32-21.21,3.25-53.25,34.77-71.55C196.41,21.85,231.95,24.2,244.27,45.41"/>
	<path class="st0" d="M118.67,117.28c9.87,10.84,4.8,31.51-11.31,46.17c-16.11,14.65-37.17,17.75-47.04,6.9
		c-9.86-10.84-4.79-31.52,11.32-46.17C87.75,109.53,108.81,106.43,118.67,117.28"/>
	<path class="st0" d="M362.09,434.22c6.67,9.75,0.34,25.67-14.14,35.56c-14.47,9.9-31.61,10.04-38.27,0.29
		c-6.66-9.74-0.33-25.66,14.15-35.56C338.29,424.61,355.43,424.48,362.09,434.22"/>
</g>
</svg>
