<?xml version="1.0" encoding="utf-8"?>
<!-- Generator: Adobe Illustrator 23.0.3, SVG Export Plug-In . SVG Version: 6.00 Build 0)  -->
<svg version="1.1" id="Layer_1" xmlns="http://www.w3.org/2000/svg" xmlns:xlink="http://www.w3.org/1999/xlink" x="0px" y="0px"
	 viewBox="0 0 500 2000" style="enable-background:new 0 0 500 2000;" xml:space="preserve">
<style type="text/css">
	.st0{fill:#B91818;}
	.st1{opacity:0.5;fill:#7E1308;}
	.st2{fill:#7E1308;}
	.st3{fill:#E30917;}
</style>
<path class="st0" d="M-0.7,0v1352.1C492.9,1169.2,503,201.6,499.6,0H-0.7z"/>
<path class="st1" d="M89,241.7c45,37.3,98.1,62,159.4,70.5c59.1,8.2,120.8,6.7,179.4-3.6c21.1-3.7,42.2-8.4,62.8-14.6
	c9.8-132.7,9.9-240.4,9-294H-0.7v142.9C25.5,178.3,54,212.7,89,241.7z"/>
<path class="st2" d="M395.6,214.8c0,0-44.4,792.5-348.8,1070.6C46.8,1285.4,386.1,1135.2,395.6,214.8z"/>
<path class="st2" d="M268.1,100.5c0,0,47.5,856.6-230.8,1168.2C37.3,1268.7,342.1,1065.5,268.1,100.5z"/>
<path class="st2" d="M119.8,106.3c0,0,28.5,834.2-98.3,1134.5C21.4,1240.9,230.7,715.3,119.8,106.3z"/>
<path class="st0" d="M-0.7,1313.2c0,0,253.6,233.6,241,686.8H-3.9L-0.7,1313.2z"/>
<path class="st2" d="M20.6,1387.6c0,0,149.8,239.8,147.5,542.2C168.1,1929.8,206.2,1621.1,20.6,1387.6z"/>
<path class="st2" d="M87.3,1950.6c0,0,28.5-302.4-61.8-538.1C25.4,1412.6,158.6,1656.6,87.3,1950.6z"/>
<g>
	<rect x="-3" y="1325" class="st2" width="76.1" height="57.4"/>
	<rect x="47.1" y="1329.1" class="st0" width="15.2" height="42.8"/>
</g>
<path class="st3" d="M472.5,284.3c0,0,0,698.7-411.4,1030.3C61.1,1314.6,410.7,1049.7,472.5,284.3z"/>
<path class="st3" d="M73,1420.9c0,0,154.6,214.8,149.8,531.8C222.8,1952.7,203.8,1681.6,73,1420.9z"/>
</svg>
