<?xml version="1.0" encoding="utf-8"?>
<!-- Generator: Adobe Illustrator 23.0.3, SVG Export Plug-In . SVG Version: 6.00 Build 0)  -->
<svg version="1.1" id="Layer_1" xmlns="http://www.w3.org/2000/svg" xmlns:xlink="http://www.w3.org/1999/xlink" x="0px" y="0px"
	 viewBox="0 0 500 2000" style="enable-background:new 0 0 500 2000;" xml:space="preserve">
<style type="text/css">
	.st0{fill:#B91818;}
	.st1{opacity:0.5;fill:#7E1308;enable-background:new    ;}
	.st2{fill:#7E1308;}
	.st3{fill:#E30917;}
</style>
<g>
	<path class="st0" d="M6.4,0C3.2,201.6,13,1169.2,498.9,1352.1V0H6.4z"/>
	<path class="st1" d="M144.3,301.8c63,1,124.4-9.2,183.6-27.7c63.8-19.9,123-49.7,171-89.3V0H6.4c-0.8,51.5-0.8,153.2,7.8,278.9
		C54.3,295.7,101.6,301.1,144.3,301.8z"/>
	<path class="st2" d="M108.9,214.8c0,0,43.7,792.5,343.3,1070.6C452.2,1285.4,118.3,1135.2,108.9,214.8z"/>
	<path class="st2" d="M234.3,100.5c0,0-46.7,856.6,227.2,1168.2C461.5,1268.7,161.5,1065.5,234.3,100.5z"/>
	<path class="st2" d="M380.4,106.3c0,0-28.1,834.2,96.7,1134.5C477.1,1240.9,271.1,715.3,380.4,106.3z"/>
	<path class="st0" d="M499,1313.2c0,0-249.7,233.6-237.2,686.8h240.3L499,1313.2z"/>
	<path class="st2" d="M477.9,1387.6c0,0-147.5,239.8-145.1,542.2C332.8,1929.8,295.4,1621.1,477.9,1387.6z"/>
	<path class="st2" d="M412.3,1950.6c0,0-28.1-302.4,60.8-538.1C473.3,1412.6,342.2,1656.6,412.3,1950.6z"/>
	<g>
		<rect x="424.1" y="1324.4" class="st2" width="74.9" height="57.4"/>
		<rect x="434.8" y="1328.6" class="st0" width="14.9" height="42.8"/>
	</g>
	<path class="st3" d="M33.2,284.3c0,0,0,698.7,404.9,1030.3C438.1,1314.6,94,1049.7,33.2,284.3z"/>
	<path class="st3" d="M426.4,1420.9c0,0-152.2,214.8-147.5,531.8C278.9,1952.7,297.7,1681.6,426.4,1420.9z"/>
</g>
</svg>
