<?xml version="1.0" encoding="utf-8"?>
<!-- Generator: Adobe Illustrator 23.0.3, SVG Export Plug-In . SVG Version: 6.00 Build 0)  -->
<svg version="1.1" id="Layer_1" xmlns="http://www.w3.org/2000/svg" xmlns:xlink="http://www.w3.org/1999/xlink" x="0px" y="0px"
	 viewBox="0 0 1024 512" style="enable-background:new 0 0 1024 512;" xml:space="preserve">
<style type="text/css">
	.st0{fill:#FFFFFF;stroke:#000000;stroke-miterlimit:10;}
</style>
<path class="st0" d="M962.09,401.5H744.91c-21.77,0-39.41-17.65-39.41-39.41V144.91c0-21.77,17.65-39.41,39.41-39.41h217.18
	c21.77,0,39.41,17.65,39.41,39.41v217.18C1001.5,383.85,983.85,401.5,962.09,401.5z"/>
<rect x="83.5" y="105.5" class="st0" width="601" height="79"/>
<path class="st0" d="M684.5,192.5v176H460.94c-9.63,0-17.44-7.81-17.44-17.44V315.5H275.32c-7.63,0-13.82-6.19-13.82-13.82V253.5
	H157.15c-8.64,0-15.65-7.01-15.65-15.65V192.5H684.5z"/>
<path class="st0" d="M169.27,245.5H676.5v-42c-173.33,0.67-346.67,1.33-520,2c-1.2,6.84-2.39,13.68-3.59,20.52
	C151.13,236.19,158.95,245.5,169.27,245.5z"/>
<path class="st0" d="M281.5,260.5c-2.3,9.39-4.6,18.78-6.9,28.17c-2.6,10.6,5.43,20.83,16.35,20.83H676.5v-53
	C544.83,257.83,413.17,259.17,281.5,260.5z"/>
<path class="st0" d="M458.14,320.5c-2.45,7.08-4.89,14.15-7.34,21.23c-3.37,9.74,4.25,19.77,15.02,19.77H676V316
	C603.38,317.5,530.76,319,458.14,320.5z"/>
<path class="st0" d="M115.41,116.5h540.18c11.55,0,20.91,9.36,20.91,20.91v16.18c0,11.55-9.36,20.91-20.91,20.91H115.41
	c-11.55,0-20.91-9.36-20.91-20.91v-16.18C94.5,125.86,103.86,116.5,115.41,116.5z"/>
</svg>
