<?xml version="1.0" encoding="utf-8"?>
<!-- Generator: Adobe Illustrator 23.0.3, SVG Export Plug-In . SVG Version: 6.00 Build 0)  -->
<svg version="1.1" id="Layer_1" xmlns="http://www.w3.org/2000/svg" xmlns:xlink="http://www.w3.org/1999/xlink" x="0px" y="0px"
	 viewBox="0 0 512 512" style="enable-background:new 0 0 512 512;" xml:space="preserve">
<style type="text/css">
	.st0{fill-rule:evenodd;clip-rule:evenodd;fill:#FFFFFF;}
	.st1{fill-rule:evenodd;clip-rule:evenodd;fill:#018A00;}
	.st2{fill-rule:evenodd;clip-rule:evenodd;fill:#058D00;}
	.st3{fill-rule:evenodd;clip-rule:evenodd;fill:#089001;}
	.st4{fill-rule:evenodd;clip-rule:evenodd;fill:#0C9301;}
	.st5{fill-rule:evenodd;clip-rule:evenodd;fill:#0F9602;}
	.st6{fill-rule:evenodd;clip-rule:evenodd;fill:#139902;}
	.st7{fill-rule:evenodd;clip-rule:evenodd;fill:#169C03;}
	.st8{fill-rule:evenodd;clip-rule:evenodd;fill:#1A9F03;}
	.st9{fill-rule:evenodd;clip-rule:evenodd;fill:#1DA204;}
	.st10{fill-rule:evenodd;clip-rule:evenodd;fill:#21A504;}
	.st11{fill-rule:evenodd;clip-rule:evenodd;fill:#24A805;}
	.st12{fill-rule:evenodd;clip-rule:evenodd;fill:#28AB05;}
	.st13{fill:none;stroke:#048E00;stroke-width:1.1793;stroke-miterlimit:22.9256;}
	.st14{fill-rule:evenodd;clip-rule:evenodd;fill:#E6E6E6;}
	.st15{opacity:0.5;fill-rule:evenodd;clip-rule:evenodd;fill:#FFFFFF;}
</style>
<g>
	<path class="st0" d="M98.2,399.08c-41.74-40.56-62.86-93.5-59.13-151.88c4.73-74.23,44.11-138.49,106.59-178.08
		c15.33-9.71,31.91-17.9,49.57-24.68c30.28-11.6,54.51-12.42,85.9-8.04c65.18,10.78,105.41,43.61,142.57,95.73
		c70.27,98.62,38.76,233.33-63.16,296.47c-33.8,20.92-72.43,31.84-112.16,31.84C192.74,459.72,138.13,437.89,98.2,399.08
		 M92.11,405.18c-43.41-42.19-65.38-97.25-61.51-157.98c4.91-77.21,45.89-144.05,110.86-185.23c15.96-10.1,33.2-18.61,51.57-25.66
		c31.48-12.08,56.7-12.92,89.34-8.37c67.79,11.21,109.64,45.36,148.3,99.58c73.09,102.58,40.32,242.7-65.71,308.37
		C329.81,457.64,289.62,469,248.29,469C190.44,468.25,133.63,445.54,92.11,405.18z"/>
	<path class="st1" d="M127.28,369.93c-19.32-18.79-33.73-41.81-41.77-67.59c-13.33-42.71-4.83-96.05,17.54-134.2
		c23.56-40.66,59.13-68.1,102.65-84.8c24.43-9.38,44.07-10.04,69.41-6.5c52.69,8.72,85.16,35.23,115.22,77.36
		c20,28.09,29.79,58.27,30.67,92.95c0,95.3-77.29,172.35-172.36,172.35C203.68,418.94,159.56,401.28,127.28,369.93"/>
	<path class="st2" d="M133.62,370.47C115.3,352.8,101.63,331.14,94,306.89c-12.66-40.18-4.15-91.94,16.63-126.25
		c21.62-36.78,56.55-61.56,98.74-76.77c24.86-8.56,45.43-9.37,68.97-6.66c48.91,6.89,78.59,33.87,105.95,73.27
		c18.18,27.04,26.31,55.85,25.88,88.36c-1.22,87.62-73.17,158.28-161.47,158.28C206.09,416.57,164.22,399.97,133.62,370.47"/>
	<path class="st3" d="M139.95,371.02c-17.32-16.56-30.25-36.85-37.46-59.57c-11.96-37.65-3.44-87.84,15.72-118.3
		c19.71-32.88,53.96-55.03,94.84-68.75c25.29-7.73,46.78-8.69,68.53-6.82c45.14,5.05,72.02,32.51,96.67,69.17
		c16.37,25.99,22.86,53.42,21.12,83.76c-2.44,79.95-69.07,144.22-150.6,144.22C208.46,414.21,168.89,398.66,139.95,371.02"/>
	<path class="st4" d="M146.29,371.57c-16.33-15.45-28.51-34.37-35.3-55.57c-11.28-35.12-2.75-83.74,14.83-110.34
		c17.77-29,51.36-48.51,90.93-60.73c25.7-6.91,48.13-8,68.07-6.98c41.37,3.23,65.45,31.15,87.41,65.09
		c14.55,24.95,19.39,50.99,16.35,79.17c-3.68,72.26-64.97,130.14-139.72,130.14C210.87,411.85,173.56,397.35,146.29,371.57"/>
	<path class="st5" d="M152.63,372.11c-15.33-14.33-26.78-31.89-33.16-51.57c-10.58-32.58-2.05-79.63,13.92-102.38
		c15.87-25.11,48.78-41.97,87.03-52.71c26.12-6.08,49.48-7.33,67.63-7.15c37.59,1.4,58.89,29.8,78.14,60.99
		c12.73,23.91,15.92,48.57,11.58,74.58c-4.91,64.59-60.86,116.06-128.85,116.06C213.26,409.5,178.24,396.03,152.63,372.11"/>
	<path class="st6" d="M158.97,372.66c-14.34-13.22-25.04-29.42-31-47.56c-9.9-30.05-1.36-75.53,13.01-94.43
		c13.94-21.22,46.19-35.43,83.13-44.69c26.53-5.26,50.82-6.65,67.18-7.32c33.82-0.43,52.31,28.44,68.88,56.9
		c10.91,22.86,12.45,46.14,6.8,69.99c-6.13,56.91-56.76,101.99-117.96,101.99C215.65,407.14,182.91,394.72,158.97,372.66"/>
	<path class="st7" d="M165.3,373.2c-13.33-12.11-23.28-26.94-28.83-43.55c-9.21-27.52-0.68-71.43,12.1-86.47
		c12.01-17.34,43.59-28.92,79.22-36.68c26.96-4.43,52.18-5.97,66.75-7.47c30.03-2.26,45.72,27.07,59.59,52.81
		c9.1,21.81,8.99,43.71,2.03,65.39c-7.35,49.23-52.65,87.91-107.07,87.91C218.04,404.77,187.57,393.4,165.3,373.2"/>
	<path class="st8" d="M171.64,373.74c-12.34-10.99-21.54-24.46-26.69-39.54c-8.52-24.99,0.03-67.32,11.2-78.51
		c10.08-13.45,41.01-22.38,75.32-28.65c27.38-3.61,53.52-5.3,66.29-7.64c26.26-4.09,39.16,25.71,50.32,48.72
		c7.28,20.76,5.52,41.28-2.75,60.8c-8.58,41.55-48.53,73.84-96.19,73.84C220.45,402.41,192.25,392.09,171.64,373.74"/>
	<path class="st9" d="M177.97,374.28c-11.34-9.88-19.8-21.98-24.52-35.53c-7.83-22.45,0.72-63.22,10.29-70.56
		c8.16-9.56,38.42-15.85,71.41-20.63c27.81-2.78,54.87-4.61,65.85-7.8c22.49-5.92,32.59,24.36,41.06,44.62
		c5.46,19.72,2.05,38.86-7.52,56.21c-9.81,33.87-44.44,59.77-85.32,59.77C222.84,400.06,196.93,390.77,177.97,374.28"/>
	<path class="st10" d="M184.31,374.84c-10.34-8.76-18.06-19.5-22.38-31.53c-7.15-19.93,1.42-59.11,9.4-62.61
		c6.24-5.67,35.84-9.32,67.51-12.6c28.22-1.96,56.22-3.94,65.4-7.96c18.71-7.75,26.03,22.99,31.8,40.53
		c3.64,18.67-1.42,36.43-12.3,51.61c-11.03,26.2-40.32,45.69-74.43,45.69C225.23,397.7,201.59,389.47,184.31,374.84"/>
	<path class="st11" d="M190.64,375.38c-9.34-7.65-16.32-17.03-20.21-27.52c-6.47-17.39,2.1-55.01,8.47-54.65
		c4.33-1.79,33.25-2.79,63.62-4.59c28.64-1.14,57.57-3.25,64.95-8.12c14.94-9.58,19.45,21.64,22.53,36.43
		c1.82,17.63-4.89,34-17.07,47.02c-12.27,18.52-36.23,31.62-63.57,31.62C227.62,395.34,206.26,388.15,190.64,375.38"/>
	<path class="st12" d="M196.98,375.93c-8.35-6.54-14.58-14.55-18.06-23.51c-5.77-14.86,2.81-50.91,7.59-46.7
		c4.77,4.2,113.03,6.55,124.21-4.85c11.16-11.41,12.88,20.28,13.25,32.34c0,33.16-33.41,59.97-74.52,59.97
		C230.01,392.98,210.93,386.84,196.98,375.93"/>
	<path class="st12" d="M140.75,253.42c-72.61,39.41-49-167.28,107.93-166.77c170.46,0.56,178.83,195.65,115.25,166.77
		C316.36,231.81,191.09,226.1,140.75,253.42"/>
	<path class="st12" d="M248.72,370.73c-67.33-0.87-129.21-39.01-156.17-101.32c-6.29-14.53-8.58-28.85-9.17-44.56
		c-9.64,60.56,7.63,112.77,54.89,152.81c31.67,26.81,69.14,39.94,110.46,40.47c94.43,0,170.97-76.55,170.97-170.97
		c-0.07-8.26-0.53-15.49-1.65-23.68C405.4,309.09,335.12,369.61,248.72,370.73"/>
	<path class="st13" d="M251.11,148.32c26.26,0,47.54,21.28,47.54,47.54c0,26.26-21.28,47.55-47.54,47.55s-47.54-21.29-47.54-47.55
		C203.57,169.61,224.85,148.32,251.11,148.32z M251.89,249.6c-45.32,0-57.68,46.27-58.98,98.76c-0.07,3.33,0.55,9.93,12.16,10.1
		h89.85c10.54-0.33,12.36-7.08,12.3-9.92C306.06,297.97,293.92,249.6,251.89,249.6z"/>
	<path class="st1" d="M251.1,148.32c26.26,0,47.56,21.28,47.56,47.54s-21.3,47.54-47.56,47.54c-26.25,0-47.53-21.28-47.53-47.54
		S224.85,148.32,251.1,148.32 M251.89,249.61c-45.33,0-57.68,46.27-58.98,98.76c-0.08,3.33,0.53,9.94,12.15,10.11h89.85
		c10.55-0.33,12.37-7.08,12.32-9.93C306.06,297.98,293.91,249.61,251.89,249.61z"/>
	<path class="st13" d="M251.11,135.91c26.26,0,47.54,21.28,47.54,47.54c0,26.27-21.28,47.56-47.54,47.56s-47.54-21.29-47.54-47.56
		C203.57,157.19,224.85,135.91,251.11,135.91z M251.89,237.19c-45.32,0-57.68,46.27-58.98,98.76c-0.07,3.33,0.55,9.93,12.16,10.1
		h89.85c10.54-0.32,12.36-7.08,12.3-9.91C306.06,285.56,293.92,237.19,251.89,237.19z"/>
	<path class="st14" d="M251.1,135.91c26.26,0,47.56,21.28,47.56,47.54c0,26.26-21.3,47.55-47.56,47.55
		c-26.25,0-47.53-21.29-47.53-47.55C203.57,157.2,224.85,135.91,251.1,135.91 M251.89,237.2c-45.33,0-57.68,46.27-58.98,98.76
		c-0.08,3.33,0.53,9.94,12.15,10.1h89.85c10.55-0.32,12.37-7.08,12.32-9.92C306.06,285.57,293.91,237.2,251.89,237.2z"/>
	<path class="st0" d="M250.07,135.93v95.06c-25.78-0.56-46.51-21.62-46.51-47.54C203.57,157.54,224.29,136.49,250.07,135.93
		 M250.07,237.23c-43.84,1.23-55.87,46.95-57.16,98.73c-0.08,3.33,0.53,9.94,12.15,10.1h45.01V237.23z"/>
	<path class="st15" d="M237.64,93.82c28.2,30.74,17.88,86.1-23.05,123.64c-40.93,37.55-96.97,43.07-125.17,12.34
		c-19.72-21.5-25.03-99.75-32.5,17.4c-3.39,53.44,15.93,101.89,54.14,139.03c36.55,35.53,86.52,55.5,137.45,56.16
		c32.82,0,64.82-8.14,93.49-23.8c-7.98-0.35-15.18-3.27-20.32-8.87c-12.63-13.77-8.02-38.58,10.33-55.41
		c18.35-16.83,43.45-19.3,56.09-5.53c6.73,7.35,8.56,17.83,6.02,28.57c57.59-64.11,67.93-161.03,14.89-235.48
		c-34.03-47.71-70.85-77.76-130.51-87.63c-28.74-4-50.92-3.26-78.64,7.37c-11.15,4.28-21.83,9.17-31.99,14.72
		C194.93,70.24,221.08,75.78,237.64,93.82 M92.41,404.89C49.06,362.77,27.14,307.81,31,247.2c4.91-77.07,45.8-143.79,110.67-184.89
		c15.92-10.08,33.13-18.58,51.47-25.62c31.43-12.05,56.6-12.9,89.17-8.35c67.67,11.19,109.45,45.28,148.02,99.39
		c72.96,102.39,40.24,242.25-65.58,307.8c-35.1,21.71-75.19,33.06-116.46,33.06C190.56,467.84,133.86,445.18,92.41,404.89z"/>
	<path class="st15" d="M145.47,351.8c-28.74-27.94-43.29-64.4-40.73-104.61c3.26-51.13,30.39-95.39,73.41-122.65
		c10.56-6.68,21.98-12.32,34.15-17c20.86-7.98,37.55-8.54,59.16-5.54c44.89,7.43,72.59,30.03,98.19,65.94
		c48.4,67.92,26.69,160.71-43.5,204.19c-23.27,14.41-49.88,21.93-77.26,21.93C210.58,393.57,172.98,378.53,145.47,351.8
		 M92.11,405.18c-43.41-42.19-65.38-97.25-61.51-157.98c4.91-77.21,45.89-144.05,110.86-185.23c15.96-10.1,33.2-18.61,51.57-25.66
		c31.48-12.08,56.7-12.92,89.34-8.37c67.79,11.21,109.64,45.36,148.3,99.58c73.09,102.58,40.32,242.7-65.71,308.37
		C329.81,457.64,289.62,469,248.29,469C190.44,468.25,133.63,445.54,92.11,405.18z"/>
	<path class="st0" d="M239.31,64.94c10.73,18.48-2.83,46.39-30.29,62.34c-27.47,15.95-58.43,13.9-69.16-4.59
		c-10.73-18.48,2.83-46.39,30.29-62.34C197.62,44.41,228.58,46.45,239.31,64.94"/>
	<path class="st0" d="M129.89,127.55c8.59,9.45,4.17,27.46-9.86,40.23c-14.05,12.77-32.39,15.47-40.98,6.02
		c-8.6-9.45-4.18-27.46,9.85-40.23C102.94,120.8,121.29,118.11,129.89,127.55"/>
	<path class="st0" d="M341.98,403.71c5.81,8.48,0.29,22.36-12.32,30.98c-12.62,8.63-27.55,8.74-33.34,0.25
		c-5.81-8.48-0.28-22.36,12.32-30.98C321.24,395.34,336.17,395.22,341.98,403.71"/>
</g>
</svg>
