<?xml version="1.0" encoding="utf-8"?>
<!-- Generator: Adobe Illustrator 23.0.3, SVG Export Plug-In . SVG Version: 6.00 Build 0)  -->
<svg version="1.1" id="Layer_1" xmlns="http://www.w3.org/2000/svg" xmlns:xlink="http://www.w3.org/1999/xlink" x="0px" y="0px"
	 viewBox="0 0 1024 512" style="enable-background:new 0 0 1024 512;" xml:space="preserve">
<style type="text/css">
	.st0{fill:none;stroke:#FFFFFF;stroke-width:9;stroke-miterlimit:10;}
</style>
<path class="st0" d="M827.09,281.5h-82.18c-21.77,0-39.41-17.65-39.41-39.41v-82.18c0-21.77,17.65-39.41,39.41-39.41h82.18
	c21.77,0,39.41,17.65,39.41,39.41v82.18C866.5,263.85,848.85,281.5,827.09,281.5z"/>
<rect x="352" y="138.5" class="st0" width="345.5" height="79"/>
<path class="st0" d="M386.64,151.03h274.73c5.87,0,10.64,8.87,10.64,19.81v15.32c0,10.94-4.76,19.81-10.64,19.81H386.64
	c-5.87,0-10.64-8.87-10.64-19.81v-15.32C376,159.9,380.76,151.03,386.64,151.03z"/>
<rect x="352" y="227.5" class="st0" width="345.5" height="39.5"/>
</svg>
