<?xml version="1.0" encoding="utf-8"?>
<!-- Generator: Adobe Illustrator 23.0.3, SVG Export Plug-In . SVG Version: 6.00 Build 0)  -->
<svg version="1.1" id="Layer_1" xmlns="http://www.w3.org/2000/svg" xmlns:xlink="http://www.w3.org/1999/xlink" x="0px" y="0px"
	 viewBox="0 0 512 512" style="enable-background:new 0 0 512 512;" xml:space="preserve">
<style type="text/css">
	.st0{fill-rule:evenodd;clip-rule:evenodd;fill:#FFFFFF;}
	.st1{fill-rule:evenodd;clip-rule:evenodd;fill:#FFA502;}
	.st2{fill-rule:evenodd;clip-rule:evenodd;fill:#FFA902;}
	.st3{fill-rule:evenodd;clip-rule:evenodd;fill:#FFAC02;}
	.st4{fill-rule:evenodd;clip-rule:evenodd;fill:#FFB001;}
	.st5{fill-rule:evenodd;clip-rule:evenodd;fill:#FFB301;}
	.st6{fill-rule:evenodd;clip-rule:evenodd;fill:#FFB701;}
	.st7{fill-rule:evenodd;clip-rule:evenodd;fill:#FFBA01;}
	.st8{fill-rule:evenodd;clip-rule:evenodd;fill:#FFBE01;}
	.st9{fill-rule:evenodd;clip-rule:evenodd;fill:#FFC101;}
	.st10{fill-rule:evenodd;clip-rule:evenodd;fill:#FFC500;}
	.st11{fill-rule:evenodd;clip-rule:evenodd;fill:#FFC800;}
	.st12{fill-rule:evenodd;clip-rule:evenodd;fill:#FFCC00;}
	.st13{fill:none;stroke:#FFA502;stroke-width:1.0837;stroke-miterlimit:22.9256;}
	.st14{fill-rule:evenodd;clip-rule:evenodd;fill:#E6E6E6;}
	.st15{opacity:0.5;fill-rule:evenodd;clip-rule:evenodd;fill:#FFFFFF;}
</style>
<g>
	<path class="st0" d="M90.44,418.07c-45.09-43.81-67.9-100.99-63.87-164.05c5.11-80.17,47.65-149.58,115.12-192.34
		c16.56-10.48,34.47-19.33,53.54-26.65c32.7-12.53,58.88-13.4,92.78-8.68c70.4,11.64,113.85,47.1,153.99,103.39
		c75.9,106.52,41.87,252.02-68.22,320.22c-36.5,22.59-78.23,34.38-121.16,34.38C192.56,483.57,133.57,459.99,90.44,418.07
		 M83.86,424.66c-46.89-45.57-70.62-105.05-66.44-170.64c5.3-83.39,49.57-155.58,119.74-200.06c17.23-10.9,35.86-20.11,55.7-27.72
		c34.01-13.04,61.23-13.95,96.5-9.04c73.22,12.11,118.41,48.99,160.18,107.55c78.95,110.8,43.54,262.14-70.97,333.08
		c-37.96,23.5-81.37,35.77-126.02,35.77C190.07,492.79,128.72,468.26,83.86,424.66z"/>
	<path class="st1" d="M121.85,386.59c-20.87-20.29-36.43-45.15-45.12-72.99c-14.4-46.13-5.22-103.74,18.95-144.96
		c25.44-43.92,63.87-73.55,110.87-91.58c26.39-10.13,47.61-10.85,74.97-7.02c56.91,9.41,91.98,38.06,124.44,83.56
		c21.6,30.34,32.18,62.95,33.12,100.4c0,102.93-83.48,186.17-186.17,186.17C204.38,439.53,156.7,420.46,121.85,386.59"/>
	<path class="st2" d="M128.7,387.18c-19.8-19.09-34.55-42.48-42.79-68.67c-13.67-43.4-4.48-99.31,17.96-136.36
		c23.35-39.73,61.08-66.5,106.65-82.92c26.85-9.24,49.07-10.12,74.5-7.2c52.83,7.44,84.88,36.59,114.44,79.14
		c19.63,29.21,28.42,60.31,27.96,95.44c-1.32,94.63-79.04,170.96-174.41,170.96C206.96,436.97,161.75,419.03,128.7,387.18"/>
	<path class="st3" d="M135.54,387.77c-18.71-17.89-32.67-39.8-40.46-64.35c-12.93-40.66-3.72-94.87,16.98-127.76
		c21.29-35.53,58.29-59.45,102.44-74.26c27.3-8.34,50.52-9.38,74-7.38c48.77,5.47,77.79,35.12,104.43,74.72
		c17.68,28.08,24.69,57.7,22.81,90.47c-2.65,86.35-74.61,155.76-162.66,155.76C209.54,434.42,166.79,417.62,135.54,387.77"/>
	<path class="st4" d="M142.39,388.35c-17.64-16.69-30.79-37.13-38.13-60.02c-12.18-37.93-2.98-90.45,16-119.17
		c19.21-31.33,55.49-52.39,98.23-65.6c27.75-7.46,51.98-8.65,73.53-7.55c44.67,3.49,70.69,33.65,94.41,70.3
		c15.72,26.95,20.94,55.08,17.66,85.51c-3.99,78.05-70.17,140.56-150.91,140.56C212.14,431.88,171.84,416.2,142.39,388.35"/>
	<path class="st5" d="M149.23,388.94c-16.56-15.48-28.91-34.45-35.81-55.69c-11.43-35.19-2.22-86.01,15.03-110.58
		c17.13-27.12,52.69-45.33,94-56.94c28.21-6.57,53.44-7.92,73.05-7.72c40.6,1.51,63.59,32.18,84.4,65.87
		c13.75,25.82,17.19,52.46,12.49,80.56c-5.31,69.76-65.74,125.36-139.15,125.36C214.72,429.33,176.88,414.78,149.23,388.94"/>
	<path class="st6" d="M156.08,389.53c-15.49-14.28-27.04-31.78-33.49-51.37c-10.69-32.46-1.47-81.57,14.05-101.99
		c15.04-22.93,49.89-38.29,89.79-48.27c28.66-5.68,54.89-7.19,72.56-7.9c36.53-0.46,56.5,30.71,74.4,61.46
		c11.79,24.69,13.44,49.84,7.34,75.6c-6.62,61.47-61.3,110.16-127.41,110.16C217.3,426.77,181.93,413.36,156.08,389.53"/>
	<path class="st7" d="M162.92,390.12c-14.41-13.08-25.15-29.09-31.16-47.04c-9.95-29.72-0.72-77.15,13.08-93.4
		c12.97-18.73,47.09-31.23,85.57-39.61c29.12-4.79,56.36-6.45,72.08-8.07c32.45-2.43,49.4,29.25,64.38,57.04
		c9.82,23.56,9.71,47.21,2.19,70.63c-7.94,53.18-56.87,94.96-115.66,94.96C219.88,424.23,186.97,411.95,162.92,390.12"/>
	<path class="st8" d="M169.75,390.71c-13.32-11.87-23.27-26.41-28.81-42.7c-9.21-26.99,0.03-72.72,12.1-84.81
		c10.89-14.53,44.29-24.17,81.36-30.95c29.57-3.89,57.81-5.72,71.59-8.24c28.38-4.42,42.31,27.77,54.37,52.61
		c7.86,22.43,5.96,44.59-2.98,65.67c-9.26,44.88-52.43,79.76-103.9,79.76C222.47,421.68,192.03,410.53,169.75,390.71"/>
	<path class="st9" d="M176.6,391.29c-12.25-10.67-21.39-23.73-26.5-38.38c-8.46-24.25,0.79-68.29,11.13-76.21
		c8.81-10.33,41.5-17.12,77.13-22.28c30.02-3.01,59.27-4.99,71.11-8.42c24.31-6.39,35.21,26.31,44.36,48.19
		c5.9,21.3,2.22,41.97-8.13,60.71c-10.6,36.59-48,64.56-92.15,64.56C225.06,419.13,197.06,409.11,176.6,391.29"/>
	<path class="st10" d="M183.45,391.89c-11.17-9.47-19.51-21.07-24.17-34.06c-7.72-21.52,1.53-63.84,10.15-67.62
		c6.74-6.13,38.71-10.06,72.92-13.62c30.48-2.11,60.73-4.25,70.64-8.6c20.21-8.36,28.11,24.84,34.34,43.77
		c3.93,20.17-1.53,39.35-13.29,55.75c-11.92,28.29-43.56,49.35-80.39,49.35C227.65,416.59,202.12,407.69,183.45,391.89"/>
	<path class="st11" d="M190.29,392.47c-10.09-8.26-17.63-18.39-21.84-29.73c-6.98-18.78,2.29-59.42,9.16-59.03
		c4.66-1.93,35.91-3.01,68.71-4.96c30.93-1.23,62.19-3.52,70.16-8.77c16.14-10.34,21.01,23.37,24.32,39.35
		c1.96,19.04-5.26,36.73-18.44,50.78c-13.25,20.01-39.13,34.16-68.64,34.16C230.23,414.04,207.15,406.27,190.29,392.47"/>
	<path class="st12" d="M197.14,393.07c-9.03-7.06-15.75-15.71-19.51-25.4c-6.23-16.05,3.03-54.98,8.18-50.43
		c5.16,4.55,122.1,7.08,134.17-5.24c12.06-12.32,13.91,21.9,14.32,34.93c0,35.82-36.08,64.78-80.49,64.78
		C232.81,411.49,212.21,404.86,197.14,393.07"/>
	<path class="st12" d="M136.41,260.75C57.98,303.31,83.5,80.07,252.98,80.62c184.1,0.6,193.16,211.33,124.49,180.13
		C326.07,237.41,190.78,231.24,136.41,260.75"/>
	<path class="st12" d="M253.02,387.46c-72.73-0.94-139.56-42.15-168.68-109.44c-6.79-15.69-9.26-31.16-9.91-48.12
		c-10.41,65.41,8.24,121.81,59.28,165.05c34.19,28.97,74.68,43.14,119.31,43.7c101.99,0,184.65-82.68,184.65-184.67
		c-0.07-8.92-0.56-16.73-1.77-25.57C422.25,320.87,346.34,386.25,253.02,387.46"/>
	<path class="st13" d="M325.44,186.99c22.61,18.81,37.92,33.6,37.92,79.46c0,45.87-45.78,102.24-102.24,102.24
		s-102.23-45.77-102.23-102.24c0-17.74,4.52-34.43,12.48-48.98l-21.49-18.34c-6.63-5.66-5.52-7.52,1.67-10.06l83.97-29.75
		c16.18-5.73,16.81-6.5,13.7,10.34l-16.46,88.83c-1.63,8.78-4.42,7.64-10.81,2.18l-22.06-18.84c-3.06,7.61-4.74,15.92-4.74,24.62
		c0,36.44,29.54,65.98,65.98,65.98c36.45,0,68.89-36.38,65.98-65.98c-2.92-29.6-4.63-37.27-22.09-49.26
		c-5.4-3.71-4.88-8.55-1.61-13.4l10.36-15.36C316.85,183.83,321.16,183.42,325.44,186.99z"/>
	<path class="st1" d="M325.51,186.94c22.59,18.81,37.91,33.6,37.91,79.47c0,45.86-45.77,102.24-102.24,102.24
		c-56.45,0-102.23-45.77-102.23-102.24c0-17.75,4.52-34.44,12.48-48.99l-21.49-18.34c-6.63-5.66-5.52-7.52,1.67-10.07l83.97-29.74
		c16.18-5.73,16.81-6.5,13.7,10.34l-16.46,88.83c-1.63,8.78-4.42,7.64-10.81,2.18l-22.05-18.84c-3.06,7.61-4.76,15.92-4.76,24.62
		c0,36.43,29.54,65.98,65.98,65.98c36.45,0,68.9-36.38,65.99-65.98c-2.92-29.61-4.64-37.28-22.1-49.27
		c-5.4-3.71-4.88-8.56-1.61-13.4l10.36-15.36C316.9,183.78,321.21,183.37,325.51,186.94"/>
	<path class="st13" d="M325.44,170.8c22.61,18.81,37.92,33.6,37.92,79.47c0,45.87-45.78,102.24-102.24,102.24
		s-102.23-45.78-102.23-102.24c0-17.75,4.52-34.44,12.48-48.99l-21.49-18.34c-6.63-5.66-5.52-7.52,1.67-10.06l83.97-29.75
		c16.18-5.73,16.81-6.5,13.7,10.35l-16.46,88.83c-1.63,8.78-4.42,7.64-10.81,2.18l-22.06-18.84c-3.06,7.61-4.74,15.92-4.74,24.62
		c0,36.43,29.54,65.98,65.98,65.98c36.45,0,68.89-36.38,65.98-65.98c-2.92-29.61-4.63-37.27-22.09-49.27
		c-5.4-3.71-4.88-8.56-1.61-13.4l10.36-15.36C316.85,167.65,321.16,167.24,325.44,170.8z"/>
	<path class="st14" d="M325.51,170.75c22.59,18.82,37.91,33.61,37.91,79.48c0,45.86-45.77,102.24-102.24,102.24
		c-56.45,0-102.23-45.78-102.23-102.24c0-17.75,4.52-34.44,12.48-48.99l-21.49-18.34c-6.63-5.66-5.52-7.52,1.67-10.07l83.97-29.75
		c16.18-5.73,16.81-6.49,13.7,10.35l-16.46,88.83c-1.63,8.78-4.42,7.64-10.81,2.18l-22.05-18.84c-3.06,7.61-4.76,15.92-4.76,24.62
		c0,36.43,29.54,65.98,65.98,65.98c36.45,0,68.9-36.38,65.99-65.98c-2.92-29.61-4.64-37.28-22.1-49.27
		c-5.4-3.71-4.88-8.56-1.61-13.4l10.36-15.37C316.9,167.6,321.21,167.19,325.51,170.75"/>
	<path class="st0" d="M159.52,261.12c-0.38-3.58-0.58-7.22-0.58-10.9c0-17.75,4.53-34.44,12.48-48.99l-21.47-18.34
		c-6.64-5.66-5.53-7.52,1.66-10.07l83.97-29.74c16.18-5.73,16.81-6.5,13.7,10.34l-16.46,88.83c-1.63,8.78-4.41,7.64-10.81,2.18
		l-22.05-18.84c-3.06,7.61-4.76,15.93-4.76,24.62c0,3.71,0.32,7.35,0.9,10.9H159.52z M325.49,170.76
		c22.61,18.81,37.92,33.6,37.92,79.47c0,3.58-0.28,7.22-0.83,10.9h-35.87c0.62-3.68,0.78-7.34,0.43-10.9
		c-2.9-29.61-4.63-37.28-22.09-49.27c-5.4-3.71-4.88-8.55-1.61-13.4l10.36-15.35C316.9,167.59,321.21,167.19,325.49,170.76z"/>
	<path class="st15" d="M241.05,88.37c30.46,33.2,19.31,92.99-24.9,133.55s-104.74,46.52-135.19,13.33
		c-21.31-23.23-27.03-107.74-35.1,18.79c-3.68,57.72,17.19,110.06,58.48,150.17c39.48,38.36,93.46,59.95,148.44,60.66
		c35.47,0,70.03-8.79,100.99-25.71c-8.62-0.38-16.39-3.53-21.95-9.58c-13.64-14.88-8.66-41.67,11.16-59.84
		c19.8-18.17,46.93-20.84,60.59-5.97c7.27,7.94,9.24,19.26,6.5,30.86c62.2-69.25,73.37-173.93,16.07-254.34
		c-36.74-51.53-76.52-83.99-140.95-94.65c-31.05-4.32-55-3.52-84.94,7.95c-12.04,4.63-23.58,9.92-34.55,15.91
		C194.92,62.89,223.17,68.87,241.05,88.37 M84.18,424.35C37.35,378.85,13.67,319.5,17.86,254.02
		c5.31-83.23,49.47-155.3,119.53-199.69c17.19-10.88,35.79-20.07,55.59-27.68c33.95-13.01,61.12-13.92,96.32-9.02
		c73.09,12.08,118.2,48.91,159.88,107.35c78.8,110.59,43.47,261.66-70.85,332.46c-37.89,23.46-81.2,35.71-125.78,35.71
		C190.19,492.35,128.95,467.87,84.18,424.35z"/>
	<path class="st15" d="M141.5,367.02c-31.06-30.18-46.76-69.56-44-112.99c3.52-55.22,32.83-103.02,79.3-132.47
		c11.41-7.21,23.75-13.31,36.88-18.36c22.51-8.63,40.55-9.23,63.9-5.98c48.49,8.01,78.41,32.43,106.06,71.21
		c52.28,73.37,28.83,173.58-47,220.55c-25.14,15.56-53.88,23.69-83.44,23.69C211.83,412.12,171.2,395.88,141.5,367.02 M83.86,424.66
		c-46.89-45.57-70.62-105.05-66.44-170.64c5.3-83.39,49.57-155.58,119.74-200.06c17.23-10.9,35.86-20.11,55.7-27.72
		c34.01-13.04,61.23-13.95,96.5-9.04c73.22,12.11,118.41,48.99,160.18,107.55c78.95,110.8,43.54,262.14-70.97,333.08
		c-37.96,23.5-81.37,35.77-126.02,35.77C190.07,492.79,128.72,468.26,83.86,424.66z"/>
	<path class="st0" d="M242.86,57.17c11.59,19.96-3.06,50.11-32.72,67.34c-29.67,17.22-63.11,15.01-74.71-4.96
		c-11.59-19.96,3.06-50.11,32.71-67.34C197.82,34.99,231.27,37.2,242.86,57.17"/>
	<path class="st0" d="M124.66,124.8c9.29,10.2,4.52,29.66-10.64,43.46c-15.17,13.79-34.99,16.7-44.26,6.5
		c-9.29-10.2-4.52-29.66,10.64-43.46C95.57,117.51,115.38,114.6,124.66,124.8"/>
	<path class="st0" d="M353.75,423.08c6.26,9.16,0.31,24.15-13.3,33.47c-13.63,9.31-29.75,9.44-36.01,0.27
		c-6.27-9.17-0.31-24.15,13.31-33.47C331.35,414.03,347.47,413.91,353.75,423.08"/>
</g>
</svg>
