<?xml version="1.0" encoding="utf-8"?>
<!-- Generator: Adobe Illustrator 23.0.3, SVG Export Plug-In . SVG Version: 6.00 Build 0)  -->
<svg version="1.1" id="Layer_1" xmlns="http://www.w3.org/2000/svg" xmlns:xlink="http://www.w3.org/1999/xlink" x="0px" y="0px"
	 viewBox="0 0 512 512" style="enable-background:new 0 0 512 512;" xml:space="preserve">
<style type="text/css">
	.st0{fill-rule:evenodd;clip-rule:evenodd;fill:#FFFFFF;}
	.st1{fill-rule:evenodd;clip-rule:evenodd;fill:#FFA502;}
	.st2{fill-rule:evenodd;clip-rule:evenodd;fill:#FFA902;}
	.st3{fill-rule:evenodd;clip-rule:evenodd;fill:#FFAC02;}
	.st4{fill-rule:evenodd;clip-rule:evenodd;fill:#FFB001;}
	.st5{fill-rule:evenodd;clip-rule:evenodd;fill:#FFB301;}
	.st6{fill-rule:evenodd;clip-rule:evenodd;fill:#FFB701;}
	.st7{fill-rule:evenodd;clip-rule:evenodd;fill:#FFBA01;}
	.st8{fill-rule:evenodd;clip-rule:evenodd;fill:#FFBE01;}
	.st9{fill-rule:evenodd;clip-rule:evenodd;fill:#FFC101;}
	.st10{fill-rule:evenodd;clip-rule:evenodd;fill:#FFC500;}
	.st11{fill-rule:evenodd;clip-rule:evenodd;fill:#FFC800;}
	.st12{fill-rule:evenodd;clip-rule:evenodd;fill:#FFCC00;}
	.st13{fill:none;stroke:#FFA502;stroke-width:1.0811;stroke-linecap:round;stroke-linejoin:round;stroke-miterlimit:22.9256;}
	.st14{fill-rule:evenodd;clip-rule:evenodd;fill:#E6E6E6;}
	.st15{opacity:0.5;fill-rule:evenodd;clip-rule:evenodd;fill:#FFFFFF;}
</style>
<g>
	<path class="st0" d="M79.63,432.03c-48.37-47-72.84-108.34-68.53-176c5.49-86.01,51.13-160.48,123.53-206.36
		c17.76-11.24,36.97-20.74,57.44-28.59c35.09-13.45,63.17-14.39,99.54-9.32c75.53,12.49,122.14,50.54,165.22,110.93
		c81.43,114.28,44.91,270.38-73.21,343.55c-39.16,24.24-83.93,36.89-129.97,36.89C189.18,502.3,125.9,477,79.63,432.03
		 M72.56,439.09C22.25,390.2-3.2,326.39,1.28,256.02C6.98,166.56,54.46,89.11,129.76,41.38c18.48-11.7,38.46-21.57,59.75-29.74
		C226-2.34,255.22-3.32,293.05,1.94c78.55,12.99,127.04,52.56,171.84,115.39c84.7,118.87,46.71,281.24-76.15,357.34
		c-40.73,25.22-87.29,38.38-135.19,38.38C186.52,512.18,120.69,485.87,72.56,439.09z"/>
	<path class="st1" d="M113.32,398.25c-22.39-21.76-39.08-48.44-48.41-78.31c-15.46-49.49-5.59-111.3,20.32-155.53
		c27.3-47.11,68.54-78.9,118.95-98.26c28.31-10.86,51.07-11.64,80.44-7.53c61.06,10.1,98.68,40.83,133.51,89.64
		c23.18,32.55,34.52,67.53,35.53,107.71c0,110.43-89.55,199.73-199.73,199.73C201.86,455.03,150.72,434.59,113.32,398.25"/>
	<path class="st2" d="M120.67,398.88C99.44,378.4,83.6,353.31,74.76,325.2c-14.66-46.56-4.8-106.55,19.27-146.3
		c25.06-42.61,65.53-71.33,114.43-88.96c28.8-9.91,52.63-10.85,79.92-7.72c56.68,7.98,91.07,39.25,122.77,84.91
		c21.07,31.33,30.51,64.71,30,102.39c-1.42,101.53-84.79,183.42-187.12,183.42C204.65,452.29,156.13,433.06,120.67,398.88"/>
	<path class="st3" d="M128.01,399.51c-20.08-19.19-35.05-42.7-43.41-69.04c-13.87-43.62-3.99-101.79,18.22-137.08
		c22.84-38.11,62.53-63.78,109.9-79.67c29.29-8.96,54.21-10.07,79.4-7.91c52.31,5.86,83.45,37.68,112.02,80.16
		c18.97,30.12,26.49,61.91,24.48,97.07c-2.84,92.64-80.04,167.11-174.51,167.11C207.41,449.56,161.54,431.54,128.01,399.51"/>
	<path class="st4" d="M135.36,400.14c-18.93-17.89-33.03-39.83-40.92-64.39c-13.06-40.69-3.18-97.04,17.17-127.86
		c20.61-33.61,59.53-56.21,105.39-70.38c29.77-8,55.76-9.27,78.88-8.09c47.93,3.74,75.83,36.1,101.29,75.42
		c16.86,28.91,22.46,59.09,18.93,91.74c-4.26,83.74-75.28,150.8-161.9,150.8C210.19,446.84,166.96,430.02,135.36,400.14"/>
	<path class="st5" d="M142.7,400.78c-17.77-16.62-31.02-36.96-38.42-59.75c-12.26-37.76-2.38-92.28,16.13-118.64
		c18.38-29.1,56.53-48.63,100.86-61.08c30.27-7.05,57.32-8.5,78.36-8.28c43.56,1.62,68.22,34.52,90.55,70.67
		c14.76,27.7,18.45,56.28,13.41,86.43c-5.68,74.84-70.53,134.49-149.3,134.49C212.96,444.1,172.37,428.5,142.7,400.78"/>
	<path class="st6" d="M150.05,401.41c-16.62-15.31-29.01-34.09-35.93-55.1c-11.47-34.83-1.57-87.53,15.08-109.43
		c16.15-24.59,53.53-41.07,96.34-51.79c30.75-6.09,58.89-7.7,77.85-8.47c39.19-0.5,60.61,32.95,79.81,65.93
		c12.65,26.49,14.43,53.47,7.87,81.1c-7.11,65.95-65.76,118.19-136.69,118.19C215.73,441.36,177.78,426.98,150.05,401.41"/>
	<path class="st7" d="M157.38,402.03c-15.46-14.03-26.98-31.21-33.42-50.46c-10.68-31.88-0.77-82.77,14.02-100.21
		c13.93-20.09,50.53-33.5,91.82-42.49c31.24-5.13,60.45-6.93,77.33-8.66c34.81-2.62,53,31.37,69.06,61.19
		c10.54,25.27,10.42,50.66,2.35,75.78c-8.53,57.05-61.01,101.88-124.09,101.88C218.51,438.62,183.2,425.45,157.38,402.03"/>
	<path class="st8" d="M164.73,402.67c-14.3-12.74-24.97-28.35-30.93-45.82c-9.88-28.95,0.03-78.02,12.99-90.99
		c11.69-15.59,47.52-25.94,87.28-33.2c31.73-4.18,62.02-6.14,76.82-8.85c30.44-4.74,45.38,29.8,58.32,56.45
		c8.43,24.06,6.39,47.85-3.18,70.45c-9.95,48.16-56.25,85.58-111.48,85.58C221.28,435.89,188.61,423.93,164.73,402.67"/>
	<path class="st9" d="M172.07,403.3c-13.15-11.45-22.96-25.47-28.43-41.17c-9.08-26.03,0.84-73.26,11.93-81.78
		c9.46-11.08,44.52-18.36,82.77-23.9c32.21-3.23,63.58-5.35,76.3-9.03c26.06-6.86,37.76,28.22,47.59,51.71
		c6.32,22.85,2.37,45.03-8.72,65.13c-11.38,39.26-51.5,69.26-98.87,69.26C224.05,433.16,194.02,422.41,172.07,403.3"/>
	<path class="st10" d="M179.42,403.94c-11.99-10.16-20.94-22.6-25.94-36.54c-8.27-23.08,1.65-68.5,10.89-72.55
		c7.23-6.57,41.52-10.8,78.24-14.61c32.7-2.27,65.14-4.56,75.78-9.22c21.68-8.97,30.15,26.65,36.85,46.96
		c4.22,21.64-1.65,42.22-14.25,59.81c-12.79,30.36-46.74,52.95-86.26,52.95C226.83,430.42,199.44,420.88,179.42,403.94"/>
	<path class="st11" d="M186.75,404.56c-10.83-8.86-18.91-19.72-23.43-31.89c-7.48-20.15,2.45-63.75,9.83-63.33
		c5.01-2.07,38.52-3.23,73.72-5.32c33.19-1.32,66.71-3.78,75.26-9.41c17.32-11.1,22.54,25.07,26.11,42.22
		c2.1,20.43-5.66,39.4-19.79,54.48c-14.21,21.47-41.99,36.65-73.65,36.65C229.59,427.69,204.85,419.36,186.75,404.56"/>
	<path class="st12" d="M194.09,405.2c-9.68-7.58-16.9-16.86-20.94-27.25c-6.68-17.22,3.25-58.99,8.79-54.11
		c5.53,4.87,130.99,7.6,143.94-5.62c12.94-13.21,14.92,23.5,15.36,37.48c0,38.43-38.73,69.5-86.36,69.5
		C232.37,424.97,210.26,417.85,194.09,405.2"/>
	<path class="st12" d="M128.95,263.24C44.8,308.91,72.17,69.39,254.01,69.98c197.52,0.65,207.23,226.72,133.55,193.25
		C332.43,238.2,187.27,231.58,128.95,263.24"/>
	<path class="st12" d="M254.04,399.18c-78.02-1.02-149.73-45.22-180.96-117.42c-7.28-16.84-9.94-33.44-10.64-51.63
		c-11.16,70.17,8.84,130.68,63.61,177.07c36.69,31.08,80.11,46.29,127.99,46.9c109.42,0,198.12-88.7,198.12-198.12
		c-0.08-9.57-0.61-17.95-1.91-27.43C435.61,327.74,354.17,397.88,254.04,399.18"/>
	<path class="st13" d="M317.45,236c2.24,0.61,4.6,0.93,7.03,0.93c14.84,0,26.88-13.07,26.88-26.88c0-13.82-9.46-23.66-21.42-26.37
		L317.45,236z M180.27,183.95c-11.32,3.16-20.38,12.52-20.38,26.11c0,13.58,12.03,26.88,26.87,26.88c2.83,0,5.54-0.44,8.1-1.24
		C193.53,230.93,180.64,184.28,180.27,183.95z M198.8,249.78c-3.8,1.15-7.84,1.77-12.04,1.77c-22.91,0-41.48-20.69-41.48-41.48
		c0-20.81,13.62-34.79,30.62-39.98c1.16-6.94,6.2-12.38,13.73-12.38h130.38c7.34,0,11.59,5.32,12.97,12.05
		c17.86,4.62,32.99,19.2,32.99,40.31c0,21.1-18.57,41.48-41.48,41.48c-3.59,0-7.08-0.46-10.4-1.31
		c-4.02,17.01-29.2,29.63-45.37,32.16v45.98c11.93,0,19.45-0.21,22.13,15.02h17.99h0.25v0.01c13.76,0.32,13.76,20.95,0,21.28l0,0
		h-0.25c-35.96,0-71.91,0-107.86,0h-1.46v-0.1c-12.18-1.68-12.18-19.41,0-21.09v-0.1h1.46h17.98c2.73-15.59,9.84-15.02,22.26-15.02
		v-46.64C225.46,278.49,203.34,266.01,198.8,249.78z"/>
	<path class="st1" d="M317.45,236.04c2.24,0.61,4.6,0.93,7.03,0.93c14.84,0,26.88-13.07,26.88-26.88c0-13.81-9.46-23.65-21.42-26.37
		L317.45,236.04z M180.26,183.98c-11.32,3.16-20.38,12.52-20.38,26.1c0,13.58,12.03,26.88,26.87,26.88c2.83,0,5.55-0.44,8.1-1.25
		C193.53,230.96,180.63,184.31,180.26,183.98z M198.79,249.8c-3.8,1.15-7.84,1.77-12.04,1.77c-22.91,0-41.48-20.69-41.48-41.49
		s13.62-34.78,30.62-39.97c1.17-6.94,6.2-12.38,13.73-12.38H320c7.34,0,11.59,5.31,12.97,12.04c17.86,4.62,32.99,19.19,32.99,40.3
		c0,21.11-18.57,41.49-41.48,41.49c-3.59,0-7.08-0.46-10.4-1.32c-4.03,17.02-29.2,29.63-45.37,32.17v45.98
		c11.93,0,19.45-0.21,22.13,15.02h17.99h0.25l0,0c13.75,0.33,13.75,20.97,0,21.28v0.01h-0.25c-35.96,0-71.91,0-107.86,0h-1.47v-0.1
		c-12.17-1.68-12.17-19.42,0-21.09v-0.1h1.47h17.98c2.73-15.58,9.84-15.02,22.26-15.02v-46.64
		C225.45,278.51,203.34,266.03,198.79,249.8z"/>
	<path class="st13" d="M317.45,225.59c2.24,0.6,4.6,0.93,7.03,0.93c14.84,0,26.88-13.08,26.88-26.89c0-13.82-9.46-23.65-21.42-26.37
		L317.45,225.59z M180.27,173.53c-11.32,3.16-20.38,12.52-20.38,26.11c0,13.58,12.03,26.89,26.87,26.89c2.83,0,5.54-0.44,8.1-1.25
		C193.53,220.5,180.64,173.86,180.27,173.53z M198.8,239.35c-3.8,1.15-7.84,1.78-12.04,1.78c-22.91,0-41.48-20.69-41.48-41.49
		c0-20.8,13.62-34.79,30.62-39.98c1.16-6.94,6.2-12.38,13.73-12.38h130.38c7.34,0,11.59,5.32,12.97,12.05
		c17.86,4.63,32.99,19.2,32.99,40.31c0,21.11-18.57,41.49-41.48,41.49c-3.59,0-7.08-0.47-10.4-1.32
		c-4.02,17.01-29.2,29.63-45.37,32.16v45.99c11.93,0,19.45-0.21,22.13,15.01h17.99h0.25v0.01c13.76,0.32,13.76,20.96,0,21.28v0.01
		h-0.25c-35.96,0-71.91,0-107.86,0h-1.46v-0.11c-12.18-1.68-12.18-19.41,0-21.09v-0.1h1.46h17.98c2.73-15.58,9.84-15.01,22.26-15.01
		v-46.64C225.46,268.06,203.34,255.58,198.8,239.35z"/>
	<path class="st0" d="M317.45,225.62c2.24,0.6,4.6,0.93,7.03,0.93c14.84,0,26.88-13.07,26.88-26.88c0-13.82-9.46-23.65-21.42-26.37
		L317.45,225.62z M180.26,173.56c-11.32,3.17-20.38,12.52-20.38,26.11c0,13.58,12.03,26.88,26.87,26.88c2.83,0,5.55-0.44,8.1-1.24
		C193.53,220.53,180.63,173.89,180.26,173.56z M198.79,239.38c-3.8,1.15-7.84,1.78-12.04,1.78c-22.91,0-41.48-20.69-41.48-41.49
		s13.62-34.79,30.62-39.98c1.17-6.94,6.2-12.38,13.73-12.38H320c7.34,0,11.59,5.32,12.97,12.05c17.86,4.63,32.99,19.19,32.99,40.31
		c0,21.11-18.57,41.49-41.48,41.49c-3.59,0-7.08-0.46-10.4-1.32c-4.03,17.01-29.2,29.62-45.37,32.16v45.98
		c11.93,0,19.45-0.2,22.13,15.02h17.99h0.25v0.01c13.75,0.32,13.75,20.96,0,21.28l0,0h-0.25c-35.96,0-71.91,0-107.86,0h-1.47v-0.1
		c-12.17-1.68-12.17-19.42,0-21.09V333h1.47h17.98c2.73-15.58,9.84-15.02,22.26-15.02v-46.64
		C225.45,268.09,203.34,255.61,198.79,239.38z"/>
	<path class="st14" d="M317.45,225.62c2.24,0.6,4.6,0.93,7.03,0.93c14.84,0,26.88-13.07,26.88-26.88c0-13.82-9.46-23.65-21.42-26.37
		L317.45,225.62z M254.82,147.31H320c7.34,0,11.59,5.32,12.97,12.05c17.86,4.63,32.99,19.19,32.99,40.31
		c0,21.11-18.57,41.48-41.48,41.48c-3.59,0-7.08-0.45-10.4-1.31c-4.03,17.01-29.2,29.62-45.37,32.15v45.99
		c11.93,0,19.45-0.21,22.13,15.02h17.98h0.26v0.01c13.76,0.32,13.76,20.95,0,21.28l0,0h-0.26h-53.99V147.31z"/>
	<path class="st15" d="M241.2,78.3c32.67,35.62,20.72,99.77-26.71,143.28c-47.43,43.51-112.37,49.91-145.05,14.29
		c-22.86-24.91-29-115.59-37.65,20.16c-3.95,61.93,18.45,118.07,62.74,161.11c42.35,41.16,100.27,64.32,159.28,65.08
		c38.03,0,75.12-9.43,108.34-27.59c-9.24-0.41-17.59-3.79-23.55-10.28c-14.64-15.96-9.28-44.7,11.98-64.2
		c21.24-19.49,50.34-22.36,64.99-6.41c7.81,8.52,9.92,20.67,6.98,33.11c66.74-74.29,78.72-186.6,17.25-272.87
		c-39.43-55.29-82.1-90.11-151.23-101.54c-33.29-4.64-58.99-3.78-91.11,8.53c-12.93,4.96-25.3,10.64-37.08,17.06
		C191.71,50.97,222.02,57.38,241.2,78.3 M72.9,438.76C22.68,389.95-2.73,326.27,1.74,256.02c5.7-89.3,53.08-166.62,128.25-214.25
		c18.45-11.67,38.39-21.52,59.64-29.69c36.42-13.96,65.58-14.94,103.35-9.68c78.41,12.97,126.8,52.48,171.52,115.18
		c84.55,118.65,46.63,280.72-76,356.68c-40.65,25.17-87.14,38.31-134.94,38.31C186.64,511.72,120.94,485.45,72.9,438.76z"/>
	<path class="st15" d="M134.4,377.25c-33.31-32.38-50.17-74.62-47.2-121.23c3.77-59.24,35.2-110.53,85.07-142.13
		c12.23-7.75,25.46-14.28,39.56-19.7c24.16-9.26,43.51-9.91,68.56-6.42c52.01,8.61,84.12,34.81,113.78,76.41
		c56.09,78.71,30.93,186.23-50.42,236.62c-26.97,16.7-57.8,25.41-89.52,25.41C209.86,425.64,166.26,408.22,134.4,377.25
		 M72.56,439.09C22.25,390.2-3.2,326.39,1.28,256.02C6.98,166.56,54.46,89.11,129.76,41.38c18.48-11.7,38.46-21.57,59.75-29.74
		C226-2.34,255.22-3.32,293.05,1.94c78.55,12.99,127.04,52.56,171.84,115.39c84.7,118.87,46.71,281.24-76.15,357.34
		c-40.73,25.22-87.29,38.38-135.19,38.38C186.52,512.18,120.69,485.87,72.56,439.09z"/>
	<path class="st0" d="M243.15,44.82c12.44,21.41-3.28,53.76-35.11,72.25c-31.82,18.47-67.7,16.1-80.14-5.32
		c-12.44-21.42,3.28-53.76,35.11-72.24C194.83,21.03,230.71,23.41,243.15,44.82"/>
	<path class="st0" d="M116.33,117.39c9.97,10.95,4.85,31.81-11.42,46.62c-16.26,14.8-37.53,17.93-47.49,6.98
		c-9.95-10.95-4.84-31.82,11.43-46.62C85.12,109.56,106.38,106.44,116.33,117.39"/>
	<path class="st0" d="M362.11,437.39c6.73,9.83,0.34,25.91-14.27,35.91c-14.61,9.99-31.91,10.13-38.64,0.29
		c-6.72-9.84-0.33-25.91,14.28-35.9C338.08,427.69,355.38,427.56,362.11,437.39"/>
</g>
</svg>
