<?xml version="1.0" encoding="utf-8"?>
<!-- Generator: Adobe Illustrator 23.0.3, SVG Export Plug-In . SVG Version: 6.00 Build 0)  -->
<svg version="1.1" id="Layer_1" xmlns="http://www.w3.org/2000/svg" xmlns:xlink="http://www.w3.org/1999/xlink" x="0px" y="0px"
	 viewBox="0 0 512 512" style="enable-background:new 0 0 512 512;" xml:space="preserve">
<style type="text/css">
	.st0{fill-rule:evenodd;clip-rule:evenodd;fill:#FFFFFF;}
	.st1{fill-rule:evenodd;clip-rule:evenodd;fill:#6B6B6B;}
	.st2{fill-rule:evenodd;clip-rule:evenodd;fill:#6D6D6D;}
	.st3{fill-rule:evenodd;clip-rule:evenodd;fill:#6F6F6F;}
	.st4{fill-rule:evenodd;clip-rule:evenodd;fill:#717171;}
	.st5{fill-rule:evenodd;clip-rule:evenodd;fill:#737373;}
	.st6{fill-rule:evenodd;clip-rule:evenodd;fill:#757575;}
	.st7{fill-rule:evenodd;clip-rule:evenodd;fill:#767676;}
	.st8{fill-rule:evenodd;clip-rule:evenodd;fill:#787878;}
	.st9{fill-rule:evenodd;clip-rule:evenodd;fill:#7A7A7A;}
	.st10{fill-rule:evenodd;clip-rule:evenodd;fill:#7C7C7C;}
	.st11{fill-rule:evenodd;clip-rule:evenodd;fill:#7E7E7E;}
	.st12{fill-rule:evenodd;clip-rule:evenodd;fill:#808080;}
	.st13{fill:none;stroke:#6B6B6B;stroke-width:0.9696;stroke-miterlimit:22.9256;}
	.st14{fill-rule:evenodd;clip-rule:evenodd;fill:#E6E6E6;}
	.st15{opacity:0.5;fill-rule:evenodd;clip-rule:evenodd;fill:#FFFFFF;}
</style>
<g>
	<path class="st0" d="M106.57,405.09c-42.08-40.85-63.36-94.19-59.6-153.03c4.77-74.78,44.45-139.54,107.4-179.45
		c15.45-9.77,32.15-18.01,49.95-24.85c30.51-11.68,54.92-12.52,86.56-8.09c65.67,10.84,106.21,43.94,143.66,96.44
		c70.81,99.37,39.04,235.12-63.66,298.72c-34.05,21.08-72.98,32.1-113.02,32.1C201.82,466.21,146.79,444.21,106.57,405.09
		 M100.42,411.25c-43.74-42.5-65.88-97.98-61.98-159.18c4.96-77.8,46.24-145.14,111.71-186.65c16.08-10.16,33.45-18.75,51.96-25.84
		c31.74-12.15,57.12-13.01,90.02-8.43c68.3,11.29,110.46,45.69,149.43,100.34c73.64,103.35,40.61,244.54-66.21,310.71
		c-35.42,21.92-75.91,33.36-117.56,33.36C199.51,474.8,142.26,451.91,100.42,411.25z"/>
	<path class="st1" d="M135.86,375.74c-19.47-18.93-33.98-42.13-42.09-68.11c-13.43-43.02-4.87-96.78,17.68-135.22
		c23.74-40.98,59.58-68.61,103.42-85.44c24.63-9.45,44.42-10.11,69.95-6.55c53.09,8.77,85.81,35.51,116.09,77.95
		c20.15,28.31,30.02,58.71,30.9,93.66c0,96.02-77.87,173.66-173.67,173.66C212.85,425.12,168.38,407.34,135.86,375.74"/>
	<path class="st2" d="M142.25,376.29c-18.47-17.81-32.23-39.64-39.92-64.08c-12.75-40.48-4.18-92.64,16.76-127.21
		c21.79-37.05,56.98-62.03,99.49-77.35c25.05-8.62,45.77-9.45,69.5-6.73c49.28,6.94,79.18,34.15,106.74,73.84
		c18.33,27.23,26.53,56.27,26.09,89.03c-1.23,88.27-73.72,159.49-162.7,159.49C215.26,422.72,173.08,406.01,142.25,376.29"/>
	<path class="st3" d="M148.64,376.84c-17.47-16.71-30.48-37.13-37.75-60.04c-12.06-37.92-3.48-88.51,15.83-119.19
		c19.86-33.12,54.39-55.46,95.56-69.26c25.48-7.8,47.13-8.77,69.05-6.89c45.48,5.11,72.57,32.76,97.41,69.7
		c16.5,26.18,23.03,53.81,21.29,84.39c-2.47,80.55-69.6,145.33-151.74,145.33C217.67,420.36,177.8,404.67,148.64,376.84"/>
	<path class="st4" d="M155.02,377.39c-16.46-15.58-28.73-34.64-35.57-56.01c-11.36-35.38-2.78-84.37,14.93-111.18
		C152.29,181,186.14,161.34,226,149c25.88-6.94,48.5-8.07,68.59-7.02c41.67,3.25,65.95,31.4,88.07,65.57
		c14.66,25.14,19.53,51.37,16.47,79.79c-3.72,72.79-65.46,131.11-140.78,131.11C220.09,417.98,182.5,403.36,155.02,377.39"/>
	<path class="st5" d="M161.39,377.94c-15.45-14.46-26.97-32.16-33.4-51.95c-10.67-32.84-2.07-80.26,14.02-103.17
		c15.97-25.32,49.15-42.29,87.69-53.13c26.32-6.13,49.86-7.38,68.15-7.2c37.88,1.41,59.32,30.04,78.74,61.46
		c12.83,24.09,16.04,48.94,11.65,75.15c-4.95,65.07-61.33,116.94-129.81,116.94C222.5,415.59,187.2,402.03,161.39,377.94"/>
	<path class="st6" d="M167.78,378.49c-14.44-13.33-25.22-29.64-31.23-47.92c-9.98-30.3-1.38-76.12,13.11-95.16
		c14.04-21.39,46.54-35.72,83.77-45.04c26.74-5.29,51.21-6.7,67.69-7.36c34.07-0.45,52.71,28.65,69.39,57.34
		c11,23.02,12.56,46.48,6.85,70.49c-6.18,57.34-57.18,102.78-118.85,102.78C224.9,413.21,191.91,400.72,167.78,378.49"/>
	<path class="st7" d="M174.17,379.04c-13.43-12.2-23.46-27.15-29.05-43.89c-9.28-27.73-0.68-71.98,12.19-87.14
		c12.11-17.47,43.94-29.12,79.84-36.95c27.15-4.48,52.57-6.02,67.24-7.52c30.27-2.28,46.07,27.29,60.06,53.21
		c9.16,21.97,9.05,44.04,2.03,65.88c-7.41,49.59-53.04,88.58-107.88,88.58C227.31,410.85,196.62,399.38,174.17,379.04"/>
	<path class="st8" d="M180.56,379.56c-12.44-11.05-21.71-24.64-26.89-39.83c-8.59-25.16,0.03-67.85,11.29-79.1
		c10.17-13.57,41.33-22.57,75.9-28.88c27.59-3.64,53.93-5.34,66.8-7.7c26.46-4.11,39.46,25.92,50.72,49.1
		c7.32,20.92,5.55,41.58-2.78,61.25c-8.65,41.87-48.91,74.42-96.94,74.42C229.74,408.47,201.32,398.05,180.56,379.56"/>
	<path class="st9" d="M186.95,380.14c-11.44-9.98-19.97-22.15-24.72-35.82c-7.9-22.62,0.72-63.68,10.37-71.09
		c8.22-9.64,38.71-15.97,71.96-20.79c28.02-2.8,55.29-4.66,66.35-7.85c22.66-5.97,32.84,24.54,41.39,44.96
		c5.49,19.87,2.06,39.15-7.59,56.64c-9.88,34.12-44.78,60.23-85.97,60.23C232.14,406.09,206.04,396.74,186.95,380.14"/>
	<path class="st10" d="M193.32,380.69c-10.43-8.85-18.21-19.67-22.54-31.79c-7.2-20.06,1.43-59.57,9.47-63.08
		c6.28-5.71,36.1-9.4,68.03-12.7c28.42-1.99,56.64-3.98,65.89-8.01c18.85-7.8,26.21,23.17,32.04,40.82
		c3.67,18.83-1.43,36.71-12.4,52c-11.12,26.39-40.64,46.06-74.99,46.06C234.55,403.7,210.74,395.4,193.32,380.69"/>
	<path class="st11" d="M199.7,381.21c-9.41-7.7-16.44-17.15-20.36-27.73c-6.52-17.52,2.12-55.41,8.54-55.07
		c4.36-1.78,33.5-2.8,64.1-4.61c28.86-1.15,58.01-3.3,65.45-8.2c15.06-9.64,19.6,21.81,22.7,36.71c1.83,17.78-4.92,34.28-17.2,47.37
		c-12.36,18.67-36.5,31.89-64.05,31.89C236.96,401.35,215.44,394.09,199.7,381.21"/>
	<path class="st12" d="M206.09,381.79c-8.42-6.6-14.69-14.66-18.2-23.7c-5.81-14.98,2.83-51.3,7.63-47.06
		c4.82,4.24,113.91,6.6,125.16-4.9c11.26-11.49,12.98,20.45,13.37,32.6c0,33.41-33.67,60.44-75.1,60.44
		C239.37,398.97,220.15,392.79,206.09,381.79"/>
	<path class="st12" d="M149.45,258.35C76.28,298.05,100.07,89.77,258.19,90.3c171.76,0.58,180.19,197.15,116.13,168.06
		C326.38,236.56,200.16,230.8,149.45,258.35"/>
	<path class="st12" d="M258.22,376.55c-67.85-0.89-130.19-39.33-157.36-102.1c-6.34-14.64-8.64-29.09-9.24-44.91
		c-9.71,61.01,7.68,113.64,55.3,153.97c31.91,27.02,69.65,40.25,111.3,40.77c95.14,0,172.26-77.12,172.26-172.25
		c-0.05-8.33-0.52-15.61-1.65-23.85C416.1,314.44,345.29,375.43,258.22,376.55"/>
	<path class="st13" d="M259.57,226.51c18.29,0,33.11,14.82,33.11,33.1c0,18.3-14.82,33.12-33.11,33.12
		c-18.28,0-33.1-14.82-33.1-33.12C226.48,241.33,241.3,226.51,259.57,226.51z M276.75,182.76c8.72,1.94,16.89,5.34,24.25,9.9
		l13.39-13.41c2.24-2.23,5.9-2.23,8.14,0l16.79,16.79c2.24,2.23,2.24,5.89,0,8.14l-13.26,13.25c4.65,7.31,8.12,15.45,10.16,24.12
		h18.95c3.17,0,5.76,2.59,5.76,5.76v23.72c0,3.17-2.59,5.76-5.76,5.76h-18.73c-1.94,8.72-5.32,16.89-9.89,24.25l13.41,13.41
		c2.23,2.23,2.23,5.89,0,8.14l-16.78,16.76c-2.24,2.25-5.9,2.25-8.14,0l-13.25-13.25c-7.32,4.66-15.44,8.14-24.13,10.16v18.96
		c0,3.17-2.58,5.76-5.75,5.76h-23.74c-3.17,0-5.76-2.59-5.76-5.76v-18.75c-8.71-1.94-16.88-5.32-24.23-9.87l-13.41,13.38
		c-2.24,2.25-5.89,2.25-8.13,0l-16.78-16.76c-2.24-2.25-2.24-5.92,0-8.14l13.25-13.28c-4.65-7.31-8.12-15.42-10.16-24.12H164
		c-3.18,0-5.76-2.59-5.76-5.76v-23.72c0-3.17,2.58-5.76,5.76-5.76h18.72c1.95-8.69,5.33-16.89,9.9-24.22l-13.41-13.41
		c-2.24-2.25-2.24-5.89,0-8.14l16.77-16.79c2.25-2.25,5.9-2.25,8.16,0l13.25,13.25c7.31-4.63,15.44-8.12,24.12-10.16v-18.93
		c0-3.17,2.59-5.76,5.76-5.76h23.72c3.18,0,5.76,2.59,5.76,5.76V182.76z"/>
	<path class="st1" d="M259.59,226.51c18.29,0,33.11,14.82,33.11,33.1s-14.82,33.1-33.11,33.1c-18.28,0-33.1-14.82-33.1-33.1
		S241.31,226.51,259.59,226.51 M276.76,182.76c8.71,1.94,16.88,5.31,24.25,9.9l13.39-13.41c2.24-2.25,5.9-2.25,8.14,0l16.77,16.79
		c2.25,2.23,2.25,5.89,0,8.14l-13.25,13.25c4.65,7.31,8.12,15.42,10.16,24.12h18.95c3.17,0,5.76,2.59,5.76,5.76v23.72
		c0,3.17-2.59,5.76-5.76,5.76h-18.74c-1.95,8.72-5.33,16.89-9.88,24.25l13.39,13.38c2.24,2.25,2.24,5.92,0,8.14l-16.77,16.79
		c-2.24,2.25-5.91,2.25-8.14,0l-13.25-13.25c-7.32,4.66-15.45,8.12-24.13,10.16v18.93c0,3.19-2.59,5.76-5.76,5.76h-23.72
		c-3.17,0-5.76-2.57-5.76-5.76v-18.72c-8.71-1.94-16.88-5.32-24.25-9.9l-13.39,13.41c-2.24,2.25-5.89,2.25-8.13,0l-16.79-16.78
		c-2.25-2.23-2.25-5.89,0-8.14l13.25-13.25c-4.65-7.31-8.12-15.42-10.16-24.12H164c-3.17,0-5.76-2.59-5.76-5.76v-23.72
		c0-3.17,2.59-5.76,5.76-5.76h18.74c1.95-8.72,5.33-16.89,9.88-24.25l-13.39-13.38c-2.24-2.25-2.24-5.92,0-8.14L196,179.87
		c2.25-2.25,5.91-2.25,8.14,0l13.26,13.25c7.31-4.66,15.44-8.12,24.12-10.16v-18.93c0-3.19,2.59-5.76,5.76-5.76H271
		c3.17,0,5.76,2.57,5.76,5.76V182.76z"/>
	<path class="st13" d="M259.57,211.43c18.29,0,33.11,14.8,33.11,33.1c0,18.28-14.82,33.1-33.11,33.1c-18.28,0-33.1-14.82-33.1-33.1
		C226.48,226.22,241.3,211.43,259.57,211.43z M276.75,167.67c8.72,1.94,16.89,5.31,24.25,9.87l13.39-13.38
		c2.24-2.25,5.9-2.25,8.14,0l16.79,16.76c2.24,2.25,2.24,5.92,0,8.14l-13.26,13.28c4.65,7.31,8.12,15.42,10.16,24.12h18.95
		c3.17,0,5.76,2.59,5.76,5.76v23.72c0,3.17-2.59,5.76-5.76,5.76h-18.73c-1.94,8.69-5.32,16.86-9.89,24.25l13.41,13.38
		c2.23,2.25,2.23,5.92,0,8.14l-16.78,16.79c-2.24,2.23-5.9,2.23-8.14,0l-13.25-13.25c-7.32,4.63-15.44,8.12-24.13,10.16v18.93
		c0,3.17-2.58,5.76-5.75,5.76h-23.74c-3.17,0-5.76-2.59-5.76-5.76v-18.72c-8.71-1.96-16.88-5.34-24.23-9.9l-13.41,13.41
		c-2.24,2.23-5.89,2.23-8.13,0l-16.78-16.78c-2.24-2.25-2.24-5.89,0-8.14l13.25-13.25c-4.65-7.31-8.12-15.45-10.16-24.12H164
		c-3.18,0-5.76-2.59-5.76-5.76v-23.72c0-3.17,2.58-5.76,5.76-5.76h18.72c1.95-8.72,5.33-16.89,9.9-24.25l-13.41-13.41
		c-2.24-2.23-2.24-5.89,0-8.14l16.77-16.76c2.25-2.25,5.9-2.25,8.16,0l13.25,13.25c7.31-4.66,15.44-8.14,24.12-10.16v-18.96
		c0-3.17,2.59-5.76,5.76-5.76h23.72c3.18,0,5.76,2.59,5.76,5.76V167.67z"/>
	<path class="st14" d="M259.59,211.4c18.29,0,33.11,14.82,33.11,33.1c0,18.3-14.82,33.12-33.11,33.12
		c-18.28,0-33.1-14.82-33.1-33.12C226.49,226.22,241.31,211.4,259.59,211.4 M276.76,167.67c8.71,1.94,16.88,5.31,24.25,9.87
		l13.39-13.41c2.24-2.23,5.9-2.23,8.14,0l16.77,16.78c2.25,2.25,2.25,5.89,0,8.14l-13.25,13.25c4.65,7.33,8.12,15.45,10.16,24.12
		h18.95c3.17,0,5.76,2.59,5.76,5.76v23.75c0,3.17-2.59,5.74-5.76,5.74h-18.74c-1.95,8.72-5.33,16.89-9.88,24.25l13.39,13.41
		c2.24,2.23,2.24,5.89,0,8.14l-16.77,16.79c-2.24,2.23-5.91,2.23-8.14,0l-13.25-13.28c-7.32,4.66-15.45,8.14-24.13,10.19v18.93
		c0,3.17-2.59,5.76-5.76,5.76h-23.72c-3.17,0-5.76-2.59-5.76-5.76v-18.75c-8.71-1.94-16.88-5.32-24.25-9.87l-13.39,13.41
		c-2.24,2.23-5.89,2.23-8.13,0l-16.79-16.78c-2.25-2.25-2.25-5.92,0-8.14l13.25-13.25c-4.65-7.33-8.12-15.45-10.16-24.14H164
		c-3.17,0-5.76-2.57-5.76-5.73v-23.75c0-3.17,2.59-5.76,5.76-5.76h18.74c1.95-8.69,5.33-16.86,9.88-24.22l-13.39-13.41
		c-2.24-2.23-2.24-5.89,0-8.14L196,164.77c2.25-2.23,5.91-2.23,8.14,0l13.26,13.25c7.31-4.63,15.44-8.12,24.12-10.16v-18.93
		c0-3.17,2.59-5.76,5.76-5.76H271c3.17,0,5.76,2.59,5.76,5.76V167.67z"/>
	<path class="st0" d="M276.76,167.67c8.71,1.91,16.88,5.31,24.25,9.87l13.39-13.41c2.24-2.23,5.9-2.23,8.14,0l16.77,16.78
		c2.24,2.25,2.24,5.89,0,8.14l-13.25,13.25c4.65,7.33,8.12,15.45,10.16,24.12h18.95c3.12,0,5.68,2.51,5.76,5.63v0.13v12.31H292.7
		c0-18.28-14.82-33.1-33.11-33.1c-18.29,0-33.1,14.82-33.1,33.1h-68.25v-11.42c0-3.17,2.59-5.76,5.76-5.76h18.74
		c1.95-8.69,5.33-16.86,9.88-24.22l-13.39-13.41c-2.24-2.23-2.24-5.89,0-8.14L196,164.77c2.24-2.23,5.91-2.23,8.14,0l13.26,13.25
		c7.31-4.63,15.44-8.12,24.12-10.16v-18.93c0-3.17,2.59-5.76,5.76-5.76h23.74c3.17,0,5.75,2.59,5.75,5.76V167.67z"/>
	<path class="st15" d="M247.06,97.52c28.41,30.98,18.02,86.75-23.23,124.59c-41.24,37.84-97.71,43.39-126.12,12.44
		c-19.87-21.68-25.22-100.52-32.73,17.52c-3.44,53.86,16.04,102.67,54.54,140.09c36.82,35.79,87.18,55.93,138.49,56.59
		c33.06,0,65.32-8.2,94.2-23.99c-8.04-0.34-15.29-3.3-20.48-8.93c-12.73-13.88-8.06-38.89,10.41-55.83
		c18.47-16.97,43.78-19.46,56.51-5.58c6.79,7.41,8.64,17.96,6.07,28.8c58.03-64.6,68.45-162.27,14.99-237.29
		c-34.28-48.08-71.38-78.35-131.49-88.3c-28.95-4.03-51.3-3.27-79.24,7.44c-11.23,4.29-22,9.24-32.23,14.82
		C204.02,73.77,230.38,79.35,247.06,97.52 M100.72,410.96c-43.68-42.45-65.78-97.8-61.88-158.89
		C43.79,174.43,85,107.18,150.35,65.79c16.04-10.16,33.39-18.72,51.86-25.82c31.67-12.15,57.02-12.99,89.87-8.43
		c68.17,11.29,110.25,45.64,149.14,100.16c73.51,103.17,40.55,244.1-66.08,310.14c-35.35,21.89-75.77,33.31-117.35,33.31
		C199.62,474.41,142.49,451.57,100.72,410.96z"/>
	<path class="st15" d="M154.19,357.49c-28.96-28.18-43.62-64.89-41.04-105.42c3.29-51.51,30.62-96.1,73.97-123.59
		c10.64-6.73,22.15-12.41,34.41-17.1c21.01-8.06,37.82-8.61,59.62-5.6c45.22,7.49,73.14,30.27,98.93,66.46
		c48.77,68.42,26.9,161.93-43.83,205.74c-23.45,14.51-50.26,22.1-77.85,22.1C219.8,399.54,181.9,384.41,154.19,357.49
		 M100.42,411.25c-43.74-42.5-65.88-97.98-61.98-159.18c4.96-77.8,46.24-145.14,111.71-186.65c16.08-10.16,33.45-18.75,51.96-25.84
		c31.74-12.15,57.12-13.01,90.02-8.43c68.3,11.29,110.46,45.69,149.43,100.34c73.64,103.35,40.61,244.54-66.21,310.71
		c-35.42,21.92-75.91,33.36-117.56,33.36C199.51,474.8,142.26,451.91,100.42,411.25z"/>
	<path class="st0" d="M248.75,68.43c10.82,18.62-2.85,46.74-30.52,62.82c-27.68,16.05-58.88,13.98-69.69-4.63
		c-10.81-18.62,2.85-46.74,30.53-62.82C206.73,47.74,237.93,49.81,248.75,68.43"/>
	<path class="st0" d="M138.48,131.51c8.67,9.53,4.22,27.68-9.92,40.53c-14.15,12.88-32.64,15.58-41.29,6.08
		c-8.67-9.53-4.22-27.68,9.94-40.54C111.34,124.73,129.83,122.01,138.48,131.51"/>
	<path class="st0" d="M352.19,409.78c5.84,8.54,0.29,22.52-12.42,31.21c-12.7,8.69-27.74,8.8-33.58,0.26
		c-5.85-8.56-0.3-22.54,12.41-31.21C331.29,401.35,346.34,401.22,352.19,409.78"/>
</g>
</svg>
