<?xml version="1.0" encoding="utf-8"?>
<!-- Generator: Adobe Illustrator 23.0.3, SVG Export Plug-In . SVG Version: 6.00 Build 0)  -->
<svg version="1.1" id="Layer_1" xmlns="http://www.w3.org/2000/svg" xmlns:xlink="http://www.w3.org/1999/xlink" x="0px" y="0px"
	 viewBox="0 0 512 512" style="enable-background:new 0 0 512 512;" xml:space="preserve">
<style type="text/css">
	.st0{fill-rule:evenodd;clip-rule:evenodd;fill:#FFFFFF;}
	.st1{fill-rule:evenodd;clip-rule:evenodd;fill:#FFA502;}
	.st2{fill-rule:evenodd;clip-rule:evenodd;fill:#FFA902;}
	.st3{fill-rule:evenodd;clip-rule:evenodd;fill:#FFAC02;}
	.st4{fill-rule:evenodd;clip-rule:evenodd;fill:#FFB001;}
	.st5{fill-rule:evenodd;clip-rule:evenodd;fill:#FFB301;}
	.st6{fill-rule:evenodd;clip-rule:evenodd;fill:#FFB701;}
	.st7{fill-rule:evenodd;clip-rule:evenodd;fill:#FFBA01;}
	.st8{fill-rule:evenodd;clip-rule:evenodd;fill:#FFBE01;}
	.st9{fill-rule:evenodd;clip-rule:evenodd;fill:#FFC101;}
	.st10{fill-rule:evenodd;clip-rule:evenodd;fill:#FFC500;}
	.st11{fill-rule:evenodd;clip-rule:evenodd;fill:#FFC800;}
	.st12{fill-rule:evenodd;clip-rule:evenodd;fill:#FFCC00;}
	.st13{fill:none;stroke:#FFA502;stroke-width:1.0102;stroke-miterlimit:22.9256;}
	.st14{fill-rule:evenodd;clip-rule:evenodd;fill:#E6E6E6;}
	.st15{opacity:0.5;fill-rule:evenodd;clip-rule:evenodd;fill:#FFFFFF;}
</style>
<g>
	<path class="st0" d="M79.22,431.34c-48.6-46.82-73.18-107.92-68.85-175.32c5.51-85.68,51.37-159.85,124.09-205.56
		c17.83-11.2,37.14-20.66,57.69-28.48c35.26-13.39,63.47-14.33,100-9.28c75.87,12.44,122.7,50.34,165.98,110.5
		c81.8,113.84,45.11,269.33-73.54,342.22c-39.34,24.15-84.31,36.75-130.57,36.75C189.27,501.34,125.71,476.14,79.22,431.34
		 M72.11,438.38C21.58,389.68-4,326.12,0.51,256.02c5.73-89.11,53.43-166.27,129.07-213.8c18.56-11.65,38.63-21.49,60.02-29.62
		c36.67-13.93,66.01-14.91,104.02-9.67c78.9,12.94,127.62,52.36,172.62,114.94c85.08,118.41,46.94,280.14-76.49,355.95
		c-40.92,25.12-87.7,38.23-135.82,38.23C186.59,511.19,120.47,484.98,72.11,438.38z"/>
	<path class="st1" d="M113.06,397.69c-22.49-21.68-39.25-48.25-48.63-78.01c-15.52-49.3-5.61-110.87,20.42-154.92
		c27.42-46.93,68.85-78.59,119.5-97.87c28.45-10.82,51.31-11.59,80.8-7.5c61.34,10.06,99.14,40.67,134.12,89.29
		c23.29,32.42,34.68,67.27,35.7,107.29c0,110-89.97,198.96-200.63,198.96C202,454.26,150.64,433.89,113.06,397.69"/>
	<path class="st2" d="M120.44,398.32c-21.33-20.4-37.24-45.39-46.12-73.39C59.61,278.55,69.5,218.8,93.68,179.2
		c25.19-42.45,65.83-71.06,114.94-88.62c28.94-9.87,52.88-10.81,80.29-7.69c56.93,7.95,91.5,39.1,123.34,84.58
		c21.18,31.21,30.65,64.46,30.15,101.99c-1.44,101.13-85.19,182.71-187.99,182.71C204.8,451.53,156.07,432.37,120.44,398.32"/>
	<path class="st3" d="M127.81,398.95c-20.16-19.12-35.2-42.54-43.61-68.77c-13.92-43.45-4.01-101.39,18.3-136.55
		c22.95-37.96,62.82-63.53,110.41-79.36c29.44-8.92,54.45-10.03,79.78-7.88c52.55,5.84,83.84,37.53,112.54,79.85
		c19.06,30,26.61,61.67,24.6,96.69c-2.86,92.28-80.41,166.46-175.31,166.46C207.58,448.81,161.49,430.86,127.81,398.95"/>
	<path class="st4" d="M135.19,399.58c-19-17.83-33.19-39.67-41.1-64.14c-13.13-40.53-3.21-96.65,17.26-127.36
		c20.69-33.48,59.79-55.99,105.85-70.1c29.92-7.97,56.03-9.24,79.25-8.06c48.16,3.73,76.19,35.96,101.75,75.13
		c16.94,28.8,22.58,58.86,19.03,91.39c-4.28,83.42-75.63,150.21-162.64,150.21C210.37,446.09,166.94,429.34,135.19,399.58"/>
	<path class="st5" d="M142.57,400.22c-17.85-16.55-31.16-36.81-38.59-59.52c-12.33-37.61-2.4-91.92,16.19-118.18
		c18.47-28.98,56.8-48.45,101.33-60.84c30.4-7.03,57.58-8.47,78.72-8.25c43.76,1.61,68.55,34.38,90.97,70.4
		c14.82,27.59,18.53,56.06,13.48,86.09c-5.72,74.55-70.85,133.97-149.99,133.97C213.15,443.37,172.39,427.83,142.57,400.22"/>
	<path class="st6" d="M149.95,400.84c-16.7-15.25-29.13-33.96-36.09-54.89c-11.53-34.69-1.59-87.18,15.14-109
		c16.23-24.49,53.77-40.91,96.78-51.59c30.9-6.07,59.16-7.67,78.2-8.44c39.37-0.5,60.9,32.82,80.18,65.68
		c12.71,26.38,14.49,53.26,7.91,80.78c-7.14,65.69-66.07,117.73-137.32,117.73C215.93,440.64,177.82,426.31,149.95,400.84"/>
	<path class="st7" d="M157.32,401.47c-15.52-13.97-27.11-31.09-33.56-50.27c-10.72-31.76-0.79-82.45,14.08-99.82
		c13.99-20.01,50.76-33.37,92.24-42.33c31.37-5.11,60.73-6.9,77.69-8.63c34.96-2.61,53.23,31.26,69.38,60.95
		c10.57,25.18,10.45,50.46,2.35,75.49c-8.56,56.83-61.29,101.48-124.64,101.48C218.72,437.91,183.26,424.79,157.32,401.47"/>
	<path class="st8" d="M164.7,402.09c-14.37-12.69-25.08-28.24-31.07-45.64c-9.92-28.84,0.03-77.71,13.04-90.64
		c11.74-15.52,47.74-25.84,87.69-33.07c31.87-4.16,62.3-6.11,77.17-8.81c30.57-4.72,45.59,29.69,58.6,56.23
		c8.46,23.97,6.41,47.66-3.21,70.18c-10,47.97-56.51,85.24-111.99,85.24C221.51,435.19,188.69,423.27,164.7,402.09"/>
	<path class="st9" d="M172.07,402.72c-13.21-11.41-23.05-25.37-28.54-41.01c-9.12-25.93,0.83-72.98,11.98-81.46
		c9.5-11.03,44.73-18.29,83.13-23.81c32.37-3.22,63.88-5.33,76.66-9c26.18-6.83,37.94,28.11,47.8,51.5
		c6.35,22.76,2.39,44.85-8.76,64.88c-11.42,39.11-51.73,68.99-99.32,68.99C224.3,432.47,194.14,421.76,172.07,402.72"/>
	<path class="st10" d="M179.45,403.36c-12.04-10.12-21.02-22.51-26.05-36.4c-8.32-22.99,1.65-68.23,10.94-72.26
		c7.26-6.55,41.72-10.75,78.59-14.56c32.85-2.26,65.45-4.54,76.13-9.19c21.8-8.94,30.3,26.55,37.03,46.78
		c4.22,21.56-1.66,42.06-14.32,59.58c-12.86,30.24-46.95,52.74-86.66,52.74C227.08,429.74,199.57,420.24,179.45,403.36"/>
	<path class="st11" d="M186.83,403.99c-10.89-8.83-19.01-19.65-23.54-31.77c-7.52-20.08,2.45-63.5,9.88-63.08
		c5.02-2.06,38.69-3.22,74.04-5.3c33.34-1.31,67.02-3.76,75.62-9.37c17.39-11.05,22.64,24.97,26.23,42.06
		c2.12,20.35-5.69,39.25-19.88,54.27c-14.28,21.39-42.17,36.51-74,36.51C229.87,427.02,205.01,418.73,186.83,403.99"/>
	<path class="st12" d="M194.2,404.62c-9.73-7.55-16.97-16.79-21.03-27.15c-6.72-17.15,3.27-58.76,8.83-53.9
		c5.55,4.85,131.6,7.57,144.59-5.6c13.01-13.16,14.99,23.4,15.44,37.33c0,38.28-38.9,69.23-86.76,69.23
		C232.66,424.31,210.44,417.22,194.2,404.62"/>
	<path class="st12" d="M128.76,263.21C44.22,308.7,71.72,70.12,254.4,70.71c198.42,0.65,208.16,225.84,134.15,192.5
		C333.18,238.27,187.35,231.67,128.76,263.21"/>
	<path class="st12" d="M254.43,398.62c-78.37-1.01-150.41-45.04-181.8-116.96c-7.3-16.78-9.97-33.31-10.68-51.43
		c-11.21,69.9,8.88,130.17,63.89,176.38c36.86,30.96,80.49,46.11,128.59,46.71c109.92,0,199.03-88.36,199.03-197.35
		c-0.07-9.53-0.62-17.88-1.92-27.33C436.82,327.46,355.02,397.33,254.43,398.62"/>
	<path class="st13" d="M221.8,217.24h93.51c3.86,0,7.02,3.13,7.02,6.96c0,3.82-3.16,6.95-7.02,6.95H221.8c-3.86,0-7-3.13-7-6.95
		C214.8,220.36,217.95,217.24,221.8,217.24z M233.21,244.32h70.7c3.86,0,7.02,3.13,7.02,6.96c0,3.82-3.16,6.94-7.02,6.94h-70.7
		c-3.86,0-7.02-3.13-7.02-6.94C226.19,247.45,229.35,244.32,233.21,244.32z M142.1,182.61l5.63-11.96c0.94-2.43,2.89-3.22,5.94-2.24
		l29.66,12.73c1.12,0.48,2.45,1.48,2.92,3.06l33.44,88.19c0.45,1.19,0.88,1.99,3.42,1.99h93.71c0.83,0.01,1.42-0.3,1.75-0.97
		l29.57-70.6c1.39-2.66,3.31-3.28,5.98-2.44c4.46,1.83,8.91,3.67,13.36,5.5c2.39,1.19,3.78,2.76,2.46,5.92l-33.76,80.63
		c-0.53,1.5-2.87,3.4-4.89,3.4h-98.92c-2.53-0.09-3.43,1.06-2.42,3.67l1.94,5.21c9.85,0.6,18.26,6.49,22.37,14.84h45.86
		c4.34-8.81,13.46-14.89,24.02-14.89c14.78,0,26.74,11.86,26.74,26.51c0,14.64-11.97,26.51-26.74,26.51
		c-12.55,0-23.1-8.6-25.96-20.19h-42c-2.86,11.58-13.4,20.19-25.96,20.19c-14.78,0-26.74-11.87-26.74-26.51
		c0-6.72,2.53-12.85,6.69-17.53C195.57,275,182.64,238.9,168,200.27c-0.67-1.73-2.32-2.89-4.92-3.97
		c-6.19-2.52-12.39-5.06-18.59-7.6C141.88,187.37,140.88,185.6,142.1,182.61z"/>
	<path class="st1" d="M221.79,217.26h93.51c3.86,0,7.02,3.12,7.02,6.95c0,3.83-3.16,6.95-7.02,6.95h-93.51c-3.86,0-7-3.12-7-6.95
		C214.78,220.38,217.93,217.26,221.79,217.26 M233.19,244.33h70.7c3.87,0,7.02,3.13,7.02,6.96c0,3.82-3.15,6.95-7.02,6.95h-70.7
		c-3.86,0-7.02-3.13-7.02-6.95C226.17,247.46,229.34,244.33,233.19,244.33z M142.09,182.62l5.63-11.96
		c0.95-2.42,2.89-3.23,5.94-2.24l29.66,12.72c1.12,0.49,2.47,1.49,2.92,3.07l33.46,88.18c0.44,1.2,0.86,1.99,3.4,1.99h93.72
		c0.83,0.01,1.42-0.29,1.74-0.97l29.57-70.6c1.39-2.66,3.31-3.29,5.98-2.45c4.46,1.83,8.91,3.68,13.36,5.5
		c2.41,1.19,3.78,2.76,2.47,5.93l-33.76,80.64c-0.53,1.49-2.87,3.4-4.89,3.4h-98.93c-2.53-0.09-3.43,1.06-2.42,3.67l1.94,5.21
		c9.85,0.61,18.26,6.49,22.37,14.84h45.86c4.34-8.81,13.46-14.89,24.03-14.89c14.76,0,26.74,11.86,26.74,26.5
		c0,14.65-11.98,26.52-26.74,26.52c-12.57,0-23.11-8.6-25.97-20.19h-42.01c-2.86,11.59-13.39,20.19-25.96,20.19
		c-14.76,0-26.74-11.87-26.74-26.52c0-6.71,2.53-12.85,6.69-17.52c-14.6-38.64-27.53-74.75-42.17-113.37
		c-0.67-1.73-2.31-2.89-4.92-3.97c-6.19-2.52-12.39-5.07-18.59-7.6C141.86,187.39,140.86,185.61,142.09,182.62z"/>
	<path class="st13" d="M221.8,203.57h93.51c3.86,0,7.02,3.13,7.02,6.95c0,3.83-3.16,6.96-7.02,6.96H221.8c-3.86,0-7-3.13-7-6.96
		C214.8,206.69,217.95,203.57,221.8,203.57z M233.21,230.64h70.7c3.86,0,7.02,3.13,7.02,6.96c0,3.82-3.16,6.95-7.02,6.95h-70.7
		c-3.86,0-7.02-3.13-7.02-6.95C226.19,233.77,229.35,230.64,233.21,230.64z M142.1,168.93l5.63-11.96c0.94-2.42,2.89-3.23,5.94-2.24
		l29.66,12.72c1.12,0.49,2.45,1.49,2.92,3.07l33.44,88.19c0.45,1.19,0.88,1.98,3.42,1.98h93.71c0.83,0.02,1.42-0.29,1.75-0.96
		l29.57-70.61c1.39-2.66,3.31-3.29,5.98-2.45c4.46,1.83,8.91,3.68,13.36,5.5c2.39,1.19,3.78,2.76,2.46,5.93l-33.76,80.64
		c-0.53,1.49-2.87,3.4-4.89,3.4h-98.92c-2.53-0.09-3.43,1.07-2.42,3.68l1.94,5.21c9.85,0.61,18.26,6.49,22.37,14.84h45.86
		c4.34-8.82,13.46-14.89,24.02-14.89c14.78,0,26.74,11.86,26.74,26.51c0,14.64-11.97,26.51-26.74,26.51
		c-12.55,0-23.1-8.59-25.96-20.18h-42c-2.86,11.59-13.4,20.18-25.96,20.18c-14.78,0-26.74-11.87-26.74-26.51
		c0-6.72,2.53-12.85,6.69-17.53c-14.6-38.64-27.53-74.75-42.17-113.37c-0.67-1.73-2.32-2.89-4.92-3.97
		c-6.19-2.52-12.39-5.06-18.59-7.6C141.88,173.7,140.88,171.92,142.1,168.93z"/>
	<path class="st14" d="M221.79,203.58h93.51c3.86,0,7.02,3.13,7.02,6.95c0,3.83-3.16,6.95-7.02,6.95h-93.51c-3.86,0-7-3.12-7-6.95
		C214.78,206.71,217.93,203.58,221.79,203.58 M233.19,230.65h70.7c3.87,0,7.02,3.13,7.02,6.96c0,3.83-3.15,6.95-7.02,6.95h-70.7
		c-3.86,0-7.02-3.13-7.02-6.95C226.17,233.78,229.34,230.65,233.19,230.65z M142.09,168.94l5.63-11.96
		c0.95-2.42,2.89-3.22,5.94-2.24l29.66,12.72c1.12,0.49,2.47,1.49,2.92,3.07l33.46,88.19c0.44,1.19,0.86,1.98,3.4,1.98h93.72
		c0.83,0.01,1.42-0.29,1.74-0.96l29.57-70.61c1.39-2.66,3.31-3.29,5.98-2.45c4.46,1.83,8.91,3.68,13.36,5.5
		c2.41,1.19,3.78,2.76,2.47,5.92l-33.76,80.64c-0.53,1.49-2.87,3.4-4.89,3.4h-98.93c-2.53-0.09-3.43,1.07-2.42,3.68l1.94,5.22
		c9.85,0.6,18.26,6.49,22.37,14.83h45.86c4.34-8.82,13.46-14.89,24.03-14.89c14.76,0,26.74,11.86,26.74,26.51
		c0,14.64-11.98,26.52-26.74,26.52c-12.57,0-23.11-8.6-25.97-20.19h-42.01c-2.86,11.59-13.39,20.19-25.96,20.19
		c-14.76,0-26.74-11.88-26.74-26.52c0-6.72,2.53-12.85,6.69-17.53c-14.6-38.64-27.53-74.75-42.17-113.37
		c-0.67-1.73-2.31-2.9-4.92-3.97c-6.19-2.52-12.39-5.06-18.59-7.6C141.86,173.71,140.86,171.93,142.09,168.94z"/>
	<path class="st0" d="M221.79,203.58h93.51c3.86,0,7.02,3.12,7.02,6.95c0,3.83-3.16,6.96-7.02,6.96h-93.51c-3.86,0-7-3.13-7-6.96
		C214.78,206.7,217.93,203.58,221.79,203.58 M233.19,230.65h70.7c3.87,0,7.02,3.13,7.02,6.96c0,3.83-3.15,6.95-7.02,6.95h-70.7
		c-3.86,0-7.02-3.13-7.02-6.95C226.17,233.78,229.34,230.65,233.19,230.65z M142.09,168.94l5.63-11.96
		c0.95-2.42,2.89-3.22,5.94-2.24l29.66,12.72c1.12,0.49,2.47,1.49,2.92,3.07l33.46,88.18c0.44,1.2,0.86,1.99,3.4,1.99h93.72
		c0.83,0.01,1.42-0.29,1.74-0.96l29.57-70.61c1.39-2.66,3.31-3.28,5.98-2.45c4.45,1.83,8.91,3.68,13.36,5.5
		c2.39,1.2,3.78,2.76,2.47,5.93l-26.21,62.6H195.51c-9.08-24.57-17.94-48.8-27.53-74.11c-0.67-1.73-2.31-2.9-4.92-3.97
		c-6.19-2.52-12.39-5.06-18.59-7.6C141.86,173.71,140.86,171.93,142.09,168.94z"/>
	<path class="st15" d="M241.53,78.99c32.82,35.48,20.81,99.38-26.83,142.72s-112.89,49.71-145.71,14.24
		c-22.96-24.82-29.13-115.15-37.82,20.08c-3.96,61.69,18.53,117.61,63.01,160.48c42.55,41,100.74,64.07,160,64.82
		c38.21,0,75.46-9.4,108.83-27.48c-9.27-0.4-17.67-3.77-23.66-10.24c-14.7-15.9-9.32-44.53,12.04-63.95
		c21.34-19.42,50.57-22.27,65.28-6.38c7.84,8.48,9.97,20.59,7.02,32.98c67.04-74,79.06-185.88,17.32-271.81
		C401.41,79.38,358.54,44.69,289.1,33.3c-33.44-4.62-59.26-3.76-91.53,8.5c-12.98,4.94-25.41,10.6-37.25,16.99
		C191.82,51.76,222.26,58.16,241.53,78.99 M72.46,438.05C22,389.43-3.52,326,0.98,256.02C6.69,167.07,54.31,90.06,129.81,42.61
		c18.53-11.62,38.57-21.44,59.91-29.57c36.59-13.9,65.89-14.88,103.82-9.65c78.76,12.92,127.39,52.28,172.3,114.73
		c84.95,118.19,46.85,279.63-76.34,355.3c-40.84,25.07-87.53,38.16-135.56,38.16C186.72,510.72,120.71,484.56,72.46,438.05z"/>
	<path class="st15" d="M134.24,376.78c-33.46-32.25-50.4-74.33-47.41-120.75c3.78-59.01,35.36-110.1,85.46-141.57
		c12.28-7.72,25.58-14.23,39.74-19.62c24.28-9.22,43.71-9.87,68.88-6.4c52.24,8.57,84.49,34.67,114.29,76.11
		c56.34,78.41,31.08,185.5-50.64,235.7c-27.09,16.63-58.07,25.31-89.92,25.31C210.05,424.98,166.26,407.63,134.24,376.78
		 M72.11,438.38C21.58,389.68-4,326.12,0.51,256.02c5.73-89.11,53.43-166.27,129.07-213.8c18.56-11.65,38.63-21.49,60.02-29.62
		c36.67-13.93,66.01-14.91,104.02-9.67c78.9,12.94,127.62,52.36,172.62,114.94c85.08,118.41,46.94,280.14-76.49,355.95
		c-40.92,25.12-87.7,38.23-135.82,38.23C186.59,511.19,120.47,484.98,72.11,438.38z"/>
	<path class="st0" d="M243.48,45.65c12.49,21.33-3.28,53.55-35.26,71.96c-31.98,18.4-68.02,16.04-80.5-5.3
		c-12.51-21.33,3.28-53.55,35.26-71.96C194.94,21.95,230.98,24.31,243.48,45.65"/>
	<path class="st0" d="M116.1,117.92c10,10.9,4.85,31.69-11.48,46.44c-16.34,14.74-37.71,17.86-47.71,6.95
		c-10-10.91-4.87-31.7,11.48-46.44C84.73,110.13,106.09,107.02,116.1,117.92"/>
	<path class="st0" d="M362.99,436.69c6.76,9.79,0.33,25.81-14.34,35.77c-14.69,9.95-32.05,10.09-38.81,0.29
		c-6.76-9.8-0.33-25.81,14.34-35.76C338.85,427.02,356.23,426.9,362.99,436.69"/>
</g>
</svg>
