<?xml version="1.0" encoding="utf-8"?>
<!-- Generator: Adobe Illustrator 23.0.3, SVG Export Plug-In . SVG Version: 6.00 Build 0)  -->
<svg version="1.1" id="Layer_1" xmlns="http://www.w3.org/2000/svg" xmlns:xlink="http://www.w3.org/1999/xlink" x="0px" y="0px"
	 viewBox="0 0 1024 1024" style="enable-background:new 0 0 1024 1024;" xml:space="preserve">
<style type="text/css">
	.st0{fill-rule:evenodd;clip-rule:evenodd;fill:url(#SVGID_1_);}
	.st1{fill-rule:evenodd;clip-rule:evenodd;fill:url(#SVGID_2_);}
	.st2{fill-rule:evenodd;clip-rule:evenodd;fill:url(#SVGID_3_);}
	.st3{fill-rule:evenodd;clip-rule:evenodd;fill:url(#SVGID_4_);}
	.st4{fill-rule:evenodd;clip-rule:evenodd;fill:url(#SVGID_5_);}
	.st5{fill-rule:evenodd;clip-rule:evenodd;fill:#973B35;}
	.st6{opacity:0.5;}
	.st7{fill-rule:evenodd;clip-rule:evenodd;fill:url(#SVGID_6_);}
	.st8{fill-rule:evenodd;clip-rule:evenodd;fill:url(#SVGID_7_);}
	.st9{fill-rule:evenodd;clip-rule:evenodd;fill:url(#SVGID_8_);}
	.st10{fill-rule:evenodd;clip-rule:evenodd;fill:url(#SVGID_9_);}
	.st11{fill-rule:evenodd;clip-rule:evenodd;fill:url(#SVGID_10_);}
	.st12{fill-rule:evenodd;clip-rule:evenodd;fill:url(#SVGID_11_);}
	.st13{fill-rule:evenodd;clip-rule:evenodd;fill:url(#SVGID_12_);}
	.st14{fill-rule:evenodd;clip-rule:evenodd;fill:url(#SVGID_13_);}
	.st15{fill-rule:evenodd;clip-rule:evenodd;fill:url(#SVGID_14_);}
	.st16{fill-rule:evenodd;clip-rule:evenodd;fill:#560E36;}
	.st17{opacity:0.31;fill-rule:evenodd;clip-rule:evenodd;fill:#B80027;}
	.st18{fill-rule:evenodd;clip-rule:evenodd;fill:#FFFFFF;}
	.st19{opacity:0.51;fill-rule:evenodd;clip-rule:evenodd;fill:#470041;}
	.st20{fill:#72251E;}
	.st21{fill-rule:evenodd;clip-rule:evenodd;fill:#680E36;}
	.st22{fill-rule:evenodd;clip-rule:evenodd;fill:#9281A7;}
	.st23{fill-rule:evenodd;clip-rule:evenodd;fill:#D9D3E0;}
	.st24{fill-rule:evenodd;clip-rule:evenodd;fill:#832563;}
	.st25{fill-rule:evenodd;clip-rule:evenodd;fill:#833E63;}
	.st26{fill-rule:evenodd;clip-rule:evenodd;fill:#681A68;}
	.st27{opacity:0.5;fill-rule:evenodd;clip-rule:evenodd;fill:#FFFFFF;}
	.st28{fill:none;}
</style>
<linearGradient id="SVGID_1_" gradientUnits="userSpaceOnUse" x1="956.5211" y1="630.1324" x2="956.5211" y2="7.0859">
	<stop  offset="0" style="stop-color:#FFCE20"/>
	<stop  offset="1" style="stop-color:#FFD600"/>
</linearGradient>
<polygon class="st0" points="935.71,630.13 941.38,630.13 977.33,7.09 970.16,12.35 "/>
<linearGradient id="SVGID_2_" gradientUnits="userSpaceOnUse" x1="54.8239" y1="636.1013" x2="54.8239" y2="44.363">
	<stop  offset="0" style="stop-color:#FFCE20"/>
	<stop  offset="1" style="stop-color:#FFD600"/>
</linearGradient>
<polygon class="st1" points="72.68,636.1 44.49,44.36 36.97,44.36 69.42,636.1 "/>
<linearGradient id="SVGID_3_" gradientUnits="userSpaceOnUse" x1="111.484" y1="649.4297" x2="111.484" y2="38.5411">
	<stop  offset="0" style="stop-color:#FF9000"/>
	<stop  offset="1" style="stop-color:#FF7C00"/>
</linearGradient>
<polygon class="st2" points="43.11,52.72 73.02,642.71 179.86,649.43 175.84,38.54 "/>
<linearGradient id="SVGID_4_" gradientUnits="userSpaceOnUse" x1="46.2147" y1="649.4297" x2="46.2147" y2="38.5411" gradientTransform="matrix(-1 0 0 1 952.6288 0)">
	<stop  offset="0" style="stop-color:#FF9000"/>
	<stop  offset="1" style="stop-color:#FF7C00"/>
</linearGradient>
<polygon class="st3" points="970.16,51.18 935.71,649.43 842.67,649.43 851.79,38.54 "/>
<linearGradient id="SVGID_5_" gradientUnits="userSpaceOnUse" x1="505.172" y1="1003.5477" x2="505.172" y2="44.363">
	<stop  offset="0" style="stop-color:#FFFC8B"/>
	<stop  offset="1" style="stop-color:#FFCC00"/>
</linearGradient>
<polygon class="st4" points="121.33,44.36 139.91,1003.55 865.14,993.14 889.02,95.09 "/>
<polygon class="st5" points="125.32,637.57 113.48,87.47 100.65,87.47 118.61,637.04 "/>
<g class="st6">
	<linearGradient id="SVGID_6_" gradientUnits="userSpaceOnUse" x1="164.6825" y1="1002.9326" x2="164.6825" y2="24.3651">
		<stop  offset="0" style="stop-color:#FF6122"/>
		<stop  offset="1" style="stop-color:#FF2F25"/>
	</linearGradient>
	<polygon class="st7" points="194.43,1002.93 147.52,1002.93 134.93,24.37 183.49,24.37 	"/>
	<linearGradient id="SVGID_7_" gradientUnits="userSpaceOnUse" x1="278.429" y1="1002.9326" x2="278.429" y2="24.3651">
		<stop  offset="0" style="stop-color:#FF6122"/>
		<stop  offset="1" style="stop-color:#FF2F25"/>
	</linearGradient>
	<polygon class="st8" points="306.22,1002.93 259.31,1002.93 250.64,24.37 299.2,24.37 	"/>
	<linearGradient id="SVGID_8_" gradientUnits="userSpaceOnUse" x1="392.1753" y1="1002.9326" x2="392.1753" y2="24.3651">
		<stop  offset="0" style="stop-color:#FF6122"/>
		<stop  offset="1" style="stop-color:#FF2F25"/>
	</linearGradient>
	<polygon class="st9" points="418,1002.93 371.09,1002.93 366.35,24.37 414.9,24.37 	"/>
	<linearGradient id="SVGID_9_" gradientUnits="userSpaceOnUse" x1="506.3332" y1="1002.9326" x2="506.3332" y2="24.3651">
		<stop  offset="0" style="stop-color:#FF6122"/>
		<stop  offset="1" style="stop-color:#FF2F25"/>
	</linearGradient>
	<polygon class="st10" points="529.79,1002.93 482.88,1002.93 482.06,24.37 530.61,24.37 	"/>
	<linearGradient id="SVGID_10_" gradientUnits="userSpaceOnUse" x1="620.4911" y1="1002.9326" x2="620.4911" y2="24.3651">
		<stop  offset="0" style="stop-color:#FF6122"/>
		<stop  offset="1" style="stop-color:#FF2F25"/>
	</linearGradient>
	<polygon class="st11" points="641.57,1002.93 594.66,1002.93 597.76,24.37 646.32,24.37 	"/>
	<linearGradient id="SVGID_11_" gradientUnits="userSpaceOnUse" x1="734.2375" y1="1002.9326" x2="734.2375" y2="24.3651">
		<stop  offset="0" style="stop-color:#FF6122"/>
		<stop  offset="1" style="stop-color:#FF2F25"/>
	</linearGradient>
	<polygon class="st12" points="753.36,1002.93 706.45,1002.93 713.47,24.37 762.03,24.37 	"/>
	<linearGradient id="SVGID_12_" gradientUnits="userSpaceOnUse" x1="847.9839" y1="1002.9326" x2="847.9839" y2="24.3651">
		<stop  offset="0" style="stop-color:#FF6122"/>
		<stop  offset="1" style="stop-color:#FF2F25"/>
	</linearGradient>
	<polygon class="st13" points="865.14,1002.93 818.23,1002.93 829.18,24.37 877.73,24.37 	"/>
	<linearGradient id="SVGID_13_" gradientUnits="userSpaceOnUse" x1="921.6346" y1="1000.2046" x2="921.6346" y2="34.6716">
		<stop  offset="0" style="stop-color:#FF6122"/>
		<stop  offset="1" style="stop-color:#FF2F25"/>
	</linearGradient>
	<polygon class="st14" points="915.83,1000.2 899.74,1000.2 926.87,34.67 943.53,34.67 	"/>
	
		<linearGradient id="SVGID_14_" gradientUnits="userSpaceOnUse" x1="274.7021" y1="1000.2046" x2="274.7021" y2="34.6716" gradientTransform="matrix(-1 0 0 1 368.6028 0)">
		<stop  offset="0" style="stop-color:#FF6122"/>
		<stop  offset="1" style="stop-color:#FF2F25"/>
	</linearGradient>
	<polygon class="st15" points="99.7,1000.2 115.79,1000.2 88.67,34.67 72.01,34.67 	"/>
</g>
<polygon class="st16" points="113.48,87.47 119.92,102.53 129.17,637.13 125.02,637.6 "/>
<polygon class="st5" points="883.63,630.13 895.46,80.03 908.29,80.03 890.34,629.61 "/>
<polygon class="st16" points="895.46,80.03 889.02,95.09 879.77,629.69 883.92,630.17 "/>
<polygon class="st17" points="960.63,216.53 888.03,362.54 119.7,383.81 52.75,242.86 44.49,80.03 964.69,71.77 "/>
<path class="st18" d="M0,14.77c0,0,205.98,2.57,532.62,2.57S1024,0,1024,0L0,14.77z"/>
<polygon class="st19" points="421.14,941.52 423.73,947.73 615.6,947.73 619.13,941.52 "/>
<g>
	<polygon class="st20" points="631.41,836.92 407.51,817.49 407.61,815.39 631.5,834.82 	"/>
</g>
<g>
	<polygon class="st20" points="410.31,900.57 410.26,898.46 627.94,888.19 628,890.29 	"/>
</g>
<path class="st21" d="M416.36,760.25c0,2.75-1.63,4.99-3.65,4.99c-2.01,0-3.65-2.23-3.65-4.99c0-2.75,1.63-4.99,3.65-4.99
	C414.73,755.27,416.36,757.5,416.36,760.25z"/>
<path class="st21" d="M633.83,760.25c0,2.75-1.63,4.99-3.65,4.99c-2.01,0-3.65-2.23-3.65-4.99c0-2.75,1.63-4.99,3.65-4.99
	C632.2,755.27,633.83,757.5,633.83,760.25z"/>
<path class="st21" d="M622.78,928.79c0,2.75-1.63,4.99-3.65,4.99c-2.01,0-3.65-2.23-3.65-4.99c0-2.75,1.63-4.99,3.65-4.99
	C621.14,923.81,622.78,926.04,622.78,928.79z"/>
<path class="st21" d="M421.65,928.79c0,2.75-1.63,4.99-3.65,4.99c-2.01,0-3.65-2.23-3.65-4.99c0-2.75,1.63-4.99,3.65-4.99
	C420.02,923.81,421.65,926.04,421.65,928.79z"/>
<g>
	<polygon class="st22" points="163.37,635.33 161.13,621.79 421.14,618.11 418.93,633.71 	"/>
	<polygon class="st23" points="322.1,633.71 322.1,619.51 347.12,619.51 345.46,633.91 	"/>
	<polygon class="st23" points="348.77,633.71 352.29,619.09 357.76,619.01 351.25,633.71 	"/>
	<g>
		<polygon class="st24" points="258.56,621.04 256.47,445.75 262.63,444.37 261.71,621.04 		"/>
		<polygon class="st25" points="218.01,494.07 302.46,489.56 302.46,407.14 214.92,407.14 		"/>
		<polygon class="st26" points="302.46,407.14 305.82,407.14 304.93,488.64 302.46,489.56 		"/>
		<polygon class="st27" points="227.69,479.67 225.39,421.11 291.78,421.11 291.78,475.65 		"/>
	</g>
	<polygon class="st26" points="225.39,421.11 227.69,479.67 228.8,479.6 227.1,421.11 	"/>
</g>
<polygon class="st19" points="294.58,660.33 291.13,923.81 172.79,923.81 163.57,657.67 "/>
<polygon class="st28" points="438.35,846.44 579.71,846.44 579.71,846.44 438.35,846.44 "/>
</svg>
