<?xml version="1.0" encoding="utf-8"?>
<!-- Generator: Adobe Illustrator 23.0.3, SVG Export Plug-In . SVG Version: 6.00 Build 0)  -->
<svg version="1.1" id="Capa_1" xmlns="http://www.w3.org/2000/svg" xmlns:xlink="http://www.w3.org/1999/xlink" x="0px" y="0px"
	 viewBox="0 0 512 512" style="enable-background:new 0 0 512 512;" xml:space="preserve">
<style type="text/css">
	.st0{fill:#FFEE55;}
	.st1{fill:#FFE42A;}
</style>
<g>
	<path class="st0" d="M258,3.5C115.4,2.5,0,117.7,0,258.3v226.9c0,12.9,10.6,23.4,23.7,23.4h230c142.5,0,259.3-113.9,258.3-254.4
		C510.9,116.1,397.8,4.5,258,3.5L258,3.5z"/>
</g>
<g>
	<path class="st1" d="M469.7,116.9C426.5,288.6,271.1,415.7,86,415.7c-29.5,0-58.3-3.2-86-9.4v78.8c0,12.9,10.6,23.4,23.7,23.4h230
		c142.5,0,259.3-113.9,258.3-254.4C511.6,203.4,496.1,156.3,469.7,116.9L469.7,116.9z"/>
</g>
</svg>
