<?xml version="1.0" encoding="utf-8"?>
<!-- Generator: Adobe Illustrator 23.0.3, SVG Export Plug-In . SVG Version: 6.00 Build 0)  -->
<svg version="1.1" id="Layer_1" xmlns="http://www.w3.org/2000/svg" xmlns:xlink="http://www.w3.org/1999/xlink" x="0px" y="0px"
	 viewBox="0 0 2000 1024" style="enable-background:new 0 0 2000 1024;" xml:space="preserve">
<style type="text/css">
	.st0{fill:#EA4E2A;}
	.st1{fill:#FFB948;}
	.st2{fill:#C98727;}
	.st3{fill:#C13B25;}
	.st4{fill:#CC8F66;}
	.st5{fill:#FFEEA9;}
	.st6{fill:#FFA561;}
	.st7{fill:#FFE04A;}
	.st8{opacity:0.5;fill:#9D4000;}
	.st9{fill:#FFD2B3;}
	.st10{fill:#823027;}
	.st11{fill:#FF8ADB;}
	.st12{opacity:0.5;fill:#FFEEA9;}
</style>
<polygon class="st0" points="1833.9,676.4 84.3,675.6 109,883.2 1833.9,881.8 "/>
<polygon class="st1" points="1903.3,569.5 5,568.6 0,671.4 1888.4,670.1 "/>
<polygon class="st2" points="1667.2,570.4 1167.6,571 1253.2,670.4 1578.6,671.4 "/>
<polygon class="st2" points="1907.1,566.6 1697.4,568.7 1636.3,672 1907.1,665.4 "/>
<g>
	<polygon class="st3" points="1823.4,670.1 76.8,665.1 96.6,774.1 1833.3,882 	"/>
</g>
<g>
	<polygon class="st3" points="1819.4,856.8 105.6,856 109.6,883 141.4,881.3 147.8,896.5 1807.5,898.8 	"/>
</g>
<polygon class="st4" points="1605.9,570.9 1506.4,503.5 1450.6,542.8 1253.5,567.4 "/>
<polygon class="st5" points="1182.6,564 1409.9,779.4 1641.7,564.2 "/>
<path class="st6" d="M1791.9,532.1c-182.7,53.9-17,347,148.6,360.3C2061.8,785.6,1974.5,478.2,1791.9,532.1z"/>
<path class="st7" d="M115.6,595c6,0,605.1,5.3,605.1,5.3l-408.1,18.3L115.6,595z"/>
<polygon class="st7" points="816.3,642.5 1049.2,625.7 1154.7,640.9 "/>
<path class="st0" d="M178.3,755c0-7.9-8.5-14.3-18.9-14.3c-10.4,0-18.9,6.4-18.9,14.3c0,7.9,8.5,14.3,18.9,14.3
	C169.8,769.3,178.3,762.9,178.3,755z"/>
<path class="st0" d="M1732.9,786c0-7.9-8.5-14.3-18.9-14.3c-10.4,0-18.9,6.4-18.9,14.3c0,7.9,8.5,14.3,18.9,14.3
	C1724.4,800.3,1732.8,793.9,1732.9,786z"/>
<polygon class="st8" points="1503,563.6 1355.7,671.3 1391.5,693.2 1584.6,562 "/>
<polygon class="st8" points="1421.4,565.3 1309.9,617.4 1345.7,639.3 1461.2,565.3 "/>
<polygon class="st8" points="1220.4,563.5 1286,610.7 1383.6,561.9 "/>
<path class="st9" d="M1750.5,727.6c0,0-27.9,62.3-4,168.4c11.9,53.9,37.8,92.6,5.9,128c0,0,65.7-16.8,14-119.6
	C1766.3,904.4,1738.5,756.2,1750.5,727.6z"/>
<g>
	<path class="st9" d="M1855.5,527.7c-19.6-3.4-40.9-2.3-63.6,4.4c-141.7,41.8-73.8,227.4,41,314.8c11.9,3.7,23.9,6.3,35.9,7.3
		C1953.8,779.4,1936.3,606.2,1855.5,527.7z"/>
</g>
<path class="st10" d="M1861.1,691.6c-5.7-13.9-16.4-23.4-24.1-21.2c-7.6,2.2-9.2,15.3-3.6,29.3c5.7,13.9,16.4,23.4,24,21.2
	C1865.2,718.7,1866.8,705.6,1861.1,691.6z"/>
<path class="st10" d="M1955.6,651.6c-5.1-12.8-15-21.5-22-19.5c-7,2-8.5,14.1-3.4,26.9c5.1,12.8,15,21.5,22,19.5
	C1959.2,676.4,1960.8,664.4,1955.6,651.6z"/>
<path class="st10" d="M1982.7,741.2c-19.9,14.1-89.1,27.5-141.5,28.2c-4.9,0.1-9.4,2.5-11.5,6.2c-2.1,3.7-1.5,8.2,1.5,11.5l1.4,1.5
	c25,26.9,66,39.3,105.5,31.9c25.6-4.8,41.3-15.6,45.9-34.2L1982.7,741.2z"/>
<path class="st11" d="M1950.9,506c-5.3,0-10.2,0.9-15,2.2c-2.1-21.3-23-38.1-48.7-38.1c-24.1,0-44,14.7-48.2,34.1
	c-0.6,0-1.2-0.1-1.8-0.2c-4.2-19.3-24.2-34-48.2-34c-27.1,0-49.1,18.6-49.1,41.5c0,7.1,2.3,13.7,6,19.6c-10,1-19,4.5-26.2,9.8
	c-6.7-2.9-14.2-4.7-22.3-4.7c-27.1,0-49.1,18.6-49.1,41.5c0,10.7,4.9,20.3,12.7,27.7c-20.4,5.1-35.3,20.8-35.3,39.7
	c0,9.2,3.7,17.7,9.7,24.6c-2.8,5.2-4.4,10.9-4.4,17c0,19.8,16.4,36.3,38.2,40.5c-4,6-6.4,12.8-6.4,20.2c0,22.9,22,41.5,49.1,41.6
	c27.1,0,49.1-18.6,49.1-41.5c0-6.3-1.8-12.2-4.7-17.5c18.3-6,31.3-21,31.3-38.6c0-16-10.8-29.7-26.5-36.7c1.5-4,2.6-8.3,2.6-12.7
	c0-0.4-0.1-0.8-0.2-1.3c11.3-7.6,18.7-19.2,18.8-32.4c0-1.2-0.3-2.2-0.4-3.4c10.5-7,17.5-17.4,18.6-29.3c8.8,7,20.5,11.4,33.6,11.4
	c4.2,0,8.3-0.6,12.2-1.4c7.3,3.7,15.8,6,24.9,6c17.1,0,32.1-7.4,40.9-18.5c9,9.9,22.9,16.3,38.7,16.3c27.1,0,49.1-18.6,49.1-41.5
	C2000,524.6,1978,506,1950.9,506z"/>
<g>
	<path class="st8" d="M1992.6,569.2c4.6-6.3,7.4-13.7,7.4-21.6c0-22.9-22-41.5-49.1-41.6c-5.3,0-10.2,0.9-15,2.2
		c-14.5-53.6-87.8-46.6-96.9-4.1c-0.6,0-1.2-0.1-1.8-0.2c-1.9-8.6-7-16.2-14.2-22.1c-4.7,6.4-7.5,13.8-7.5,21.8
		c0,7.1,2.3,13.7,6,19.6c-10,1-19,4.5-26.2,9.8c-6.7-2.9-14.2-4.7-22.3-4.7c-27.1,0-49.1,18.6-49.1,41.5c0,10.7,4.9,20.3,12.7,27.7
		c-20.4,5.1-35.3,20.8-35.3,39.7c0,9.2,3.7,17.7,9.7,24.6c-2.8,5.2-4.4,10.9-4.4,17c0,19.8,16.4,36.3,38.2,40.5
		c-4,6-6.4,12.8-6.4,20.2c0,11.7,5.8,22.2,15,29.8c4.7-6.4,7.6-13.9,7.6-21.9c0-6.3-1.8-12.2-4.7-17.5c18.3-6,31.3-21,31.3-38.6
		c0-16-10.8-29.7-26.5-36.7c1.5-4,2.6-8.3,2.6-12.7c0-0.4-0.1-0.8-0.2-1.3c11.3-7.6,18.7-19.2,18.8-32.4c0-1.2-0.3-2.2-0.4-3.4
		c10.5-7,17.5-17.4,18.6-29.3c8.8,7,20.5,11.4,33.6,11.4c4.2,0,8.3-0.6,12.2-1.4c5.6,2.8,11.9,4.8,18.6,5.6
		c21,0.4,24.9-1.3,41.3-12.2c2.1-1.9,4.3-3.7,6-5.9C1913.9,574.7,1954.2,611.5,1992.6,569.2z"/>
</g>
<path class="st0" d="M1985.3,719.3c0-22.9-22-41.5-49.1-41.6c-27.1,0-49.1,18.6-49.1,41.5c0,22.9,22,41.5,49.1,41.6
	C1963.3,760.8,1985.3,742.3,1985.3,719.3z"/>
<path class="st12" d="M1960.2,718.2c0-18-14.9-32.6-33.2-32.6c-18.3,0-33.2,14.6-33.2,32.5c0,18,14.9,32.6,33.2,32.6
	C1945.3,750.7,1960.1,736.2,1960.2,718.2z"/>
<path class="st9" d="M1972.1,753.8c-15.4,10.9-68.9,21.3-109.6,21.9c-3.8,0.1-7.2,1.9-8.9,4.8c-1.6,2.9-1.2,6.3,1.2,8.9l1.1,1.2
	c19.3,20.9,51.1,30.5,81.7,24.7c19.8-3.7,31.9-12.1,35.5-26.4L1972.1,753.8z"/>
<polygon class="st10" points="1828.1,636.4 1803.8,624.9 1772.3,672.4 1796.6,683.9 "/>
<polygon class="st10" points="1965.7,623.8 1976.7,602.1 1917.5,580.7 1906.6,602.4 "/>
</svg>
