<?xml version="1.0" encoding="utf-8"?>
<!-- Generator: Adobe Illustrator 23.0.3, SVG Export Plug-In . SVG Version: 6.00 Build 0)  -->
<svg version="1.1" id="Layer_1" xmlns="http://www.w3.org/2000/svg" xmlns:xlink="http://www.w3.org/1999/xlink" x="0px" y="0px"
	 viewBox="0 0 512 512" style="enable-background:new 0 0 512 512;" xml:space="preserve">
<style type="text/css">
	.st0{fill-rule:evenodd;clip-rule:evenodd;fill:#FFFFFF;}
	.st1{fill-rule:evenodd;clip-rule:evenodd;fill:#018A00;}
	.st2{fill-rule:evenodd;clip-rule:evenodd;fill:#058D00;}
	.st3{fill-rule:evenodd;clip-rule:evenodd;fill:#089001;}
	.st4{fill-rule:evenodd;clip-rule:evenodd;fill:#0C9301;}
	.st5{fill-rule:evenodd;clip-rule:evenodd;fill:#0F9602;}
	.st6{fill-rule:evenodd;clip-rule:evenodd;fill:#139902;}
	.st7{fill-rule:evenodd;clip-rule:evenodd;fill:#169C03;}
	.st8{fill-rule:evenodd;clip-rule:evenodd;fill:#1A9F03;}
	.st9{fill-rule:evenodd;clip-rule:evenodd;fill:#1DA204;}
	.st10{fill-rule:evenodd;clip-rule:evenodd;fill:#21A504;}
	.st11{fill-rule:evenodd;clip-rule:evenodd;fill:#24A805;}
	.st12{fill-rule:evenodd;clip-rule:evenodd;fill:#28AB05;}
	.st13{fill:none;stroke:#048E00;stroke-width:1.0279;stroke-miterlimit:22.9256;}
	.st14{fill-rule:evenodd;clip-rule:evenodd;fill:#E6E6E6;}
	.st15{opacity:0.5;fill-rule:evenodd;clip-rule:evenodd;fill:#FFFFFF;}
</style>
<g>
	<path class="st0" d="M93.89,411.21C50.35,368.9,28.33,313.7,32.2,252.81c4.95-77.41,46.02-144.43,111.17-185.73
		c15.99-10.11,33.28-18.66,51.7-25.73c31.57-12.1,56.85-12.95,89.59-8.39c67.97,11.24,109.93,45.49,148.68,99.84
		c73.28,102.85,40.42,243.34-65.89,309.18c-35.23,21.82-75.53,33.21-116.97,33.21C192.49,474.44,135.53,451.68,93.89,411.21
		 M87.53,417.56c-45.29-44-68.19-101.42-64.16-164.75C28.51,172.29,71.23,102.59,139,59.63c16.64-10.52,34.62-19.4,53.77-26.76
		c32.85-12.59,59.14-13.46,93.19-8.73c70.7,11.7,114.33,47.31,154.65,103.85c76.24,106.98,42.05,253.11-68.51,321.6
		c-36.67,22.69-78.57,34.54-121.68,34.54C190.08,483.35,130.84,459.66,87.53,417.56z"/>
	<path class="st1" d="M124.22,380.8c-20.15-19.6-35.18-43.6-43.57-70.48c-13.92-44.54-5.04-100.18,18.28-139.97
		c24.57-42.41,61.68-71.02,107.05-88.43c25.49-9.78,45.97-10.47,72.4-6.78c54.95,9.09,88.8,36.74,120.16,80.68
		c20.86,29.29,31.06,60.77,31.97,96.93c0,99.39-80.59,179.76-179.74,179.76C203.9,431.91,157.86,413.51,124.22,380.8"/>
	<path class="st2" d="M130.83,381.37c-19.12-18.43-33.36-41.01-41.33-66.3c-13.19-41.91-4.31-95.89,17.35-131.67
		c22.56-38.36,58.99-64.2,102.99-80.07c25.91-8.92,47.37-9.76,71.93-6.94c51.01,7.18,81.96,35.32,110.5,76.41
		c18.96,28.2,27.44,58.24,27,92.15c-1.29,91.38-76.32,165.07-168.4,165.07C206.39,429.45,162.74,412.13,130.83,381.37"/>
	<path class="st3" d="M137.43,381.94c-18.06-17.27-31.55-38.43-39.07-62.13c-12.48-39.26-3.59-91.61,16.4-123.37
		c20.56-34.3,56.28-57.4,98.91-71.71c26.36-8.06,48.78-9.06,71.47-7.11c47.06,5.28,75.1,33.91,100.82,72.15
		c17.06,27.11,23.84,55.71,22.02,87.35c-2.56,83.37-72.04,150.4-157.06,150.4C208.88,426.99,167.61,410.77,137.43,381.94"/>
	<path class="st4" d="M144.04,382.51c-17.03-16.11-29.73-35.85-36.82-57.95c-11.76-36.62-2.87-87.32,15.45-115.07
		c18.55-30.25,53.58-50.59,94.85-63.34c26.79-7.2,50.18-8.35,70.99-7.28c43.13,3.37,68.26,32.49,91.16,67.88
		c15.18,26.02,20.22,53.17,17.05,82.56c-3.85,75.37-67.76,135.72-145.71,135.72C211.38,424.53,172.49,409.4,144.04,382.51"/>
	<path class="st5" d="M150.66,383.07c-16-14.95-27.93-33.26-34.58-53.77c-11.04-33.98-2.14-83.05,14.51-106.78
		c16.53-26.19,50.87-43.77,90.77-54.97c27.24-6.34,51.6-7.65,70.53-7.46c39.2,1.46,61.4,31.08,81.5,63.61
		c13.27,24.93,16.6,50.65,12.06,77.78c-5.12,67.36-63.47,121.04-134.36,121.04C213.88,422.07,177.35,408.03,150.66,383.07"/>
	<path class="st6" d="M157.25,383.64c-14.95-13.78-26.1-30.67-32.33-49.59c-10.31-31.34-1.41-78.77,13.58-98.48
		c14.53-22.14,48.17-36.96,86.69-46.61c27.69-5.48,53.01-6.93,70.07-7.62c35.26-0.45,54.56,29.66,71.84,59.34
		c11.37,23.84,12.98,48.11,7.07,72.99c-6.4,59.35-59.19,106.36-123,106.36C216.38,419.61,182.23,406.66,157.25,383.64"/>
	<path class="st7" d="M163.87,384.21c-13.92-12.63-24.3-28.09-30.08-45.42c-9.61-28.7-0.69-74.49,12.63-90.18
		c12.52-18.08,45.46-30.15,82.62-38.24c28.12-4.62,54.41-6.23,69.6-7.79c31.33-2.36,47.7,28.23,62.16,55.07
		c9.49,22.75,9.38,45.59,2.11,68.19c-7.68,51.35-54.91,91.69-111.67,91.69C218.87,417.15,187.09,405.29,163.87,384.21"/>
	<path class="st8" d="M170.47,384.78c-12.86-11.46-22.47-25.51-27.82-41.24c-8.89-26.06,0.03-70.22,11.68-81.89
		c10.52-14.03,42.77-23.34,78.54-29.87c28.55-3.77,55.83-5.52,69.14-7.97c27.4-4.26,40.84,26.82,52.5,50.81
		c7.59,21.65,5.76,43.05-2.87,63.4c-8.96,43.34-50.63,77.02-100.32,77.02C221.37,414.68,191.97,403.92,170.47,384.78"/>
	<path class="st9" d="M177.08,385.35c-11.83-10.3-20.65-22.92-25.58-37.06c-8.17-23.42,0.76-65.94,10.73-73.6
		c8.52-9.97,40.07-16.53,74.49-21.51c28.98-2.9,57.23-4.81,68.66-8.13c23.46-6.17,34,25.4,42.84,46.53
		c5.69,20.56,2.14,40.52-7.85,58.62c-10.23,35.34-46.35,62.34-88.98,62.34C223.86,412.23,196.84,402.55,177.08,385.35"/>
	<path class="st10" d="M183.69,385.93c-10.8-9.15-18.85-20.34-23.34-32.89c-7.45-20.77,1.48-61.65,9.8-65.3
		c6.5-5.92,37.36-9.72,70.41-13.15c29.42-2.05,58.62-4.11,68.2-8.3c19.51-8.08,27.13,23.99,33.16,42.27
		c3.79,19.47-1.48,37.99-12.83,53.82c-11.5,27.33-42.06,47.65-77.62,47.65C226.37,409.76,201.7,401.18,183.69,385.93"/>
	<path class="st11" d="M190.29,386.49c-9.74-7.98-17.02-17.76-21.09-28.71c-6.73-18.13,2.21-57.37,8.85-57
		c4.5-1.86,34.66-2.91,66.35-4.78c29.87-1.18,60.04-3.39,67.74-8.47c15.58-9.99,20.27,22.57,23.48,38
		c1.9,18.39-5.1,35.46-17.81,49.04c-12.79,19.32-37.78,32.98-66.28,32.98C228.86,407.3,206.58,399.8,190.29,386.49"/>
	<path class="st12" d="M196.91,387.07c-8.71-6.82-15.22-15.17-18.84-24.53c-6.02-15.5,2.93-53.09,7.9-48.7
		c4.99,4.39,117.9,6.84,129.55-5.05c11.64-11.9,13.43,21.15,13.82,33.73c0,34.58-34.85,62.55-77.72,62.55
		C231.35,404.84,211.45,398.44,196.91,387.07"/>
	<path class="st12" d="M138.27,259.3C62.55,300.39,87.17,84.83,250.83,85.38c177.76,0.58,186.5,204.04,120.2,173.92
		C321.4,236.76,190.77,230.81,138.27,259.3"/>
	<path class="st12" d="M250.85,381.64C180.64,380.73,116.1,340.95,88,275.97c-6.56-15.15-8.94-30.09-9.58-46.47
		c-10.04,63.16,7.95,117.61,57.25,159.37c33.01,27.97,72.09,41.65,115.19,42.2c98.48,0,178.31-79.82,178.31-178.31
		c-0.07-8.6-0.54-16.15-1.72-24.69C414.25,317.35,340.97,380.47,250.85,381.64"/>
	<path class="st13" d="M337.17,183.72c8.35,9.6,17.29,18.71,25.06,28.79c4.96,6.43,2.7,10.35-2.63,15.19L237.71,338.17
		c-8.78,7.95-20.83,6.36-28.36-1.63l-66.89-70.9c-3.42-3.62-4.26-6.99,0.03-11.74l25.83-28.71c4.05-4.49,8.93-3.61,13.2,0.52
		l40.59,39.5c4.31,4.19,6.83,5.07,11.75,0.48c28.77-26.84,57.54-53.68,86.32-80.51C326.46,179.29,332.53,178.39,337.17,183.72z"/>
	<path class="st1" d="M337.16,183.66c8.35,9.6,17.29,18.71,25.07,28.79c4.95,6.43,2.7,10.35-2.64,15.19L237.7,338.1
		c-8.78,7.95-20.83,6.36-28.36-1.63l-66.89-70.9c-3.42-3.62-4.24-6.99,0.03-11.74l25.84-28.7c4.04-4.49,8.93-3.62,13.2,0.52
		l40.57,39.49c4.32,4.19,6.84,5.07,11.76,0.49c28.77-26.84,57.52-53.68,86.31-80.52C326.46,179.22,332.51,178.32,337.16,183.66"/>
	<path class="st13" d="M337.17,165.87c8.35,9.59,17.29,18.71,25.06,28.79c4.96,6.44,2.7,10.35-2.64,15.19L237.71,320.31
		c-8.78,7.95-20.83,6.36-28.38-1.63l-66.87-70.9c-3.42-3.62-4.24-6.99,0.03-11.74l25.83-28.71c4.04-4.48,8.94-3.61,13.2,0.53
		l40.59,39.48c4.31,4.19,6.83,5.08,11.75,0.5c28.77-26.85,57.54-53.68,86.31-80.52C326.47,161.43,332.53,160.54,337.17,165.87z"/>
	<path class="st0" d="M337.16,165.8c8.35,9.6,17.29,18.71,25.07,28.8c4.95,6.43,2.7,10.35-2.64,15.18L237.7,320.25
		c-8.78,7.95-20.83,6.37-28.36-1.63l-66.89-70.9c-3.42-3.62-4.24-6.99,0.03-11.74l25.84-28.71c4.04-4.49,8.93-3.62,13.2,0.52
		l40.57,39.49c4.32,4.19,6.84,5.07,11.76,0.49c28.77-26.84,57.52-53.68,86.31-80.52C326.46,161.36,332.51,160.47,337.16,165.8"/>
	<path class="st14" d="M337.16,165.8c8.35,9.6,17.29,18.72,25.06,28.8c4.96,6.43,2.71,10.35-2.63,15.18L237.7,320.25
		c-3.54,3.2-7.6,4.86-11.7,5.17v-75.1c2.37,1.14,4.58,0.5,7.85-2.55c28.76-26.85,57.52-53.68,86.31-80.52
		C326.46,161.36,332.51,160.47,337.16,165.8"/>
	<path class="st15" d="M239.31,92.86c29.41,32.05,18.63,89.78-24.04,128.95c-42.69,39.16-101.13,44.92-130.54,12.86
		c-20.57-22.42-26.1-104.03-33.89,18.14c-3.55,55.74,16.6,106.26,56.47,145c38.11,37.04,90.24,57.88,143.33,58.56
		c34.23,0,67.62-8.48,97.51-24.82c-8.32-0.36-15.84-3.4-21.19-9.24c-13.19-14.36-8.36-40.23,10.77-57.78
		c19.12-17.55,45.31-20.13,58.49-5.77c7.03,7.66,8.93,18.59,6.29,29.8c60.06-66.86,70.85-167.95,15.52-245.59
		c-35.48-49.75-73.88-81.1-136.11-91.39c-29.96-4.17-53.09-3.39-82,7.68c-11.63,4.47-22.77,9.57-33.36,15.35
		C194.76,68.26,222.04,74.03,239.31,92.86 M87.83,417.26C42.64,373.34,19.76,316.02,23.8,252.81
		c5.12-80.37,47.77-149.95,115.42-192.82c16.6-10.51,34.54-19.38,53.66-26.72c32.79-12.57,59.03-13.44,93.01-8.71
		c70.57,11.67,114.13,47.23,154.37,103.65c76.09,106.78,41.97,252.65-68.41,321.01c-36.59,22.65-78.42,34.47-121.44,34.47
		C190.2,482.93,131.07,459.28,87.83,417.26z"/>
	<path class="st15" d="M143.19,361.9c-29.99-29.13-45.15-67.15-42.48-109.09c3.4-53.32,31.68-99.48,76.56-127.92
		c11.02-6.96,22.91-12.85,35.61-17.72c21.74-8.34,39.15-8.92,61.7-5.78c46.81,7.74,75.71,31.32,102.41,68.76
		c50.48,70.85,27.83,167.6-45.38,212.95c-24.27,15.03-52.02,22.88-80.56,22.88C211.09,405.45,171.86,389.78,143.19,361.9
		 M87.53,417.56c-45.29-44-68.19-101.42-64.16-164.75C28.51,172.29,71.23,102.59,139,59.63c16.64-10.52,34.62-19.4,53.77-26.76
		c32.85-12.59,59.14-13.46,93.19-8.73c70.7,11.7,114.33,47.31,154.65,103.85c76.24,106.98,42.05,253.11-68.51,321.6
		c-36.67,22.69-78.57,34.54-121.68,34.54C190.08,483.35,130.84,459.66,87.53,417.56z"/>
	<path class="st0" d="M241.06,62.72c11.19,19.28-2.95,48.39-31.6,65.02c-28.63,16.63-60.93,14.49-72.12-4.78
		c-11.19-19.28,2.95-48.39,31.59-65.02C197.57,41.31,229.86,43.45,241.06,62.72"/>
	<path class="st0" d="M126.93,128.04c8.97,9.85,4.36,28.63-10.27,41.95c-14.65,13.32-33.78,16.13-42.74,6.27
		c-8.97-9.85-4.36-28.63,10.27-41.96C98.84,120.99,117.96,118.18,126.93,128.04"/>
	<path class="st0" d="M348.11,416.04c6.06,8.85,0.31,23.32-12.85,32.31c-13.14,9-28.71,9.12-34.77,0.26
		c-6.04-8.85-0.3-23.31,12.86-32.31C326.5,407.3,342.07,407.18,348.11,416.04"/>
</g>
</svg>
