<?xml version="1.0" encoding="utf-8"?>
<!-- Generator: Adobe Illustrator 23.0.3, SVG Export Plug-In . SVG Version: 6.00 Build 0)  -->
<svg version="1.1" id="Layer_1" xmlns="http://www.w3.org/2000/svg" xmlns:xlink="http://www.w3.org/1999/xlink" x="0px" y="0px"
	 viewBox="0 0 1500 500" style="enable-background:new 0 0 1500 500;" xml:space="preserve">
<style type="text/css">
	.st0{fill:#CD1116;}
	.st1{fill:#7E1308;}
	.st2{fill:#B91818;}
	.st3{fill:#C61B1D;}
	.st4{fill:#E30D1A;}
	.st5{opacity:0.5;fill:#7E1308;}
</style>
<g>
	<g>
		<path class="st0" d="M184.1,134H-0.2v0c0,1.4,0,2.7-0.1,4c0,0,0,0,0,0c0,0.7-0.1,1.3-0.2,2c0,0,0,0,0,0.1
			c-0.1,0.6-0.1,1.3-0.2,1.9c0,0,0,0,0,0c0,0.4,0,0.8,0,1.1c0,0.2,0,0.4,0,0.6c0,0.9,0,1.8-0.1,2.7c0.1,1.4,0.2,2.9,0.3,4.3
			c0,0.3,0,0.7,0,1c0.2,2,0.4,4,0.5,6c0,0,0,0,0,0c0.1,1.3,0.2,2.5,0.2,3.8c0.1,3.5,0,6.9-0.4,10.3C-0.1,178-0.4,184-1,189.9
			C14.4,230.7,48,259,87.1,259c53.6,0,97.1-53.3,97.1-119C184.3,138,184.2,136,184.1,134z"/>
		<g>
			<path class="st1" d="M1,134c3,55,40.4,98.5,86.1,98.5s83.1-43.5,86.1-98.5H1z"/>
			<path class="st2" d="M0.8,134c5.4,51.7,42,91.8,86.3,91.8c44.3,0,80.9-40,86.3-91.8H0.8z"/>
		</g>
		<g>
			<path class="st1" d="M24.7,134c2.5,39.6,29.5,70.8,62.4,70.8s59.9-31.2,62.4-70.8H24.7z"/>
			<path class="st3" d="M24.6,134c4.2,36.1,30.6,63.9,62.6,63.9c32,0,58.4-27.8,62.5-63.9H24.6z"/>
		</g>
		<g>
			<path class="st1" d="M46.8,134c2,25.1,19.3,44.8,40.3,44.8s38.3-19.7,40.3-44.8H46.8z"/>
			<path class="st0" d="M46.8,134c3,22.9,19.9,40.4,40.3,40.4s37.3-17.5,40.3-40.4H46.8z"/>
		</g>
		<g>
			<path class="st4" d="M87.7,243.6c-41,0-75.7-32.8-87.5-78c0,1-0.1,2-0.1,3c10.9,46.6,45.9,80.7,87.6,80.7
				c47,0,85.7-43.4,90.6-99.2C171.1,203.2,133.3,243.6,87.7,243.6z"/>
		</g>
	</g>
	<g>
		<path class="st0" d="M315,134c-0.1,2-0.1,4-0.1,6c0,65.7,43.5,119,97.1,119c53.6,0,97.1-53.3,97.1-119c0-2,0-4-0.1-6H315z"/>
		<g>
			<path class="st1" d="M325.9,134c3,55,40.4,98.5,86.1,98.5c45.7,0,83.1-43.5,86.1-98.5H325.9z"/>
			<path class="st2" d="M325.7,134c5.4,51.7,42,91.8,86.3,91.8c44.3,0,80.9-40,86.3-91.8H325.7z"/>
		</g>
		<g>
			<path class="st1" d="M349.6,134c2.5,39.6,29.5,70.8,62.4,70.8c33,0,59.9-31.2,62.4-70.8H349.6z"/>
			<path class="st3" d="M349.5,134c4.2,36.1,30.6,63.9,62.5,63.9c32,0,58.4-27.8,62.6-63.9H349.5z"/>
		</g>
		<g>
			<path class="st1" d="M371.7,134c2,25.1,19.3,44.8,40.3,44.8c21,0,38.3-19.7,40.3-44.8H371.7z"/>
			<path class="st0" d="M371.7,134c3,22.9,19.9,40.4,40.3,40.4c20.4,0,37.3-17.5,40.3-40.4H371.7z"/>
		</g>
		<g>
			<path class="st4" d="M412.6,243.6c-45.6,0-83.4-40.5-90.6-93.5c4.9,55.7,43.6,99.1,90.6,99.1c47,0,85.7-43.4,90.6-99.2
				C496,203.2,458.2,243.6,412.6,243.6z"/>
		</g>
	</g>
	<g>
		<path class="st0" d="M639.9,134c-0.1,2-0.1,4-0.1,6c0,65.7,43.5,119,97.1,119c53.6,0,97.1-53.3,97.1-119c0-2,0-4-0.1-6H639.9z"/>
		<g>
			<path class="st1" d="M650.8,134c3.1,55,40.4,98.5,86.1,98.5c45.7,0,83.1-43.5,86.1-98.5H650.8z"/>
			<path class="st2" d="M650.6,134c5.4,51.7,42,91.8,86.3,91.8c44.3,0,80.9-40,86.3-91.8H650.6z"/>
		</g>
		<g>
			<path class="st1" d="M674.4,134c2.5,39.6,29.5,70.8,62.4,70.8c33,0,59.9-31.2,62.4-70.8H674.4z"/>
			<path class="st3" d="M674.3,134c4.2,36.1,30.6,63.9,62.5,63.9c32,0,58.4-27.8,62.5-63.9H674.3z"/>
		</g>
		<g>
			<path class="st1" d="M696.6,134c2,25.1,19.3,44.8,40.3,44.8c21,0,38.3-19.7,40.3-44.8H696.6z"/>
			<path class="st0" d="M696.6,134c3,22.9,19.9,40.4,40.3,40.4c20.4,0,37.3-17.5,40.3-40.4H696.6z"/>
		</g>
		<g>
			<path class="st4" d="M737.4,243.6c-45.6,0-83.4-40.5-90.6-93.5c4.9,55.7,43.6,99.1,90.6,99.1c47,0,85.7-43.4,90.6-99.2
				C820.8,203.2,783,243.6,737.4,243.6z"/>
		</g>
	</g>
	<path class="st5" d="M161.1,217c14.4-20.8,23.1-47.7,23.1-77.1c0-2,0-4-0.1-6h-43.7C141,167.8,148.8,193.2,161.1,217z"/>
	<path class="st5" d="M484.3,219.4c15.4-21.1,24.8-48.9,24.8-79.4c0-2,0-4-0.1-6h-44.1C463.8,163.8,470.6,196,484.3,219.4z"/>
	<path class="st5" d="M351.9,189.3c5.2-17.5,8.5-36.3,8.8-55.3H315c-0.1,2-0.1,4-0.1,6c0,30.5,9.4,58.3,24.7,79.3
		C344.7,210,348.7,199.8,351.9,189.3z"/>
	<path class="st5" d="M674.3,189.7c5.7-17.5,9.7-36.5,10.8-55.7h-45.2c-0.1,2-0.1,4-0.1,6c0,29.3,8.7,56.1,23,76.9
		C667.4,208.4,671.2,199.1,674.3,189.7z"/>
	<g>
		<path class="st0" d="M152.6,134c-0.1,2-0.1,4-0.1,6c0,65.7,43.5,119,97.1,119c53.6,0,97.1-53.3,97.1-119c0-2,0-4-0.1-6H152.6z"/>
		<g>
			<path class="st1" d="M163.5,134c3,55,40.4,98.5,86.1,98.5c45.7,0,83.1-43.5,86.1-98.5H163.5z"/>
			<path class="st2" d="M163.3,134c5.4,51.7,42,91.8,86.3,91.8s80.9-40,86.3-91.8H163.3z"/>
		</g>
		<g>
			<path class="st1" d="M187.1,134c2.5,39.6,29.5,70.8,62.4,70.8c33,0,59.9-31.2,62.4-70.8H187.1z"/>
			<path class="st3" d="M187,134c4.2,36.1,30.6,63.9,62.5,63.9c32,0,58.4-27.8,62.5-63.9H187z"/>
		</g>
		<g>
			<path class="st1" d="M209.3,134c2,25.1,19.3,44.8,40.3,44.8c21,0,38.3-19.7,40.3-44.8H209.3z"/>
			<path class="st0" d="M209.3,134c3,22.9,19.9,40.4,40.3,40.4c20.4,0,37.3-17.5,40.3-40.4H209.3z"/>
		</g>
		<g>
			<path class="st4" d="M250.1,243.6c-45.6,0-83.4-40.5-90.6-93.5c4.9,55.7,43.6,99.1,90.6,99.1c47.1,0,85.7-43.4,90.6-99.2
				C333.5,203.2,295.7,243.6,250.1,243.6z"/>
		</g>
	</g>
	<g>
		<path class="st0" d="M477.4,134c-0.1,2-0.1,4-0.1,6c0,65.7,43.5,119,97.1,119c53.6,0,97.1-53.3,97.1-119c0-2,0-4-0.1-6H477.4z"/>
		<g>
			<path class="st1" d="M488.3,134c3,55,40.4,98.5,86.1,98.5c45.7,0,83.1-43.5,86.1-98.5H488.3z"/>
			<path class="st2" d="M488.1,134c5.4,51.7,42,91.8,86.3,91.8s80.9-40,86.3-91.8H488.1z"/>
		</g>
		<g>
			<path class="st1" d="M512,134c2.5,39.6,29.5,70.8,62.4,70.8c33,0,59.9-31.2,62.4-70.8H512z"/>
			<path class="st3" d="M511.9,134c4.2,36.1,30.6,63.9,62.6,63.9c32,0,58.4-27.8,62.5-63.9H511.9z"/>
		</g>
		<g>
			<path class="st1" d="M534.1,134c2,25.1,19.3,44.8,40.3,44.8c21,0,38.3-19.7,40.3-44.8H534.1z"/>
			<path class="st0" d="M534.1,134c3,22.9,19.9,40.4,40.3,40.4s37.3-17.5,40.3-40.4H534.1z"/>
		</g>
		<g>
			<path class="st4" d="M575,243.6c-45.6,0-83.4-40.5-90.6-93.5c4.9,55.7,43.6,99.1,90.6,99.1c47,0,85.7-43.4,90.6-99.2
				C658.4,203.2,620.6,243.6,575,243.6z"/>
		</g>
	</g>
</g>
<g>
	<g>
		<path class="st0" d="M660.1,149c-0.1,2-0.1,4-0.1,6c0,65.7,43.5,119,97.1,119c53.6,0,97.1-53.3,97.1-119c0-2,0-4-0.1-6H660.1z"/>
		<g>
			<path class="st1" d="M671,149c3,55,40.4,98.5,86.1,98.5c45.7,0,83.1-43.5,86.1-98.5H671z"/>
			<path class="st2" d="M670.8,149c5.4,51.7,42,91.8,86.3,91.8c44.3,0,80.9-40,86.3-91.8H670.8z"/>
		</g>
		<g>
			<path class="st1" d="M694.7,149c2.5,39.6,29.5,70.8,62.4,70.8c33,0,59.9-31.2,62.4-70.8H694.7z"/>
			<path class="st3" d="M694.6,149c4.2,36.1,30.6,63.9,62.6,63.9c32,0,58.4-27.8,62.5-63.9H694.6z"/>
		</g>
		<g>
			<path class="st1" d="M716.8,149c2,25.1,19.3,44.8,40.3,44.8c21,0,38.3-19.7,40.3-44.8H716.8z"/>
			<path class="st0" d="M716.8,149c3,22.9,19.9,40.4,40.3,40.4c20.4,0,37.3-17.5,40.3-40.4H716.8z"/>
		</g>
		<g>
			<path class="st4" d="M757.7,258.6c-45.6,0-83.4-40.5-90.6-93.5c4.9,55.7,43.6,99.1,90.6,99.1c47,0,85.7-43.4,90.6-99.2
				C841.1,218.2,803.3,258.6,757.7,258.6z"/>
		</g>
	</g>
	<g>
		<path class="st0" d="M985,149c-0.1,2-0.1,4-0.1,6c0,65.7,43.5,119,97.1,119c53.6,0,97.1-53.3,97.1-119c0-2,0-4-0.1-6H985z"/>
		<g>
			<path class="st1" d="M995.9,149c3,55,40.4,98.5,86.1,98.5c45.7,0,83.1-43.5,86.1-98.5H995.9z"/>
			<path class="st2" d="M995.7,149c5.4,51.7,42,91.8,86.3,91.8c44.3,0,80.9-40,86.3-91.8H995.7z"/>
		</g>
		<g>
			<path class="st1" d="M1019.6,149c2.5,39.6,29.5,70.8,62.4,70.8c33,0,59.9-31.2,62.4-70.8H1019.6z"/>
			<path class="st3" d="M1019.5,149c4.2,36.1,30.6,63.9,62.5,63.9c32,0,58.4-27.8,62.6-63.9H1019.5z"/>
		</g>
		<g>
			<path class="st1" d="M1041.7,149c2,25.1,19.3,44.8,40.3,44.8c21,0,38.3-19.7,40.3-44.8H1041.7z"/>
			<path class="st0" d="M1041.7,149c3,22.9,19.9,40.4,40.3,40.4c20.4,0,37.3-17.5,40.3-40.4H1041.7z"/>
		</g>
		<g>
			<path class="st4" d="M1082.6,258.6c-45.6,0-83.4-40.5-90.6-93.5c4.9,55.7,43.6,99.1,90.6,99.1c47,0,85.7-43.4,90.6-99.2
				C1166,218.2,1128.2,258.6,1082.6,258.6z"/>
		</g>
	</g>
	<g>
		<path class="st0" d="M1500.2,179.2c-0.1-2.6,0-5.2,0.2-7.8c-0.1-1.1-0.2-2.1-0.2-3.2c-0.1-2.1-0.1-4.2,0.1-6.2
			c-0.1-1.4-0.2-2.9-0.3-4.3c-0.1-2.8,0-5.5,0.2-8.2c0-0.1,0-0.3,0-0.4h-190.2c-0.1,2-0.1,4-0.1,6c0,65.7,43.5,119,97.1,119
			c44.5,0,82-36.7,93.5-86.8c-0.1-1.1-0.2-2.2-0.2-3.2C1500.1,182.3,1500.1,180.8,1500.2,179.2z"/>
		<g>
			<path class="st1" d="M1320.8,149c3.1,55,40.4,98.5,86.1,98.5c45.7,0,83.1-43.5,86.1-98.5H1320.8z"/>
			<path class="st2" d="M1320.6,149c5.4,51.7,42,91.8,86.3,91.8c44.3,0,80.9-40,86.3-91.8H1320.6z"/>
		</g>
		<g>
			<path class="st1" d="M1344.4,149c2.5,39.6,29.5,70.8,62.4,70.8c33,0,59.9-31.2,62.4-70.8H1344.4z"/>
			<path class="st3" d="M1344.3,149c4.2,36.1,30.6,63.9,62.5,63.9c32,0,58.4-27.8,62.5-63.9H1344.3z"/>
		</g>
		<g>
			<path class="st1" d="M1366.6,149c2,25.1,19.3,44.8,40.3,44.8c21,0,38.3-19.7,40.3-44.8H1366.6z"/>
			<path class="st0" d="M1366.6,149c3,22.9,19.9,40.4,40.3,40.4c20.4,0,37.3-17.5,40.3-40.4H1366.6z"/>
		</g>
		<g>
			<path class="st4" d="M1407.4,258.6c-45.6,0-83.4-40.5-90.6-93.5c4.9,55.7,43.6,99.1,90.6,99.1c47,0,85.7-43.4,90.6-99.2
				C1490.8,218.2,1453,258.6,1407.4,258.6z"/>
		</g>
	</g>
	<path class="st5" d="M831.1,232c14.4-20.8,23.1-47.7,23.1-77.1c0-2,0-4-0.1-6h-43.7C811,182.8,818.8,208.2,831.1,232z"/>
	<path class="st5" d="M1154.3,234.4c15.4-21.1,24.8-48.9,24.8-79.4c0-2,0-4-0.1-6h-44.1C1133.8,178.8,1140.6,211,1154.3,234.4z"/>
	<path class="st5" d="M1021.9,204.3c5.2-17.5,8.5-36.3,8.8-55.3H985c-0.1,2-0.1,4-0.1,6c0,30.5,9.4,58.3,24.7,79.3
		C1014.7,225,1018.7,214.8,1021.9,204.3z"/>
	<path class="st5" d="M1344.3,204.7c5.7-17.5,9.7-36.5,10.8-55.7h-45.2c-0.1,2-0.1,4-0.1,6c0,29.3,8.7,56.1,23,76.9
		C1337.4,223.4,1341.2,214.1,1344.3,204.7z"/>
	<g>
		<path class="st0" d="M822.6,149c-0.1,2-0.1,4-0.1,6c0,65.7,43.5,119,97.1,119c53.6,0,97.1-53.3,97.1-119c0-2,0-4-0.1-6H822.6z"/>
		<g>
			<path class="st1" d="M833.5,149c3,55,40.4,98.5,86.1,98.5c45.7,0,83.1-43.5,86.1-98.5H833.5z"/>
			<path class="st2" d="M833.3,149c5.4,51.7,42,91.8,86.3,91.8s80.9-40,86.3-91.8H833.3z"/>
		</g>
		<g>
			<path class="st1" d="M857.1,149c2.5,39.6,29.5,70.8,62.4,70.8c33,0,59.9-31.2,62.4-70.8H857.1z"/>
			<path class="st3" d="M857,149c4.2,36.1,30.6,63.9,62.5,63.9c32,0,58.4-27.8,62.5-63.9H857z"/>
		</g>
		<g>
			<path class="st1" d="M879.3,149c2,25.1,19.3,44.8,40.3,44.8c21,0,38.3-19.7,40.3-44.8H879.3z"/>
			<path class="st0" d="M879.3,149c3,22.9,19.9,40.4,40.3,40.4c20.4,0,37.3-17.5,40.3-40.4H879.3z"/>
		</g>
		<g>
			<path class="st4" d="M920.1,258.6c-45.6,0-83.4-40.5-90.6-93.5c4.9,55.7,43.6,99.1,90.6,99.1c47.1,0,85.7-43.4,90.6-99.2
				C1003.5,218.2,965.7,258.6,920.1,258.6z"/>
		</g>
	</g>
	<g>
		<path class="st0" d="M1147.4,149c-0.1,2-0.1,4-0.1,6c0,65.7,43.5,119,97.1,119c53.6,0,97.1-53.3,97.1-119c0-2,0-4-0.1-6H1147.4z"
			/>
		<g>
			<path class="st1" d="M1158.3,149c3,55,40.4,98.5,86.1,98.5c45.7,0,83.1-43.5,86.1-98.5H1158.3z"/>
			<path class="st2" d="M1158.1,149c5.4,51.7,42,91.8,86.3,91.8c44.3,0,80.9-40,86.3-91.8H1158.1z"/>
		</g>
		<g>
			<path class="st1" d="M1182,149c2.5,39.6,29.5,70.8,62.4,70.8c33,0,59.9-31.2,62.4-70.8H1182z"/>
			<path class="st3" d="M1181.9,149c4.2,36.1,30.6,63.9,62.6,63.9c32,0,58.4-27.8,62.5-63.9H1181.9z"/>
		</g>
		<g>
			<path class="st1" d="M1204.1,149c2,25.1,19.3,44.8,40.3,44.8s38.3-19.7,40.3-44.8H1204.1z"/>
			<path class="st0" d="M1204.1,149c3,22.9,19.9,40.4,40.3,40.4s37.3-17.5,40.3-40.4H1204.1z"/>
		</g>
		<g>
			<path class="st4" d="M1245,258.6c-45.6,0-83.4-40.5-90.6-93.5c4.9,55.7,43.6,99.1,90.6,99.1c47,0,85.7-43.4,90.6-99.2
				C1328.4,218.2,1290.6,258.6,1245,258.6z"/>
		</g>
	</g>
</g>
<g>
	<g>
		<path class="st0" d="M190.1,98H-0.7c0,3-0.2,5.9-0.6,8.8c0.3,2.4,0.5,4.9,0.6,7.3c0.1,3,0,5.9-0.3,8.8c0,0.1,0,0.1,0,0.2
			c0,0.4,0.1,0.8,0.1,1.2c0.1,0.8,0.2,1.7,0.2,2.5c0,0.4,0.1,0.7,0.1,1.1c0.1,1.2,0.2,2.4,0.2,3.5c0,0.8,0,1.7,0,2.5
			c0,0.1,0,0.2,0,0.2c0,0.8,0,1.6-0.1,2.4v0c11.6,49.8,49,86.3,93.4,86.3c53.6,0,97.1-53.3,97.1-119C190.3,102,190.2,100,190.1,98z"
			/>
		<g>
			<path class="st1" d="M7,98c3,55,40.4,98.5,86.1,98.5S176.2,153,179.2,98H7z"/>
			<path class="st2" d="M6.8,98c5.4,51.7,42,91.8,86.3,91.8c44.3,0,80.9-40,86.3-91.8H6.8z"/>
		</g>
		<g>
			<path class="st1" d="M30.7,98c2.5,39.6,29.5,70.8,62.4,70.8s59.9-31.2,62.4-70.8H30.7z"/>
			<path class="st3" d="M30.6,98c4.2,36.1,30.6,63.9,62.6,63.9c32,0,58.4-27.8,62.5-63.9H30.6z"/>
		</g>
		<g>
			<path class="st1" d="M52.8,98c2,25.1,19.3,44.8,40.3,44.8s38.3-19.7,40.3-44.8H52.8z"/>
			<path class="st0" d="M52.8,98c3,22.9,19.9,40.4,40.3,40.4s37.3-17.5,40.3-40.4H52.8z"/>
		</g>
		<g>
			<path class="st4" d="M93.7,207.6c-45.6,0-83.4-40.5-90.6-93.5c4.9,55.7,43.6,99.1,90.6,99.1s85.7-43.4,90.6-99.2
				C177.1,167.2,139.3,207.6,93.7,207.6z"/>
		</g>
	</g>
	<g>
		<path class="st0" d="M321,98c-0.1,2-0.1,4-0.1,6c0,65.7,43.5,119,97.1,119c53.6,0,97.1-53.3,97.1-119c0-2,0-4-0.1-6H321z"/>
		<g>
			<path class="st1" d="M331.9,98c3,55,40.4,98.5,86.1,98.5c45.7,0,83.1-43.5,86.1-98.5H331.9z"/>
			<path class="st2" d="M331.7,98c5.4,51.7,42,91.8,86.3,91.8c44.3,0,80.9-40,86.3-91.8H331.7z"/>
		</g>
		<g>
			<path class="st1" d="M355.6,98c2.5,39.6,29.5,70.8,62.4,70.8c33,0,59.9-31.2,62.4-70.8H355.6z"/>
			<path class="st3" d="M355.5,98c4.2,36.1,30.6,63.9,62.5,63.9c32,0,58.4-27.8,62.6-63.9H355.5z"/>
		</g>
		<g>
			<path class="st1" d="M377.7,98c2,25.1,19.3,44.8,40.3,44.8c21,0,38.3-19.7,40.3-44.8H377.7z"/>
			<path class="st0" d="M377.7,98c3,22.9,19.9,40.4,40.3,40.4c20.4,0,37.3-17.5,40.3-40.4H377.7z"/>
		</g>
		<g>
			<path class="st4" d="M418.6,207.6c-45.6,0-83.4-40.5-90.6-93.5c4.9,55.7,43.6,99.1,90.6,99.1c47,0,85.7-43.4,90.6-99.2
				C502,167.2,464.2,207.6,418.6,207.6z"/>
		</g>
	</g>
	<g>
		<path class="st0" d="M645.9,98c-0.1,2-0.1,4-0.1,6c0,65.7,43.5,119,97.1,119c53.6,0,97.1-53.3,97.1-119c0-2,0-4-0.1-6H645.9z"/>
		<g>
			<path class="st1" d="M656.8,98c3.1,55,40.4,98.5,86.1,98.5c45.7,0,83.1-43.5,86.1-98.5H656.8z"/>
			<path class="st2" d="M656.6,98c5.4,51.7,42,91.8,86.3,91.8c44.3,0,80.9-40,86.3-91.8H656.6z"/>
		</g>
		<g>
			<path class="st1" d="M680.4,98c2.5,39.6,29.5,70.8,62.4,70.8c33,0,59.9-31.2,62.4-70.8H680.4z"/>
			<path class="st3" d="M680.3,98c4.2,36.1,30.6,63.9,62.5,63.9c32,0,58.4-27.8,62.5-63.9H680.3z"/>
		</g>
		<g>
			<path class="st1" d="M702.6,98c2,25.1,19.3,44.8,40.3,44.8c21,0,38.3-19.7,40.3-44.8H702.6z"/>
			<path class="st0" d="M702.6,98c3,22.9,19.9,40.4,40.3,40.4c20.4,0,37.3-17.5,40.3-40.4H702.6z"/>
		</g>
		<g>
			<path class="st4" d="M743.4,207.6c-45.6,0-83.4-40.5-90.6-93.5c4.9,55.7,43.6,99.1,90.6,99.1c47,0,85.7-43.4,90.6-99.2
				C826.8,167.2,789,207.6,743.4,207.6z"/>
		</g>
	</g>
	<path class="st5" d="M167.1,181c14.4-20.8,23.1-47.7,23.1-77.1c0-2,0-4-0.1-6h-43.7C147,131.8,154.8,157.2,167.1,181z"/>
	<path class="st5" d="M490.3,183.4c15.4-21.1,24.8-48.9,24.8-79.4c0-2,0-4-0.1-6h-44.1C469.8,127.8,476.6,160,490.3,183.4z"/>
	<path class="st5" d="M357.9,153.3c5.2-17.5,8.5-36.3,8.8-55.3H321c-0.1,2-0.1,4-0.1,6c0,30.5,9.4,58.3,24.7,79.3
		C350.7,174,354.7,163.8,357.9,153.3z"/>
	<path class="st5" d="M680.3,153.7C686,136.2,690,117.2,691,98h-45.2c-0.1,2-0.1,4-0.1,6c0,29.3,8.7,56.1,23,76.9
		C673.4,172.4,677.2,163.1,680.3,153.7z"/>
	<g>
		<path class="st0" d="M158.6,98c-0.1,2-0.1,4-0.1,6c0,65.7,43.5,119,97.1,119c53.6,0,97.1-53.3,97.1-119c0-2,0-4-0.1-6H158.6z"/>
		<g>
			<path class="st1" d="M169.5,98c3,55,40.4,98.5,86.1,98.5c45.7,0,83.1-43.5,86.1-98.5H169.5z"/>
			<path class="st2" d="M169.3,98c5.4,51.7,42,91.8,86.3,91.8s80.9-40,86.3-91.8H169.3z"/>
		</g>
		<g>
			<path class="st1" d="M193.1,98c2.5,39.6,29.5,70.8,62.4,70.8c33,0,59.9-31.2,62.4-70.8H193.1z"/>
			<path class="st3" d="M193,98c4.2,36.1,30.6,63.9,62.5,63.9c32,0,58.4-27.8,62.5-63.9H193z"/>
		</g>
		<g>
			<path class="st1" d="M215.3,98c2,25.1,19.3,44.8,40.3,44.8c21,0,38.3-19.7,40.3-44.8H215.3z"/>
			<path class="st0" d="M215.3,98c3,22.9,19.9,40.4,40.3,40.4c20.4,0,37.3-17.5,40.3-40.4H215.3z"/>
		</g>
		<g>
			<path class="st4" d="M256.1,207.6c-45.6,0-83.4-40.5-90.6-93.5c4.9,55.7,43.6,99.1,90.6,99.1c47.1,0,85.7-43.4,90.6-99.2
				C339.5,167.2,301.7,207.6,256.1,207.6z"/>
		</g>
	</g>
	<g>
		<path class="st0" d="M483.4,98c-0.1,2-0.1,4-0.1,6c0,65.7,43.5,119,97.1,119c53.6,0,97.1-53.3,97.1-119c0-2,0-4-0.1-6H483.4z"/>
		<g>
			<path class="st1" d="M494.3,98c3,55,40.4,98.5,86.1,98.5c45.7,0,83.1-43.5,86.1-98.5H494.3z"/>
			<path class="st2" d="M494.1,98c5.4,51.7,42,91.8,86.3,91.8s80.9-40,86.3-91.8H494.1z"/>
		</g>
		<g>
			<path class="st1" d="M518,98c2.5,39.6,29.5,70.8,62.4,70.8c33,0,59.9-31.2,62.4-70.8H518z"/>
			<path class="st3" d="M517.9,98c4.2,36.1,30.6,63.9,62.6,63.9c32,0,58.4-27.8,62.5-63.9H517.9z"/>
		</g>
		<g>
			<path class="st1" d="M540.1,98c2,25.1,19.3,44.8,40.3,44.8c21,0,38.3-19.7,40.3-44.8H540.1z"/>
			<path class="st0" d="M540.1,98c3,22.9,19.9,40.4,40.3,40.4s37.3-17.5,40.3-40.4H540.1z"/>
		</g>
		<g>
			<path class="st4" d="M581,207.6c-45.6,0-83.4-40.5-90.6-93.5c4.9,55.7,43.6,99.1,90.6,99.1c47,0,85.7-43.4,90.6-99.2
				C664.4,167.2,626.6,207.6,581,207.6z"/>
		</g>
	</g>
</g>
<g>
	<g>
		<path class="st0" d="M668.1,98c-0.1,2-0.1,4-0.1,6c0,65.7,43.5,119,97.1,119c53.6,0,97.1-53.3,97.1-119c0-2,0-4-0.1-6H668.1z"/>
		<g>
			<path class="st1" d="M679,98c3,55,40.4,98.5,86.1,98.5c45.7,0,83.1-43.5,86.1-98.5H679z"/>
			<path class="st2" d="M678.8,98c5.4,51.7,42,91.8,86.3,91.8c44.3,0,80.9-40,86.3-91.8H678.8z"/>
		</g>
		<g>
			<path class="st1" d="M702.7,98c2.5,39.6,29.5,70.8,62.4,70.8c33,0,59.9-31.2,62.4-70.8H702.7z"/>
			<path class="st3" d="M702.6,98c4.2,36.1,30.6,63.9,62.6,63.9c32,0,58.4-27.8,62.5-63.9H702.6z"/>
		</g>
		<g>
			<path class="st1" d="M724.8,98c2,25.1,19.3,44.8,40.3,44.8c21,0,38.3-19.7,40.3-44.8H724.8z"/>
			<path class="st0" d="M724.8,98c3,22.9,19.9,40.4,40.3,40.4c20.4,0,37.3-17.5,40.3-40.4H724.8z"/>
		</g>
		<g>
			<path class="st4" d="M765.7,207.6c-45.6,0-83.4-40.5-90.6-93.5c4.9,55.7,43.6,99.1,90.6,99.1c47,0,85.7-43.4,90.6-99.2
				C849.1,167.2,811.3,207.6,765.7,207.6z"/>
		</g>
	</g>
	<g>
		<path class="st0" d="M993,98c-0.1,2-0.1,4-0.1,6c0,65.7,43.5,119,97.1,119c53.6,0,97.1-53.3,97.1-119c0-2,0-4-0.1-6H993z"/>
		<g>
			<path class="st1" d="M1003.9,98c3,55,40.4,98.5,86.1,98.5c45.7,0,83.1-43.5,86.1-98.5H1003.9z"/>
			<path class="st2" d="M1003.7,98c5.4,51.7,42,91.8,86.3,91.8c44.3,0,80.9-40,86.3-91.8H1003.7z"/>
		</g>
		<g>
			<path class="st1" d="M1027.6,98c2.5,39.6,29.5,70.8,62.4,70.8c33,0,59.9-31.2,62.4-70.8H1027.6z"/>
			<path class="st3" d="M1027.5,98c4.2,36.1,30.6,63.9,62.5,63.9c32,0,58.4-27.8,62.6-63.9H1027.5z"/>
		</g>
		<g>
			<path class="st1" d="M1049.7,98c2,25.1,19.3,44.8,40.3,44.8c21,0,38.3-19.7,40.3-44.8H1049.7z"/>
			<path class="st0" d="M1049.7,98c3,22.9,19.9,40.4,40.3,40.4c20.4,0,37.3-17.5,40.3-40.4H1049.7z"/>
		</g>
		<g>
			<path class="st4" d="M1090.6,207.6c-45.6,0-83.4-40.5-90.6-93.5c4.9,55.7,43.6,99.1,90.6,99.1c47,0,85.7-43.4,90.6-99.2
				C1174,167.2,1136.2,207.6,1090.6,207.6z"/>
		</g>
	</g>
	<g>
		<path class="st0" d="M1500.3,143.8c0-0.6-0.1-1.2-0.1-1.8c-0.1-2.1-0.1-4.1,0-6.1c0-0.2,0-0.5,0-0.7c-0.1-2.1-0.1-4.2,0.1-6.3
			c-0.1-1.5-0.2-3-0.3-4.5c-0.1-2.8,0-5.6,0.2-8.3c-0.1-1.2-0.2-2.4-0.2-3.7c-0.1-3.2,0-6.3,0.3-9.3c0-0.5-0.1-1-0.1-1.5
			c0-1.2-0.1-2.3,0-3.5c0,0,0-0.1,0-0.1h-182.2c-0.1,2-0.1,4-0.1,6c0,65.7,43.5,119,97.1,119c36.8,0,68.8-25.1,85.3-62.1
			c-0.1-1.1-0.2-2.2-0.2-3.3c-0.1-2.7,0-5.4,0.2-8.1C1500.1,147.6,1500.2,145.7,1500.3,143.8z"/>
		<g>
			<path class="st1" d="M1500.2,101.6c0-1.2-0.1-2.3,0-3.5c0,0,0-0.1,0-0.1h-171.4c3.1,55,40.4,98.5,86.1,98.5
				c42.6,0,78-37.9,85-87.6c0-2,0.2-3.9,0.4-5.8C1500.2,102.6,1500.2,102.1,1500.2,101.6z"/>
			<path class="st2" d="M1500.2,101.6c0-1.2-0.1-2.3,0-3.5c0,0,0-0.1,0-0.1h-171.5c5.4,51.7,42,91.8,86.3,91.8
				c41.9,0,76.8-35.7,85.1-83.3c0.1-1.1,0.2-2.3,0.3-3.4C1500.2,102.6,1500.2,102.1,1500.2,101.6z"/>
		</g>
		<g>
			<path class="st1" d="M1352.4,98c2.5,39.6,29.5,70.8,62.4,70.8c33,0,59.9-31.2,62.4-70.8H1352.4z"/>
			<path class="st3" d="M1352.3,98c4.2,36.1,30.6,63.9,62.5,63.9c32,0,58.4-27.8,62.5-63.9H1352.3z"/>
		</g>
		<g>
			<path class="st1" d="M1374.6,98c2,25.1,19.3,44.8,40.3,44.8c21,0,38.3-19.7,40.3-44.8H1374.6z"/>
			<path class="st0" d="M1374.6,98c3,22.9,19.9,40.4,40.3,40.4c20.4,0,37.3-17.5,40.3-40.4H1374.6z"/>
		</g>
		<g>
			<path class="st4" d="M1500.2,142.1c0-1,0-2,0-3.1c-13.9,40.3-46.5,68.6-84.7,68.6c-45.6,0-83.4-40.5-90.6-93.5
				c4.9,55.7,43.6,99.1,90.6,99.1c38.5,0,71.4-29.2,84.8-70.4C1500.2,142.6,1500.2,142.3,1500.2,142.1z"/>
		</g>
	</g>
	<path class="st5" d="M839.1,181c14.4-20.8,23.1-47.7,23.1-77.1c0-2,0-4-0.1-6h-43.7C819,131.8,826.8,157.2,839.1,181z"/>
	<path class="st5" d="M1162.3,183.4c15.4-21.1,24.8-48.9,24.8-79.4c0-2,0-4-0.1-6h-44.1C1141.8,127.8,1148.6,160,1162.3,183.4z"/>
	<path class="st5" d="M1029.9,153.3c5.2-17.5,8.5-36.3,8.8-55.3H993c-0.1,2-0.1,4-0.1,6c0,30.5,9.4,58.3,24.7,79.3
		C1022.7,174,1026.7,163.8,1029.9,153.3z"/>
	<path class="st5" d="M1352.3,153.7c5.7-17.5,9.7-36.5,10.8-55.7h-45.2c-0.1,2-0.1,4-0.1,6c0,29.3,8.7,56.1,23,76.9
		C1345.4,172.4,1349.2,163.1,1352.3,153.7z"/>
	<g>
		<path class="st0" d="M830.6,98c-0.1,2-0.1,4-0.1,6c0,65.7,43.5,119,97.1,119c53.6,0,97.1-53.3,97.1-119c0-2,0-4-0.1-6H830.6z"/>
		<g>
			<path class="st1" d="M841.5,98c3,55,40.4,98.5,86.1,98.5c45.7,0,83.1-43.5,86.1-98.5H841.5z"/>
			<path class="st2" d="M841.3,98c5.4,51.7,42,91.8,86.3,91.8s80.9-40,86.3-91.8H841.3z"/>
		</g>
		<g>
			<path class="st1" d="M865.1,98c2.5,39.6,29.5,70.8,62.4,70.8c33,0,59.9-31.2,62.4-70.8H865.1z"/>
			<path class="st3" d="M865,98c4.2,36.1,30.6,63.9,62.5,63.9c32,0,58.4-27.8,62.5-63.9H865z"/>
		</g>
		<g>
			<path class="st1" d="M887.3,98c2,25.1,19.3,44.8,40.3,44.8c21,0,38.3-19.7,40.3-44.8H887.3z"/>
			<path class="st0" d="M887.3,98c3,22.9,19.9,40.4,40.3,40.4c20.4,0,37.3-17.5,40.3-40.4H887.3z"/>
		</g>
		<g>
			<path class="st4" d="M928.1,207.6c-45.6,0-83.4-40.5-90.6-93.5c4.9,55.7,43.6,99.1,90.6,99.1c47.1,0,85.7-43.4,90.6-99.2
				C1011.5,167.2,973.7,207.6,928.1,207.6z"/>
		</g>
	</g>
	<g>
		<path class="st0" d="M1155.4,98c-0.1,2-0.1,4-0.1,6c0,65.7,43.5,119,97.1,119c53.6,0,97.1-53.3,97.1-119c0-2,0-4-0.1-6H1155.4z"/>
		<g>
			<path class="st1" d="M1166.3,98c3,55,40.4,98.5,86.1,98.5c45.7,0,83.1-43.5,86.1-98.5H1166.3z"/>
			<path class="st2" d="M1166.1,98c5.4,51.7,42,91.8,86.3,91.8c44.3,0,80.9-40,86.3-91.8H1166.1z"/>
		</g>
		<g>
			<path class="st1" d="M1190,98c2.5,39.6,29.5,70.8,62.4,70.8c33,0,59.9-31.2,62.4-70.8H1190z"/>
			<path class="st3" d="M1189.9,98c4.2,36.1,30.6,63.9,62.6,63.9c32,0,58.4-27.8,62.5-63.9H1189.9z"/>
		</g>
		<g>
			<path class="st1" d="M1212.1,98c2,25.1,19.3,44.8,40.3,44.8s38.3-19.7,40.3-44.8H1212.1z"/>
			<path class="st0" d="M1212.1,98c3,22.9,19.9,40.4,40.3,40.4s37.3-17.5,40.3-40.4H1212.1z"/>
		</g>
		<g>
			<path class="st4" d="M1253,207.6c-45.6,0-83.4-40.5-90.6-93.5c4.9,55.7,43.6,99.1,90.6,99.1c47,0,85.7-43.4,90.6-99.2
				C1336.4,167.2,1298.6,207.6,1253,207.6z"/>
		</g>
	</g>
</g>
<g>
	<g>
		<path class="st0" d="M183.1,54H-0.7c0,1.2,0,2.3,0,3.5c0.2,1.9,0.4,3.8,0.4,5.8c0.2,4.2-0.1,8.4-0.7,12.4c0.1,1.2,0.2,2.4,0.2,3.6
			c0.1,3.5,0,6.9-0.4,10.3c0.2,1.9,0.3,3.8,0.4,5.7c0.1,3.9-0.1,7.8-0.6,11.6c0.2,2.1,0.4,4.2,0.5,6.3C15.1,152.2,48.1,179,86.1,179
			c53.6,0,97.1-53.3,97.1-119C183.3,58,183.2,56,183.1,54z"/>
		<g>
			<path class="st1" d="M0,54c3,55,40.4,98.5,86.1,98.5S169.2,109,172.2,54H0z"/>
			<path class="st2" d="M-0.2,54c5.4,51.7,42,91.8,86.3,91.8c44.3,0,80.9-40,86.3-91.8H-0.2z"/>
		</g>
		<g>
			<path class="st1" d="M23.7,54c2.5,39.6,29.5,70.8,62.4,70.8s59.9-31.2,62.4-70.8H23.7z"/>
			<path class="st3" d="M23.6,54c4.2,36.1,30.6,63.9,62.6,63.9c32,0,58.4-27.8,62.5-63.9H23.6z"/>
		</g>
		<g>
			<path class="st1" d="M45.8,54c2,25.1,19.3,44.8,40.3,44.8s38.3-19.7,40.3-44.8H45.8z"/>
			<path class="st0" d="M45.8,54c3,22.9,19.9,40.4,40.3,40.4s37.3-17.5,40.3-40.4H45.8z"/>
		</g>
		<g>
			<path class="st4" d="M86.7,163.6c-41,0-75.7-32.7-87.5-77.9c-0.1,0.9-0.1,1.7-0.2,2.5c10.8,46.7,45.9,81,87.7,81
				c47,0,85.7-43.4,90.6-99.2C170.1,123.2,132.3,163.6,86.7,163.6z"/>
		</g>
	</g>
	<g>
		<path class="st0" d="M314,54c-0.1,2-0.1,4-0.1,6c0,65.7,43.5,119,97.1,119c53.6,0,97.1-53.3,97.1-119c0-2,0-4-0.1-6H314z"/>
		<g>
			<path class="st1" d="M324.9,54c3,55,40.4,98.5,86.1,98.5c45.7,0,83.1-43.5,86.1-98.5H324.9z"/>
			<path class="st2" d="M324.7,54c5.4,51.7,42,91.8,86.3,91.8c44.3,0,80.9-40,86.3-91.8H324.7z"/>
		</g>
		<g>
			<path class="st1" d="M348.6,54c2.5,39.6,29.5,70.8,62.4,70.8c33,0,59.9-31.2,62.4-70.8H348.6z"/>
			<path class="st3" d="M348.5,54c4.2,36.1,30.6,63.9,62.5,63.9c32,0,58.4-27.8,62.6-63.9H348.5z"/>
		</g>
		<g>
			<path class="st1" d="M370.7,54c2,25.1,19.3,44.8,40.3,44.8c21,0,38.3-19.7,40.3-44.8H370.7z"/>
			<path class="st0" d="M370.7,54c3,22.9,19.9,40.4,40.3,40.4c20.4,0,37.3-17.5,40.3-40.4H370.7z"/>
		</g>
		<g>
			<path class="st4" d="M411.6,163.6c-45.6,0-83.4-40.5-90.6-93.5c4.9,55.7,43.6,99.1,90.6,99.1c47,0,85.7-43.4,90.6-99.2
				C495,123.2,457.2,163.6,411.6,163.6z"/>
		</g>
	</g>
	<g>
		<path class="st0" d="M638.9,54c-0.1,2-0.1,4-0.1,6c0,65.7,43.5,119,97.1,119c53.6,0,97.1-53.3,97.1-119c0-2,0-4-0.1-6H638.9z"/>
		<g>
			<path class="st1" d="M649.8,54c3.1,55,40.4,98.5,86.1,98.5c45.7,0,83.1-43.5,86.1-98.5H649.8z"/>
			<path class="st2" d="M649.6,54c5.4,51.7,42,91.8,86.3,91.8c44.3,0,80.9-40,86.3-91.8H649.6z"/>
		</g>
		<g>
			<path class="st1" d="M673.4,54c2.5,39.6,29.5,70.8,62.4,70.8c33,0,59.9-31.2,62.4-70.8H673.4z"/>
			<path class="st3" d="M673.3,54c4.2,36.1,30.6,63.9,62.5,63.9c32,0,58.4-27.8,62.5-63.9H673.3z"/>
		</g>
		<g>
			<path class="st1" d="M695.6,54c2,25.1,19.3,44.8,40.3,44.8c21,0,38.3-19.7,40.3-44.8H695.6z"/>
			<path class="st0" d="M695.6,54c3,22.9,19.9,40.4,40.3,40.4c20.4,0,37.3-17.5,40.3-40.4H695.6z"/>
		</g>
		<g>
			<path class="st4" d="M736.4,163.6c-45.6,0-83.4-40.5-90.6-93.5c4.9,55.7,43.6,99.1,90.6,99.1c47,0,85.7-43.4,90.6-99.2
				C819.8,123.2,782,163.6,736.4,163.6z"/>
		</g>
	</g>
	<path class="st5" d="M160.1,137c14.4-20.8,23.1-47.7,23.1-77.1c0-2,0-4-0.1-6h-43.7C140,87.8,147.8,113.2,160.1,137z"/>
	<path class="st5" d="M483.3,139.4c15.4-21.1,24.8-48.9,24.8-79.4c0-2,0-4-0.1-6h-44.1C462.8,83.8,469.6,116,483.3,139.4z"/>
	<path class="st5" d="M350.9,109.3c5.2-17.5,8.5-36.3,8.8-55.3H314c-0.1,2-0.1,4-0.1,6c0,30.5,9.4,58.3,24.7,79.3
		C343.7,130,347.7,119.8,350.9,109.3z"/>
	<path class="st5" d="M673.3,109.7C679,92.2,683,73.2,684,54h-45.2c-0.1,2-0.1,4-0.1,6c0,29.3,8.7,56.1,23,76.9
		C666.4,128.4,670.2,119.1,673.3,109.7z"/>
	<g>
		<path class="st0" d="M151.6,54c-0.1,2-0.1,4-0.1,6c0,65.7,43.5,119,97.1,119c53.6,0,97.1-53.3,97.1-119c0-2,0-4-0.1-6H151.6z"/>
		<g>
			<path class="st1" d="M162.5,54c3,55,40.4,98.5,86.1,98.5c45.7,0,83.1-43.5,86.1-98.5H162.5z"/>
			<path class="st2" d="M162.3,54c5.4,51.7,42,91.8,86.3,91.8s80.9-40,86.3-91.8H162.3z"/>
		</g>
		<g>
			<path class="st1" d="M186.1,54c2.5,39.6,29.5,70.8,62.4,70.8c33,0,59.9-31.2,62.4-70.8H186.1z"/>
			<path class="st3" d="M186,54c4.2,36.1,30.6,63.9,62.5,63.9c32,0,58.4-27.8,62.5-63.9H186z"/>
		</g>
		<g>
			<path class="st1" d="M208.3,54c2,25.1,19.3,44.8,40.3,44.8c21,0,38.3-19.7,40.3-44.8H208.3z"/>
			<path class="st0" d="M208.3,54c3,22.9,19.9,40.4,40.3,40.4c20.4,0,37.3-17.5,40.3-40.4H208.3z"/>
		</g>
		<g>
			<path class="st4" d="M249.1,163.6c-45.6,0-83.4-40.5-90.6-93.5c4.9,55.7,43.6,99.1,90.6,99.1c47.1,0,85.7-43.4,90.6-99.2
				C332.5,123.2,294.7,163.6,249.1,163.6z"/>
		</g>
	</g>
	<g>
		<path class="st0" d="M476.4,54c-0.1,2-0.1,4-0.1,6c0,65.7,43.5,119,97.1,119c53.6,0,97.1-53.3,97.1-119c0-2,0-4-0.1-6H476.4z"/>
		<g>
			<path class="st1" d="M487.3,54c3,55,40.4,98.5,86.1,98.5c45.7,0,83.1-43.5,86.1-98.5H487.3z"/>
			<path class="st2" d="M487.1,54c5.4,51.7,42,91.8,86.3,91.8s80.9-40,86.3-91.8H487.1z"/>
		</g>
		<g>
			<path class="st1" d="M511,54c2.5,39.6,29.5,70.8,62.4,70.8c33,0,59.9-31.2,62.4-70.8H511z"/>
			<path class="st3" d="M510.9,54c4.2,36.1,30.6,63.9,62.6,63.9c32,0,58.4-27.8,62.5-63.9H510.9z"/>
		</g>
		<g>
			<path class="st1" d="M533.1,54c2,25.1,19.3,44.8,40.3,44.8c21,0,38.3-19.7,40.3-44.8H533.1z"/>
			<path class="st0" d="M533.1,54c3,22.9,19.9,40.4,40.3,40.4s37.3-17.5,40.3-40.4H533.1z"/>
		</g>
		<g>
			<path class="st4" d="M574,163.6c-45.6,0-83.4-40.5-90.6-93.5c4.9,55.7,43.6,99.1,90.6,99.1c47,0,85.7-43.4,90.6-99.2
				C657.4,123.2,619.6,163.6,574,163.6z"/>
		</g>
	</g>
</g>
<g>
	<g>
		<path class="st0" d="M667.1,53c-0.1,2-0.1,4-0.1,6c0,65.7,43.5,119,97.1,119c53.6,0,97.1-53.3,97.1-119c0-2,0-4-0.1-6H667.1z"/>
		<g>
			<path class="st1" d="M678,53c3,55,40.4,98.5,86.1,98.5c45.7,0,83.1-43.5,86.1-98.5H678z"/>
			<path class="st2" d="M677.8,53c5.4,51.7,42,91.8,86.3,91.8c44.3,0,80.9-40,86.3-91.8H677.8z"/>
		</g>
		<g>
			<path class="st1" d="M701.7,53c2.5,39.6,29.5,70.8,62.4,70.8c33,0,59.9-31.2,62.4-70.8H701.7z"/>
			<path class="st3" d="M701.6,53c4.2,36.1,30.6,63.9,62.6,63.9c32,0,58.4-27.8,62.5-63.9H701.6z"/>
		</g>
		<g>
			<path class="st1" d="M723.8,53c2,25.1,19.3,44.8,40.3,44.8c21,0,38.3-19.7,40.3-44.8H723.8z"/>
			<path class="st0" d="M723.8,53c3,22.9,19.9,40.4,40.3,40.4c20.4,0,37.3-17.5,40.3-40.4H723.8z"/>
		</g>
		<g>
			<path class="st4" d="M764.7,162.6c-45.6,0-83.4-40.5-90.6-93.5c4.9,55.7,43.6,99.1,90.6,99.1c47,0,85.7-43.4,90.6-99.2
				C848.1,122.2,810.3,162.6,764.7,162.6z"/>
		</g>
	</g>
	<g>
		<path class="st0" d="M992,53c-0.1,2-0.1,4-0.1,6c0,65.7,43.5,119,97.1,119c53.6,0,97.1-53.3,97.1-119c0-2,0-4-0.1-6H992z"/>
		<g>
			<path class="st1" d="M1002.9,53c3,55,40.4,98.5,86.1,98.5c45.7,0,83.1-43.5,86.1-98.5H1002.9z"/>
			<path class="st2" d="M1002.7,53c5.4,51.7,42,91.8,86.3,91.8c44.3,0,80.9-40,86.3-91.8H1002.7z"/>
		</g>
		<g>
			<path class="st1" d="M1026.6,53c2.5,39.6,29.5,70.8,62.4,70.8c33,0,59.9-31.2,62.4-70.8H1026.6z"/>
			<path class="st3" d="M1026.5,53c4.2,36.1,30.6,63.9,62.5,63.9c32,0,58.4-27.8,62.6-63.9H1026.5z"/>
		</g>
		<g>
			<path class="st1" d="M1048.7,53c2,25.1,19.3,44.8,40.3,44.8c21,0,38.3-19.7,40.3-44.8H1048.7z"/>
			<path class="st0" d="M1048.7,53c3,22.9,19.9,40.4,40.3,40.4c20.4,0,37.3-17.5,40.3-40.4H1048.7z"/>
		</g>
		<g>
			<path class="st4" d="M1089.6,162.6c-45.6,0-83.4-40.5-90.6-93.5c4.9,55.7,43.6,99.1,90.6,99.1c47,0,85.7-43.4,90.6-99.2
				C1173,122.2,1135.2,162.6,1089.6,162.6z"/>
		</g>
	</g>
	<g>
		<path class="st0" d="M1500.3,103.1c0-0.5-0.1-1-0.1-1.5c0-1.1,0-2.3,0-3.4c-0.1-1.1-0.2-2.1-0.2-3.2c-0.1-3.1,0-6.2,0.3-9.2
			c0-0.4,0-0.7-0.1-1.1c-0.1-2.5,0-5,0.1-7.4c-0.2-1.8-0.3-3.5-0.4-5.3c-0.1-2.7,0-5.3,0.2-7.9c-0.1-0.9-0.1-1.8-0.2-2.6
			c-0.1-2.8,0-5.6,0.2-8.4h-183.3c-0.1,2-0.1,4-0.1,6c0,65.7,43.5,119,97.1,119c37.5,0,70-26,86.1-64.1c0-0.5-0.1-1-0.1-1.5
			C1499.8,109.2,1499.9,106.1,1500.3,103.1z"/>
		<g>
			<path class="st1" d="M1327.8,53c3.1,55,40.4,98.5,86.1,98.5c45.7,0,83.1-43.5,86.1-98.5H1327.8z"/>
			<path class="st2" d="M1500.1,53h-172.6c5.4,51.7,42,91.8,86.3,91.8c44.1,0,80.5-39.6,86.2-91C1500.1,53.5,1500.1,53.2,1500.1,53z
				"/>
		</g>
		<g>
			<path class="st1" d="M1351.4,53c2.5,39.6,29.5,70.8,62.4,70.8c33,0,59.9-31.2,62.4-70.8H1351.4z"/>
			<path class="st3" d="M1351.3,53c4.2,36.1,30.6,63.9,62.5,63.9c32,0,58.4-27.8,62.5-63.9H1351.3z"/>
		</g>
		<g>
			<path class="st1" d="M1373.6,53c2,25.1,19.3,44.8,40.3,44.8c21,0,38.3-19.7,40.3-44.8H1373.6z"/>
			<path class="st0" d="M1373.6,53c3,22.9,19.9,40.4,40.3,40.4c20.4,0,37.3-17.5,40.3-40.4H1373.6z"/>
		</g>
		<g>
			<path class="st4" d="M1499.9,95c0-1.1,0-2.2,0-3.3c-13.4,41.5-46.6,71-85.4,71c-45.6,0-83.4-40.5-90.6-93.5
				c4.9,55.7,43.6,99.1,90.6,99.1c39.3,0,72.7-30.3,85.5-72.8C1500,95.3,1499.9,95.2,1499.9,95z"/>
		</g>
	</g>
	<path class="st5" d="M838.1,136c14.4-20.8,23.1-47.7,23.1-77.1c0-2,0-4-0.1-6h-43.7C818,86.8,825.8,112.2,838.1,136z"/>
	<path class="st5" d="M1161.3,138.4c15.4-21.1,24.8-48.9,24.8-79.4c0-2,0-4-0.1-6h-44.1C1140.8,82.8,1147.6,115,1161.3,138.4z"/>
	<path class="st5" d="M1028.9,108.3c5.2-17.5,8.5-36.3,8.8-55.3H992c-0.1,2-0.1,4-0.1,6c0,30.5,9.4,58.3,24.7,79.3
		C1021.7,129,1025.7,118.8,1028.9,108.3z"/>
	<path class="st5" d="M1351.3,108.7c5.7-17.5,9.7-36.5,10.8-55.7h-45.2c-0.1,2-0.1,4-0.1,6c0,29.3,8.7,56.1,23,76.9
		C1344.4,127.4,1348.2,118.1,1351.3,108.7z"/>
	<g>
		<path class="st0" d="M829.6,53c-0.1,2-0.1,4-0.1,6c0,65.7,43.5,119,97.1,119c53.6,0,97.1-53.3,97.1-119c0-2,0-4-0.1-6H829.6z"/>
		<g>
			<path class="st1" d="M840.5,53c3,55,40.4,98.5,86.1,98.5c45.7,0,83.1-43.5,86.1-98.5H840.5z"/>
			<path class="st2" d="M840.3,53c5.4,51.7,42,91.8,86.3,91.8s80.9-40,86.3-91.8H840.3z"/>
		</g>
		<g>
			<path class="st1" d="M864.1,53c2.5,39.6,29.5,70.8,62.4,70.8c33,0,59.9-31.2,62.4-70.8H864.1z"/>
			<path class="st3" d="M864,53c4.2,36.1,30.6,63.9,62.5,63.9c32,0,58.4-27.8,62.5-63.9H864z"/>
		</g>
		<g>
			<path class="st1" d="M886.3,53c2,25.1,19.3,44.8,40.3,44.8c21,0,38.3-19.7,40.3-44.8H886.3z"/>
			<path class="st0" d="M886.3,53c3,22.9,19.9,40.4,40.3,40.4c20.4,0,37.3-17.5,40.3-40.4H886.3z"/>
		</g>
		<g>
			<path class="st4" d="M927.1,162.6c-45.6,0-83.4-40.5-90.6-93.5c4.9,55.7,43.6,99.1,90.6,99.1c47.1,0,85.7-43.4,90.6-99.2
				C1010.5,122.2,972.7,162.6,927.1,162.6z"/>
		</g>
	</g>
	<g>
		<path class="st0" d="M1154.4,53c-0.1,2-0.1,4-0.1,6c0,65.7,43.5,119,97.1,119c53.6,0,97.1-53.3,97.1-119c0-2,0-4-0.1-6H1154.4z"/>
		<g>
			<path class="st1" d="M1165.3,53c3,55,40.4,98.5,86.1,98.5c45.7,0,83.1-43.5,86.1-98.5H1165.3z"/>
			<path class="st2" d="M1165.1,53c5.4,51.7,42,91.8,86.3,91.8c44.3,0,80.9-40,86.3-91.8H1165.1z"/>
		</g>
		<g>
			<path class="st1" d="M1189,53c2.5,39.6,29.5,70.8,62.4,70.8c33,0,59.9-31.2,62.4-70.8H1189z"/>
			<path class="st3" d="M1188.9,53c4.2,36.1,30.6,63.9,62.6,63.9c32,0,58.4-27.8,62.5-63.9H1188.9z"/>
		</g>
		<g>
			<path class="st1" d="M1211.1,53c2,25.1,19.3,44.8,40.3,44.8s38.3-19.7,40.3-44.8H1211.1z"/>
			<path class="st0" d="M1211.1,53c3,22.9,19.9,40.4,40.3,40.4s37.3-17.5,40.3-40.4H1211.1z"/>
		</g>
		<g>
			<path class="st4" d="M1252,162.6c-45.6,0-83.4-40.5-90.6-93.5c4.9,55.7,43.6,99.1,90.6,99.1c47,0,85.7-43.4,90.6-99.2
				C1335.4,122.2,1297.6,162.6,1252,162.6z"/>
		</g>
	</g>
</g>
<g>
	<g>
		<path class="st0" d="M183.1-2H-0.8c0.2,2.1,0.4,4.3,0.5,6.4c0.1,3.6,0,7.1-0.5,10.6c0.5,3.4,0.8,6.8,0.9,10.1
			c0.1,3.9,0,7.7-0.6,11.3c0,0.5,0.1,0.9,0.1,1.4C-0.1,42-0.4,46.1-1,50.1c0.1,1.3,0.2,2.5,0.2,3.7c0,1.2,0.1,2.3,0,3.5
			c16,39,48.8,65.7,86.8,65.7c53.6,0,97.1-53.3,97.1-119C183.3,2,183.2,0,183.1-2z"/>
		<g>
			<path class="st1" d="M0-2c3,55,40.4,98.5,86.1,98.5S169.2,53,172.2-2H0z"/>
			<path class="st2" d="M-0.2-2c5.4,51.7,42,91.8,86.3,91.8c44.3,0,80.9-40,86.3-91.8H-0.2z"/>
		</g>
		<g>
			<path class="st1" d="M23.7-2c2.5,39.6,29.5,70.8,62.4,70.8S146.1,37.6,148.6-2H23.7z"/>
			<path class="st3" d="M23.6-2c4.2,36.1,30.6,63.9,62.6,63.9c32,0,58.4-27.8,62.5-63.9H23.6z"/>
		</g>
		<g>
			<path class="st1" d="M45.8-2c2,25.1,19.3,44.8,40.3,44.8S124.4,23.1,126.4-2H45.8z"/>
			<path class="st0" d="M45.8-2c3,22.9,19.9,40.4,40.3,40.4S123.4,20.9,126.4-2H45.8z"/>
		</g>
		<g>
			<path class="st4" d="M86.7,107.6c-40.1,0-74.1-31.3-86.7-74.9c-0.1,0.9-0.2,1.8-0.3,2.8c11.6,45.1,46.1,77.8,86.9,77.8
				c47,0,85.7-43.4,90.6-99.2C170.1,67.2,132.3,107.6,86.7,107.6z"/>
		</g>
	</g>
	<g>
		<path class="st0" d="M314-2c-0.1,2-0.1,4-0.1,6c0,65.7,43.5,119,97.1,119c53.6,0,97.1-53.3,97.1-119c0-2,0-4-0.1-6H314z"/>
		<g>
			<path class="st1" d="M324.9-2c3,55,40.4,98.5,86.1,98.5c45.7,0,83.1-43.5,86.1-98.5H324.9z"/>
			<path class="st2" d="M324.7-2c5.4,51.7,42,91.8,86.3,91.8c44.3,0,80.9-40,86.3-91.8H324.7z"/>
		</g>
		<g>
			<path class="st1" d="M348.6-2c2.5,39.6,29.5,70.8,62.4,70.8c33,0,59.9-31.2,62.4-70.8H348.6z"/>
			<path class="st3" d="M348.5-2c4.2,36.1,30.6,63.9,62.5,63.9c32,0,58.4-27.8,62.6-63.9H348.5z"/>
		</g>
		<g>
			<path class="st1" d="M370.7-2c2,25.1,19.3,44.8,40.3,44.8c21,0,38.3-19.7,40.3-44.8H370.7z"/>
			<path class="st0" d="M370.7-2c3,22.9,19.9,40.4,40.3,40.4c20.4,0,37.3-17.5,40.3-40.4H370.7z"/>
		</g>
		<g>
			<path class="st4" d="M411.6,107.6c-45.6,0-83.4-40.5-90.6-93.5c4.9,55.7,43.6,99.1,90.6,99.1c47,0,85.7-43.4,90.6-99.2
				C495,67.2,457.2,107.6,411.6,107.6z"/>
		</g>
	</g>
	<g>
		<path class="st0" d="M638.9-2c-0.1,2-0.1,4-0.1,6c0,65.7,43.5,119,97.1,119C789.5,123,833,69.7,833,4c0-2,0-4-0.1-6H638.9z"/>
		<g>
			<path class="st1" d="M649.8-2c3.1,55,40.4,98.5,86.1,98.5C781.6,96.5,818.9,53,822-2H649.8z"/>
			<path class="st2" d="M649.6-2c5.4,51.7,42,91.8,86.3,91.8c44.3,0,80.9-40,86.3-91.8H649.6z"/>
		</g>
		<g>
			<path class="st1" d="M673.4-2c2.5,39.6,29.5,70.8,62.4,70.8c33,0,59.9-31.2,62.4-70.8H673.4z"/>
			<path class="st3" d="M673.3-2c4.2,36.1,30.6,63.9,62.5,63.9c32,0,58.4-27.8,62.5-63.9H673.3z"/>
		</g>
		<g>
			<path class="st1" d="M695.6-2c2,25.1,19.3,44.8,40.3,44.8c21,0,38.3-19.7,40.3-44.8H695.6z"/>
			<path class="st0" d="M695.6-2c3,22.9,19.9,40.4,40.3,40.4c20.4,0,37.3-17.5,40.3-40.4H695.6z"/>
		</g>
		<g>
			<path class="st4" d="M736.4,107.6c-45.6,0-83.4-40.5-90.6-93.5c4.9,55.7,43.6,99.1,90.6,99.1c47,0,85.7-43.4,90.6-99.2
				C819.8,67.2,782,107.6,736.4,107.6z"/>
		</g>
	</g>
	<path class="st5" d="M160.1,81c14.4-20.8,23.1-47.7,23.1-77.1c0-2,0-4-0.1-6h-43.7C140,31.8,147.8,57.2,160.1,81z"/>
	<path class="st5" d="M483.3,83.4c15.4-21.1,24.8-48.9,24.8-79.4c0-2,0-4-0.1-6h-44.1C462.8,27.8,469.6,60,483.3,83.4z"/>
	<path class="st5" d="M350.9,53.3c5.2-17.5,8.5-36.3,8.8-55.3H314c-0.1,2-0.1,4-0.1,6c0,30.5,9.4,58.3,24.7,79.3
		C343.7,74,347.7,63.8,350.9,53.3z"/>
	<path class="st5" d="M673.3,53.7C679,36.2,683,17.2,684-2h-45.2c-0.1,2-0.1,4-0.1,6c0,29.3,8.7,56.1,23,76.9
		C666.4,72.4,670.2,63.1,673.3,53.7z"/>
	<g>
		<path class="st0" d="M151.6-2c-0.1,2-0.1,4-0.1,6c0,65.7,43.5,119,97.1,119c53.6,0,97.1-53.3,97.1-119c0-2,0-4-0.1-6H151.6z"/>
		<g>
			<path class="st1" d="M162.5-2c3,55,40.4,98.5,86.1,98.5c45.7,0,83.1-43.5,86.1-98.5H162.5z"/>
			<path class="st2" d="M162.3-2c5.4,51.7,42,91.8,86.3,91.8s80.9-40,86.3-91.8H162.3z"/>
		</g>
		<g>
			<path class="st1" d="M186.1-2c2.5,39.6,29.5,70.8,62.4,70.8c33,0,59.9-31.2,62.4-70.8H186.1z"/>
			<path class="st3" d="M186-2c4.2,36.1,30.6,63.9,62.5,63.9c32,0,58.4-27.8,62.5-63.9H186z"/>
		</g>
		<g>
			<path class="st1" d="M208.3-2c2,25.1,19.3,44.8,40.3,44.8c21,0,38.3-19.7,40.3-44.8H208.3z"/>
			<path class="st0" d="M208.3-2c3,22.9,19.9,40.4,40.3,40.4c20.4,0,37.3-17.5,40.3-40.4H208.3z"/>
		</g>
		<g>
			<path class="st4" d="M249.1,107.6c-45.6,0-83.4-40.5-90.6-93.5c4.9,55.7,43.6,99.1,90.6,99.1c47.1,0,85.7-43.4,90.6-99.2
				C332.5,67.2,294.7,107.6,249.1,107.6z"/>
		</g>
	</g>
	<g>
		<path class="st0" d="M476.4-2c-0.1,2-0.1,4-0.1,6c0,65.7,43.5,119,97.1,119c53.6,0,97.1-53.3,97.1-119c0-2,0-4-0.1-6H476.4z"/>
		<g>
			<path class="st1" d="M487.3-2c3,55,40.4,98.5,86.1,98.5c45.7,0,83.1-43.5,86.1-98.5H487.3z"/>
			<path class="st2" d="M487.1-2c5.4,51.7,42,91.8,86.3,91.8s80.9-40,86.3-91.8H487.1z"/>
		</g>
		<g>
			<path class="st1" d="M511-2c2.5,39.6,29.5,70.8,62.4,70.8c33,0,59.9-31.2,62.4-70.8H511z"/>
			<path class="st3" d="M510.9-2c4.2,36.1,30.6,63.9,62.6,63.9c32,0,58.4-27.8,62.5-63.9H510.9z"/>
		</g>
		<g>
			<path class="st1" d="M533.1-2c2,25.1,19.3,44.8,40.3,44.8c21,0,38.3-19.7,40.3-44.8H533.1z"/>
			<path class="st0" d="M533.1-2c3,22.9,19.9,40.4,40.3,40.4S610.7,20.9,613.7-2H533.1z"/>
		</g>
		<g>
			<path class="st4" d="M574,107.6c-45.6,0-83.4-40.5-90.6-93.5c4.9,55.7,43.6,99.1,90.6,99.1c47,0,85.7-43.4,90.6-99.2
				C657.4,67.2,619.6,107.6,574,107.6z"/>
		</g>
	</g>
</g>
<g>
	<g>
		<path class="st0" d="M669.1,0c-0.1,2-0.1,4-0.1,6c0,65.7,43.5,119,97.1,119c53.6,0,97.1-53.3,97.1-119c0-2,0-4-0.1-6H669.1z"/>
		<g>
			<path class="st1" d="M680,0c3,55,40.4,98.5,86.1,98.5c45.7,0,83.1-43.5,86.1-98.5H680z"/>
			<path class="st2" d="M679.8,0c5.4,51.7,42,91.8,86.3,91.8c44.3,0,80.9-40,86.3-91.8H679.8z"/>
		</g>
		<g>
			<path class="st1" d="M703.7,0c2.5,39.6,29.5,70.8,62.4,70.8c33,0,59.9-31.2,62.4-70.8H703.7z"/>
			<path class="st3" d="M703.6,0c4.2,36.1,30.6,63.9,62.6,63.9c32,0,58.4-27.8,62.5-63.9H703.6z"/>
		</g>
		<g>
			<path class="st1" d="M725.8,0c2,25.1,19.3,44.8,40.3,44.8c21,0,38.3-19.7,40.3-44.8H725.8z"/>
			<path class="st0" d="M725.8,0c3,22.9,19.9,40.4,40.3,40.4c20.4,0,37.3-17.5,40.3-40.4H725.8z"/>
		</g>
		<g>
			<path class="st4" d="M766.7,109.6c-45.6,0-83.4-40.5-90.6-93.5c4.9,55.7,43.6,99.1,90.6,99.1c47,0,85.7-43.4,90.6-99.2
				C850.1,69.2,812.3,109.6,766.7,109.6z"/>
		</g>
	</g>
	<g>
		<path class="st0" d="M994,0c-0.1,2-0.1,4-0.1,6c0,65.7,43.5,119,97.1,119c53.6,0,97.1-53.3,97.1-119c0-2,0-4-0.1-6H994z"/>
		<g>
			<path class="st1" d="M1004.9,0c3,55,40.4,98.5,86.1,98.5c45.7,0,83.1-43.5,86.1-98.5H1004.9z"/>
			<path class="st2" d="M1004.7,0c5.4,51.7,42,91.8,86.3,91.8c44.3,0,80.9-40,86.3-91.8H1004.7z"/>
		</g>
		<g>
			<path class="st1" d="M1028.6,0c2.5,39.6,29.5,70.8,62.4,70.8c33,0,59.9-31.2,62.4-70.8H1028.6z"/>
			<path class="st3" d="M1028.5,0c4.2,36.1,30.6,63.9,62.5,63.9c32,0,58.4-27.8,62.6-63.9H1028.5z"/>
		</g>
		<g>
			<path class="st1" d="M1050.7,0c2,25.1,19.3,44.8,40.3,44.8c21,0,38.3-19.7,40.3-44.8H1050.7z"/>
			<path class="st0" d="M1050.7,0c3,22.9,19.9,40.4,40.3,40.4c20.4,0,37.3-17.5,40.3-40.4H1050.7z"/>
		</g>
		<g>
			<path class="st4" d="M1091.6,109.6c-45.6,0-83.4-40.5-90.6-93.5c4.9,55.7,43.6,99.1,90.6,99.1c47,0,85.7-43.4,90.6-99.2
				C1175,69.2,1137.2,109.6,1091.6,109.6z"/>
		</g>
	</g>
	<g>
		<path class="st0" d="M1499.9,48.2c-0.1-1.6-0.1-3.2,0-4.7c-0.1-2.6,0-5.1,0.2-7.6c-0.1-1.1-0.2-2.3-0.2-3.4
			c-0.1-3.4,0-6.7,0.4-9.9c-0.1-0.8-0.1-1.5-0.1-2.3c-0.1-3.3,0-6.6,0.4-9.8c-0.2-1.7-0.3-3.5-0.4-5.2c-0.1-1.7-0.1-3.4,0-5.1
			h-181.3c-0.1,2-0.1,4-0.1,6c0,65.7,43.5,119,97.1,119c36,0,67.4-24,84.1-59.6c0-0.4,0.1-0.9,0.1-1.3c-0.1-0.9-0.1-1.8-0.2-2.7
			c-0.1-3,0-6,0.3-8.9C1500.1,51,1500,49.6,1499.9,48.2z"/>
		<g>
			<path class="st1" d="M1500.5,10.3c-0.2-1.7-0.3-3.4-0.4-5.1c-0.1-1.7-0.1-3.4,0-5.1h-170.4c3.1,55,40.4,98.5,86.1,98.5
				c41.3,0,75.8-35.6,84.3-83.1C1500.2,13.7,1500.3,12,1500.5,10.3z"/>
			<path class="st2" d="M1500.5,10.3c-0.2-1.7-0.3-3.4-0.4-5.1c-0.1-1.7-0.1-3.4,0-5.1h-170.6c5.4,51.7,42,91.8,86.3,91.8
				c41,0,75.3-34.2,84.5-80.3C1500.4,11.1,1500.5,10.7,1500.5,10.3z"/>
		</g>
		<g>
			<path class="st1" d="M1353.4,0c2.5,39.6,29.5,70.8,62.4,70.8c33,0,59.9-31.2,62.4-70.8H1353.4z"/>
			<path class="st3" d="M1353.3,0c4.2,36.1,30.6,63.9,62.5,63.9c32,0,58.4-27.8,62.5-63.9H1353.3z"/>
		</g>
		<g>
			<path class="st1" d="M1375.6,0c2,25.1,19.3,44.8,40.3,44.8c21,0,38.3-19.7,40.3-44.8H1375.6z"/>
			<path class="st0" d="M1375.6,0c3,22.9,19.9,40.4,40.3,40.4c20.4,0,37.3-17.5,40.3-40.4H1375.6z"/>
		</g>
		<g>
			<path class="st4" d="M1499.9,48.2c0-1.3-0.1-2.6,0-3.9c-14.5,38.5-46.4,65.4-83.4,65.4c-45.6,0-83.4-40.5-90.6-93.5
				c4.9,55.7,43.6,99.1,90.6,99.1c37.4,0,69.5-27.5,83.5-66.8C1499.9,48.4,1499.9,48.3,1499.9,48.2z"/>
		</g>
	</g>
	<path class="st5" d="M840.1,83c14.4-20.8,23.1-47.7,23.1-77.1c0-2,0-4-0.1-6h-43.7C820,33.8,827.8,59.2,840.1,83z"/>
	<path class="st5" d="M1163.3,85.4c15.4-21.1,24.8-48.9,24.8-79.4c0-2,0-4-0.1-6h-44.1C1142.8,29.8,1149.6,62,1163.3,85.4z"/>
	<path class="st5" d="M1030.9,55.3c5.2-17.5,8.5-36.3,8.8-55.3H994c-0.1,2-0.1,4-0.1,6c0,30.5,9.4,58.3,24.7,79.3
		C1023.7,76,1027.7,65.8,1030.9,55.3z"/>
	<path class="st5" d="M1353.3,55.7C1359,38.2,1363,19.2,1364,0h-45.2c-0.1,2-0.1,4-0.1,6c0,29.3,8.7,56.1,23,76.9
		C1346.4,74.4,1350.2,65.1,1353.3,55.7z"/>
	<g>
		<path class="st0" d="M831.6,0c-0.1,2-0.1,4-0.1,6c0,65.7,43.5,119,97.1,119c53.6,0,97.1-53.3,97.1-119c0-2,0-4-0.1-6H831.6z"/>
		<g>
			<path class="st1" d="M842.5,0c3,55,40.4,98.5,86.1,98.5c45.7,0,83.1-43.5,86.1-98.5H842.5z"/>
			<path class="st2" d="M842.3,0c5.4,51.7,42,91.8,86.3,91.8s80.9-40,86.3-91.8H842.3z"/>
		</g>
		<g>
			<path class="st1" d="M866.1,0c2.5,39.6,29.5,70.8,62.4,70.8c33,0,59.9-31.2,62.4-70.8H866.1z"/>
			<path class="st3" d="M866,0c4.2,36.1,30.6,63.9,62.5,63.9c32,0,58.4-27.8,62.5-63.9H866z"/>
		</g>
		<g>
			<path class="st1" d="M888.3,0c2,25.1,19.3,44.8,40.3,44.8c21,0,38.3-19.7,40.3-44.8H888.3z"/>
			<path class="st0" d="M888.3,0c3,22.9,19.9,40.4,40.3,40.4c20.4,0,37.3-17.5,40.3-40.4H888.3z"/>
		</g>
		<g>
			<path class="st4" d="M929.1,109.6c-45.6,0-83.4-40.5-90.6-93.5c4.9,55.7,43.6,99.1,90.6,99.1c47.1,0,85.7-43.4,90.6-99.2
				C1012.5,69.2,974.7,109.6,929.1,109.6z"/>
		</g>
	</g>
	<g>
		<path class="st0" d="M1156.4,0c-0.1,2-0.1,4-0.1,6c0,65.7,43.5,119,97.1,119c53.6,0,97.1-53.3,97.1-119c0-2,0-4-0.1-6H1156.4z"/>
		<g>
			<path class="st1" d="M1167.3,0c3,55,40.4,98.5,86.1,98.5c45.7,0,83.1-43.5,86.1-98.5H1167.3z"/>
			<path class="st2" d="M1167.1,0c5.4,51.7,42,91.8,86.3,91.8c44.3,0,80.9-40,86.3-91.8H1167.1z"/>
		</g>
		<g>
			<path class="st1" d="M1191,0c2.5,39.6,29.5,70.8,62.4,70.8c33,0,59.9-31.2,62.4-70.8H1191z"/>
			<path class="st3" d="M1190.9,0c4.2,36.1,30.6,63.9,62.6,63.9c32,0,58.4-27.8,62.5-63.9H1190.9z"/>
		</g>
		<g>
			<path class="st1" d="M1213.1,0c2,25.1,19.3,44.8,40.3,44.8s38.3-19.7,40.3-44.8H1213.1z"/>
			<path class="st0" d="M1213.1,0c3,22.9,19.9,40.4,40.3,40.4s37.3-17.5,40.3-40.4H1213.1z"/>
		</g>
		<g>
			<path class="st4" d="M1254,109.6c-45.6,0-83.4-40.5-90.6-93.5c4.9,55.7,43.6,99.1,90.6,99.1c47,0,85.7-43.4,90.6-99.2
				C1337.4,69.2,1299.6,109.6,1254,109.6z"/>
		</g>
	</g>
</g>
</svg>
