<?xml version="1.0" encoding="utf-8"?>
<!-- Generator: Adobe Illustrator 23.0.3, SVG Export Plug-In . SVG Version: 6.00 Build 0)  -->
<svg version="1.1" xmlns="http://www.w3.org/2000/svg" xmlns:xlink="http://www.w3.org/1999/xlink" x="0px" y="0px"
	 viewBox="0 0 512 512" style="enable-background:new 0 0 512 512;" xml:space="preserve">
<style type="text/css">
	.st0{fill-rule:evenodd;clip-rule:evenodd;fill:#FFFFFF;}
	.st1{fill-rule:evenodd;clip-rule:evenodd;fill:#FFA502;}
	.st2{fill-rule:evenodd;clip-rule:evenodd;fill:#FFA902;}
	.st3{fill-rule:evenodd;clip-rule:evenodd;fill:#FFAC02;}
	.st4{fill-rule:evenodd;clip-rule:evenodd;fill:#FFB001;}
	.st5{fill-rule:evenodd;clip-rule:evenodd;fill:#FFB301;}
	.st6{fill-rule:evenodd;clip-rule:evenodd;fill:#FFB701;}
	.st7{fill-rule:evenodd;clip-rule:evenodd;fill:#FFBA01;}
	.st8{fill-rule:evenodd;clip-rule:evenodd;fill:#FFCC00;}
	.st9{opacity:0.5;fill-rule:evenodd;clip-rule:evenodd;fill:#FFFFFF;}
	.st10{opacity:0.65;stroke:#FFA502;stroke-width:1.0565;stroke-miterlimit:22.9256;}
</style>
<g id="Layer_1">
	<path class="st0" d="M79.22,431.3C30.62,384.49,6.04,323.39,10.37,256c5.5-85.67,51.37-159.84,124.09-205.53
		c17.85-11.2,37.15-20.65,57.71-28.48c35.24-13.39,63.45-14.33,100-9.28c75.87,12.44,122.69,50.34,165.96,110.49
		c81.81,113.83,45.11,269.3-73.53,342.18c-39.35,24.15-84.32,36.74-130.58,36.74C189.27,501.28,125.71,476.09,79.22,431.3
		 M72.13,438.34C21.58,389.64-3.99,326.09,0.51,256c5.73-89.1,53.43-166.25,129.07-213.78c18.56-11.65,38.64-21.48,60.02-29.62
		c36.66-13.93,66.01-14.91,104.01-9.67c78.91,12.94,127.62,52.36,172.62,114.93c85.09,118.4,46.94,280.12-76.49,355.91
		C348.84,498.89,302.05,512,253.94,512C186.6,511.14,120.47,484.93,72.13,438.34z"/>
	<path class="st1" d="M113.07,397.65c-22.49-21.68-39.27-48.25-48.62-78c-15.54-49.3-5.63-110.86,20.41-154.9
		c27.42-46.93,68.85-78.59,119.49-97.87c28.44-10.82,51.31-11.59,80.81-7.5c61.33,10.06,99.13,40.67,134.11,89.29
		c23.29,32.42,34.68,67.26,35.7,107.28c0,109.99-89.96,198.94-200.64,198.94C202.01,454.22,150.63,433.85,113.07,397.65"/>
	<path class="st2" d="M120.45,398.28c-21.33-20.4-37.24-45.39-46.12-73.38c-14.73-46.38-4.82-106.13,19.35-145.72
		c25.19-42.44,65.84-71.06,114.96-88.61c28.93-9.87,52.87-10.81,80.28-7.69c56.94,7.95,91.49,39.1,123.34,84.56
		c21.17,31.21,30.64,64.46,30.14,101.99c-1.43,101.12-85.19,182.68-187.98,182.68C204.8,451.49,156.07,432.33,120.45,398.28"/>
	<path class="st3" d="M127.82,398.91c-20.17-19.11-35.21-42.52-43.61-68.75c-13.92-43.45-4.01-101.39,18.3-136.54
		c22.95-37.96,62.82-63.51,110.4-79.36c29.43-8.91,54.45-10.03,79.77-7.87c52.55,5.84,83.84,37.53,112.54,79.84
		c19.05,30,26.61,61.66,24.59,96.68c-2.86,92.27-80.41,166.45-175.32,166.45C207.58,448.76,161.51,430.81,127.82,398.91"/>
	<path class="st4" d="M135.2,399.54c-19.01-17.82-33.19-39.67-41.1-64.14c-13.13-40.53-3.21-96.65,17.25-127.35
		c20.7-33.47,59.8-55.98,105.86-70.1c29.92-7.97,56.02-9.24,79.25-8.06c48.15,3.73,76.18,35.96,101.74,75.11
		c16.94,28.8,22.58,58.86,19.03,91.38c-4.28,83.41-75.62,150.2-162.64,150.2C210.37,446.05,166.95,429.3,135.2,399.54"/>
	<path class="st5" d="M142.58,400.17c-17.86-16.54-31.17-36.81-38.59-59.51c-12.33-37.6-2.39-91.92,16.2-118.17
		c18.46-28.98,56.78-48.44,101.32-60.84c30.4-7.03,57.58-8.47,78.72-8.25c43.75,1.61,68.54,34.38,90.96,70.39
		c14.82,27.59,18.54,56.06,13.47,86.07c-5.71,74.55-70.84,133.96-149.97,133.96C213.16,443.33,172.38,427.78,142.58,400.17"/>
	<path class="st6" d="M149.95,400.8c-16.69-15.25-29.13-33.95-36.08-54.88c-11.53-34.69-1.59-87.18,15.15-108.99
		c16.22-24.49,53.77-40.9,96.77-51.58c30.89-6.07,59.16-7.67,78.21-8.44c39.37-0.49,60.89,32.82,80.18,65.67
		c12.7,26.38,14.5,53.26,7.91,80.77c-7.14,65.68-66.07,117.72-137.31,117.72C215.95,440.6,177.82,426.27,149.95,400.8"/>
	<path class="st7" d="M157.33,401.43c-15.53-13.98-27.11-31.09-33.57-50.26c-10.72-31.76-0.78-82.44,14.09-99.81
		c13.99-20.01,50.76-33.37,92.23-42.32c31.39-5.11,60.73-6.9,77.69-8.62c34.97-2.61,53.24,31.25,69.38,60.94
		c10.59,25.17,10.46,50.46,2.36,75.47c-8.57,56.83-61.29,101.48-124.65,101.48C218.73,437.87,183.26,424.75,157.33,401.43"/>
	<path class="st8" d="M194.2,404.58c-9.73-7.54-16.98-16.79-21.02-27.14c-6.72-17.15,3.26-58.76,8.82-53.89
		c5.57,4.85,131.6,7.57,144.6-5.6c13-13.16,15,23.4,15.44,37.33c0,38.27-38.9,69.23-86.75,69.23
		C232.65,424.26,210.44,417.17,194.2,404.58"/>
	<path class="st8" d="M128.76,263.18C44.23,308.67,71.72,70.11,254.39,70.7c198.43,0.64,208.18,225.82,134.17,192.48
		C333.17,238.24,187.35,231.65,128.76,263.18"/>
	<path class="st8" d="M254.44,398.58c-78.38-1.01-150.42-45.04-181.8-116.95c-7.32-16.77-9.98-33.29-10.69-51.42
		c-11.22,69.89,8.88,130.16,63.9,176.37c36.85,30.95,80.48,46.1,128.59,46.71c109.91,0,199.02-88.35,199.02-197.33
		c-0.08-9.53-0.62-17.88-1.92-27.32C436.82,327.43,355.01,397.29,254.44,398.58"/>
	<path class="st9" d="M241.53,78.98c32.82,35.47,20.81,99.37-26.84,142.71c-47.64,43.34-112.88,49.71-145.7,14.23
		C46.03,211.11,39.86,120.79,31.17,256c-3.96,61.68,18.53,117.6,63.02,160.47c42.54,40.99,100.72,64.06,160,64.82
		c38.21,0,75.47-9.4,108.84-27.48c-9.29-0.41-17.67-3.77-23.66-10.24c-14.71-15.9-9.33-44.53,12.03-63.95
		c21.35-19.42,50.59-22.27,65.29-6.38c7.84,8.48,9.97,20.58,7.01,32.98c67.05-74,79.08-185.86,17.33-271.79
		C401.41,79.37,358.55,44.69,289.1,33.3c-33.45-4.62-59.26-3.76-91.54,8.5c-12.98,4.94-25.41,10.59-37.24,16.99
		C191.82,51.76,222.26,58.15,241.53,78.98 M72.46,438C22,389.39-3.52,325.96,0.98,256C6.7,167.05,54.3,90.05,129.81,42.61
		c18.53-11.62,38.57-21.44,59.91-29.57c36.6-13.9,65.89-14.88,103.82-9.64c78.77,12.92,127.39,52.27,172.32,114.72
		c84.92,118.18,46.84,279.61-76.36,355.26c-40.85,25.07-87.53,38.15-135.56,38.15C186.72,510.67,120.72,484.51,72.46,438z"/>
	<path class="st9" d="M134.24,376.74c-33.47-32.25-50.4-74.32-47.42-120.74c3.8-59,35.38-110.09,85.46-141.56
		c12.3-7.72,25.58-14.23,39.74-19.62c24.28-9.22,43.71-9.87,68.88-6.4c52.25,8.57,84.51,34.67,114.31,76.1
		c56.34,78.4,31.08,185.48-50.65,235.67c-27.09,16.63-58.07,25.31-89.93,25.31C210.04,424.94,166.26,407.59,134.24,376.74
		 M72.13,438.34C21.58,389.64-3.99,326.09,0.51,256c5.73-89.1,53.43-166.25,129.07-213.78c18.56-11.65,38.64-21.48,60.02-29.62
		c36.66-13.93,66.01-14.91,104.01-9.67c78.91,12.94,127.62,52.36,172.62,114.93c85.09,118.4,46.94,280.12-76.49,355.91
		C348.84,498.89,302.05,512,253.94,512C186.6,511.14,120.47,484.93,72.13,438.34z"/>
	<path class="st0" d="M243.48,45.64c12.49,21.33-3.3,53.54-35.27,71.96c-31.96,18.4-68.01,16.04-80.51-5.29
		c-12.49-21.33,3.3-53.55,35.26-71.96C194.95,21.94,230.99,24.31,243.48,45.64"/>
	<path class="st0" d="M116.1,117.91c10.01,10.9,4.86,31.69-11.48,46.43c-16.34,14.74-37.69,17.85-47.7,6.94
		c-10.01-10.9-4.87-31.69,11.47-46.43C84.73,110.12,106.09,107.01,116.1,117.91"/>
	<path class="st0" d="M362.99,436.65c6.76,9.79,0.33,25.8-14.34,35.76c-14.68,9.95-32.06,10.09-38.81,0.29
		c-6.76-9.79-0.33-25.8,14.34-35.76C338.85,426.98,356.23,426.85,362.99,436.65"/>
</g>
<g id="Layer_2">
	<rect x="120" y="230.18" class="st10" width="17.82" height="36.82"/>
	<rect x="171.07" y="190.99" class="st10" width="17.82" height="115.21"/>
	<rect x="273.22" y="144.66" class="st10" width="17.82" height="207.86"/>
	<rect x="222.15" y="144.66" class="st10" width="17.82" height="207.86"/>
	<rect x="323.11" y="190.99" class="st10" width="17.82" height="115.21"/>
	<rect x="374.18" y="230.18" class="st10" width="17.82" height="36.82"/>
	<rect x="144.94" y="211.94" class="st10" width="17.82" height="74.07"/>
	<rect x="349.24" y="211.18" class="st10" width="17.82" height="74.07"/>
	<rect x="196.02" y="169.01" class="st10" width="17.82" height="160.35"/>
	<rect x="247.09" y="126.25" class="st10" width="17.82" height="243.49"/>
	<rect x="298.17" y="167.83" class="st10" width="17.82" height="160.35"/>
</g>
</svg>
