<?xml version="1.0" encoding="utf-8"?>
<!-- Generator: Adobe Illustrator 23.0.3, SVG Export Plug-In . SVG Version: 6.00 Build 0)  -->
<svg version="1.1" id="Layer_1" xmlns="http://www.w3.org/2000/svg" xmlns:xlink="http://www.w3.org/1999/xlink" x="0px" y="0px"
	 viewBox="0 0 512 512" style="enable-background:new 0 0 512 512;" xml:space="preserve">
<style type="text/css">
	.st0{fill-rule:evenodd;clip-rule:evenodd;fill:#FFFFFF;}
	.st1{fill-rule:evenodd;clip-rule:evenodd;fill:#FFB001;}
	.st2{fill-rule:evenodd;clip-rule:evenodd;fill:#FFB301;}
	.st3{fill-rule:evenodd;clip-rule:evenodd;fill:#FFB501;}
	.st4{fill-rule:evenodd;clip-rule:evenodd;fill:#FFB801;}
	.st5{fill-rule:evenodd;clip-rule:evenodd;fill:#FFBA01;}
	.st6{fill-rule:evenodd;clip-rule:evenodd;fill:#FFBD01;}
	.st7{fill-rule:evenodd;clip-rule:evenodd;fill:#FFBF00;}
	.st8{fill-rule:evenodd;clip-rule:evenodd;fill:#FFC200;}
	.st9{fill-rule:evenodd;clip-rule:evenodd;fill:#FFC400;}
	.st10{fill-rule:evenodd;clip-rule:evenodd;fill:#FFC700;}
	.st11{fill-rule:evenodd;clip-rule:evenodd;fill:#FFC900;}
	.st12{fill-rule:evenodd;clip-rule:evenodd;fill:#FFCC00;}
	.st13{opacity:0.5;fill-rule:evenodd;clip-rule:evenodd;fill:#FFFFFF;}
</style>
<g>
	<path class="st0" d="M108.34,125.45h280.42c55.58,0,101.05,45.89,101.05,101.98v0c0,56.08-45.47,101.97-101.05,101.97H108.34
		c-55.59,0-101.06-45.89-101.06-101.97v0C7.28,171.33,52.75,125.45,108.34,125.45 M104.73,118.42h287.63
		c57,0,103.64,49.05,103.64,109v0c0,59.95-46.64,109-103.64,109H104.73c-57,0-103.64-49.05-103.64-109v0
		C1.09,167.47,47.73,118.42,104.73,118.42z"/>
	<path class="st1" d="M108.78,141.2h279.54c47.42,0,86.21,38.8,86.21,86.22v0c0,47.42-38.79,86.21-86.21,86.21H108.78
		c-47.42,0-86.22-38.8-86.22-86.21v0C22.56,180,61.35,141.2,108.78,141.2"/>
	<path class="st2" d="M112.58,151.62c90.64,0,181.29,0,271.93,0c44.35,0,80.65,36.29,80.65,80.64c0,0,0,0,0,0
		c0,44.36-36.3,80.64-80.65,80.64c-90.64,0-181.29,0-271.93,0c-44.36,0-80.65-36.29-80.65-80.64c0,0,0,0,0,0
		C31.94,187.9,68.22,151.62,112.58,151.62"/>
	<path class="st3" d="M116.39,162.03c88.1,0,176.21,0,264.32,0c41.29,0,75.07,33.78,75.07,75.07c0,0,0,0,0,0
		c0,41.29-33.78,75.07-75.07,75.07c-88.11,0-176.22,0-264.32,0c-41.3,0-75.08-33.78-75.08-75.07c0,0,0,0,0,0
		C41.31,195.81,75.09,162.03,116.39,162.03"/>
	<path class="st4" d="M120.18,172.44c85.57,0,171.15,0,256.72,0c38.23,0,69.51,31.27,69.51,69.5c0,0,0,0,0,0
		c0,38.23-31.27,69.5-69.51,69.5c-85.57,0-171.15,0-256.72,0c-38.22,0-69.5-31.27-69.5-69.5c0,0,0,0,0,0
		C50.68,203.71,81.96,172.44,120.18,172.44"/>
	<path class="st5" d="M123.99,182.85c83.04,0,166.08,0,249.12,0c35.16,0,63.93,28.77,63.93,63.94l0,0
		c0,35.16-28.77,63.93-63.93,63.93c-83.04,0-166.07,0-249.12,0c-35.16,0-63.93-28.77-63.93-63.93l0,0
		C60.06,211.63,88.82,182.85,123.99,182.85"/>
	<path class="st6" d="M127.79,193.26c80.51,0,161.01,0,241.51,0c32.1,0,58.36,26.26,58.36,58.36l0,0c0,32.1-26.26,58.36-58.36,58.36
		c-80.5,0-161,0-241.51,0c-32.1,0-58.36-26.26-58.36-58.36l0,0C69.43,219.52,95.69,193.26,127.79,193.26"/>
	<path class="st7" d="M131.59,203.68c77.97,0,155.93,0,233.9,0c29.04,0,52.79,23.76,52.79,52.79l0,0
		c0,29.04-23.75,52.79-52.79,52.79c-77.97,0-155.93,0-233.9,0c-29.04,0-52.79-23.75-52.79-52.79l0,0
		C78.8,227.44,102.56,203.68,131.59,203.68"/>
	<path class="st8" d="M135.4,214.09c75.44,0,150.87,0,226.3,0c25.98,0,47.22,21.25,47.22,47.22c0,0,0,0,0,0
		c0,25.97-21.25,47.22-47.22,47.22c-75.43,0-150.86,0-226.3,0c-25.98,0-47.22-21.25-47.22-47.22c0,0,0,0,0,0
		C88.17,235.34,109.42,214.09,135.4,214.09"/>
	<path class="st9" d="M139.2,224.51c72.9,0,145.8,0,218.69,0c22.91,0,41.65,18.74,41.65,41.65l0,0c0,22.91-18.74,41.65-41.65,41.65
		c-72.89,0-145.79,0-218.69,0c-22.91,0-41.65-18.74-41.65-41.65l0,0C97.55,243.25,116.29,224.51,139.2,224.51"/>
	<path class="st10" d="M143,234.92c70.36,0,140.72,0,211.08,0c19.85,0,36.08,16.23,36.08,36.07v0c0,19.84-16.23,36.08-36.08,36.08
		c-70.36,0-140.72,0-211.08,0c-19.85,0-36.08-16.23-36.08-36.08v0C106.92,251.15,123.16,234.92,143,234.92"/>
	<path class="st11" d="M146.81,245.33c67.82,0,135.65,0,203.48,0c16.78,0,30.51,13.73,30.51,30.51c0,0,0,0,0,0
		c0,16.78-13.73,30.51-30.51,30.51c-67.83,0-135.66,0-203.48,0c-16.78,0-30.51-13.73-30.51-30.51c0,0,0,0,0,0
		C116.3,259.06,130.03,245.33,146.81,245.33"/>
	<path class="st12" d="M150.61,255.74h195.88c13.71,0,24.93,11.22,24.93,24.94v0c0,13.72-11.22,24.94-24.93,24.94H150.61
		c-13.72,0-24.94-11.22-24.94-24.94v0C125.67,266.97,136.89,255.74,150.61,255.74"/>
	<path class="st12" d="M388.32,290.56H108.78c-43.51,0-79.76-32.66-85.44-74.68c-0.51,3.78-0.78,7.63-0.78,11.55
		c0,47.42,38.8,86.21,86.22,86.21h279.54c47.42,0,86.21-38.8,86.21-86.22c0-3.91-0.26-7.76-0.77-11.54
		C468.08,257.9,431.82,290.56,388.32,290.56"/>
	<path class="st12" d="M106.17,153.34h284.76c18.53,0,33.69,15.16,33.69,33.69c0,18.53-15.16,33.69-33.69,33.69H106.17
		c-18.53,0-33.69-15.16-33.69-33.69C72.48,168.5,87.64,153.34,106.17,153.34"/>
	<path class="st13" d="M114.73,134.1h267.63c53.04,0,96.44,41.99,96.44,93.32v0c0,51.32-43.4,93.31-96.44,93.31H114.73
		c-53.05,0-96.44-41.99-96.44-93.31v0C18.29,176.1,61.69,134.1,114.73,134.1 M104.73,118.42h287.63c57,0,103.64,49.05,103.64,109v0
		c0,59.95-46.64,109-103.64,109H104.73c-57,0-103.64-49.05-103.64-109v0C1.09,167.47,47.73,118.42,104.73,118.42z"/>
	<path class="st13" d="M389.72,301.46c-2.33-11.52,7.8-25.36,24.21-32.16c10.72-4.44,21.67-4.87,29.79-1.91
		c8.3-11.64,13.09-25.34,13.09-39.97v0c0-41.86-39.26-76.11-87.23-76.11H132.96c9.35,19.72-5.13,48.11-33.48,64.56
		c-20.84,12.1-43.56,14.51-59.1,7.82c-0.07,1.23-0.1,2.47-0.1,3.72v0c0,41.86,39.25,76.11,87.24,76.11h242.07
		C376.51,303.53,383.25,302.81,389.72,301.46 M104.73,118.42h287.63c57,0,103.64,49.05,103.64,109v0c0,59.95-46.64,109-103.64,109
		H104.73c-57,0-103.64-49.05-103.64-109v0C1.09,167.47,47.73,118.42,104.73,118.42z"/>
	<path class="st0" d="M114.5,144.02c4.97,12.01-5.46,27.76-23.31,35.16c-17.85,7.4-36.37,3.66-41.35-8.35
		c-4.98-12.02,5.46-27.75,23.31-35.16C91.01,128.27,109.52,132.01,114.5,144.02"/>
	<path class="st0" d="M43.97,173.18c3.7,3.38,2.63,10.58-2.39,16.08c-5.03,5.5-12.1,7.22-15.8,3.84c-3.7-3.38-2.63-10.58,2.39-16.08
		C33.19,171.53,40.27,169.81,43.97,173.18"/>
	<path class="st0" d="M432.42,290.93c4,9.66-4.39,22.31-18.74,28.26c-14.35,5.95-29.23,2.94-33.24-6.72
		c-4-9.66,4.39-22.32,18.74-28.26C413.52,278.27,428.41,281.27,432.42,290.93"/>
</g>
<g>
	<path class="st0" d="M115.34,141.45h280.42c55.58,0,101.05,45.89,101.05,101.98v0c0,56.08-45.47,101.97-101.05,101.97H115.34
		c-55.59,0-101.06-45.89-101.06-101.97v0C14.28,187.33,59.75,141.45,115.34,141.45 M111.73,134.42h287.63
		c57,0,103.64,49.05,103.64,109v0c0,59.95-46.64,109-103.64,109H111.73c-57,0-103.64-49.05-103.64-109v0
		C8.09,183.47,54.73,134.42,111.73,134.42z"/>
	<path class="st1" d="M115.78,157.2h279.54c47.42,0,86.21,38.8,86.21,86.22v0c0,47.42-38.79,86.21-86.21,86.21H115.78
		c-47.42,0-86.22-38.8-86.22-86.21v0C29.56,196,68.35,157.2,115.78,157.2"/>
	<path class="st2" d="M119.58,167.62c90.64,0,181.29,0,271.93,0c44.35,0,80.65,36.29,80.65,80.64c0,0,0,0,0,0
		c0,44.36-36.3,80.64-80.65,80.64c-90.64,0-181.29,0-271.93,0c-44.36,0-80.65-36.29-80.65-80.64c0,0,0,0,0,0
		C38.94,203.9,75.22,167.62,119.58,167.62"/>
	<path class="st3" d="M123.39,178.03c88.1,0,176.21,0,264.32,0c41.29,0,75.07,33.78,75.07,75.07c0,0,0,0,0,0
		c0,41.29-33.78,75.07-75.07,75.07c-88.11,0-176.22,0-264.32,0c-41.3,0-75.08-33.78-75.08-75.07c0,0,0,0,0,0
		C48.31,211.81,82.09,178.03,123.39,178.03"/>
	<path class="st4" d="M127.18,188.44c85.57,0,171.15,0,256.72,0c38.23,0,69.51,31.27,69.51,69.5c0,0,0,0,0,0
		c0,38.23-31.27,69.5-69.51,69.5c-85.57,0-171.15,0-256.72,0c-38.22,0-69.5-31.27-69.5-69.5c0,0,0,0,0,0
		C57.68,219.71,88.96,188.44,127.18,188.44"/>
	<path class="st5" d="M130.99,198.85c83.04,0,166.08,0,249.12,0c35.16,0,63.93,28.77,63.93,63.94l0,0
		c0,35.16-28.77,63.93-63.93,63.93c-83.04,0-166.07,0-249.12,0c-35.16,0-63.93-28.77-63.93-63.93l0,0
		C67.06,227.63,95.82,198.85,130.99,198.85"/>
	<path class="st6" d="M134.79,209.26c80.51,0,161.01,0,241.51,0c32.1,0,58.36,26.26,58.36,58.36l0,0c0,32.1-26.26,58.36-58.36,58.36
		c-80.5,0-161,0-241.51,0c-32.1,0-58.36-26.26-58.36-58.36l0,0C76.43,235.52,102.69,209.26,134.79,209.26"/>
	<path class="st7" d="M138.59,219.68c77.97,0,155.93,0,233.9,0c29.04,0,52.79,23.76,52.79,52.79l0,0
		c0,29.04-23.75,52.79-52.79,52.79c-77.97,0-155.93,0-233.9,0c-29.04,0-52.79-23.75-52.79-52.79l0,0
		C85.8,243.44,109.56,219.68,138.59,219.68"/>
	<path class="st8" d="M142.4,230.09c75.44,0,150.87,0,226.3,0c25.98,0,47.22,21.25,47.22,47.22c0,0,0,0,0,0
		c0,25.97-21.25,47.22-47.22,47.22c-75.43,0-150.86,0-226.3,0c-25.98,0-47.22-21.25-47.22-47.22c0,0,0,0,0,0
		C95.17,251.34,116.42,230.09,142.4,230.09"/>
	<path class="st9" d="M146.2,240.51c72.9,0,145.8,0,218.69,0c22.91,0,41.65,18.74,41.65,41.65l0,0c0,22.91-18.74,41.65-41.65,41.65
		c-72.89,0-145.79,0-218.69,0c-22.91,0-41.65-18.74-41.65-41.65l0,0C104.55,259.25,123.29,240.51,146.2,240.51"/>
	<path class="st10" d="M150,250.92c70.36,0,140.72,0,211.08,0c19.85,0,36.08,16.23,36.08,36.07v0c0,19.84-16.23,36.08-36.08,36.08
		c-70.36,0-140.72,0-211.08,0c-19.85,0-36.08-16.23-36.08-36.08v0C113.92,267.15,130.16,250.92,150,250.92"/>
	<path class="st11" d="M153.81,261.33c67.82,0,135.65,0,203.48,0c16.78,0,30.51,13.73,30.51,30.51c0,0,0,0,0,0
		c0,16.78-13.73,30.51-30.51,30.51c-67.83,0-135.66,0-203.48,0c-16.78,0-30.51-13.73-30.51-30.51c0,0,0,0,0,0
		C123.3,275.06,137.03,261.33,153.81,261.33"/>
	<path class="st12" d="M157.61,271.74h195.88c13.71,0,24.93,11.22,24.93,24.94v0c0,13.72-11.22,24.94-24.93,24.94H157.61
		c-13.72,0-24.94-11.22-24.94-24.94v0C132.67,282.97,143.89,271.74,157.61,271.74"/>
	<path class="st12" d="M395.32,306.56H115.78c-43.51,0-79.76-32.66-85.44-74.68c-0.51,3.78-0.78,7.63-0.78,11.55
		c0,47.42,38.8,86.21,86.22,86.21h279.54c47.42,0,86.21-38.8,86.21-86.22c0-3.91-0.26-7.76-0.77-11.54
		C475.08,273.9,438.82,306.56,395.32,306.56"/>
	<path class="st12" d="M113.17,169.34h284.76c18.53,0,33.69,15.16,33.69,33.69c0,18.53-15.16,33.69-33.69,33.69H113.17
		c-18.53,0-33.69-15.16-33.69-33.69C79.48,184.5,94.64,169.34,113.17,169.34"/>
	<path class="st13" d="M121.73,150.1h267.63c53.04,0,96.44,41.99,96.44,93.32v0c0,51.32-43.4,93.31-96.44,93.31H121.73
		c-53.05,0-96.44-41.99-96.44-93.31v0C25.29,192.1,68.69,150.1,121.73,150.1 M111.73,134.42h287.63c57,0,103.64,49.05,103.64,109v0
		c0,59.95-46.64,109-103.64,109H111.73c-57,0-103.64-49.05-103.64-109v0C8.09,183.47,54.73,134.42,111.73,134.42z"/>
	<path class="st13" d="M396.72,317.46c-2.33-11.52,7.8-25.36,24.21-32.16c10.72-4.44,21.67-4.87,29.79-1.91
		c8.3-11.64,13.09-25.34,13.09-39.97v0c0-41.86-39.26-76.11-87.23-76.11H139.96c9.35,19.72-5.13,48.11-33.48,64.56
		c-20.84,12.1-43.56,14.51-59.1,7.82c-0.07,1.23-0.1,2.47-0.1,3.72v0c0,41.86,39.25,76.11,87.24,76.11h242.07
		C383.51,319.53,390.25,318.81,396.72,317.46 M111.73,134.42h287.63c57,0,103.64,49.05,103.64,109v0c0,59.95-46.64,109-103.64,109
		H111.73c-57,0-103.64-49.05-103.64-109v0C8.09,183.47,54.73,134.42,111.73,134.42z"/>
	<path class="st0" d="M121.5,160.02c4.97,12.01-5.46,27.76-23.31,35.16c-17.85,7.4-36.37,3.66-41.35-8.35
		c-4.98-12.02,5.46-27.75,23.31-35.16C98.01,144.27,116.52,148.01,121.5,160.02"/>
	<path class="st0" d="M50.97,189.18c3.7,3.38,2.63,10.58-2.39,16.08c-5.03,5.5-12.1,7.22-15.8,3.84c-3.7-3.38-2.63-10.58,2.39-16.08
		C40.19,187.53,47.27,185.81,50.97,189.18"/>
	<path class="st0" d="M439.42,306.93c4,9.66-4.39,22.31-18.74,28.26c-14.35,5.95-29.23,2.94-33.24-6.72
		c-4-9.66,4.39-22.32,18.74-28.26C420.52,294.27,435.41,297.27,439.42,306.93"/>
</g>
</svg>
