<?xml version="1.0" encoding="utf-8"?>
<!-- Generator: Adobe Illustrator 24.3.0, SVG Export Plug-In . SVG Version: 6.00 Build 0)  -->
<svg version="1.1" id="Layer_1" xmlns="http://www.w3.org/2000/svg" xmlns:xlink="http://www.w3.org/1999/xlink" x="0px" y="0px"
	 viewBox="0 0 3840 2160" style="enable-background:new 0 0 3840 2160;" xml:space="preserve">
<style type="text/css">
	.st0{fill:#FFFFFF;}
	.st1{fill:#DCEFFA;}
</style>
<rect class="st0" width="160" height="160"/>
<polygon class="st1" points="80,0 0,80 80,80 80,160 160,80 160,0 "/>
<rect x="160" class="st0" width="160" height="160"/>
<polygon class="st1" points="240,0 160,80 240,80 240,160 320,80 320,0 "/>
<rect x="320" class="st0" width="160" height="160"/>
<polygon class="st1" points="400,0 320,80 400,80 400,160 480,80 480,0 "/>
<rect x="480" class="st0" width="160" height="160"/>
<polygon class="st1" points="560,0 480,80 560,80 560,160 640,80 640,0 "/>
<rect x="640" class="st0" width="160" height="160"/>
<polygon class="st1" points="720,0 640,80 720,80 720,160 800,80 800,0 "/>
<rect x="800" class="st0" width="160" height="160"/>
<polygon class="st1" points="880,0 800,80 880,80 880,160 960,80 960,0 "/>
<rect x="960" class="st0" width="160" height="160"/>
<polygon class="st1" points="1040,0 960,80 1040,80 1040,160 1120,80 1120,0 "/>
<rect x="1120" class="st0" width="160" height="160"/>
<polygon class="st1" points="1200,0 1120,80 1200,80 1200,160 1280,80 1280,0 "/>
<rect x="1280" class="st0" width="160" height="160"/>
<polygon class="st1" points="1360,0 1280,80 1360,80 1360,160 1440,80 1440,0 "/>
<rect x="1440" class="st0" width="160" height="160"/>
<polygon class="st1" points="1520,0 1440,80 1520,80 1520,160 1600,80 1600,0 "/>
<rect x="1600" class="st0" width="160" height="160"/>
<polygon class="st1" points="1680,0 1600,80 1680,80 1680,160 1760,80 1760,0 "/>
<rect x="1760" class="st0" width="160" height="160"/>
<polygon class="st1" points="1840,0 1760,80 1840,80 1840,160 1920,80 1920,0 "/>
<rect x="1920" class="st0" width="160" height="160"/>
<polygon class="st1" points="2000,0 1920,80 2000,80 2000,160 2080,80 2080,0 "/>
<rect x="2080" class="st0" width="160" height="160"/>
<polygon class="st1" points="2160,0 2080,80 2160,80 2160,160 2240,80 2240,0 "/>
<rect x="2240" class="st0" width="160" height="160"/>
<polygon class="st1" points="2320,0 2240,80 2320,80 2320,160 2400,80 2400,0 "/>
<rect x="2400" class="st0" width="160" height="160"/>
<polygon class="st1" points="2480,0 2400,80 2480,80 2480,160 2560,80 2560,0 "/>
<rect x="2560" class="st0" width="160" height="160"/>
<polygon class="st1" points="2640,0 2560,80 2640,80 2640,160 2720,80 2720,0 "/>
<rect x="2720" class="st0" width="160" height="160"/>
<polygon class="st1" points="2800,0 2720,80 2800,80 2800,160 2880,80 2880,0 "/>
<rect x="2880" class="st0" width="160" height="160"/>
<polygon class="st1" points="2960,0 2880,80 2960,80 2960,160 3040,80 3040,0 "/>
<rect x="3040" class="st0" width="160" height="160"/>
<polygon class="st1" points="3120,0 3040,80 3120,80 3120,160 3200,80 3200,0 "/>
<rect x="3200" class="st0" width="160" height="160"/>
<polygon class="st1" points="3280,0 3200,80 3280,80 3280,160 3360,80 3360,0 "/>
<rect x="3360" class="st0" width="160" height="160"/>
<polygon class="st1" points="3440,0 3360,80 3440,80 3440,160 3520,80 3520,0 "/>
<rect x="3520" class="st0" width="160" height="160"/>
<polygon class="st1" points="3600,0 3520,80 3600,80 3600,160 3680,80 3680,0 "/>
<rect x="3680" class="st0" width="160" height="160"/>
<polygon class="st1" points="3760,0 3680,80 3760,80 3760,160 3840,80 3840,0 "/>
<rect x="0" y="160" class="st0" width="160" height="160"/>
<polygon class="st1" points="80,160 0,240 80,240 80,320 160,240 160,160 "/>
<rect x="160" y="160" class="st0" width="160" height="160"/>
<polygon class="st1" points="240,160 160,240 240,240 240,320 320,240 320,160 "/>
<rect x="320" y="160" class="st0" width="160" height="160"/>
<polygon class="st1" points="400,160 320,240 400,240 400,320 480,240 480,160 "/>
<rect x="480" y="160" class="st0" width="160" height="160"/>
<polygon class="st1" points="560,160 480,240 560,240 560,320 640,240 640,160 "/>
<rect x="640" y="160" class="st0" width="160" height="160"/>
<polygon class="st1" points="720,160 640,240 720,240 720,320 800,240 800,160 "/>
<rect x="800" y="160" class="st0" width="160" height="160"/>
<polygon class="st1" points="880,160 800,240 880,240 880,320 960,240 960,160 "/>
<rect x="960" y="160" class="st0" width="160" height="160"/>
<polygon class="st1" points="1040,160 960,240 1040,240 1040,320 1120,240 1120,160 "/>
<rect x="1120" y="160" class="st0" width="160" height="160"/>
<polygon class="st1" points="1200,160 1120,240 1200,240 1200,320 1280,240 1280,160 "/>
<rect x="1280" y="160" class="st0" width="160" height="160"/>
<polygon class="st1" points="1360,160 1280,240 1360,240 1360,320 1440,240 1440,160 "/>
<rect x="1440" y="160" class="st0" width="160" height="160"/>
<polygon class="st1" points="1520,160 1440,240 1520,240 1520,320 1600,240 1600,160 "/>
<rect x="1600" y="160" class="st0" width="160" height="160"/>
<polygon class="st1" points="1680,160 1600,240 1680,240 1680,320 1760,240 1760,160 "/>
<rect x="1760" y="160" class="st0" width="160" height="160"/>
<polygon class="st1" points="1840,160 1760,240 1840,240 1840,320 1920,240 1920,160 "/>
<rect x="1920" y="160" class="st0" width="160" height="160"/>
<polygon class="st1" points="2000,160 1920,240 2000,240 2000,320 2080,240 2080,160 "/>
<rect x="2080" y="160" class="st0" width="160" height="160"/>
<polygon class="st1" points="2160,160 2080,240 2160,240 2160,320 2240,240 2240,160 "/>
<rect x="2240" y="160" class="st0" width="160" height="160"/>
<polygon class="st1" points="2320,160 2240,240 2320,240 2320,320 2400,240 2400,160 "/>
<rect x="2400" y="160" class="st0" width="160" height="160"/>
<polygon class="st1" points="2480,160 2400,240 2480,240 2480,320 2560,240 2560,160 "/>
<rect x="2560" y="160" class="st0" width="160" height="160"/>
<polygon class="st1" points="2640,160 2560,240 2640,240 2640,320 2720,240 2720,160 "/>
<rect x="2720" y="160" class="st0" width="160" height="160"/>
<polygon class="st1" points="2800,160 2720,240 2800,240 2800,320 2880,240 2880,160 "/>
<rect x="2880" y="160" class="st0" width="160" height="160"/>
<polygon class="st1" points="2960,160 2880,240 2960,240 2960,320 3040,240 3040,160 "/>
<rect x="3040" y="160" class="st0" width="160" height="160"/>
<polygon class="st1" points="3120,160 3040,240 3120,240 3120,320 3200,240 3200,160 "/>
<rect x="3200" y="160" class="st0" width="160" height="160"/>
<polygon class="st1" points="3280,160 3200,240 3280,240 3280,320 3360,240 3360,160 "/>
<rect x="3360" y="160" class="st0" width="160" height="160"/>
<polygon class="st1" points="3440,160 3360,240 3440,240 3440,320 3520,240 3520,160 "/>
<rect x="3520" y="160" class="st0" width="160" height="160"/>
<polygon class="st1" points="3600,160 3520,240 3600,240 3600,320 3680,240 3680,160 "/>
<rect x="3680" y="160" class="st0" width="160" height="160"/>
<polygon class="st1" points="3760,160 3680,240 3760,240 3760,320 3840,240 3840,160 "/>
<rect x="0" y="320" class="st0" width="160" height="160"/>
<polygon class="st1" points="80,320 0,400 80,400 80,480 160,400 160,320 "/>
<rect x="160" y="320" class="st0" width="160" height="160"/>
<polygon class="st1" points="240,320 160,400 240,400 240,480 320,400 320,320 "/>
<rect x="320" y="320" class="st0" width="160" height="160"/>
<polygon class="st1" points="400,320 320,400 400,400 400,480 480,400 480,320 "/>
<rect x="480" y="320" class="st0" width="160" height="160"/>
<polygon class="st1" points="560,320 480,400 560,400 560,480 640,400 640,320 "/>
<rect x="640" y="320" class="st0" width="160" height="160"/>
<polygon class="st1" points="720,320 640,400 720,400 720,480 800,400 800,320 "/>
<rect x="800" y="320" class="st0" width="160" height="160"/>
<polygon class="st1" points="880,320 800,400 880,400 880,480 960,400 960,320 "/>
<rect x="960" y="320" class="st0" width="160" height="160"/>
<polygon class="st1" points="1040,320 960,400 1040,400 1040,480 1120,400 1120,320 "/>
<rect x="1120" y="320" class="st0" width="160" height="160"/>
<polygon class="st1" points="1200,320 1120,400 1200,400 1200,480 1280,400 1280,320 "/>
<rect x="1280" y="320" class="st0" width="160" height="160"/>
<polygon class="st1" points="1360,320 1280,400 1360,400 1360,480 1440,400 1440,320 "/>
<rect x="1440" y="320" class="st0" width="160" height="160"/>
<polygon class="st1" points="1520,320 1440,400 1520,400 1520,480 1600,400 1600,320 "/>
<rect x="1600" y="320" class="st0" width="160" height="160"/>
<polygon class="st1" points="1680,320 1600,400 1680,400 1680,480 1760,400 1760,320 "/>
<rect x="1760" y="320" class="st0" width="160" height="160"/>
<polygon class="st1" points="1840,320 1760,400 1840,400 1840,480 1920,400 1920,320 "/>
<rect x="1920" y="320" class="st0" width="160" height="160"/>
<polygon class="st1" points="2000,320 1920,400 2000,400 2000,480 2080,400 2080,320 "/>
<rect x="2080" y="320" class="st0" width="160" height="160"/>
<polygon class="st1" points="2160,320 2080,400 2160,400 2160,480 2240,400 2240,320 "/>
<rect x="2240" y="320" class="st0" width="160" height="160"/>
<polygon class="st1" points="2320,320 2240,400 2320,400 2320,480 2400,400 2400,320 "/>
<rect x="2400" y="320" class="st0" width="160" height="160"/>
<polygon class="st1" points="2480,320 2400,400 2480,400 2480,480 2560,400 2560,320 "/>
<rect x="2560" y="320" class="st0" width="160" height="160"/>
<polygon class="st1" points="2640,320 2560,400 2640,400 2640,480 2720,400 2720,320 "/>
<rect x="2720" y="320" class="st0" width="160" height="160"/>
<polygon class="st1" points="2800,320 2720,400 2800,400 2800,480 2880,400 2880,320 "/>
<rect x="2880" y="320" class="st0" width="160" height="160"/>
<polygon class="st1" points="2960,320 2880,400 2960,400 2960,480 3040,400 3040,320 "/>
<rect x="3040" y="320" class="st0" width="160" height="160"/>
<polygon class="st1" points="3120,320 3040,400 3120,400 3120,480 3200,400 3200,320 "/>
<rect x="3200" y="320" class="st0" width="160" height="160"/>
<polygon class="st1" points="3280,320 3200,400 3280,400 3280,480 3360,400 3360,320 "/>
<rect x="3360" y="320" class="st0" width="160" height="160"/>
<polygon class="st1" points="3440,320 3360,400 3440,400 3440,480 3520,400 3520,320 "/>
<rect x="3520" y="320" class="st0" width="160" height="160"/>
<polygon class="st1" points="3600,320 3520,400 3600,400 3600,480 3680,400 3680,320 "/>
<rect x="3680" y="320" class="st0" width="160" height="160"/>
<polygon class="st1" points="3760,320 3680,400 3760,400 3760,480 3840,400 3840,320 "/>
<rect x="0" y="480" class="st0" width="160" height="160"/>
<polygon class="st1" points="80,480 0,560 80,560 80,640 160,560 160,480 "/>
<rect x="160" y="480" class="st0" width="160" height="160"/>
<polygon class="st1" points="240,480 160,560 240,560 240,640 320,560 320,480 "/>
<rect x="320" y="480" class="st0" width="160" height="160"/>
<polygon class="st1" points="400,480 320,560 400,560 400,640 480,560 480,480 "/>
<rect x="480" y="480" class="st0" width="160" height="160"/>
<polygon class="st1" points="560,480 480,560 560,560 560,640 640,560 640,480 "/>
<rect x="640" y="480" class="st0" width="160" height="160"/>
<polygon class="st1" points="720,480 640,560 720,560 720,640 800,560 800,480 "/>
<rect x="800" y="480" class="st0" width="160" height="160"/>
<polygon class="st1" points="880,480 800,560 880,560 880,640 960,560 960,480 "/>
<rect x="960" y="480" class="st0" width="160" height="160"/>
<polygon class="st1" points="1040,480 960,560 1040,560 1040,640 1120,560 1120,480 "/>
<rect x="1120" y="480" class="st0" width="160" height="160"/>
<polygon class="st1" points="1200,480 1120,560 1200,560 1200,640 1280,560 1280,480 "/>
<rect x="1280" y="480" class="st0" width="160" height="160"/>
<polygon class="st1" points="1360,480 1280,560 1360,560 1360,640 1440,560 1440,480 "/>
<rect x="1440" y="480" class="st0" width="160" height="160"/>
<polygon class="st1" points="1520,480 1440,560 1520,560 1520,640 1600,560 1600,480 "/>
<rect x="1600" y="480" class="st0" width="160" height="160"/>
<polygon class="st1" points="1680,480 1600,560 1680,560 1680,640 1760,560 1760,480 "/>
<rect x="1760" y="480" class="st0" width="160" height="160"/>
<polygon class="st1" points="1840,480 1760,560 1840,560 1840,640 1920,560 1920,480 "/>
<rect x="1920" y="480" class="st0" width="160" height="160"/>
<polygon class="st1" points="2000,480 1920,560 2000,560 2000,640 2080,560 2080,480 "/>
<rect x="2080" y="480" class="st0" width="160" height="160"/>
<polygon class="st1" points="2160,480 2080,560 2160,560 2160,640 2240,560 2240,480 "/>
<rect x="2240" y="480" class="st0" width="160" height="160"/>
<polygon class="st1" points="2320,480 2240,560 2320,560 2320,640 2400,560 2400,480 "/>
<rect x="2400" y="480" class="st0" width="160" height="160"/>
<polygon class="st1" points="2480,480 2400,560 2480,560 2480,640 2560,560 2560,480 "/>
<rect x="2560" y="480" class="st0" width="160" height="160"/>
<polygon class="st1" points="2640,480 2560,560 2640,560 2640,640 2720,560 2720,480 "/>
<rect x="2720" y="480" class="st0" width="160" height="160"/>
<polygon class="st1" points="2800,480 2720,560 2800,560 2800,640 2880,560 2880,480 "/>
<rect x="2880" y="480" class="st0" width="160" height="160"/>
<polygon class="st1" points="2960,480 2880,560 2960,560 2960,640 3040,560 3040,480 "/>
<rect x="3040" y="480" class="st0" width="160" height="160"/>
<polygon class="st1" points="3120,480 3040,560 3120,560 3120,640 3200,560 3200,480 "/>
<rect x="3200" y="480" class="st0" width="160" height="160"/>
<polygon class="st1" points="3280,480 3200,560 3280,560 3280,640 3360,560 3360,480 "/>
<rect x="3360" y="480" class="st0" width="160" height="160"/>
<polygon class="st1" points="3440,480 3360,560 3440,560 3440,640 3520,560 3520,480 "/>
<rect x="3520" y="480" class="st0" width="160" height="160"/>
<polygon class="st1" points="3600,480 3520,560 3600,560 3600,640 3680,560 3680,480 "/>
<rect x="3680" y="480" class="st0" width="160" height="160"/>
<polygon class="st1" points="3760,480 3680,560 3760,560 3760,640 3840,560 3840,480 "/>
<rect x="0" y="640" class="st0" width="160" height="160"/>
<polygon class="st1" points="80,640 0,720 80,720 80,800 160,720 160,640 "/>
<rect x="160" y="640" class="st0" width="160" height="160"/>
<polygon class="st1" points="240,640 160,720 240,720 240,800 320,720 320,640 "/>
<rect x="320" y="640" class="st0" width="160" height="160"/>
<polygon class="st1" points="400,640 320,720 400,720 400,800 480,720 480,640 "/>
<rect x="480" y="640" class="st0" width="160" height="160"/>
<polygon class="st1" points="560,640 480,720 560,720 560,800 640,720 640,640 "/>
<rect x="640" y="640" class="st0" width="160" height="160"/>
<polygon class="st1" points="720,640 640,720 720,720 720,800 800,720 800,640 "/>
<rect x="800" y="640" class="st0" width="160" height="160"/>
<polygon class="st1" points="880,640 800,720 880,720 880,800 960,720 960,640 "/>
<rect x="960" y="640" class="st0" width="160" height="160"/>
<polygon class="st1" points="1040,640 960,720 1040,720 1040,800 1120,720 1120,640 "/>
<rect x="1120" y="640" class="st0" width="160" height="160"/>
<polygon class="st1" points="1200,640 1120,720 1200,720 1200,800 1280,720 1280,640 "/>
<rect x="1280" y="640" class="st0" width="160" height="160"/>
<polygon class="st1" points="1360,640 1280,720 1360,720 1360,800 1440,720 1440,640 "/>
<rect x="1440" y="640" class="st0" width="160" height="160"/>
<polygon class="st1" points="1520,640 1440,720 1520,720 1520,800 1600,720 1600,640 "/>
<rect x="1600" y="640" class="st0" width="160" height="160"/>
<polygon class="st1" points="1680,640 1600,720 1680,720 1680,800 1760,720 1760,640 "/>
<rect x="1760" y="640" class="st0" width="160" height="160"/>
<polygon class="st1" points="1840,640 1760,720 1840,720 1840,800 1920,720 1920,640 "/>
<rect x="1920" y="640" class="st0" width="160" height="160"/>
<polygon class="st1" points="2000,640 1920,720 2000,720 2000,800 2080,720 2080,640 "/>
<rect x="2080" y="640" class="st0" width="160" height="160"/>
<polygon class="st1" points="2160,640 2080,720 2160,720 2160,800 2240,720 2240,640 "/>
<rect x="2240" y="640" class="st0" width="160" height="160"/>
<polygon class="st1" points="2320,640 2240,720 2320,720 2320,800 2400,720 2400,640 "/>
<rect x="2400" y="640" class="st0" width="160" height="160"/>
<polygon class="st1" points="2480,640 2400,720 2480,720 2480,800 2560,720 2560,640 "/>
<rect x="2560" y="640" class="st0" width="160" height="160"/>
<polygon class="st1" points="2640,640 2560,720 2640,720 2640,800 2720,720 2720,640 "/>
<rect x="2720" y="640" class="st0" width="160" height="160"/>
<polygon class="st1" points="2800,640 2720,720 2800,720 2800,800 2880,720 2880,640 "/>
<rect x="2880" y="640" class="st0" width="160" height="160"/>
<polygon class="st1" points="2960,640 2880,720 2960,720 2960,800 3040,720 3040,640 "/>
<rect x="3040" y="640" class="st0" width="160" height="160"/>
<polygon class="st1" points="3120,640 3040,720 3120,720 3120,800 3200,720 3200,640 "/>
<rect x="3200" y="640" class="st0" width="160" height="160"/>
<polygon class="st1" points="3280,640 3200,720 3280,720 3280,800 3360,720 3360,640 "/>
<rect x="3360" y="640" class="st0" width="160" height="160"/>
<polygon class="st1" points="3440,640 3360,720 3440,720 3440,800 3520,720 3520,640 "/>
<rect x="3520" y="640" class="st0" width="160" height="160"/>
<polygon class="st1" points="3600,640 3520,720 3600,720 3600,800 3680,720 3680,640 "/>
<rect x="3680" y="640" class="st0" width="160" height="160"/>
<polygon class="st1" points="3760,640 3680,720 3760,720 3760,800 3840,720 3840,640 "/>
<rect x="0" y="800" class="st0" width="160" height="160"/>
<polygon class="st1" points="80,800 0,880 80,880 80,960 160,880 160,800 "/>
<rect x="160" y="800" class="st0" width="160" height="160"/>
<polygon class="st1" points="240,800 160,880 240,880 240,960 320,880 320,800 "/>
<rect x="320" y="800" class="st0" width="160" height="160"/>
<polygon class="st1" points="400,800 320,880 400,880 400,960 480,880 480,800 "/>
<rect x="480" y="800" class="st0" width="160" height="160"/>
<polygon class="st1" points="560,800 480,880 560,880 560,960 640,880 640,800 "/>
<rect x="640" y="800" class="st0" width="160" height="160"/>
<polygon class="st1" points="720,800 640,880 720,880 720,960 800,880 800,800 "/>
<rect x="800" y="800" class="st0" width="160" height="160"/>
<polygon class="st1" points="880,800 800,880 880,880 880,960 960,880 960,800 "/>
<rect x="960" y="800" class="st0" width="160" height="160"/>
<polygon class="st1" points="1040,800 960,880 1040,880 1040,960 1120,880 1120,800 "/>
<rect x="1120" y="800" class="st0" width="160" height="160"/>
<polygon class="st1" points="1200,800 1120,880 1200,880 1200,960 1280,880 1280,800 "/>
<rect x="1280" y="800" class="st0" width="160" height="160"/>
<polygon class="st1" points="1360,800 1280,880 1360,880 1360,960 1440,880 1440,800 "/>
<rect x="1440" y="800" class="st0" width="160" height="160"/>
<polygon class="st1" points="1520,800 1440,880 1520,880 1520,960 1600,880 1600,800 "/>
<rect x="1600" y="800" class="st0" width="160" height="160"/>
<polygon class="st1" points="1680,800 1600,880 1680,880 1680,960 1760,880 1760,800 "/>
<rect x="1760" y="800" class="st0" width="160" height="160"/>
<polygon class="st1" points="1840,800 1760,880 1840,880 1840,960 1920,880 1920,800 "/>
<rect x="1920" y="800" class="st0" width="160" height="160"/>
<polygon class="st1" points="2000,800 1920,880 2000,880 2000,960 2080,880 2080,800 "/>
<rect x="2080" y="800" class="st0" width="160" height="160"/>
<polygon class="st1" points="2160,800 2080,880 2160,880 2160,960 2240,880 2240,800 "/>
<rect x="2240" y="800" class="st0" width="160" height="160"/>
<polygon class="st1" points="2320,800 2240,880 2320,880 2320,960 2400,880 2400,800 "/>
<rect x="2400" y="800" class="st0" width="160" height="160"/>
<polygon class="st1" points="2480,800 2400,880 2480,880 2480,960 2560,880 2560,800 "/>
<rect x="2560" y="800" class="st0" width="160" height="160"/>
<polygon class="st1" points="2640,800 2560,880 2640,880 2640,960 2720,880 2720,800 "/>
<rect x="2720" y="800" class="st0" width="160" height="160"/>
<polygon class="st1" points="2800,800 2720,880 2800,880 2800,960 2880,880 2880,800 "/>
<rect x="2880" y="800" class="st0" width="160" height="160"/>
<polygon class="st1" points="2960,800 2880,880 2960,880 2960,960 3040,880 3040,800 "/>
<rect x="3040" y="800" class="st0" width="160" height="160"/>
<polygon class="st1" points="3120,800 3040,880 3120,880 3120,960 3200,880 3200,800 "/>
<rect x="3200" y="800" class="st0" width="160" height="160"/>
<polygon class="st1" points="3280,800 3200,880 3280,880 3280,960 3360,880 3360,800 "/>
<rect x="3360" y="800" class="st0" width="160" height="160"/>
<polygon class="st1" points="3440,800 3360,880 3440,880 3440,960 3520,880 3520,800 "/>
<rect x="3520" y="800" class="st0" width="160" height="160"/>
<polygon class="st1" points="3600,800 3520,880 3600,880 3600,960 3680,880 3680,800 "/>
<rect x="3680" y="800" class="st0" width="160" height="160"/>
<polygon class="st1" points="3760,800 3680,880 3760,880 3760,960 3840,880 3840,800 "/>
<rect x="0" y="960" class="st0" width="160" height="160"/>
<polygon class="st1" points="80,960 0,1040 80,1040 80,1120 160,1040 160,960 "/>
<rect x="160" y="960" class="st0" width="160" height="160"/>
<polygon class="st1" points="240,960 160,1040 240,1040 240,1120 320,1040 320,960 "/>
<rect x="320" y="960" class="st0" width="160" height="160"/>
<polygon class="st1" points="400,960 320,1040 400,1040 400,1120 480,1040 480,960 "/>
<rect x="480" y="960" class="st0" width="160" height="160"/>
<polygon class="st1" points="560,960 480,1040 560,1040 560,1120 640,1040 640,960 "/>
<rect x="640" y="960" class="st0" width="160" height="160"/>
<polygon class="st1" points="720,960 640,1040 720,1040 720,1120 800,1040 800,960 "/>
<rect x="800" y="960" class="st0" width="160" height="160"/>
<polygon class="st1" points="880,960 800,1040 880,1040 880,1120 960,1040 960,960 "/>
<rect x="960" y="960" class="st0" width="160" height="160"/>
<polygon class="st1" points="1040,960 960,1040 1040,1040 1040,1120 1120,1040 1120,960 "/>
<rect x="1120" y="960" class="st0" width="160" height="160"/>
<polygon class="st1" points="1200,960 1120,1040 1200,1040 1200,1120 1280,1040 1280,960 "/>
<rect x="1280" y="960" class="st0" width="160" height="160"/>
<polygon class="st1" points="1360,960 1280,1040 1360,1040 1360,1120 1440,1040 1440,960 "/>
<rect x="1440" y="960" class="st0" width="160" height="160"/>
<polygon class="st1" points="1520,960 1440,1040 1520,1040 1520,1120 1600,1040 1600,960 "/>
<rect x="1600" y="960" class="st0" width="160" height="160"/>
<polygon class="st1" points="1680,960 1600,1040 1680,1040 1680,1120 1760,1040 1760,960 "/>
<rect x="1760" y="960" class="st0" width="160" height="160"/>
<polygon class="st1" points="1840,960 1760,1040 1840,1040 1840,1120 1920,1040 1920,960 "/>
<rect x="1920" y="960" class="st0" width="160" height="160"/>
<polygon class="st1" points="2000,960 1920,1040 2000,1040 2000,1120 2080,1040 2080,960 "/>
<rect x="2080" y="960" class="st0" width="160" height="160"/>
<polygon class="st1" points="2160,960 2080,1040 2160,1040 2160,1120 2240,1040 2240,960 "/>
<rect x="2240" y="960" class="st0" width="160" height="160"/>
<polygon class="st1" points="2320,960 2240,1040 2320,1040 2320,1120 2400,1040 2400,960 "/>
<rect x="2400" y="960" class="st0" width="160" height="160"/>
<polygon class="st1" points="2480,960 2400,1040 2480,1040 2480,1120 2560,1040 2560,960 "/>
<rect x="2560" y="960" class="st0" width="160" height="160"/>
<polygon class="st1" points="2640,960 2560,1040 2640,1040 2640,1120 2720,1040 2720,960 "/>
<rect x="2720" y="960" class="st0" width="160" height="160"/>
<polygon class="st1" points="2800,960 2720,1040 2800,1040 2800,1120 2880,1040 2880,960 "/>
<rect x="2880" y="960" class="st0" width="160" height="160"/>
<polygon class="st1" points="2960,960 2880,1040 2960,1040 2960,1120 3040,1040 3040,960 "/>
<rect x="3040" y="960" class="st0" width="160" height="160"/>
<polygon class="st1" points="3120,960 3040,1040 3120,1040 3120,1120 3200,1040 3200,960 "/>
<rect x="3200" y="960" class="st0" width="160" height="160"/>
<polygon class="st1" points="3280,960 3200,1040 3280,1040 3280,1120 3360,1040 3360,960 "/>
<rect x="3360" y="960" class="st0" width="160" height="160"/>
<polygon class="st1" points="3440,960 3360,1040 3440,1040 3440,1120 3520,1040 3520,960 "/>
<rect x="3520" y="960" class="st0" width="160" height="160"/>
<polygon class="st1" points="3600,960 3520,1040 3600,1040 3600,1120 3680,1040 3680,960 "/>
<rect x="3680" y="960" class="st0" width="160" height="160"/>
<polygon class="st1" points="3760,960 3680,1040 3760,1040 3760,1120 3840,1040 3840,960 "/>
<rect x="0" y="1120" class="st0" width="160" height="160"/>
<polygon class="st1" points="80,1120 0,1200 80,1200 80,1280 160,1200 160,1120 "/>
<rect x="160" y="1120" class="st0" width="160" height="160"/>
<polygon class="st1" points="240,1120 160,1200 240,1200 240,1280 320,1200 320,1120 "/>
<rect x="320" y="1120" class="st0" width="160" height="160"/>
<polygon class="st1" points="400,1120 320,1200 400,1200 400,1280 480,1200 480,1120 "/>
<rect x="480" y="1120" class="st0" width="160" height="160"/>
<polygon class="st1" points="560,1120 480,1200 560,1200 560,1280 640,1200 640,1120 "/>
<rect x="640" y="1120" class="st0" width="160" height="160"/>
<polygon class="st1" points="720,1120 640,1200 720,1200 720,1280 800,1200 800,1120 "/>
<rect x="800" y="1120" class="st0" width="160" height="160"/>
<polygon class="st1" points="880,1120 800,1200 880,1200 880,1280 960,1200 960,1120 "/>
<rect x="960" y="1120" class="st0" width="160" height="160"/>
<polygon class="st1" points="1040,1120 960,1200 1040,1200 1040,1280 1120,1200 1120,1120 "/>
<rect x="1120" y="1120" class="st0" width="160" height="160"/>
<polygon class="st1" points="1200,1120 1120,1200 1200,1200 1200,1280 1280,1200 1280,1120 "/>
<rect x="1280" y="1120" class="st0" width="160" height="160"/>
<polygon class="st1" points="1360,1120 1280,1200 1360,1200 1360,1280 1440,1200 1440,1120 "/>
<rect x="1440" y="1120" class="st0" width="160" height="160"/>
<polygon class="st1" points="1520,1120 1440,1200 1520,1200 1520,1280 1600,1200 1600,1120 "/>
<rect x="1600" y="1120" class="st0" width="160" height="160"/>
<polygon class="st1" points="1680,1120 1600,1200 1680,1200 1680,1280 1760,1200 1760,1120 "/>
<rect x="1760" y="1120" class="st0" width="160" height="160"/>
<polygon class="st1" points="1840,1120 1760,1200 1840,1200 1840,1280 1920,1200 1920,1120 "/>
<rect x="1920" y="1120" class="st0" width="160" height="160"/>
<polygon class="st1" points="2000,1120 1920,1200 2000,1200 2000,1280 2080,1200 2080,1120 "/>
<rect x="2080" y="1120" class="st0" width="160" height="160"/>
<polygon class="st1" points="2160,1120 2080,1200 2160,1200 2160,1280 2240,1200 2240,1120 "/>
<rect x="2240" y="1120" class="st0" width="160" height="160"/>
<polygon class="st1" points="2320,1120 2240,1200 2320,1200 2320,1280 2400,1200 2400,1120 "/>
<rect x="2400" y="1120" class="st0" width="160" height="160"/>
<polygon class="st1" points="2480,1120 2400,1200 2480,1200 2480,1280 2560,1200 2560,1120 "/>
<rect x="2560" y="1120" class="st0" width="160" height="160"/>
<polygon class="st1" points="2640,1120 2560,1200 2640,1200 2640,1280 2720,1200 2720,1120 "/>
<rect x="2720" y="1120" class="st0" width="160" height="160"/>
<polygon class="st1" points="2800,1120 2720,1200 2800,1200 2800,1280 2880,1200 2880,1120 "/>
<rect x="2880" y="1120" class="st0" width="160" height="160"/>
<polygon class="st1" points="2960,1120 2880,1200 2960,1200 2960,1280 3040,1200 3040,1120 "/>
<rect x="3040" y="1120" class="st0" width="160" height="160"/>
<polygon class="st1" points="3120,1120 3040,1200 3120,1200 3120,1280 3200,1200 3200,1120 "/>
<rect x="3200" y="1120" class="st0" width="160" height="160"/>
<polygon class="st1" points="3280,1120 3200,1200 3280,1200 3280,1280 3360,1200 3360,1120 "/>
<rect x="3360" y="1120" class="st0" width="160" height="160"/>
<polygon class="st1" points="3440,1120 3360,1200 3440,1200 3440,1280 3520,1200 3520,1120 "/>
<rect x="3520" y="1120" class="st0" width="160" height="160"/>
<polygon class="st1" points="3600,1120 3520,1200 3600,1200 3600,1280 3680,1200 3680,1120 "/>
<rect x="3680" y="1120" class="st0" width="160" height="160"/>
<polygon class="st1" points="3760,1120 3680,1200 3760,1200 3760,1280 3840,1200 3840,1120 "/>
<rect x="0" y="1280" class="st0" width="160" height="160"/>
<polygon class="st1" points="80,1280 0,1360 80,1360 80,1440 160,1360 160,1280 "/>
<rect x="160" y="1280" class="st0" width="160" height="160"/>
<polygon class="st1" points="240,1280 160,1360 240,1360 240,1440 320,1360 320,1280 "/>
<rect x="320" y="1280" class="st0" width="160" height="160"/>
<polygon class="st1" points="400,1280 320,1360 400,1360 400,1440 480,1360 480,1280 "/>
<rect x="480" y="1280" class="st0" width="160" height="160"/>
<polygon class="st1" points="560,1280 480,1360 560,1360 560,1440 640,1360 640,1280 "/>
<rect x="640" y="1280" class="st0" width="160" height="160"/>
<polygon class="st1" points="720,1280 640,1360 720,1360 720,1440 800,1360 800,1280 "/>
<rect x="800" y="1280" class="st0" width="160" height="160"/>
<polygon class="st1" points="880,1280 800,1360 880,1360 880,1440 960,1360 960,1280 "/>
<rect x="960" y="1280" class="st0" width="160" height="160"/>
<polygon class="st1" points="1040,1280 960,1360 1040,1360 1040,1440 1120,1360 1120,1280 "/>
<rect x="1120" y="1280" class="st0" width="160" height="160"/>
<polygon class="st1" points="1200,1280 1120,1360 1200,1360 1200,1440 1280,1360 1280,1280 "/>
<rect x="1280" y="1280" class="st0" width="160" height="160"/>
<polygon class="st1" points="1360,1280 1280,1360 1360,1360 1360,1440 1440,1360 1440,1280 "/>
<rect x="1440" y="1280" class="st0" width="160" height="160"/>
<polygon class="st1" points="1520,1280 1440,1360 1520,1360 1520,1440 1600,1360 1600,1280 "/>
<rect x="1600" y="1280" class="st0" width="160" height="160"/>
<polygon class="st1" points="1680,1280 1600,1360 1680,1360 1680,1440 1760,1360 1760,1280 "/>
<rect x="1760" y="1280" class="st0" width="160" height="160"/>
<polygon class="st1" points="1840,1280 1760,1360 1840,1360 1840,1440 1920,1360 1920,1280 "/>
<rect x="1920" y="1280" class="st0" width="160" height="160"/>
<polygon class="st1" points="2000,1280 1920,1360 2000,1360 2000,1440 2080,1360 2080,1280 "/>
<rect x="2080" y="1280" class="st0" width="160" height="160"/>
<polygon class="st1" points="2160,1280 2080,1360 2160,1360 2160,1440 2240,1360 2240,1280 "/>
<rect x="2240" y="1280" class="st0" width="160" height="160"/>
<polygon class="st1" points="2320,1280 2240,1360 2320,1360 2320,1440 2400,1360 2400,1280 "/>
<rect x="2400" y="1280" class="st0" width="160" height="160"/>
<polygon class="st1" points="2480,1280 2400,1360 2480,1360 2480,1440 2560,1360 2560,1280 "/>
<rect x="2560" y="1280" class="st0" width="160" height="160"/>
<polygon class="st1" points="2640,1280 2560,1360 2640,1360 2640,1440 2720,1360 2720,1280 "/>
<rect x="2720" y="1280" class="st0" width="160" height="160"/>
<polygon class="st1" points="2800,1280 2720,1360 2800,1360 2800,1440 2880,1360 2880,1280 "/>
<rect x="2880" y="1280" class="st0" width="160" height="160"/>
<polygon class="st1" points="2960,1280 2880,1360 2960,1360 2960,1440 3040,1360 3040,1280 "/>
<rect x="3040" y="1280" class="st0" width="160" height="160"/>
<polygon class="st1" points="3120,1280 3040,1360 3120,1360 3120,1440 3200,1360 3200,1280 "/>
<rect x="3200" y="1280" class="st0" width="160" height="160"/>
<polygon class="st1" points="3280,1280 3200,1360 3280,1360 3280,1440 3360,1360 3360,1280 "/>
<rect x="3360" y="1280" class="st0" width="160" height="160"/>
<polygon class="st1" points="3440,1280 3360,1360 3440,1360 3440,1440 3520,1360 3520,1280 "/>
<rect x="3520" y="1280" class="st0" width="160" height="160"/>
<polygon class="st1" points="3600,1280 3520,1360 3600,1360 3600,1440 3680,1360 3680,1280 "/>
<rect x="3680" y="1280" class="st0" width="160" height="160"/>
<polygon class="st1" points="3760,1280 3680,1360 3760,1360 3760,1440 3840,1360 3840,1280 "/>
<rect x="0" y="1440" class="st0" width="160" height="160"/>
<polygon class="st1" points="80,1440 0,1520 80,1520 80,1600 160,1520 160,1440 "/>
<rect x="160" y="1440" class="st0" width="160" height="160"/>
<polygon class="st1" points="240,1440 160,1520 240,1520 240,1600 320,1520 320,1440 "/>
<rect x="320" y="1440" class="st0" width="160" height="160"/>
<polygon class="st1" points="400,1440 320,1520 400,1520 400,1600 480,1520 480,1440 "/>
<rect x="480" y="1440" class="st0" width="160" height="160"/>
<polygon class="st1" points="560,1440 480,1520 560,1520 560,1600 640,1520 640,1440 "/>
<rect x="640" y="1440" class="st0" width="160" height="160"/>
<polygon class="st1" points="720,1440 640,1520 720,1520 720,1600 800,1520 800,1440 "/>
<rect x="800" y="1440" class="st0" width="160" height="160"/>
<polygon class="st1" points="880,1440 800,1520 880,1520 880,1600 960,1520 960,1440 "/>
<rect x="960" y="1440" class="st0" width="160" height="160"/>
<polygon class="st1" points="1040,1440 960,1520 1040,1520 1040,1600 1120,1520 1120,1440 "/>
<rect x="1120" y="1440" class="st0" width="160" height="160"/>
<polygon class="st1" points="1200,1440 1120,1520 1200,1520 1200,1600 1280,1520 1280,1440 "/>
<rect x="1280" y="1440" class="st0" width="160" height="160"/>
<polygon class="st1" points="1360,1440 1280,1520 1360,1520 1360,1600 1440,1520 1440,1440 "/>
<rect x="1440" y="1440" class="st0" width="160" height="160"/>
<polygon class="st1" points="1520,1440 1440,1520 1520,1520 1520,1600 1600,1520 1600,1440 "/>
<rect x="1600" y="1440" class="st0" width="160" height="160"/>
<polygon class="st1" points="1680,1440 1600,1520 1680,1520 1680,1600 1760,1520 1760,1440 "/>
<rect x="1760" y="1440" class="st0" width="160" height="160"/>
<polygon class="st1" points="1840,1440 1760,1520 1840,1520 1840,1600 1920,1520 1920,1440 "/>
<rect x="1920" y="1440" class="st0" width="160" height="160"/>
<polygon class="st1" points="2000,1440 1920,1520 2000,1520 2000,1600 2080,1520 2080,1440 "/>
<rect x="2080" y="1440" class="st0" width="160" height="160"/>
<polygon class="st1" points="2160,1440 2080,1520 2160,1520 2160,1600 2240,1520 2240,1440 "/>
<rect x="2240" y="1440" class="st0" width="160" height="160"/>
<polygon class="st1" points="2320,1440 2240,1520 2320,1520 2320,1600 2400,1520 2400,1440 "/>
<rect x="2400" y="1440" class="st0" width="160" height="160"/>
<polygon class="st1" points="2480,1440 2400,1520 2480,1520 2480,1600 2560,1520 2560,1440 "/>
<rect x="2560" y="1440" class="st0" width="160" height="160"/>
<polygon class="st1" points="2640,1440 2560,1520 2640,1520 2640,1600 2720,1520 2720,1440 "/>
<rect x="2720" y="1440" class="st0" width="160" height="160"/>
<polygon class="st1" points="2800,1440 2720,1520 2800,1520 2800,1600 2880,1520 2880,1440 "/>
<rect x="2880" y="1440" class="st0" width="160" height="160"/>
<polygon class="st1" points="2960,1440 2880,1520 2960,1520 2960,1600 3040,1520 3040,1440 "/>
<rect x="3040" y="1440" class="st0" width="160" height="160"/>
<polygon class="st1" points="3120,1440 3040,1520 3120,1520 3120,1600 3200,1520 3200,1440 "/>
<rect x="3200" y="1440" class="st0" width="160" height="160"/>
<polygon class="st1" points="3280,1440 3200,1520 3280,1520 3280,1600 3360,1520 3360,1440 "/>
<rect x="3360" y="1440" class="st0" width="160" height="160"/>
<polygon class="st1" points="3440,1440 3360,1520 3440,1520 3440,1600 3520,1520 3520,1440 "/>
<rect x="3520" y="1440" class="st0" width="160" height="160"/>
<polygon class="st1" points="3600,1440 3520,1520 3600,1520 3600,1600 3680,1520 3680,1440 "/>
<rect x="3680" y="1440" class="st0" width="160" height="160"/>
<polygon class="st1" points="3760,1440 3680,1520 3760,1520 3760,1600 3840,1520 3840,1440 "/>
<rect x="0" y="1600" class="st0" width="160" height="160"/>
<polygon class="st1" points="80,1600 0,1680 80,1680 80,1760 160,1680 160,1600 "/>
<rect x="160" y="1600" class="st0" width="160" height="160"/>
<polygon class="st1" points="240,1600 160,1680 240,1680 240,1760 320,1680 320,1600 "/>
<rect x="320" y="1600" class="st0" width="160" height="160"/>
<polygon class="st1" points="400,1600 320,1680 400,1680 400,1760 480,1680 480,1600 "/>
<rect x="480" y="1600" class="st0" width="160" height="160"/>
<polygon class="st1" points="560,1600 480,1680 560,1680 560,1760 640,1680 640,1600 "/>
<rect x="640" y="1600" class="st0" width="160" height="160"/>
<polygon class="st1" points="720,1600 640,1680 720,1680 720,1760 800,1680 800,1600 "/>
<rect x="800" y="1600" class="st0" width="160" height="160"/>
<polygon class="st1" points="880,1600 800,1680 880,1680 880,1760 960,1680 960,1600 "/>
<rect x="960" y="1600" class="st0" width="160" height="160"/>
<polygon class="st1" points="1040,1600 960,1680 1040,1680 1040,1760 1120,1680 1120,1600 "/>
<rect x="1120" y="1600" class="st0" width="160" height="160"/>
<polygon class="st1" points="1200,1600 1120,1680 1200,1680 1200,1760 1280,1680 1280,1600 "/>
<rect x="1280" y="1600" class="st0" width="160" height="160"/>
<polygon class="st1" points="1360,1600 1280,1680 1360,1680 1360,1760 1440,1680 1440,1600 "/>
<rect x="1440" y="1600" class="st0" width="160" height="160"/>
<polygon class="st1" points="1520,1600 1440,1680 1520,1680 1520,1760 1600,1680 1600,1600 "/>
<rect x="1600" y="1600" class="st0" width="160" height="160"/>
<polygon class="st1" points="1680,1600 1600,1680 1680,1680 1680,1760 1760,1680 1760,1600 "/>
<rect x="1760" y="1600" class="st0" width="160" height="160"/>
<polygon class="st1" points="1840,1600 1760,1680 1840,1680 1840,1760 1920,1680 1920,1600 "/>
<rect x="1920" y="1600" class="st0" width="160" height="160"/>
<polygon class="st1" points="2000,1600 1920,1680 2000,1680 2000,1760 2080,1680 2080,1600 "/>
<rect x="2080" y="1600" class="st0" width="160" height="160"/>
<polygon class="st1" points="2160,1600 2080,1680 2160,1680 2160,1760 2240,1680 2240,1600 "/>
<rect x="2240" y="1600" class="st0" width="160" height="160"/>
<polygon class="st1" points="2320,1600 2240,1680 2320,1680 2320,1760 2400,1680 2400,1600 "/>
<rect x="2400" y="1600" class="st0" width="160" height="160"/>
<polygon class="st1" points="2480,1600 2400,1680 2480,1680 2480,1760 2560,1680 2560,1600 "/>
<rect x="2560" y="1600" class="st0" width="160" height="160"/>
<polygon class="st1" points="2640,1600 2560,1680 2640,1680 2640,1760 2720,1680 2720,1600 "/>
<rect x="2720" y="1600" class="st0" width="160" height="160"/>
<polygon class="st1" points="2800,1600 2720,1680 2800,1680 2800,1760 2880,1680 2880,1600 "/>
<rect x="2880" y="1600" class="st0" width="160" height="160"/>
<polygon class="st1" points="2960,1600 2880,1680 2960,1680 2960,1760 3040,1680 3040,1600 "/>
<rect x="3040" y="1600" class="st0" width="160" height="160"/>
<polygon class="st1" points="3120,1600 3040,1680 3120,1680 3120,1760 3200,1680 3200,1600 "/>
<rect x="3200" y="1600" class="st0" width="160" height="160"/>
<polygon class="st1" points="3280,1600 3200,1680 3280,1680 3280,1760 3360,1680 3360,1600 "/>
<rect x="3360" y="1600" class="st0" width="160" height="160"/>
<polygon class="st1" points="3440,1600 3360,1680 3440,1680 3440,1760 3520,1680 3520,1600 "/>
<rect x="3520" y="1600" class="st0" width="160" height="160"/>
<polygon class="st1" points="3600,1600 3520,1680 3600,1680 3600,1760 3680,1680 3680,1600 "/>
<rect x="3680" y="1600" class="st0" width="160" height="160"/>
<polygon class="st1" points="3760,1600 3680,1680 3760,1680 3760,1760 3840,1680 3840,1600 "/>
<rect x="0" y="1760" class="st0" width="160" height="160"/>
<polygon class="st1" points="80,1760 0,1840 80,1840 80,1920 160,1840 160,1760 "/>
<rect x="160" y="1760" class="st0" width="160" height="160"/>
<polygon class="st1" points="240,1760 160,1840 240,1840 240,1920 320,1840 320,1760 "/>
<rect x="320" y="1760" class="st0" width="160" height="160"/>
<polygon class="st1" points="400,1760 320,1840 400,1840 400,1920 480,1840 480,1760 "/>
<rect x="480" y="1760" class="st0" width="160" height="160"/>
<polygon class="st1" points="560,1760 480,1840 560,1840 560,1920 640,1840 640,1760 "/>
<rect x="640" y="1760" class="st0" width="160" height="160"/>
<polygon class="st1" points="720,1760 640,1840 720,1840 720,1920 800,1840 800,1760 "/>
<rect x="800" y="1760" class="st0" width="160" height="160"/>
<polygon class="st1" points="880,1760 800,1840 880,1840 880,1920 960,1840 960,1760 "/>
<rect x="960" y="1760" class="st0" width="160" height="160"/>
<polygon class="st1" points="1040,1760 960,1840 1040,1840 1040,1920 1120,1840 1120,1760 "/>
<rect x="1120" y="1760" class="st0" width="160" height="160"/>
<polygon class="st1" points="1200,1760 1120,1840 1200,1840 1200,1920 1280,1840 1280,1760 "/>
<rect x="1280" y="1760" class="st0" width="160" height="160"/>
<polygon class="st1" points="1360,1760 1280,1840 1360,1840 1360,1920 1440,1840 1440,1760 "/>
<rect x="1440" y="1760" class="st0" width="160" height="160"/>
<polygon class="st1" points="1520,1760 1440,1840 1520,1840 1520,1920 1600,1840 1600,1760 "/>
<rect x="1600" y="1760" class="st0" width="160" height="160"/>
<polygon class="st1" points="1680,1760 1600,1840 1680,1840 1680,1920 1760,1840 1760,1760 "/>
<rect x="1760" y="1760" class="st0" width="160" height="160"/>
<polygon class="st1" points="1840,1760 1760,1840 1840,1840 1840,1920 1920,1840 1920,1760 "/>
<rect x="1920" y="1760" class="st0" width="160" height="160"/>
<polygon class="st1" points="2000,1760 1920,1840 2000,1840 2000,1920 2080,1840 2080,1760 "/>
<rect x="2080" y="1760" class="st0" width="160" height="160"/>
<polygon class="st1" points="2160,1760 2080,1840 2160,1840 2160,1920 2240,1840 2240,1760 "/>
<rect x="2240" y="1760" class="st0" width="160" height="160"/>
<polygon class="st1" points="2320,1760 2240,1840 2320,1840 2320,1920 2400,1840 2400,1760 "/>
<rect x="2400" y="1760" class="st0" width="160" height="160"/>
<polygon class="st1" points="2480,1760 2400,1840 2480,1840 2480,1920 2560,1840 2560,1760 "/>
<rect x="2560" y="1760" class="st0" width="160" height="160"/>
<polygon class="st1" points="2640,1760 2560,1840 2640,1840 2640,1920 2720,1840 2720,1760 "/>
<rect x="2720" y="1760" class="st0" width="160" height="160"/>
<polygon class="st1" points="2800,1760 2720,1840 2800,1840 2800,1920 2880,1840 2880,1760 "/>
<rect x="2880" y="1760" class="st0" width="160" height="160"/>
<polygon class="st1" points="2960,1760 2880,1840 2960,1840 2960,1920 3040,1840 3040,1760 "/>
<rect x="3040" y="1760" class="st0" width="160" height="160"/>
<polygon class="st1" points="3120,1760 3040,1840 3120,1840 3120,1920 3200,1840 3200,1760 "/>
<rect x="3200" y="1760" class="st0" width="160" height="160"/>
<polygon class="st1" points="3280,1760 3200,1840 3280,1840 3280,1920 3360,1840 3360,1760 "/>
<rect x="3360" y="1760" class="st0" width="160" height="160"/>
<polygon class="st1" points="3440,1760 3360,1840 3440,1840 3440,1920 3520,1840 3520,1760 "/>
<rect x="3520" y="1760" class="st0" width="160" height="160"/>
<polygon class="st1" points="3600,1760 3520,1840 3600,1840 3600,1920 3680,1840 3680,1760 "/>
<rect x="3680" y="1760" class="st0" width="160" height="160"/>
<polygon class="st1" points="3760,1760 3680,1840 3760,1840 3760,1920 3840,1840 3840,1760 "/>
<rect x="0" y="1920" class="st0" width="160" height="160"/>
<polygon class="st1" points="80,1920 0,2000 80,2000 80,2080 160,2000 160,1920 "/>
<rect x="160" y="1920" class="st0" width="160" height="160"/>
<polygon class="st1" points="240,1920 160,2000 240,2000 240,2080 320,2000 320,1920 "/>
<rect x="320" y="1920" class="st0" width="160" height="160"/>
<polygon class="st1" points="400,1920 320,2000 400,2000 400,2080 480,2000 480,1920 "/>
<rect x="480" y="1920" class="st0" width="160" height="160"/>
<polygon class="st1" points="560,1920 480,2000 560,2000 560,2080 640,2000 640,1920 "/>
<rect x="640" y="1920" class="st0" width="160" height="160"/>
<polygon class="st1" points="720,1920 640,2000 720,2000 720,2080 800,2000 800,1920 "/>
<rect x="800" y="1920" class="st0" width="160" height="160"/>
<polygon class="st1" points="880,1920 800,2000 880,2000 880,2080 960,2000 960,1920 "/>
<rect x="960" y="1920" class="st0" width="160" height="160"/>
<polygon class="st1" points="1040,1920 960,2000 1040,2000 1040,2080 1120,2000 1120,1920 "/>
<rect x="1120" y="1920" class="st0" width="160" height="160"/>
<polygon class="st1" points="1200,1920 1120,2000 1200,2000 1200,2080 1280,2000 1280,1920 "/>
<rect x="1280" y="1920" class="st0" width="160" height="160"/>
<polygon class="st1" points="1360,1920 1280,2000 1360,2000 1360,2080 1440,2000 1440,1920 "/>
<rect x="1440" y="1920" class="st0" width="160" height="160"/>
<polygon class="st1" points="1520,1920 1440,2000 1520,2000 1520,2080 1600,2000 1600,1920 "/>
<rect x="1600" y="1920" class="st0" width="160" height="160"/>
<polygon class="st1" points="1680,1920 1600,2000 1680,2000 1680,2080 1760,2000 1760,1920 "/>
<rect x="1760" y="1920" class="st0" width="160" height="160"/>
<polygon class="st1" points="1840,1920 1760,2000 1840,2000 1840,2080 1920,2000 1920,1920 "/>
<rect x="1920" y="1920" class="st0" width="160" height="160"/>
<polygon class="st1" points="2000,1920 1920,2000 2000,2000 2000,2080 2080,2000 2080,1920 "/>
<rect x="2080" y="1920" class="st0" width="160" height="160"/>
<polygon class="st1" points="2160,1920 2080,2000 2160,2000 2160,2080 2240,2000 2240,1920 "/>
<rect x="2240" y="1920" class="st0" width="160" height="160"/>
<polygon class="st1" points="2320,1920 2240,2000 2320,2000 2320,2080 2400,2000 2400,1920 "/>
<rect x="2400" y="1920" class="st0" width="160" height="160"/>
<polygon class="st1" points="2480,1920 2400,2000 2480,2000 2480,2080 2560,2000 2560,1920 "/>
<rect x="2560" y="1920" class="st0" width="160" height="160"/>
<polygon class="st1" points="2640,1920 2560,2000 2640,2000 2640,2080 2720,2000 2720,1920 "/>
<rect x="2720" y="1920" class="st0" width="160" height="160"/>
<polygon class="st1" points="2800,1920 2720,2000 2800,2000 2800,2080 2880,2000 2880,1920 "/>
<rect x="2880" y="1920" class="st0" width="160" height="160"/>
<polygon class="st1" points="2960,1920 2880,2000 2960,2000 2960,2080 3040,2000 3040,1920 "/>
<rect x="3040" y="1920" class="st0" width="160" height="160"/>
<polygon class="st1" points="3120,1920 3040,2000 3120,2000 3120,2080 3200,2000 3200,1920 "/>
<rect x="3200" y="1920" class="st0" width="160" height="160"/>
<polygon class="st1" points="3280,1920 3200,2000 3280,2000 3280,2080 3360,2000 3360,1920 "/>
<rect x="3360" y="1920" class="st0" width="160" height="160"/>
<polygon class="st1" points="3440,1920 3360,2000 3440,2000 3440,2080 3520,2000 3520,1920 "/>
<rect x="3520" y="1920" class="st0" width="160" height="160"/>
<polygon class="st1" points="3600,1920 3520,2000 3600,2000 3600,2080 3680,2000 3680,1920 "/>
<rect x="3680" y="1920" class="st0" width="160" height="160"/>
<polygon class="st1" points="3760,1920 3680,2000 3760,2000 3760,2080 3840,2000 3840,1920 "/>
<rect x="0" y="2080" class="st0" width="160" height="160"/>
<polygon class="st1" points="80,2080 0,2160 80,2160 80,2240 160,2160 160,2080 "/>
<rect x="160" y="2080" class="st0" width="160" height="160"/>
<polygon class="st1" points="240,2080 160,2160 240,2160 240,2240 320,2160 320,2080 "/>
<rect x="320" y="2080" class="st0" width="160" height="160"/>
<polygon class="st1" points="400,2080 320,2160 400,2160 400,2240 480,2160 480,2080 "/>
<rect x="480" y="2080" class="st0" width="160" height="160"/>
<polygon class="st1" points="560,2080 480,2160 560,2160 560,2240 640,2160 640,2080 "/>
<rect x="640" y="2080" class="st0" width="160" height="160"/>
<polygon class="st1" points="720,2080 640,2160 720,2160 720,2240 800,2160 800,2080 "/>
<rect x="800" y="2080" class="st0" width="160" height="160"/>
<polygon class="st1" points="880,2080 800,2160 880,2160 880,2240 960,2160 960,2080 "/>
<rect x="960" y="2080" class="st0" width="160" height="160"/>
<polygon class="st1" points="1040,2080 960,2160 1040,2160 1040,2240 1120,2160 1120,2080 "/>
<rect x="1120" y="2080" class="st0" width="160" height="160"/>
<polygon class="st1" points="1200,2080 1120,2160 1200,2160 1200,2240 1280,2160 1280,2080 "/>
<rect x="1280" y="2080" class="st0" width="160" height="160"/>
<polygon class="st1" points="1360,2080 1280,2160 1360,2160 1360,2240 1440,2160 1440,2080 "/>
<rect x="1440" y="2080" class="st0" width="160" height="160"/>
<polygon class="st1" points="1520,2080 1440,2160 1520,2160 1520,2240 1600,2160 1600,2080 "/>
<rect x="1600" y="2080" class="st0" width="160" height="160"/>
<polygon class="st1" points="1680,2080 1600,2160 1680,2160 1680,2240 1760,2160 1760,2080 "/>
<rect x="1760" y="2080" class="st0" width="160" height="160"/>
<polygon class="st1" points="1840,2080 1760,2160 1840,2160 1840,2240 1920,2160 1920,2080 "/>
<rect x="1920" y="2080" class="st0" width="160" height="160"/>
<polygon class="st1" points="2000,2080 1920,2160 2000,2160 2000,2240 2080,2160 2080,2080 "/>
<rect x="2080" y="2080" class="st0" width="160" height="160"/>
<polygon class="st1" points="2160,2080 2080,2160 2160,2160 2160,2240 2240,2160 2240,2080 "/>
<rect x="2240" y="2080" class="st0" width="160" height="160"/>
<polygon class="st1" points="2320,2080 2240,2160 2320,2160 2320,2240 2400,2160 2400,2080 "/>
<rect x="2400" y="2080" class="st0" width="160" height="160"/>
<polygon class="st1" points="2480,2080 2400,2160 2480,2160 2480,2240 2560,2160 2560,2080 "/>
<rect x="2560" y="2080" class="st0" width="160" height="160"/>
<polygon class="st1" points="2640,2080 2560,2160 2640,2160 2640,2240 2720,2160 2720,2080 "/>
<rect x="2720" y="2080" class="st0" width="160" height="160"/>
<polygon class="st1" points="2800,2080 2720,2160 2800,2160 2800,2240 2880,2160 2880,2080 "/>
<rect x="2880" y="2080" class="st0" width="160" height="160"/>
<polygon class="st1" points="2960,2080 2880,2160 2960,2160 2960,2240 3040,2160 3040,2080 "/>
<rect x="3040" y="2080" class="st0" width="160" height="160"/>
<polygon class="st1" points="3120,2080 3040,2160 3120,2160 3120,2240 3200,2160 3200,2080 "/>
<rect x="3200" y="2080" class="st0" width="160" height="160"/>
<polygon class="st1" points="3280,2080 3200,2160 3280,2160 3280,2240 3360,2160 3360,2080 "/>
<rect x="3360" y="2080" class="st0" width="160" height="160"/>
<polygon class="st1" points="3440,2080 3360,2160 3440,2160 3440,2240 3520,2160 3520,2080 "/>
<rect x="3520" y="2080" class="st0" width="160" height="160"/>
<polygon class="st1" points="3600,2080 3520,2160 3600,2160 3600,2240 3680,2160 3680,2080 "/>
<rect x="3680" y="2080" class="st0" width="160" height="160"/>
<polygon class="st1" points="3760,2080 3680,2160 3760,2160 3760,2240 3840,2160 3840,2080 "/>
</svg>
