<?xml version="1.0" encoding="utf-8"?>
<!-- Generator: Adobe Illustrator 23.0.3, SVG Export Plug-In . SVG Version: 6.00 Build 0)  -->
<svg version="1.1" id="Layer_1" xmlns="http://www.w3.org/2000/svg" xmlns:xlink="http://www.w3.org/1999/xlink" x="0px" y="0px"
	 viewBox="0 0 2000 2000" style="enable-background:new 0 0 2000 2000;" xml:space="preserve">
<style type="text/css">
	.st0{fill:#5E3535;}
	.st1{fill:#B58181;}
	.st2{fill:#FF864A;}
	.st3{opacity:0.5;fill:#FFEEA9;}
	.st4{fill:#BA7343;}
	.st5{fill:#C13B25;}
	.st6{opacity:0.5;fill:#9D4000;}
	.st7{fill:#EA4E2A;}
	.st8{fill:#9E663C;}
	.st9{fill:#C2A0E8;}
	.st10{fill:#FFB948;}
	.st11{fill:#823027;}
	.st12{fill:#60201B;}
	.st13{fill:#45938A;}
	.st14{fill:#65C9C0;}
	.st15{fill:#52A399;}
	.st16{fill:#FFEEA9;}
	.st17{fill:#BF3C32;}
	.st18{fill:#FF8ADB;}
	.st19{opacity:0.4;fill:#823027;}
	.st20{fill:#C98727;}
	.st21{fill:#AA5900;}
	.st22{fill:#4BAD9F;}
	.st23{fill:#3F897D;}
	.st24{fill:#DB9023;}
	.st25{fill:#A9C9C4;}
	.st26{fill:#CC8F66;}
	.st27{fill:#FFA561;}
	.st28{fill:#8E5C5A;}
	.st29{fill:#FFE04A;}
	.st30{fill:#FFD2B3;}
	.st31{opacity:0.2;fill:#FFEEA9;}
</style>
<polygon class="st0" points="314.7,1375.9 238.5,1390.3 224,1458.4 323.7,1435.7 "/>
<polygon class="st1" points="352.5,655.2 347.2,654.5 280.3,1307.4 285.6,1308.1 "/>
<polygon class="st1" points="304.1,808.5 298.7,808.2 274.2,1327.3 279.6,1327.6 "/>
<polygon class="st1" points="218.3,709.7 213,710.3 270.8,1301.8 276.1,1301.1 "/>
<path class="st0" d="M289.5,1295c0.4-8.1-5-15-12.1-15.6l-3.7-0.3c-3.2-0.3-6.4,1.1-8.7,3.6c-2.3,2.6-3.6,6.1-3.5,9.8l4.6,155.9
	h16.1L289.5,1295z"/>
<path class="st2" d="M417.8,101.2c-165-25.1-169.5,240.3-49.5,421.8C496.9,390.1,583,126.4,417.8,101.2z"/>
<path class="st3" d="M423.3,102.4c-1.9-0.4-3.6-0.8-5.5-1.1c-88.8-13.5-131.1,57.2-132.5,153.7C356.3,216.5,412.6,161.2,423.3,102.4
	z"/>
<polygon class="st4" points="441.4,817.9 538.8,811.7 434.6,533.7 "/>
<polygon class="st4" points="414.9,773.2 513,780.7 424.9,491.5 "/>
<polygon class="st5" points="1774.7,418.9 1703.1,479.6 1618.8,197 "/>
<polygon class="st5" points="1768,367 1703.6,438.6 1601.6,158.3 "/>
<polygon class="st4" points="397.7,713.5 495.8,732.6 414.7,421.6 "/>
<path class="st6" d="M2000,1793.3c-419.3-113.7-1245.8-50.7-1898.9,12.5C716.2,2063.3,1633.6,2070.3,2000,1793.3z"/>
<polygon class="st7" points="1561,1544.7 616.9,1544.7 630.3,1695.5 1561,1694 "/>
<polygon class="st7" points="1562.3,1707.7 631.6,1704.6 645,1826.5 1554.3,1823.5 "/>
<path class="st8" d="M1885.7,601.2c1.7-33.1-15.8-56.5-53.6-59c-37.7-2.5-92.1,20.8-93.8,53.9c-1.7,33.1,50,63.5,87.8,65.9
	C1863.8,664.5,1884,634.2,1885.7,601.2z"/>
<path class="st8" d="M1880.4,843.8c8-35.1-1.8-64.1-41.9-75.9c-40.1-11.8-79.9,8.3-87.9,43.4c-8,35.1,23.7,78,63.7,89.8
	C1854.4,913,1872.4,878.9,1880.4,843.8z"/>
<path class="st9" d="M101,23.9C-89.8,63,12.7,513.8,217.5,761.2C304.5,472.9,292.1-15.3,101,23.9z"/>
<path class="st10" d="M308.8,212.5c-171-2.1-147.7,407.8-6.3,660.8C419.8,639.9,480.1,214.6,308.8,212.5z"/>
<path class="st3" d="M299.4,212.8C168.3,223.4,160.9,491.4,238,724.5C325.5,535.4,374.6,293.5,299.4,212.8z"/>
<polygon class="st7" points="1538.3,1825 1638.5,143.2 413.6,417.4 672.9,1825 "/>
<g>
	<polygon class="st5" points="1638.5,143.2 413.6,417.4 486.3,802.6 1432.8,673.1 1490.9,977.1 1583.3,1055.4 	"/>
</g>
<path class="st11" d="M1569,301.6L493.9,539.3l181.9,944.5h818.4C1523.4,1026.9,1546.3,499,1569,301.6z"/>
<path class="st12" d="M1145,1070.4c-32.4-9.9-51.7-2.2-82.9,0.3l12.2,41.1l-9.2,59.4l74.6-1.1l-5.4-41.1L1145,1070.4z"/>
<path class="st12" d="M1140.7,1258.6c-28.7-15.6-48.5-13.4-85-19.7l14.8,43.8l-11.3,56.6l75.1-0.9l-3.7-33.3L1140.7,1258.6z"/>
<path class="st12" d="M1006.2,1278.1c-21-11.5-35.5-9.9-62.3-14.5l10.9,32.1l-8.3,41.5l55.1-0.7l-2.7-24.4L1006.2,1278.1z"/>
<path class="st12" d="M1282.9,1276.9c-22.2-12.1-37.5-10.4-65.8-15.3l11.5,33.9l-8.7,43.8l58.1-0.7l-2.9-25.8L1282.9,1276.9z"/>
<path class="st12" d="M1213.1,1079.9c-33-6.9-43.1-5.6-74-0.4l15,39.8l-5,60.1l74.3-7.9l-8.2-40.5L1213.1,1079.9z"/>
<path class="st12" d="M1034.2,1097.6c-28.7-3-56.2-24-87.5-25.1l-1.4,45.7l10.5,64.5l74.4,7.2l-1.8-41.5L1034.2,1097.6z"/>
<polygon class="st12" points="1277.2,1136.2 892.7,1165.5 909.8,1191.2 1296.5,1193.7 "/>
<polygon class="st12" points="1356.6,1325.8 802.5,1362.5 819.6,1388.2 1373.8,1401.7 "/>
<polygon class="st12" points="746.9,561.2 816.8,1561.1 775.2,550.8 "/>
<polygon class="st12" points="1209.8,604 1229.8,1465.2 1238.5,597.6 "/>
<polygon class="st12" points="963.3,494.5 994.5,1567.2 991.9,484.6 "/>
<polygon class="st12" points="1426.8,551.1 1375.4,1561.9 1456,545.1 "/>
<polygon class="st12" points="1495.2,1478.8 1561.8,345.8 1527.4,333.5 1478,1488.6 "/>
<path class="st12" d="M1335.7,914.6c-85.4,71.1-19.1,261.4,89.2,247.7C1522.7,1065.9,1424.5,906.1,1335.7,914.6z"/>
<path class="st13" d="M897.7,708c-145.2,46.2-276.9,29.7-299.7-36.3c0.3,1.9,0.6,3.8,1.1,5.6c17.3,70.5,152.2,89.2,301.3,41.7
	c149.1-47.5,256-143.1,238.7-213.6c-0.5-1.8-1-3.6-1.6-5.4C1147.9,569.8,1042.9,661.7,897.7,708z"/>
<path class="st14" d="M1279.2,744.9c-188.3,0-341.7-101.4-349.6-228.5c-0.2,3.4-0.4,6.8-0.4,10.3c0,131.9,156.7,238.8,350,238.8
	s350-106.9,350-238.8c0-3.5-0.2-6.9-0.4-10.3C1620.9,643.5,1467.4,744.9,1279.2,744.9z"/>
<path class="st15" d="M1279.3,741C1091,741,938.9,628,931,500.9c-0.2,3.4-0.4,6.8-0.4,10.3c0,131.9,156.7,238.8,350,238.8
	c193.3,0,350-106.9,350-238.8c0-3.5-0.2-6.9-0.4-10.3C1622.3,628,1467.6,741,1279.3,741z"/>
<rect x="947.4" y="593.1" class="st14" width="4.3" height="65.3"/>
<path class="st16" d="M1161.2,265.6L904.4,326l34.4,293.8c44.1,44.2,164.8,56.5,234.3-7.5L1161.2,265.6z"/>
<polygon class="st12" points="466.2,443.7 502.8,448.5 721.9,1488.6 666,1491 "/>
<polygon class="st17" points="510.1,544.4 690.5,1481.3 825.7,1479.6 "/>
<path class="st16" d="M674.4,372.5L419,430.6l20,279c40.1,51.8,205.3,37.6,253.4-44.6L674.4,372.5z"/>
<path class="st18" d="M919.1,323.5l-246.1,45.1l16.1,301.6c49.5,70.1,189.9,28.9,250.1-48.7L919.1,323.5z"/>
<path class="st18" d="M1368.4,228.5l-212.6,36.6l14.7,345.8c69.5,47.2,189.9,19.8,258.1-71.6L1368.4,228.5z"/>
<path class="st8" d="M1836.7,682.9c-14.1-141.7-105.9-246.2-204.9-233.4c-96.3,25.8-173.1,144-153.8,279.7
	c14.1,141.7,105.8,246.2,204.9,233.4C1781.9,949.8,1850.7,824.6,1836.7,682.9z"/>
<path class="st19" d="M1642,843.5c10.2-31-10.3-68.4-45.7-83.5c-35.4-15-72.3-2.1-82.5,29c-10.2,31,10.3,68.4,45.7,83.4
	C1594.9,887.6,1631.9,874.6,1642,843.5z"/>
<path class="st10" d="M1807.4,722.9c-5.2-69.8-42.9-123.1-84.3-119.2c-41.4,4-70.8,63.8-65.6,133.6c5.2,69.8,42.9,123.1,84.3,119.2
	C1783.2,852.5,1812.6,792.7,1807.4,722.9z"/>
<path class="st19" d="M1744.9,487.3c-33.3-28.6-72.6-43-113.2-37.8c-96.3,25.8-173.1,144-153.8,279.7c0.7,7.2,1.7,14.2,2.8,21.1
	C1600.6,776.3,1796.6,688.4,1744.9,487.3z"/>
<path class="st8" d="M1722.1,434.4c-26.8-71.4-77.3-103.6-143.1-71.5c-65.8,32.1-136.7,134.9-109.9,206.3
	c56.9,125.7,238.8,55.6,234.5-13C1745.1,572.5,1772.3,473,1722.1,434.4z"/>
<path class="st19" d="M1609.5,500.1c-4.8-13.4-14-21.7-20.5-18.7c-6.6,3-8.1,16.3-3.3,29.7c4.8,13.4,14,21.7,20.6,18.7
	C1612.8,526.8,1614.3,513.5,1609.5,500.1z"/>
<path class="st19" d="M1689.7,436.5c-4.8-13.4-14-21.7-20.5-18.7c-6.6,3-8.1,16.3-3.3,29.7c4.8,13.4,14,21.7,20.6,18.7
	C1693,463.2,1694.5,449.9,1689.7,436.5z"/>
<path class="st16" d="M1621.2,168.1l-256.8,60.4l64.2,315.3c60.2,54.8,267.2-93.6,299.3-139.3L1621.2,168.1z"/>
<polygon class="st10" points="1598.4,1467 574.1,1467 571.4,1541.6 1590.4,1540.1 "/>
<polygon class="st20" points="1471,1467.8 1201.4,1468.4 1247.6,1540.6 1423.2,1541.2 "/>
<polygon class="st20" points="1600.5,1464.9 1487.3,1466.5 1454.4,1541.6 1600.5,1536.7 "/>
<g>
	<polygon class="st5" points="1555.3,1540.1 612.9,1537.1 623.6,1616.3 1560.7,1694.1 	"/>
</g>
<g>
	<polygon class="st5" points="1553.2,1675.8 628.4,1675.8 630.6,1695.3 647.8,1694.1 651.2,1705.1 1546.7,1706.3 	"/>
</g>
<rect x="1236" y="1352.7" class="st21" width="24.1" height="59.4"/>
<rect x="913.1" y="1352.7" class="st21" width="24.1" height="59.4"/>
<rect x="965.2" y="1163.1" class="st21" width="24.1" height="59.4"/>
<rect x="1161.8" y="1151.7" class="st21" width="24.1" height="70.8"/>
<path class="st14" d="M1106.3,1044.3c-32.4-9.9-51.7-2.2-82.9,0.3l12.2,41.1l-9.2,59.4l74.6-1.1l-5.4-41.1L1106.3,1044.3z"/>
<g>
	<path class="st22" d="M1101,1144l-5.4-41.1l10.7-58.6c-17.8-5.5-31.7-5.5-45.8-4.1l5.7,49.5l-5.7,54.9L1101,1144z"/>
</g>
<path class="st14" d="M935.4,1074.9c-15.8,19.7-18.4,42.4-15,69.6l40,1.5l30.7,13.2c13.3-19.6,23.3-32.9,16.1-60.4l-35.1-7.7
	L935.4,1074.9z"/>
<g>
	<path class="st22" d="M964.3,1117.1c0,0-27.4,8.8-45,14.2c0.2,4.3,0.5,8.7,1.1,13.3l40,1.5l30.7,13.2
		c13.3-19.6,23.3-32.9,16.1-60.4l-0.9-0.2l-14.4,18.9L964.3,1117.1z"/>
</g>
<path class="st14" d="M1185.1,1068.2c-23.5-7.7-37.5-1.7-60.1,0.2l8.8,32l-6.7,46.3l54.1-0.8l-3.9-32L1185.1,1068.2z"/>
<g>
	<path class="st22" d="M1181.3,1145.9l-3.9-32l7.8-45.6c-12.9-4.3-23-4.3-33.2-3.2l4.2,38.5l-4.2,42.8L1181.3,1145.9z"/>
</g>
<polygon class="st23" points="1145,1102.5 1155.6,1098.8 1171,1105 "/>
<path class="st23" d="M1141.7,1111.4c0.3-0.2,28.9,2.6,28.9,2.6l-15.8,4.1L1141.7,1111.4z"/>
<polygon class="st23" points="1155.6,1084.5 1145,1093.3 1155.2,1091.9 1170.6,1093.3 "/>
<path class="st14" d="M982.5,1250.6c-24-8.7-38.2-1.9-61.3,0.2l9,36.2l-6.8,52.3l55.2-0.9l-4-36.2L982.5,1250.6z"/>
<g>
	<path class="st22" d="M978.6,1338.4l-4-36.2l7.9-51.6c-13.2-4.8-23.4-4.9-33.8-3.6l4.2,43.5l-4.2,48.4L978.6,1338.4z"/>
</g>
<polygon class="st23" points="941.6,1289.3 952.4,1285.2 968.1,1292.2 "/>
<path class="st23" d="M938.2,1299.4c0.3-0.2,29.5,3,29.5,3l-16.1,4.6L938.2,1299.4z"/>
<polygon class="st23" points="952.4,1269 941.6,1279 952,1277.4 967.7,1279 "/>
<path class="st14" d="M1102.1,1232.1c-29-10.8-46.3-2.4-74.2,0.3l10.9,44.7l-8.3,64.7l66.8-1.2l-4.8-44.8L1102.1,1232.1z"/>
<g>
	<path class="st22" d="M1097.3,1340.6l-4.8-44.8l9.6-63.8c-15.9-5.9-28.4-6-40.9-4.5l5.1,53.8l-5.1,59.8L1097.3,1340.6z"/>
</g>
<polygon class="st23" points="1052.5,1279.9 1065.6,1274.8 1084.6,1283.5 "/>
<path class="st23" d="M1048.4,1292.4c0.4-0.2,35.7,3.7,35.7,3.7l-19.5,5.7L1048.4,1292.4z"/>
<polygon class="st23" points="1065.6,1254.8 1052.5,1267.2 1065.1,1265.2 1084.1,1267.2 "/>
<path class="st14" d="M1250.3,1253.9c-24.2-8.7-38.7-1.9-62,0.2l9.1,35.9l-6.9,51.9l55.8-0.9l-4-35.9L1250.3,1253.9z"/>
<g>
	<path class="st22" d="M1246.3,1340.9l-4-35.9l8-51.1c-13.3-4.8-23.7-4.8-34.2-3.6l4.3,43.2l-4.3,47.9L1246.3,1340.9z"/>
</g>
<polygon class="st23" points="1208.9,1292.2 1219.8,1288.1 1235.7,1295 "/>
<path class="st23" d="M1205.5,1302.2c0.3-0.2,29.8,2.9,29.8,2.9l-16.3,4.5L1205.5,1302.2z"/>
<polygon class="st23" points="1219.8,1272.1 1208.9,1282 1219.4,1280.4 1235.3,1282 "/>
<polygon class="st24" points="1277.5,1134.9 883,1141 885.7,1165.4 1276.2,1156.2 "/>
<path class="st25" d="M1314.3,812.3c0-13.3-9.4-24-21.1-24s-21.1,10.7-21.1,24c0,13.2,9.4,24,21.1,24S1314.3,825.6,1314.3,812.3z"/>
<path class="st25" d="M1389.5,797.5c0-13.2-9.4-24-21.1-24c-11.6,0-21.1,10.7-21.1,24c0,13.3,9.4,24,21.1,24
	C1380.1,821.5,1389.5,810.7,1389.5,797.5z"/>
<path class="st25" d="M1222,806.6c0-13.3-9.4-24-21.1-24s-21.1,10.7-21.1,24c0,13.2,9.4,24,21.1,24S1222,819.9,1222,806.6z"/>
<path class="st25" d="M1129.7,781.5c0-13.3-9.4-24-21.1-24c-11.6,0-21.1,10.7-21.1,24c0,13.2,9.4,24,21.1,24
	C1120.3,805.5,1129.7,794.7,1129.7,781.5z"/>
<path class="st25" d="M1033.4,728.9c0-13.2-9.4-24-21.1-24c-11.6,0-21.1,10.7-21.1,24c0,13.3,9.4,24,21.1,24
	C1024,752.9,1033.4,742.2,1033.4,728.9z"/>
<path class="st25" d="M1470.7,779.2c0-13.2-9.4-24-21.1-24c-11.6,0-21.1,10.7-21.1,24c0,13.3,9.4,24,21.1,24
	C1461.3,803.2,1470.7,792.4,1470.7,779.2z"/>
<path class="st25" d="M969.3,680.9c0-13.2-9.4-24-21.1-24c-11.6,0-21.1,10.7-21.1,24c0,13.3,9.4,24,21.1,24
	C959.8,704.9,969.3,694.2,969.3,680.9z"/>
<polygon class="st26" points="1437.9,1468.2 1384.2,1419.2 1354.1,1447.8 1247.8,1465.7 "/>
<polygon class="st16" points="1209.5,1463.3 1332.2,1619.7 1457.3,1463.3 "/>
<path class="st27" d="M1538.3,1439.9c-98.6,39.2-9.1,252.1,80.2,261.7C1683.9,1624,1636.8,1400.7,1538.3,1439.9z"/>
<g>
	<path class="st19" d="M1690.5,892.1c-40.1-9.1-87.5-12.6-104.3,24.4c-2.6,5.8-4.1,11.7-4.7,17.8c30.6,22.3,65.5,33.1,101.3,28.4
		c18.6-2.4,36.2-8.8,52.4-18.5C1730.4,919.5,1715,897.6,1690.5,892.1z"/>
</g>
<path class="st4" d="M1705.5,1002c16.8-37,0.8-90.9-39.8-100.1c-40.1-9.1-87.5-12.6-104.3,24.4c-16.8,37,10.4,81.9,47.2,103.5
	C1645.4,1051.4,1688.8,1039,1705.5,1002z"/>
<path class="st4" d="M1616.3,842.6c13.9-29.1-1.6-69.4-34.8-90c-33.2-20.6-71.4-13.8-85.3,15.3c-13.9,29.1,1.7,69.4,34.8,90
	C1564.2,878.6,1602.4,871.7,1616.3,842.6z"/>
<path class="st27" d="M1314.3,894.8c-85.4,71.1-19.1,261.5,89.2,247.7C1501.3,1046.1,1403.1,886.3,1314.3,894.8z"/>
<path class="st7" d="M1323.5,919.3c-74.5,60.6-20.8,208.2,67.9,208C1476.7,1045.4,1400.2,911.1,1323.5,919.3z"/>
<path class="st27" d="M1330,932.8c-64.3,52.5-17.8,180.5,58.9,180.5C1462.7,1042.3,1396.4,925.8,1330,932.8z"/>
<path class="st7" d="M1337.5,954.6c-48.7,39.7-13.5,136.6,44.6,136.6C1437.9,1037.5,1387.7,949.3,1337.5,954.6z"/>
<path class="st27" d="M1342.4,968.8c-38.5,31.4-10.6,108.2,35.3,108.1C1421.9,1034.4,1382.1,964.5,1342.4,968.8z"/>
<path class="st7" d="M1353.3,1000.6c-15.7,12.8-4.3,44,14.4,44C1385.7,1027.3,1369.5,998.9,1353.3,1000.6z"/>
<rect x="173.8" y="1738.6" class="st28" width="24.1" height="68.6"/>
<rect x="370.4" y="1738.6" class="st28" width="24.1" height="68.6"/>
<path class="st28" d="M449.5,1494.3c1.7-24.3-6.6-48.2-22.6-64.5c-15.9-16.3-37.7-23.2-58.7-18.6l-203.6,44
	c-41.7,9-70,53.5-64.5,101.5l16,138.9c5.1,44.3,38.2,77.3,77.4,77.3h146c51.1,0,93.6-44.7,97.7-102.7L449.5,1494.3z"/>
<path class="st6" d="M440.3,1448.8c0.8,5.8,1,11.7,0.5,17.7l-12.4,175.9c-4.1,58-46.6,102.7-97.7,102.7h-146
	c-29.1,0-54.8-18.2-68.2-45.7c6.6,42.2,38.8,73.4,76.8,73.4h146c51.1,0,93.6-44.7,97.7-102.7l12.4-175.9
	C450.6,1478.2,447.3,1462.4,440.3,1448.8z"/>
<polygon class="st28" points="326.6,1376 221.7,1384 223,1406.7 327.9,1398.6 "/>
<path class="st28" d="M362.4,1311.6c-66.7-11.6-117.3-12.8-180.5,0c-16,5.7-16,29.7,0,32c64.1-12.4,108.7-12,180.5,0
	C378.4,1340.2,381.4,1318.5,362.4,1311.6z"/>
<polygon class="st5" points="1551,1804.2 639.5,1807.5 642.4,1827.1 1555.7,1869.8 "/>
<polygon class="st24" points="1356.4,1320.8 798.8,1336.7 804.8,1364.2 1352.4,1357.3 "/>
<path class="st3" d="M281.4,1429.9l-116.8,25.3c-41.7,9-70,53.5-64.5,101.5l16,138.9c0.2,1.5,0.5,2.9,0.7,4.4
	c13.7,13.5,31.6,21.6,50.9,21.6C299.8,1723.5,358.8,1445.7,281.4,1429.9z"/>
<polygon class="st10" points="303.1,834 283.1,922.7 311.7,924.4 "/>
<polygon class="st9" points="215.4,722.7 208.5,813.8 237,810.2 "/>
<polygon class="st4" points="842.2,928.2 678.9,906.2 640.2,1141.1 814.2,1165.5 "/>
<polygon class="st16" points="666,1021.2 640.2,1141.1 711.1,1146 "/>
<polygon class="st5" points="1671.6,34.7 1601.6,22.2 1583,157.6 1653,170.1 "/>
<polygon class="st5" points="1693.8,19.4 1585.3,0 1580.9,31.8 1689.5,51.2 "/>
<polygon class="st5" points="1672.4,149.1 1563.8,129.7 1559.4,161.5 1668,180.9 "/>
<path class="st3" d="M186.7,262.3c9.6-89.9,0.2-172.7-22.3-229.8C146,22.3,124.9,19,101,23.9C-37,52.2-21.5,295.9,75.1,522.3
	C127.8,487.8,173.5,386.6,186.7,262.3z"/>
<path class="st27" d="M1592,779.5c1.5-12-4.9-23-14.3-24.6c-9.4-1.5-18.2,7-19.8,19c-1.5,12,4.9,23,14.3,24.6
	C1581.7,800.1,1590.5,791.6,1592,779.5z"/>
<path class="st27" d="M1555.3,761.2c1.5-12-3.9-22.9-12.1-24.2c-8.2-1.3-16.1,7.3-17.6,19.4c-1.5,12,3.9,22.9,12.1,24.2
	C1545.9,781.9,1553.8,773.2,1555.3,761.2z"/>
<path class="st27" d="M1620.6,811.4c1.5-12-3.9-22.9-12.1-24.2c-8.2-1.3-16.1,7.3-17.6,19.4c-1.5,12,3.9,22.9,12.1,24.2
	C1611.1,832.1,1619,823.4,1620.6,811.4z"/>
<path class="st27" d="M1870.6,612.1c6.4-3.2,9.6-11.1,7.1-17.6c-2.5-6.5-9.7-9.2-16.2-6c-6.4,3.2-9.6,11.1-7.1,17.6
	C1857,612.6,1864.2,615.3,1870.6,612.1z"/>
<path class="st27" d="M1866.9,582.4c6.4-3.2,9.9-10.4,7.7-16.1c-2.2-5.7-9.2-7.7-15.6-4.5c-6.4,3.2-9.9,10.4-7.7,16.1
	C1853.5,583.5,1860.5,585.6,1866.9,582.4z"/>
<path class="st27" d="M1864.9,641.3c6.4-3.2,9.9-10.4,7.7-16.1c-2.2-5.7-9.2-7.7-15.6-4.5c-6.4,3.2-9.9,10.4-7.7,16.1
	C1851.5,642.5,1858.4,644.5,1864.9,641.3z"/>
<path class="st27" d="M1864.7,853.9c6.9-1.5,11.6-8.3,10.4-15.3c-1.1-7-7.6-11.5-14.5-10c-6.9,1.4-11.6,8.3-10.5,15.3
	C1851.3,850.8,1857.8,855.3,1864.7,853.9z"/>
<path class="st27" d="M1867,823.9c6.9-1.4,11.7-7.6,10.7-13.7c-1-6.1-7.4-9.9-14.3-8.5c-6.9,1.4-11.7,7.6-10.7,13.7
	C1853.7,821.6,1860.1,825.4,1867,823.9z"/>
<path class="st27" d="M1853.2,880.8c6.9-1.5,11.7-7.6,10.7-13.7c-1-6.1-7.4-9.9-14.3-8.5c-6.9,1.4-11.7,7.6-10.7,13.7
	C1840,878.5,1846.3,882.2,1853.2,880.8z"/>
<path class="st27" d="M1696.9,977.8c6.6-3.4,9.8-11.6,7.1-18.3c-2.7-6.7-10.2-9.3-16.7-5.9c-6.6,3.4-9.8,11.6-7.1,18.3
	C1682.8,978.5,1690.3,981.2,1696.9,977.8z"/>
<path class="st27" d="M1692.7,947.2c6.6-3.4,10-10.9,7.7-16.8c-2.3-5.8-9.6-7.8-16.2-4.4c-6.6,3.4-10,10.9-7.7,16.7
	C1678.9,948.6,1686.1,950.6,1692.7,947.2z"/>
<path class="st27" d="M1691.4,1008c6.6-3.4,10-10.9,7.7-16.7c-2.3-5.8-9.6-7.8-16.1-4.4c-6.6,3.4-10,10.9-7.7,16.8
	C1677.6,1009.4,1684.8,1011.4,1691.4,1008z"/>
<path class="st29" d="M633.8,1486.1c3.2,0,326.5,3.7,326.5,3.7l-220.2,13.5L633.8,1486.1z"/>
<polygon class="st29" points="1011.9,1520.4 1137.5,1508.1 1194.5,1519.1 "/>
<path class="st5" d="M689.7,1768.1c0-5.7-4.6-10.4-10.2-10.4c-5.6,0-10.2,4.7-10.2,10.4s4.6,10.4,10.2,10.4
	C685.1,1778.5,689.7,1773.9,689.7,1768.1z"/>
<path class="st7" d="M667.6,1602.3c0-5.7-4.6-10.4-10.2-10.4c-5.6,0-10.2,4.7-10.2,10.4s4.6,10.4,10.2,10.4
	C663.1,1612.7,667.6,1608.1,667.6,1602.3z"/>
<path class="st7" d="M1506.5,1624.4c0-5.7-4.6-10.4-10.2-10.4c-5.6,0-10.2,4.7-10.2,10.4c0,5.7,4.6,10.4,10.2,10.4
	C1501.9,1634.8,1506.5,1630.1,1506.5,1624.4z"/>
<path class="st5" d="M1516.1,1765.1c0-5.7-4.6-10.4-10.2-10.4c-5.6,0-10.2,4.7-10.2,10.4s4.6,10.4,10.2,10.4
	C1511.6,1775.5,1516.1,1770.8,1516.1,1765.1z"/>
<rect x="1200.9" y="750.8" class="st14" width="4.3" height="37.9"/>
<rect x="1290" y="758.7" class="st14" width="4.3" height="37.9"/>
<rect x="1363.1" y="746.5" class="st14" width="4.3" height="37.9"/>
<rect x="1444.7" y="728.1" class="st14" width="4.3" height="37.9"/>
<rect x="1111.8" y="730.6" class="st14" width="4.3" height="37.9"/>
<rect x="1019.4" y="674.3" class="st14" width="4.3" height="37.9"/>
<polygon class="st23" points="1050.9,1088.3 1065.6,1083.6 1086.8,1091.5 "/>
<path class="st23" d="M1046.4,1099.8c0.4-0.2,39.9,3.4,39.9,3.4l-21.7,5.2L1046.4,1099.8z"/>
<polygon class="st23" points="1065.6,1065.2 1050.9,1076.5 1065,1074.7 1086.2,1076.5 "/>
<polygon class="st6" points="1382.4,1462.9 1302.9,1541.2 1322.3,1557.1 1426.5,1461.6 "/>
<polygon class="st6" points="1338.4,1464.1 1278.2,1502 1297.6,1517.9 1359.9,1464.1 "/>
<polygon class="st6" points="1229.9,1462.9 1265.3,1497.1 1318,1461.6 "/>
<path class="st26" d="M848.5,1439.7c-0.1-0.5-0.2-1-0.3-1.4c-0.3-1.2-0.7-2.3-1.2-3.5c-0.2-0.5-0.4-1-0.6-1.4
	c-0.8-1.5-1.6-2.9-2.7-4.3c-0.2-0.3-0.5-0.5-0.7-0.8c-0.9-1.1-1.9-2.2-3-3.2c-0.5-0.5-1.1-1-1.7-1.4c-0.9-0.8-1.9-1.5-2.9-2.2
	c-0.7-0.4-1.3-0.9-2-1.3c-1.6-1-3.3-1.9-5.1-2.6l0,0c-4.5-1.9-9.5-3.3-14.9-3.9c-20.9-2.3-38.8,7.8-40.1,22.6
	c-0.7,8.5,4.3,16.6,12.6,22.5c0.4,0.3,0.8,0.6,1.2,0.9c0.9,0.6,2,1.2,3,1.7c0.9,0.5,1.8,1,2.8,1.4c0.9,0.4,1.8,0.8,2.7,1.2
	c1.3,0.5,2.6,0.9,4,1.4c0.8,0.2,1.5,0.5,2.3,0.7c2.2,0.6,4.5,1,6.9,1.3c20.9,2.3,38.8-7.8,40.1-22.6
	C848.9,1443,848.8,1441.3,848.5,1439.7z"/>
<path class="st6" d="M841.9,1441.1c-0.1-0.5-0.2-0.9-0.3-1.4c-0.3-1.1-0.6-2.2-1.1-3.3c-0.2-0.5-0.4-0.9-0.6-1.4
	c-0.7-1.4-1.5-2.8-2.5-4.1c-0.2-0.3-0.5-0.5-0.7-0.8c-0.8-1.1-1.8-2.1-2.8-3.1c-0.5-0.5-1-0.9-1.6-1.4c-0.9-0.7-1.8-1.4-2.7-2.1
	c-0.6-0.4-1.2-0.9-1.8-1.2c-1.5-0.9-3.1-1.8-4.7-2.5l0,0c-4.1-1.9-8.8-3.2-13.7-3.8c-19.2-2.2-35.7,7.5-36.9,21.7
	c-0.7,8.2,4,15.9,11.6,21.6c0.4,0.3,0.7,0.6,1.1,0.9c0.9,0.6,1.8,1.1,2.7,1.7c0.8,0.5,1.7,0.9,2.6,1.4c0.8,0.4,1.6,0.8,2.5,1.1
	c1.2,0.5,2.4,0.9,3.7,1.3c0.7,0.2,1.4,0.5,2.1,0.6c2,0.5,4.2,1,6.4,1.2c19.2,2.2,35.7-7.5,36.9-21.7
	C842.3,1444.3,842.1,1442.7,841.9,1441.1z"/>
<g>
	<path class="st16" d="M815.5,1442.2c1.3-14.8-14.6-28.7-35.5-31c-20.9-2.3-38.8,7.8-40.1,22.6c-1.3,14.8,14.6,28.7,35.5,31
		C796.3,1467.1,814.2,1457,815.5,1442.2z"/>
	<path class="st6" d="M794.9,1415.1c0.9,2.7,1.5,5.5,1.3,8.3c-1.3,14.8-19.2,24.9-40.1,22.6c-5.4-0.6-10.4-2-14.9-3.9
		c3.9,11.3,17.4,20.8,34.2,22.7c20.9,2.3,38.8-7.8,40.1-22.6C816.4,1431.2,807.9,1420.7,794.9,1415.1z"/>
</g>
<g>
	<path class="st16" d="M707.3,1463.4c8.9-8.5,6.4-28.6-5.6-44.8c-12-16.3-28.9-22.5-37.8-14.1c-8.9,8.5-6.4,28.6,5.6,44.8
		C681.5,1465.6,698.4,1471.9,707.3,1463.4z"/>
	<path class="st6" d="M709,1431.6c-0.9,2.4-2,4.6-3.8,6.2c-8.9,8.5-25.8,2.2-37.8-14c-3.1-4.2-5.5-8.6-7.3-13
		c-3.7,10-0.3,25.5,9.3,38.6c12,16.3,28.9,22.5,37.8,14.1C713.9,1457.1,714.2,1444.3,709,1431.6z"/>
</g>
<polygon class="st23" points="964.6,1100.7 957.1,1116.6 964.1,1136.8 964.3,1117.1 "/>
<polygon class="st23" points="983.4,1105 973.2,1117.2 978,1134.3 978.6,1117.8 "/>
<path class="st27" d="M1707.9,518.7c0-13.1-8.3-23.7-18.6-23.7c-10.3,0-18.6,10.6-18.6,23.7c0,13.1,8.3,23.7,18.6,23.7
	C1699.5,542.4,1707.9,531.8,1707.9,518.7z"/>
<ellipse class="st19" cx="1751.9" cy="797.9" rx="7.5" ry="11.6"/>
<polygon class="st11" points="1385.7,1000.8 1400.7,977.1 1404.3,982.8 "/>
<path class="st13" d="M1424.3,949.4c0,0-25.3-9.6-25.3,32.9C1399,982.3,1437.3,997.9,1424.3,949.4z"/>
<polygon class="st10" points="1437.2,912.7 1421.5,953.5 1425,962.4 1456.5,955.1 1438.6,947.8 "/>
<path class="st30" d="M1516,1582c0,0-15,45.3-2.1,122.4c6.4,39.2,20.4,67.3,3.2,93c0,0,35.4-12.2,7.5-86.9
	C1524.6,1710.4,1509.5,1602.8,1516,1582z"/>
<g>
	<path class="st30" d="M1572.6,1436.7c-10.6-2.5-22-1.7-34.3,3.2c-76.4,30.4-39.8,165.2,22.2,228.7c6.4,2.7,12.9,4.6,19.4,5.3
		C1625.7,1619.5,1616.2,1493.7,1572.6,1436.7z"/>
</g>
<path class="st11" d="M1575.7,1555.8c-3.1-10.1-8.9-17-13-15.4c-4.1,1.6-5,11.1-1.9,21.3c3.1,10.1,8.9,17,13,15.4
	C1577.9,1575.4,1578.7,1565.9,1575.7,1555.8z"/>
<path class="st11" d="M1626.6,1526.6c-2.8-9.3-8.1-15.6-11.9-14.1c-3.8,1.5-4.6,10.2-1.8,19.5c2.8,9.3,8.1,15.6,11.9,14.1
	C1628.6,1544.7,1629.4,1535.9,1626.6,1526.6z"/>
<path class="st11" d="M1641.3,1591.7c-10.7,10.3-48,20-76.4,20.6c-2.7,0.1-5.1,1.8-6.2,4.5c-1.1,2.7-0.8,6,0.8,8.3l0.7,1.1
	c13.5,19.6,35.6,28.6,56.9,23.1c13.8-3.5,22.3-11.4,24.8-24.8L1641.3,1591.7z"/>
<path class="st18" d="M1624.1,1420.9c-2.8,0-5.5,0.6-8.1,1.6c-1.1-15.5-12.4-27.7-26.3-27.7c-13,0-23.8,10.7-26,24.8
	c-0.3,0-0.6-0.1-1-0.1c-2.3-14-13-24.7-26-24.7c-14.6,0-26.5,13.5-26.5,30.2c0,5.2,1.3,10,3.3,14.2c-5.4,0.7-10.3,3.3-14.2,7.2
	c-3.6-2.1-7.7-3.4-12-3.4c-14.6,0-26.5,13.5-26.5,30.2c0,7.8,2.6,14.8,6.9,20.1c-11,3.7-19,15.1-19,28.8c0,6.7,2,12.8,5.2,17.8
	c-1.5,3.8-2.4,7.9-2.4,12.3c0,14.4,8.8,26.3,20.6,29.4c-2.1,4.4-3.5,9.3-3.5,14.7c0,16.7,11.9,30.2,26.5,30.2
	c14.6,0,26.5-13.5,26.5-30.2c0-4.6-1-8.9-2.6-12.7c9.9-4.4,16.9-15.3,16.9-28.1c0-11.6-5.8-21.6-14.3-26.6c0.8-2.9,1.4-6,1.4-9.2
	c0-0.3-0.1-0.6-0.1-0.9c6.1-5.5,10.1-14,10.1-23.5c0-0.8-0.2-1.6-0.2-2.4c5.7-5.1,9.4-12.6,10-21.3c4.7,5.1,11.1,8.3,18.1,8.3
	c2.3,0,4.5-0.4,6.6-1.1c4,2.7,8.5,4.3,13.5,4.3c9.2,0,17.3-5.4,22.1-13.5c4.8,7.2,12.4,11.9,20.9,11.9c14.6,0,26.5-13.5,26.5-30.2
	C1650.6,1434.4,1638.7,1420.9,1624.1,1420.9z"/>
<g>
	<path class="st6" d="M1646.6,1466.8c2.5-4.6,4-9.9,4-15.7c0-16.7-11.9-30.2-26.5-30.2c-2.8,0-5.5,0.6-8.1,1.6
		c-7.8-38.9-47.4-33.8-52.3-2.9c-0.3,0-0.6-0.1-1-0.1c-1-6.3-3.8-11.8-7.6-16.1c-2.5,4.6-4,10-4,15.9c0,5.2,1.3,10,3.3,14.2
		c-5.4,0.7-10.3,3.3-14.2,7.2c-3.6-2.1-7.7-3.4-12-3.4c-14.6,0-26.5,13.5-26.5,30.2c0,7.8,2.6,14.8,6.9,20.1
		c-11,3.7-19,15.1-19,28.8c0,6.7,2,12.8,5.2,17.8c-1.5,3.8-2.4,7.9-2.4,12.3c0,14.4,8.8,26.3,20.6,29.4c-2.1,4.4-3.5,9.3-3.5,14.7
		c0,8.5,3.1,16.2,8.1,21.7c2.5-4.6,4.1-10.1,4.1-15.9c0-4.6-1-8.9-2.6-12.7c9.9-4.4,16.9-15.3,16.9-28.1c0-11.6-5.8-21.6-14.3-26.6
		c0.8-2.9,1.4-6,1.4-9.2c0-0.3-0.1-0.6-0.1-0.9c6.1-5.5,10.1-14,10.1-23.5c0-0.8-0.2-1.6-0.2-2.4c5.7-5.1,9.4-12.6,10-21.3
		c4.7,5.1,11.1,8.3,18.1,8.3c2.3,0,4.5-0.4,6.6-1.1c3,2.1,6.4,3.5,10,4c11.3,0.3,13.5-0.9,22.3-8.9c1.2-1.4,2.3-2.7,3.2-4.3
		C1604.1,1470.8,1625.9,1497.5,1646.6,1466.8z"/>
</g>
<path class="st7" d="M1642.7,1575.9c0-16.7-11.9-30.2-26.5-30.2c-14.6,0-26.5,13.5-26.5,30.2c0,16.7,11.9,30.2,26.5,30.2
	C1630.8,1606,1642.7,1592.5,1642.7,1575.9z"/>
<path class="st3" d="M1629.1,1575c0-13.1-8-23.7-17.9-23.7c-9.9,0-17.9,10.6-17.9,23.7c0,13.1,8,23.6,17.9,23.6
	C1621.1,1598.7,1629.1,1588.1,1629.1,1575z"/>
<path class="st30" d="M1635.5,1600.9c-8.3,8-37.2,15.5-59.1,15.9c-2,0-3.9,1.4-4.8,3.5c-0.9,2.1-0.6,4.6,0.6,6.4l0.6,0.8
	c10.4,15.2,27.6,22.1,44.1,17.9c10.7-2.7,17.2-8.8,19.1-19.2L1635.5,1600.9z"/>
<polygon class="st11" points="1557.9,1515.7 1544.8,1507.3 1527.8,1541.8 1540.9,1550.2 "/>
<polygon class="st11" points="1632.1,1506.5 1638,1490.7 1606.1,1475.1 1600.2,1490.9 "/>
<path class="st1" d="M320.8,1266c-17,3-38,12.5-37.1,18.6c0.8,6.1,23.2,6.5,40.2,3.4c17-3,30.1-10.4,29.3-16.5
	C352.2,1265.4,337.8,1263,320.8,1266z M323.6,1286.2c-14.3,2.5-34.3,2.6-35-2.6c-0.7-5.1,18.2-13.4,32.4-15.9
	c14.3-2.5,26.4-0.4,27.1,4.7C348.8,1277.5,337.8,1283.7,323.6,1286.2z"/>
<path class="st1" d="M299.9,1255.1c-10.4,8.8-20.6,24.5-17.4,29.4c3.2,4.9,18.7-3,29-11.7c10.3-8.8,16.1-19.9,12.9-24.7
	C321.2,1243.2,310.3,1246.4,299.9,1255.1z M310.6,1271.4c-8.7,7.4-22.4,14.7-25.1,10.6c-2.7-4.1,6.7-18.1,15.3-25.4
	c8.7-7.4,17.9-10,20.6-5.9C324.1,1254.7,319.3,1264,310.6,1271.4z"/>
<path class="st3" d="M179.5,1544.8c0-35.1-15.9-63.6-35.4-63.6c-19.6,0-35.4,28.5-35.4,63.6c0,35.1,15.9,48.9,35.4,48.9
	C163.6,1593.8,179.5,1580,179.5,1544.8z"/>
<path class="st3" d="M229.6,1467.2c-1.2-7.9-11.7-12.4-23.4-10.1c-11.7,2.3-20.2,10.6-19,18.5c1.2,7.9,11.7,12.4,23.4,10.1
	C222.4,1483.4,230.8,1475.1,229.6,1467.2z"/>
<path class="st31" d="M378,1717.1c25.1,2.8,46-60.3,53.9-150.3c8-89.9-8.2-122.1-33.4-124.9c-25.1-2.8-43.7,17.3-51.6,107.2
	C338.9,1639.1,352.8,1714.3,378,1717.1z"/>
<ellipse class="st3" cx="270.8" cy="1295.2" rx="6.4" ry="9.2"/>
<polygon class="st28" points="314.7,1375.9 238.5,1390.3 224,1458.4 323.7,1435.7 "/>
<path class="st3" d="M351,1718.6l54.4-44C405.4,1674.5,361.7,1700.6,351,1718.6z"/>
<path class="st3" d="M381,1425.8c0,0,10.7,17.1,14.3,44S386.8,1440.4,381,1425.8z"/>
<path class="st3" d="M375,1417.1c0,0,4.3,11.5,3.3,27.5C377.4,1460.7,376.7,1426.4,375,1417.1z"/>
</svg>
