<?xml version="1.0" encoding="utf-8"?>
<!-- Generator: Adobe Illustrator 23.0.3, SVG Export Plug-In . SVG Version: 6.00 Build 0)  -->
<svg version="1.1" id="Layer_1" xmlns="http://www.w3.org/2000/svg" xmlns:xlink="http://www.w3.org/1999/xlink" x="0px" y="0px"
	 width="3840px" height="2160px" viewBox="0 0 3840 2160" enable-background="new 0 0 3840 2160" xml:space="preserve">
<g>
	<g>
		<defs>
			<rect id="SVGID_1_" width="3840" height="2160"/>
		</defs>
		<use xlink:href="#SVGID_1_"  overflow="visible" fill="#3F5C71"/>
		<clipPath id="SVGID_2_">
			<use xlink:href="#SVGID_1_"  overflow="visible"/>
		</clipPath>
		<g clip-path="url(#SVGID_2_)">
			<path fill="#4E667C" d="M2100.4,2273.7c23.9-20.3,32.2-22.1,44-26.7c23.9-9.4,54.1-18.4,74.2-18.2c8.5,0,14.5,1.3,18.9,3.9
				c26,15.4,39.3,10.8,57.6,10.7c12.5,0,32.2,3.4,47-6.8c14.8-10.3-2.5-21.6,17.4-29.1c19.9-7.5,62.2,1.3,62.2,1.3
				c2.2,0.6,4.3,1.1,6.7,1.2l4.5,0.9l0.1-0.8c11.3-0.7,20.2-5.9,28-13.7c11.9-12,21.3-31.1,30.2-54.5c8.9-23.4,16.8-51.1,24.2-79.1
				c14.9-56,27.6-114.1,39.2-141.4c2-5.1,4.4-9.2,6-11.5c1.1,0.5,2.3,1.2,3.6,2c3.7,2.3,8.2,5.7,12.7,9.7c9.3,8.1,19.3-7.9,28.8,2.9
				c18.6,21.5,43.4-24.4,43.4-24.4l6.4-17.7c-0.1-0.1-8.2-19.9-24-38.8c-16.1-19-36.1,68.4-53.4,57.6c-4.9-3.1-10.1-5.6-16.9-6.7
				c-1.2-0.1-2-0.2-2.7-0.2c-5.6,0.1-9.3,2.2-11.6,4c-2.4,1.8-4,3.8-5.7,6.1c-3.1,4.7-5.7,10.5-8.5,17.8
				c-5.6,14.5-11.1,34.3-17,56.9c-11.7,45-24.5,101.1-39.5,145c-9.9,29.3-21.4,53.5-32.3,64.2c-6.1,6.1-10.5,7.5-12.1,7.6l-2.9-0.6
				c-0.7-0.3-1.5-0.6-2.4-1.2c-2.5-1.5-5.6-4.2-8.6-7.8c-6.1-7.2-11.9-17.9-17.3-29.6c-10.3-23.5-18.3-50.8-24-65.8
				c-1.7-4.4-3-7.5-5.1-10.3c-4.5-5.9-13.2-11.7-25.3-19.3c-12.1-7.5-27.3-16-43.5-24.8c-32.6-17.5-69.2-36-91.7-47.6
				c-22.3-11.6-58.4-28.8-96.3-43.2c-35.6-13.5-111.3-36-106.9-61.1c4.4-25.1,48.6-68.7,56.3-103.2c7.8-34.5-23.9-92.2,7.9-113.7
				c31.6-21.5,19.7-23.4,74.9-29.1c55.2-5.6,76.7-3.2,126.6,5.2c49.9,8.4,43.3,2,88.4-8.4c45.2-10.4,46.8-31,86.2-51.3
				c39.3-20.4,30.9-37.6,59.8-51.3c29-13.7,28.7-13.9,43.7-13.8c15,0.1,33.4,8.7,35.1,41.2c1.7,31.2-150.4,71.4-147.9,96.3l-0.8,0.6
				c0.1,0,8.1,22,23.3,32.1c7.7,5,33.8,7.9,42.1,28.3c8.4,20.3,8.9,50.2,8.9,56c2.7,26.7,97.9,65.9,137.7,71.7
				c39.8,5.8,150,27.7,162.2,51.4c8.5,16.4,17,33.4,23.3,47.3c6.3,13.7-10.3,54.7-32.2,87.2c-21.9,32.5-121.8,90.9-136.2,108.1
				c-7.4,8.6-28.3,82.3-44.9,136.4c-7.1,23.4-19.7,19.1-59.4,29.5c-39.6,10.4-192.9,121.4-192.9,121.4l9.1,38.7
				c0,0,168-143.1,203.5-150.8c35.6-7.6,39.5-3.3,54.8-42.9c15.5-39.5,48.1-125.9,58.2-137.2c7.2-8.2,118.6-70.3,165.4-67.9
				c46.7,2.4,90.3,41.6,132.7,50c18.9,3.8,55.6,12.5,87.1,20.2c23,5.6,41.7,31.1,45.3,49.5c3.7,18.3,1.5,52.8-8.2,56.2
				c-21.6,7.8-120.6,12.9-141.7,27.4c-20,13.8-102,166.9-102,166.9l19.5,4.9c0,0,22.7-121.6,116.3-163.7
				c93.5-42.1,239.9-18.1,279.9-15.3c39.9,2.9,94.8,36.5,118.7,43.6c40.1,11.8,206.3,48.9,219.6,48.9c55.7,0,226.3-2.8,279.7,22v-36
				c-29.2-4-70.9-10.2-94.6-11.2c-25.5-1-153.7,10.8-185,10.8c-12.4,0-22.5-0.6-27.1-1.5c-38.3-7.5-145.7-34.8-184.3-46.2
				c-15.6-4.6-108.9-48.5-173.3-57.2c-64.1-8.7-81-41.1-71.1-63c9.1-20.6,37.8-69.2,56.4-99.9c18.8-30.7,105.6-50.1,155.6-42.6
				c31.9,4.9,64.3,10,89.8,14.3c12.8,2.2,23.6,4.1,31.8,5.8c4.2,0.8,7.4,1.6,9.8,2.2c1.2,0.3,2.2,0.5,3,0.8c0.2,0.1,0.5,0.2,0.6,0.2
				c6.5,2.8,15.5,5.1,28.3,8c37.6,8.3,102.9,19.2,149.2,27.9c17.7,3.3,38.4,2.8,59.8,4.5c51.2,4,114.6,60.6,151.2,100.6v-13.9
				c-19.9-20.9-42.6-43.5-59.8-57.3c-33.8-27.3,40.6-39.5,56.1-41.6c0.7-0.1,2.1-0.3,3.7-0.5v-14.8c-3.4,0.6-6.1,1-7.9,1.2
				c-20.6,2.8-86.6,11.9-143.3,11.9c-20.3,0-39.4-1.2-54.5-4c-31-5.8-70.4-12.6-103.9-18.9c-16.8-3.1-32.2-6.1-44.3-8.8
				c-11.9-2.6-21.1-5.2-23-6.3c-5-2-10.1-3.1-19-4.9c-48.6-9.8-114.8-43.1-209.3-21.7c-94.5,21.4,74.8-45.4,104.4-69.1
				c29.6-23.7,92.5-102.4,111.8-117.4c11.2-8.7,55.9-15.4,81.2-3.6c12.7,5.9,84,29.6,95,33.4c11.1,3.8,45.4,17.6,53.8,6.1
				c8.8-12,63.1-79.1,67.2-86.1c4.1-7.1,7.4-11.5,14.6-16.5c8.7-6.1,38.4-27.5,77.2-50.9v-19.1c-46.4,27.1-82.2,53.2-91.9,59.9
				c-9.8,6.7-14.9,13.8-19.1,21.3c-4.5,7.6-8.5,15.9-16.7,27.1c-8.4,11.8-16.8,24.2-26.1,33.6c-9.2,9.7-11.4,23.8-45.4,17.3
				c-34.4-6.4-67.1-24.2-103.8-45.5c-36.5-21.3-22.2-35.3-17.3-44.7c15-30.5,46.3-81.1,46.6-116.6c0-12.9-4.2-25.1-18.3-32.7
				c-28-14.9-70.9-23.5-109.6-29.5c-19.2-3-41.5-4.4-51.5-6.8c-19.6-4.8-85.9-10.6-22.8-77.5c20.2-21.5,63.1-32.8,103-52.2
				c8.1-1.2,39.5-5.9,66.1-9c16.1-1.9,24.8-3.7,30.3-5.5c2.8-1,4.8-2,6.6-3.4v-0.1c4.7-2,16-7.2,27.9-13.3
				c7.8-3.9,15.7-8.2,22.3-12.3c6.4-4.3,11.7-7.8,14.7-13.1c2.1-4.5,5.4-8.4,8.4-11.1c1.3-1.4,2.6-2.4,3.6-3.2
				c0.3-0.3,0.8-0.6,0.9-0.7c0.3-0.1,0.3-0.1,0.3-0.1l0.7-0.4l50.4-48.6l35.2-7l72.9-46.3v-3.2c0,0,0-0.1,0-0.4
				c0.2-2.8,2.2-16.9,18.6-30.9c4.6-4,9.4-8.7,14.2-13.4v-18.9c-12.5,10.6-24.5,18.2-30.5,23.4c-17.7,15.3-34.8,26.3-44.1,29.4
				c-9.5,3.1-61.2,11.6-57.3-2c2.1-7.2,8.8-20.7,15.1-34.6c6-14.1,11.7-28.5,11.9-40.2c0-2.3-0.2-4.6-0.9-6.9
				c-2.3-7.9-6.5-21.8-6.5-37.9c0-20.2,6.4-43.5,30.4-63.6c14.5-12.2-0.6-71.8,9.6-97.8c10.4-26,0.7-8.7-25.1-10.2
				c-25.7-1.6-87.4-10.2-100.5-13.8c-24.4-6.6-2.6-22.3,21-28c46.3-11.1,68.5-13.4,83.1-13.4c12.1,0,21.2-0.5,35.7,1.9
				c20.5,3.4,40.2,12.4,58.1,25.2v-43.4c-2.5,1.1-5,2-7.2,2.4c-15.1,2.6-43,1.6-50.8,1.6c-11.6,0-20.4-1.8-35.7-1.9
				c-18.1,0-42.6,2.9-89.9,14.3c-56.1,13.5-88.2,20.2-109.8,25.7c-21.4,5.3-33.6,10.1-45.9,18.6c-2.8,2.1-14.2,5.9-28.5,10.2
				c-21.7,6.7-50.8,16-75.2,33.5c-14.5,10.3-26.9,23.6-35.3,40.5c-13.9-17.1-25.3-27.9-52.6-58.3c-6-6.7-24.3-16.9,13.6-40.9
				c18.6-11.8,113.1-69.2,132.7-78.8c19.6-9.7,2.7-22.2,1.5-37.9c-1.3-15.7,10.5-50.8,22.2-62.3c7.6-7.7,16-15.5,62.8-38.9
				c48.4-25.2,119.9-42.4,155.6-59.6c35.7-17.2,36.3-17.2,49.4-29.3c13-12.1,27.4-22.1,41.5-22.3c19.2-0.2,37.2-0.4,51.7-0.5v-14.3
				c-19.8,0.1-45.8,0.3-72.7,0.8c-27.7,0.4-56.2,1.1-79.7,2.1c-11.6,0.5-22.1,1.1-30.4,1.8c-8.7,0.8-15,1.4-20.3,2.8
				c-2.7,0.9-11.4,2.3-22.5,3.6c-33.9,3.9-94.9,7.6-150.9,7.6c-32.4,0-63.4-1.3-85.9-4.4c-40-5.5-72-5.5-96.8-8.1
				c-24.9-2.7-41.8-7-58.3-21.5c-6.9-5.9-15.6-23-22.3-43.9c-10.5-31.6-18.7-72.6-24.2-105.7c-5.6-33.1,2.3-41.5-12.9-59.9
				c-15.1-18.5-74.7-49.5-70.8-66.3c3.9-16.8,53.5-25.5,74.5-28.2c4.2-0.6,7.8-0.7,11.4-0.7c5.4,0,10.4,0.4,16.4,0.5
				c6.1,0,13.7-0.8,20.7-3.7c6.9-3,13.4-7.6,20-14.6c21.5-22.4,102.1-98.3,115.5-107.2c13.3-8.9,30.5-15.3,50.2-23
				c10.4-4.2,32.4-7.8,75.5,4c42.9,11.7,63.7,28.4,63.7,28.4c2.4,1.7,15.3,10.7,29.3,20.7c15.4,11,32.5,23.9,36.5,28.2
				c5.2,5.6,14.9,8.7,23.6,8.5c16.3-0.3,33.1-6.2,56.8-13.1c4.4-1.3,8.9-1.8,13.7-1.8c12.3-0.1,26,4.2,36.4,8.9
				c5.2,2.3,9.6,4.6,12.6,6.3c0.3,0.1,0.4,0.3,0.7,0.4l-44.9,212.7l3.1,2.5c0.3,0.1,28.5,22.4,61.7,45.4
				c16.8,11.5,34.7,23.2,51.3,32.3c6.7,3.6,12.9,6.8,18.9,9.5v-17.5c-2-1-4-2.1-6-3.2c-23.4-13-51-32.1-72.7-47.8
				c-16-11.6-28.7-21.4-34.3-25.7l42.3-199.9c14.9,5.6,40.8,15.3,67.6,25.6c1,0.4,2.1,0.8,3.2,1.2v-16.4
				c-35.4-13.6-67.6-25.5-73.2-27.6c-6.2-3.9-33.4-20.8-66.6-21.2c-7.3,0-14.7,0.9-21.9,3c-23.6,7.1-41.2,12.2-48.7,12
				c-4-0.2-4-0.3-6.3-2.1c-6.4-6.5-23-18.7-38.9-30.1c-15.6-11.3-29.9-21.2-30-21.2l-0.5-0.3c0,0-6.2-5.4-23.9-15.4
				c-17.6-10-16.4-26.9-8.1-30c115.7-44,118.7-40.4,203.7-60.3c51.3-12,90.9-37,114.3-54.9v-12.9c-12.5,13.1-41.4,39.8-77.8,50.4
				c-49.1,14.3-50.7,11.8-81.4,17.2c-30.9,5.5-48.6,9.4-83.5,17.9c-35.2,8.5-90.1,42.5-129.6,41.7c-39.5-0.7-61.6-3.6-84.6,9.4
				c-23,13-69.9,47.2-81,60.5c-21.4,25.9-60.5,53-84,77.1c-5.7,6.1-10.3,9-13.5,10.3c-3.3,1.3-5.6,1.6-9.9,1.7
				c-4.1,0-9.5-0.5-16.4-0.5c-4.6,0-9.7,0.2-15.4,1c-30,4.3-72.7,12.1-91.9,9.3c-19.4-2.9-103.9-43.6-103.9-43.6l-1.4-0.4
				c0,0-50.6-11.6-67.6-15.5c-6.6-1.5-22.2-7.2-35.3-12.5c-13.1-5.3-24.2-10-24.4-10l-0.1-0.1l-0.2-0.1c0,0-9.5-3.7-20.3-8.9
				c-10.8-5-23-12-26.7-16c-4.2-4.2-10.9-8.6-19.7-14.4c-13.1-8.5-30.2-18.9-45.2-29c-14.6-9.9-27.2-20.1-29.8-25.1
				c-10.5-18.4-10.5-28.1-10.5-51.6c-0.3-7.2-3-17.4-7.5-29.9c-13.1-37.1-39.6-91.6-43.8-100.3l-19.8,4.5
				c1.7,3.3,6.6,13.3,12.5,26.4l-75.5-23.3c0,0,1,41.8-40.6,62.4c-41.4,20.6-78.2,27.5-119.5,29c-87.9,3.9-174.5,89-199.2,95.7
				c-24.7,6.6-70.9-19.5-70.9-19.5L2127,59.2l-0.8-0.3c-0.1,0-62.1-17.9-78.7-21.7c-0.1,0-1.2-0.4-2.6-1.8c-1.5-1.3-3.1-3.4-4.4-5.9
				c-3-4.8-4.8-10.7-5.8-14.6c-0.7-2.6-1-4.2-1-4.2l-0.2-1.1l-22.2-34.5l-1.5-0.9c-0.1-0.1-26.3-18.3-47-29.3
				c-7.2-3.7-12.9-6.7-19.5-8.3c-7.1-1.7-6.6-2-11.7-3.5c-4.8-1.3-10.4-2.1-26.1-4l-3.4,14.1c15.3,1.8,20,2.7,21.8,3.2
				c1.5,0.4,4.5,1.8,13,3.7c1.3,0.2,7.1,2.6,13.1,6c6.5,3.3,13.5,7.6,20.3,11.8c10.7,6.7,20.1,13.1,23.7,15.4l19.4,30.2
				c0.8,4,3.8,17.2,12,27.2c3.3,3.9,7.8,7.9,15.5,9.8c7.2,1.6,26.9,7,44.3,11.9c15,4.2,28.5,8.1,32.1,9.1c0,0,54.3,19.4,58.2,46.6
				c3.8,27.2,24.8,59.2,45.8,70.6c21.2,11.3,45.6,23.9,62.9,29.8c13,4.4,34,17.6,50.4,29.5c10.7,7.6,19.9,14.8,25,18.8
				c0,0-40.9,105.7-105.4,99.8c-64.5-5.9-133.9-8-164.7-3.3c-182.9,28-193.1,15.9-257.7,5.6c-52.6-8.3-80-6.3-105-22.3
				c-25.2-16-95.6-78.1-95.6-78.1l-0.6-0.5c0,0-133.4-143.6-132.8-147.8c0-1.3,0.3-1.7,1.2-2.4c5.6-5.1,7.7-10.9,7.6-15.9
				c-0.5-10.1-6-17.9-5.7-23.2c0-2.7,0.7-4.7,3.6-7.3c9.6-8.7,11.7-16.7,13.1-21.9c1.6-5.4,1.8-7.4,8.4-12.2
				c10.9-8,12.1-18.6,12.4-28.3c-0.1-13-3.8-24.6-4-24.9l-0.3-0.9l-0.6-0.8c-0.1-0.1-28.1-38.8-33.8-46.5l-18.6,6.4
				c5.2,7.1,29.1,40,33.2,45.7c0.2,1.1,0.8,3.1,1.4,5.9c0.8,4.1,1.8,9.6,1.8,15.1c0.2,8.2-2.8,16.1-6.3,18.1
				c-10.4,6.9-12.8,14.4-14.2,19.8c-1.4,5.4-2,9.1-9.3,15.9c-5.6,5.1-7.7,10.9-7.7,16c0.3,10.1,5.9,17.8,5.6,23.2
				c0,2.7-0.7,4.7-3.6,7.4c-3.6,3.3-5.2,7.3-5.1,11c0.6,12.4,20.9,17.6,27.5,26.3c4.5,5.8,76.8,103.8,76.8,106.5
				c0.4,1.1-2.4,5.1-10.2,9.6c-7.4,4.5-18.2,9.5-30.1,14.2c-24.2,9.5-52,18.1-67,24.3c-10.9,4.6-27.8,5.8-45.5,6.7
				c-17.4,1.1-36,1.6-51.1,9.2c0,0.1-4,1.5-9.7,2.9c-5.6,1.5-13.3,3.3-22.5,5.2c-18.4,4-42.6,8.8-69.3,13.9
				c-27.5,5.3-107.8-3.7-154.9-17.4c-47-13.6-260.1-46.6-275.3-48.7c-15.3-2.1-89.9-14.3-56-41.5c33.9-27.3,89.4-88.9,102.4-103.6
				c13-14.7,67-10,77.2-19c10.2-9.1-80.7-107.1-43.1-137c37.6-29.9,76.2-73.3,76.2-73.3l-112.9-2.1c0,0,2.8,39.1-27.7,72.8
				C831.5,3.8,631.1,0.4,569.9,0.4c-13.4,0-179.7,37.1-219.7,49c-23.7,7.1-78.7,40.7-118.7,43.6c-35.5,2.6-155.2,21.7-247-3.7v12.1
				c31.3,4.3,63.8,7.7,75.1,11.8c9.7,3.4,12,37.9,8.3,56.2c-3.7,18.4-22.4,43.9-45.4,49.5c-12.3,3-25.5,6.2-38,9.1v16.9
				c46.9-7.4,108.2-11.8,134.1,14c35.3,35.2,62.3,72.6,96.6,103.6c34.5,30.9,68.6,23,102.8,46.5c34.3,23.5,63.4,49.7,87.2,74.6
				c23.8,24.9,41.7,56.2,73.9,78.4c8.1,5.5,42.6,60.2,49.3,73.4c13.7,26.3,26.8,55.9,26.7,76c0,11-3.9,18.1-10.3,21.4
				c-34.1,18.6-109.6,28.6-151.9,33.5c-14.5,1.7-24.5,2.8-30.5,4.1c-3,0.8-13.6,2-26.1,2.8c-12.4,0.9-27.4,1.4-41.4,1.4
				c-10.3,0-20-0.3-27.7-1c-7.6-0.5-13.3-1.9-13.9-2.3c-2.3-1.1-5.2-1.6-7.5-1.6c-4.8,0.1-7.8,1.2-10.7,2.4
				c-2.8,1.2-5.6,2.7-8.6,4.5c-5.8,3.5-12.3,8.3-19.4,13.9c-14.1,11.2-30.6,26-46.3,40.7c-21.6,20.1-57.7,28.2-96.4,14.4
				c-21.2-7.5-51.2-21.1-79.9-34.4v10.3c22.8,11.3,45.3,23,65.8,34.9c42.5,24.7-2.5,78.7-47.1,115.7c-6,5-12.3,10.2-18.7,15.4v10.1
				c46.8-39.5,132.9-99,133-99l5.2-4.6l-0.4-0.3c7.4-7.4,23.1-23.1,41.2-40.7c24.9-24,55.4-51.5,73.5-63.5c2.8-1.9,5.2-3.4,7.1-4.3
				c7.5,5.3,24.9,17.3,44.3,31.1c25.8,18.4,55.5,39.7,69,51c30.3,24.9,70.7,36.6,108.9,55.5c9.9,4.5,19.7,19.9,24.8,39.2
				c5.2,19.3,7.2,42.1,7.2,61.7c0,14.8-1.2,27.8-2.6,35.9c-0.6,4.8-9,16-21.8,29.5c-12.9,13.7-29.6,30.3-46.3,49.1
				c-33.4,37.6-67,83.9-67,133.5c0,2,0.1,4.2,0.2,6.2c0.3,7.2,1.5,14.1,3,20.5c-3.9,4.6-10.1,12.5-18.6,22.7
				c-14.1,16.9-14.6,21.9-37.1,47c-6.1,6.8-24.5,5.4-64.2-11.3c-39.8-16.7-130.6-41-244.9-65.4c-4.9-1-9.7-1.7-14.6-2.5v11.8
				c85.5,14.3,162.2,41.7,195.4,52.7c43.5,14.5,72.8,29.2,112.8,46.5c37.2,16,109.8,77.2,135.9,96.6c12.6,9.3,19.8,18.3,16.2,35.4
				c-3.4,17.1-3.9,24.7-49.1,43.5c-22.2,9.3-52.8,15.5-76.7,20.4c-15.6,3.3-29.4,5.2-35.9,5.2c-0.9,0-1.6,0-2.1-0.1
				c-0.1,0-0.2,0-0.3,0c-4-1.6-7.4-1.7-10.8-1.8c-10.6,0.1-23.1,2.8-38.4,6.6c-14.9,3.9-31.7,8.9-47.7,13.8
				c-18.1,5.8-34.8,11.5-45.9,15.4c-4.3-4.2-8.6-8.2-12.7-12.1c-36.8-34.6-66.2-58.8-78.4-67.2c-13.5-9-36.5-16.3-62.2-24.8v15.9
				c21.7,7.1,40.2,13.8,47.5,19c10.3,7.2,40,31.4,76.3,65.6c36.3,34.2,91.7,89.8,108.5,109.6c16.8,19.8,4.6,22.1-1.2,27.3
				c-11.1,10.2-18.8,27.7-26.2,49.5c-7.2,21.7-13.2,47.3-18.2,71.8c-8.5,42.6,14,74.1-14.8,91.8c-28.9,17.7-63.2,54.8-81.7,62.6
				c-11,4.6-50.5,11.6-90.2,17.8v9.6c3.3-0.5,6.1-0.9,7.8-1.2c8.9-1.6,47.6-4.6,47.8,5.4c0.2,6.8-33.9,23.5-55.7,33.4v16.9
				c21.4-10.1,80.2-37.5,96-39.8c19.2-2.9,61.9,4.9,91.7,9.3c5.8,0.8,11,1.1,15.4,1.1c6.9,0,12.5-0.5,16.6-0.5
				c4.1,0,6.4,0.3,9.7,1.6c3.3,1.4,7.7,4.3,13.5,10.3c23.5,24.2,62.6,51.2,84,77.2c11.2,13.3,58,47.4,80.9,60.5
				c23,13,45.3,10.2,84.7,9.4c39.6-0.7,94.4,33.2,129.6,41.7c35.1,8.4,52.8,12.4,83.5,17.9c30.6,5.4,32.3,2.9,80.4,16.8
				c-11.1-8.1-23-14.1-35.3-17c-85.1-19.9-88.1-16.2-203.7-60.3c-8.3-3.1-9.5-20,8.1-30.1c17.8-10,23.9-15.4,23.9-15.4l0.5-0.3
				c0,0,14.3-9.9,30.1-21.2c15.8-11.4,32.3-23.6,38.8-30.1c2.2-1.9,2.3-1.9,6.3-2.1c7.4-0.3,25,4.8,48.6,11.9c7.3,2.1,14.7,3,21.8,3
				c33.4-0.4,60.6-17.2,66.9-21.2c10.8-4,121.5-45,161.8-63.5c6.2-2.8,10.7-5,14-7.2c5.3-4,24.4-10.2,46.1-14.2
				c21.6-4.2,46.4-7,64.6-7c2.1-0.3,12.7,2.5,24.7,8.1c12.2,5.5,27,13.4,43,22.3c31.6,17.9,95.1,77.4,125.9,90.9
				c30.9,13.5,74.2,59.6,92.2,79.3c18.3,19.6,31.1,34.7,39.5,44.9c6.2,7.6,9.9,12.4,11.4,14.3l4.6,22.1l-20.8,39.6l21.2,80.8
				l20.5-2.6l-20.3-77l20.7-39.3l-5.6-28l-0.8-1c-0.2-0.2-16-21.9-52.6-61.6c-17.1-18.6-35.4-37.1-49.8-52.6
				c-13.9-14.7-40.6-52.6,12.9-62.5c44.8-8.3,80.7-24,126.5-49.2c45.9-25.2,108.4-34.5,135.8-37.2c27.3-2.7,63.4,0.1,81.4,9.7
				c23.7,12.9,48.7,32.7,98.3,52.1c49.6,19.5,138.4,66,105,69.9c-33.5,4,143.8,82.3,152.4,106.4c18.6,53,25.6,215.2,25.6,215.2
				l66.5,4.7C2121.1,2505.5,2076.6,2294.1,2100.4,2273.7z M1962.7,1870.9c13.9,16.7,34.7,37,9.5,55.1
				c-25.2,18.1-281.7,123.9-352.4,84c-102.4-57.9-142.8-96.5-154.8-111.3c-11.8-14.7,26.1-47.8,64.7-61.8c38.4-14.1,130-38,130-38
				s107.2-13.5,127.7-14.2c20.4-0.6,55.3,9,81,21.6C1913.3,1828.4,1948.8,1854.2,1962.7,1870.9z M1220.4,1731.6
				c-8.1,0.1-40.1-4.7-67.7-9.5c-22.2-3.8-39.9-8.4-61.9-21.3c-21.9-12.9-26.2-29.7-15.3-41.2c10.9-11.5,54.4-42.5,63-62.5
				c8.9-19.9,35.9-4.2,64.3-0.5c11.8,1.4,45.1,13.4,47.5,14c1.4,0.2,10,3.6,19.6,8c9.8,4.5,21.7,10.1,32.8,15.7
				c22.8,11.1,114.5,26.9,135.1,30.9c20.5,3.9,65.1,14.5,75.3,18.4c20.2,7.8,46.6,16.2,75.1,24.9c56.6,17.5,121.5,36.4,159.4,52.1
				c9.4,3.8,19.8,8.3,31.3,13.3l-125.1,11.2c0,0-54.2,16.3-84.7,23.9c-30.5,7.5-113.3,16.8-136.4,19.3
				c-62.6,6.7-111.1-87.6-136.3-94.6C1271.3,1726.5,1243.1,1731.6,1220.4,1731.6z M523.5,1352.4c7.4-1.9,31.4-18.8,60.2-34.1
				c28.8-15.3,61.6-22.2,66.7-22.2c19.6-0.1,51.6-3.3,77.9-3.3c9.7,0,18.7,0.5,25,1.6c9.7,8.9,13.3,18.7,13.3,29.2
				c0.2,24.4,4.9,59.4-28.8,58.4c-33.6-0.9-59.5,6.1-83,9.6c-31.3,4.8-36.1,8.1-54.7,16.8c-3.3,1.7-6.5,3.5-8.9,5.9
				c-11.4-2.6-20.5-4.8-28.1-6.7c-20.7-5.3-28-8.3-38.4-15.3c-8.5-5.6-20.3-8.6-34.7-13.1c-14.1-4.4-30.6-9.7-46.1-17.2
				c-10.1-5-19.9-10.8-28.7-18C453,1342.3,519.4,1353.2,523.5,1352.4z M651.7,1405.4c13.2-3.5,74.6-12.2,100.5-13.7
				c25.8-1.5,35.3,15.8,24.9-10.2c-10.3-25.9,5-85.6-9.6-97.8c-23.9-20.2-30.3-43.5-30.4-63.6c0-16.2,4.1-30,6.4-38
				c0.7-2.3,0.9-4.6,0.9-6.9c-0.1-11.7-5.8-26.2-12.1-40.2c-6.2-13.9-12.8-27.4-14.8-34.7c-4.1-13.5,47.7-5,57.1-2
				c9.4,3.1,26.5,14.1,44.2,29.4c9.9,8.5,35.8,23.6,54,47.6c18.3,24.1,53.4,61.6,53.4,72.4c0,7.8,10.3,42.5-13.2,93.9
				c-23.7,51.4-70.2,94.7-121.8,103.2c-14.5,2.4-23.5,1.9-35.8,1.8c-14.4,0-36.7-2.3-82.8-13.4
				C649.1,1427.7,627.3,1412,651.7,1405.4z M898.6,1400.7c14.6-28.6,30-62.2,40-88.4c6.6-17.6,11.2-31.5,11.3-40.1
				c0-1.3,0-2.6-0.4-4c-1.6-5.7-2.3-13.1-2.3-20.3c0-7.2,0.6-14.2,1.2-19.4c0.2-2,0.6-3.8,0.7-5.2l73.2-32.4
				c9.8-1.8,63.6-12,94.7-19.2c28.2-6.7,53.8-23.7,65.4-32.1c5.1,2.6,12.2,6.3,20,10.6c14.4,8,31.3,18.1,37.5,24
				c7.1,6.3,25.7,19.4,47.5,35.1c21.8,15.6,46.1,33.4,62.6,47.3c10.9,8.9,18.2,17.3,18.2,18.6c1.5,4.4,5.1,7.2,9.1,10
				c4.3,2.7,9.5,5.2,15.6,7.8c12.3,5.1,28.1,10.3,45.8,15c35.2,9.4,76.7,16.9,108.1,17c13.6-0.1,25.6-1.3,35.2-5.9
				c15.1-7.6,48.4-13.3,76.9-16.2c23.6-2.6,39.6-16,56.2-4.7c16.8,11.3-38.2,40.3-50.4,52.9c-5.4,5.6-9.1,9.8-10.5,14.8
				c-0.4,1.5-0.6,3-0.6,4.4c0.5,14.4,13.2,29.8,25.3,42.9c12.2,13,56.4,39,54.5,56.4c-2,17.4-122.3,33.6-122.3,33.6l-46.2-3.2
				c-2-1.2-4.9-2.9-8.6-4.7c-6.8-3.1-15.7-6.8-26.9-6.9c-2.8,0-5.8,0.3-8.5,1c-8.4,2.1-12.8,6.1-18.1,10.7
				c-5.1,4.7-10,10.1-14.3,15.4c-8.7,10.6-15.4,20.6-15.4,20.8l-1,1.4v1.6c0,0,0,24-2.1,40.2c-0.7,5.3-1.7,9.9-2.5,11.3
				c-2.7,6-3.8,14.4-3.9,24.4c0,9.7,8.1,40.7-29.2,37.5c-57.8-5-103.1-12.7-129.5-24.6c-10.3-4.7-44.8-21.7-51.3-23.3
				c-5.3-1.2-156.6-45.9-132.7-23.9c23.7,22-29.3,47.3-67.1,62.9c-37.5,15.6-65.4-20.8-80.2-46.2c-14.8-25.1-30.3-51.5-35.7-62.6
				c-11.5-23.1-29.5-46.1-48.7-65.5C864.4,1444.1,891.5,1415,898.6,1400.7z M1632,1024.4c21.4-8,39.7-19.3,47.6-35.1
				c5.1-10.6,7.3-20,7.3-28.3c0.2-18.3-11.1-31-22.1-38.4c-7.8-5.3-15.5-8.3-19.6-9.6l-45.5-41.8l-0.4-0.2c0,0-7.2-5.4-16.5-13.1
				c-9.3-7.6-20.6-17.3-28.7-25.5c-5.3-5.4-9.1-10.4-9.5-12.2c0.1,0-0.3-0.4-0.1-1.3c-0.3-9.2,10.1-40.5,20.6-67.9
				c6.7-17.8,14.1-26.7,28.5-29.3c14.2-2.5,36.4-6.5,87.2,12.2c50.6,18.7,61.1,43.6,75.4,59.3c14.4,15.7-7.5,41.8,30.2,45.3
				c37.7,3.4,142-17.9,158.8-13.2c16.7,4.7,30.7,15.4,53.9,14.6c46.4-1.9,102.8,18.8,114.2,26.2c11.2,7.4,23.8,38.3,32.9,70.4
				c9.2,32.1,0.4,36.6-19.6,46.1c-20.2,9.5-83.9,39.5-105.4,44.5c-21.7,5-14.9,5.1-21.7,12c-6.9,6.9-18.1,51-12.5,56.5
				c5.6,5.4,65.7,19.6,90.4,28.2c22,7.8,47.7,24,61.9,35.3c14.4,11.4,12.9,10.8,6,32.2c-7,21.4-44.2,36.9-62.8,36.8
				c-39.8,0-101.2-1.1-152.8-2.3c-51.5-1.1-92.3,0.4-128.7,27c-7.6,5.4-77.7,30.8-99.3,32c-21.6,1.2-110.2,12.1-131.7,22.5
				c-3.3,1.7-11.7,3.3-23.2,3.2c-38.8,0.2-106.6-15.1-139.9-28.6c-10.7-4-17.8-8.7-18.3-9.7v0c0,0,0-0.1,0-0.1v0
				c-2.1-5.9-7.3-10.9-14.5-17.7c-7.4-6.7-16.8-14.3-27.3-22.5c-21.1-16.2-46-33.9-64.8-47.4c-12.5-8.9-22.4-16.2-25.5-19.1
				c-9-8.4-26-18.3-41.2-26.6c-11.7-6.5-22.2-11.8-26.3-13.9l-23.5-28.4c1.3-7.6,4.8-32.2,4.8-59.5c-0.1-9.4,9.1-24,21.6-37.6
				c12.4-13.7,27.5-26.8,37.5-34.9c2.2-1.8,4-3.3,5.7-4.6l153.9,58.2l75.2,29.6h2.8C1467.6,1047.9,1567.3,1048.4,1632,1024.4z
				 M2440,845.1c6.1-4.2,42.6-26.4,63.2-38.3c14.9-8.5,86.6-1.7,97.1,11.5c10.4,13.3,10.3,18.4,17.7,28c2.3,3.1,6.3,6.6,10.5,9.9
				c-21.3,40.7-56.8,111.7-50.1,122c9.1,13.9,18.8,25.3,25.7,49.3c7,23.9,6.3,40.9,24,60.7c17.7,19.7,26.7,26.9,26,46.5
				c-0.7,19.4,2,104.1-151.2,282.1c-29.9-9.1-72.3-24.9-81.8-59.5c-6.4-23.1-9.8-50.4-9.8-66.6c0-5,0.5-9,0.9-10.9
				c5.8-19.5,52.2-73.8,56.2-134.7c1.7-27.8-20.9-40.4-65.2-72.7c-44.2-32.3-31.2-36.8-32.6-66.3c-1.5-29.6,1.4-35-27.2-83.8
				c-18.1-30.7-44.3-89.5,35-77.7c15.7,2.3,28.3,5.7,40.3,5.8C2426,850.5,2434.1,849.2,2440,845.1z M2282.1,836.8
				c19.2,17.4,25.8,52.2,40.5,77.7c28.7,49.4,33.1,74.9,22.2,114.9c-10.8,40-169.6,178.2-180.1,166.5c-10.6-11.7-3-39.8-7.6-50.1
				c-4.6-10.3-3.7-5.6-31.2-10.8c-27.5-5.2-111.9-39-121.4-45.9c-9.5-6.9-14.6-25.1,12.5-42.8c26.8-17.7,146.1-43.2,152.9-44.4
				c7-1.2-19-70.8,6.8-89.9c25.9-19.1,55.1-50.4,57.3-54.2C2233.9,857.7,2262.8,819.4,2282.1,836.8z M2190.7,885.5
				c-31.9,7.8-40-6-53-17.5c-12.9-11.5-118.4-42.1-138.6-42.2c-11.4,0.3-31-12.6-33-30.6c-2.1-18,33.9-50.7,33.9-50.7l28.1-19.4
				l119.6-8.1c20.9,8.7,38.2,16.4,41.3,17.7c1.7,1,8.7,5,17.3,10.4c9.8,6.2,38.9,27.7,38.9,55.2
				C2245.1,827.9,2222.6,877.7,2190.7,885.5z M2050,1253.4c43.4,16.7,64.3,72.1,56.3,117.2c-8,45.1-45.7,62.3-45.7,62.3
				s-89.5,58.6-149.3,74.7c-59.9,16.1-132,17-142.1,14.6c-19.6-4.4-52.3-8.5-83.7-11.9c-10.3-1.1-20.5-2.1-29.9-3
				c0,0,74-18.4,95.9-23.8c21.9-5.4,10.8-14.5,7.4-25.4c-3.5-10.9-54.5-23.1-69.7-58.3c-15.2-35.2,13.8-67.3,42.2-89.9
				c28.7-22.7,70.2-54.6,106.7-66.5C1874.6,1231.7,2006.3,1236.7,2050,1253.4z M2033.4,1674.8c21.6,36-10.7,37.1,8.1,77.1
				c18.8,40.1-26.8,111.9-55.3,108.8c-28.6-3-49.8-29.1-75.5-42.2c-51.7-26.1-112.8-54-152.3-70.3c-35.2-14.5-89.3-30.7-140.2-46.2
				c-50.7-15.4-98.5-30.6-117.8-41.1c-5.7-2.9-8.1-5.5-8-5.6c-5.6-11.4-8.1-27.3-8.1-40.2c0-9,1.4-16.9,2.9-19.9
				c1.9-3.9,2.7-8.7,3.6-14.6c0.7-5.7,1.2-12.2,1.6-18.3c0.5-9.5,0.5-18.1,0.6-21.5c1.8-2.8,6.4-9.3,12-16.4
				c7.3-9.2,17.6-19.6,21.9-21.2c0.5-0.2,0.6-0.2,0.6-0.2c0.6-0.1,1.1-0.2,2-0.2c5.3-0.4,17,4.8,21.4,7.8c1.6,0.9,2.3,1.4,2.3,1.4
				l2.7,1.8l55.5,3.9c11.5,1.2,40.4,3.7,71.1,7c30.8,3.2,63.5,7.4,80.3,11.3c12.6,2.9,25,4,36.8,4c26.2,0,49.7-5.2,66-8
				c20.1-3.7,89.4,23.1,113.2,63.5C2002.3,1635.8,2011.8,1638.8,2033.4,1674.8z M2500.9,1522.4c-27.3,16.6-25.5,33-59,56.9
				c-33.4,23.9-47,34.9-75,47.7c-28.1,12.9-67.9,11.7-67.9,11.7s-88.6-14.6-138.9-13.1c-50.4,1.4-53.9,13.2-103.6,10.2
				c-49.9-3.1-39.3-4.5-56.6-22.1c-17.3-17.5-22.9-86.8-22.9-86.8l100.3-85.4c0,0,33.1-13.7,45.6-82.3c12.5-68.5-9.9-88.5,23-120.8
				c33.1-32.3,95.2-83.1,126.8-110.2c46.8-40.2,161.5-37.2,167.4,30.4c5.8,67.6-41.5,96.1-48.1,118.4c-1,3.7-1.2,8.2-1.2,13.7
				c0,15.4,3,38.3,7.7,59.9c5,21.8,10.9,41.3,18.9,52c2.7,3,5,6,11.8,7.9c7.5,1.6,15.3,0.8,34,7.5c14.4,5.2,22.9,7.1,45.8,11.7
				c23.1,4.6,52.5,12.7,63.1,29.6c10.8,17.5-8.4,30.4-24.9,41.2C2530.8,1511.4,2528,1505.7,2500.9,1522.4z M2662.7,1830
				c-38.1-4.9-104-32.6-113.9-39.1c-10.2-6.4-16-13.7-15.5-17.2c0-8.6-15.8-71.5-15.7-75.3c-0.1-2.8-15.3-17.2-28.8-27.8
				c-0.5-1-1.1-2.1-1.7-3.2c-23.6-40.3,63-48.2,63-48.2s94.1-1.6,83.3-15.1c-10.7-13.5-16.5-17.6-25.5-31.5c-9-14-8-31.3-13.8-45.4
				c-6.5-15.8,0.6-53.8-14.7-74.4c-15.2-20.5-36.4-21.7-50.9-27.8c-2.7-1.1-6.5-2.4-11-3.8c5.8-8.9,11.5-17.4,17.7-25.4
				c52.6-68.5,124.5-168.7,134.2-216.8c9.8-48.1,22.8-46.4,32.6-41.7c18.2,8.8,38.8,16.7,80,36.4c19.4,9,53.6,32.3,92.9,61.5
				c0.4,0.4,0.9,0.8,1.5,1.2c0,0,0,0.1,0,0.1h0.1c58.7,43.8,129.1,100.9,185.1,147.2c44.5,36.9,89.5,91,47,115.7
				c-93.4,54.3-228.7,105.9-249.1,119.2c-20.5,13.5-36.2,50.3-40.1,63.5c-5.5,20.3-0.4,28.7-14.5,76.1c-13.9,47.3-24.3,65.9-51.7,70
				C2725.7,1832.3,2701.1,1834.9,2662.7,1830z M3265.4,1565.2c7.1,5.6,13.6,10.4,19.6,13.9c2.8,1.8,5.6,3.3,8.5,4.5
				c3,1.1,5.9,2.3,10.5,2.4c2.4,0,5.2-0.5,7.7-1.6c0.4-0.4,6.2-1.8,13.9-2.3c7.6-0.6,17.3-1,27.5-0.9c14.1,0,29.1,0.5,41.6,1.4
				c12.4,0.8,23,2,26,2.7c6,1.3,16.1,2.4,30.4,4.2c42.5,4.9,117.9,14.8,152,33.5c6.4,3.3,10.3,10.4,10.3,21.4
				c0.1,20-13.1,49.7-26.8,76c-6.7,13.2-41,67.9-49.3,73.4c-32.2,22.2-50,53.5-73.9,78.4c-23.9,24.9-52.9,51.1-87.2,74.6
				c-34.2,23.5-68.4,15.7-102.8,46.5c-34.4,30.9-61.4,68.4-96.8,103.6c-35.3,35.2-137.3,13.9-177.6,6c-36.4-7.1-51.3-21.4-76.9-30.5
				c-2.6-0.8-9.7-5.4-16.5-11.6c-10.5-9.3-22.4-22.3-31.3-32.7c-6.6-7.7-11.7-14.1-13.9-16.9c0-2.6,0.1-7.3,0.6-12.9
				c0.6-7.9,2.2-17.6,4.4-21.9c0.8-1.7,0.8-2.9,0.8-4.1c-0.2-7.1-4.7-17.8-11.1-32.3c-16.6-36.6-22.8-62.8-34.2-87.7
				c-11.3-24.9,1.3-130.9,3.3-151.9c2.2-21,23.2-62.4,56.8-81.3c31-17.4,63.8-29.5,98.9-45.3c35.1-15.9,103.7-49.7,142.5-63.5
				c38.7-13.8,74.9-5.7,96.3,14.3C3234.9,1539.3,3251.2,1554,3265.4,1565.2z M3473.7,1011.5c8.6-7.2,18.5-13.1,28.6-18
				c15.5-7.6,32-12.8,46.1-17.2c14.4-4.5,26.2-7.5,34.7-13.2c10.3-7,17.7-10,38.3-15.3c7.7-1.9,16.8-4,28.2-6.7
				c2.4,2.5,5.5,4.3,8.8,5.9c18.5,8.8,23.3,12.1,54.7,16.9c23.5,3.5,49.5,10.6,83.1,9.6c33.6-1,29,34,28.7,58.4
				c-0.2,10.4-3.7,20.3-13.3,29.2c-6.3,1.1-15.2,1.6-25.2,1.6c-26,0-58.2-3.3-77.6-3.3c-5.1,0-38-6.9-66.7-22.2
				c-28.8-15.3-52.8-32.2-60.2-34.1C3577.9,1002.3,3511.5,1013.3,3473.7,1011.5z M3501.8,1017.6c28.1-0.2,55.6-1,68.6-1
				c1.6,0,3,0,3.7,0.1c0.5,0,0.9,0,1.1,0.1l0.1,0c0.4-0.1,6.6,2.7,12.8,6.9c19.6,12.8,50.1,38.3,65.5,51.7c3.7,3.2,7,5.5,10.5,7.4
				c3.6,1.8,7.6,3.2,12.4,3.2c5.1,0,9.1-1.6,11.8-3.1c3.8-2.3,5.8-4.4,8-6c2.1-1.6,3.7-2.4,5-2.7c0.2-0.1,3.3-0.4,7.4-0.4
				c16.5-0.1,57.6-1.7,69.7,9.4c12,11.1-3.8,34.5-3.8,52.4c0,17.8,4.6,32.8,6.8,40.7c0.3,1.1,0.6,2.4,0.6,4c0.1,8.4-5,22.5-11,36.1
				c-6.1,13.7-12.7,26.9-15.5,36c-5.2,18.4-5.2,48.3-5.3,63.6l-49.6,47.9c-2.7,1.9-12,9.2-17.5,20.2c0.1,0-0.6,1-2.4,2.3
				c-5.7,4.8-20.1,12.7-32.5,18.8c-12.5,6.2-23.1,10.9-23.1,10.9l-4.9,2.1v0.3c-3.4,0.9-10.4,2.3-22.5,3.7
				c-14,1.6-29.2,3.6-41.8,5.4c6.3-8.9,10.6-19.7,14-31.3c5.7-20.6,7.6-44.1,7.6-64.4c0-15.3-1.1-28.6-2.7-37.6
				c-2.3-10.4-12-21.4-25.1-35.5c-39.2-41.8-110.2-107.2-110.2-174.8c0-1.9,0.2-3.8,0.2-5.6c0.5-8.4,2-16,4.1-23l0.3-0.1
				c0,0-0.1-0.1-0.1-0.3C3447.7,1043.2,3473.7,1017.7,3501.8,1017.6z M3366.6,987.9c22.3,25.1,23.1,30.1,37.1,46.9
				c8.4,10.2,14.7,18.1,18.5,22.7c-1.6,6.4-2.6,13.2-2.9,20.5c-0.2,2.1-0.2,4.1-0.2,6.2c0,49.6,33.7,95.8,67,133.4
				c16.8,18.8,33.6,35.5,46.4,49.2c12.9,13.5,21.3,24.7,21.9,29.5c1.4,8,2.6,21,2.6,35.8c0,19.6-1.9,42.4-7.3,61.7
				c-5.1,19.3-14.8,34.7-24.8,39.2c-38.1,18.9-78.4,30.6-108.9,55.5c-13.5,11.3-43.1,32.6-69,50.9c-19.3,13.7-65.2,10.2-67.9,8.4
				c-18-12-32-20.9-56.9-45c-18.4-17.5-33.9-33.3-41.3-40.6l0.6-0.4l-5.4-4.5c0-0.1-102.2-70.6-144.4-109c-42-38.4-50-46.2-50-46.2
				c-39.9-32.4-36.9-33.9-64.1-55.9c-27.2-21.9,35.1-36.7,11.6-64.5c-23.6-27.9-8.1-93.2,21.8-100.6c29.9-7.4,68.4-8.5,106.7-16.6
				c114.3-24.4,205-48.6,244.8-65.3C3342.1,982.5,3360.6,981.1,3366.6,987.9z M3377.4,760c23.9,4.9,54.3,11.2,76.5,20.5
				c45.3,18.9,45.7,26.4,49.1,43.6c3.7,17.1-3.5,26-16.1,35.4c-26.2,19.3-98.7,80.5-136,96.5c-39.9,17.4-69.2,32-112.7,46.5
				c-43.5,14.5-161.1,57-276.1,61.4c-31.4,1.2-49.2-25.3-63.6-42.5c-14.4-17.2-26.8-43.1-32.4-91c-0.7-7.1-1.1-13.4-1.1-19
				c-0.1-17.3,3.7-27.6,8.7-33.3c3.7-4.3,7.9-6.5,13.3-8.1c8.2-2.5,20.1-3.1,33.6-4.2c13.3-1.2,28.8-3.2,42.7-10.5
				c21.2-11,50.3-20.6,77-29.3c26.7-8.9,50.7-16.3,64.7-25.7c12.2-8.4,41.5-32.6,78.3-67.3c4.1-3.9,8.4-7.9,12.8-12.1
				c11.1,3.8,27.9,9.6,46.1,15.3c15.8,5,32.6,10,47.6,13.8c15.1,3.8,27.8,6.5,38.2,6.7c3.5-0.1,6.9-0.3,11-1.8c0,0,0.1,0,0.3,0
				c0.4-0.1,1.2-0.1,2-0.1C3347.7,754.8,3361.5,756.7,3377.4,760z M3788.7,625.4c-5.2,14.9-22,26.6-69.4,42.9
				c-47.6,16.3-163.9,63.2-172.4,70c-16.8,14-92,25.9-123.5,17.5c-32.3-8.5-66.3-12.3-104.8-13.4c-38.4-1.1-53.9-11.2-86.2-27.6
				c-32.4-16.5,43.7-72.7,56-81.5c12.2-8.8,42.3-20.1,57.3-18.7c27.2,2.8,57.7,2.8,95.6,8c25,3.4,56.8,4.7,90,4.7
				c38.2,0,78.3-1.7,111.4-4c16.3-1.2,31.1-2.5,42.9-3.9c11.9-1.4,20.6-2.7,26.8-4.4c1.2-0.4,7.2-1.3,15-1.9
				C3742.8,611.9,3793.8,610.5,3788.7,625.4z M3133,312.1c18.7,7.8,53,44.9,81.8,62.6c29,17.7,6.2,49.2,14.7,91.8
				c4.9,24.5,10.9,50.1,18.1,71.8c7.4,21.8,15,39.2,26.2,49.5c5.8,5.2,18.2,7.5,1.3,27.3c-16.8,19.8-72.2,75.3-108.6,109.6
				c-36.2,34.2-66,58.4-76.3,65.5c-8.5,6.1-32.3,14.3-58.9,22.8c-26.8,8.8-56.8,18.5-80.5,30.8c-16.6,8.9-39.7,6.8-63.4,10.9
				c-11.8,2.1-24.1,6.8-31.8,16.1c-7.8,9.3-11.5,21.9-11.6,40.6c0,6.1,0.5,12.8,1.3,20.2c5.6,49.1,18.5,77.4,35,97.1
				c15.5,18.3,39.3,41.8,38.3,65.9c-0.9,24.1-12.1,42.2-11.4,64.6c0.4,22.3,3.9,67.9-40.7,49.1c-44.5-18.7-53.4-37.1-72.7-46.2
				c-41.9-19.9-63-28.1-79.9-36.3c-16.8-8.2-27.9-18.2-58.7-38c-21.2-13.6-30.8-41.2-38.5-57.1c-7.8-15.8-23-58.9-23-58.9
				c-2.7-7.7-4.1-11.5,25.7-76.1c5.8-12.5,12.5-23.2,18.8-32.1c4.8,3.3,8.6,5.4,8.6,5.4l15.6-9.5l-8-16.1c4.4-5.1,7.5-8.5,8.3-10.1
				c0,0,0,0,0.1-0.3c1.6-2.4,8.4-10,16.8-21.3c25.7-34.2,69-105.5,69-217.5c0-25.6-2.3-53.3-7.6-83.2c-4.4-26-6.5-49.2-6.5-69.8
				c0-71.4,23.8-112.3,48.2-135.5c24.1-22.9,48.8-29.2,54.9-30.7c0.4,0,1.2-0.1,2.3-0.1c14.3-0.1,83.4,3.1,128.3,9
				C3013.6,289.5,3114.4,304.3,3133,312.1z M2384.4,265.4l-4.5-3.6c-0.2-0.1-13.2-11-30.5-23.3c-17.2-12.3-37.9-26-56-32.4
				c-14.1-4.8-38.9-17.3-59.3-28.4c-15.1-8.1-52.9-63.8-18.9-59c33.7,4.9,40.7,11.9,58.4-0.7c17.9-12.6,126.5-95.7,167.7-97.4
				c79.9-3.5,218.6-53.6,258.1-68.4c3.5,7.6,7.2,15.9,10.9,24.3c5.8,13.8,11.7,27.8,15.8,39.8c4.3,12,6.9,22.1,6.9,26.5
				c0,23,0,36.5,12,57c7.6,12.5,29,26.4,50.4,40.4c10.6,6.8,21.2,13.4,29.8,18.9c8.4,5.4,15,10.2,16.5,11.8
				c7.5,7.5,20.6,14.2,32.2,19.8c11.6,5.5,21.4,9.4,21.8,9.6c2,0.8,12.4,5.3,24.5,10.1c13.8,5.4,29,11.3,39.2,13.7
				c15.2,3.5,57.3,13.2,66.1,15.2c0,0,73.3,31.1,73.1,41.1c-0.2,10-39,7-48,5.4c-10.2-1.8-53.7-8.1-99.4-14.1
				c-45.8-6-92.2-11.5-111.1-11.6c-2.9,0.1-5.2,0-8.5,0.7c-7.9,1.8-38,9.8-65.6,36c-27.5,26.2-52.1,70.4-52.1,144
				c0,21.3,2,45,6.6,71.6c5.3,29.3,7.3,56.4,7.3,81.4c0,75.3-19.9,131.3-40.3,169.6c-10.1,19.1-20.6,33.9-28.6,44.3
				c-4.2,5.3-7.6,9.5-10.2,12.8c-1.3,1.6-2.4,3-3.3,4.1l-3.6-7.2c0,0-15.7,8.6-17.2,3.4c-1.3-5.2-21.7-18-31.2-20.7
				c-9.3-2.7-47.9-10-62.5-13.2c-14.7-3.3-20,3.7-28.7,9.1c-8.9,5.4-66.6,40.8-117.7,34.7c-15.6-1.8-95-15-100.2-15.1
				c-0.4,0-1,0-1.6,0.1c-5.4-10-10.2-18.7-13.6-25.6c-3.8-7.7-6.3-13.6-6.5-14.8c-0.3-6.7-5.2-11.8-10.8-17.4
				c-6-5.5-13.3-11.1-20.8-16.1c-14.6-10.2-29.1-18.3-29.3-18.4l-0.3-0.3l-0.6-0.2c-0.1,0-22.3-9.9-48.5-20.7
				c-26.2-10.9-55.8-22.5-73.4-26.7v0c-0.4-0.2-0.9-0.5-1.7-1.1c-1.4-1.1-3.4-3-5.4-5.5c-4.1-5-8.8-12.2-13.5-20.7
				c-9.6-17.1-19.6-39.6-28.7-61.9c-15.2-37.2-30.9-74.3-13.1-92.1c17.8-17.8,279.5-110.8,279.5-110.8L2384.4,265.4z M1827.1,383.5
				c65.5,10.2,136.2,20.5,165.3,20.6c3.2,0,6-0.1,8.9-0.5c2.7-0.5,6.2-0.8,9.8-4l0,0c0.1-0.1,0.4-0.3,0.9-0.5c1.1-0.5,2.7-1.2,4.8-2
				c4.1-1.5,9.9-3.3,16.8-5.1c13.7-3.8,31.5-7.9,48.9-11.7c28.3-6.1,59.4-10,114.5-0.6c55.2,9.3-61.6,39-126.1,56.1
				c-64.5,17.1-83.7,34.9-93.9,65.2c-10.1,30.2,10.9,33.7,26,72.4c15.2,38.7,33.7,81.8,50.8,102.6c5.3,5.9,9.2,10.6,18.4,13.1
				c9.4,2.1-53.3,22.2-53.3,22.2l-34.4,23.7c0,0-13.6,15.9-31.7,33.2c-18.3,17.3,3.9,42.8-73.8,48.9c-77.8,6.1-81-3-102-17.3
				c-20.9-14.3-26.6-32.7-49.9-50.5c-23.4-17.8-94.3-30.2-133.8-62.2c-39.6-32.1-43.8-119.4-43.8-119.4l-2.3-1.5
				c0,0-1.3-0.9-3.6-2.8c-2.4-1.8-5.4-4.4-8.4-7.5c-6.2-6.1-11.7-14-11.5-19.6c0-2.8,1-5,3.6-7.2c7.4-6.5,36.7-23.8,67.3-41.1
				c30.8-17.6,62.9-36,79.2-47.7c4.8-3.4,8.3-6.1,10.7-9.3c8.7-12,21.9-40.6,28.7-59.6c0.7-2.4,1.4-4.5,2.1-6.4
				C1734.9,368.4,1779.2,375.9,1827.1,383.5z M1366.4,336.3c10.9-2.8,18-4.4,23.4-7.1c7.4-4.1,22.8-5.5,40.3-6.3
				c17.7-1,37.3-1.8,54.5-8.8c9.8-4,27.7-11,47.3-17c77.9-23.6,89.6-17.3,149,33.2c13.7,11.6,13.7,32.3,11.7,37.7
				c-2.1,5.9-22.3,50.2-27,56.4c-0.3,0.7-148.5,90.1-154.8,95.5c-5.7,4.9-8.1,10.8-8.1,16.2c0.2,11,8,20.5,15.1,27.8
				c5,4.8,9.6,8.6,12.3,10.6c0,0,29.7,104.1,32.8,128c2.8,23.9-8.9,21.2-17.8,44.9c-10.6,28.1-21.4,58.1-21.5,71.5
				c0,1.6,0.1,3.1,0.8,4.8c2,5.4,6.7,10.7,12.5,16.7c6,6,13.1,12.4,20,18.3c12.8,10.8,24.8,20.1,26.8,21.6l48.3,44.4l2.9,0.7l0,0
				c0.2,0,0.5,0.2,0.9,0.3c0.7,0.2,1.9,0.6,3.4,1.2c2.9,1.2,7,3,10.9,5.7c8,5.5,15.8,13.8,15.8,28.2c0,6.6-1.7,14.4-6.1,23.7
				c-7.6,16.5-35.1,28.6-69,36.1c-33.7,7.6-71.8,10.7-96.9,11.9c-11.6,0.6-20.3,0.8-24.4,0.8l-70.6-27.8l-156-59
				c-0.3-17.9-2.9-88.7-20.1-140.9c-6.6-20.1-15.1-37.4-28-48.9c-21.4-18.3-80.6-95.8-88.5-110.5c-8.3-15.3-28.1-54.1-46.3-90.9
				c-18.3-36.7-35.3-72-37.6-78.9c-0.6-1.7,11.9-76.5,62.4-85.2c25.7-4.5,59-11.9,94.2-18.6c2.3-0.4,4.5-0.8,6.6-1.2l1.4,0.6l0.8-1
				C1256.5,358.4,1329.8,344.8,1366.4,336.3z M170.5,282.6c-18.7-30.7-47.4-79.3-56.5-99.9c-9.8-21.9,7-54.3,71.2-63
				C249.4,111,342.7,67,358.3,62.5C397,51,504.5,23.8,542.7,16.3c4.6-1,14.7-1.6,27.2-1.6c31.3,0,159.5,11.8,185,10.9
				c25.4-1,71.6-8.1,100.6-12c29.3-3.9,51.8-4.6,70.8,29.3c19.3,33.9,29.8,45.9,18.6,57.6c-11.2,11.6-51.8,1.3-68.3,27.1
				C860.2,153.4,768,256.3,698.3,261.6c-21.4,1.7-42.2,1.1-60,4.5c-46,8.7-111.4,19.6-149.1,27.9c-12.7,2.9-21.8,5.1-28.2,7.9
				c-0.2,0-0.3,0.1-0.6,0.2c-0.7,0.2-1.6,0.5-2.9,0.8c-2.3,0.6-5.8,1.4-9.9,2.2c-8.2,1.7-19.2,3.7-31.8,5.8
				c-25.5,4.3-58,9.4-89.9,14.2C276.1,332.8,189.3,313.3,170.5,282.6z M460.5,527.1c-19.4-15-82.2-93.7-111.8-117.4
				c-29.6-23.8-198.9-90.5-104.4-69.2c94.6,21.4,160.7-11.9,209.2-21.6c9.1-1.9,14.2-2.9,19.2-5c1.9-1.1,11.1-3.7,23.1-6.2
				c11.9-2.7,27.4-5.7,44-8.8c33.7-6.3,73.1-13.1,104.1-18.9c15.1-2.8,34.1-4,54.5-4c56.8,0,122.7,9,143.2,11.9
				c13.2,1.8,75.6,13.5,133.7,24.6c53.5,10.3,55.5,6.8,112.1,21.6c56.5,14.8-27.5,50.2-43.4,53.3c-32.8,6.6-48,79.2-38.6,92.9
				c20,29.6,74.4,143.9,81.9,186.9c7.3,43.1-73.1,52-115,37.6c-87.5-30.1-183-99.4-199.8-111.1c-7.1-5-10.5-9.5-14.6-16.5
				c-4-6.9-58.4-74-67.2-86c-8.3-11.5-42.6,2.3-53.9,6.1c-10.9,3.9-82.1,27.5-94.8,33.4C516.4,542.5,471.5,535.8,460.5,527.1z
				 M542.7,919.1c-26.7-3.1-57.9-7.8-66-9c-39.9-19.3-77.6-30.8-103.2-52.2c-19.4-16-66.4-49.3-95.1-69.3c5.3,0.2,10.8,0.3,16.5,0.3
				c14.7,0,30.3-0.6,43.6-1.4c13.2-0.9,23.7-1.9,30.3-3.4c2.4-0.6,13.5-2,27.7-3.6c14.2-1.7,32.2-3.9,51.5-6.8
				c38.6-6,81.7-14.6,109.5-29.5c14.1-7.7,18.4-19.9,18.4-32.7c-0.2-35.6-31.4-86.2-46.6-116.6c-4.8-9.4-19.1-23.5,17.4-44.8
				c36.5-21.3,69.4-39,103.6-45.4c34.1-6.4,36.3,7.7,45.6,17.3c9.2,9.5,17.6,21.9,26.1,33.6c8.2,11.2,12.1,19.5,16.5,27.1
				c4.5,7.5,9.4,14.6,19.3,21.3c16.8,11.6,112.7,81.8,205.2,113.8c46.9,16.2,92,19.2,129.6,23c37.8,3.9,66.5,8.5,86.2,25.5
				c14.3,12,25.7,41.9,32.1,73.5c6.7,31.7,9.7,65.7,10.8,87.6c0.6,10,0.8,17.4,0.9,21.2c-6,4.5-20.1,15.7-34.4,29.5
				c-18.5,18.1-38,39.7-38.4,59.3c0,15.9-1.4,31-2.6,42.1c-1.3,11-2.6,18-2.6,18l-0.3,2.4l24.1,29.3c0,0.2-0.1,0.3-0.4,0.4
				c-3.6,2.5-8.6,6-14.7,9.7c-12.1,7.4-28.3,15.7-42.9,18.9c-33.1,7.6-94.9,19.3-94.9,19.3l-1.6,0.3l-73.1,32.3l-58.5-40.8
				c-4.2-5.3-27.3-33.3-47-50.3c-16.3-14.1-18.2-28.2-18.5-31c0-0.4,0-0.4,0-0.4v-3.2l-72.9-46.3l-35.2-7l-50.5-48.6l-0.7-0.4
				c0,0,0,0-0.2-0.1c-0.2-0.2-0.5-0.5-0.9-0.8c-0.9-0.7-2.2-1.7-3.6-3.1c-2.8-2.7-6.2-6.6-8.3-11.1c-3-5.4-8.3-8.8-14.9-13.1
				c-6.5-4.1-14.4-8.4-22-12.3c-12-6.1-23.4-11.3-27.8-13.3c-0.1,0-0.1-0.1-0.1-0.1c-1.9-1.4-3.9-2.4-6.8-3.4
				C567.5,922.7,559,920.9,542.7,919.1z M385.7,1300.5c0.2-0.2,0.2-0.3,0.2-0.3l-0.5-0.2c-1.9-6.9-3.3-14.6-3.9-22.9
				c-0.1-1.9-0.2-3.7-0.2-5.7c-0.1-67.5,70.7-133,110.1-174.8c13-14.1,22.7-25.1,25.1-35.5c1.6-9,2.6-22.3,2.6-37.6
				c0-20.2-2-43.7-7.6-64.4c-3.4-11.7-7.7-22.4-14.1-31.3c12.6,1.8,27.7,3.8,41.9,5.4c12.1,1.4,19.1,2.8,22.5,3.7v0.3l4.8,2.1
				c0.1,0,10.8,4.7,23.3,10.9c12.3,6.1,26.8,14,32.5,18.9c1.6,1.3,2.5,2.3,2.3,2.3c5.6,11,14.9,18.3,17.6,20.3l49.5,47.9
				c0.1,15.4,0.3,45.3,5.4,63.6c2.7,9.1,9.4,22.3,15.4,36c6.1,13.6,11.2,27.7,11.2,36c0,1.7-0.2,3-0.5,4c-2.3,8-6.8,23-6.8,40.8
				c-0.1,17.8,15.8,41.2,3.8,52.3c-12.2,11.1-53.2,9.4-69.8,9.4c-4,0-7.2-0.3-7.2-0.4c-1.5-0.3-3-1.1-5.1-2.7c-2.1-1.6-4.2-3.8-8-6
				c-2.5-1.5-6.6-3.1-11.7-3.1c-4.8,0-9,1.4-12.5,3.2c-3.5,1.8-6.8,4.2-10.6,7.4c-15.4,13.3-45.6,38.9-65.6,51.7
				c-6.2,4.2-12.3,7-12.7,6.9l0,0c-0.3,0-0.5,0-1.1,0.1c-0.9,0-2.2,0.1-3.7,0.1c-13,0.1-40.6-0.8-68.7-1
				C415.2,1337.9,389.2,1312.4,385.7,1300.5z M466.2,1534.3c1.3-15.7,18.3-28.3-1.4-37.9c-19.6-9.6-114.2-67-132.8-78.8
				c-37.9-24.1-19.6-34.2-13.5-40.9c27.2-30.4,38.5-41.2,52.6-58.3c8.4,16.9,20.9,30.1,35.3,40.5c24.4,17.5,53.5,26.8,75,33.6
				c14.4,4.3,25.8,8.1,28.6,10.2c12.2,8.5,24.5,13.3,45.9,18.6c21.6,5.4,53.9,12.2,109.9,25.7c47.2,11.3,71.8,14.2,89.7,14.2
				c15.5,0,24.2-1.9,35.8-1.9c7.8,0,35.7-1.1,50.8,1.5c24.9,4.3,64.9,55,75.9,78.5c5.8,12.1,21.3,38.2,36,63.4
				c14.6,25,28.8,49.8,31.3,56.2c9,23-13.7,55.3-32.7,62.6c-32.5,12.5-62.7,22.8-70.9,25.5c-9.2,0-44.1-0.1-84.2-0.6
				c-13.8-0.2-28.4-10.2-41.5-22.3c-13.1-12.1-13.6-12.1-49.4-29.3c-35.7-17.2-107.4-34.3-155.6-59.5
				c-46.9-23.4-55.4-31.3-62.9-38.9C476.8,1585.1,465,1550,466.2,1534.3z M382.9,1733c-37.9,5.2-68.5,5.2-95.8,8
				c-14.9,1.5-44.9-9.8-57.2-18.6c-12.3-8.8-88.5-65-56-81.5c32.3-16.5,47.8-26.6,86.2-27.7c38.3-1.1,72.4-4.9,104.7-13.4
				c31.6-8.5,106.7,3.5,123.6,17.5c8.4,6.8,124.8,53.7,172.4,70c47.6,16.3,64.2,28.1,69.5,42.9c5.1,14.9-45.9,13.5-61.3,12.2
				c-7.8-0.6-13.6-1.5-14.9-1.9c-6.2-1.6-15-2.9-26.9-4.3c-12-1.4-26.6-2.7-43-3.9c-33-2.3-73-4-111.2-4
				C439.6,1728.3,407.8,1729.6,382.9,1733z M758.6,2139.6c-2.9,1.7-7.4,4-12.5,6.3c-10.4,4.6-24.2,8.9-36.5,8.8
				c-4.7,0-9.2-0.5-13.6-1.8c-23.9-6.9-40.5-12.8-56.8-13.1c-8.8-0.2-18.5,2.8-23.6,8.5c-3.9,4.2-21.1,17.1-36.4,28.2
				c-14,10-26.9,18.9-29.5,20.7c0,0-20.6,16.6-63.5,28.3c-43,11.8-65.2,8.1-75.6,4c-19.6-7.8-36.9-14.2-50.2-23.1
				c-13.3-8.9-93.9-84.8-115.6-107.2c-6.6-7-12.9-11.6-20.1-14.6c-7-3-14.4-3.7-20.4-3.7c-6.2,0-11.2,0.5-16.6,0.5
				c-3.5,0-7.1-0.1-11.4-0.7c-20.9-2.7-70.6-11.5-74.5-28.3c-3.8-16.8,55.6-47.8,70.8-66.3c15.1-18.5,7.3-26.9,12.7-59.9
				c5.6-33.1,13.9-74.1,24.3-105.7c6.9-20.9,15.4-38,22.4-43.9c16.5-14.5,33.4-18.8,58.3-21.5c24.8-2.6,56.7-2.6,96.8-8.1
				c22.5-3.1,53.5-4.4,86-4.4c56,0,116.9,3.8,150.8,7.7c11.2,1.3,19.5,2.6,22.5,3.5c5.3,1.4,11.5,2,20.1,2.8
				c8.5,0.7,18.8,1.3,30.6,1.8c23.5,1,52.2,1.7,79.7,2.1c55.4,0.9,107.5,0.9,107.5,0.9h2.5l2.1-0.7c0.2-0.1,138.5-14.8,166.2-4.2
				c27.5,10.6,27.5,16.3,7.2,30.6c-20.2,14.4-42.9,18.5-97,25.9c-28.4,3.9-41.8,7-52.5,9.5c-10.6,2.4-17.6,4.1-36.9,6
				c-14.2,1.6-28.5,8.5-45.3,17.7c-16.6,9.2-34.6,20.8-51.1,32.3c-33.4,23-61.7,45.3-61.7,45.4l-3.1,2.5l44.9,212.7
				C759.1,2139.4,759.1,2139.4,758.6,2139.6z M1440.4,2071.1c-71.6,14.7-104.9,61-174,53.5c-69.3-7.5-148.2-65.5-178.7-77.1
				c-8.9-3.3-16.3-5.6-24.8-5.7c-21.1,0-46.9,3-70.3,7.5c-23.4,4.7-43.5,10.2-55.2,17.8c-0.8,0.7-5,2.9-10.6,5.4
				c-5.8,2.6-13.1,5.8-21.6,9.3c-17.1,7-38.3,15.3-59,23.3c-26.7,10.3-52.6,20.1-67.5,25.6L736.4,1931c5.6-4.4,18.3-14.2,34.3-25.8
				c21.5-15.7,49.4-34.8,72.9-47.8c15.1-8.7,29.8-14.4,35.2-14.7c20.2-1.9,30-4.1,40.6-6.6c10.4-2.4,22.2-5.1,50-9
				c58.6-8,99.5-28.3,116.2-36c8.7-4.5,11.2-10.7,14.2-17.8c2.3-7.1,3.1-15.5,5.2-23.4c4.3-17.1,101.3-4.3,115.4-4.1
				c19.8,0,39.3-10.8,76.9,5.6c37.4,16.4,70.3,101.4,113.1,142.5c43,41.2,237.1,117.6,189.7,138.7
				C1552.7,2053.9,1511.7,2056.4,1440.4,2071.1z M2096.9,2250.8c-22.6-2.4-87.4-26.4-140.2-54.5c-29-15.5-18.1-37.9-45.4-41.9
				c-76.8-11.4-148.3-60.5-166.5-75.2c-18.2-14.7-40.2-28.4-31.6-37.3c11.5-12,62.4-17.3,109.2-40.1
				c54.1-26.2,182.5-68.1,182.5-68.1h0.7c24.4-0.2,62.7,10.6,99.4,24.6c36.5,14,72,30.9,93.8,42.2c33.8,17.4,99.3,50.2,133.9,71.6
				c11.3,6.9,19.6,13.3,20.6,15.1c0.7,0.8,2.9,5.6,5.1,11.6c2.2,6.2,4.7,14.1,7.6,22.8c5.9,17.4,19.9,30.2,16,42.5
				c-4,12.3-18.1,29-40.5,39.8c-22.2,10.8,15.7,19.9-20.3,29.7c-35.9,9.9-48.6,0.9-69.9-11.6c-9.1-5.4-20.8-7.4-32.5-7.4
				c-27.8,0.2-58.9,10.3-84.2,20C2118.1,2240.8,2119.6,2253.2,2096.9,2250.8z"/>
			<path fill="#698093" d="M2112.5,2290.6c23.9-20.3,32.2-22.1,44-26.7c23.9-9.4,54.1-18.4,74.2-18.2c8.6,0,14.5,1.3,18.9,3.9
				c26,15.4,39.3,10.8,57.6,10.7c12.5,0,32.2,3.4,47.1-6.8c14.8-10.3-2.5-21.6,17.4-29.1c19.9-7.5,62.2,1.3,62.2,1.3
				c2.2,0.6,4.4,1.1,6.7,1.2l4.5,0.9l0.1-0.8c11.3-0.7,20.2-5.9,28-13.7c11.9-12,21.3-31.1,30.2-54.5c8.9-23.4,16.8-51.1,24.3-79.1
				c14.9-56,27.6-114.1,39.2-141.4c2-5.1,4.4-9.2,6-11.5c1.1,0.5,2.4,1.2,3.6,2c3.7,2.3,8.2,5.7,12.7,9.7c9.3,8.1,19.3-7.9,28.8,2.9
				c18.6,21.5,43.4-24.4,43.4-24.4l6.4-17.7c-0.1-0.1-8.2-19.9-24-38.8c-16.1-19-36.1,68.4-53.4,57.6c-5-3.1-10.1-5.6-16.9-6.7
				c-1.2-0.1-2-0.2-2.7-0.2c-5.6,0.1-9.3,2.2-11.6,4c-2.4,1.8-4,3.8-5.7,6.1c-3.1,4.7-5.7,10.5-8.5,17.8
				c-5.6,14.5-11.1,34.3-17,56.9c-11.7,45-24.5,101.1-39.5,145c-9.9,29.3-21.5,53.5-32.3,64.2c-6.1,6.1-10.5,7.5-12.1,7.6l-2.9-0.6
				c-0.7-0.3-1.5-0.6-2.4-1.2c-2.5-1.5-5.6-4.2-8.6-7.8c-6.1-7.2-11.9-17.9-17.3-29.6c-10.3-23.5-18.3-50.8-24-65.8
				c-1.8-4.4-3.1-7.5-5.1-10.3c-4.5-5.9-13.2-11.7-25.3-19.3c-12.1-7.5-27.3-16-43.5-24.8c-32.6-17.5-69.2-36-91.7-47.6
				c-22.3-11.6-58.4-28.8-96.3-43.2c-35.6-13.5-111.3-36-106.9-61.1c4.4-25.1,48.7-68.7,56.3-103.2c7.8-34.5-23.9-92.2,7.9-113.7
				c31.6-21.5,19.7-23.4,74.9-29.1c55.2-5.6,76.7-3.2,126.6,5.2c49.9,8.4,43.3,2,88.4-8.4c45.2-10.4,46.8-31,86.2-51.3
				c39.3-20.4,30.9-37.6,59.8-51.3c29-13.7,28.7-13.9,43.7-13.8c15,0.1,33.4,8.7,35.1,41.2c1.7,31.2-150.4,71.4-147.9,96.3l-0.7,0.6
				c0.1,0,8.1,22,23.3,32.1c7.7,5,33.7,7.9,42.1,28.3c8.4,20.3,8.9,50.2,8.9,56c2.7,26.7,97.9,65.9,137.7,71.7
				c39.8,5.8,150,27.7,162.2,51.4c8.5,16.4,17,33.4,23.3,47.3c6.3,13.7-10.3,54.7-32.2,87.2c-21.9,32.5-121.8,90.9-136.2,108.1
				c-7.4,8.6-28.2,82.3-44.8,136.4c-7.1,23.4-19.7,19.1-59.4,29.5c-39.6,10.4-192.9,121.4-192.9,121.4l9.1,38.7
				c0,0,168-143.1,203.5-150.8c35.6-7.6,39.4-3.3,54.8-42.9c15.5-39.5,48.1-125.9,58.2-137.2c7.2-8.2,118.6-70.3,165.4-67.9
				c46.7,2.4,90.3,41.6,132.7,50c18.9,3.8,55.6,12.5,87.1,20.2c23,5.6,41.7,31.1,45.3,49.5c3.7,18.3,1.5,52.8-8.2,56.2
				c-21.6,7.8-120.6,12.9-141.7,27.4c-20,13.8-102,166.9-102,166.9l19.5,4.9c0,0,22.7-121.6,116.3-163.7
				c93.5-42.1,239.9-18.1,279.9-15.3c39.9,2.9,94.8,36.5,118.7,43.6c40.1,11.8,206.3,48.9,219.6,48.9c55.7,0,226.3-2.8,279.7,22v-36
				c-29.3-4-70.9-10.2-94.6-11.2c-25.5-1-153.7,10.8-185,10.8c-12.4,0-22.5-0.6-27.1-1.5c-38.3-7.5-145.7-34.8-184.3-46.2
				c-15.6-4.6-108.9-48.5-173.3-57.2c-64.1-8.7-81-41.1-71.1-63c9.1-20.6,37.8-69.2,56.4-99.9c18.8-30.7,105.6-50.1,155.6-42.6
				c31.9,4.9,64.3,10,89.7,14.3c12.8,2.2,23.6,4.1,31.8,5.8c4.2,0.8,7.4,1.6,9.8,2.2c1.2,0.3,2.2,0.5,3,0.8c0.2,0.1,0.5,0.2,0.6,0.2
				c6.5,2.8,15.5,5.1,28.3,8c37.6,8.3,102.9,19.2,149.2,27.9c17.7,3.3,38.4,2.8,59.8,4.5c51.2,4,114.6,60.6,151.2,100.6v-13.9
				c-19.9-20.9-42.7-43.5-59.8-57.3c-33.8-27.3,40.6-39.5,56.1-41.6c0.7-0.1,2.1-0.3,3.7-0.5v-14.8c-3.4,0.6-6.1,1-7.9,1.2
				c-20.6,2.8-86.6,11.9-143.3,11.9c-20.3,0-39.4-1.2-54.5-4c-31-5.8-70.4-12.6-103.9-18.9c-16.8-3.1-32.2-6.1-44.3-8.8
				c-11.9-2.6-21.1-5.2-23-6.3c-5-2-10.1-3.1-19-4.9c-48.6-9.8-114.8-43.1-209.3-21.7c-94.5,21.4,74.8-45.4,104.4-69.1
				c29.6-23.7,92.5-102.4,111.8-117.4c11.2-8.7,55.9-15.4,81.2-3.6c12.7,5.9,84,29.6,95,33.4c11.1,3.8,45.4,17.6,53.8,6.1
				c8.8-12,63.1-79.1,67.2-86.1c4-7.1,7.4-11.5,14.6-16.5c8.7-6.1,38.4-27.5,77.2-50.9v-19.1c-46.4,27.1-82.2,53.2-91.9,59.9
				c-9.8,6.7-14.9,13.8-19.1,21.3c-4.5,7.6-8.5,15.9-16.7,27.1c-8.4,11.8-16.8,24.2-26,33.6c-9.2,9.7-11.4,23.8-45.4,17.3
				c-34.3-6.4-67.1-24.2-103.8-45.5c-36.5-21.3-22.2-35.3-17.3-44.7c15-30.5,46.3-81.1,46.6-116.6c0-12.9-4.2-25.1-18.3-32.7
				c-28-14.9-70.9-23.5-109.6-29.5c-19.2-3-41.5-4.4-51.5-6.8c-19.6-4.8-85.9-10.6-22.8-77.5c20.2-21.5,63.1-32.8,103-52.2
				c8.1-1.2,39.5-5.9,66.2-9c16.1-1.9,24.8-3.7,30.3-5.5c2.8-1,4.8-2,6.7-3.4v-0.1c4.7-2,15.9-7.2,27.9-13.3
				c7.8-3.9,15.7-8.2,22.3-12.3c6.4-4.3,11.7-7.8,14.7-13.1c2.1-4.5,5.4-8.4,8.4-11.1c1.4-1.4,2.6-2.4,3.6-3.2
				c0.3-0.3,0.8-0.6,0.9-0.7c0.3-0.1,0.3-0.1,0.3-0.1l0.7-0.4l50.4-48.6l35.2-7l72.8-46.3v-3.2c0,0,0-0.1,0-0.4
				c0.3-2.8,2.2-16.9,18.6-30.9c4.6-4,9.4-8.7,14.2-13.4v-18.9c-12.6,10.6-24.5,18.2-30.5,23.4c-17.7,15.3-34.8,26.3-44.1,29.4
				c-9.5,3.1-61.2,11.6-57.3-2c2.1-7.2,8.8-20.7,15.1-34.6c6-14.1,11.7-28.5,11.9-40.2c0-2.3-0.2-4.6-0.9-6.9
				c-2.3-7.9-6.5-21.8-6.5-37.9c0-20.2,6.4-43.5,30.4-63.6c14.5-12.2-0.6-71.8,9.6-97.8c10.4-26,0.7-8.7-25.1-10.2
				c-25.7-1.6-87.4-10.2-100.5-13.8c-24.4-6.6-2.6-22.3,21-28c46.3-11.1,68.5-13.4,83.1-13.4c12.1,0,21.2-0.5,35.7,1.9
				c20.5,3.4,40.2,12.4,58.1,25.2v-43.4c-2.5,1.1-5,2-7.2,2.4c-15.1,2.6-43,1.6-50.8,1.6c-11.6,0-20.4-1.8-35.7-1.9
				c-18.1,0-42.6,2.9-89.9,14.3c-56.1,13.5-88.2,20.2-109.8,25.7c-21.4,5.3-33.6,10.1-45.9,18.6c-2.8,2.1-14.2,5.9-28.5,10.2
				c-21.7,6.7-50.8,16-75.2,33.5c-14.5,10.3-26.9,23.6-35.3,40.5c-13.9-17.1-25.3-27.9-52.6-58.3c-6-6.7-24.3-16.9,13.6-40.9
				c18.6-11.8,113.1-69.2,132.7-78.8c19.6-9.7,2.7-22.2,1.5-37.9c-1.4-15.7,10.5-50.8,22.2-62.3c7.6-7.7,15.9-15.5,62.8-38.9
				c48.4-25.2,119.9-42.4,155.6-59.6c35.7-17.2,36.3-17.2,49.4-29.3c13-12.1,27.4-22.1,41.5-22.3c19.2-0.2,37.2-0.4,51.7-0.5V611
				c-19.8,0.1-45.8,0.3-72.7,0.8c-27.7,0.4-56.2,1.1-79.7,2.1c-11.6,0.5-22.1,1.1-30.4,1.8c-8.7,0.8-15,1.4-20.3,2.8
				c-2.7,0.9-11.4,2.3-22.5,3.6c-33.9,3.9-94.9,7.6-150.9,7.6c-32.4,0-63.4-1.3-85.9-4.4c-40-5.5-72-5.5-96.8-8.1
				c-24.9-2.7-41.8-7-58.3-21.5c-6.9-5.9-15.6-23-22.3-43.9c-10.5-31.6-18.7-72.6-24.2-105.7c-5.6-33.1,2.3-41.5-12.9-59.9
				c-15.1-18.5-74.7-49.5-70.8-66.3c3.9-16.8,53.5-25.5,74.5-28.2c4.2-0.6,7.8-0.7,11.4-0.7c5.4,0,10.4,0.4,16.4,0.5
				c6.1,0,13.7-0.8,20.7-3.7c6.9-3,13.4-7.6,20-14.6c21.5-22.4,102.1-98.3,115.5-107.2c13.3-8.9,30.6-15.3,50.2-23
				c10.4-4.2,32.4-7.8,75.5,4c42.9,11.7,63.7,28.4,63.7,28.4c2.4,1.7,15.3,10.7,29.3,20.7c15.4,11,32.6,23.9,36.5,28.2
				c5.2,5.6,14.9,8.7,23.6,8.5c16.3-0.3,33.1-6.2,56.8-13.1c4.4-1.3,8.9-1.8,13.7-1.8c12.2-0.1,26,4.2,36.4,8.9
				c5.2,2.3,9.5,4.6,12.6,6.3c0.3,0.1,0.4,0.3,0.7,0.4l-44.9,212.7l3.1,2.5c0.2,0.1,28.5,22.4,61.7,45.4
				c16.8,11.5,34.7,23.2,51.3,32.3c6.7,3.6,12.9,6.8,18.9,9.5v-17.5c-2-1-4-2.1-6-3.2c-23.4-13-51-32.1-72.7-47.8
				c-16-11.6-28.7-21.4-34.3-25.7l42.3-199.9c14.9,5.6,40.8,15.3,67.6,25.6c1,0.4,2.1,0.8,3.2,1.2V252
				c-35.4-13.6-67.6-25.5-73.2-27.6c-6.3-3.9-33.4-20.8-66.6-21.2c-7.2,0-14.7,0.9-21.9,3c-23.6,7.1-41.2,12.2-48.6,12
				c-4-0.2-4-0.3-6.3-2.1c-6.4-6.5-23-18.7-38.9-30.1c-15.6-11.3-29.9-21.2-30-21.2l-0.5-0.3c0,0-6.2-5.4-23.9-15.4
				c-17.6-10-16.4-26.9-8.1-30c115.7-44,118.7-40.4,203.7-60.3c51.3-12,90.9-37,114.3-54.9V-9c-12.5,13.1-41.4,39.8-77.8,50.4
				c-49.1,14.3-50.7,11.8-81.4,17.2c-30.9,5.5-48.6,9.4-83.6,17.9c-35.2,8.5-90.1,42.5-129.6,41.7c-39.4-0.7-61.6-3.6-84.5,9.4
				c-23.1,13-69.9,47.2-81,60.5c-21.4,25.9-60.5,53-84,77.1c-5.7,6.1-10.3,9-13.5,10.3c-3.3,1.3-5.6,1.6-9.9,1.7
				c-4.1,0-9.5-0.5-16.4-0.5c-4.6,0-9.7,0.2-15.4,1c-30,4.3-72.7,12.1-91.9,9.3c-19.4-2.9-103.8-43.6-103.8-43.6l-1.4-0.4
				c0,0-50.6-11.6-67.6-15.5c-6.6-1.5-22.2-7.2-35.3-12.5c-13.1-5.3-24.2-10-24.4-10l-0.1-0.1l-0.2-0.1c0,0-9.5-3.7-20.3-8.9
				c-10.8-5-23-12-26.7-16c-4.2-4.2-10.9-8.6-19.7-14.4c-13.1-8.5-30.2-18.9-45.2-29c-14.6-9.9-27.2-20.1-29.8-25.1
				c-10.5-18.4-10.5-28.1-10.5-51.6c-0.3-7.2-3-17.4-7.5-29.9c-13.1-37.1-39.6-91.6-43.8-100.3l-19.8,4.5
				c1.7,3.3,6.6,13.3,12.5,26.4l-75.5-23.3c0,0,1,41.8-40.6,62.4c-41.4,20.6-78.2,27.5-119.5,29c-87.9,3.9-174.5,89-199.2,95.7
				c-24.7,6.6-70.9-19.5-70.9-19.5l-62.5-28.7l-0.8-0.3c-0.1,0-62.1-17.9-78.7-21.7c-0.1,0-1.2-0.4-2.6-1.8
				c-1.5-1.3-3.1-3.4-4.4-5.9c-3-4.8-4.8-10.7-5.8-14.6c-0.7-2.6-1-4.2-1-4.2l-0.2-1.1l-22.2-34.5l-1.5-0.9
				c-0.1-0.1-26.3-18.3-47-29.3c-7.2-3.7-12.9-6.7-19.5-8.3c-7.1-1.7-6.6-2-11.7-3.5c-4.8-1.3-10.4-2.1-26.1-4l-3.4,14.1
				c15.3,1.8,20,2.7,21.8,3.2c1.5,0.4,4.5,1.8,13,3.7c1.3,0.2,7.1,2.6,13.1,6c6.5,3.3,13.5,7.6,20.3,11.8
				c10.7,6.7,20.1,13.1,23.7,15.4l19.4,30.2c0.8,4,3.8,17.2,12,27.2c3.3,3.9,7.8,7.9,15.5,9.8c7.2,1.6,26.9,7,44.3,11.9
				c15,4.2,28.5,8.1,32.1,9.1c0,0,54.3,19.4,58.2,46.6c3.8,27.2,24.8,59.2,45.8,70.6c21.2,11.3,45.6,23.9,62.9,29.8
				c13,4.4,33.9,17.6,50.4,29.5c10.7,7.6,19.9,14.8,25,18.8c0,0-40.9,105.7-105.4,99.8c-64.5-5.9-133.9-8-164.7-3.3
				c-182.9,28-193.2,15.9-257.7,5.6c-52.6-8.3-80-6.3-105-22.3c-25.2-16-95.6-78.1-95.6-78.1l-0.6-0.5c0,0-133.4-143.6-132.8-147.8
				c0-1.3,0.3-1.7,1.2-2.4c5.6-5.1,7.7-10.9,7.6-15.9c-0.5-10.1-6-17.9-5.7-23.2c0-2.7,0.7-4.7,3.6-7.3c9.6-8.7,11.7-16.7,13.1-21.9
				c1.6-5.4,1.8-7.4,8.4-12.2c10.9-8,12.1-18.6,12.4-28.3c-0.1-13-3.8-24.6-4-24.9l-0.3-0.9l-0.6-0.8c-0.1-0.1-28.1-38.8-33.8-46.5
				l-18.6,6.4c5.2,7.1,29.1,40,33.2,45.7c0.2,1.1,0.8,3.1,1.4,5.9c0.8,4.1,1.8,9.6,1.8,15.1c0.2,8.2-2.8,16.1-6.3,18.1
				c-10.4,6.9-12.8,14.4-14.2,19.8c-1.4,5.4-2,9.1-9.3,15.9c-5.6,5.1-7.7,10.9-7.7,16c0.3,10.1,5.9,17.8,5.6,23.2
				c0,2.7-0.7,4.7-3.6,7.4c-3.6,3.3-5.2,7.3-5.1,11c0.6,12.4,20.9,17.6,27.5,26.3c4.5,5.8,76.8,103.8,76.8,106.5
				c0.4,1.1-2.4,5.1-10.2,9.6c-7.4,4.5-18.2,9.5-30.1,14.2c-24.2,9.5-52,18.1-67,24.3c-10.9,4.6-27.8,5.8-45.5,6.7
				c-17.4,1.1-36,1.6-51.1,9.2c0,0.1-4,1.5-9.7,2.9c-5.6,1.5-13.3,3.3-22.5,5.2c-18.4,4-42.5,8.8-69.3,13.9
				c-27.5,5.3-107.8-3.7-154.9-17.4c-47-13.6-260.1-46.6-275.3-48.7c-15.3-2.1-89.9-14.3-56-41.5c33.9-27.3,89.4-88.9,102.4-103.6
				c13-14.7,67-10,77.2-19c10.2-9.1-80.7-107.1-43.1-137c37.6-29.9,76.2-73.3,76.2-73.3l-112.9-2.1c0,0,2.7,39.1-27.7,72.8
				C843.6,20.6,643.2,17.2,582,17.2c-13.4,0-179.7,37.1-219.7,49c-23.7,7.1-78.7,40.7-118.7,43.6c-35.5,2.6-155.2,21.7-247-3.7v12.1
				c31.3,4.3,63.8,7.7,75.1,11.8c9.7,3.4,12,37.9,8.3,56.2c-3.7,18.4-22.4,43.9-45.4,49.5c-12.3,3-25.5,6.2-38,9.1v16.9
				c46.9-7.4,108.2-11.8,134.1,14c35.3,35.2,62.3,72.6,96.6,103.6c34.5,30.9,68.6,23,102.8,46.5c34.3,23.5,63.4,49.7,87.2,74.6
				c23.8,24.9,41.7,56.2,73.9,78.4c8.1,5.5,42.6,60.2,49.3,73.4c13.7,26.3,26.8,55.9,26.7,76c0,11-3.9,18.1-10.2,21.4
				c-34.1,18.6-109.6,28.6-151.9,33.5c-14.5,1.7-24.5,2.8-30.5,4.1c-3,0.8-13.6,2-26.1,2.8c-12.4,0.9-27.4,1.4-41.4,1.4
				c-10.3,0-20-0.3-27.7-1c-7.6-0.5-13.3-1.9-13.9-2.3c-2.4-1.1-5.2-1.6-7.5-1.6c-4.8,0.1-7.8,1.2-10.7,2.4
				c-2.7,1.2-5.6,2.7-8.6,4.5c-5.8,3.5-12.3,8.3-19.4,13.9c-14.1,11.2-30.6,26-46.3,40.7c-21.6,20.1-57.7,28.2-96.4,14.4
				c-21.2-7.5-51.2-21.1-79.9-34.4v10.3c22.8,11.3,45.3,23,65.7,34.9c42.5,24.7-2.5,78.7-47.1,115.7c-6,5-12.3,10.2-18.7,15.4v10.1
				c46.8-39.5,132.9-99,133-99l5.2-4.6l-0.4-0.3c7.4-7.4,23.1-23.1,41.2-40.7c24.9-24,55.4-51.5,73.5-63.5c2.8-1.9,5.2-3.4,7.1-4.3
				c7.6,5.3,24.9,17.3,44.3,31.1c25.8,18.4,55.5,39.7,69,51c30.3,24.9,70.7,36.6,108.9,55.5c9.9,4.5,19.7,19.9,24.8,39.2
				c5.2,19.3,7.2,42.1,7.2,61.7c0,14.8-1.2,27.8-2.6,35.9c-0.6,4.8-9,16-21.8,29.5c-12.9,13.7-29.6,30.3-46.4,49.1
				c-33.3,37.6-66.9,83.9-67,133.5c0,2,0.1,4.2,0.2,6.2c0.3,7.2,1.5,14.1,3,20.5c-3.9,4.6-10.1,12.5-18.6,22.7
				c-14.1,16.9-14.6,21.9-37.1,47c-6.1,6.8-24.5,5.4-64.2-11.3c-39.8-16.7-130.7-41-244.9-65.4c-4.9-1-9.7-1.7-14.6-2.5v11.8
				c85.5,14.3,162.2,41.7,195.4,52.7c43.5,14.5,72.8,29.2,112.8,46.5c37.2,16,109.8,77.2,135.9,96.6c12.6,9.3,19.8,18.3,16.2,35.4
				c-3.4,17.1-3.9,24.7-49.1,43.5c-22.2,9.3-52.8,15.5-76.7,20.4c-15.6,3.3-29.4,5.2-35.9,5.2c-0.9,0-1.6,0-2.1-0.1
				c-0.1,0-0.2,0-0.3,0c-4-1.6-7.4-1.7-10.8-1.8c-10.6,0.1-23.2,2.8-38.4,6.6c-14.9,3.9-31.7,8.9-47.7,13.8
				c-18.1,5.8-34.8,11.5-45.9,15.4c-4.3-4.2-8.6-8.2-12.7-12.1c-36.8-34.6-66.2-58.8-78.4-67.2c-13.5-9-36.5-16.3-62.2-24.8v15.9
				c21.7,7.1,40.2,13.8,47.5,19c10.3,7.2,40,31.4,76.3,65.6c36.3,34.2,91.7,89.8,108.5,109.6c16.8,19.8,4.6,22.1-1.2,27.3
				c-11.1,10.2-18.8,27.7-26.2,49.5c-7.2,21.7-13.2,47.3-18.2,71.8c-8.5,42.6,14,74.1-14.8,91.8c-28.9,17.7-63.2,54.8-81.7,62.6
				c-11,4.6-50.5,11.6-90.2,17.8v9.6c3.3-0.5,6.1-0.9,7.8-1.2c9-1.6,47.6-4.6,47.8,5.4c0.2,6.8-33.9,23.5-55.7,33.4v16.9
				c21.4-10.1,80.2-37.5,96-39.8c19.2-2.9,61.9,4.9,91.7,9.3c5.8,0.8,11,1.1,15.4,1.1c6.9,0,12.5-0.5,16.6-0.5
				c4.1,0,6.4,0.3,9.7,1.6c3.3,1.4,7.7,4.3,13.5,10.3c23.5,24.2,62.6,51.2,84,77.2c11.2,13.3,58,47.4,80.9,60.5
				c23,13,45.3,10.2,84.7,9.4c39.6-0.7,94.4,33.2,129.6,41.7c35.1,8.4,52.8,12.4,83.5,17.9c30.6,5.4,32.3,2.9,80.4,16.8
				c-11.1-8.1-23-14.1-35.3-17c-85.1-19.9-88.1-16.2-203.7-60.3c-8.3-3.1-9.5-20,8.1-30.1c17.8-10,23.9-15.4,23.9-15.4l0.5-0.3
				c0,0,14.3-9.9,30.1-21.2c15.8-11.4,32.3-23.6,38.8-30.1c2.2-1.9,2.3-1.9,6.3-2.1c7.5-0.3,25,4.8,48.6,11.9c7.3,2.1,14.7,3,21.8,3
				c33.4-0.4,60.6-17.2,66.9-21.2c10.8-4,121.5-45,161.8-63.5c6.2-2.8,10.7-5,14-7.2c5.3-4,24.4-10.2,46.1-14.2
				c21.6-4.2,46.4-7,64.6-7c2.1-0.3,12.7,2.5,24.7,8.1c12.2,5.5,27,13.4,43,22.3c31.6,17.9,95.1,77.4,125.9,90.9
				c30.9,13.5,74.2,59.6,92.2,79.3c18.3,19.6,31.1,34.7,39.5,44.9c6.2,7.6,9.9,12.4,11.4,14.3l4.6,22.1l-20.8,39.6l21.2,80.8
				l20.5-2.6l-20.3-77l20.7-39.3l-5.6-28l-0.8-1c-0.1-0.2-16-21.9-52.6-61.6c-17.1-18.6-35.4-37.1-49.8-52.6
				c-13.9-14.7-40.6-52.6,12.9-62.5c44.8-8.3,80.7-24,126.5-49.2c45.9-25.2,108.4-34.5,135.8-37.2c27.3-2.7,63.4,0.1,81.4,9.7
				c23.7,12.9,48.7,32.7,98.3,52.1c49.6,19.5,138.5,66,105,69.9c-33.5,4,143.8,82.3,152.4,106.4c18.6,53,25.6,215.2,25.6,215.2
				l66.5,4.7C2133.2,2522.3,2088.7,2310.9,2112.5,2290.6z M1974.8,1887.7c13.9,16.7,34.7,37,9.5,55.1
				c-25.2,18.1-281.7,123.9-352.4,84c-102.4-57.9-142.8-96.5-154.8-111.3c-11.8-14.7,26.1-47.8,64.7-61.8c38.4-14.1,130-38,130-38
				s107.2-13.5,127.7-14.2c20.4-0.6,55.3,9,81,21.6C1925.4,1845.2,1960.9,1871,1974.8,1887.7z M1232.6,1748.4
				c-8.2,0.1-40.1-4.7-67.7-9.5c-22.2-3.8-40-8.4-61.9-21.3c-21.9-12.9-26.2-29.7-15.3-41.2c10.9-11.5,54.4-42.5,63-62.5
				c8.9-19.9,35.9-4.2,64.3-0.5c11.8,1.4,45.1,13.4,47.5,14c1.4,0.2,10,3.6,19.6,8c9.8,4.5,21.7,10.1,32.8,15.7
				c22.8,11.1,114.5,26.9,135.1,30.9c20.5,3.9,65.1,14.5,75.3,18.4c20.2,7.8,46.6,16.2,75.1,24.9c56.6,17.5,121.5,36.4,159.4,52.1
				c9.4,3.8,19.8,8.3,31.3,13.3l-125.1,11.2c0,0-54.2,16.3-84.7,23.9c-30.5,7.5-113.3,16.8-136.4,19.3
				c-62.6,6.7-111.1-87.6-136.3-94.6C1283.4,1743.4,1255.2,1748.4,1232.6,1748.4z M535.6,1369.2c7.4-1.9,31.4-18.8,60.2-34.1
				c28.8-15.3,61.6-22.2,66.7-22.2c19.6-0.1,51.6-3.3,77.9-3.3c9.7,0,18.7,0.5,25,1.6c9.7,8.9,13.3,18.7,13.3,29.2
				c0.2,24.4,4.9,59.4-28.8,58.4c-33.6-0.9-59.5,6.1-83,9.6c-31.3,4.8-36.1,8.1-54.7,16.8c-3.3,1.7-6.5,3.5-8.9,5.9
				c-11.4-2.6-20.5-4.8-28.1-6.7c-20.7-5.3-28-8.3-38.4-15.3c-8.5-5.6-20.3-8.6-34.7-13.1c-14.1-4.4-30.6-9.7-46.1-17.2
				c-10.1-5-19.9-10.8-28.7-18C465.1,1359.1,531.6,1370.1,535.6,1369.2z M663.8,1422.2c13.2-3.5,74.6-12.2,100.5-13.7
				c25.8-1.5,35.3,15.8,24.9-10.2c-10.3-25.9,5-85.6-9.6-97.8c-23.9-20.2-30.3-43.5-30.4-63.6c0-16.2,4.1-30,6.4-38
				c0.7-2.3,0.9-4.6,0.9-6.9c-0.1-11.7-5.8-26.2-12.1-40.2c-6.2-13.9-12.8-27.4-14.8-34.7c-4.1-13.5,47.7-5,57.1-2
				c9.4,3.1,26.5,14.1,44.2,29.4c9.9,8.5,35.8,23.6,54,47.6c18.3,24.1,53.4,61.6,53.4,72.4c0,7.8,10.3,42.5-13.2,93.9
				c-23.7,51.4-70.2,94.7-121.8,103.2c-14.5,2.4-23.5,1.9-35.8,1.8c-14.4,0-36.7-2.3-82.8-13.4
				C661.2,1444.5,639.4,1428.8,663.8,1422.2z M910.7,1417.6c14.6-28.6,29.9-62.2,40-88.4c6.6-17.6,11.2-31.5,11.3-40.1
				c0-1.3,0-2.6-0.4-4c-1.7-5.7-2.3-13.1-2.3-20.3c0-7.2,0.6-14.2,1.2-19.4c0.2-2,0.6-3.8,0.7-5.2l73.2-32.4
				c9.8-1.8,63.6-12,94.7-19.2c28.2-6.7,53.8-23.7,65.5-32.1c5.1,2.6,12.2,6.3,20,10.6c14.4,8,31.3,18.1,37.5,24
				c7.1,6.3,25.7,19.4,47.5,35.1c21.8,15.6,46.1,33.4,62.6,47.3c10.9,8.9,18.2,17.3,18.2,18.6c1.5,4.4,5.1,7.2,9.1,10
				c4.3,2.7,9.5,5.2,15.6,7.8c12.3,5.1,28.1,10.3,45.8,15c35.2,9.4,76.7,16.9,108.1,17c13.6-0.1,25.6-1.3,35.2-5.9
				c15.1-7.6,48.3-13.3,76.9-16.2c23.6-2.6,39.6-16,56.2-4.7c16.8,11.3-38.2,40.3-50.4,52.9c-5.4,5.6-9.1,9.8-10.5,14.8
				c-0.4,1.5-0.6,3-0.6,4.4c0.5,14.4,13.2,29.8,25.3,42.9c12.2,13,56.3,39,54.5,56.4c-2,17.4-122.3,33.6-122.3,33.6l-46.2-3.2
				c-2-1.2-4.9-2.9-8.6-4.7c-6.8-3.1-15.7-6.8-26.9-6.9c-2.8,0-5.8,0.3-8.5,1c-8.4,2.1-12.8,6.1-18.1,10.7
				c-5.1,4.7-10,10.1-14.3,15.4c-8.7,10.6-15.4,20.6-15.4,20.8l-1,1.4v1.6c0,0,0,24-2.1,40.2c-0.7,5.3-1.7,9.9-2.5,11.3
				c-2.7,6-3.8,14.4-3.9,24.4c0,9.7,8.1,40.7-29.2,37.5c-57.8-5-103.1-12.7-129.5-24.6c-10.3-4.7-44.8-21.7-51.3-23.3
				c-5.3-1.2-156.6-45.9-132.7-23.9c23.7,22-29.3,47.3-67.1,62.9c-37.4,15.6-65.4-20.8-80.2-46.2c-14.8-25.1-30.3-51.5-35.7-62.6
				c-11.5-23.1-29.5-46.1-48.7-65.5C876.5,1460.9,903.6,1431.9,910.7,1417.6z M1644.1,1041.3c21.4-8,39.7-19.3,47.6-35.1
				c5.1-10.6,7.3-20,7.3-28.3c0.2-18.3-11.1-31-22.1-38.4c-7.8-5.3-15.5-8.3-19.6-9.6l-45.5-41.8l-0.4-0.2c0,0-7.2-5.4-16.5-13.1
				c-9.3-7.6-20.6-17.3-28.7-25.5c-5.3-5.4-9.1-10.4-9.5-12.2c0.1,0-0.3-0.4-0.1-1.3c-0.3-9.2,10.1-40.5,20.6-67.9
				c6.7-17.8,14.1-26.7,28.5-29.3c14.2-2.5,36.4-6.5,87.2,12.2c50.6,18.7,61.1,43.6,75.4,59.3c14.4,15.7-7.5,41.8,30.2,45.3
				c37.7,3.4,142-17.9,158.8-13.2c16.7,4.7,30.7,15.4,53.9,14.6c46.4-1.9,102.8,18.8,114.2,26.2c11.2,7.4,23.8,38.3,32.9,70.4
				c9.2,32.1,0.4,36.6-19.6,46.1c-20.2,9.5-83.9,39.5-105.4,44.5c-21.7,5-14.9,5.1-21.7,12c-6.9,6.9-18.1,51-12.5,56.5
				c5.6,5.4,65.7,19.6,90.4,28.2c22,7.8,47.7,24,61.9,35.3c14.4,11.4,12.9,10.8,6,32.2c-7,21.4-44.2,36.9-62.8,36.8
				c-39.8,0-101.2-1.1-152.8-2.3c-51.5-1.1-92.3,0.4-128.7,27c-7.6,5.4-77.7,30.8-99.3,32c-21.6,1.2-110.3,12.1-131.7,22.5
				c-3.3,1.7-11.7,3.3-23.2,3.2c-38.8,0.2-106.6-15.1-139.9-28.6c-10.7-4-17.8-8.7-18.3-9.7v0c0,0,0-0.1,0-0.1v0
				c-2.1-5.9-7.3-10.9-14.5-17.7c-7.4-6.7-16.8-14.3-27.3-22.5c-21.1-16.2-46-33.9-64.8-47.4c-12.5-8.9-22.4-16.2-25.5-19.1
				c-9-8.4-26-18.3-41.2-26.6c-11.8-6.5-22.2-11.8-26.3-13.9l-23.5-28.4c1.3-7.6,4.8-32.2,4.8-59.5c-0.1-9.4,9.1-24,21.6-37.6
				c12.4-13.7,27.5-26.8,37.5-34.9c2.2-1.8,4-3.3,5.7-4.6l153.9,58.2l75.2,29.6h2.8C1479.7,1064.7,1579.4,1065.2,1644.1,1041.3z
				 M2452.1,861.9c6.1-4.2,42.6-26.4,63.2-38.3c14.9-8.5,86.6-1.7,97.1,11.5c10.4,13.3,10.3,18.4,17.7,28c2.3,3.1,6.3,6.6,10.5,9.9
				c-21.3,40.7-56.8,111.7-50.1,122c9.1,13.9,18.8,25.3,25.7,49.3c7,23.9,6.3,40.9,24,60.7c17.7,19.7,26.7,26.9,26,46.5
				c-0.7,19.4,2,104.1-151.2,282.1c-29.9-9.1-72.3-24.9-81.8-59.5c-6.4-23.1-9.8-50.4-9.8-66.6c0-5,0.5-9,0.9-10.9
				c5.8-19.5,52.2-73.8,56.2-134.7c1.7-27.8-21-40.4-65.2-72.7c-44.3-32.3-31.2-36.8-32.6-66.3c-1.5-29.6,1.4-35-27.2-83.8
				c-18.1-30.7-44.3-89.5,35-77.7c15.7,2.3,28.3,5.7,40.3,5.8C2438.2,867.3,2446.2,866,2452.1,861.9z M2294.2,853.6
				c19.2,17.4,25.8,52.2,40.5,77.7c28.7,49.4,33.1,74.9,22.2,114.9c-10.8,40-169.7,178.2-180.1,166.5c-10.6-11.7-3-39.8-7.6-50.1
				c-4.6-10.3-3.7-5.6-31.2-10.8c-27.5-5.2-111.9-39-121.4-45.9c-9.5-6.9-14.6-25.1,12.5-42.8c26.7-17.7,146.1-43.2,152.9-44.4
				c7-1.2-19-70.8,6.8-89.9c26-19.1,55.1-50.4,57.3-54.2C2246,874.6,2274.9,836.2,2294.2,853.6z M2202.8,902.3
				c-31.9,7.8-40-6-53-17.5c-12.9-11.5-118.4-42.1-138.6-42.2c-11.4,0.3-31-12.6-33-30.6c-2.1-18,33.9-50.7,33.9-50.7l28.1-19.4
				l119.6-8.1c20.9,8.7,38.2,16.4,41.3,17.7c1.7,1,8.7,5,17.3,10.4c9.8,6.2,38.9,27.7,38.9,55.2
				C2257.3,844.7,2234.7,894.6,2202.8,902.3z M2062.2,1270.2c43.4,16.7,64.3,72.1,56.3,117.2c-8,45.1-45.7,62.3-45.7,62.3
				s-89.5,58.6-149.3,74.7c-59.9,16.1-132,17-142.1,14.6c-19.6-4.4-52.3-8.5-83.6-11.9c-10.3-1.1-20.5-2.1-29.9-3
				c0,0,74-18.4,95.9-23.8c21.9-5.4,10.8-14.5,7.4-25.4c-3.5-10.9-54.5-23.1-69.7-58.3c-15.2-35.2,13.8-67.3,42.2-89.9
				c28.7-22.7,70.2-54.6,106.7-66.5C1886.7,1248.5,2018.5,1253.5,2062.2,1270.2z M2045.5,1691.6c21.6,36-10.7,37.1,8.1,77.1
				c18.8,40.1-26.8,111.9-55.3,108.8c-28.6-3-49.8-29.1-75.5-42.2c-51.7-26.1-112.8-54-152.3-70.3c-35.2-14.5-89.3-30.7-140.2-46.2
				c-50.7-15.4-98.5-30.6-117.8-41.1c-5.7-2.9-8.1-5.5-8-5.6c-5.5-11.4-8.1-27.3-8.1-40.2c0-9,1.4-16.9,2.9-19.9
				c1.9-3.9,2.7-8.7,3.6-14.6c0.7-5.7,1.2-12.2,1.6-18.3c0.5-9.5,0.6-18.1,0.6-21.5c1.8-2.8,6.4-9.3,12-16.4
				c7.3-9.2,17.7-19.6,21.9-21.2c0.5-0.2,0.6-0.2,0.6-0.2c0.6-0.1,1.1-0.2,2-0.2c5.3-0.4,17,4.8,21.3,7.8c1.6,0.9,2.3,1.4,2.3,1.4
				l2.7,1.8l55.5,3.9c11.5,1.2,40.4,3.7,71.1,7c30.8,3.2,63.5,7.4,80.3,11.3c12.6,2.9,24.9,4,36.8,4c26.2,0,49.7-5.2,66-8
				c20.1-3.7,89.4,23.1,113.2,63.5C2014.4,1652.6,2023.9,1655.6,2045.5,1691.6z M2513,1539.2c-27.3,16.6-25.5,33-59,56.9
				c-33.4,23.9-47,34.9-75,47.7c-28.1,12.9-67.9,11.7-67.9,11.7s-88.7-14.6-138.9-13.1c-50.4,1.4-53.9,13.2-103.6,10.2
				c-49.9-3.1-39.3-4.5-56.6-22.1c-17.3-17.5-22.9-86.8-22.9-86.8l100.3-85.4c0,0,33.1-13.7,45.6-82.3c12.5-68.5-9.9-88.5,23-120.8
				c33.1-32.3,95.2-83.1,126.7-110.2c46.8-40.2,161.5-37.2,167.4,30.4c5.8,67.6-41.5,96.1-48.1,118.4c-1,3.7-1.2,8.2-1.2,13.7
				c0,15.4,3,38.3,7.7,59.9c5,21.8,10.9,41.3,18.9,52c2.7,3,5,6,11.8,7.9c7.5,1.6,15.3,0.8,34,7.5c14.4,5.2,22.9,7.1,45.8,11.7
				c23.1,4.6,52.5,12.7,63.1,29.6c10.8,17.5-8.4,30.4-24.9,41.2C2542.9,1528.2,2540.2,1522.6,2513,1539.2z M2674.8,1846.8
				c-38.1-4.9-104-32.6-113.9-39.1c-10.2-6.4-16-13.7-15.5-17.2c0-8.6-15.8-71.5-15.7-75.3c-0.1-2.8-15.3-17.2-28.8-27.8
				c-0.5-1-1.1-2.1-1.7-3.2c-23.6-40.3,63-48.2,63-48.2s94.1-1.6,83.3-15.1c-10.7-13.5-16.5-17.6-25.5-31.5c-9-14-8-31.3-13.8-45.4
				c-6.5-15.8,0.6-53.8-14.7-74.4c-15.2-20.5-36.4-21.7-50.9-27.8c-2.7-1.1-6.5-2.4-11-3.8c5.8-8.9,11.5-17.4,17.7-25.4
				c52.6-68.5,124.5-168.7,134.2-216.8c9.8-48.1,22.8-46.4,32.6-41.7c18.2,8.8,38.8,16.7,80,36.4c19.4,9,53.6,32.3,92.9,61.5
				c0.4,0.4,0.9,0.8,1.5,1.2c0,0,0,0.1,0,0.1h0.1c58.7,43.8,129.1,100.9,185.1,147.2c44.5,36.9,89.5,91,47,115.7
				c-93.4,54.3-228.7,105.9-249.1,119.2c-20.5,13.5-36.2,50.3-40.1,63.5c-5.5,20.3-0.4,28.7-14.5,76.1c-13.9,47.3-24.3,65.9-51.7,70
				C2737.8,1849.2,2713.2,1851.7,2674.8,1846.8z M3277.5,1582.1c7.1,5.6,13.6,10.4,19.6,13.9c2.8,1.8,5.6,3.3,8.5,4.5
				c3,1.1,5.9,2.3,10.5,2.4c2.4,0,5.2-0.5,7.7-1.6c0.4-0.4,6.2-1.8,13.9-2.3c7.6-0.6,17.3-1,27.5-0.9c14.1,0,29.1,0.5,41.6,1.4
				c12.4,0.8,23,2,26,2.7c6,1.3,16.1,2.4,30.4,4.2c42.5,4.9,117.9,14.8,152,33.5c6.4,3.3,10.3,10.4,10.3,21.4
				c0.1,20-13.1,49.7-26.8,76c-6.7,13.2-41,67.9-49.3,73.4c-32.2,22.2-50,53.5-73.9,78.4c-23.9,24.9-52.9,51.1-87.1,74.6
				c-34.2,23.5-68.4,15.7-102.8,46.5c-34.4,30.9-61.4,68.4-96.8,103.6c-35.3,35.2-137.3,13.9-177.6,6c-36.4-7.1-51.3-21.4-76.9-30.5
				c-2.6-0.8-9.7-5.4-16.5-11.6c-10.5-9.3-22.4-22.3-31.3-32.7c-6.6-7.7-11.7-14.1-13.9-16.9c0-2.6,0.1-7.3,0.6-12.9
				c0.6-7.9,2.2-17.6,4.4-21.9c0.8-1.7,0.8-2.9,0.8-4.1c-0.2-7.1-4.7-17.8-11.1-32.3c-16.6-36.6-22.8-62.8-34.2-87.7
				c-11.3-24.9,1.3-130.9,3.3-151.9c2.2-21,23.2-62.4,56.8-81.3c31-17.4,63.8-29.5,98.9-45.3c35.1-15.9,103.7-49.7,142.5-63.5
				c38.7-13.8,74.9-5.7,96.3,14.3C3247,1556.1,3263.4,1570.8,3277.5,1582.1z M3485.9,1028.3c8.6-7.2,18.5-13.1,28.6-18
				c15.6-7.6,32-12.8,46.2-17.2c14.4-4.5,26.2-7.5,34.7-13.2c10.3-7,17.7-10,38.3-15.3c7.7-1.9,16.8-4,28.2-6.7
				c2.4,2.5,5.5,4.3,8.8,5.9c18.5,8.8,23.3,12.1,54.7,16.9c23.5,3.5,49.5,10.6,83.1,9.6c33.6-1,29,34,28.7,58.4
				c-0.2,10.4-3.7,20.3-13.3,29.2c-6.3,1.1-15.2,1.6-25.2,1.6c-26,0-58.2-3.3-77.6-3.3c-5.1,0-38-6.9-66.7-22.2
				c-28.8-15.3-52.8-32.2-60.2-34.1C3590.1,1019.2,3523.7,1030.2,3485.9,1028.3z M3514,1034.4c28.1-0.2,55.6-1,68.6-1
				c1.6,0,3,0,3.7,0.1c0.5,0,0.9,0,1.1,0.1l0.1,0c0.4-0.1,6.6,2.7,12.8,6.9c19.6,12.8,50.1,38.3,65.5,51.7c3.7,3.2,7,5.5,10.5,7.4
				c3.6,1.8,7.6,3.2,12.5,3.2c5.1,0,9.1-1.6,11.8-3.1c3.8-2.3,5.8-4.4,8-6c2.1-1.6,3.7-2.4,5-2.7c0.2-0.1,3.3-0.4,7.4-0.4
				c16.5-0.1,57.5-1.7,69.7,9.4c12,11.1-3.8,34.5-3.8,52.4c0,17.8,4.6,32.8,6.8,40.7c0.3,1.1,0.6,2.4,0.6,4c0,8.4-5,22.5-11,36.1
				c-6.1,13.7-12.7,26.9-15.5,36c-5.2,18.4-5.2,48.3-5.3,63.6l-49.6,47.9c-2.7,1.9-12,9.2-17.5,20.2c0.1,0-0.6,1-2.4,2.3
				c-5.7,4.8-20.1,12.7-32.5,18.8c-12.5,6.2-23.1,10.9-23.1,10.9l-4.9,2.1v0.3c-3.4,0.9-10.4,2.3-22.5,3.7
				c-14,1.6-29.2,3.6-41.8,5.4c6.3-8.9,10.6-19.7,14-31.3c5.7-20.6,7.6-44.1,7.6-64.4c0-15.3-1.1-28.6-2.7-37.6
				c-2.3-10.4-12-21.4-25.1-35.5c-39.2-41.8-110.2-107.2-110.2-174.8c0-1.9,0.2-3.8,0.2-5.6c0.5-8.4,2-16,4.1-23l0.3-0.1
				c0,0-0.1-0.1-0.1-0.3C3459.8,1060.1,3485.9,1034.6,3514,1034.4z M3378.7,1004.7c22.4,25.1,23.1,30.1,37.1,46.9
				c8.4,10.2,14.7,18.1,18.5,22.7c-1.6,6.4-2.6,13.2-2.9,20.5c-0.2,2.1-0.2,4.1-0.2,6.2c0,49.6,33.7,95.8,67,133.4
				c16.8,18.8,33.6,35.5,46.4,49.2c12.9,13.5,21.3,24.7,21.9,29.5c1.4,8,2.6,21,2.6,35.8c0,19.6-1.9,42.4-7.2,61.7
				c-5.1,19.3-14.8,34.7-24.8,39.2c-38.1,18.9-78.4,30.6-108.9,55.5c-13.5,11.3-43.1,32.6-69,50.9c-19.3,13.7-65.2,10.2-67.9,8.4
				c-18.1-12-32-20.9-56.9-45c-18.4-17.5-33.9-33.3-41.3-40.6l0.6-0.4l-5.4-4.5c0-0.1-102.2-70.6-144.4-109
				c-42-38.4-50-46.2-50-46.2c-39.9-32.4-36.9-33.9-64.1-55.9c-27.2-21.9,35.1-36.7,11.6-64.5c-23.6-27.9-8.1-93.2,21.8-100.6
				c29.9-7.4,68.4-8.5,106.7-16.6c114.3-24.4,205-48.6,244.8-65.3C3354.2,999.3,3372.7,997.9,3378.7,1004.7z M3389.5,776.8
				c23.9,4.9,54.3,11.2,76.5,20.5c45.3,18.9,45.7,26.4,49.1,43.6c3.7,17.1-3.5,26-16.1,35.4c-26.2,19.3-98.7,80.5-136.1,96.5
				c-39.9,17.4-69.2,32-112.7,46.5c-43.5,14.5-161.2,57-276.1,61.4c-31.4,1.2-49.2-25.3-63.6-42.5c-14.4-17.2-26.8-43.1-32.4-91
				c-0.7-7.1-1.1-13.4-1.1-19c-0.1-17.3,3.7-27.6,8.7-33.3c3.7-4.3,7.9-6.5,13.3-8.1c8.2-2.5,20.1-3.1,33.6-4.2
				c13.3-1.2,28.8-3.2,42.7-10.5c21.2-11,50.3-20.6,77-29.3c26.7-8.9,50.7-16.3,64.7-25.7c12.2-8.4,41.5-32.6,78.3-67.3
				c4.1-3.9,8.4-7.9,12.8-12.1c11.1,3.8,27.9,9.6,46.1,15.3c15.8,5,32.6,10,47.6,13.8c15.1,3.8,27.8,6.5,38.2,6.7
				c3.5-0.1,6.9-0.3,11-1.8c0,0,0.1,0,0.3,0c0.4-0.1,1.2-0.1,2-0.1C3359.8,771.6,3373.7,773.5,3389.5,776.8z M3800.8,642.2
				c-5.2,14.9-22,26.6-69.4,42.9c-47.6,16.3-163.9,63.2-172.4,70c-16.8,14-92,25.9-123.5,17.5c-32.3-8.5-66.3-12.3-104.8-13.4
				c-38.4-1.1-53.9-11.2-86.2-27.6c-32.4-16.5,43.7-72.7,56-81.5c12.3-8.8,42.3-20.1,57.3-18.7c27.2,2.8,57.7,2.8,95.6,8
				c25,3.4,56.8,4.7,90,4.7c38.2,0,78.3-1.7,111.4-4c16.3-1.2,31.1-2.5,42.9-3.9c11.9-1.4,20.6-2.7,26.8-4.4c1.2-0.4,7.2-1.3,15-1.9
				C3754.9,628.7,3805.9,627.3,3800.8,642.2z M3145.1,328.9c18.7,7.8,52.9,44.9,81.8,62.6c29,17.7,6.2,49.2,14.7,91.8
				c4.9,24.5,10.9,50.1,18.1,71.8c7.4,21.8,15,39.2,26.2,49.5c5.8,5.2,18.2,7.5,1.3,27.3c-16.8,19.8-72.1,75.3-108.6,109.6
				c-36.2,34.2-66,58.4-76.3,65.5c-8.5,6.1-32.3,14.3-58.9,22.8c-26.8,8.8-56.8,18.5-80.5,30.8c-16.6,8.9-39.7,6.8-63.4,10.9
				c-11.8,2.1-24.1,6.8-31.8,16.1c-7.8,9.3-11.5,21.9-11.5,40.6c0,6.1,0.5,12.8,1.3,20.2c5.6,49.1,18.5,77.4,35,97.1
				c15.5,18.3,39.3,41.8,38.3,65.9c-0.9,24.1-12,42.2-11.4,64.6c0.4,22.3,3.9,67.9-40.7,49.1c-44.5-18.7-53.4-37.1-72.7-46.2
				c-41.9-19.9-63-28.1-79.9-36.3c-16.8-8.2-27.9-18.2-58.7-38c-21.3-13.6-30.8-41.2-38.5-57.1c-7.8-15.8-23-58.9-23-58.9
				c-2.7-7.7-4.2-11.5,25.7-76.1c5.8-12.5,12.5-23.2,18.8-32.1c4.8,3.3,8.6,5.4,8.6,5.4l15.6-9.5l-8-16.1c4.4-5.1,7.6-8.5,8.3-10.1
				c0,0,0,0,0.1-0.3c1.6-2.4,8.4-10,16.8-21.3c25.7-34.2,69-105.5,69-217.5c0-25.6-2.3-53.3-7.6-83.2c-4.4-26-6.5-49.2-6.5-69.8
				c0-71.4,23.8-112.3,48.2-135.5c24.1-22.9,48.9-29.2,54.9-30.7c0.4,0,1.2-0.1,2.3-0.1c14.3-0.1,83.4,3.1,128.3,9
				C3025.8,306.3,3126.5,321.1,3145.1,328.9z M2396.5,282.3l-4.5-3.6c-0.2-0.1-13.2-11-30.5-23.3c-17.2-12.3-37.9-26-56-32.4
				c-14.1-4.8-38.9-17.3-59.3-28.4c-15.1-8.1-52.9-63.8-18.9-59c33.7,4.9,40.7,11.9,58.4-0.7c17.8-12.6,126.5-95.7,167.7-97.4
				c79.9-3.5,218.6-53.6,258.1-68.4c3.5,7.6,7.2,15.9,10.9,24.3c5.8,13.8,11.6,27.8,15.8,39.8c4.3,12,6.9,22.1,6.9,26.5
				c0,23,0,36.5,12,57c7.6,12.5,29.1,26.4,50.4,40.4c10.6,6.8,21.2,13.4,29.8,18.9c8.4,5.4,15,10.2,16.5,11.8
				c7.5,7.5,20.6,14.2,32.2,19.8c11.6,5.5,21.4,9.4,21.8,9.6c2,0.8,12.4,5.3,24.5,10.1c13.8,5.4,29,11.3,39.2,13.7
				c15.2,3.5,57.3,13.2,66.1,15.2c0,0,73.3,31.1,73.1,41.1c-0.2,10-39,7-48,5.4c-10.2-1.8-53.7-8.1-99.4-14.1
				c-45.8-6-92.2-11.5-111.1-11.6c-2.9,0.1-5.2,0-8.5,0.7c-7.9,1.8-38,9.8-65.6,36c-27.5,26.2-52.1,70.4-52.1,144
				c0,21.3,2,45,6.6,71.6c5.3,29.3,7.3,56.4,7.3,81.4c0,75.3-19.9,131.3-40.3,169.6c-10.1,19.1-20.6,33.9-28.6,44.3
				c-4.1,5.3-7.6,9.5-10.2,12.8c-1.3,1.6-2.4,3-3.3,4.1l-3.6-7.2c0,0-15.7,8.6-17.2,3.4c-1.3-5.2-21.7-18-31.2-20.7
				c-9.3-2.7-47.9-10-62.5-13.2c-14.7-3.3-20,3.7-28.7,9.1c-8.9,5.4-66.6,40.8-117.7,34.7c-15.6-1.8-95-15-100.2-15.1
				c-0.4,0-1,0-1.6,0.1c-5.4-10-10.2-18.7-13.6-25.6c-3.8-7.7-6.3-13.6-6.5-14.8c-0.3-6.7-5.2-11.8-10.8-17.4
				c-6-5.5-13.3-11.1-20.8-16.1c-14.6-10.2-29.1-18.3-29.3-18.4l-0.3-0.3l-0.6-0.2c-0.1,0-22.3-9.9-48.5-20.7
				c-26.2-10.9-55.8-22.5-73.4-26.7v0c-0.4-0.2-0.9-0.5-1.7-1.1c-1.4-1.1-3.4-3-5.4-5.5c-4.1-5-8.8-12.2-13.5-20.7
				c-9.6-17.1-19.6-39.6-28.7-61.9c-15.2-37.2-30.9-74.3-13.1-92.1c17.8-17.8,279.5-110.8,279.5-110.8L2396.5,282.3z M1839.2,400.3
				c65.5,10.2,136.2,20.5,165.3,20.6c3.2,0,6-0.1,8.9-0.5c2.7-0.5,6.2-0.8,9.8-4l0,0c0.1-0.1,0.4-0.3,0.9-0.5c1.1-0.5,2.7-1.2,4.8-2
				c4.1-1.5,9.9-3.3,16.8-5.1c13.7-3.8,31.5-7.9,48.9-11.7c28.3-6.1,59.4-10,114.5-0.6c55.2,9.3-61.6,39-126.1,56.1
				c-64.5,17.1-83.7,34.9-93.9,65.2c-10.1,30.2,10.9,33.7,26,72.4c15.2,38.7,33.7,81.8,50.8,102.6c5.3,5.9,9.2,10.6,18.4,13.1
				c9.4,2.1-53.4,22.2-53.4,22.2l-34.4,23.7c0,0-13.6,15.9-31.7,33.2c-18.2,17.3,3.9,42.8-73.8,48.9c-77.8,6.1-81-3-102-17.3
				c-20.9-14.3-26.6-32.7-49.9-50.5c-23.4-17.8-94.3-30.2-133.9-62.2c-39.6-32.1-43.8-119.4-43.8-119.4l-2.3-1.5
				c0,0-1.3-0.9-3.6-2.8c-2.4-1.8-5.4-4.4-8.4-7.5c-6.2-6.1-11.7-14-11.5-19.6c0-2.8,1-5,3.6-7.2c7.4-6.5,36.7-23.8,67.3-41.1
				c30.7-17.6,62.9-36,79.2-47.7c4.8-3.4,8.3-6.1,10.7-9.3c8.7-12,21.9-40.6,28.7-59.6c0.7-2.4,1.4-4.5,2.1-6.4
				C1747,385.2,1791.3,392.7,1839.2,400.3z M1378.5,353.1c10.9-2.8,18-4.4,23.5-7.1c7.4-4.1,22.8-5.5,40.3-6.3
				c17.7-1,37.3-1.8,54.5-8.8c9.8-4,27.7-11,47.4-17c77.9-23.6,89.6-17.3,149,33.2c13.7,11.6,13.7,32.3,11.7,37.7
				c-2.1,5.9-22.3,50.2-27,56.4c-0.3,0.7-148.5,90.1-154.8,95.5c-5.7,4.9-8.1,10.8-8.1,16.2c0.2,11,8,20.5,15.1,27.8
				c4.9,4.8,9.6,8.6,12.3,10.6c0,0,29.7,104.1,32.8,128c2.9,23.9-8.9,21.2-17.8,44.9c-10.6,28.1-21.4,58.1-21.5,71.5
				c0,1.6,0.1,3.1,0.8,4.8c2,5.4,6.7,10.7,12.5,16.7c6,6,13.1,12.4,20,18.3c12.8,10.8,24.8,20.1,26.8,21.6l48.3,44.4l2.9,0.7l0,0
				c0.2,0,0.4,0.2,0.9,0.3c0.7,0.2,1.9,0.6,3.4,1.2c2.9,1.2,7,3,10.9,5.7c8,5.5,15.8,13.8,15.8,28.2c0,6.6-1.7,14.4-6.1,23.7
				c-7.6,16.5-35.2,28.6-69,36.1c-33.7,7.6-71.8,10.7-96.9,11.9c-11.6,0.6-20.3,0.8-24.4,0.8l-70.5-27.8l-156-59
				c-0.3-17.9-2.9-88.7-20.1-140.9c-6.6-20.1-15.1-37.4-28-48.9c-21.4-18.3-80.6-95.8-88.5-110.5c-8.3-15.3-28.1-54.1-46.3-90.9
				c-18.3-36.7-35.3-72-37.6-78.9c-0.6-1.7,11.9-76.5,62.4-85.2c25.7-4.5,59-11.9,94.2-18.6c2.3-0.4,4.5-0.8,6.6-1.2l1.4,0.6l0.8-1
				C1268.6,375.2,1342,361.7,1378.5,353.1z M182.6,299.4c-18.7-30.7-47.4-79.3-56.6-99.9c-9.8-21.9,7-54.3,71.2-63
				c64.2-8.7,157.5-52.7,173.1-57.2c38.7-11.5,146.1-38.7,184.4-46.3c4.6-1,14.7-1.6,27.2-1.6c31.3,0,159.5,11.8,185,10.9
				c25.4-1,71.6-8.1,100.6-12c29.3-3.9,51.8-4.6,70.8,29.3c19.3,33.9,29.8,45.9,18.6,57.6c-11.2,11.6-51.8,1.3-68.3,27.1
				c-16.5,25.8-108.7,128.7-178.5,134.1c-21.4,1.7-42.2,1.1-60,4.5c-46,8.7-111.4,19.6-149.1,27.9c-12.6,2.9-21.8,5.1-28.2,7.9
				c-0.2,0-0.3,0.1-0.6,0.2c-0.7,0.2-1.6,0.5-2.9,0.8c-2.3,0.6-5.8,1.4-9.9,2.2c-8.2,1.7-19.2,3.7-31.8,5.8
				c-25.5,4.3-58,9.4-89.8,14.2C288.2,349.6,201.4,330.2,182.6,299.4z M472.6,543.9c-19.4-15-82.2-93.7-111.8-117.4
				c-29.6-23.8-198.9-90.5-104.4-69.2c94.6,21.4,160.7-11.9,209.2-21.6c9.1-1.9,14.3-2.9,19.2-5c1.9-1.1,11.1-3.7,23.1-6.2
				c12-2.7,27.4-5.7,44-8.8c33.7-6.3,73.1-13.1,104.1-18.9c15.1-2.8,34.1-4,54.5-4c56.8,0,122.7,9,143.2,11.9
				c13.2,1.8,75.6,13.5,133.7,24.6c53.5,10.3,55.5,6.8,112.1,21.6c56.6,14.8-27.5,50.2-43.4,53.3c-32.8,6.6-48,79.2-38.6,92.9
				c20,29.6,74.4,143.9,81.9,186.9c7.3,43.1-73.1,52-115,37.6c-87.5-30.1-183-99.4-199.8-111.1c-7.1-5-10.5-9.5-14.6-16.5
				c-4-6.9-58.4-74-67.2-86c-8.3-11.5-42.6,2.3-53.9,6.1c-10.9,3.9-82.1,27.5-94.8,33.4C528.5,559.3,483.7,552.6,472.6,543.9z
				 M554.8,935.9c-26.7-3.1-57.9-7.8-66-9c-39.9-19.3-77.6-30.8-103.2-52.2c-19.4-16-66.4-49.3-95.1-69.3c5.3,0.2,10.8,0.3,16.5,0.3
				c14.7,0,30.3-0.6,43.6-1.4c13.2-0.9,23.7-1.9,30.3-3.4c2.4-0.6,13.5-2,27.7-3.6c14.2-1.7,32.3-3.9,51.5-6.8
				c38.6-6,81.7-14.6,109.5-29.5c14.1-7.7,18.4-19.9,18.4-32.7c-0.2-35.6-31.4-86.2-46.6-116.6c-4.8-9.4-19.1-23.5,17.4-44.8
				c36.5-21.3,69.5-39,103.6-45.4c34.1-6.4,36.3,7.7,45.6,17.3c9.2,9.5,17.6,21.9,26.1,33.6c8.2,11.2,12.1,19.5,16.5,27.1
				c4.5,7.5,9.4,14.6,19.3,21.3c16.8,11.6,112.7,81.8,205.2,113.8c46.9,16.2,92,19.2,129.6,23c37.8,3.9,66.5,8.5,86.2,25.5
				c14.3,12,25.7,41.9,32,73.5c6.7,31.7,9.7,65.7,10.8,87.6c0.6,10,0.8,17.4,0.9,21.2c-6,4.5-20.1,15.7-34.4,29.5
				c-18.5,18.1-38,39.7-38.3,59.3c0,15.9-1.4,31-2.6,42.1c-1.3,11-2.6,18-2.6,18l-0.3,2.4l24.1,29.3c0,0.2-0.1,0.3-0.4,0.4
				c-3.6,2.5-8.6,6-14.7,9.7c-12.1,7.4-28.3,15.7-42.9,18.9c-33.1,7.6-94.9,19.3-94.9,19.3l-1.6,0.3l-73.1,32.3l-58.5-40.8
				c-4.2-5.3-27.3-33.3-47-50.3c-16.3-14.1-18.2-28.2-18.5-31c0-0.4,0-0.4,0-0.4v-3.2l-72.9-46.3l-35.2-7l-50.5-48.6l-0.7-0.4
				c0,0,0,0-0.2-0.1c-0.2-0.2-0.5-0.5-0.9-0.8c-0.9-0.7-2.2-1.7-3.6-3.1c-2.8-2.7-6.2-6.6-8.3-11.1c-3-5.4-8.3-8.8-14.9-13.1
				c-6.5-4.1-14.4-8.4-22-12.3c-12-6.1-23.4-11.3-27.8-13.3c-0.1,0-0.1-0.1-0.1-0.1c-1.9-1.4-3.9-2.4-6.8-3.4
				C579.6,939.6,571.1,937.7,554.8,935.9z M397.8,1317.3c0.2-0.2,0.2-0.3,0.2-0.3l-0.5-0.2c-1.9-6.9-3.3-14.6-3.9-22.9
				c-0.1-1.9-0.2-3.7-0.2-5.7c-0.1-67.5,70.7-133,110.1-174.8c13-14.1,22.7-25.1,25.1-35.5c1.6-9,2.6-22.3,2.6-37.6
				c0-20.2-2-43.7-7.6-64.4c-3.4-11.7-7.7-22.4-14.1-31.3c12.6,1.8,27.7,3.8,41.9,5.4c12.1,1.4,19.1,2.8,22.5,3.7v0.3l4.8,2.1
				c0.1,0,10.8,4.7,23.4,10.9c12.3,6.1,26.8,14,32.5,18.9c1.6,1.3,2.5,2.3,2.3,2.3c5.6,11,14.9,18.3,17.6,20.3l49.5,47.9
				c0.1,15.4,0.3,45.3,5.4,63.6c2.7,9.1,9.4,22.3,15.4,36c6.1,13.6,11.2,27.7,11.2,36c0,1.7-0.2,3-0.5,4c-2.3,8-6.8,23-6.8,40.8
				c-0.1,17.8,15.8,41.2,3.8,52.3c-12.2,11.1-53.2,9.4-69.8,9.4c-4,0-7.2-0.3-7.2-0.4c-1.5-0.3-3-1.1-5.1-2.7c-2.1-1.6-4.2-3.8-8-6
				c-2.5-1.5-6.6-3.1-11.7-3.1c-4.8,0-9,1.4-12.5,3.2c-3.5,1.8-6.8,4.2-10.6,7.4c-15.4,13.3-45.6,38.9-65.6,51.7
				c-6.2,4.2-12.3,7-12.7,6.9l0,0c-0.3,0-0.5,0-1.1,0.1c-0.9,0-2.2,0.1-3.7,0.1c-13,0.1-40.6-0.8-68.7-1
				C427.3,1354.7,401.3,1329.2,397.8,1317.3z M478.4,1551.1c1.3-15.7,18.3-28.3-1.4-37.9c-19.6-9.6-114.2-67-132.8-78.8
				c-37.9-24.1-19.6-34.2-13.5-40.9c27.2-30.4,38.5-41.2,52.6-58.3c8.4,16.9,20.9,30.1,35.3,40.5c24.4,17.5,53.5,26.8,75,33.6
				c14.4,4.3,25.8,8.1,28.6,10.2c12.2,8.5,24.5,13.3,45.9,18.6c21.6,5.4,53.9,12.2,109.8,25.7c47.2,11.3,71.8,14.2,89.7,14.2
				c15.5,0,24.2-1.9,35.8-1.9c7.8,0,35.7-1.1,50.8,1.5c24.9,4.3,64.9,55,75.9,78.5c5.8,12.1,21.3,38.2,36,63.4
				c14.6,25,28.8,49.8,31.2,56.2c9,23-13.7,55.3-32.7,62.6c-32.5,12.5-62.7,22.8-70.9,25.5c-9.2,0-44.1-0.1-84.2-0.6
				c-13.8-0.2-28.4-10.2-41.5-22.3c-13.1-12.1-13.6-12.1-49.4-29.3c-35.7-17.2-107.4-34.3-155.6-59.5
				c-46.8-23.4-55.4-31.3-62.9-38.9C488.9,1601.9,477.1,1566.8,478.4,1551.1z M395.1,1749.8c-37.9,5.2-68.5,5.2-95.8,8
				c-14.9,1.5-44.9-9.8-57.2-18.6c-12.3-8.8-88.5-65-56-81.5c32.3-16.5,47.9-26.6,86.2-27.7c38.3-1.1,72.4-4.9,104.7-13.4
				c31.5-8.5,106.7,3.5,123.6,17.5c8.4,6.8,124.8,53.7,172.4,70c47.6,16.3,64.2,28.1,69.5,42.9c5.1,14.9-45.9,13.5-61.3,12.2
				c-7.8-0.6-13.6-1.5-14.9-1.9c-6.2-1.6-15-2.9-26.9-4.3c-12-1.4-26.6-2.7-43-3.9c-33-2.3-73-4-111.2-4
				C451.7,1745.1,420,1746.4,395.1,1749.8z M770.8,2156.4c-2.9,1.7-7.4,4-12.5,6.3c-10.4,4.6-24.2,8.9-36.5,8.8
				c-4.7,0-9.2-0.5-13.6-1.8c-23.9-6.9-40.5-12.8-56.8-13.1c-8.8-0.2-18.5,2.8-23.6,8.5c-3.9,4.2-21.1,17.1-36.4,28.2
				c-14,10-26.9,18.9-29.5,20.7c0,0-20.6,16.6-63.5,28.3c-43,11.8-65.2,8.1-75.6,4c-19.6-7.8-36.9-14.2-50.2-23.1
				c-13.3-8.9-93.9-84.8-115.6-107.2c-6.6-7-12.9-11.6-20.1-14.6c-7-3-14.4-3.7-20.4-3.7c-6.1,0-11.3,0.5-16.6,0.5
				c-3.5,0-7.1-0.1-11.4-0.7c-20.9-2.7-70.6-11.5-74.5-28.3c-3.8-16.8,55.6-47.8,70.8-66.3c15.1-18.5,7.3-26.9,12.7-59.9
				c5.7-33.1,13.9-74.1,24.3-105.7c6.9-20.9,15.4-38,22.4-43.9c16.5-14.5,33.4-18.8,58.3-21.5c24.8-2.6,56.7-2.6,96.8-8.1
				c22.5-3.1,53.5-4.4,86-4.4c56,0,116.9,3.8,150.8,7.7c11.2,1.3,19.5,2.6,22.6,3.5c5.3,1.4,11.5,2,20.1,2.8
				c8.5,0.7,18.8,1.3,30.6,1.8c23.5,1,52.2,1.7,79.7,2.1c55.4,0.9,107.5,0.9,107.5,0.9h2.5l2.1-0.7c0.2-0.1,138.5-14.8,166.2-4.2
				c27.5,10.6,27.5,16.3,7.2,30.6c-20.2,14.4-42.9,18.5-97,25.9c-28.4,3.9-41.8,7-52.5,9.5c-10.6,2.4-17.6,4.1-36.9,6
				c-14.2,1.6-28.5,8.5-45.3,17.7c-16.6,9.2-34.6,20.8-51.1,32.3c-33.4,23-61.7,45.3-61.7,45.4l-3.1,2.5l44.9,212.7
				C771.3,2156.2,771.2,2156.3,770.8,2156.4z M1452.5,2087.9c-71.5,14.7-104.9,61-174,53.5c-69.3-7.5-148.2-65.5-178.7-77.1
				c-8.9-3.3-16.3-5.6-24.8-5.7c-21.1,0-46.9,3-70.3,7.5c-23.4,4.7-43.5,10.2-55.2,17.8c-0.8,0.7-5,2.9-10.6,5.4
				c-5.7,2.6-13.1,5.8-21.6,9.3c-17.1,7-38.3,15.3-59,23.3c-26.7,10.3-52.6,20.1-67.5,25.6l-42.2-199.8c5.6-4.4,18.3-14.2,34.3-25.8
				c21.5-15.7,49.4-34.8,72.9-47.8c15.1-8.7,29.8-14.4,35.2-14.7c20.2-1.9,30-4.1,40.6-6.6c10.4-2.4,22.2-5.1,50-9
				c58.6-8,99.5-28.3,116.2-36c8.7-4.5,11.2-10.7,14.2-17.8c2.3-7.1,3.1-15.5,5.2-23.4c4.3-17.1,101.3-4.3,115.4-4.1
				c19.8,0,39.3-10.8,76.8,5.6c37.4,16.4,70.3,101.4,113.1,142.5c43,41.2,237.1,117.6,189.7,138.7
				C1564.8,2070.7,1523.8,2073.2,1452.5,2087.9z M2109,2267.6c-22.6-2.4-87.4-26.4-140.3-54.5c-29-15.5-18.1-37.9-45.4-41.9
				c-76.8-11.4-148.3-60.5-166.5-75.2c-18.2-14.7-40.2-28.4-31.6-37.3c11.5-12,62.4-17.3,109.1-40.1
				c54.1-26.2,182.5-68.1,182.5-68.1h0.7c24.4-0.2,62.7,10.6,99.4,24.6c36.5,14,72,30.9,93.8,42.2c33.8,17.4,99.3,50.2,133.9,71.6
				c11.3,6.9,19.6,13.3,20.6,15.1c0.7,0.8,2.9,5.6,5.1,11.6c2.2,6.2,4.7,14.1,7.6,22.8c5.9,17.4,19.9,30.2,16,42.5
				c-4,12.3-18.1,29-40.5,39.8c-22.2,10.8,15.7,19.9-20.3,29.7c-35.9,9.9-48.6,0.9-69.9-11.6c-9.1-5.4-20.8-7.4-32.5-7.4
				c-27.7,0.2-58.9,10.3-84.2,20C2130.2,2257.7,2131.7,2270,2109,2267.6z"/>
		</g>
	</g>
	<rect fill="#6B7C86" width="3840" height="2160"/>
</g>
</svg>
