<?xml version="1.0" encoding="utf-8"?>
<!-- Generator: Adobe Illustrator 24.3.0, SVG Export Plug-In . SVG Version: 6.00 Build 0)  -->
<svg version="1.1" id="Layer_1" xmlns="http://www.w3.org/2000/svg" xmlns:xlink="http://www.w3.org/1999/xlink" x="0px" y="0px"
	 viewBox="0 0 3840 2160" style="enable-background:new 0 0 3840 2160;" xml:space="preserve">
<style type="text/css">
	.st0{fill:#FFAA00;}
	.st1{fill:#FFB100;}
	.st2{fill:#FFB800;}
	.st3{fill:#FFBF00;}
	.st4{fill:#FFC500;}
	.st5{fill:#FFCC00;}
	.st6{fill:#FFD624;}
	.st7{fill:#FFE038;}
	.st8{fill:#FFEB49;}
	.st9{fill:#FFF558;}
	.st10{fill:#FFFF66;}
</style>
<rect x="12.6" y="8.6" class="st0" width="3840.3" height="2151.4"/>
<g>
	<path class="st1" d="M1179.1,1906.7c-262.3-58.6-536.2-86.6-804.8-52.2c-122.9,15.3-244.1,44.6-361.7,89.8V2160h2025.3
		c-278.2-89.3-554-183.1-834.3-248C1195.4,1910.2,1187.3,1908.6,1179.1,1906.7z"/>
	<path class="st2" d="M3852.9,8.6H12.6v1935.7c117.6-45.2,238.8-74.8,361.7-90.1c268.6-34.2,542.4-6.5,804.8,52.2
		c8.2,1.9,16.3,3.8,24.5,5.4c280.3,64.5,556.1,158.7,834.3,248h1815V8.6z"/>
	<path class="st3" d="M1160.9,1571c7.7,2.2,15.4,4.6,22.8,6.7c470.9,141.2,933,359,1424.5,474.9c418.1,98.4,838.9,78.5,1244.7-27.4
		V8.6H12.6v1546.1c125.5-47.3,255.6-74.5,386.7-83.1C656.8,1453.8,914.4,1499,1160.9,1571z"/>
	<path class="st4" d="M12.6,8.6v1154.8c133.5-49.5,272.4-73.4,411.4-74.5c246.7-2.2,487.7,61,718.4,146.6c7.2,2.7,14.2,5.4,21.4,8.1
		c440.7,166.7,877.7,392.9,1349.9,516.6c448.1,117.5,903.2,92.5,1339.1-33.9V8.6H12.6z"/>
	<path class="st5" d="M449,706.2c235.7,16.1,460.6,94.7,675.2,193.9c6.7,3,13.2,6.2,19.9,9.1c410.4,192.6,822.5,426.2,1275.2,558.6
		c477.2,139.3,968.2,109.7,1433.6-39.8V8.6H12.6v761.6C154.2,717.5,302.1,696.2,449,706.2z"/>
	<path class="st6" d="M3852.9,8.6H12.6v366.5c149.5-56.2,306.5-74,461.3-51.6c224.7,32.5,433.2,128.3,632,241
		c6.2,3.5,12.2,7,18.5,10.5c380.2,218.1,767.3,459.6,1200.8,600.2c505.2,164,1034,131.8,1528-44.6V8.6H3852.9z"/>
	<path class="st7" d="M1104.5,240.7c349.9,243.9,712.1,492.1,1126.2,641.9c500.7,181.3,1035.2,163.5,1531.1-14.3
		c30.7-11,61-22.6,91.4-34.7V8.6h-3149C838.5,65.9,965,144.7,1087.4,229.1C1093.2,232.9,1098.7,236.9,1104.5,240.7z"/>
	<path class="st8" d="M3852.9,8.6h-2645C1491.4,239.3,1792.4,451,2136.3,590c460.4,186.1,960.1,200.9,1428.1,56.7
		c97.9-30.1,194.7-67.8,288.7-112.1V8.6H3852.9z"/>
	<path class="st9" d="M3366.9,424.9c113.3-28.5,224.7-68,332.7-117.8c52.1-23.9,103.2-50.6,153.4-79.3V8.6h-2296
		c151,112.1,311.3,210.3,485.1,288.8C2461.8,487.5,2926.9,535.9,3366.9,424.9z"/>
	<path class="st10" d="M3169.6,203.3C3350.3,169.4,3527,103.5,3690,8.6H1954.6C2333.1,199.5,2760.1,280.2,3169.6,203.3z"/>
</g>
</svg>
